<svg id="Layer_1" data-name="Layer 1" xmlns="http://www.w3.org/2000/svg" viewBox="0 0 254.53 111.25"><defs><style>.cls-1{fill:#ffc418;}.cls-2{fill:#231f20;}</style></defs><title>1</title><path class="cls-1" d="M85.21,111.25a7.2,7.2,0,0,1-5.09-2.11L62.76,91.79H31.11a7.2,7.2,0,0,1-5.41-2.45L1.79,62.08a7.2,7.2,0,0,1,.33-9.85A177.55,177.55,0,0,1,128.25,0,174.55,174.55,0,0,1,252.42,51.64a7.2,7.2,0,0,1,.31,9.85L228.22,89.34a7.2,7.2,0,0,1-5.4,2.45H188.24l-17.36,17.36a7.2,7.2,0,0,1-5.09,2.11Z"/><path class="cls-2" d="M247.33,56.73A167.4,167.4,0,0,0,128.25,7.2,171.42,171.42,0,0,0,7.2,57.33L31.11,84.58H65.75l19.47,19.47h80.58l19.47-19.47h37.55Z"/><path class="cls-1" d="M56,43.35,54.19,40a9,9,0,0,0-.94-1.43,5.1,5.1,0,0,0-.92-.81l6.44-3.61A4.62,4.62,0,0,0,59,35.4a8.86,8.86,0,0,0,.71,1.54l5.34,9.52A9.19,9.19,0,0,0,66,47.89a5.09,5.09,0,0,0,.92.81l-6.44,3.61a4.65,4.65,0,0,0-.23-1.21,9,9,0,0,0-.71-1.54l-2.14-3.81-4.13,2.31,2.14,3.81a9.08,9.08,0,0,0,.94,1.43,5.08,5.08,0,0,0,.92.81l-6.44,3.61a4.68,4.68,0,0,0-.23-1.21A9,9,0,0,0,49.87,55l-5.34-9.52A9,9,0,0,0,43.59,44a5.16,5.16,0,0,0-.92-.81l6.44-3.61a4.64,4.64,0,0,0,.23,1.21,8.9,8.9,0,0,0,.71,1.54l1.86,3.31Z"/><path class="cls-1" d="M63.29,37.44a5.44,5.44,0,0,1-.43-3.87,4.08,4.08,0,0,1,2.5-2.25l8.82-3.57a4.11,4.11,0,0,1,3.35-.14,5.44,5.44,0,0,1,2.39,3.09l2.58,6.36a5.44,5.44,0,0,1,.43,3.87,4.09,4.09,0,0,1-2.5,2.25l-8.82,3.57a4.11,4.11,0,0,1-3.35.14,5.44,5.44,0,0,1-2.39-3.09Zm8.86,5q.4,1,1.56.52l2.55-1q1.16-.47.76-1.46l-3.38-8.34q-.4-1-1.56-.52l-2.55,1q-1.16.47-.76,1.46Z"/><path class="cls-1" d="M96,21.39l8.27-2a5.05,5.05,0,0,0-.13,1.21,8.07,8.07,0,0,0,.26,1.7L107,32.94a8.91,8.91,0,0,0,.51,1.64,4.53,4.53,0,0,0,.68,1l-7.21,1.72a4.68,4.68,0,0,0,.11-1.23,8.85,8.85,0,0,0-.27-1.67l-2.38-10L96.92,38.28l-4.27,1L85.21,27.45l2.33,10a11.5,11.5,0,0,0,.55,1.84,3.13,3.13,0,0,0,.76,1L85,41.14A3.08,3.08,0,0,0,85.21,40a11.08,11.08,0,0,0-.34-1.87L82.39,27.72a11.12,11.12,0,0,0-.54-1.82,3.1,3.1,0,0,0-.76-.94l8.5-2,5.28,8.44Z"/><path class="cls-1" d="M120.75,32a9.88,9.88,0,0,0,1.55-.23,9.33,9.33,0,0,0,1.26-.47l-.28,3.24-14.6,1.34a4.65,4.65,0,0,0,.28-1.2,9,9,0,0,0,0-1.7l-1-10.87a9,9,0,0,0-.27-1.69,5.11,5.11,0,0,0-.51-1.12l14.34-1.32.83,3.32a12.08,12.08,0,0,0-1.31-.32,6,6,0,0,0-1.62,0l-5.15.47.36,3.88,4.5-.41a9.34,9.34,0,0,0,1.51-.23,11.43,11.43,0,0,0,1.3-.47l.33,3.63a12.88,12.88,0,0,0-1.28-.2,8.4,8.4,0,0,0-1.6,0l-4.5.41.41,4.45Z"/><path class="cls-1" d="M140.17,32.28a9,9,0,0,0,0,1.71,5.09,5.09,0,0,0,.3,1.19l-7.35-.67a4.64,4.64,0,0,0,.5-1.13,8.94,8.94,0,0,0,.28-1.67l1-10.88a9.09,9.09,0,0,0,0-1.71,5.14,5.14,0,0,0-.3-1.19l14.34,1.3.19,3.41a7.34,7.34,0,0,0-1.19-.55,6.29,6.29,0,0,0-1.6-.33l-5.15-.47-.35,3.88,4.51.41a9.27,9.27,0,0,0,1.52,0,11.8,11.8,0,0,0,1.37-.23L147.88,29q-.58-.23-1.23-.42a8.48,8.48,0,0,0-1.58-.27l-4.5-.41Z"/><path class="cls-1" d="M160.54,35.67a8,8,0,0,0,1.66.19,3.37,3.37,0,0,0,1.13-.18l-1.2,3.13-14.06-2.87a4.7,4.7,0,0,0,.62-1.07,8.88,8.88,0,0,0,.47-1.63l2.19-10.7a9.06,9.06,0,0,0,.23-1.69,5.17,5.17,0,0,0-.16-1.21l7.23,1.48a4.63,4.63,0,0,0-.62,1.07,8.82,8.82,0,0,0-.47,1.63l-2.21,10.8Z"/><path class="cls-1" d="M174.91,40a9.91,9.91,0,0,0,1.51.39,9.36,9.36,0,0,0,1.35.06l-1.52,2.87-14-4.48a4.67,4.67,0,0,0,.73-1,8.91,8.91,0,0,0,.64-1.57L167,25.91a9.12,9.12,0,0,0,.41-1.66,5.16,5.16,0,0,0,0-1.22l13.71,4.4-.54,3.38a11.75,11.75,0,0,0-1.08-.81,6,6,0,0,0-1.48-.67l-4.93-1.58-1.19,3.71,4.31,1.38a9.34,9.34,0,0,0,1.48.38,11.62,11.62,0,0,0,1.38.08l-1.11,3.47a12.85,12.85,0,0,0-1.11-.68,8.43,8.43,0,0,0-1.48-.61L171,34.09l-1.37,4.26Z"/><path class="cls-1" d="M189.27,46.09a9.79,9.79,0,0,0,1.46.55,9.34,9.34,0,0,0,1.33.21l-1.82,2.69-13.4-5.95a4.65,4.65,0,0,0,.83-.91,8.94,8.94,0,0,0,.8-1.49l4.43-10a9,9,0,0,0,.58-1.6,5.16,5.16,0,0,0,.1-1.22l13.17,5.84-.9,3.3a11.86,11.86,0,0,0-1-.92,6,6,0,0,0-1.4-.82l-4.73-2.1-1.58,3.57,4.14,1.83a9.33,9.33,0,0,0,1.43.53,11.77,11.77,0,0,0,1.37.22l-1.48,3.33a12.87,12.87,0,0,0-1-.8,8.43,8.43,0,0,0-1.41-.77L186,39.77l-1.81,4.09Z"/><path class="cls-1" d="M212.49,43.08l-1.23,3.19a5.22,5.22,0,0,0-.68-.93,4.58,4.58,0,0,0-1.06-.79L207,43.12l-5.49,9.56a9,9,0,0,0-.75,1.54,5.11,5.11,0,0,0-.23,1.2l-6.4-3.68a4.72,4.72,0,0,0,.92-.82,9,9,0,0,0,1-1.4L201.51,40,199,38.52a4.37,4.37,0,0,0-1.19-.52,5.79,5.79,0,0,0-1.2-.08l2.16-2.72Z"/><path class="cls-1" d="M134.85,91a11.59,11.59,0,0,0,.33,3.15,7.26,7.26,0,0,0,1,2.13H118.89a6.45,6.45,0,0,0,1-2.07,12.44,12.44,0,0,0,.33-3.22V69.5h-5.46V62.72L131,57.86h3.9Z"/></svg>