<svg id="Layer_1" data-name="Layer 1" xmlns="http://www.w3.org/2000/svg" viewBox="0 0 254.53 111.25"><defs><style>.cls-1{opacity:0.5;}.cls-2{fill:#fff200;}.cls-3{fill:none;stroke:#231f20;}.cls-4{fill:#ffc418;}</style></defs><title>10</title><g class="cls-1"><path class="cls-2" d="M7.2,57.33a171.41,171.41,0,0,1,121-50.13A167.4,167.4,0,0,1,247.33,56.73L222.81,84.58H31.11ZM94.36,5.09a177,177,0,0,0-91,48.41,5.4,5.4,0,0,0-.25,7.39L27.05,88.15A5.4,5.4,0,0,0,31.11,90h191.7a5.39,5.39,0,0,0,4.05-1.83l24.52-27.86a5.39,5.39,0,0,0-.24-7.38A172.77,172.77,0,0,0,128.25,1.8,176.68,176.68,0,0,0,94.36,5.09"/></g><path class="cls-3" d="M7.2,57.33a171.42,171.42,0,0,1,121-50.13A167.4,167.4,0,0,1,247.33,56.73"/><path class="cls-4" d="M85.21,111.25a7.2,7.2,0,0,1-5.09-2.11L62.76,91.79H31.11a7.2,7.2,0,0,1-5.41-2.45L1.79,62.08a7.2,7.2,0,0,1,.33-9.85A177.55,177.55,0,0,1,128.25,0,174.55,174.55,0,0,1,252.42,51.64a7.2,7.2,0,0,1,.31,9.85L228.22,89.34a7.2,7.2,0,0,1-5.4,2.45H188.24l-17.36,17.36a7.2,7.2,0,0,1-5.09,2.11Z"/><path d="M247.33,56.73A167.4,167.4,0,0,0,128.25,7.2,171.42,171.42,0,0,0,7.2,57.33L31.11,84.58H65.75l19.47,19.47h80.58l19.47-19.47h37.55Z"/><path class="cls-4" d="M36.06,47.71l2.47,2.37a5.26,5.26,0,0,0-1.12.27,4.58,4.58,0,0,0-1.14.67L34,52.77l6.71,8.75a9,9,0,0,0,1.13,1.28,5.09,5.09,0,0,0,1,.67L37,68a4.65,4.65,0,0,0-.4-1.17,8.9,8.9,0,0,0-.93-1.42l-6.71-8.75-2.29,1.76a4.35,4.35,0,0,0-.93.9,5.77,5.77,0,0,0-.53,1.08l-1.68-3Z"/><path class="cls-4" d="M47.77,54.59,48,57.13a2.18,2.18,0,0,0,.31,1,2.23,2.23,0,0,0,.35.47,3.55,3.55,0,0,0,.58.36l-4,2.43q.15-1.21.17-1.89a12.5,12.5,0,0,0-.1-1.67l-1.36-14-1.11-.43,6.44-3.88,12.48,9.23a7.79,7.79,0,0,0,2.43,1.21L57,54.25a4,4,0,0,0-.08-.69,1.54,1.54,0,0,0-.17-.43,3.16,3.16,0,0,0-.84-.95L54,50.82ZM51.67,49l-4.94-3.6.73,6.14Z"/><path class="cls-4" d="M73.8,42.79A8,8,0,0,0,75.25,42a3.4,3.4,0,0,0,.8-.81l.88,3.23-13.05,6a4.67,4.67,0,0,0-.13-1.23,9,9,0,0,0-.58-1.59l-4.54-9.93a9,9,0,0,0-.81-1.5,5.11,5.11,0,0,0-.85-.88l6.72-3.07a4.62,4.62,0,0,0,.13,1.23A8.83,8.83,0,0,0,64.39,35L69,45Z"/><path class="cls-4" d="M73.28,31a9.12,9.12,0,0,0-.64-1.58,5.1,5.1,0,0,0-.74-1l13-4.22A5.11,5.11,0,0,1,88.34,24,3.21,3.21,0,0,1,90,26l.57,1.75A2.19,2.19,0,0,1,90.35,30a5.25,5.25,0,0,1-2.42,1.37,8.35,8.35,0,0,1,3-.17q.81.21,1.21,1.46L93,35.33A3.5,3.5,0,0,1,93,38.12,4.9,4.9,0,0,1,90,40l-13,4.22a4.68,4.68,0,0,0,0-1.23,8.9,8.9,0,0,0-.4-1.65Zm7.21,1.64L84,31.48a1.4,1.4,0,0,0,.74-.42,1,1,0,0,0,0-.79l-.63-1.93c-.12-.36-.26-.58-.43-.65a1.33,1.33,0,0,0-.85.08l-3.51,1.14Zm2.24,6.87,3.51-1.14a1.41,1.41,0,0,0,.74-.42,1,1,0,0,0,0-.79l-.81-2.47c-.12-.36-.26-.58-.43-.65a1.34,1.34,0,0,0-.85.08l-3.51,1.14Z"/><path class="cls-4" d="M92.82,26.91A5.45,5.45,0,0,1,93.18,23a4.09,4.09,0,0,1,2.9-1.7l9.36-1.72a4.11,4.11,0,0,1,3.31.54,5.44,5.44,0,0,1,1.71,3.5l1.24,6.75a5.44,5.44,0,0,1-.36,3.87,4.08,4.08,0,0,1-2.9,1.7L99.09,37.7a4.11,4.11,0,0,1-3.31-.54,5.44,5.44,0,0,1-1.71-3.5Zm7.67,6.65q.19,1.05,1.42.82l2.71-.5q1.23-.22,1-1.27L104,23.76q-.19-1-1.42-.82l-2.71.5q-1.23.23-1,1.27Z"/><path class="cls-4" d="M128,17.76l.7,3.35a5.28,5.28,0,0,0-1.08-.41,4.55,4.55,0,0,0-1.32-.08l-2.88.16.59,11a9,9,0,0,0,.21,1.69,5,5,0,0,0,.46,1.13l-7.37.4a4.68,4.68,0,0,0,.33-1.19,9,9,0,0,0,0-1.7l-.59-11-2.88.16a4.33,4.33,0,0,0-1.28.21,5.8,5.8,0,0,0-1,.59l.33-3.46Z"/><path class="cls-4" d="M145.65,18.78l.3,3.41a5.25,5.25,0,0,0-1-.53,4.58,4.58,0,0,0-1.3-.24l-2.88-.19-.71,11a9,9,0,0,0,0,1.71,5.09,5.09,0,0,0,.33,1.18L133,34.64a4.61,4.61,0,0,0,.46-1.14,8.91,8.91,0,0,0,.24-1.68l.71-11-2.88-.19a4.35,4.35,0,0,0-1.29.06,5.82,5.82,0,0,0-1.11.46l.74-3.39Z"/><path class="cls-4" d="M161.28,35.86a9.07,9.07,0,0,0-.3,1.68,5.09,5.09,0,0,0,.11,1.22L153.93,37a4.66,4.66,0,0,0,.66-1,8.87,8.87,0,0,0,.54-1.61l2.67-10.59a9.05,9.05,0,0,0,.3-1.68,5.14,5.14,0,0,0-.11-1.22l14,3.52-.35,3.4a7.34,7.34,0,0,0-1.09-.73,6.35,6.35,0,0,0-1.53-.58l-5-1.27L163,29l4.39,1.11a9.22,9.22,0,0,0,1.5.28,11.75,11.75,0,0,0,1.38,0l-.89,3.53q-.54-.32-1.15-.61a8.47,8.47,0,0,0-1.52-.52l-4.39-1.11Z"/><path class="cls-4" d="M180.87,42.32a7.92,7.92,0,0,0,1.61.44,3.39,3.39,0,0,0,1.14,0L182,45.66l-13.47-5a4.68,4.68,0,0,0,.77-1A8.88,8.88,0,0,0,170,38.2L173.76,28a9.12,9.12,0,0,0,.48-1.64,5.12,5.12,0,0,0,0-1.22l6.93,2.55a4.66,4.66,0,0,0-.77,1,9,9,0,0,0-.71,1.54L175.9,40.49Z"/><path class="cls-4" d="M194.49,48.75a9.72,9.72,0,0,0,1.44.61,9.31,9.31,0,0,0,1.32.26l-1.92,2.62-13.16-6.46a4.64,4.64,0,0,0,.87-.88,8.94,8.94,0,0,0,.86-1.46l4.81-9.8a9,9,0,0,0,.65-1.58,5.12,5.12,0,0,0,.15-1.22l12.93,6.35-1,3.26a11.7,11.7,0,0,0-.95-1,6,6,0,0,0-1.37-.87l-4.64-2.28-1.72,3.5,4.06,2a9.3,9.3,0,0,0,1.41.59,11.55,11.55,0,0,0,1.36.28L197.94,46a12.72,12.72,0,0,0-1-.84,8.45,8.45,0,0,0-1.38-.82l-4.06-2-2,4Z"/><path class="cls-4" d="M207.84,56.75a9.81,9.81,0,0,0,1.37.75,9.4,9.4,0,0,0,1.29.39l-2.18,2.41-12.45-7.75a4.66,4.66,0,0,0,1-.79,8.82,8.82,0,0,0,1-1.37l5.78-9.27a9,9,0,0,0,.8-1.51,5.12,5.12,0,0,0,.27-1.19L216.91,46l-1.35,3.14a11.62,11.62,0,0,0-.85-1,6,6,0,0,0-1.27-1l-4.39-2.74L207,47.7l3.84,2.39a9.36,9.36,0,0,0,1.34.73,11.38,11.38,0,0,0,1.32.41l-1.92,3.09a12.79,12.79,0,0,0-.91-.93,8.43,8.43,0,0,0-1.29-1L205.53,50l-2.37,3.79Z"/><path class="cls-4" d="M231.27,56.91l-1.65,3a5.17,5.17,0,0,0-.55-1,4.56,4.56,0,0,0-.95-.92l-2.29-1.76-6.72,8.74a9,9,0,0,0-.95,1.42,5.08,5.08,0,0,0-.39,1.16L211.93,63a4.63,4.63,0,0,0,1-.69,8.86,8.86,0,0,0,1.13-1.26l6.72-8.74-2.29-1.76a4.3,4.3,0,0,0-1.11-.67,5.77,5.77,0,0,0-1.18-.24l2.5-2.4Z"/><path class="cls-4" d="M111.51,91a11.59,11.59,0,0,0,.33,3.15,7.26,7.26,0,0,0,1,2.13H95.55a6.45,6.45,0,0,0,1-2.07A12.44,12.44,0,0,0,96.87,91V69.5H91.41V62.72l16.2-4.86h3.9Z"/><path class="cls-4" d="M152.61,57.86q4.86,0,7.29,2.61t2.43,8.67V85q0,6-2.43,8.64t-7.29,2.64h-22q-4.86,0-7.29-2.61T120.93,85V69.14q0-6,2.43-8.64t7.29-2.64Zm-14.16,6.36q-2.88,0-2.88,2.46V87.44q0,2.46,2.88,2.46h6.36q2.88,0,2.88-2.46V66.68q0-2.46-2.88-2.46Z"/></svg>