<svg id="Layer_1" data-name="Layer 1" xmlns="http://www.w3.org/2000/svg" viewBox="0 0 254.53 111.25"><defs><style>.cls-1{opacity:0.5;}.cls-2{fill:#fff200;}.cls-3{fill:none;stroke:#231f20;}.cls-4{fill:#ffc51b;}</style></defs><title>2</title><g class="cls-1"><path class="cls-2" d="M7.2,57.33a171.41,171.41,0,0,1,121-50.13A167.4,167.4,0,0,1,247.33,56.73L222.81,84.59H31.11ZM94.36,5.09a177,177,0,0,0-91,48.41,5.4,5.4,0,0,0-.25,7.39L27.05,88.15A5.4,5.4,0,0,0,31.11,90h191.7a5.39,5.39,0,0,0,4.05-1.83l24.52-27.86a5.39,5.39,0,0,0-.24-7.38A172.77,172.77,0,0,0,128.25,1.8,176.66,176.66,0,0,0,94.36,5.09"/></g><path class="cls-3" d="M7.2,57.33a171.42,171.42,0,0,1,121-50.13A167.4,167.4,0,0,1,247.33,56.73"/><path class="cls-4" d="M85.21,111.25a7.2,7.2,0,0,1-5.09-2.11L62.76,91.79H31.11a7.2,7.2,0,0,1-5.41-2.45L1.79,62.08a7.2,7.2,0,0,1,.33-9.85A177.55,177.55,0,0,1,128.25,0,174.55,174.55,0,0,1,252.42,51.64a7.2,7.2,0,0,1,.31,9.85L228.22,89.34a7.2,7.2,0,0,1-5.41,2.44H188.24l-17.36,17.36a7.2,7.2,0,0,1-5.09,2.11Z"/><path d="M247.33,56.73A167.4,167.4,0,0,0,128.25,7.2,171.42,171.42,0,0,0,7.2,57.33L31.11,84.59H65.75l19.47,19.47h80.58l19.47-19.47h37.55Z"/><path class="cls-4" d="M40,52a6.26,6.26,0,0,0,.29,1.51,5.42,5.42,0,0,0,.77,1.21l2.73,3.48a13.43,13.43,0,0,0,1.46,1.68,4.26,4.26,0,0,0,1.29.65l-4.74,3.71-1.19-1.16a2.93,2.93,0,0,1,.18,1.5A3,3,0,0,1,39.6,66l-4.76,3.73a4.43,4.43,0,0,1-3.43,1.14A5.86,5.86,0,0,1,28,68.33l-4.55-5.82a5.87,5.87,0,0,1-1.59-3.87,4.4,4.4,0,0,1,1.92-3.07l10.32-8.07L36.78,50a8,8,0,0,0-1.29.38,5.39,5.39,0,0,0-1.29.78l-5.71,4.47q-1.06.83-.35,1.73l6,7.63q.71.9,1.77.08l1.81-1.42q1.06-.83.35-1.73l-2.26-2.89-2,1.57a1.72,1.72,0,0,0-.46.52q-.15.28-.23.45L31,59Z"/><path class="cls-4" d="M48.19,51.39l-9.35-4.58-1.4-.65a7.19,7.19,0,0,0-1.19-.35l7.9-4.74a2.37,2.37,0,0,0,.19.54,1.63,1.63,0,0,0,.56.58q.33.19,1.28.7l5.15,2.55.07-5.83a4.22,4.22,0,0,0-.17-1.34,5.34,5.34,0,0,0-.52-1.14L55.1,34.5a10.6,10.6,0,0,0-.56,1.74A13.4,13.4,0,0,0,54.41,38l-.18,10.2,1.83,3a9.78,9.78,0,0,0,1.05,1.51,5.53,5.53,0,0,0,1,.84l-6.82,4.09a5,5,0,0,0-.29-1.3,9.6,9.6,0,0,0-.82-1.63Z"/><path class="cls-4" d="M69.09,44.57a9.8,9.8,0,0,0,.85,1.63,5.49,5.49,0,0,0,.9,1l-7.28,3.19A5,5,0,0,0,63.43,49a9.67,9.67,0,0,0-.6-1.72L58.11,36.55a8.67,8.67,0,0,0-.89-1.66,3.25,3.25,0,0,0-1-.87l13.44-5.89a5.38,5.38,0,0,1,3.47-.53q1.42.37,2.44,2.71l1.12,2.56q1,2.33.35,3.62a5.36,5.36,0,0,1-2.75,2.2l-6.51,2.86Zm-2.52-5.74,3.28-1.44q.69-.3.79-.67a2.18,2.18,0,0,0-.28-1.24l-1-2.31a2.18,2.18,0,0,0-.72-1,1.26,1.26,0,0,0-1,.13L64.32,33.7Z"/><path class="cls-4" d="M90.46,28.8l-1.11-3.93a9.75,9.75,0,0,0-.62-1.73A5.54,5.54,0,0,0,88,22.05l7.65-2.17a5,5,0,0,0-.06,1.33A9.59,9.59,0,0,0,95.92,23l3.2,11.32A9.72,9.72,0,0,0,99.74,36a5.51,5.51,0,0,0,.76,1.08l-7.65,2.17A5,5,0,0,0,92.91,38a9.61,9.61,0,0,0-.36-1.79l-1.28-4.53L86.36,33l1.28,4.53a9.67,9.67,0,0,0,.62,1.73A5.43,5.43,0,0,0,89,40.38l-7.65,2.17a5,5,0,0,0,.06-1.33,9.51,9.51,0,0,0-.36-1.79l-3.2-11.32a9.8,9.8,0,0,0-.62-1.73,5.57,5.57,0,0,0-.76-1.08l7.65-2.17a5,5,0,0,0-.06,1.33,9.61,9.61,0,0,0,.36,1.79l1.11,3.93Z"/><path class="cls-4" d="M99.7,24.42a5.86,5.86,0,0,1,.61-4.14,4.4,4.4,0,0,1,3.21-1.66l10.16-1.32a4.43,4.43,0,0,1,3.53.77,5.86,5.86,0,0,1,1.65,3.87l1,7.33a5.87,5.87,0,0,1-.61,4.14A4.4,4.4,0,0,1,116,35.07l-10.16,1.32a4.43,4.43,0,0,1-3.53-.77,5.86,5.86,0,0,1-1.64-3.87ZM107.57,32q.15,1.14,1.48,1l2.94-.38q1.33-.17,1.19-1.31l-1.25-9.61q-.15-1.14-1.48-1l-2.94.38q-1.33.17-1.19,1.31Z"/><path class="cls-4" d="M125.23,19.65l-.34,11.62a12.07,12.07,0,0,0,.06,2,3.34,3.34,0,0,0,.53,1.19l-4.31-.11a3.34,3.34,0,0,0,.59-1.16,12,12,0,0,0,.16-2l.28-11.48a12,12,0,0,0-.06-2,3.34,3.34,0,0,0-.53-1.19l9.6.24,6.92,14.79.37-11.39a12,12,0,0,0-.06-2,3.35,3.35,0,0,0-.53-1.19l4.31.11a3.32,3.32,0,0,0-.59,1.16,11.94,11.94,0,0,0-.16,2l-.36,14.7-8.84-.22Z"/><path class="cls-4" d="M159.91,35.3a9.63,9.63,0,0,0-.31,1.81,5.52,5.52,0,0,0,.13,1.31L152,36.56a5,5,0,0,0,.7-1.13,9.54,9.54,0,0,0,.56-1.74L156,22.26a9.77,9.77,0,0,0,.31-1.81,5.52,5.52,0,0,0-.13-1.31l15.08,3.64-.34,3.66a8,8,0,0,0-1.18-.77,6.86,6.86,0,0,0-1.65-.6l-5.42-1.31-1,4.08L166.45,29a10,10,0,0,0,1.62.29,12.7,12.7,0,0,0,1.49,0l-.92,3.81q-.58-.34-1.24-.65a9.18,9.18,0,0,0-1.64-.54L161,30.72Z"/><path class="cls-4" d="M181,42.15a8.57,8.57,0,0,0,1.74.47,3.64,3.64,0,0,0,1.23,0l-1.77,3.14-14.51-5.31a5,5,0,0,0,.83-1,9.62,9.62,0,0,0,.76-1.66l4-11a9.8,9.8,0,0,0,.51-1.77,5.56,5.56,0,0,0,0-1.32l7.47,2.73a5,5,0,0,0-.83,1,9.62,9.62,0,0,0-.76,1.66l-4.08,11.15Z"/><path class="cls-4" d="M195.63,49.11a10.53,10.53,0,0,0,1.55.66,10.16,10.16,0,0,0,1.42.29l-2.09,2.81-14.14-7a5,5,0,0,0,.94-.94,9.56,9.56,0,0,0,.94-1.57l5.24-10.53a9.72,9.72,0,0,0,.7-1.7,5.54,5.54,0,0,0,.17-1.31l13.89,6.91-1.12,3.51a12.57,12.57,0,0,0-1-1,6.48,6.48,0,0,0-1.47-1l-5-2.48-1.87,3.76,4.36,2.17a10,10,0,0,0,1.51.64,12.52,12.52,0,0,0,1.46.3l-1.75,3.51q-.49-.46-1.07-.91a9.05,9.05,0,0,0-1.48-.89l-4.36-2.17-2.14,4.31Z"/><path class="cls-4" d="M209.92,57.89a10.47,10.47,0,0,0,1.47.82,10,10,0,0,0,1.38.44l-2.38,2.57-13.3-8.52a5,5,0,0,0,1-.83,9.57,9.57,0,0,0,1.1-1.46l6.34-9.9a9.8,9.8,0,0,0,.88-1.61,5.59,5.59,0,0,0,.31-1.28l13.06,8.37-1.49,3.37a13,13,0,0,0-.9-1.14,6.51,6.51,0,0,0-1.36-1.1l-4.69-3-2.27,3.54,4.1,2.63a10.05,10.05,0,0,0,1.43.8,12.67,12.67,0,0,0,1.42.46L214,55.32q-.44-.51-1-1a9,9,0,0,0-1.37-1l-4.1-2.63-2.6,4.06Z"/><path class="cls-4" d="M235.12,58.51l-1.84,3.19a5.68,5.68,0,0,0-.57-1.1,5,5,0,0,0-1-1l-2.43-1.94-7.42,9.27a9.74,9.74,0,0,0-1,1.51,5.48,5.48,0,0,0-.44,1.24l-6.21-5a5,5,0,0,0,1.12-.72,9.61,9.61,0,0,0,1.25-1.33L224,53.37l-2.43-1.94a4.64,4.64,0,0,0-1.18-.75,6.24,6.24,0,0,0-1.27-.28l2.75-2.54Z"/><path class="cls-4" d="M137.73,90.75a15.82,15.82,0,0,0,3.38-.26,32.15,32.15,0,0,0,3.54-1.2l-1.2,7H110V81.44q0-4.06,1.48-5.54t5-1.48L130,73.69a2.21,2.21,0,0,0,1.56-.42,1.94,1.94,0,0,0,.42-1.4V70a1.34,1.34,0,0,0-.55-1.17,3.4,3.4,0,0,0-1.9-.39H115a10.86,10.86,0,0,0-5.2,1.2L110.85,63h24.54q5.25,0,7,1.85t1.79,5.75v6.66q0,3.74-1.64,5.17t-5.8,1.43l-12.58.62q-1,0-1.27.75a4.82,4.82,0,0,0-.23,1.43v4.11Z"/></svg>