<svg id="Layer_1" data-name="Layer 1" xmlns="http://www.w3.org/2000/svg" viewBox="0 0 341.86 757.69"><defs><style>.cls-1{fill:#231f20;}.cls-2{fill:#fff;}.cls-3{opacity:0.5;}.cls-4{fill:#fff200;}.cls-5{fill:none;stroke:#231f20;}</style></defs><title>3</title><path class="cls-1" d="M41.44-637.59a5.62,5.62,0,0,0,0,.71,3.75,3.75,0,0,0,.15.66H38.24a3.82,3.82,0,0,0,.15-.65,5.52,5.52,0,0,0,0-.73v-7.48a5.6,5.6,0,0,0,0-.71,3.76,3.76,0,0,0-.15-.66h8.11a2.12,2.12,0,0,1,1.5.5,1.94,1.94,0,0,1,.53,1.49v2.08a1.76,1.76,0,0,1-.35,1.16,1.91,1.91,0,0,1-1.23.55l1.33,3.37a2.87,2.87,0,0,0,.74,1.09H45.44l-1.76-4.51H41.44Zm0-4.45h3.5a.49.49,0,0,0,.41-.15.89.89,0,0,0,.12-.53v-1.72q0-.68-.53-.68h-3.5Z" transform="translate(87.33 646.44)"/><path class="cls-1" d="M57.61-639l3-7.42h3.82a3.85,3.85,0,0,0-.15.65,5.42,5.42,0,0,0,0,.73v7.47a5.55,5.55,0,0,0,0,.71,3.81,3.81,0,0,0,.15.66h-3.3a3.79,3.79,0,0,0,.15-.65,5.63,5.63,0,0,0,0-.73V-645l-3.54,8.75H55.69l-3.44-8.85,0,7.46a5.63,5.63,0,0,0,0,.72,3.86,3.86,0,0,0,.15.67H50.65a3.84,3.84,0,0,0,.15-.65,5.63,5.63,0,0,0,0-.73v-7.47a5.68,5.68,0,0,0,0-.71,3.76,3.76,0,0,0-.15-.66h4Z" transform="translate(87.33 646.44)"/><path class="cls-1" d="M73.4-636.21l-5.25-8.27,0,6.9a5.53,5.53,0,0,0,0,.71,3.79,3.79,0,0,0,.15.66H66.56a4,4,0,0,0,.15-.65,5.59,5.59,0,0,0,0-.73v-7.47a5.71,5.71,0,0,0,0-.71,3.9,3.9,0,0,0-.15-.66h3.76l5.15,8.11,0-6.74a5.68,5.68,0,0,0,0-.71,3.89,3.89,0,0,0-.15-.66h1.76a3.88,3.88,0,0,0-.15.65,5.45,5.45,0,0,0,0,.73v8.85Z" transform="translate(87.33 646.44)"/><path class="cls-1" d="M87.85-636.21a1.82,1.82,0,0,1-2-2.08v-6.07a1.82,1.82,0,0,1,2-2.08h6a1.82,1.82,0,0,1,2,2.08v6.07a1.82,1.82,0,0,1-2,2.08Zm4.51-1.31a.62.62,0,0,0,.45-.13.68.68,0,0,0,.13-.48v-6.39a.71.71,0,0,0-.12-.49.65.65,0,0,0-.46-.12h-3a.63.63,0,0,0-.45.13.68.68,0,0,0-.13.48v6.39a.71.71,0,0,0,.12.49.65.65,0,0,0,.46.12Z" transform="translate(87.33 646.44)"/><path class="cls-1" d="M97.9-636.21a3.87,3.87,0,0,0,.15-.65,5.43,5.43,0,0,0,0-.73v-7.48a5.52,5.52,0,0,0,0-.71,3.8,3.8,0,0,0-.15-.66h8.4l.26,1.38-.74,0-.84,0H101.1V-642h3.38a8.26,8.26,0,0,0,.86,0,2.35,2.35,0,0,0,.73-.2v1.79a2.88,2.88,0,0,0-.74-.18,6.72,6.72,0,0,0-.84-.06H101.1v3.14a5.53,5.53,0,0,0,0,.71,3.79,3.79,0,0,0,.15.66Z" transform="translate(87.33 646.44)"/><path class="cls-1" d="M107.88-636.21a3.87,3.87,0,0,0,.15-.65,5.43,5.43,0,0,0,0-.73v-7.48a5.52,5.52,0,0,0,0-.71,3.8,3.8,0,0,0-.15-.66h8.4l.26,1.38-.74,0-.84,0h-3.87V-642h3.38a8.26,8.26,0,0,0,.86,0,2.35,2.35,0,0,0,.73-.2v1.79a2.88,2.88,0,0,0-.74-.18,6.72,6.72,0,0,0-.84-.06h-3.38v3.14a5.53,5.53,0,0,0,0,.71,3.79,3.79,0,0,0,.15.66Z" transform="translate(87.33 646.44)"/><path class="cls-1" d="M121.77-646.44a3.88,3.88,0,0,0-.15.65,5.44,5.44,0,0,0,0,.73v7.48a5.5,5.5,0,0,0,0,.71,3.78,3.78,0,0,0,.15.66h-3.39a4,4,0,0,0,.15-.65,5.6,5.6,0,0,0,0-.73v-7.48a5.7,5.7,0,0,0,0-.71,3.9,3.9,0,0,0-.15-.66Z" transform="translate(87.33 646.44)"/><path class="cls-1" d="M126.28-636.21a1.82,1.82,0,0,1-2-2.08v-6.07a1.82,1.82,0,0,1,2-2.08h6l.26,1.38-.74,0-.84,0h-3.09a.63.63,0,0,0-.45.13.68.68,0,0,0-.13.48v6.39a.71.71,0,0,0,.12.49.65.65,0,0,0,.46.12h3.09a8.13,8.13,0,0,0,.86,0,2.35,2.35,0,0,0,.73-.2l-.26,1.55Z" transform="translate(87.33 646.44)"/><path class="cls-1" d="M134-636.21a3.87,3.87,0,0,0,.15-.65,5.43,5.43,0,0,0,0-.73v-7.48a5.52,5.52,0,0,0,0-.71,3.8,3.8,0,0,0-.15-.66h8.4l.26,1.38-.74,0-.84,0h-3.87V-642h3.38a8.26,8.26,0,0,0,.86,0,2.35,2.35,0,0,0,.73-.2v1.79a2.88,2.88,0,0,0-.74-.18,6.72,6.72,0,0,0-.84-.06h-3.38v3.2H141a8.13,8.13,0,0,0,.86,0,2.34,2.34,0,0,0,.73-.2l-.26,1.55Z" transform="translate(87.33 646.44)"/><path class="cls-1" d="M147.61-637.59a5.71,5.71,0,0,0,0,.71,3.71,3.71,0,0,0,.15.66h-3.39a3.87,3.87,0,0,0,.15-.65,5.6,5.6,0,0,0,0-.73v-7.48a5.7,5.7,0,0,0,0-.71,3.8,3.8,0,0,0-.15-.66h8.11a2.12,2.12,0,0,1,1.5.5,1.94,1.94,0,0,1,.53,1.49v2.08a1.76,1.76,0,0,1-.35,1.16,1.91,1.91,0,0,1-1.23.55l1.33,3.37a2.88,2.88,0,0,0,.74,1.09h-3.42l-1.76-4.51h-2.24Zm0-4.45h3.5a.49.49,0,0,0,.41-.15.88.88,0,0,0,.12-.53v-1.72q0-.68-.53-.68h-3.5Z" transform="translate(87.33 646.44)"/><path class="cls-1" d="M166.71-646.44a3.77,3.77,0,0,0-.15.65,5.59,5.59,0,0,0,0,.73V-638q0,.43.46.43h4.64q.46,0,.46-.43v-7.11a5.68,5.68,0,0,0,0-.71,3.71,3.71,0,0,0-.15-.66h1.76a3.79,3.79,0,0,0-.15.65,5.61,5.61,0,0,0,0,.73V-638a1.65,1.65,0,0,1-.54,1.25,1.85,1.85,0,0,1-1.31.51h-6.24a1.86,1.86,0,0,1-1.32-.5,1.65,1.65,0,0,1-.54-1.25v-7.09a5.7,5.7,0,0,0,0-.71,3.8,3.8,0,0,0-.15-.66Z" transform="translate(87.33 646.44)"/><path class="cls-1" d="M182.59-636.21l-5.25-8.27,0,6.9a5.53,5.53,0,0,0,0,.71,3.79,3.79,0,0,0,.15.66h-1.76a4,4,0,0,0,.15-.65,5.59,5.59,0,0,0,0-.73v-7.47a5.71,5.71,0,0,0,0-.71,3.9,3.9,0,0,0-.15-.66h3.76l5.15,8.11,0-6.74a5.68,5.68,0,0,0,0-.71,3.89,3.89,0,0,0-.15-.66h1.76a3.88,3.88,0,0,0-.15.65,5.45,5.45,0,0,0,0,.73v8.85Z" transform="translate(87.33 646.44)"/><path class="cls-1" d="M192.07-646.44a3.88,3.88,0,0,0-.15.65,5.44,5.44,0,0,0,0,.73v7.48a5.5,5.5,0,0,0,0,.71,3.78,3.78,0,0,0,.15.66h-3.39a4,4,0,0,0,.15-.65,5.6,5.6,0,0,0,0-.73v-7.48a5.7,5.7,0,0,0,0-.71,3.9,3.9,0,0,0-.15-.66Z" transform="translate(87.33 646.44)"/><path class="cls-1" d="M194.28-636.21a3.87,3.87,0,0,0,.15-.65,5.43,5.43,0,0,0,0-.73v-7.48a5.52,5.52,0,0,0,0-.71,3.8,3.8,0,0,0-.15-.66h8.4l.26,1.38-.74,0-.84,0h-3.87V-642h3.38a8.26,8.26,0,0,0,.86,0,2.35,2.35,0,0,0,.73-.2v1.79a2.88,2.88,0,0,0-.74-.18,6.72,6.72,0,0,0-.84-.06h-3.38v3.14a5.53,5.53,0,0,0,0,.71,3.79,3.79,0,0,0,.15.66Z" transform="translate(87.33 646.44)"/><path class="cls-1" d="M206.64-636.21a1.82,1.82,0,0,1-2-2.08v-6.07a1.82,1.82,0,0,1,2-2.08h6a1.82,1.82,0,0,1,2,2.08v6.07a1.82,1.82,0,0,1-2,2.08Zm4.51-1.31a.62.62,0,0,0,.45-.13.68.68,0,0,0,.13-.48v-6.39a.71.71,0,0,0-.12-.49.65.65,0,0,0-.46-.12h-3a.63.63,0,0,0-.45.13.68.68,0,0,0-.13.48v6.39a.71.71,0,0,0,.12.49.65.65,0,0,0,.46.12Z" transform="translate(87.33 646.44)"/><path class="cls-1" d="M220-637.59a5.71,5.71,0,0,0,0,.71,3.71,3.71,0,0,0,.15.66h-3.39a3.87,3.87,0,0,0,.15-.65,5.6,5.6,0,0,0,0-.73v-7.48a5.7,5.7,0,0,0,0-.71,3.8,3.8,0,0,0-.15-.66H225a2.12,2.12,0,0,1,1.5.5,1.94,1.94,0,0,1,.53,1.49v2.08a1.76,1.76,0,0,1-.35,1.16,1.91,1.91,0,0,1-1.23.55l1.33,3.37a2.88,2.88,0,0,0,.74,1.09H224l-1.76-4.51H220Zm0-4.45h3.5a.49.49,0,0,0,.41-.15.88.88,0,0,0,.12-.53v-1.72q0-.68-.53-.68H220Z" transform="translate(87.33 646.44)"/><path class="cls-1" d="M236.22-639l3-7.42H243a3.85,3.85,0,0,0-.15.65,5.42,5.42,0,0,0,0,.73v7.47a5.55,5.55,0,0,0,0,.71,3.81,3.81,0,0,0,.15.66h-3.3a3.79,3.79,0,0,0,.15-.65,5.63,5.63,0,0,0,0-.73V-645l-3.54,8.75H234.3l-3.44-8.85,0,7.46a5.63,5.63,0,0,0,0,.72,3.86,3.86,0,0,0,.15.67h-1.76a4,4,0,0,0,.15-.65,5.63,5.63,0,0,0,0-.73v-7.47a5.68,5.68,0,0,0,0-.71,3.89,3.89,0,0,0-.15-.66h4Z" transform="translate(87.33 646.44)"/><path class="cls-1" d="M254.51-638.29a1.82,1.82,0,0,1-2,2.08h-7l-.26-1.62a2.37,2.37,0,0,0,.74.23,5.27,5.27,0,0,0,.84.07H251a.62.62,0,0,0,.45-.13.68.68,0,0,0,.13-.48v-1.34a.71.71,0,0,0-.12-.49.65.65,0,0,0-.46-.12H247.2a1.82,1.82,0,0,1-2-2.07v-2.2a1.82,1.82,0,0,1,2-2.07h7l.26,1.38-.74,0-.84,0h-4.22a.62.62,0,0,0-.45.13.67.67,0,0,0-.13.48v1a.7.7,0,0,0,.12.48.65.65,0,0,0,.46.12h3.82a1.82,1.82,0,0,1,2,2.08Z" transform="translate(87.33 646.44)"/><path class="cls-2" d="M-76.37-600.76a5.37,5.37,0,0,0-.83-.32,3.49,3.49,0,0,0-1-.11h-4.09a1.66,1.66,0,0,0-.68.09c-.11.06-.16.2-.16.41v.65q0,.32.16.41a1.66,1.66,0,0,0,.68.09h3.11A3.58,3.58,0,0,1-77-599a2.1,2.1,0,0,1,.71,1.78v2.81a3.16,3.16,0,0,1-.61,2.13,2.76,2.76,0,0,1-2.14.69h-7.92l-.38-2.23a5.85,5.85,0,0,0,.79.24,4.37,4.37,0,0,0,.94.09h4.25a1.6,1.6,0,0,0,.67-.09c.11-.06.16-.2.16-.41v-.79a.44.44,0,0,0-.16-.4,1.47,1.47,0,0,0-.67-.1H-84.9a2.64,2.64,0,0,1-1.89-.54,2.76,2.76,0,0,1-.54-2v-2.57a3,3,0,0,1,.63-2,2.29,2.29,0,0,1,1.8-.7h8.15Z" transform="translate(87.33 646.44)"/><path class="cls-2" d="M-64.92-593.49a6.74,6.74,0,0,0,1.08-.06,6.42,6.42,0,0,0,.9-.24l-.4,2.21H-73.49a3.2,3.2,0,0,0,.27-.81,6.16,6.16,0,0,0,.09-1.17v-7.56a6.29,6.29,0,0,0-.08-1.18,3.55,3.55,0,0,0-.28-.8h10l.36,2.34a8.25,8.25,0,0,0-.88-.3,4.19,4.19,0,0,0-1.12-.13h-3.58v2.7h3.13a6.41,6.41,0,0,0,1.05-.06,8.11,8.11,0,0,0,.93-.24v2.52q-.41-.13-.87-.22a5.84,5.84,0,0,0-1.11-.09h-3.13v3.1Z" transform="translate(87.33 646.44)"/><path class="cls-2" d="M-56-596.59v3a6.29,6.29,0,0,0,.08,1.18,3.54,3.54,0,0,0,.28.8H-60.8a3.2,3.2,0,0,0,.27-.81,6.16,6.16,0,0,0,.09-1.17v-7.56a5.54,5.54,0,0,0-.1-1.21,2.09,2.09,0,0,0-.37-.77h9.47a3.66,3.66,0,0,1,2.28.57,2.39,2.39,0,0,1,.71,2v2.12a1.87,1.87,0,0,1-.45,1.5,2.1,2.1,0,0,1-1.31.35l1.57,3.24.48,1a3.62,3.62,0,0,0,.48.77h-4.91l-2.09-5Zm0-1.91h2.48a1,1,0,0,0,.58-.12q.14-.12.14-.53v-1.4a.69.69,0,0,0-.14-.52.92.92,0,0,0-.58-.13H-56Z" transform="translate(87.33 646.44)"/><path class="cls-2" d="M-41.83-591.58-45.63-602a2.55,2.55,0,0,0-.3-.58,2.69,2.69,0,0,0-.4-.48h5.47a3,3,0,0,0-.09.47v.16a3,3,0,0,0,.05.56,6.07,6.07,0,0,0,.31.93l2.52,6.94,2.7-6.94a8.28,8.28,0,0,0,.27-.81,2.66,2.66,0,0,0,.1-.68,1.7,1.7,0,0,0,0-.35c0-.11,0-.21-.05-.28h3a4.24,4.24,0,0,0-.56.79,9.76,9.76,0,0,0-.59,1.3l-3.64,9.43Z" transform="translate(87.33 646.44)"/><path class="cls-2" d="M-30.11-591.58a3.22,3.22,0,0,0,.27-.81,6.17,6.17,0,0,0,.09-1.17v-7.56a6.25,6.25,0,0,0-.08-1.18,3.55,3.55,0,0,0-.28-.8H-25a3.22,3.22,0,0,0-.27.81,6.17,6.17,0,0,0-.09,1.17v7.56a6.25,6.25,0,0,0,.08,1.18,3.56,3.56,0,0,0,.28.8Z" transform="translate(87.33 646.44)"/><path class="cls-2" d="M-11.73-600.76a5.13,5.13,0,0,0-.8-.32,3.46,3.46,0,0,0-1-.11h-3.15q-.86,0-.86.74v6.23q0,.74.86.74h2.48a11.07,11.07,0,0,0,1.69-.08,3.87,3.87,0,0,0,1-.35l-.38,2.34H-19a2.85,2.85,0,0,1-2.19-.78,3.76,3.76,0,0,1-.73-2.6v-4.75a3.77,3.77,0,0,1,.73-2.59A2.83,2.83,0,0,1-19-603.1h6.91Z" transform="translate(87.33 646.44)"/><path class="cls-2" d="M-.83-593.49a6.74,6.74,0,0,0,1.08-.06,6.42,6.42,0,0,0,.9-.24l-.4,2.21H-9.39a3.2,3.2,0,0,0,.27-.81A6.16,6.16,0,0,0-9-593.56v-7.56a6.29,6.29,0,0,0-.08-1.18,3.55,3.55,0,0,0-.28-.8h10l.36,2.34a8.25,8.25,0,0,0-.88-.3,4.19,4.19,0,0,0-1.12-.13H-4.64v2.7h3.13a6.41,6.41,0,0,0,1.05-.06,8.11,8.11,0,0,0,.93-.24v2.52q-.41-.13-.87-.22a5.84,5.84,0,0,0-1.11-.09H-4.64v3.1Z" transform="translate(87.33 646.44)"/><path class="cls-2" d="M12-601.12a6.29,6.29,0,0,0-.08-1.18,3.55,3.55,0,0,0-.28-.8h8.95a3.56,3.56,0,0,1,2.56.75,3.5,3.5,0,0,1,.75,2.53v5a3.5,3.5,0,0,1-.75,2.53,3.56,3.56,0,0,1-2.56.75H11.65a3.2,3.2,0,0,0,.27-.81,6.16,6.16,0,0,0,.09-1.17Zm4.39,7.63h2.29a1,1,0,0,0,.68-.16,1.32,1.32,0,0,0,.14-.77v-5.83a1.33,1.33,0,0,0-.14-.77q-.14-.17-.68-.17H16.4Z" transform="translate(87.33 646.44)"/><path class="cls-2" d="M31.41-596.59v3a6.29,6.29,0,0,0,.08,1.18,3.54,3.54,0,0,0,.28.8H26.66a3.2,3.2,0,0,0,.27-.81,6.16,6.16,0,0,0,.09-1.17v-7.56a5.54,5.54,0,0,0-.1-1.21,2.09,2.09,0,0,0-.37-.77H36a3.66,3.66,0,0,1,2.28.57,2.39,2.39,0,0,1,.71,2v2.12a1.87,1.87,0,0,1-.45,1.5,2.1,2.1,0,0,1-1.31.35l1.57,3.24.48,1a3.62,3.62,0,0,0,.48.77H34.85l-2.09-5Zm0-1.91H33.9a1,1,0,0,0,.58-.12q.14-.12.14-.53v-1.4a.69.69,0,0,0-.14-.52.92.92,0,0,0-.58-.13H31.41Z" transform="translate(87.33 646.44)"/><path class="cls-2" d="M50.56-593.49a6.74,6.74,0,0,0,1.08-.06,6.39,6.39,0,0,0,.9-.24l-.4,2.21H42a3.2,3.2,0,0,0,.27-.81,6.16,6.16,0,0,0,.09-1.17v-7.56a6.29,6.29,0,0,0-.08-1.18,3.55,3.55,0,0,0-.28-.8H52l.36,2.34a8.42,8.42,0,0,0-.88-.3,4.19,4.19,0,0,0-1.12-.13H46.75v2.7h3.13a6.4,6.4,0,0,0,1.05-.06,8.14,8.14,0,0,0,.93-.24v2.52a8.91,8.91,0,0,0-.87-.22,5.84,5.84,0,0,0-1.11-.09H46.75v3.1Z" transform="translate(87.33 646.44)"/><path class="cls-2" d="M65.83-600.76a5.39,5.39,0,0,0-.83-.32,3.5,3.5,0,0,0-1-.11H60a1.65,1.65,0,0,0-.68.09c-.11.06-.16.2-.16.41v.65c0,.22.05.35.16.41a1.65,1.65,0,0,0,.68.09h3.11a3.58,3.58,0,0,1,2.17.54,2.1,2.1,0,0,1,.71,1.78v2.81a3.15,3.15,0,0,1-.61,2.13,2.75,2.75,0,0,1-2.14.69H55.28l-.38-2.23a5.83,5.83,0,0,0,.79.24,4.37,4.37,0,0,0,.94.09h4.25a1.59,1.59,0,0,0,.67-.09c.11-.06.16-.2.16-.41v-.79a.44.44,0,0,0-.16-.4,1.46,1.46,0,0,0-.67-.1H57.3a2.64,2.64,0,0,1-1.89-.54,2.76,2.76,0,0,1-.54-2v-2.57a3,3,0,0,1,.63-2,2.29,2.29,0,0,1,1.8-.7h8.15Z" transform="translate(87.33 646.44)"/><path class="cls-2" d="M79.83-600.76a5.39,5.39,0,0,0-.83-.32,3.5,3.5,0,0,0-1-.11H74a1.65,1.65,0,0,0-.68.09c-.11.06-.16.2-.16.41v.65c0,.22.05.35.16.41a1.65,1.65,0,0,0,.68.09h3.11a3.58,3.58,0,0,1,2.17.54,2.1,2.1,0,0,1,.71,1.78v2.81a3.15,3.15,0,0,1-.61,2.13,2.75,2.75,0,0,1-2.14.69H69.28l-.38-2.23a5.83,5.83,0,0,0,.79.24,4.37,4.37,0,0,0,.94.09h4.25a1.59,1.59,0,0,0,.67-.09c.11-.06.16-.2.16-.41v-.79a.44.44,0,0,0-.16-.4,1.46,1.46,0,0,0-.67-.1H71.3a2.64,2.64,0,0,1-1.89-.54,2.76,2.76,0,0,1-.54-2v-2.57a3,3,0,0,1,.63-2,2.29,2.29,0,0,1,1.8-.7h8.15Z" transform="translate(87.33 646.44)"/><path class="cls-2" d="M100.35-593.49a2,2,0,0,0,1.12-.18q.2-.18.2-1V-601a7.7,7.7,0,0,0-.07-1.31,2.15,2.15,0,0,0-.36-.76H104a2.15,2.15,0,0,0-.36.76,7.6,7.6,0,0,0-.07,1.31v5.89a4.33,4.33,0,0,1-.67,2.79,3.3,3.3,0,0,1-2.55.77H94.52a3.07,3.07,0,0,1-2.43-.86,4,4,0,0,1-.76-2.7v-6a6.21,6.21,0,0,0-.08-1.18,3.55,3.55,0,0,0-.28-.8h5.11a3.2,3.2,0,0,0-.27.81,6.13,6.13,0,0,0-.09,1.17v6.55a1,1,0,0,0,1.1,1.08Z" transform="translate(87.33 646.44)"/><path class="cls-2" d="M108.72-601.12l0,7.47a7.7,7.7,0,0,0,.07,1.31,2.14,2.14,0,0,0,.36.76h-2.77a2.16,2.16,0,0,0,.36-.76,7.74,7.74,0,0,0,.07-1.31V-601a7.74,7.74,0,0,0-.07-1.31,2.17,2.17,0,0,0-.36-.76h6.17l4.68,9.4.05-7.33a7.7,7.7,0,0,0-.07-1.31,2.14,2.14,0,0,0-.36-.76h2.77a2.14,2.14,0,0,0-.36.76,7.74,7.74,0,0,0-.07,1.31v9.45h-5.69Z" transform="translate(87.33 646.44)"/><path class="cls-2" d="M122.42-591.58a3.22,3.22,0,0,0,.27-.81,6.21,6.21,0,0,0,.09-1.17v-7.56a6.29,6.29,0,0,0-.08-1.18,3.5,3.5,0,0,0-.28-.8h5.11a3.2,3.2,0,0,0-.27.81,6.13,6.13,0,0,0-.09,1.17v7.56a6.31,6.31,0,0,0,.08,1.18,3.59,3.59,0,0,0,.28.8Z" transform="translate(87.33 646.44)"/><path class="cls-2" d="M135.24-593.56a6.21,6.21,0,0,0,.08,1.18,3.54,3.54,0,0,0,.28.8h-5.11a3.22,3.22,0,0,0,.27-.81,6.12,6.12,0,0,0,.09-1.17v-7.56a6.21,6.21,0,0,0-.08-1.18,3.55,3.55,0,0,0-.28-.8h10l.34,2.34a5.15,5.15,0,0,0-.85-.3,4.42,4.42,0,0,0-1.12-.13h-3.58v2.7h3.13a6.41,6.41,0,0,0,1.05-.06,8.08,8.08,0,0,0,.93-.24v2.52a8.91,8.91,0,0,0-.87-.22,5.84,5.84,0,0,0-1.11-.09h-3.13Z" transform="translate(87.33 646.44)"/><path class="cls-2" d="M143-599.72a3.77,3.77,0,0,1,.73-2.59,2.83,2.83,0,0,1,2.19-.79h6.59a2.85,2.85,0,0,1,2.19.78,3.77,3.77,0,0,1,.73,2.6V-595a3.77,3.77,0,0,1-.73,2.59,2.83,2.83,0,0,1-2.19.79h-6.59a2.85,2.85,0,0,1-2.19-.78A3.76,3.76,0,0,1,143-595Zm4.39,5.49q0,.74.86.74h1.91q.86,0,.86-.74v-6.23q0-.74-.86-.74h-1.91q-.86,0-.86.74Z" transform="translate(87.33 646.44)"/><path class="cls-2" d="M162.94-596.59v3a6.21,6.21,0,0,0,.08,1.18,3.54,3.54,0,0,0,.28.8h-5.11a3.22,3.22,0,0,0,.27-.81,6.12,6.12,0,0,0,.09-1.17v-7.56a5.58,5.58,0,0,0-.1-1.21,2.11,2.11,0,0,0-.37-.77h9.47a3.66,3.66,0,0,1,2.28.57,2.39,2.39,0,0,1,.71,2v2.12a1.87,1.87,0,0,1-.45,1.5,2.1,2.1,0,0,1-1.31.35l1.57,3.24.48,1a3.61,3.61,0,0,0,.48.77h-4.91l-2.09-5Zm0-1.91h2.48a1,1,0,0,0,.58-.12.69.69,0,0,0,.14-.53v-1.4a.7.7,0,0,0-.14-.52.92.92,0,0,0-.58-.13h-2.48Z" transform="translate(87.33 646.44)"/><path class="cls-2" d="M184.12-603.1H190a3.54,3.54,0,0,0-.28.79,5.62,5.62,0,0,0-.1,1.19v7.56a6.27,6.27,0,0,0,.08,1.19,3.16,3.16,0,0,0,.3.79h-5.13a3.18,3.18,0,0,0,.27-.81,6.12,6.12,0,0,0,.09-1.17v-7.09L182-591.58h-3l-3.1-9.18,0,7.09a7.78,7.78,0,0,0,.07,1.33,2.18,2.18,0,0,0,.36.77h-2.77a2.14,2.14,0,0,0,.36-.76,7.7,7.7,0,0,0,.07-1.31V-601a7.7,7.7,0,0,0-.07-1.31,2.15,2.15,0,0,0-.36-.76h6l2.2,6.53Z" transform="translate(87.33 646.44)"/><g class="cls-3"><path class="cls-4" d="M7.2,57.33a171.41,171.41,0,0,1,121-50.13A167.4,167.4,0,0,1,247.33,56.73L222.81,84.58H31.11ZM94.36,5.09a177,177,0,0,0-91,48.41,5.4,5.4,0,0,0-.25,7.39L27.05,88.15A5.4,5.4,0,0,0,31.11,90h191.7a5.39,5.39,0,0,0,4.05-1.83l24.52-27.86a5.39,5.39,0,0,0-.24-7.38A172.77,172.77,0,0,0,128.25,1.8,176.68,176.68,0,0,0,94.36,5.09" transform="translate(87.33 646.44)"/></g><path class="cls-5" d="M7.2,57.33a171.42,171.42,0,0,1,121-50.13A167.4,167.4,0,0,1,247.33,56.73" transform="translate(87.33 646.44)"/><path class="cls-4" d="M85.21,111.25a7.2,7.2,0,0,1-5.09-2.11L62.76,91.79H31.11a7.2,7.2,0,0,1-5.41-2.45L1.79,62.08a7.2,7.2,0,0,1,.33-9.85A177.55,177.55,0,0,1,128.25,0,174.55,174.55,0,0,1,252.42,51.64a7.2,7.2,0,0,1,.31,9.85L228.22,89.34a7.2,7.2,0,0,1-5.4,2.45H188.24l-17.36,17.36a7.2,7.2,0,0,1-5.09,2.11Z" transform="translate(87.33 646.44)"/><path class="cls-1" d="M247.33,56.73A167.4,167.4,0,0,0,128.25,7.2,171.42,171.42,0,0,0,7.2,57.33L31.11,84.58H65.75l19.47,19.47h80.58l19.47-19.47h37.55Z" transform="translate(87.33 646.44)"/><path class="cls-4" d="M33.07,58a6.1,6.1,0,0,0-.93.32,3.91,3.91,0,0,0-.9.58l-3.49,2.9a1.84,1.84,0,0,0-.52.56q-.07.19.16.47l.46.55q.23.28.43.24a1.85,1.85,0,0,0,.65-.41L31.58,61a4,4,0,0,1,2.24-1.08,2.33,2.33,0,0,1,1.87,1l2,2.4a3.5,3.5,0,0,1,1,2.26,3.06,3.06,0,0,1-1.34,2.11l-6.77,5.62-1.91-1.64a6.64,6.64,0,0,0,.84-.36,4.86,4.86,0,0,0,.86-.59l3.63-3a1.76,1.76,0,0,0,.51-.55q.07-.19-.16-.47L33.78,66a.49.49,0,0,0-.43-.23,1.63,1.63,0,0,0-.64.39l-3.06,2.54a2.93,2.93,0,0,1-2,.88,3.06,3.06,0,0,1-1.85-1.29L24,66.11a3.28,3.28,0,0,1-.91-2.19,2.55,2.55,0,0,1,1-1.88l7-5.79Z" transform="translate(87.33 646.44)"/><path class="cls-4" d="M41.07,60.5l.29,1.94a1.68,1.68,0,0,0,.28.73,1.7,1.7,0,0,0,.29.35,2.74,2.74,0,0,0,.46.25l-3,2.06q.06-.94,0-1.46a9.49,9.49,0,0,0-.15-1.28L37.59,52.4l-.87-.27,4.76-3.28,10,6.49a6,6,0,0,0,1.92.81l-5.28,3.65a3.07,3.07,0,0,0-.1-.53,1.17,1.17,0,0,0-.15-.32,2.42,2.42,0,0,0-.69-.69l-1.51-1ZM43.8,56l-4-2.53.85,4.68Z" transform="translate(87.33 646.44)"/><path class="cls-4" d="M50.14,45.94l4,7.28a8.53,8.53,0,0,0,.78,1.24,2.37,2.37,0,0,0,.76.54L53,56.49a2.38,2.38,0,0,0-.06-.93,8.62,8.62,0,0,0-.64-1.32l-4-7.17a8.52,8.52,0,0,0-.78-1.24,2.39,2.39,0,0,0-.76-.54l6-3.33,9.62,6.6-3.9-7.15a8.64,8.64,0,0,0-.78-1.24,2.39,2.39,0,0,0-.76-.54l2.69-1.5a2.38,2.38,0,0,0,.06.93,8.53,8.53,0,0,0,.64,1.32l5.1,9.18L59.9,52.64Z" transform="translate(87.33 646.44)"/><path class="cls-4" d="M79.38,30l6.15-2.22a3.93,3.93,0,0,0,0,.93A6.27,6.27,0,0,0,85.89,30l2.86,7.9a6.82,6.82,0,0,0,.53,1.21,3.49,3.49,0,0,0,.61.72l-5.36,1.94a3.55,3.55,0,0,0,0-.95,6.83,6.83,0,0,0-.35-1.26l-2.68-7.41.06,10.7L78.35,44l-6.7-8.42L74.29,43a8.71,8.71,0,0,0,.58,1.36,2.4,2.4,0,0,0,.67.66l-2.9,1a2.37,2.37,0,0,0,.09-.93,8.56,8.56,0,0,0-.42-1.4L69.52,36a8.56,8.56,0,0,0-.57-1.35,2.39,2.39,0,0,0-.66-.65l6.32-2.28,4.76,6Z" transform="translate(87.33 646.44)"/><path class="cls-4" d="M92.83,35.69l-.44,1.91a1.68,1.68,0,0,0,0,.78,1.72,1.72,0,0,0,.14.43,2.78,2.78,0,0,0,.34.4L89.34,40q.4-.85.57-1.34a9.59,9.59,0,0,0,.33-1.25l2.35-10.56-.71-.58L97.51,25l6.93,9.73a6,6,0,0,0,1.49,1.46l-6.26,1.44a3.15,3.15,0,0,0,.1-.53,1.15,1.15,0,0,0,0-.35,2.42,2.42,0,0,0-.39-.9l-1.05-1.44ZM97,32.55l-2.75-3.81-.93,4.66Z" transform="translate(87.33 646.44)"/><path class="cls-4" d="M110,30.23l.39,3.34a6.94,6.94,0,0,0,.24,1.29,3.9,3.9,0,0,0,.41.85l-5.64.67a3.6,3.6,0,0,0,.19-.93,6.93,6.93,0,0,0-.05-1.3l-1-8.34a6.1,6.1,0,0,0-.27-1.32,2.31,2.31,0,0,0-.51-.81l10.45-1.23a4.06,4.06,0,0,1,2.59.33,2.65,2.65,0,0,1,1,2.08l.28,2.34a2.08,2.08,0,0,1-.3,1.72,2.34,2.34,0,0,1-1.4.56l2.15,3.37.66,1a4,4,0,0,0,.63.78l-5.42.64-3-5.25Zm-.25-2.11,2.74-.32a1.08,1.08,0,0,0,.62-.2.77.77,0,0,0,.09-.6L113,25.44a.77.77,0,0,0-.23-.56,1,1,0,0,0-.65-.06l-2.74.32Z" transform="translate(87.33 646.44)"/><path class="cls-4" d="M131.74,21.72l.45,2.59a4,4,0,0,0-.82-.35,3.54,3.54,0,0,0-1-.1l-2.22,0,.15,8.48a7,7,0,0,0,.11,1.31,3.9,3.9,0,0,0,.33.88l-5.68.1a3.62,3.62,0,0,0,.28-.91,6.91,6.91,0,0,0,.08-1.3L123.26,24,121,24a3.31,3.31,0,0,0-1,.13,4.44,4.44,0,0,0-.82.42l.35-2.65Z" transform="translate(87.33 646.44)"/><path class="cls-4" d="M132.67,34.65a3.54,3.54,0,0,0,.35-.88,6.91,6.91,0,0,0,.17-1.29l.47-8.39a6.92,6.92,0,0,0,0-1.31,4,4,0,0,0-.26-.91l5.67.32a3.54,3.54,0,0,0-.35.88,6.85,6.85,0,0,0-.17,1.29l-.47,8.39a7,7,0,0,0,0,1.31,3.92,3.92,0,0,0,.26.91Z" transform="translate(87.33 646.44)"/><path class="cls-4" d="M143.32,24.73l-1.19,8.21A8.59,8.59,0,0,0,142,34.4a2.35,2.35,0,0,0,.28.89l-3.05-.43a2.39,2.39,0,0,0,.51-.78,8.63,8.63,0,0,0,.28-1.44l1.14-8.12a8.72,8.72,0,0,0,.12-1.46,2.41,2.41,0,0,0-.28-.89l6.79,1,3.7,11.06,1.19-8.05a8.51,8.51,0,0,0,.12-1.46,2.38,2.38,0,0,0-.28-.89l3,.43a2.38,2.38,0,0,0-.51.78,8.61,8.61,0,0,0-.28,1.43l-1.46,10.4L147.07,36Z" transform="translate(87.33 646.44)"/><path class="cls-4" d="M156.67,28.3a4.19,4.19,0,0,1,1.5-2.59,3.15,3.15,0,0,1,2.57-.25l7.09,1.81A3.16,3.16,0,0,1,170,28.71a4.18,4.18,0,0,1,.07,3l-1.3,5.12a4.19,4.19,0,0,1-1.5,2.59,3.15,3.15,0,0,1-2.57.25l-7.09-1.81a3.17,3.17,0,0,1-2.14-1.44,4.18,4.18,0,0,1-.07-3Zm3.22,7.12q-.2.79.73,1l2.05.52q.93.24,1.13-.56l1.71-6.71q.2-.79-.73-1l-2.05-.52q-.93-.24-1.13.56Z" transform="translate(87.33 646.44)"/><path class="cls-4" d="M181,43.07a6.89,6.89,0,0,0-.42,1.24,3.9,3.9,0,0,0-.05.94l-5.25-2.18a3.58,3.58,0,0,0,.62-.72,6.9,6.9,0,0,0,.59-1.16l3.22-7.76a7,7,0,0,0,.42-1.25,4,4,0,0,0,.05-.94l10.23,4.25L189.75,38a5.64,5.64,0,0,0-.75-.68,4.86,4.86,0,0,0-1.1-.61l-3.68-1.53L183.07,38l3.21,1.33a7.22,7.22,0,0,0,1.11.38,9,9,0,0,0,1.05.15l-1.07,2.59q-.37-.31-.8-.59a6.54,6.54,0,0,0-1.1-.56L182.26,40Z" transform="translate(87.33 646.44)"/><path class="cls-4" d="M195.33,50a6.13,6.13,0,0,0,1.19.48,2.62,2.62,0,0,0,.87.1l-1.53,2.07-9.84-5a3.56,3.56,0,0,0,.68-.67,6.81,6.81,0,0,0,.68-1.11l3.81-7.48a7,7,0,0,0,.51-1.21,4,4,0,0,0,.13-.93l5.06,2.58a3.59,3.59,0,0,0-.68.67,6.83,6.83,0,0,0-.68,1.11L191.7,48.1Z" transform="translate(87.33 646.44)"/><path class="cls-4" d="M205.3,55.88a7.55,7.55,0,0,0,1.06.57,7.2,7.2,0,0,0,1,.29l-1.66,1.87-9.63-5.88a3.59,3.59,0,0,0,.73-.61,6.82,6.82,0,0,0,.76-1.06l4.38-7.17a7,7,0,0,0,.61-1.17,4,4,0,0,0,.2-.92l9.46,5.77-1,2.43a8.91,8.91,0,0,0-.66-.8,4.63,4.63,0,0,0-1-.77l-3.4-2.07-1.56,2.56,3,1.81a7.27,7.27,0,0,0,1,.55,9.05,9.05,0,0,0,1,.31L208.14,54q-.32-.36-.7-.71a6.47,6.47,0,0,0-1-.73l-3-1.81-1.79,2.94Z" transform="translate(87.33 646.44)"/><path class="cls-4" d="M215.14,62.77a7.43,7.43,0,0,0,1,.64,7.07,7.07,0,0,0,1,.37l-1.79,1.74-9.16-6.59a3.6,3.6,0,0,0,.77-.56,6.92,6.92,0,0,0,.84-1l4.91-6.82a7,7,0,0,0,.69-1.12,4,4,0,0,0,.27-.9l9,6.47-1.19,2.34a9.31,9.31,0,0,0-.6-.85,4.63,4.63,0,0,0-.92-.84l-3.23-2.33L215,55.78l2.83,2a7.22,7.22,0,0,0,1,.63,9,9,0,0,0,1,.38l-1.64,2.27a9.8,9.8,0,0,0-.65-.76,6.48,6.48,0,0,0-.94-.8l-2.83-2-2,2.79Z" transform="translate(87.33 646.44)"/><path class="cls-4" d="M233.14,63.73,231.78,66a4.05,4.05,0,0,0-.39-.8,3.51,3.51,0,0,0-.7-.74L229,63l-5.45,6.49a7,7,0,0,0-.77,1.06,3.93,3.93,0,0,0-.33.88l-4.35-3.65a3.62,3.62,0,0,0,.81-.5,6.94,6.94,0,0,0,.91-.93l5.45-6.49-1.7-1.43a3.38,3.38,0,0,0-.83-.55,4.5,4.5,0,0,0-.9-.22l2-1.76Z" transform="translate(87.33 646.44)"/><path class="cls-4" d="M134.85,57.86q5.64,0,8,1.76t2.4,6v6.42a4.14,4.14,0,0,1-2.07,3.83q-2.07,1.23-6.87,1.24,5.58.06,7.26,1.43t1.68,4.93v6.18a6.42,6.42,0,0,1-1.8,4.87q-1.8,1.72-5.94,1.72H108.39L107,88a20.37,20.37,0,0,0,3.18,1.41,11.4,11.4,0,0,0,3.48.45H128a3.45,3.45,0,0,0,2.13-.45,2.55,2.55,0,0,0,.51-1.89V82.28a2.64,2.64,0,0,0-.48-1.92,3.64,3.64,0,0,0-2.16-.42h-7a21.61,21.61,0,0,0-3.51.21,27.17,27.17,0,0,0-3.09.81v-8.4a29.21,29.21,0,0,0,2.91.72,19.39,19.39,0,0,0,3.69.3h7a3.45,3.45,0,0,0,2.13-.45,2.55,2.55,0,0,0,.51-1.89V66.56a2.64,2.64,0,0,0-.48-1.92,3.64,3.64,0,0,0-2.16-.42h-15.6a10.12,10.12,0,0,0-2.79.3A16.49,16.49,0,0,0,107,65.66l1.32-7.8Z" transform="translate(87.33 646.44)"/></svg>