<?xml version="1.0" encoding="utf-8"?>
<!-- Generator: Adobe Illustrator 21.0.0, SVG Export Plug-In . SVG Version: 6.00 Build 0)  -->
<svg version="1.1" id="Layer_1" xmlns="http://www.w3.org/2000/svg"  x="0px" y="0px"
	 viewBox="0 0 254.5 111.3" style="enable-background:new 0 0 254.5 111.3;" xml:space="preserve">
<style type="text/css">
	.st0{opacity:0.5;}
	.st1{fill:#FFF200;}
	.st2{fill:none;stroke:#231F20;}
	.st3{fill:#FFC316;}
</style>
<title>3</title>
<g class="st0">
	<path class="st1" d="M7.2,57.3c32.1-32.1,75.6-50.1,121-50.1c44.7-0.1,87.6,17.8,119.1,49.5l-24.5,27.9H31.1L7.2,57.3z M94.4,5.1
		c-34.5,6.8-66.1,23.6-91,48.4c-2,2-2.1,5.2-0.2,7.4L27,88.2c1,1.2,2.5,1.8,4.1,1.8h191.7c1.6,0,3-0.7,4.1-1.8l24.5-27.9
		c1.9-2.1,1.8-5.4-0.2-7.4C218.6,20.2,174.4,1.7,128.2,1.8C116.9,1.8,105.5,2.9,94.4,5.1"/>
</g>
<path class="st2" d="M7.2,57.3c32.1-32.1,75.6-50.1,121-50.1c44.7-0.1,87.6,17.8,119.1,49.5"/>
<path class="st3" d="M85.2,111.3c-1.9,0-3.7-0.8-5.1-2.1L62.8,91.8H31.1c-2.1,0-4-0.9-5.4-2.4L1.8,62.1c-2.5-2.9-2.4-7.2,0.3-9.8
	C35.5,18.7,80.9-0.1,128.2,0c46.6-0.1,91.3,18.5,124.2,51.6c2.7,2.7,2.8,7,0.3,9.8l-24.5,27.8c-1.4,1.6-3.3,2.4-5.4,2.4h-34.6
	l-17.4,17.4c-1.3,1.4-3.2,2.1-5.1,2.1L85.2,111.3z"/>
<path d="M247.3,56.7C215.8,25,173,7.1,128.2,7.2C82.9,7.2,39.3,25.3,7.2,57.3l23.9,27.2h34.6l19.5,19.5h80.6l19.5-19.5h37.6
	L247.3,56.7z"/>
<path class="st3" d="M33.1,58c-0.3,0.1-0.6,0.2-0.9,0.3c-0.3,0.2-0.6,0.3-0.9,0.6l-3.5,2.9c-0.2,0.1-0.4,0.3-0.5,0.6
	c0,0.1,0,0.3,0.2,0.5l0.5,0.5c0.2,0.2,0.3,0.3,0.4,0.2c0.2-0.1,0.5-0.2,0.6-0.4l2.7-2.2c0.6-0.6,1.4-1,2.2-1.1c0.7,0,1.4,0.4,1.9,1
	l2,2.4c0.6,0.6,1,1.4,1,2.3c-0.1,0.9-0.6,1.6-1.3,2.1l-6.8,5.6l-1.9-1.6c0.3-0.1,0.6-0.2,0.8-0.4c0.3-0.2,0.6-0.4,0.9-0.6l3.6-3
	c0.2-0.1,0.4-0.3,0.5-0.6c0-0.1,0-0.3-0.2-0.5L33.8,66c-0.1-0.1-0.3-0.2-0.4-0.2c-0.2,0.1-0.5,0.2-0.6,0.4l-3.1,2.5
	c-0.5,0.5-1.2,0.9-2,0.9c-0.8-0.2-1.4-0.6-1.9-1.3L24,66.1c-0.6-0.6-0.9-1.4-0.9-2.2c0-0.7,0.4-1.4,1-1.9l7-5.8L33.1,58z"/>
<path class="st3" d="M41.1,60.5l0.3,1.9c0,0.3,0.1,0.5,0.3,0.7c0.1,0.1,0.2,0.2,0.3,0.3c0.1,0.1,0.3,0.2,0.5,0.2l-3,2.1
	c0-0.6,0-1.1,0-1.5c0-0.4-0.1-0.9-0.2-1.3l-1.6-10.7l-0.9-0.3l4.8-3.3l10,6.5c0.6,0.4,1.2,0.7,1.9,0.8l-5.3,3.7
	c0-0.2-0.1-0.4-0.1-0.5c0-0.1-0.1-0.2-0.2-0.3c-0.2-0.3-0.4-0.5-0.7-0.7l-1.5-1L41.1,60.5z M43.8,56l-4-2.5l0.8,4.7L43.8,56z"/>
<path class="st3" d="M50.1,45.9l4,7.3c0.2,0.4,0.5,0.8,0.8,1.2c0.2,0.2,0.5,0.4,0.8,0.5L53,56.5c0-0.3,0-0.6-0.1-0.9
	c-0.2-0.5-0.4-0.9-0.6-1.3l-4-7.2c-0.2-0.4-0.5-0.8-0.8-1.2c-0.2-0.2-0.5-0.4-0.8-0.5l6-3.3l9.6,6.6l-3.9-7.2
	c-0.2-0.4-0.5-0.8-0.8-1.2c-0.2-0.2-0.5-0.4-0.8-0.5l2.7-1.5c0,0.3,0,0.6,0.1,0.9c0.2,0.5,0.4,0.9,0.6,1.3l5.1,9.2l-5.5,3.1
	L50.1,45.9z"/>
<path class="st3" d="M79.4,30l6.2-2.2c0,0.3,0,0.6,0,0.9c0.1,0.4,0.2,0.9,0.4,1.3l2.9,7.9c0.1,0.4,0.3,0.8,0.5,1.2
	c0.2,0.3,0.4,0.5,0.6,0.7l-5.4,1.9c0-0.3,0-0.6,0-1c-0.1-0.4-0.2-0.9-0.3-1.3l-2.7-7.4l0.1,10.7L78.3,44l-6.7-8.4l2.6,7.4
	c0.2,0.5,0.3,0.9,0.6,1.4c0.2,0.3,0.4,0.5,0.7,0.7l-2.9,1c0.1-0.3,0.1-0.6,0.1-0.9c-0.1-0.5-0.2-0.9-0.4-1.4L69.5,36
	c-0.2-0.5-0.3-0.9-0.6-1.3c-0.2-0.3-0.4-0.5-0.7-0.7l6.3-2.3l4.8,6L79.4,30z"/>
<path class="st3" d="M92.8,35.7l-0.4,1.9c-0.1,0.3-0.1,0.5,0,0.8c0,0.1,0.1,0.3,0.1,0.4c0.1,0.1,0.2,0.3,0.3,0.4L89.3,40
	c0.3-0.6,0.5-1,0.6-1.3c0.1-0.4,0.2-0.8,0.3-1.2l2.3-10.6l-0.7-0.6l5.6-1.3l6.9,9.7c0.4,0.6,0.9,1.1,1.5,1.5l-6.3,1.4
	c0-0.2,0.1-0.4,0.1-0.5c0-0.1,0-0.2,0-0.3c-0.1-0.3-0.2-0.6-0.4-0.9l-1.1-1.4L92.8,35.7z M97,32.6l-2.8-3.8l-0.9,4.7L97,32.6z"/>
<path class="st3" d="M110,30.2l0.4,3.3c0,0.4,0.1,0.9,0.2,1.3c0.1,0.3,0.2,0.6,0.4,0.8l-5.6,0.7c0.1-0.3,0.2-0.6,0.2-0.9
	c0-0.4,0-0.9-0.1-1.3l-1-8.3c0-0.4-0.1-0.9-0.3-1.3c-0.1-0.3-0.3-0.6-0.5-0.8l10.4-1.2c0.9-0.2,1.8-0.1,2.6,0.3c0.6,0.5,1,1.3,1,2.1
	l0.3,2.3c0.2,0.6,0,1.2-0.3,1.7c-0.4,0.3-0.9,0.5-1.4,0.6l2.2,3.4l0.7,1c0.2,0.3,0.4,0.5,0.6,0.8l-5.4,0.6l-3-5.2L110,30.2z
	 M109.7,28.1l2.7-0.3c0.2,0,0.4-0.1,0.6-0.2c0.1-0.2,0.1-0.4,0.1-0.6l-0.2-1.6c0-0.2-0.1-0.4-0.2-0.6c-0.2-0.1-0.4-0.1-0.7-0.1
	l-2.7,0.3L109.7,28.1z"/>
<path class="st3" d="M131.7,21.7l0.4,2.6c-0.3-0.1-0.5-0.3-0.8-0.4c-0.3-0.1-0.7-0.1-1-0.1h-2.2l0.1,8.5c0,0.4,0,0.9,0.1,1.3
	c0.1,0.3,0.2,0.6,0.3,0.9l-5.7,0.1c0.1-0.3,0.2-0.6,0.3-0.9c0.1-0.4,0.1-0.9,0.1-1.3l-0.2-8.4H121c-0.3,0-0.7,0-1,0.1
	c-0.3,0.1-0.6,0.3-0.8,0.4l0.3-2.6L131.7,21.7z"/>
<path class="st3" d="M132.7,34.7c0.2-0.3,0.3-0.6,0.4-0.9c0.1-0.4,0.2-0.9,0.2-1.3l0.5-8.4c0-0.4,0-0.9,0-1.3
	c-0.1-0.3-0.1-0.6-0.3-0.9l5.7,0.3c-0.2,0.3-0.3,0.6-0.4,0.9c-0.1,0.4-0.2,0.9-0.2,1.3l-0.5,8.4c0,0.4,0,0.9,0,1.3
	c0,0.3,0.1,0.6,0.3,0.9L132.7,34.7z"/>
<path class="st3" d="M143.3,24.7l-1.2,8.2c-0.1,0.5-0.1,1-0.1,1.5c0,0.3,0.1,0.6,0.3,0.9l-3.1-0.4c0.2-0.2,0.4-0.5,0.5-0.8
	c0.1-0.5,0.2-1,0.3-1.4l1.1-8.1c0.1-0.5,0.1-1,0.1-1.5c0-0.3-0.1-0.6-0.3-0.9l6.8,1l3.7,11.1l1.2-8c0.1-0.5,0.1-1,0.1-1.5
	c0-0.3-0.1-0.6-0.3-0.9l3,0.4c-0.2,0.2-0.4,0.5-0.5,0.8c-0.1,0.5-0.2,0.9-0.3,1.4l-1.5,10.4l-6.2-0.9L143.3,24.7z"/>
<path class="st3" d="M156.7,28.3c0.2-1,0.7-1.9,1.5-2.6c0.8-0.4,1.7-0.5,2.6-0.2l7.1,1.8c0.9,0.1,1.7,0.7,2.2,1.4c0.4,1,0.4,2,0.1,3
	l-1.3,5.1c-0.2,1-0.7,1.9-1.5,2.6c-0.8,0.4-1.7,0.5-2.6,0.2l-7.1-1.8c-0.9-0.2-1.7-0.7-2.1-1.4c-0.4-1-0.4-2-0.1-3L156.7,28.3z
	 M159.9,35.4c-0.1,0.5,0.1,0.9,0.7,1l2.1,0.5c0.6,0.2,1,0,1.1-0.6l1.7-6.7c0.1-0.5-0.1-0.9-0.7-1l-2.1-0.5c-0.6-0.2-1,0-1.1,0.6
	L159.9,35.4z"/>
<path class="st3" d="M181,43.1c-0.2,0.4-0.3,0.8-0.4,1.2c-0.1,0.3-0.1,0.6-0.1,0.9l-5.2-2.2c0.2-0.2,0.4-0.5,0.6-0.7
	c0.2-0.4,0.4-0.8,0.6-1.2l3.2-7.8c0.2-0.4,0.3-0.8,0.4-1.2c0.1-0.3,0.1-0.6,0.1-0.9l10.2,4.2l-0.7,2.5c-0.2-0.2-0.5-0.5-0.8-0.7
	c-0.3-0.3-0.7-0.5-1.1-0.6l-3.7-1.5l-1.1,2.8l3.2,1.3c0.4,0.2,0.7,0.3,1.1,0.4c0.3,0.1,0.7,0.1,1.1,0.2l-1.1,2.6
	c-0.2-0.2-0.5-0.4-0.8-0.6c-0.3-0.2-0.7-0.4-1.1-0.6l-3.2-1.3L181,43.1z"/>
<path class="st3" d="M195.3,50c0.4,0.2,0.8,0.4,1.2,0.5c0.3,0.1,0.6,0.1,0.9,0.1l-1.5,2.1l-9.8-5c0.3-0.2,0.5-0.4,0.7-0.7
	c0.3-0.3,0.5-0.7,0.7-1.1l3.8-7.5c0.2-0.4,0.4-0.8,0.5-1.2c0.1-0.3,0.1-0.6,0.1-0.9l5.1,2.6c-0.3,0.2-0.5,0.4-0.7,0.7
	c-0.3,0.3-0.5,0.7-0.7,1.1l-3.8,7.5L195.3,50z"/>
<path class="st3" d="M205.3,55.9c0.3,0.2,0.7,0.4,1.1,0.6c0.3,0.1,0.7,0.2,1,0.3l-1.7,1.9l-9.6-5.9c0.3-0.2,0.5-0.4,0.7-0.6
	c0.3-0.3,0.5-0.7,0.8-1.1l4.4-7.2c0.2-0.4,0.4-0.8,0.6-1.2c0.1-0.3,0.2-0.6,0.2-0.9l9.5,5.8l-1,2.4c-0.2-0.3-0.4-0.5-0.7-0.8
	c-0.3-0.3-0.6-0.6-1-0.8l-3.4-2.1l-1.6,2.6l3,1.8c0.3,0.2,0.7,0.4,1,0.5c0.3,0.1,0.7,0.2,1,0.3l-1.4,2.4c-0.2-0.2-0.4-0.5-0.7-0.7
	c-0.3-0.3-0.6-0.5-1-0.7l-3-1.8l-1.8,2.9L205.3,55.9z"/>
<path class="st3" d="M215.1,62.8c0.3,0.2,0.7,0.5,1,0.6c0.3,0.1,0.7,0.3,1,0.4l-1.8,1.7l-9.2-6.6c0.3-0.2,0.5-0.3,0.8-0.6
	c0.3-0.3,0.6-0.6,0.8-1l4.9-6.8c0.3-0.4,0.5-0.7,0.7-1.1c0.1-0.3,0.2-0.6,0.3-0.9l9,6.5l-1.2,2.3c-0.2-0.3-0.4-0.6-0.6-0.8
	c-0.3-0.3-0.6-0.6-0.9-0.8l-3.2-2.3l-1.7,2.5l2.8,2c0.3,0.2,0.7,0.4,1,0.6c0.3,0.1,0.7,0.3,1,0.4l-1.6,2.3c-0.2-0.3-0.4-0.5-0.6-0.8
	c-0.3-0.3-0.6-0.6-0.9-0.8l-2.8-2l-2,2.8L215.1,62.8z"/>
<path class="st3" d="M233.1,63.7l-1.4,2.3c-0.1-0.3-0.2-0.5-0.4-0.8c-0.2-0.3-0.4-0.5-0.7-0.7L229,63l-5.4,6.5
	c-0.3,0.3-0.5,0.7-0.8,1.1c-0.1,0.3-0.3,0.6-0.3,0.9l-4.4-3.7c0.3-0.1,0.6-0.3,0.8-0.5c0.3-0.3,0.6-0.6,0.9-0.9l5.4-6.5l-1.7-1.4
	c-0.2-0.2-0.5-0.4-0.8-0.5c-0.3-0.1-0.6-0.2-0.9-0.2l2-1.8L233.1,63.7z"/>
<path class="st3" d="M134.8,57.9c3.8,0,6.4,0.6,8,1.8s2.4,3.2,2.4,6V72c0.1,1.6-0.7,3-2.1,3.8c-1.4,0.8-3.7,1.2-6.9,1.2
	c3.7,0,6.1,0.5,7.3,1.4s1.7,2.6,1.7,4.9v6.2c0.1,1.8-0.5,3.6-1.8,4.9c-1.2,1.1-3.2,1.7-5.9,1.7h-29.1L107,88c1,0.6,2.1,1,3.2,1.4
	c1.1,0.3,2.3,0.5,3.5,0.4H128c0.7,0.1,1.5-0.1,2.1-0.4c0.4-0.5,0.6-1.2,0.5-1.9v-5.2c0.1-0.7-0.1-1.4-0.5-1.9
	c-0.7-0.4-1.4-0.5-2.2-0.4h-7c-1.2,0-2.3,0-3.5,0.2c-1,0.2-2.1,0.5-3.1,0.8v-8.4c1,0.3,1.9,0.5,2.9,0.7c1.2,0.2,2.5,0.3,3.7,0.3h7
	c0.7,0.1,1.5-0.1,2.1-0.4c0.4-0.5,0.6-1.2,0.5-1.9v-4.7c0.1-0.7-0.1-1.4-0.5-1.9c-0.7-0.4-1.4-0.5-2.2-0.4h-15.6
	c-0.9,0-1.9,0.1-2.8,0.3c-0.9,0.3-1.8,0.7-2.6,1.1l1.3-7.8L134.8,57.9z"/>
</svg>
