<svg id="Layer_1" data-name="Layer 1" xmlns="http://www.w3.org/2000/svg" viewBox="0 0 254.53 111.25"><defs><style>.cls-1{opacity:0.5;}.cls-2{fill:#fff200;}.cls-3{fill:none;stroke:#231f20;}.cls-4{fill:#ffc418;}</style></defs><title>5</title><g class="cls-1"><path class="cls-2" d="M7.2,57.33a171.41,171.41,0,0,1,121-50.13A167.4,167.4,0,0,1,247.33,56.73L222.81,84.58H31.11ZM94.36,5.09a177,177,0,0,0-91,48.41,5.4,5.4,0,0,0-.25,7.39L27.05,88.15A5.4,5.4,0,0,0,31.11,90h191.7a5.39,5.39,0,0,0,4.05-1.83l24.52-27.86a5.39,5.39,0,0,0-.24-7.38A172.77,172.77,0,0,0,128.25,1.8,176.68,176.68,0,0,0,94.36,5.09"/></g><path class="cls-3" d="M7.2,57.33a171.42,171.42,0,0,1,121-50.13A167.4,167.4,0,0,1,247.33,56.73"/><path class="cls-4" d="M85.21,111.25a7.2,7.2,0,0,1-5.09-2.11L62.76,91.79H31.11a7.2,7.2,0,0,1-5.41-2.45L1.79,62.08a7.2,7.2,0,0,1,.33-9.85A177.55,177.55,0,0,1,128.25,0,174.55,174.55,0,0,1,252.42,51.64a7.2,7.2,0,0,1,.31,9.85L228.22,89.34a7.2,7.2,0,0,1-5.4,2.45H188.24l-17.36,17.36a7.2,7.2,0,0,1-5.09,2.11Z"/><path d="M247.33,56.73A167.4,167.4,0,0,0,128.25,7.2,171.42,171.42,0,0,0,7.2,57.33L31.11,84.58H65.75l19.47,19.47h80.58l19.47-19.47h37.55Z"/><path class="cls-4" d="M32.22,71.73l-1.68-15-3.65,2.86a6.7,6.7,0,0,0-.83.75,3.82,3.82,0,0,0-.62,1l-1.52-2.65L35.5,49.65l1.67,15,3.67-2.87a12.3,12.3,0,0,0,1.09-.92,4.5,4.5,0,0,0,.51-.73l1.48,2.47Z"/><path class="cls-4" d="M46.1,56.12l.24,2.34a2,2,0,0,0,.3.89,2,2,0,0,0,.33.43,3.23,3.23,0,0,0,.54.33l-3.68,2.3q.12-1.12.12-1.75a11.38,11.38,0,0,0-.11-1.54l-1.47-12.9-1-.38,5.88-3.68L58.89,50.5a7.21,7.21,0,0,0,2.26,1.08l-6.53,4.08a3.72,3.72,0,0,0-.09-.64,1.39,1.39,0,0,0-.16-.39,2.9,2.9,0,0,0-.79-.86l-1.76-1.22Zm3.52-5.2L45,47.68l.76,5.65Z"/><path class="cls-4" d="M58,39.15l4.2,9A10.25,10.25,0,0,0,63,49.72a2.84,2.84,0,0,0,.86.71L60.52,52a2.85,2.85,0,0,0,0-1.12,10.27,10.27,0,0,0-.66-1.63l-4.19-8.9a10.35,10.35,0,0,0-.83-1.54,2.86,2.86,0,0,0-.86-.71l7.45-3.51,11,8.68-4.1-8.87a10.21,10.21,0,0,0-.83-1.54,2.88,2.88,0,0,0-.86-.71L70,30.59a2.81,2.81,0,0,0,0,1.12,10.25,10.25,0,0,0,.66,1.63L76,44.73,69.12,48Z"/><path class="cls-4" d="M76.34,44.59l3.37-14.67L75.32,31.4a6.66,6.66,0,0,0-1,.44,3.8,3.8,0,0,0-.91.72l-.56-3,13.93-4.72L83.37,39.52,87.78,38a12.41,12.41,0,0,0,1.34-.5,4.61,4.61,0,0,0,.72-.52l.58,2.82Z"/><path class="cls-4" d="M92.16,39.45a4.33,4.33,0,0,0,.09-1.13A8.2,8.2,0,0,0,92,36.77L89.57,27a8.37,8.37,0,0,0-.48-1.5,4.77,4.77,0,0,0-.62-.95l6.62-1.64A4.29,4.29,0,0,0,95,24a8.19,8.19,0,0,0,.26,1.54l2.42,9.78a8.34,8.34,0,0,0,.48,1.5,4.67,4.67,0,0,0,.62.95Z"/><path class="cls-4" d="M98.4,24.72a8.32,8.32,0,0,0-.34-1.54,4.75,4.75,0,0,0-.53-1L110,20.3a4.71,4.71,0,0,1,3.21.3,3,3,0,0,1,1.19,2.14l.25,1.68a2,2,0,0,1-.53,2,4.86,4.86,0,0,1-2.42.88,7.72,7.72,0,0,1,2.76.3,1.79,1.79,0,0,1,.88,1.51l.39,2.58a3.23,3.23,0,0,1-.48,2.53,4.52,4.52,0,0,1-3,1.29L99.83,37.37a4.29,4.29,0,0,0,.19-1.12,8.2,8.2,0,0,0-.11-1.56Zm6.31,2.59,3.37-.51a1.3,1.3,0,0,0,.74-.27.92.92,0,0,0,.08-.73L108.63,24a.92.92,0,0,0-.29-.66,1.23,1.23,0,0,0-.78-.05l-3.37.51Zm1,6.6,3.37-.51a1.3,1.3,0,0,0,.74-.27.93.93,0,0,0,.08-.73L109.55,30a.93.93,0,0,0-.29-.66,1.24,1.24,0,0,0-.79-.05l-3.37.51Z"/><path class="cls-4" d="M120.68,30.59l-1,2.13a2,2,0,0,0-.2.92,2.07,2.07,0,0,0,.06.54,3.32,3.32,0,0,0,.3.56l-4.34.08q.68-.9,1-1.43A11.39,11.39,0,0,0,117.2,32l5.37-11.82-.69-.85,6.93-.13,5.72,13.14a7.23,7.23,0,0,0,1.38,2.09l-7.7.15a3.78,3.78,0,0,0,.25-.59,1.39,1.39,0,0,0,.06-.42,2.9,2.9,0,0,0-.24-1.15l-.88-2Zm5.69-2.65-2.29-5.16L121.83,28Z"/><path class="cls-4" d="M142.25,28.63l-.47,4a8.4,8.4,0,0,0-.08,1.57,4.72,4.72,0,0,0,.24,1.1l-6.77-.8a4.31,4.31,0,0,0,.48-1,8.27,8.27,0,0,0,.3-1.54l1.18-10a7.37,7.37,0,0,0,.06-1.61,2.79,2.79,0,0,0-.37-1.08l12.54,1.48a4.87,4.87,0,0,1,2.93,1.11,3.18,3.18,0,0,1,.63,2.72l-.33,2.81q-.18,1.53-.83,1.92a2.8,2.8,0,0,1-1.79.26l1.57,4.54q.23.7.47,1.4a4.81,4.81,0,0,0,.51,1.09L146,35.79l-2-7Zm.3-2.53,3.29.39a1.31,1.31,0,0,0,.78-.06q.21-.13.27-.68l.22-1.86a.93.93,0,0,0-.11-.71,1.23,1.23,0,0,0-.74-.26L143,22.53Z"/><path class="cls-4" d="M167.79,37.89a8.42,8.42,0,0,0-.35,1.54,4.71,4.71,0,0,0,0,1.13l-6.52-2a4.3,4.3,0,0,0,.66-.93,8.29,8.29,0,0,0,.57-1.46l2.93-9.64a8.32,8.32,0,0,0,.35-1.54,4.72,4.72,0,0,0,0-1.13l12.72,3.87-.47,3.12a6.8,6.8,0,0,0-1-.72,5.9,5.9,0,0,0-1.39-.6l-4.57-1.39-1,3.44,4,1.22a8.49,8.49,0,0,0,1.37.33,10.55,10.55,0,0,0,1.28.05l-1,3.21q-.48-.32-1-.61a7.81,7.81,0,0,0-1.38-.54L169,34Z"/><path class="cls-4" d="M185.62,44.62a7.35,7.35,0,0,0,1.47.46,3.1,3.1,0,0,0,1.05,0l-1.63,2.63-12.25-5.06a4.24,4.24,0,0,0,.75-.86,8.19,8.19,0,0,0,.71-1.4l3.85-9.32a8.45,8.45,0,0,0,.5-1.49,4.79,4.79,0,0,0,.06-1.13l6.3,2.6a4.26,4.26,0,0,0-.75.86,8.24,8.24,0,0,0-.71,1.4l-3.88,9.41Z"/><path class="cls-4" d="M198,50.92a9,9,0,0,0,1.31.6,8.65,8.65,0,0,0,1.21.27l-1.85,2.36-12-6.32a4.33,4.33,0,0,0,.82-.79,8.23,8.23,0,0,0,.83-1.32l4.71-8.91a8.32,8.32,0,0,0,.64-1.44,4.72,4.72,0,0,0,.17-1.12l11.76,6.21-1,3a10.83,10.83,0,0,0-.85-.91,5.57,5.57,0,0,0-1.24-.84l-4.22-2.23-1.68,3.18,3.69,2a8.62,8.62,0,0,0,1.28.58,10.62,10.62,0,0,0,1.24.29l-1.57,3a11.85,11.85,0,0,0-.89-.8,7.75,7.75,0,0,0-1.25-.8l-3.69-2-1.93,3.65Z"/><path class="cls-4" d="M210.16,58.6a9.08,9.08,0,0,0,1.25.72,8.59,8.59,0,0,0,1.18.38l-2.06,2.18-11.33-7.4a4.32,4.32,0,0,0,.89-.71,8.21,8.21,0,0,0,1-1.24l5.51-8.44a8.37,8.37,0,0,0,.77-1.37,4.82,4.82,0,0,0,.27-1.1l11.13,7.27-1.3,2.88a11.07,11.07,0,0,0-.76-1,5.57,5.57,0,0,0-1.15-1l-4-2.61-2,3,3.5,2.28a8.68,8.68,0,0,0,1.22.7,11,11,0,0,0,1.21.4l-1.84,2.81a11.85,11.85,0,0,0-.82-.88,7.75,7.75,0,0,0-1.17-.91l-3.5-2.28-2.26,3.46Z"/><path class="cls-4" d="M231.75,59l-1.56,2.75a4.81,4.81,0,0,0-.5-.94,4.22,4.22,0,0,0-.86-.87l-2.09-1.65-6.31,8a8.33,8.33,0,0,0-.89,1.3,4.7,4.7,0,0,0-.37,1.07l-5.35-4.23a4.35,4.35,0,0,0,1-.62,8.31,8.31,0,0,0,1.06-1.15l6.31-8L220.07,53a4,4,0,0,0-1-.63,5.32,5.32,0,0,0-1.09-.23L220.31,50Z"/><path class="cls-4" d="M121.65,71.78h15.66q5.22,0,7.35,2.13t2.13,6.63v7q0,4.5-2.13,6.63t-7.35,2.13h-29L107,88a9.08,9.08,0,0,0,2.64,1.38,15,15,0,0,0,4.62.54h15.3a3.43,3.43,0,0,0,2.19-.45,3.16,3.16,0,0,0,.45-2.07V80.66a3,3,0,0,0-.48-2,3.27,3.27,0,0,0-2.16-.48H114a18.14,18.14,0,0,0-3.75.33,6.71,6.71,0,0,0-2.85,1.41l.48-22h38.4l1.14,7.8a12.88,12.88,0,0,0-3.12-1.1,25.4,25.4,0,0,0-4.86-.34H122Z"/></svg>