<svg id="Layer_1" data-name="Layer 1" xmlns="http://www.w3.org/2000/svg" viewBox="0 0 254.53 111.25"><defs><style>.cls-1{opacity:0.5;}.cls-2{fill:#fff200;}.cls-3{fill:none;stroke:#231f20;}.cls-4{fill:#ffc418;}</style></defs><title>6</title><g class="cls-1"><path class="cls-2" d="M7.2,57.33a171.41,171.41,0,0,1,121-50.13A167.4,167.4,0,0,1,247.33,56.73L222.81,84.58H31.11ZM94.36,5.09a177,177,0,0,0-91,48.41,5.4,5.4,0,0,0-.25,7.39L27.05,88.15A5.4,5.4,0,0,0,31.11,90h191.7a5.39,5.39,0,0,0,4.05-1.83l24.52-27.86a5.39,5.39,0,0,0-.24-7.38A172.77,172.77,0,0,0,128.25,1.8,176.68,176.68,0,0,0,94.36,5.09"/></g><path class="cls-3" d="M7.2,57.33a171.42,171.42,0,0,1,121-50.13A167.4,167.4,0,0,1,247.33,56.73"/><path class="cls-4" d="M85.21,111.25a7.2,7.2,0,0,1-5.09-2.11L62.76,91.79H31.11a7.2,7.2,0,0,1-5.41-2.45L1.79,62.08a7.2,7.2,0,0,1,.33-9.85A177.55,177.55,0,0,1,128.25,0,174.55,174.55,0,0,1,252.42,51.64a7.2,7.2,0,0,1,.31,9.85L228.22,89.34a7.2,7.2,0,0,1-5.4,2.45H188.24l-17.36,17.36a7.2,7.2,0,0,1-5.09,2.11Z"/><path d="M247.33,56.73A167.4,167.4,0,0,0,128.25,7.2,171.42,171.42,0,0,0,7.2,57.33L31.11,84.58H65.75l19.47,19.47h80.58l19.47-19.47h37.55Z"/><path class="cls-4" d="M41,47.14a8.4,8.4,0,0,0-1.33.36,5.47,5.47,0,0,0-1.3.74L33.28,52a2.58,2.58,0,0,0-.78.74q-.12.26.18.67l.6.81c.2.27.39.39.58.37a2.58,2.58,0,0,0,.94-.52l3.91-2.86a5.56,5.56,0,0,1,3.22-1.32,3.26,3.26,0,0,1,2.53,1.58L47,55a4.91,4.91,0,0,1,1.19,3.24,4.29,4.29,0,0,1-2,2.84l-9.94,7.29L33.73,65.9a9,9,0,0,0,1.21-.43,6.78,6.78,0,0,0,1.25-.75l5.33-3.91a2.47,2.47,0,0,0,.75-.73c.08-.17,0-.4-.18-.67l-.73-1c-.19-.25-.38-.37-.58-.36a2.28,2.28,0,0,0-.93.49l-4.49,3.29a4.1,4.1,0,0,1-2.87,1.06,4.3,4.3,0,0,1-2.48-2l-2.37-3.23a4.59,4.59,0,0,1-1.08-3.13,3.57,3.57,0,0,1,1.61-2.54l10.23-7.5Z"/><path class="cls-4" d="M55.34,51.67a9.77,9.77,0,0,0,1,1.54,5.49,5.49,0,0,0,1,.87L50.41,58a5,5,0,0,0-.25-1.3A9.6,9.6,0,0,0,49.38,55L43.61,44.78a8.59,8.59,0,0,0-1.05-1.56,3.26,3.26,0,0,0-1.09-.77l12.78-7.2a5.37,5.37,0,0,1,3.4-.87q1.45.23,2.7,2.45l1.37,2.44q1.25,2.22.71,3.57a5.37,5.37,0,0,1-2.52,2.46l-6.2,3.49ZM52.26,46.2l3.12-1.76q.66-.37.72-.74a2.17,2.17,0,0,0-.4-1.2l-1.24-2.2a2.18,2.18,0,0,0-.82-1,1.26,1.26,0,0,0-1,.23l-3.12,1.76Z"/><path class="cls-4" d="M75,33.8,73.45,30a9.63,9.63,0,0,0-.8-1.66,5.53,5.53,0,0,0-.87-1l7.38-3a5,5,0,0,0,.08,1.33,9.61,9.61,0,0,0,.55,1.74l4.37,10.92A9.76,9.76,0,0,0,85,40a5.5,5.5,0,0,0,.87,1l-7.38,3a5,5,0,0,0-.08-1.33,9.63,9.63,0,0,0-.55-1.74l-1.75-4.37-4.73,1.89,1.75,4.37a9.76,9.76,0,0,0,.8,1.66,5.5,5.5,0,0,0,.87,1l-7.38,3a5.05,5.05,0,0,0-.08-1.33,9.61,9.61,0,0,0-.55-1.74L62.37,34.43a9.67,9.67,0,0,0-.8-1.66,5.54,5.54,0,0,0-.87-1l7.38-3a5,5,0,0,0,.08,1.33,9.61,9.61,0,0,0,.55,1.74l1.52,3.79Z"/><path class="cls-4" d="M87.1,40.92a5,5,0,0,0,.06-1.33,9.62,9.62,0,0,0-.36-1.79l-3.2-11.32A9.75,9.75,0,0,0,83,24.76a5.52,5.52,0,0,0-.76-1.08l7.65-2.17a5,5,0,0,0-.06,1.33,9.58,9.58,0,0,0,.36,1.79l3.2,11.32A9.8,9.8,0,0,0,94,37.68a5.51,5.51,0,0,0,.76,1.08Z"/><path class="cls-4" d="M97,22.92l1.86,11.47a12,12,0,0,0,.45,2,3.33,3.33,0,0,0,.75,1.07l-4.25.71a3.32,3.32,0,0,0,.36-1.25,12,12,0,0,0-.23-2L94,23.56a12,12,0,0,0-.45-2,3.33,3.33,0,0,0-.75-1.07l9.47-1.58,9.59,13.21-1.8-11.25a12,12,0,0,0-.45-2,3.35,3.35,0,0,0-.75-1.07l4.25-.71a3.32,3.32,0,0,0-.36,1.25,11.84,11.84,0,0,0,.23,2l2.42,14.5-8.73,1.46Z"/><path class="cls-4" d="M127.54,21.89,130.3,19a6.61,6.61,0,0,0,1-1.25,3.06,3.06,0,0,0,.36-1.13l5.56-.08a13.19,13.19,0,0,0-1.55,1.2q-.69.63-1.57,1.56l-4.68,5L135.33,32q.74,1,1.2,1.47a7.09,7.09,0,0,0,1.11,1l-9.8.15a4.49,4.49,0,0,0-.18-1.41,7.19,7.19,0,0,0-.9-1.37l-2-2.6-3,3.18a4.67,4.67,0,0,0-1.42,2.32l-5.29.08q1-.8,1.4-1.14T118,32.09l5-5.26L117,19.3q-.77-1-1.14-1.38a8.44,8.44,0,0,0-1.39-1l10.08-.15a4,4,0,0,0,.17,1.19,3.11,3.11,0,0,0,.51.93Z"/><path class="cls-4" d="M154.16,34a9.72,9.72,0,0,0-.23,1.82,5.48,5.48,0,0,0,.19,1.31l-7.8-1.54a5,5,0,0,0,.66-1.16,9.54,9.54,0,0,0,.49-1.76l2.27-11.54a9.77,9.77,0,0,0,.23-1.82,5.54,5.54,0,0,0-.19-1.31l15.22,3-.18,3.67A8,8,0,0,0,163.6,24a6.86,6.86,0,0,0-1.68-.53l-5.47-1.08-.81,4.12,4.78.94a10,10,0,0,0,1.63.22,12.47,12.47,0,0,0,1.49-.09l-.76,3.85a13.74,13.74,0,0,0-1.27-.59,9,9,0,0,0-1.66-.47l-4.78-.94Z"/><path class="cls-4" d="M175.54,40a8.57,8.57,0,0,0,1.75.4,3.63,3.63,0,0,0,1.23-.06l-1.64,3.21-14.72-4.71a5,5,0,0,0,.79-1.07,9.65,9.65,0,0,0,.69-1.69l3.59-11.2a9.83,9.83,0,0,0,.44-1.79,5.6,5.6,0,0,0,0-1.32l7.57,2.42a5,5,0,0,0-.78,1.07,9.58,9.58,0,0,0-.69,1.69L170.1,38.27Z"/><path class="cls-4" d="M190.4,46.39A10.62,10.62,0,0,0,192,47a10.09,10.09,0,0,0,1.43.23l-2,2.89L177,43.63a5,5,0,0,0,.9-1,9.74,9.74,0,0,0,.87-1.6l4.82-10.73a9.72,9.72,0,0,0,.64-1.72,5.5,5.5,0,0,0,.12-1.31l14.15,6.36-1,3.55a12.72,12.72,0,0,0-1.06-1,6.51,6.51,0,0,0-1.5-.89L189.9,33l-1.72,3.83,4.44,2a10,10,0,0,0,1.53.58,12.59,12.59,0,0,0,1.47.25L194,43.26q-.51-.44-1.1-.86a9.09,9.09,0,0,0-1.51-.83l-4.44-2L185,44Z"/><path class="cls-4" d="M205,54.62a10.45,10.45,0,0,0,1.5.77,10,10,0,0,0,1.4.38l-2.28,2.66-13.61-8a5,5,0,0,0,1-.87,9.63,9.63,0,0,0,1-1.5l6-10.13a9.74,9.74,0,0,0,.82-1.64,5.53,5.53,0,0,0,.26-1.29l13.37,7.87-1.36,3.42a12.84,12.84,0,0,0-.94-1.1,6.49,6.49,0,0,0-1.4-1.05L206,41.28l-2.13,3.62,4.2,2.47a10,10,0,0,0,1.46.75,12.46,12.46,0,0,0,1.43.41l-2,3.38q-.46-.5-1-1a9.09,9.09,0,0,0-1.41-1l-4.2-2.47-2.44,4.15Z"/><path class="cls-4" d="M230.22,54.34l-1.72,3.26a5.65,5.65,0,0,0-.61-1.08,4.93,4.93,0,0,0-1-1l-2.5-1.85-7.08,9.53a9.73,9.73,0,0,0-1,1.55,5.51,5.51,0,0,0-.39,1.26l-6.38-4.74a5,5,0,0,0,1.09-.76,9.58,9.58,0,0,0,1.2-1.38l7.08-9.53-2.49-1.85a4.7,4.7,0,0,0-1.21-.7,6.28,6.28,0,0,0-1.27-.23l2.65-2.63Z"/><path class="cls-4" d="M125.19,64.22a4.7,4.7,0,0,0-2.79.57,2.66,2.66,0,0,0-.69,2.13v7.32a7.39,7.39,0,0,1,1.8-2.28,3.87,3.87,0,0,1,2.22-.54h12.18a10.32,10.32,0,0,1,6.78,2.22,7.3,7.3,0,0,1,2.7,5.94V88.1A7.29,7.29,0,0,1,144.66,94a10.27,10.27,0,0,1-6.75,2.25H116.55A10.32,10.32,0,0,1,109.77,94a7.3,7.3,0,0,1-2.7-5.94V66a7.29,7.29,0,0,1,2.73-5.91,10.26,10.26,0,0,1,6.75-2.25h28.86l1.32,7.8a11.21,11.21,0,0,0-2.91-1.06,24.51,24.51,0,0,0-5-.38Zm-1.08,13.56a2.93,2.93,0,0,0-1.89.45,2.23,2.23,0,0,0-.51,1.71v7.8a2.34,2.34,0,0,0,.48,1.68,2.78,2.78,0,0,0,1.92.48h6.24a2.93,2.93,0,0,0,1.89-.45,2.24,2.24,0,0,0,.51-1.71v-7.8a2.34,2.34,0,0,0-.48-1.68,2.78,2.78,0,0,0-1.92-.48Z"/></svg>