<svg id="Layer_1" data-name="Layer 1" xmlns="http://www.w3.org/2000/svg" viewBox="0 0 254.53 111.25"><defs><style>.cls-1{opacity:0.5;}.cls-2{fill:#fff200;}.cls-3{fill:none;stroke:#231f20;}.cls-4{fill:#ffc418;}</style></defs><title>8</title><g class="cls-1"><path class="cls-2" d="M7.2,57.33a171.41,171.41,0,0,1,121-50.13A167.4,167.4,0,0,1,247.33,56.73L222.81,84.58H31.11ZM94.36,5.09a177,177,0,0,0-91,48.41,5.4,5.4,0,0,0-.25,7.39L27.05,88.15A5.4,5.4,0,0,0,31.11,90h191.7a5.39,5.39,0,0,0,4.05-1.83l24.52-27.86a5.39,5.39,0,0,0-.24-7.38A172.77,172.77,0,0,0,128.25,1.8,176.68,176.68,0,0,0,94.36,5.09"/></g><path class="cls-3" d="M7.2,57.33a171.42,171.42,0,0,1,121-50.13A167.4,167.4,0,0,1,247.33,56.73"/><path class="cls-4" d="M85.21,111.25a7.2,7.2,0,0,1-5.09-2.11L62.76,91.79H31.11a7.2,7.2,0,0,1-5.41-2.45L1.79,62.08a7.2,7.2,0,0,1,.33-9.85A177.55,177.55,0,0,1,128.25,0,174.55,174.55,0,0,1,252.42,51.64a7.2,7.2,0,0,1,.31,9.85L228.22,89.34a7.2,7.2,0,0,1-5.4,2.45H188.24l-17.36,17.36a7.2,7.2,0,0,1-5.09,2.11Z"/><path d="M247.33,56.73A167.4,167.4,0,0,0,128.25,7.2,171.42,171.42,0,0,0,7.2,57.33L31.11,84.58H65.75l19.47,19.47h80.58l19.47-19.47h37.55Z"/><path class="cls-4" d="M23.7,60.88a9,9,0,0,0-1.14-1.27,5.15,5.15,0,0,0-1-.66l10.74-8.38a5.11,5.11,0,0,1,3.2-1.42,3.2,3.2,0,0,1,2.26,1.39L38.86,52a2.2,2.2,0,0,1,.54,2.14,5.25,5.25,0,0,1-1.81,2.12,8.37,8.37,0,0,1,2.77-1.18A1.94,1.94,0,0,1,42,56l1.74,2.23a3.5,3.5,0,0,1,.89,2.64,4.9,4.9,0,0,1-2.13,2.79L31.76,72.07a4.68,4.68,0,0,0-.41-1.16,8.93,8.93,0,0,0-.94-1.41ZM31,60l2.91-2.27a1.42,1.42,0,0,0,.55-.64c0-.17-.06-.42-.31-.73l-1.25-1.6q-.35-.45-.63-.47a1.34,1.34,0,0,0-.77.37L28.64,56.9Zm4.45,5.7,2.91-2.27a1.41,1.41,0,0,0,.55-.65q.06-.26-.31-.73L37,60c-.23-.3-.44-.46-.63-.47a1.33,1.33,0,0,0-.77.37l-2.91,2.27Z"/><path class="cls-4" d="M47.82,54.56,48,57.1a2.18,2.18,0,0,0,.31,1,2.28,2.28,0,0,0,.35.47,3.69,3.69,0,0,0,.58.36l-4,2.43q.15-1.21.17-1.89a12.41,12.41,0,0,0-.1-1.67L44,43.77l-1.11-.43,6.44-3.88,12.48,9.24a7.78,7.78,0,0,0,2.43,1.21l-7.15,4.3a4,4,0,0,0-.08-.69,1.52,1.52,0,0,0-.17-.43,3.15,3.15,0,0,0-.84-.95l-1.88-1.36ZM51.72,49l-4.94-3.6.72,6.14Z"/><path class="cls-4" d="M72.93,31.72a7.83,7.83,0,0,0-1.28.07,5.1,5.1,0,0,0-1.33.41l-5.39,2.41a2.4,2.4,0,0,0-.85.52c-.11.14-.1.36,0,.64l.38.85c.13.29.28.43.46.45a2.39,2.39,0,0,0,1-.28L70,35a5.16,5.16,0,0,1,3.18-.57,3,3,0,0,1,2,1.93L76.84,40a4.55,4.55,0,0,1,.45,3.17,4,4,0,0,1-2.42,2.18L64.43,50l-1.81-2.72a8.3,8.3,0,0,0,1.18-.16,6.32,6.32,0,0,0,1.29-.44l5.6-2.5a2.3,2.3,0,0,0,.83-.51q.16-.21,0-.64L71,42c-.12-.27-.27-.42-.45-.44a2.13,2.13,0,0,0-.94.26L64.9,44a3.81,3.81,0,0,1-2.81.4,4,4,0,0,1-1.87-2.27L58.71,38.7a4.26,4.26,0,0,1-.37-3.05,3.31,3.31,0,0,1,2-2l10.75-4.81Z"/><path class="cls-4" d="M79.94,43.38a4.62,4.62,0,0,0,0-1.23,8.84,8.84,0,0,0-.43-1.64L76,30.18a9,9,0,0,0-.66-1.57,5.12,5.12,0,0,0-.76-1l7-2.4a4.67,4.67,0,0,0,0,1.23A8.84,8.84,0,0,0,82,28.12l3.55,10.33A9,9,0,0,0,86.17,40a5,5,0,0,0,.76,1Z"/><path class="cls-4" d="M99.49,34.78a8,8,0,0,0,1.58-.54,3.38,3.38,0,0,0,.94-.65l.28,3.34-13.92,3.5a4.67,4.67,0,0,0,.09-1.23,8.92,8.92,0,0,0-.29-1.67L85.51,26.93A9.07,9.07,0,0,0,85,25.31a5.1,5.1,0,0,0-.67-1l7.16-1.8a4.63,4.63,0,0,0-.09,1.23,8.89,8.89,0,0,0,.29,1.67l2.69,10.69Z"/><path class="cls-4" d="M103,36.93a4.66,4.66,0,0,0,.2-1.22,8.85,8.85,0,0,0-.14-1.69l-1.74-10.78a9,9,0,0,0-.39-1.66,5.13,5.13,0,0,0-.58-1.08l7.29-1.18a4.68,4.68,0,0,0-.2,1.22,8.83,8.83,0,0,0,.14,1.69L109.34,33a9,9,0,0,0,.39,1.66,5.13,5.13,0,0,0,.58,1.08Z"/><path class="cls-4" d="M126.72,21.15a7.62,7.62,0,0,0-1.22-.38,5,5,0,0,0-1.39-.08l-5.89.37a2.42,2.42,0,0,0-1,.19q-.22.15-.2.61l.06.93q0,.47.27.58a2.39,2.39,0,0,0,1,.07l4.49-.29a5.17,5.17,0,0,1,3.18.58,3,3,0,0,1,1.19,2.5l.26,4a4.55,4.55,0,0,1-.69,3.13,4,4,0,0,1-3,1.2l-11.42.72-.75-3.18a8.43,8.43,0,0,0,1.16.27,6.27,6.27,0,0,0,1.36,0l6.12-.39a2.3,2.3,0,0,0,1-.19c.15-.1.21-.3.2-.61l-.07-1.14a.63.63,0,0,0-.27-.57,2.12,2.12,0,0,0-1-.08l-5.16.33a3.81,3.81,0,0,1-2.77-.61,4,4,0,0,1-1-2.78L111,22.72a4.26,4.26,0,0,1,.72-3,3.31,3.31,0,0,1,2.53-1.18L126,17.81Z"/><path class="cls-4" d="M146.25,32.16q.52,1.05,1.06,2a14.3,14.3,0,0,0,1.11,1.62l-7.78-.57-3.19-7.3-1.63,1.58-.18,2.49a9,9,0,0,0,0,1.71,5.13,5.13,0,0,0,.32,1.18l-7.36-.54a4.72,4.72,0,0,0,.47-1.14,9,9,0,0,0,.25-1.68l.8-10.89a9,9,0,0,0,0-1.71,5.15,5.15,0,0,0-.32-1.18l7.36.54a4.65,4.65,0,0,0-.47,1.14,8.94,8.94,0,0,0-.25,1.68l-.34,4.59,4.7-4.71a4.64,4.64,0,0,0,.77-.93,1.88,1.88,0,0,0,.24-.79l0-.62,5.73.42a12.94,12.94,0,0,0-1.19.62,7.52,7.52,0,0,0-1.11.86l-3.3,3Z"/><path class="cls-4" d="M164,36.57a8.92,8.92,0,0,0-.34,1.67,5.09,5.09,0,0,0,.08,1.22l-7.12-1.95a4.67,4.67,0,0,0,.69-1,9,9,0,0,0,.57-1.6l2.88-10.53a9.08,9.08,0,0,0,.34-1.67,5.15,5.15,0,0,0-.08-1.22l13.89,3.8-.42,3.39a7.33,7.33,0,0,0-1.08-.75,6.38,6.38,0,0,0-1.52-.61l-5-1.37-1,3.76,4.36,1.19a9.27,9.27,0,0,0,1.49.31,11.81,11.81,0,0,0,1.38,0l-1,3.51A12.92,12.92,0,0,0,171,34.1a8.48,8.48,0,0,0-1.51-.55l-4.36-1.19Z"/><path class="cls-4" d="M183.46,43.41a8,8,0,0,0,1.6.47,3.39,3.39,0,0,0,1.14,0l-1.71,2.88-13.37-5.22a4.65,4.65,0,0,0,.79-.95,8.9,8.9,0,0,0,.74-1.53l4-10.17a9,9,0,0,0,.51-1.63,5.11,5.11,0,0,0,0-1.22l6.88,2.69a4.62,4.62,0,0,0-.79.95,8.8,8.8,0,0,0-.74,1.53l-4,10.27Z"/><path class="cls-4" d="M196.93,50.08a9.86,9.86,0,0,0,1.43.63,9.45,9.45,0,0,0,1.32.28l-2,2.58-13-6.7a4.67,4.67,0,0,0,.88-.86,8.94,8.94,0,0,0,.89-1.44l5-9.71a9,9,0,0,0,.67-1.57,5.1,5.1,0,0,0,.17-1.21l12.81,6.58L204,41.9a11.85,11.85,0,0,0-.93-1,6,6,0,0,0-1.35-.9l-4.6-2.37-1.78,3.47,4,2.07a9.34,9.34,0,0,0,1.39.62,11.64,11.64,0,0,0,1.35.3l-1.66,3.24q-.45-.44-1-.85a8.52,8.52,0,0,0-1.36-.85l-4-2.07-2,4Z"/><path class="cls-4" d="M210.16,58.33a9.79,9.79,0,0,0,1.36.77,9.56,9.56,0,0,0,1.28.41l-2.22,2.37-12.31-8a4.66,4.66,0,0,0,1-.77,8.88,8.88,0,0,0,1-1.35l5.94-9.16a9,9,0,0,0,.83-1.49,5.1,5.1,0,0,0,.29-1.19l12.09,7.83L218,50.9a11.93,11.93,0,0,0-.83-1.06,6,6,0,0,0-1.25-1L211.58,46l-2.12,3.27,3.8,2.46a9.37,9.37,0,0,0,1.33.75,11.49,11.49,0,0,0,1.32.43l-2,3.05q-.4-.48-.89-.95a8.49,8.49,0,0,0-1.27-1L208,51.58l-2.43,3.75Z"/><path class="cls-4" d="M233.59,58.9l-1.7,3a5.22,5.22,0,0,0-.53-1,4.57,4.57,0,0,0-.93-.94l-2.26-1.8-6.87,8.62a9,9,0,0,0-1,1.4,5.07,5.07,0,0,0-.41,1.16l-5.77-4.6a4.68,4.68,0,0,0,1-.67,8.91,8.91,0,0,0,1.16-1.24l6.87-8.62L221,52.35a4.36,4.36,0,0,0-1.1-.69,5.77,5.77,0,0,0-1.18-.26L221.23,49Z"/><path class="cls-4" d="M139.05,57.86q4.26,0,6.39,2.07a7.78,7.78,0,0,1,2.13,5.85v3.6q0,4-2.16,5.19a19.73,19.73,0,0,1-7,1.65q4.62.12,6.9,1.71t2.28,5.25v5.16q0,7.92-8.52,7.92H115.29q-4.2,0-6.33-2.13a8.15,8.15,0,0,1-2.13-6V82.78q0-3.77,2.28-5.41T116,75.74q-5.94-.7-7.53-2.21A6,6,0,0,1,106.83,69V65.52q0-7.66,8.52-7.66Zm-8.4,15.24a2,2,0,0,0,2.28-2.4v-4a2.79,2.79,0,0,0-.54-2,2.39,2.39,0,0,0-1.74-.54h-6.9a2.38,2.38,0,0,0-1.74.54,2.79,2.79,0,0,0-.54,2v3.84a2.79,2.79,0,0,0,.54,2,2.38,2.38,0,0,0,1.74.54Zm-6.9,6.36A2.38,2.38,0,0,0,122,80a2.79,2.79,0,0,0-.54,2v5.4a2.79,2.79,0,0,0,.54,2,2.38,2.38,0,0,0,1.74.54h6.9a2,2,0,0,0,2.28-2.4V82a2.9,2.9,0,0,0-.51-2,2.58,2.58,0,0,0-1.83-.51Z"/></svg>