<svg id="Layer_1" data-name="Layer 1" xmlns="http://www.w3.org/2000/svg" viewBox="0 0 250.93 88.19"><defs><style>.cls-1{fill:#231f20;}.cls-2{fill:#305634;}.cls-3{fill:none;stroke:#231f20;}.cls-4{fill:#fff200;}</style></defs><title>RMOP-01</title><path class="cls-1" d="M5.4,55.53a171.41,171.41,0,0,1,121-50.13A167.4,167.4,0,0,1,245.53,54.93L221,82.78H29.31Z"/><path class="cls-2" d="M5.4,55.53a171.41,171.41,0,0,1,121-50.13A167.4,167.4,0,0,1,245.53,54.92L221,82.78H29.31ZM92.56,3.29a177,177,0,0,0-91,48.41,5.4,5.4,0,0,0-.25,7.39L25.25,86.35a5.4,5.4,0,0,0,4.06,1.84H221a5.39,5.39,0,0,0,4.05-1.83l24.52-27.86a5.39,5.39,0,0,0-.24-7.38A172.77,172.77,0,0,0,126.45,0,176.66,176.66,0,0,0,92.56,3.29"/><path class="cls-3" d="M5.4,55.53a171.42,171.42,0,0,1,121-50.13A167.4,167.4,0,0,1,245.53,54.93"/><path class="cls-4" d="M47.09,48.78a7.3,7.3,0,0,0,1.2-1A3.14,3.14,0,0,0,48.9,47l1.28,2.81-11,7.37a4.31,4.31,0,0,0-.3-1.1,8.27,8.27,0,0,0-.77-1.36l-5.61-8.37a8.38,8.38,0,0,0-1-1.25,4.73,4.73,0,0,0-.9-.68l5.66-3.79a4.26,4.26,0,0,0,.3,1.1A8.2,8.2,0,0,0,37.36,43L43,51.5Z"/><path class="cls-4" d="M45.43,39.9a5,5,0,0,1-.75-3.51,3.77,3.77,0,0,1,2.09-2.29L54.55,30a3.8,3.8,0,0,1,3.07-.43,5,5,0,0,1,2.47,2.62L63,37.81a5,5,0,0,1,.75,3.51,3.77,3.77,0,0,1-2.09,2.29L53.92,47.7a3.79,3.79,0,0,1-3.07.43,5,5,0,0,1-2.47-2.62ZM54,43.66q.46.87,1.48.33l2.25-1.18q1-.54.56-1.41l-3.86-7.35Q54,33.18,53,33.72L50.72,34.9q-1,.54-.56,1.41Z"/><path class="cls-4" d="M64.23,28.46l3.49,9.33a10.2,10.2,0,0,0,.71,1.6,2.84,2.84,0,0,0,.81.77l-3.46,1.31a2.85,2.85,0,0,0,.09-1.11,10.22,10.22,0,0,0-.53-1.67l-3.49-9.2a10.31,10.31,0,0,0-.71-1.6,2.89,2.89,0,0,0-.81-.77L68,24.19l10.28,9.5-3.4-9.16a10.38,10.38,0,0,0-.71-1.6,2.88,2.88,0,0,0-.81-.77l3.46-1.31A2.84,2.84,0,0,0,76.76,22a10.19,10.19,0,0,0,.53,1.67l4.47,11.78L74.67,38.1Z"/><path class="cls-4" d="M80.16,22.64a8.28,8.28,0,0,0-.48-1.5,4.74,4.74,0,0,0-.62-.95l11.58-2.86a4.75,4.75,0,0,1,3.56.15,4.67,4.67,0,0,1,1.78,3l1.59,6.43a4.67,4.67,0,0,1-.16,3.51,4.75,4.75,0,0,1-3.08,1.79L82.75,35.11A4.34,4.34,0,0,0,82.84,34a8.28,8.28,0,0,0-.26-1.54Zm8.13,8.47,3-.73q.7-.17.83-.43a1.76,1.76,0,0,0-.06-1l-1.87-7.55a1.77,1.77,0,0,0-.43-.94,1.24,1.24,0,0,0-.94,0l-3,.73Z"/><path class="cls-4" d="M98.33,20.21a5,5,0,0,1,.54-3.55,3.78,3.78,0,0,1,2.76-1.41l8.72-1.09a3.8,3.8,0,0,1,3,.67,5,5,0,0,1,1.39,3.32l.79,6.29A5,5,0,0,1,115,28a3.77,3.77,0,0,1-2.76,1.41l-8.72,1.09a3.8,3.8,0,0,1-3-.67,5,5,0,0,1-1.39-3.32ZM105,26.75q.12,1,1.26.83l2.52-.32q1.14-.14,1-1.12l-1-8.24q-.12-1-1.27-.83l-2.52.32q-1.14.14-1,1.12Z"/><path class="cls-4" d="M119.91,16.13l0,10a10.27,10.27,0,0,0,.11,1.75,2.86,2.86,0,0,0,.49,1l-3.7,0a2.86,2.86,0,0,0,.47-1,10.26,10.26,0,0,0,.08-1.75l-.08-9.84a10.26,10.26,0,0,0-.11-1.75,2.86,2.86,0,0,0-.49-1l8.23-.06,6.34,12.48V16.16a10.27,10.27,0,0,0-.11-1.75,2.85,2.85,0,0,0-.49-1l3.7,0a2.84,2.84,0,0,0-.47,1,10.14,10.14,0,0,0-.08,1.75l.1,12.6-7.58.06Z"/><path class="cls-4" d="M150.13,28a8.27,8.27,0,0,0-.16,1.57,4.71,4.71,0,0,0,.18,1.12l-6.71-1.17a4.24,4.24,0,0,0,.54-1,8.18,8.18,0,0,0,.39-1.52l1.73-9.93a7.42,7.42,0,0,0,.15-1.61,2.79,2.79,0,0,0-.31-1.1l12.39,2.16A4.61,4.61,0,0,1,161,17.83a3.63,3.63,0,0,1,.46,3.09l-.41,2.36A3.66,3.66,0,0,1,159.63,26a4.6,4.6,0,0,1-3,.27l-6-1Zm.92-5.3,3,.53a1.08,1.08,0,0,0,.88-.1,1.88,1.88,0,0,0,.38-1l.37-2.13a1.87,1.87,0,0,0,0-1.09,1.08,1.08,0,0,0-.8-.39l-3-.53Z"/><path class="cls-4" d="M163.26,22.11a5,5,0,0,1,1.92-3,3.77,3.77,0,0,1,3.1-.17l8.41,2.53a3.8,3.8,0,0,1,2.49,1.84,5,5,0,0,1-.07,3.6l-1.82,6.07a5,5,0,0,1-1.92,3,3.77,3.77,0,0,1-3.1.17l-8.41-2.53a3.8,3.8,0,0,1-2.49-1.84,5,5,0,0,1,.07-3.6Zm3.5,8.7q-.28.94.82,1.27l2.44.73q1.1.33,1.39-.61l2.39-8q.28-.94-.82-1.27l-2.44-.73q-1.1-.33-1.39.61Z"/><path class="cls-4" d="M177.19,37.92a4.31,4.31,0,0,0,.74-.87,8.27,8.27,0,0,0,.69-1.4l3.77-9.35a8.44,8.44,0,0,0,.49-1.5,4.76,4.76,0,0,0,.05-1.13l6.32,2.55a4.28,4.28,0,0,0-.74.87,8.17,8.17,0,0,0-.69,1.4l-3.77,9.35a8.27,8.27,0,0,0-.49,1.5,4.71,4.71,0,0,0-.05,1.13Z"/><path class="cls-4" d="M193.21,30.82l-4.6,8.83a10.29,10.29,0,0,0-.72,1.6,2.85,2.85,0,0,0,0,1.12l-3.29-1.69a2.86,2.86,0,0,0,.89-.68,10.37,10.37,0,0,0,.89-1.51l4.5-8.75a10.21,10.21,0,0,0,.72-1.6,2.86,2.86,0,0,0,0-1.12l7.32,3.77-.19,14,4.54-8.65a10.35,10.35,0,0,0,.72-1.6,2.87,2.87,0,0,0,0-1.12l3.29,1.69a2.84,2.84,0,0,0-.89.68,10.28,10.28,0,0,0-.89,1.51l-5.77,11.2L193,45Z"/><path class="cls-4" d="M221,44.23l-1.33,2.86a4.79,4.79,0,0,0-.57-.9,4.21,4.21,0,0,0-.93-.79L216,43.92l-5.64,8.47a8.35,8.35,0,0,0-.78,1.37,4.73,4.73,0,0,0-.28,1.09l-5.67-3.78a4.31,4.31,0,0,0,.9-.7,8.16,8.16,0,0,0,1-1.23l5.64-8.47-2.22-1.48a4,4,0,0,0-1.06-.55,5.35,5.35,0,0,0-1.1-.14l2.16-2.37Z"/><path class="cls-4" d="M52.12,67.15V64.37A6.64,6.64,0,0,0,52,63.13a3.77,3.77,0,0,0-.29-.85h5.4a3.38,3.38,0,0,0-.29.86,6.5,6.5,0,0,0-.1,1.23v8a6.64,6.64,0,0,0,.09,1.24,3.73,3.73,0,0,0,.29.85h-5.4a3.39,3.39,0,0,0,.28-.86,6.49,6.49,0,0,0,.1-1.23V69.16H48.66v3.19a6.6,6.6,0,0,0,.09,1.24,3.73,3.73,0,0,0,.29.85h-5.4a3.39,3.39,0,0,0,.29-.86A6.53,6.53,0,0,0,44,72.35v-8a6.6,6.6,0,0,0-.09-1.24,3.77,3.77,0,0,0-.29-.85H49a3.4,3.4,0,0,0-.29.86,6.5,6.5,0,0,0-.09,1.23v2.77Z"/><path class="cls-4" d="M67.47,72.43a7.24,7.24,0,0,0,1.14-.07,6.94,6.94,0,0,0,1-.26l-.42,2.34H58.43a3.39,3.39,0,0,0,.29-.86,6.53,6.53,0,0,0,.09-1.23v-8a6.6,6.6,0,0,0-.09-1.24,3.77,3.77,0,0,0-.29-.85H69l.38,2.47a8.65,8.65,0,0,0-.93-.32,4.39,4.39,0,0,0-1.18-.13H63.44v2.85h3.31a6.87,6.87,0,0,0,1.11-.07,8.37,8.37,0,0,0,1-.26v2.66a9.27,9.27,0,0,0-.92-.23,6.16,6.16,0,0,0-1.17-.1H63.44v3.27Z"/><path class="cls-4" d="M73.57,71.17l-.82,1.67a1.59,1.59,0,0,0-.17.72,1.64,1.64,0,0,0,0,.43,2.69,2.69,0,0,0,.23.45H69.41q.55-.7.82-1.12a9,9,0,0,0,.57-1.08L75.22,63l-.53-.68h5.49l4.33,10.49a5.71,5.71,0,0,0,1.06,1.67h-6.1a2.81,2.81,0,0,0,.21-.47,1.11,1.11,0,0,0,.06-.33,2.31,2.31,0,0,0-.17-.91l-.67-1.56Zm4.54-2L76.38,65l-1.86,4.11Z"/><path class="cls-4" d="M86.26,64.37a6.64,6.64,0,0,0-.09-1.24,3.77,3.77,0,0,0-.29-.85h9.44a3.76,3.76,0,0,1,2.71.79,3.69,3.69,0,0,1,.79,2.67V71A3.7,3.7,0,0,1,98,73.65a3.76,3.76,0,0,1-2.71.79H85.88a3.41,3.41,0,0,0,.28-.86,6.48,6.48,0,0,0,.1-1.23Zm4.64,8.06h2.41a1,1,0,0,0,.72-.17,1.39,1.39,0,0,0,.15-.82V65.28a1.4,1.4,0,0,0-.15-.81q-.15-.18-.72-.18H90.9Z"/><path class="cls-4" d="M109,76l-.89-1.56h-4.52a3,3,0,0,1-2.31-.83,4,4,0,0,1-.77-2.75v-5a4,4,0,0,1,.77-2.74,3,3,0,0,1,2.31-.84h7a3,3,0,0,1,2.31.83,4,4,0,0,1,.77,2.75v5a4,4,0,0,1-.77,2.74,3,3,0,0,1-2.31.84h-.59l.89,1.56Zm-1.24-5.36,1,1.63a.69.69,0,0,0,.27-.63V65.07q0-.78-.91-.78h-2q-.91,0-.91.78v6.57q0,.78.91.78h.91l-1-1.79Z"/><path class="cls-4" d="M124.89,72.43a2.14,2.14,0,0,0,1.18-.19q.21-.19.21-1V64.47a8.12,8.12,0,0,0-.08-1.39,2.28,2.28,0,0,0-.38-.8h2.93a2.29,2.29,0,0,0-.38.8,8.12,8.12,0,0,0-.08,1.39v6.21a4.57,4.57,0,0,1-.71,2.94,3.48,3.48,0,0,1-2.69.82h-6.16a3.24,3.24,0,0,1-2.57-.91,4.26,4.26,0,0,1-.8-2.85V64.37a6.65,6.65,0,0,0-.08-1.24,3.77,3.77,0,0,0-.29-.85h5.4a3.4,3.4,0,0,0-.29.86,6.5,6.5,0,0,0-.09,1.23v6.92a1,1,0,0,0,1.16,1.14Z"/><path class="cls-4" d="M133,71.17l-.82,1.67a1.58,1.58,0,0,0-.17.72,1.63,1.63,0,0,0,0,.43,2.74,2.74,0,0,0,.23.45h-3.44q.55-.7.82-1.12a9.1,9.1,0,0,0,.57-1.08L134.69,63l-.53-.68h5.49L144,72.77A5.73,5.73,0,0,0,145,74.44h-6.1a2.81,2.81,0,0,0,.21-.47,1.08,1.08,0,0,0,.06-.33,2.31,2.31,0,0,0-.17-.91l-.66-1.56Zm4.54-2L135.85,65,134,69.16Z"/><path class="cls-4" d="M150.37,69.16v3.19a6.67,6.67,0,0,0,.08,1.24,3.86,3.86,0,0,0,.29.85h-5.39a3.41,3.41,0,0,0,.28-.86,6.4,6.4,0,0,0,.1-1.23v-8a5.94,5.94,0,0,0-.1-1.27,2.24,2.24,0,0,0-.39-.82h10a3.86,3.86,0,0,1,2.4.6,2.52,2.52,0,0,1,.75,2.08V67.2a2,2,0,0,1-.47,1.59,2.22,2.22,0,0,1-1.39.37l1.65,3.42q.25.53.5,1.05a3.81,3.81,0,0,0,.5.81H154l-2.21-5.28Zm0-2H153a1,1,0,0,0,.61-.12q.15-.12.15-.56V65a.73.73,0,0,0-.15-.55,1,1,0,0,0-.61-.13h-2.62Z"/><path class="cls-4" d="M171.42,62.28l.38,2.47a3.89,3.89,0,0,0-.77-.34,3.32,3.32,0,0,0-1-.11H168v8.06A6.63,6.63,0,0,0,168,73.6a3.75,3.75,0,0,0,.29.85h-5.39a3.49,3.49,0,0,0,.29-.86,6.59,6.59,0,0,0,.09-1.23V64.29h-2.11a3.13,3.13,0,0,0-.94.11,4.22,4.22,0,0,0-.79.39l.38-2.51Z"/><path class="cls-4" d="M181.49,72.43a7.25,7.25,0,0,0,1.14-.07,6.93,6.93,0,0,0,.95-.26l-.42,2.34H172.44a3.41,3.41,0,0,0,.28-.86,6.4,6.4,0,0,0,.1-1.23v-8a6.64,6.64,0,0,0-.09-1.24,3.76,3.76,0,0,0-.29-.85H183l.38,2.47a8.56,8.56,0,0,0-.93-.32,4.39,4.39,0,0,0-1.18-.13h-3.78v2.85h3.3a6.86,6.86,0,0,0,1.11-.07,8.27,8.27,0,0,0,1-.26v2.66a9.31,9.31,0,0,0-.92-.23,6.17,6.17,0,0,0-1.17-.1h-3.3v3.27Z"/><path class="cls-4" d="M189.43,69.16v3.19a6.63,6.63,0,0,0,.09,1.24,3.66,3.66,0,0,0,.29.85h-5.4a3.41,3.41,0,0,0,.29-.86,6.56,6.56,0,0,0,.1-1.23v-8a5.79,5.79,0,0,0-.11-1.27,2.23,2.23,0,0,0-.39-.82h10a3.85,3.85,0,0,1,2.4.6,2.52,2.52,0,0,1,.75,2.08V67.2a2,2,0,0,1-.47,1.59,2.22,2.22,0,0,1-1.39.37l1.65,3.42.5,1.05a3.89,3.89,0,0,0,.5.81h-5.19l-2.2-5.28Zm0-2h2.62a1,1,0,0,0,.61-.12q.15-.12.15-.56V65a.73.73,0,0,0-.15-.55,1,1,0,0,0-.61-.13h-2.62Z"/><path class="cls-4" d="M211,64.75a5.69,5.69,0,0,0-.87-.34,3.73,3.73,0,0,0-1-.12h-4.31a1.75,1.75,0,0,0-.72.1q-.17.1-.17.44v.68q0,.34.17.44a1.76,1.76,0,0,0,.72.09H208a3.77,3.77,0,0,1,2.29.57,2.21,2.21,0,0,1,.75,1.88v3a3.32,3.32,0,0,1-.65,2.25,2.91,2.91,0,0,1-2.26.73h-8.36l-.4-2.36a6.26,6.26,0,0,0,.84.25,4.64,4.64,0,0,0,1,.09h4.48a1.68,1.68,0,0,0,.7-.1c.11-.06.17-.21.17-.44v-.84a.46.46,0,0,0-.17-.43,1.55,1.55,0,0,0-.7-.1h-3.78a2.77,2.77,0,0,1-2-.57,2.91,2.91,0,0,1-.57-2.07V65.17A3.11,3.11,0,0,1,200,63a2.42,2.42,0,0,1,1.9-.74h8.61Z"/></svg>