<?xml version="1.0" encoding="utf-8"?>
<!-- Generator: Adobe Illustrator 21.0.0, SVG Export Plug-In . SVG Version: 6.00 Build 0)  -->
<svg version="1.1" id="Layer_1" xmlns="http://www.w3.org/2000/svg"  x="0px" y="0px"
	 viewBox="0 0 300 89.7" style="enable-background:new 0 0 300 89.7;" xml:space="preserve">
<style type="text/css">
	.st0{fill:url(#SVGID_1_);}
	.st1{fill:url(#SVGID_2_);}
	.st2{fill:url(#SVGID_3_);}
	.st3{fill:url(#SVGID_4_);}
	.st4{fill:url(#SVGID_5_);}
	.st5{fill:url(#SVGID_6_);}
	.st6{fill:url(#SVGID_7_);}
	.st7{fill:url(#SVGID_8_);}
	.st8{fill:url(#SVGID_9_);}
	.st9{fill:url(#SVGID_10_);}
	.st10{fill:url(#SVGID_11_);}
	.st11{fill:url(#SVGID_12_);}
	.st12{fill:url(#SVGID_13_);}
	.st13{fill:url(#SVGID_14_);}
	.st14{fill:url(#SVGID_15_);}
	.st15{fill:url(#SVGID_16_);}
</style>
<linearGradient id="SVGID_1_" gradientUnits="userSpaceOnUse" x1="0" y1="44.8452" x2="299.9682" y2="44.8452">
	<stop  offset="0" style="stop-color:#F1A245"/>
	<stop  offset="0.4142" style="stop-color:#F3BD3E"/>
	<stop  offset="0.7472" style="stop-color:#F5D537"/>
	<stop  offset="1" style="stop-color:#F1B940"/>
</linearGradient>
<path class="st0" d="M22.1,89.7c-1.7-0.1-3.3-0.8-4.4-2.1L1.5,69.2c-2.1-2.4-2-6.1,0.3-8.4C42,21.6,95,0,150.9,0
	c55.2,0,107.5,21.4,147.2,60.2c2.3,2.3,2.5,6,0.3,8.4L282.2,87c-1.1,1.3-2.7,2-4.4,2.1c-0.1,0-0.1,0-0.2,0c-1.6,0-3.2-0.6-4.3-1.8
	C240.5,54.7,197,36.7,150.9,36.7c-46.8,0-91,18.2-124.4,51.2c-1.1,1.1-2.7,1.8-4.3,1.8C22.2,89.7,22.1,89.7,22.1,89.7z"/>
<linearGradient id="SVGID_2_" gradientUnits="userSpaceOnUse" x1="6.12" y1="44.8447" x2="293.8481" y2="44.8447">
	<stop  offset="0" style="stop-color:#1A1919"/>
	<stop  offset="6.521950e-02" style="stop-color:#232222"/>
	<stop  offset="0.4551" style="stop-color:#575858"/>
	<stop  offset="0.8815" style="stop-color:#292A29"/>
	<stop  offset="1" style="stop-color:#1C1C1B"/>
</linearGradient>
<path class="st1" d="M6.1,65.1c39-38.1,90.4-59,144.8-59c53.7,0,104.4,20.7,142.9,58.5L277.7,83c-34-33.8-79-52.4-126.7-52.4
	c-48.5,0-94.1,18.8-128.7,53L6.1,65.1z"/>
<g>
	<linearGradient id="SVGID_3_" gradientUnits="userSpaceOnUse" x1="12.641" y1="64.5962" x2="37.8324" y2="64.5962">
		<stop  offset="0" style="stop-color:#F1A245"/>
		<stop  offset="0.4142" style="stop-color:#F3BD3E"/>
		<stop  offset="0.7472" style="stop-color:#F5D537"/>
		<stop  offset="1" style="stop-color:#F1B940"/>
	</linearGradient>
	<path class="st2" d="M27.8,63.9l-3.7,3.1l3,3.5c0.7,0.8,1.4,1.3,2.1,1.4l-5.9,5c0-0.7-0.4-1.5-1.1-2.3l-7.6-8.9
		c-0.7-0.8-1.4-1.3-2.1-1.4l5.9-5c0,0.7,0.4,1.5,1.1,2.3l2.8,3.3l3.7-3.1l-2.8-3.3c-0.7-0.8-1.4-1.3-2.1-1.4l5.9-5
		c0,0.7,0.4,1.5,1.1,2.3l7.6,8.9c0.7,0.8,1.4,1.3,2.1,1.4l-5.9,5c0-0.7-0.4-1.5-1.1-2.3L27.8,63.9z"/>
	<linearGradient id="SVGID_4_" gradientUnits="userSpaceOnUse" x1="29.3114" y1="50.5552" x2="58.1376" y2="50.5552">
		<stop  offset="0" style="stop-color:#F1A245"/>
		<stop  offset="0.4142" style="stop-color:#F3BD3E"/>
		<stop  offset="0.7472" style="stop-color:#F5D537"/>
		<stop  offset="1" style="stop-color:#F1B940"/>
	</linearGradient>
	<path class="st3" d="M44.3,51.6l-2.6-9.7l7.1-4.7c-0.1,0.7,0.2,1.5,0.8,2.4l6.5,9.8c0.6,0.9,1.3,1.4,1.9,1.7l-6.4,4.3
		c0.1-0.7-0.2-1.5-0.8-2.4l-5.7-8.5l3.5,12.9L45,59.7l-10.6-8.2l5.7,8.5c0.6,0.9,1.3,1.4,1.9,1.7L38.6,64c0-0.7-0.2-1.5-0.8-2.4
		l-6.5-9.8c-0.6-0.9-1.3-1.4-1.9-1.7l7.1-4.7L44.3,51.6z"/>
	<linearGradient id="SVGID_5_" gradientUnits="userSpaceOnUse" x1="52.7067" y1="39.5069" x2="72.3705" y2="39.5069">
		<stop  offset="0" style="stop-color:#F1A245"/>
		<stop  offset="0.4142" style="stop-color:#F3BD3E"/>
		<stop  offset="0.7472" style="stop-color:#F5D537"/>
		<stop  offset="1" style="stop-color:#F1B940"/>
	</linearGradient>
	<path class="st4" d="M65.1,28.8l2.1,2.7c-0.8-0.1-1.4,0-2,0.3l-0.7,0.4l-5.1,2.6c-0.4,0.2-0.6,0.4-0.7,0.6
		c-0.1,0.2-0.1,0.4,0.1,0.7l0.3,0.5c0.2,0.4,0.4,0.6,0.6,0.6c0.2,0,0.5-0.1,1.1-0.3l3.7-1.9c0.9-0.5,1.6-0.8,2.1-0.9
		c0.5-0.1,0.9-0.1,1.3,0c0.8,0.2,1.5,0.9,2.1,2l2.1,4c0.5,1,0.6,2,0.2,2.8c-0.2,0.5-0.5,0.8-0.8,1.1c-0.3,0.3-0.9,0.7-1.8,1.1
		l-9.8,5.1l-2-2.7c0.5,0,1,0,1.4-0.2c0.4-0.1,1.1-0.5,2.1-1l4.3-2.2c0.5-0.3,0.8-0.4,0.9-0.5c0.1-0.1,0.1-0.2,0.1-0.4
		c0-0.1-0.1-0.3-0.2-0.5l-0.2-0.5c-0.2-0.4-0.4-0.6-0.5-0.6c-0.2-0.1-0.4,0-0.6,0.1l-4.2,2.2c-0.9,0.5-1.6,0.8-2.1,0.9
		c-0.5,0.1-0.9,0.2-1.3,0.1c-0.8-0.2-1.5-0.9-2.1-2l-2.1-4.1c-0.5-1-0.6-2-0.2-2.8c0.2-0.5,0.4-0.9,0.8-1.1c0.3-0.3,0.9-0.7,1.8-1.1
		L65.1,28.8z"/>
	<linearGradient id="SVGID_6_" gradientUnits="userSpaceOnUse" x1="80.5478" y1="26.5868" x2="101.9246" y2="26.5868">
		<stop  offset="0" style="stop-color:#F1A245"/>
		<stop  offset="0.4142" style="stop-color:#F3BD3E"/>
		<stop  offset="0.7472" style="stop-color:#F5D537"/>
		<stop  offset="1" style="stop-color:#F1B940"/>
	</linearGradient>
	<path class="st5" d="M87.9,19.8c-0.2,0.7-0.2,1.5,0.1,2.6l2.9,9c0.2,0.7,0.4,1.1,0.6,1.3c0.3,0.2,0.9,0.3,1.5,0l4.9-1.6
		c0.7-0.2,1-0.5,1.2-0.8c0.1-0.3,0.1-0.8-0.2-1.6l-2.9-9c-0.4-1-0.8-1.7-1.4-2.1l3.9-1.3c-0.2,0.7-0.2,1.5,0.1,2.6l2.9,9
		c0.3,0.8,0.4,1.5,0.4,2c0,0.5-0.1,1-0.3,1.6c-0.5,1.1-1.4,1.8-2.7,2.3l-8.6,2.7c-1.3,0.4-2.5,0.3-3.5-0.3c-0.5-0.3-0.9-0.6-1.2-1.1
		c-0.3-0.4-0.6-1-0.8-1.9l-2.9-9c-0.4-1-0.8-1.7-1.4-2.1L87.9,19.8z"/>
	<linearGradient id="SVGID_7_" gradientUnits="userSpaceOnUse" x1="100.8705" y1="22.0665" x2="122.0649" y2="22.0665">
		<stop  offset="0" style="stop-color:#F1A245"/>
		<stop  offset="0.4142" style="stop-color:#F3BD3E"/>
		<stop  offset="0.7472" style="stop-color:#F5D537"/>
		<stop  offset="1" style="stop-color:#F1B940"/>
	</linearGradient>
	<path class="st6" d="M109.7,14l9,11.7l-2.2-10.6c-0.3-1.1-0.6-1.8-1.2-2.3l4.1-0.8c-0.3,0.6-0.4,1.5-0.2,2.6l2.9,13.9l-7.9,1.6
		l-9.3-11.9l2.2,10.9c0.2,1.1,0.6,1.8,1.2,2.3l-4.1,0.8c0.3-0.7,0.4-1.5,0.2-2.6L102,18.1c-0.2-1-0.6-1.8-1.2-2.3L109.7,14z"/>
	<linearGradient id="SVGID_8_" gradientUnits="userSpaceOnUse" x1="122.5871" y1="19.0059" x2="138.4848" y2="19.0059">
		<stop  offset="0" style="stop-color:#F1A245"/>
		<stop  offset="0.4142" style="stop-color:#F3BD3E"/>
		<stop  offset="0.7472" style="stop-color:#F5D537"/>
		<stop  offset="1" style="stop-color:#F1B940"/>
	</linearGradient>
	<path class="st7" d="M136.3,10.2l0.9,3.3c-0.4-0.2-0.9-0.4-1.2-0.4c-0.4,0-1,0-1.9,0.1l-3.5,0.4c-0.5,0.1-0.8,0.1-1,0.2
		c-0.2,0.1-0.3,0.2-0.5,0.4c-0.1,0.2-0.2,0.4-0.2,0.6c0,0.2,0,0.6,0.1,1.2l0.7,7c0.1,0.8,0.3,1.3,0.6,1.5c0.3,0.2,0.9,0.3,1.8,0.2
		l3.3-0.3c1.3-0.1,2.3-0.4,3.1-0.9l-0.2,3.3l-10.2,1.1c-1.4,0.1-2.5-0.2-3.4-1c-0.4-0.4-0.7-0.8-0.9-1.3c-0.2-0.5-0.3-1.1-0.4-2
		l-0.8-7.1c-0.1-0.9-0.1-1.5,0-2c0.1-0.5,0.3-1,0.7-1.5c0.7-1,1.7-1.5,3.1-1.7L136.3,10.2z"/>
	<linearGradient id="SVGID_9_" gradientUnits="userSpaceOnUse" x1="140.1448" y1="18.1152" x2="158.4067" y2="18.1152">
		<stop  offset="0" style="stop-color:#F1A245"/>
		<stop  offset="0.4142" style="stop-color:#F3BD3E"/>
		<stop  offset="0.7472" style="stop-color:#F5D537"/>
		<stop  offset="1" style="stop-color:#F1B940"/>
	</linearGradient>
	<path class="st8" d="M144.4,9.8l9.7-0.1c0.6,0,1.3,0.1,1.9,0.4c0.6,0.2,1.1,0.6,1.5,1c0.6,0.7,0.9,1.8,1,3.4l0.1,7.1
		c0,1.6-0.3,2.8-0.9,3.4c-0.4,0.4-0.8,0.8-1.4,1c-0.6,0.2-1.2,0.4-1.9,0.4l-9.7,0.1c-0.6,0-1.3-0.1-1.9-0.4c-0.6-0.2-1.1-0.6-1.5-1
		c-0.6-0.7-0.9-1.8-1-3.4l-0.1-7.1c0-1.6,0.3-2.8,0.9-3.4c0.4-0.4,0.8-0.8,1.4-1C143.1,10,143.7,9.8,144.4,9.8z M146.5,14.5l0.1,7.3
		c0,0.7,0.1,1.2,0.2,1.5c0.3,0.3,0.7,0.5,1.4,0.5l2.2,0c0.7,0,1.1-0.1,1.3-0.4c0.2-0.2,0.3-0.8,0.3-1.6l-0.1-7.3
		c0-0.7-0.1-1.2-0.2-1.5c-0.3-0.3-0.7-0.5-1.4-0.5l-2.5,0c-0.6,0-0.9,0.1-1.1,0.4C146.6,13.2,146.5,13.7,146.5,14.5z"/>
	<linearGradient id="SVGID_10_" gradientUnits="userSpaceOnUse" x1="159.6586" y1="19.0068" x2="180.1137" y2="19.0068">
		<stop  offset="0" style="stop-color:#F1A245"/>
		<stop  offset="0.4142" style="stop-color:#F3BD3E"/>
		<stop  offset="0.7472" style="stop-color:#F5D537"/>
		<stop  offset="1" style="stop-color:#F1B940"/>
	</linearGradient>
	<path class="st9" d="M170.3,10.7l5.1,13.8l1.1-10.8c0.1-1.1-0.1-1.9-0.5-2.5l4.1,0.4c-0.5,0.5-0.8,1.3-0.9,2.4l-1.4,14.1l-8-0.8
		l-5.3-14.2l-1.1,11c-0.1,1.1,0.1,1.9,0.5,2.5l-4.1-0.4c0.5-0.5,0.8-1.3,0.9-2.4l1.2-11.7c0.1-1.1-0.1-1.9-0.4-2.5L170.3,10.7z"/>
	<linearGradient id="SVGID_11_" gradientUnits="userSpaceOnUse" x1="180.3819" y1="23.2053" x2="200.0691" y2="23.2053">
		<stop  offset="0" style="stop-color:#F1A245"/>
		<stop  offset="0.4142" style="stop-color:#F3BD3E"/>
		<stop  offset="0.7472" style="stop-color:#F5D537"/>
		<stop  offset="1" style="stop-color:#F1B940"/>
	</linearGradient>
	<path class="st10" d="M192.8,33.5l-2.4-0.5l-0.7-2.4l-5.9-1.2c-0.6-0.1-1.2-0.4-1.8-0.7c-0.5-0.4-0.9-0.8-1.2-1.3
		c-0.5-0.8-0.5-2-0.2-3.5l1.5-7c0.3-1.6,0.9-2.6,1.6-3.2c0.4-0.3,1-0.6,1.6-0.7c0.6-0.1,1.3-0.1,1.9,0l9.5,2
		c0.6,0.1,1.2,0.4,1.8,0.7c0.5,0.4,1,0.8,1.2,1.3c0.5,0.8,0.5,2,0.2,3.5l-1.5,7c-0.3,1.6-0.9,2.6-1.6,3.2c-0.4,0.3-1,0.6-1.6,0.7
		c-0.6,0.1-1.3,0.1-1.9,0l-1.1-0.2L192.8,33.5z M190.4,25.5l0.8,2.5c0.3-0.1,0.5-0.3,0.7-0.5c0.1-0.3,0.3-0.7,0.4-1.4l1.5-6.9
		c0.1-0.7,0.2-1.2,0.1-1.5c-0.2-0.4-0.6-0.6-1.3-0.8l-2.2-0.5c-0.7-0.1-1.1-0.1-1.4,0.1c-0.3,0.2-0.5,0.7-0.6,1.5l-1.5,7.1
		c-0.1,0.7-0.2,1.2-0.1,1.5c0.2,0.4,0.6,0.6,1.3,0.8l0.8,0.2L188,25L190.4,25.5z"/>
	<linearGradient id="SVGID_12_" gradientUnits="userSpaceOnUse" x1="200.3734" y1="26.8988" x2="221.811" y2="26.8988">
		<stop  offset="0" style="stop-color:#F1A245"/>
		<stop  offset="0.4142" style="stop-color:#F3BD3E"/>
		<stop  offset="0.7472" style="stop-color:#F5D537"/>
		<stop  offset="1" style="stop-color:#F1B940"/>
	</linearGradient>
	<path class="st11" d="M211.2,19.1c-0.6,0.4-1.1,1.1-1.4,2.1l-3,9c-0.2,0.7-0.3,1.2-0.3,1.4c0.1,0.4,0.5,0.7,1.2,0.9l4.9,1.6
		c0.6,0.2,1.1,0.2,1.4,0.1c0.3-0.2,0.5-0.6,0.8-1.4l3-9c0.3-1,0.3-1.9,0.1-2.6l3.9,1.3c-0.6,0.4-1.1,1.1-1.4,2.1l-2.9,9
		c-0.3,0.8-0.6,1.4-0.8,1.9c-0.3,0.4-0.7,0.8-1.2,1.1c-1,0.6-2.2,0.7-3.5,0.3l-8.5-2.8c-1.3-0.4-2.2-1.2-2.7-2.3
		c-0.2-0.5-0.3-1.1-0.3-1.6c0-0.5,0.2-1.2,0.4-2l2.9-9c0.3-1,0.3-1.9,0.1-2.6L211.2,19.1z"/>
	<linearGradient id="SVGID_13_" gradientUnits="userSpaceOnUse" x1="217.433" y1="34.2485" x2="237.5932" y2="34.2485">
		<stop  offset="0" style="stop-color:#F1A245"/>
		<stop  offset="0.4142" style="stop-color:#F3BD3E"/>
		<stop  offset="0.7472" style="stop-color:#F5D537"/>
		<stop  offset="1" style="stop-color:#F1B940"/>
	</linearGradient>
	<path class="st12" d="M229.5,28.9l-1.6,3.7l4.7,2.1c0.9,0.4,1.7,0.6,2.3,0.6l-1.4,3.3c-0.2-0.4-0.7-0.8-1.6-1.2l-5.1-2.3l-1.8,4
		l5.6,2.5c0.5,0.2,1.3,0.4,2.4,0.4l-1.8,2.8l-13.7-6.1c0.6-0.4,1.2-1,1.6-2l4.7-10.7c0.4-1,0.5-1.8,0.4-2.5l13.4,5.9l-0.8,3.1
		c-0.4-0.4-0.7-0.6-1-0.8c-0.2-0.1-0.8-0.4-1.6-0.8L229.5,28.9z"/>
	<linearGradient id="SVGID_14_" gradientUnits="userSpaceOnUse" x1="232.2826" y1="42.8711" x2="255.1211" y2="42.8711">
		<stop  offset="0" style="stop-color:#F1A245"/>
		<stop  offset="0.4142" style="stop-color:#F3BD3E"/>
		<stop  offset="0.7472" style="stop-color:#F5D537"/>
		<stop  offset="1" style="stop-color:#F1B940"/>
	</linearGradient>
	<path class="st13" d="M243.6,43.6l-1.7-1l-2.3,4c-0.5,1-0.7,1.8-0.6,2.5l-6.7-3.8c0.7-0.3,1.3-0.9,1.8-1.8l5.8-10.2
		c0.5-0.9,0.7-1.8,0.6-2.5l11.9,6.8c0.8,0.5,1.4,0.9,1.8,1.2c0.4,0.3,0.6,0.7,0.8,1.2c0.3,0.8,0.2,1.8-0.4,2.8l-1.8,3.1
		c-0.4,0.7-0.7,1.1-1.1,1.3c-0.6,0.3-1.2,0.3-1.9-0.1c-0.1-0.1-0.2-0.1-0.4-0.2l-0.4,5.3c-0.1,1-0.1,1.8,0,2.6l-6.4-3.6L243.6,43.6z
		 M243.3,40.3l3.1,1.7c0.5,0.3,0.8,0.4,1.1,0.3c0.2-0.1,0.5-0.4,0.8-0.9l0.4-0.7c0.4-0.7,0.6-1.2,0.5-1.4c0-0.2-0.4-0.5-0.9-0.9
		l-2.9-1.7L243.3,40.3z"/>
	<linearGradient id="SVGID_15_" gradientUnits="userSpaceOnUse" x1="249.3246" y1="52.729" x2="270.9194" y2="52.729">
		<stop  offset="0" style="stop-color:#F1A245"/>
		<stop  offset="0.4142" style="stop-color:#F3BD3E"/>
		<stop  offset="0.7472" style="stop-color:#F5D537"/>
		<stop  offset="1" style="stop-color:#F1B940"/>
	</linearGradient>
	<path class="st14" d="M263.1,47.9l-2.3,3.3l4.2,2.9c0.8,0.6,1.5,0.9,2.2,1.1l-2.1,2.9c-0.1-0.4-0.5-0.9-1.3-1.4l-4.6-3.2l-2.5,3.6
		l5,3.6c0.5,0.3,1.2,0.6,2.3,0.9l-2.4,2.4l-12.3-8.7c0.7-0.2,1.3-0.8,2-1.6l6.8-9.6c0.6-0.9,0.9-1.7,0.9-2.4l12,8.5l-1.4,2.8
		c-0.3-0.4-0.6-0.7-0.8-0.9c-0.2-0.2-0.7-0.5-1.4-1.1L263.1,47.9z"/>
	<linearGradient id="SVGID_16_" gradientUnits="userSpaceOnUse" x1="262.6362" y1="63.3485" x2="285.5678" y2="63.3485">
		<stop  offset="0" style="stop-color:#F1A245"/>
		<stop  offset="0.4142" style="stop-color:#F3BD3E"/>
		<stop  offset="0.7472" style="stop-color:#F5D537"/>
		<stop  offset="1" style="stop-color:#F1B940"/>
	</linearGradient>
	<path class="st15" d="M262.6,64.6c0.7-0.2,1.4-0.6,2.1-1.4l7.7-8.9c0.7-0.8,1-1.6,1.1-2.3l10.4,9c0.5,0.4,0.9,0.9,1.2,1.5
		c0.3,0.6,0.4,1.1,0.5,1.7c0,0.9-0.5,2-1.5,3.2l-4.6,5.4c-1.1,1.2-2,1.9-2.9,2c-0.5,0.1-1.1,0-1.7-0.2c-0.6-0.2-1.2-0.5-1.7-0.9
		L262.6,64.6z M269.8,67.1l2.3,2c0.5,0.4,0.9,0.6,1.3,0.6c0.3,0,0.7-0.4,1.3-1l4.7-5.5c0.5-0.5,0.7-1,0.8-1.2c0-0.4-0.2-0.9-0.8-1.3
		l-2.3-2L269.8,67.1z"/>
</g>
<g>
</g>
<g>
</g>
<g>
</g>
<g>
</g>
<g>
</g>
<g>
</g>
<g>
</g>
<g>
</g>
<g>
</g>
<g>
</g>
<g>
</g>
<g>
</g>
<g>
</g>
<g>
</g>
<g>
</g>
</svg>
