<?xml version="1.0" encoding="utf-8"?>
<!-- Generator: Adobe Illustrator 21.0.0, SVG Export Plug-In . SVG Version: 6.00 Build 0)  -->
<svg version="1.1" id="Layer_1" xmlns="http://www.w3.org/2000/svg"  x="0px" y="0px"
	 viewBox="0 0 300 89.7" style="enable-background:new 0 0 300 89.7;" xml:space="preserve">
<style type="text/css">
	.st0{fill:#FFC316;}
</style>
<g>
	<path class="st0" d="M22.1,89.7c-1.7-0.1-3.3-0.8-4.4-2.1L1.5,69.2c-2.1-2.4-2-6.1,0.3-8.4C42,21.6,95,0,150.9,0
		c55.2,0,107.5,21.4,147.2,60.2c2.3,2.3,2.5,6,0.3,8.4L282.2,87c-1.1,1.3-2.7,2-4.4,2.1c-0.1,0-0.1,0-0.2,0c-1.6,0-3.2-0.6-4.3-1.8
		C240.5,54.7,197,36.7,150.9,36.7c-46.8,0-91,18.2-124.4,51.2C25.4,89,23.8,89.7,22.1,89.7C22.2,89.7,22.1,89.7,22.1,89.7z"/>
	<path d="M6.1,65.1c39-38.1,90.4-59,144.8-59c53.7,0,104.4,20.7,142.9,58.5L277.7,83c-34-33.8-79-52.4-126.7-52.4
		c-48.5,0-94.1,18.8-128.7,53L6.1,65.1z"/>
	<path class="st0" d="M27.8,63.9L24.1,67l3,3.5c0.7,0.8,1.4,1.3,2.1,1.4l-5.9,5c0-0.7-0.4-1.5-1.1-2.3l-7.6-8.9
		c-0.7-0.8-1.4-1.3-2.1-1.4l5.9-5c0,0.7,0.4,1.5,1.1,2.3l2.8,3.3l3.7-3.1l-2.8-3.3c-0.7-0.8-1.4-1.3-2.1-1.4l5.9-5
		c0,0.7,0.4,1.5,1.1,2.3l7.6,8.9c0.7,0.8,1.4,1.3,2.1,1.4l-5.9,5c0-0.7-0.4-1.5-1.1-2.3L27.8,63.9z"/>
	<path class="st0" d="M44.3,51.6l-2.6-9.7l7.1-4.7c-0.1,0.7,0.2,1.5,0.8,2.4l6.5,9.8c0.6,0.9,1.3,1.4,1.9,1.7l-6.4,4.3
		c0.1-0.7-0.2-1.5-0.8-2.4l-5.7-8.5l3.5,12.9L45,59.7l-10.6-8.2l5.7,8.5c0.6,0.9,1.3,1.4,1.9,1.7L38.6,64c0-0.7-0.2-1.5-0.8-2.4
		l-6.5-9.8c-0.6-0.9-1.3-1.4-1.9-1.7l7.1-4.7L44.3,51.6z"/>
	<path class="st0" d="M65.1,28.8l2.1,2.7c-0.8-0.1-1.4,0-2,0.3l-0.7,0.4l-5.1,2.6c-0.4,0.2-0.6,0.4-0.7,0.6
		c-0.1,0.2-0.1,0.4,0.1,0.7l0.3,0.5c0.2,0.4,0.4,0.6,0.6,0.6c0.2,0,0.5-0.1,1.1-0.3l3.7-1.9c0.9-0.5,1.6-0.8,2.1-0.9
		c0.5-0.1,0.9-0.1,1.3,0c0.8,0.2,1.5,0.9,2.1,2l2.1,4c0.5,1,0.6,2,0.2,2.8c-0.2,0.5-0.5,0.8-0.8,1.1s-0.9,0.7-1.8,1.1l-9.8,5.1
		l-2-2.7c0.5,0,1,0,1.4-0.2c0.4-0.1,1.1-0.5,2.1-1l4.3-2.2c0.5-0.3,0.8-0.4,0.9-0.5s0.1-0.2,0.1-0.4c0-0.1-0.1-0.3-0.2-0.5l-0.2-0.5
		c-0.2-0.4-0.4-0.6-0.5-0.6c-0.2-0.1-0.4,0-0.6,0.1L61,43.9c-0.9,0.5-1.6,0.8-2.1,0.9c-0.5,0.1-0.9,0.2-1.3,0.1
		c-0.8-0.2-1.5-0.9-2.1-2l-2.1-4.1c-0.5-1-0.6-2-0.2-2.8c0.2-0.5,0.4-0.9,0.8-1.1c0.3-0.3,0.9-0.7,1.8-1.1L65.1,28.8z"/>
	<path class="st0" d="M87.9,19.8c-0.2,0.7-0.2,1.5,0.1,2.6l2.9,9c0.2,0.7,0.4,1.1,0.6,1.3c0.3,0.2,0.9,0.3,1.5,0l4.9-1.6
		c0.7-0.2,1-0.5,1.2-0.8c0.1-0.3,0.1-0.8-0.2-1.6l-2.9-9c-0.4-1-0.8-1.7-1.4-2.1l3.9-1.3c-0.2,0.7-0.2,1.5,0.1,2.6l2.9,9
		c0.3,0.8,0.4,1.5,0.4,2s-0.1,1-0.3,1.6c-0.5,1.1-1.4,1.8-2.7,2.3l-8.6,2.7c-1.3,0.4-2.5,0.3-3.5-0.3c-0.5-0.3-0.9-0.6-1.2-1.1
		c-0.3-0.4-0.6-1-0.8-1.9l-2.9-9c-0.4-1-0.8-1.7-1.4-2.1L87.9,19.8z"/>
	<path class="st0" d="M109.7,14l9,11.7l-2.2-10.6c-0.3-1.1-0.6-1.8-1.2-2.3l4.1-0.8c-0.3,0.6-0.4,1.5-0.2,2.6l2.9,13.9l-7.9,1.6
		l-9.3-11.9l2.2,10.9c0.2,1.1,0.6,1.8,1.2,2.3l-4.1,0.8c0.3-0.7,0.4-1.5,0.2-2.6L102,18.1c-0.2-1-0.6-1.8-1.2-2.3L109.7,14z"/>
	<path class="st0" d="M136.3,10.2l0.9,3.3c-0.4-0.2-0.9-0.4-1.2-0.4c-0.4,0-1,0-1.9,0.1l-3.5,0.4c-0.5,0.1-0.8,0.1-1,0.2
		c-0.2,0.1-0.3,0.2-0.5,0.4c-0.1,0.2-0.2,0.4-0.2,0.6c0,0.2,0,0.6,0.1,1.2l0.7,7c0.1,0.8,0.3,1.3,0.6,1.5s0.9,0.3,1.8,0.2l3.3-0.3
		c1.3-0.1,2.3-0.4,3.1-0.9l-0.2,3.3l-10.2,1.1c-1.4,0.1-2.5-0.2-3.4-1c-0.4-0.4-0.7-0.8-0.9-1.3c-0.2-0.5-0.3-1.1-0.4-2l-0.8-7.1
		c-0.1-0.9-0.1-1.5,0-2s0.3-1,0.7-1.5c0.7-1,1.7-1.5,3.1-1.7L136.3,10.2z"/>
	<path class="st0" d="M144.4,9.8l9.7-0.1c0.6,0,1.3,0.1,1.9,0.4c0.6,0.2,1.1,0.6,1.5,1c0.6,0.7,0.9,1.8,1,3.4l0.1,7.1
		c0,1.6-0.3,2.8-0.9,3.4c-0.4,0.4-0.8,0.8-1.4,1c-0.6,0.2-1.2,0.4-1.9,0.4l-9.7,0.1c-0.6,0-1.3-0.1-1.9-0.4c-0.6-0.2-1.1-0.6-1.5-1
		c-0.6-0.7-0.9-1.8-1-3.4l-0.1-7.1c0-1.6,0.3-2.8,0.9-3.4c0.4-0.4,0.8-0.8,1.4-1C143.1,10,143.7,9.8,144.4,9.8z M146.5,14.5l0.1,7.3
		c0,0.7,0.1,1.2,0.2,1.5c0.3,0.3,0.7,0.5,1.4,0.5h2.2c0.7,0,1.1-0.1,1.3-0.4c0.2-0.2,0.3-0.8,0.3-1.6l-0.1-7.3
		c0-0.7-0.1-1.2-0.2-1.5c-0.3-0.3-0.7-0.5-1.4-0.5h-2.5c-0.6,0-0.9,0.1-1.1,0.4C146.6,13.2,146.5,13.7,146.5,14.5z"/>
	<path class="st0" d="M170.3,10.7l5.1,13.8l1.1-10.8c0.1-1.1-0.1-1.9-0.5-2.5l4.1,0.4c-0.5,0.5-0.8,1.3-0.9,2.4l-1.4,14.1l-8-0.8
		l-5.3-14.2l-1.1,11c-0.1,1.1,0.1,1.9,0.5,2.5l-4.1-0.4c0.5-0.5,0.8-1.3,0.9-2.4l1.2-11.7c0.1-1.1-0.1-1.9-0.4-2.5L170.3,10.7z"/>
	<path class="st0" d="M192.8,33.5l-2.4-0.5l-0.7-2.4l-5.9-1.2c-0.6-0.1-1.2-0.4-1.8-0.7c-0.5-0.4-0.9-0.8-1.2-1.3
		c-0.5-0.8-0.5-2-0.2-3.5l1.5-7c0.3-1.6,0.9-2.6,1.6-3.2c0.4-0.3,1-0.6,1.6-0.7c0.6-0.1,1.3-0.1,1.9,0l9.5,2
		c0.6,0.1,1.2,0.4,1.8,0.7c0.5,0.4,1,0.8,1.2,1.3c0.5,0.8,0.5,2,0.2,3.5l-1.5,7c-0.3,1.6-0.9,2.6-1.6,3.2c-0.4,0.3-1,0.6-1.6,0.7
		s-1.3,0.1-1.9,0l-1.1-0.2L192.8,33.5z M190.4,25.5l0.8,2.5c0.3-0.1,0.5-0.3,0.7-0.5c0.1-0.3,0.3-0.7,0.4-1.4l1.5-6.9
		c0.1-0.7,0.2-1.2,0.1-1.5c-0.2-0.4-0.6-0.6-1.3-0.8l-2.2-0.5c-0.7-0.1-1.1-0.1-1.4,0.1c-0.3,0.2-0.5,0.7-0.6,1.5l-1.5,7.1
		c-0.1,0.7-0.2,1.2-0.1,1.5c0.2,0.4,0.6,0.6,1.3,0.8l0.8,0.2L188,25L190.4,25.5z"/>
	<path class="st0" d="M211.2,19.1c-0.6,0.4-1.1,1.1-1.4,2.1l-3,9c-0.2,0.7-0.3,1.2-0.3,1.4c0.1,0.4,0.5,0.7,1.2,0.9l4.9,1.6
		c0.6,0.2,1.1,0.2,1.4,0.1c0.3-0.2,0.5-0.6,0.8-1.4l3-9c0.3-1,0.3-1.9,0.1-2.6l3.9,1.3c-0.6,0.4-1.1,1.1-1.4,2.1l-2.9,9
		c-0.3,0.8-0.6,1.4-0.8,1.9c-0.3,0.4-0.7,0.8-1.2,1.1c-1,0.6-2.2,0.7-3.5,0.3l-8.5-2.8c-1.3-0.4-2.2-1.2-2.7-2.3
		c-0.2-0.5-0.3-1.1-0.3-1.6s0.2-1.2,0.4-2l2.9-9c0.3-1,0.3-1.9,0.1-2.6L211.2,19.1z"/>
	<path class="st0" d="M229.5,28.9l-1.6,3.7l4.7,2.1c0.9,0.4,1.7,0.6,2.3,0.6l-1.4,3.3c-0.2-0.4-0.7-0.8-1.6-1.2l-5.1-2.3l-1.8,4
		l5.6,2.5c0.5,0.2,1.3,0.4,2.4,0.4l-1.8,2.8l-13.7-6.1c0.6-0.4,1.2-1,1.6-2l4.7-10.7c0.4-1,0.5-1.8,0.4-2.5l13.4,5.9l-0.8,3.1
		c-0.4-0.4-0.7-0.6-1-0.8c-0.2-0.1-0.8-0.4-1.6-0.8L229.5,28.9z"/>
	<path class="st0" d="M243.6,43.6l-1.7-1l-2.3,4c-0.5,1-0.7,1.8-0.6,2.5l-6.7-3.8c0.7-0.3,1.3-0.9,1.8-1.8l5.8-10.2
		c0.5-0.9,0.7-1.8,0.6-2.5l11.9,6.8c0.8,0.5,1.4,0.9,1.8,1.2c0.4,0.3,0.6,0.7,0.8,1.2c0.3,0.8,0.2,1.8-0.4,2.8l-1.8,3.1
		c-0.4,0.7-0.7,1.1-1.1,1.3c-0.6,0.3-1.2,0.3-1.9-0.1c-0.1-0.1-0.2-0.1-0.4-0.2l-0.4,5.3c-0.1,1-0.1,1.8,0,2.6l-6.4-3.6L243.6,43.6z
		 M243.3,40.3l3.1,1.7c0.5,0.3,0.8,0.4,1.1,0.3c0.2-0.1,0.5-0.4,0.8-0.9l0.4-0.7c0.4-0.7,0.6-1.2,0.5-1.4c0-0.2-0.4-0.5-0.9-0.9
		l-2.9-1.7L243.3,40.3z"/>
	<path class="st0" d="M263.1,47.9l-2.3,3.3l4.2,2.9c0.8,0.6,1.5,0.9,2.2,1.1l-2.1,2.9c-0.1-0.4-0.5-0.9-1.3-1.4l-4.6-3.2l-2.5,3.6
		l5,3.6c0.5,0.3,1.2,0.6,2.3,0.9l-2.4,2.4l-12.3-8.7c0.7-0.2,1.3-0.8,2-1.6l6.8-9.6c0.6-0.9,0.9-1.7,0.9-2.4l12,8.5l-1.4,2.8
		c-0.3-0.4-0.6-0.7-0.8-0.9c-0.2-0.2-0.7-0.5-1.4-1.1L263.1,47.9z"/>
	<path class="st0" d="M262.6,64.6c0.7-0.2,1.4-0.6,2.1-1.4l7.7-8.9c0.7-0.8,1-1.6,1.1-2.3l10.4,9c0.5,0.4,0.9,0.9,1.2,1.5
		c0.3,0.6,0.4,1.1,0.5,1.7c0,0.9-0.5,2-1.5,3.2l-4.6,5.4c-1.1,1.2-2,1.9-2.9,2c-0.5,0.1-1.1,0-1.7-0.2s-1.2-0.5-1.7-0.9L262.6,64.6z
		 M269.8,67.1l2.3,2c0.5,0.4,0.9,0.6,1.3,0.6c0.3,0,0.7-0.4,1.3-1l4.7-5.5c0.5-0.5,0.7-1,0.8-1.2c0-0.4-0.2-0.9-0.8-1.3l-2.3-2
		L269.8,67.1z"/>
</g>
</svg>
