<svg id="Layer_1" data-name="Layer 1" xmlns="http://www.w3.org/2000/svg" viewBox="0 0 254.53 111.25"><defs><style>.cls-1{opacity:0.5;}.cls-2{fill:#fff200;}.cls-3{fill:none;stroke:#231f20;}.cls-4{fill:#ffc51b;}</style></defs><title>21</title><g class="cls-1"><path class="cls-2" d="M7.2,57.33a171.41,171.41,0,0,1,121-50.13A167.4,167.4,0,0,1,247.33,56.73L222.81,84.59H31.11ZM94.36,5.09a177,177,0,0,0-91,48.41,5.4,5.4,0,0,0-.25,7.39L27.05,88.15A5.4,5.4,0,0,0,31.11,90h191.7a5.39,5.39,0,0,0,4.05-1.83l24.52-27.86a5.39,5.39,0,0,0-.24-7.38A172.77,172.77,0,0,0,128.25,1.8,176.66,176.66,0,0,0,94.36,5.09"/></g><path class="cls-3" d="M7.2,57.33a171.42,171.42,0,0,1,121-50.13A167.4,167.4,0,0,1,247.33,56.73"/><path class="cls-4" d="M85.21,111.25a7.2,7.2,0,0,1-5.09-2.11L62.76,91.79H31.11a7.2,7.2,0,0,1-5.41-2.45L1.79,62.08a7.2,7.2,0,0,1,.33-9.85A177.55,177.55,0,0,1,128.25,0,174.55,174.55,0,0,1,252.42,51.64a7.2,7.2,0,0,1,.31,9.85L228.22,89.34a7.2,7.2,0,0,1-5.41,2.44H188.24l-17.36,17.36a7.2,7.2,0,0,1-5.09,2.11Z"/><path d="M247.33,56.73A167.4,167.4,0,0,0,128.25,7.2,171.42,171.42,0,0,0,7.2,57.33L31.11,84.59H65.75l19.47,19.47h80.58l19.47-19.47h37.55Z"/><path class="cls-4" d="M38.48,41.33l3,3a6.42,6.42,0,0,0-1.39.3,5.63,5.63,0,0,0-1.42.8l-2.87,2.1,8,10.94a11.21,11.21,0,0,0,1.35,1.61,6.3,6.3,0,0,0,1.24.86l-7.33,5.37a5.74,5.74,0,0,0-.46-1.45,11,11,0,0,0-1.1-1.77l-8-10.94-2.87,2.1a5.33,5.33,0,0,0-1.17,1.08,7.09,7.09,0,0,0-.68,1.31l-2-3.79Z"/><path class="cls-4" d="M52.78,50.22l.12,3.13a2.68,2.68,0,0,0,.32,1.21,2.77,2.77,0,0,0,.4.6,4.44,4.44,0,0,0,.69.48l-5.1,2.75q.26-1.48.32-2.32a15.21,15.21,0,0,0,0-2.06l-.84-17.28-1.33-.59,8.14-4.38,14.8,12.1a9.61,9.61,0,0,0,2.91,1.63l-9,4.87a5,5,0,0,0-.06-.86,1.89,1.89,0,0,0-.18-.54,3.86,3.86,0,0,0-1-1.22L60.7,46Zm5.13-6.61-5.86-4.72.53,7.59Z"/><path class="cls-4" d="M85.56,24.1a9.65,9.65,0,0,0-1.58,0,6.25,6.25,0,0,0-1.67.38l-6.84,2.43a2.94,2.94,0,0,0-1.09.56q-.22.25,0,.79l.39,1.08c.13.36.3.56.52.6a2.92,2.92,0,0,0,1.2-.26l5.22-1.85a6.36,6.36,0,0,1,4-.39A3.73,3.73,0,0,1,87.88,30l1.67,4.7a5.61,5.61,0,0,1,.25,3.94q-.61,1.53-3.17,2.44L73.36,45.76l-2-3.51a10.65,10.65,0,0,0,1.47-.08,7.77,7.77,0,0,0,1.62-.41l7.12-2.53a2.84,2.84,0,0,0,1.06-.55q.22-.25,0-.79l-.47-1.33c-.12-.34-.29-.54-.51-.58a2.6,2.6,0,0,0-1.17.23l-6,2.13a4.68,4.68,0,0,1-3.49.22,4.9,4.9,0,0,1-2.07-3l-1.53-4.31a5.25,5.25,0,0,1-.16-3.78,4.08,4.08,0,0,1,2.6-2.25l13.66-4.86Z"/><path class="cls-4" d="M112.46,31q1,1.09,1.87,2a17.74,17.74,0,0,0,1.83,1.58l-9.44,1.77-6.1-7.68L99.19,31l.57,3a11.12,11.12,0,0,0,.53,2,6.27,6.27,0,0,0,.75,1.31L92.1,39a5.73,5.73,0,0,0,.21-1.5,11,11,0,0,0-.23-2.07L89.6,22.24a11.17,11.17,0,0,0-.53-2,6.32,6.32,0,0,0-.75-1.31l8.93-1.67a5.69,5.69,0,0,0-.21,1.5,10.94,10.94,0,0,0,.23,2.07l1,5.57,4.11-7.09a5.74,5.74,0,0,0,.63-1.35,2.34,2.34,0,0,0,0-1l-.14-.75,7-1.3A15.83,15.83,0,0,0,108.68,16a9.28,9.28,0,0,0-1,1.37l-3,4.66Z"/><path class="cls-4" d="M134.89,31.25a11.17,11.17,0,0,0,0,2.1,6.31,6.31,0,0,0,.42,1.45l-9.07-.47a5.72,5.72,0,0,0,.55-1.41,11,11,0,0,0,.27-2.07l.69-13.42a11.09,11.09,0,0,0,0-2.1,6.33,6.33,0,0,0-.42-1.45l17.7.91.39,4.19a9.15,9.15,0,0,0-1.49-.62,7.81,7.81,0,0,0-2-.33l-6.36-.33-.25,4.79,5.56.29a11.41,11.41,0,0,0,1.88,0,14.11,14.11,0,0,0,1.67-.35l-.23,4.47a15.65,15.65,0,0,0-1.53-.46,10.5,10.5,0,0,0-2-.26l-5.56-.29Z"/><path class="cls-4" d="M147.54,21q.66-3.13,2.21-4.24a5,5,0,0,1,4.09-.58l11.46,2.4a5.06,5.06,0,0,1,3.52,2.16q1,1.63.32,4.79l-1.73,8.27q-.66,3.13-2.21,4.24a5,5,0,0,1-4.09.58l-11.46-2.4a5.06,5.06,0,0,1-3.52-2.16q-1-1.63-.32-4.79Zm5.64,11.15q-.27,1.28,1.23,1.6l3.32.7q1.5.31,1.77-1l2.27-10.84q.27-1.28-1.23-1.6l-3.32-.7q-1.5-.31-1.77,1Z"/><path class="cls-4" d="M178.15,34.74l-2,5a11.13,11.13,0,0,0-.63,2,6.27,6.27,0,0,0-.06,1.51L167,39.94a5.72,5.72,0,0,0,1-1.17,11.07,11.07,0,0,0,.91-1.88l4.9-12.51a9.85,9.85,0,0,0,.62-2.06,3.74,3.74,0,0,0-.11-1.52L190,26.94a6.5,6.5,0,0,1,3.4,2.42,4.25,4.25,0,0,1-.1,3.72l-1.38,3.52q-.75,1.91-1.72,2.2a3.74,3.74,0,0,1-2.4-.27l.49,6.38q.06,1,.14,2a6.44,6.44,0,0,0,.29,1.58l-8.13-3.19-.21-9.64Zm1.24-3.16,4.11,1.61a1.74,1.74,0,0,0,1,.18q.31-.1.58-.79l.91-2.32a1.24,1.24,0,0,0,.1-1,1.65,1.65,0,0,0-.87-.58l-4.11-1.61Z"/><path class="cls-4" d="M212.78,43.55a9.13,9.13,0,0,0-1-1.19,6.15,6.15,0,0,0-1.39-1l-4.87-2.76q-1.34-.76-2,.38l-5.46,9.63q-.65,1.14.69,1.9l3.84,2.18A19.55,19.55,0,0,0,205.33,54a6.84,6.84,0,0,0,1.78.29l-2.63,3.29-11-6.21a5.06,5.06,0,0,1-2.7-3.13q-.44-1.85,1.15-4.66l4.16-7.35q1.58-2.78,3.4-3.37a5,5,0,0,1,4.08.69l10.69,6.06Z"/><path class="cls-4" d="M219.28,64.28a12.07,12.07,0,0,0,1.61,1,11.5,11.5,0,0,0,1.54.6l-2.9,2.75L205,58a5.72,5.72,0,0,0,1.24-.87,10.92,10.92,0,0,0,1.36-1.58l8-10.82a11.13,11.13,0,0,0,1.13-1.77,6.41,6.41,0,0,0,.45-1.44L231.43,52l-2,3.73a14.5,14.5,0,0,0-.94-1.37A7.44,7.44,0,0,0,227.07,53l-5.12-3.78L219.1,53.1l4.48,3.31a11.49,11.49,0,0,0,1.57,1,14.14,14.14,0,0,0,1.58.63l-2.66,3.61q-.46-.62-1-1.23a10.47,10.47,0,0,0-1.49-1.3l-4.48-3.3-3.27,4.43Z"/><path class="cls-4" d="M125.23,89.74a15.82,15.82,0,0,0,3.38-.26,32.15,32.15,0,0,0,3.54-1.2l-1.2,7H97.51V80.44q0-4.06,1.48-5.54t5-1.48l13.52-.73a2.21,2.21,0,0,0,1.56-.42,1.94,1.94,0,0,0,.42-1.4V69a1.34,1.34,0,0,0-.55-1.17,3.4,3.4,0,0,0-1.9-.39H102.45a10.86,10.86,0,0,0-5.2,1.2L98.34,62h24.54q5.25,0,7,1.85t1.79,5.75v6.66q0,3.74-1.64,5.17t-5.8,1.43l-12.58.62q-1,0-1.27.75a4.82,4.82,0,0,0-.23,1.43v4.11Z"/><path class="cls-4" d="M153.1,90.68a10.09,10.09,0,0,0,.29,2.73,6.3,6.3,0,0,0,.91,1.85h-15a5.56,5.56,0,0,0,.86-1.8,10.74,10.74,0,0,0,.29-2.79V72.06h-4.73V66.19l14-4.21h3.38Z"/></svg>