<svg id="Layer_1" data-name="Layer 1" xmlns="http://www.w3.org/2000/svg" viewBox="0 0 250.93 88.19"><defs><style>.cls-1{fill:#231f20;}.cls-2{fill:#ffc418;}.cls-3{fill:none;stroke:#231f20;}</style></defs><title>SS-01</title><path class="cls-1" d="M5.4,55.53a171.41,171.41,0,0,1,121-50.13A167.4,167.4,0,0,1,245.53,54.93L221,82.78H29.31Z"/><path class="cls-2" d="M5.4,55.53a171.41,171.41,0,0,1,121-50.13A167.4,167.4,0,0,1,245.53,54.92L221,82.78H29.31ZM92.56,3.29a177,177,0,0,0-91,48.41,5.4,5.4,0,0,0-.25,7.39L25.25,86.35a5.4,5.4,0,0,0,4.06,1.84H221a5.39,5.39,0,0,0,4.05-1.83l24.52-27.86a5.39,5.39,0,0,0-.24-7.38A172.77,172.77,0,0,0,126.45,0,176.66,176.66,0,0,0,92.56,3.29"/><path class="cls-3" d="M5.4,55.53a171.42,171.42,0,0,1,121-50.13A167.4,167.4,0,0,1,245.53,54.93"/><path class="cls-2" d="M30,53.16l-2.1-2.62a8,8,0,0,0-1-1.11,4.55,4.55,0,0,0-.92-.57L31,44.77a4.12,4.12,0,0,0,.38,1A7.89,7.89,0,0,0,32.26,47l6.06,7.53a8,8,0,0,0,1,1.11,4.53,4.53,0,0,0,.92.57l-5.09,4.09a4.14,4.14,0,0,0-.38-1,7.9,7.9,0,0,0-.85-1.24l-2.42-3-3.26,2.62,2.42,3a8,8,0,0,0,1,1.11,4.51,4.51,0,0,0,.92.57l-5.09,4.09a4.12,4.12,0,0,0-.38-1,7.94,7.94,0,0,0-.85-1.24l-6.06-7.53a8,8,0,0,0-1-1.11,4.51,4.51,0,0,0-.92-.57l5.09-4.09a4.1,4.1,0,0,0,.38,1,7.85,7.85,0,0,0,.85,1.24l2.1,2.62Z"/><path class="cls-2" d="M44.48,36.19l6.42-3.92a4.49,4.49,0,0,0,.22,1,7.07,7.07,0,0,0,.68,1.36l5,8.24a8,8,0,0,0,.88,1.24,4.06,4.06,0,0,0,.85.67L53,48.25a4.12,4.12,0,0,0-.25-1.06,7.9,7.9,0,0,0-.68-1.33l-4.72-7.73,2.53,12-3.32,2-9.49-7.95L41.74,52a10.11,10.11,0,0,0,1,1.4,2.79,2.79,0,0,0,.9.59l-3,1.85a2.74,2.74,0,0,0-.11-1.06,9.89,9.89,0,0,0-.8-1.48l-4.92-8a9.83,9.83,0,0,0-1-1.38,2.74,2.74,0,0,0-.9-.58l6.59-4,6.74,5.66Z"/><path class="cls-2" d="M67.25,28.23a6.94,6.94,0,0,0-1.13.06,4.54,4.54,0,0,0-1.17.37l-4.76,2.15a2.12,2.12,0,0,0-.75.46q-.14.19,0,.57l.34.75q.17.38.41.4a2.1,2.1,0,0,0,.84-.25l3.63-1.64a4.57,4.57,0,0,1,2.81-.51,2.68,2.68,0,0,1,1.77,1.7l1.47,3.27a4,4,0,0,1,.41,2.81A3.52,3.52,0,0,1,69,40.31l-9.22,4.16-1.61-2.4a7.41,7.41,0,0,0,1-.14,5.56,5.56,0,0,0,1.14-.39l4.95-2.23a2,2,0,0,0,.73-.46c.1-.13.09-.32,0-.57l-.42-.92c-.11-.24-.24-.37-.4-.39a1.88,1.88,0,0,0-.83.24l-4.17,1.88a3.37,3.37,0,0,1-2.48.36,3.53,3.53,0,0,1-1.66-2l-1.35-3a3.77,3.77,0,0,1-.33-2.7A2.93,2.93,0,0,1,56.09,30l9.5-4.28Z"/><path class="cls-2" d="M82.82,22.94a6.83,6.83,0,0,0-1.13-.05,4.52,4.52,0,0,0-1.2.25l-5,1.64a2.11,2.11,0,0,0-.79.38q-.16.17,0,.57l.26.79c.09.26.21.41.36.44a2.1,2.1,0,0,0,.87-.17L80,25.53a4.58,4.58,0,0,1,2.85-.22,2.68,2.68,0,0,1,1.58,1.88l1.13,3.41a4,4,0,0,1,.11,2.83,3.52,3.52,0,0,1-2.32,1.7l-9.61,3.18-1.35-2.56a7.4,7.4,0,0,0,1.06,0,5.6,5.6,0,0,0,1.17-.27l5.15-1.71a2,2,0,0,0,.77-.38q.16-.17,0-.57l-.32-1c-.08-.25-.2-.39-.36-.43a1.86,1.86,0,0,0-.85.15L74.67,33a3.37,3.37,0,0,1-2.51.1,3.53,3.53,0,0,1-1.44-2.16l-1-3.12a3.77,3.77,0,0,1-.05-2.72,2.93,2.93,0,0,1,1.9-1.57l9.89-3.27Z"/><path class="cls-2" d="M110,20.6a5.17,5.17,0,0,0-.39,1.2,4.41,4.41,0,0,0,.07,1.18l.56,3.59a10.93,10.93,0,0,0,.38,1.79,3.45,3.45,0,0,0,.67,1l-4.89.77L106,28.79a2.4,2.4,0,0,1-.47,1.15,2.45,2.45,0,0,1-1.38.52l-4.91.77a3.64,3.64,0,0,1-2.92-.55,4.81,4.81,0,0,1-1.44-3.14l-.94-6a4.82,4.82,0,0,1,.41-3.42A3.61,3.61,0,0,1,97,16.69L107.63,15l.9,2.89a6.42,6.42,0,0,0-1.07-.24,4.42,4.42,0,0,0-1.24,0l-5.88.93q-1.09.17-.94,1.1l1.24,7.86q.15.93,1.24.76l1.86-.29q1.09-.17.94-1.1l-.47-3-2.07.33a1.43,1.43,0,0,0-.54.19l-.35.23L100.82,22Z"/><path class="cls-2" d="M117.46,22.65l.17,3.86a7.91,7.91,0,0,0,.17,1.5,4.51,4.51,0,0,0,.4,1l-6.53.29a4.11,4.11,0,0,0,.3-1,7.86,7.86,0,0,0,0-1.5l-.42-9.65a7.06,7.06,0,0,0-.19-1.53,2.68,2.68,0,0,0-.51-1L123,14.07a4.67,4.67,0,0,1,2.94.6,3.05,3.05,0,0,1,1,2.48l.12,2.71a2.4,2.4,0,0,1-.49,1.94,2.69,2.69,0,0,1-1.66.52l2.18,4q.33.63.67,1.25a4.67,4.67,0,0,0,.65,1l-6.27.28-2.95-6.27Zm-.11-2.44,3.17-.14a1.24,1.24,0,0,0,.73-.18q.18-.16.15-.69l-.08-1.79a.89.89,0,0,0-.21-.66,1.17,1.17,0,0,0-.74-.13l-3.17.14Z"/><path class="cls-2" d="M139.65,26.88a8.71,8.71,0,0,0,1.38,0,8.18,8.18,0,0,0,1.17-.24l-.67,2.79-13-.76a4.12,4.12,0,0,0,.41-1,7.93,7.93,0,0,0,.2-1.49l.57-9.64a8,8,0,0,0,0-1.51,4.52,4.52,0,0,0-.3-1l12.72.75.28,3a10.43,10.43,0,0,0-1.1-.46,5.35,5.35,0,0,0-1.41-.25l-4.57-.27-.2,3.44,4,.23a8.23,8.23,0,0,0,1.35,0,10.36,10.36,0,0,0,1.2-.24l-.19,3.21q-.52-.19-1.1-.34a7.53,7.53,0,0,0-1.41-.2l-4-.23-.23,3.95Z"/><path class="cls-2" d="M153.32,28.75a8.68,8.68,0,0,0,1.38.13,8.35,8.35,0,0,0,1.18-.13L155,31.46l-12.82-2a4.12,4.12,0,0,0,.5-1,7.94,7.94,0,0,0,.34-1.46l1.46-9.55a8,8,0,0,0,.13-1.5,4.5,4.5,0,0,0-.2-1.07L157,16.88v3a10.24,10.24,0,0,0-1.05-.56,5.33,5.33,0,0,0-1.38-.38L150,18.28l-.52,3.41,4,.61a8.35,8.35,0,0,0,1.34.12,10.14,10.14,0,0,0,1.22-.13l-.49,3.18q-.5-.24-1.06-.44a7.52,7.52,0,0,0-1.38-.33l-4-.61L148.5,28Z"/><path class="cls-2" d="M161.49,20.45,159,29.66a9.91,9.91,0,0,0-.34,1.65,2.72,2.72,0,0,0,.2,1.05l-3.42-.91a2.73,2.73,0,0,0,.69-.82,9.79,9.79,0,0,0,.52-1.6l2.42-9.11a9.89,9.89,0,0,0,.34-1.65,2.75,2.75,0,0,0-.2-1.05l7.63,2,2.7,13.14,2.47-9a9.78,9.78,0,0,0,.34-1.65,2.75,2.75,0,0,0-.2-1.05l3.42.91a2.74,2.74,0,0,0-.69.82,9.89,9.89,0,0,0-.52,1.6l-3.1,11.67-7-1.87Z"/><path class="cls-2" d="M185.86,30.92l-6,8.07-4.94-2.07,1.91-13.09a4.57,4.57,0,0,0,0-1.13,8.22,8.22,0,0,0-.17-1l6.15,2.57a3.08,3.08,0,0,0-.32.38,2.73,2.73,0,0,0-.22.44,6.87,6.87,0,0,0-.25.66,7.17,7.17,0,0,0-.14.75l-1.16,7.19,5.83-7.86L191.77,28l-1.44,9.7,4.33-5.86c.12-.17.25-.37.4-.62a5.68,5.68,0,0,0,.33-.65,3.23,3.23,0,0,0,.19-.54,1.36,1.36,0,0,0,0-.43L198.85,31a4.45,4.45,0,0,0-1,.67,6.16,6.16,0,0,0-.86,1L189.42,43l-5-2.09Z"/><path class="cls-2" d="M192.75,44.84a4.13,4.13,0,0,0,.8-.74,7.89,7.89,0,0,0,.82-1.26L199,34.37a8.06,8.06,0,0,0,.63-1.37,4.55,4.55,0,0,0,.18-1.07l5.73,3.14a4.12,4.12,0,0,0-.8.74,7.83,7.83,0,0,0-.82,1.26l-4.64,8.47a8,8,0,0,0-.63,1.37,4.54,4.54,0,0,0-.18,1.07Z"/><path class="cls-2" d="M217,45.83a6.58,6.58,0,0,0-.64-.9,4.37,4.37,0,0,0-1-.79L212,41.94q-.93-.6-1.44.19l-4.33,6.68q-.51.79.41,1.39l2.66,1.73A13.94,13.94,0,0,0,211.21,53a4.89,4.89,0,0,0,1.27.29l-2,2.25-7.6-4.93a3.64,3.64,0,0,1-1.8-2.36,4.81,4.81,0,0,1,1-3.29l3.31-5.09A4.82,4.82,0,0,1,208,37.6a3.62,3.62,0,0,1,2.89.67l7.41,4.81Z"/><path class="cls-2" d="M224.43,55.37l2.11-2.61a8,8,0,0,0,.87-1.24,4.52,4.52,0,0,0,.37-1l5.08,4.11a4.11,4.11,0,0,0-.92.59,7.92,7.92,0,0,0-1,1.09l-6.07,7.51A7.91,7.91,0,0,0,224,65a4.46,4.46,0,0,0-.37,1l-5.08-4.11a4.08,4.08,0,0,0,.92-.59,7.9,7.9,0,0,0,1-1.09l2.43-3-3.26-2.63-2.43,3a8,8,0,0,0-.87,1.24,4.56,4.56,0,0,0-.37,1l-5.08-4.11a4.1,4.1,0,0,0,.92-.59,7.92,7.92,0,0,0,1-1.09l6.07-7.51a8,8,0,0,0,.87-1.24,4.56,4.56,0,0,0,.37-1l5.08,4.11a4.1,4.1,0,0,0-.92.59,7.81,7.81,0,0,0-1,1.09l-2.11,2.61Z"/><path class="cls-2" d="M99.76,58.63a9.24,9.24,0,0,0-1.43-.55,6,6,0,0,0-1.64-.2h-7a2.87,2.87,0,0,0-1.18.15c-.19.1-.28.34-.28.71v1.12c0,.37.09.61.28.71a2.83,2.83,0,0,0,1.18.16H95a6.16,6.16,0,0,1,3.74.93A3.61,3.61,0,0,1,100,64.74v4.84a5.44,5.44,0,0,1-1.05,3.67q-1.05,1.19-3.69,1.19H81.6l-.65-3.84a10.13,10.13,0,0,0,1.36.41,7.48,7.48,0,0,0,1.61.15h7.32A2.73,2.73,0,0,0,92.38,71c.19-.1.28-.34.28-.71V68.92a.76.76,0,0,0-.28-.7,2.53,2.53,0,0,0-1.15-.17H85.07a4.54,4.54,0,0,1-3.25-.93,4.75,4.75,0,0,1-.93-3.38V59.31A5.08,5.08,0,0,1,82,55.81a4,4,0,0,1,3.1-1.21h14Z"/><path class="cls-2" d="M121.59,58.63a9.24,9.24,0,0,0-1.43-.55,6,6,0,0,0-1.64-.2h-7a2.87,2.87,0,0,0-1.18.15c-.19.1-.28.34-.28.71v1.12c0,.37.09.61.28.71a2.83,2.83,0,0,0,1.18.16h5.36a6.16,6.16,0,0,1,3.74.93,3.61,3.61,0,0,1,1.22,3.07v4.84a5.44,5.44,0,0,1-1.05,3.67q-1.05,1.19-3.69,1.19H103.42l-.65-3.84a10.13,10.13,0,0,0,1.36.41,7.48,7.48,0,0,0,1.61.15h7.32a2.73,2.73,0,0,0,1.15-.16c.19-.1.28-.34.28-.71V68.92a.76.76,0,0,0-.28-.7,2.53,2.53,0,0,0-1.15-.17h-6.17a4.54,4.54,0,0,1-3.25-.93,4.75,4.75,0,0,1-.93-3.38V59.31a5.08,5.08,0,0,1,1.08-3.5,4,4,0,0,1,3.1-1.21h14Z"/><path class="cls-2" d="M124.31,64.55h10.91v5.21H124.31Z"/><path class="cls-2" d="M154.11,54.6a4.9,4.9,0,0,1,3.77,1.35q1.26,1.35,1.26,4.48v8.18q0,3.1-1.26,4.46a4.87,4.87,0,0,1-3.77,1.36H142.76A4.9,4.9,0,0,1,139,73.09q-1.26-1.35-1.26-4.48V60.43q0-3.1,1.26-4.46a4.87,4.87,0,0,1,3.77-1.36Zm-7.32,3.29q-1.49,0-1.49,1.27V69.88q0,1.27,1.49,1.27h3.29q1.49,0,1.49-1.27V59.16q0-1.27-1.49-1.27Z"/><path class="cls-2" d="M171.9,71.71a6,6,0,0,0,.17,1.63,3.75,3.75,0,0,0,.54,1.1h-9a3.28,3.28,0,0,0,.51-1.07,6.41,6.41,0,0,0,.17-1.66V60.61h-2.82v-3.5l8.37-2.51h2Z"/></svg>