<svg xmlns="http://www.w3.org/2000/svg" viewBox="0 0 99.92 26.22"><defs><style>.cls-1{fill:#6d28aa;}.cls-2{fill:#3e579c;}.cls-3{fill:#f4c316;}.cls-4{stroke:#000;stroke-miterlimit:10;opacity:0.2;}</style></defs><title>AAM-Asset 1</title><g id="Layer_2" data-name="Layer 2"><g id="Text"><rect width="99.92" height="26.22"/><rect class="cls-1" x="0.35" y="0.35" width="99.21" height="25.51"/><polygon class="cls-2" points="18.64 0.35 16.56 0.35 16.56 25.87 18.64 25.87 39.24 25.87 39.24 0.35 18.64 0.35"/><polygon class="cls-2" points="62.77 0.35 60.68 0.35 60.68 25.87 62.77 25.87 83.36 25.87 83.36 0.35 62.77 0.35"/><rect class="cls-3" x="25.06" y="0.35" width="5.67" height="25.51"/><rect class="cls-3" x="69.19" y="0.35" width="5.67" height="25.51"/><line class="cls-4" x1="0.35" y1="1.77" x2="99.57" y2="1.77"/><line class="cls-4" x1="0.35" y1="4.6" x2="99.57" y2="4.6"/><line class="cls-4" x1="0.35" y1="7.44" x2="99.57" y2="7.44"/><line class="cls-4" x1="0.35" y1="10.27" x2="99.57" y2="10.27"/><line class="cls-4" x1="0.35" y1="13.11" x2="99.57" y2="13.11"/><line class="cls-4" x1="0.35" y1="15.94" x2="99.57" y2="15.94"/><line class="cls-4" x1="0.35" y1="18.78" x2="99.57" y2="18.78"/><line class="cls-4" x1="0.35" y1="21.61" x2="99.57" y2="21.61"/><line class="cls-4" x1="0.35" y1="24.45" x2="99.57" y2="24.45"/></g></g></svg>