<svg xmlns="http://www.w3.org/2000/svg" viewBox="0 0 99.57 24.45"><defs><style>.cls-1{fill:#008a01;}.cls-2{fill:#f4c316;}.cls-3{stroke:#000;stroke-miterlimit:10;opacity:0.2;}</style></defs><title>AMG-Asset 1</title><g id="Layer_2" data-name="Layer 2"><g id="Medallion"><rect width="99.57" height="24.45"/><polygon class="cls-1" points="49.78 0.18 0.18 0.18 0.18 24.27 49.78 24.27 99.39 24.27 99.39 0.18 49.78 0.18"/><rect class="cls-2" x="49.77" y="1.78" width="0.03" height="7.31"/><rect class="cls-2" x="49.77" y="14.82" width="0.03" height="7.31"/><polygon class="cls-2" points="0.19 1.78 0.19 9.1 49.8 9.1 99.38 9.1 99.38 1.78 49.8 1.78 0.19 1.78"/><polygon class="cls-2" points="0.19 14.82 0.19 22.14 49.8 22.14 99.38 22.14 99.38 14.82 49.8 14.82 0.19 14.82"/><line class="cls-3" x1="0.18" y1="0.88" x2="99.39" y2="0.88"/><line class="cls-3" x1="0.18" y1="3.72" x2="99.39" y2="3.72"/><line class="cls-3" x1="0.18" y1="6.55" x2="99.39" y2="6.55"/><line class="cls-3" x1="0.18" y1="9.39" x2="99.39" y2="9.39"/><line class="cls-3" x1="0.18" y1="12.23" x2="99.39" y2="12.23"/><line class="cls-3" x1="0.18" y1="15.06" x2="99.39" y2="15.06"/><line class="cls-3" x1="0.18" y1="17.9" x2="99.39" y2="17.9"/><line class="cls-3" x1="0.18" y1="20.73" x2="99.39" y2="20.73"/><line class="cls-3" x1="0.18" y1="23.57" x2="99.39" y2="23.57"/></g></g></svg>