<svg xmlns="http://www.w3.org/2000/svg" viewBox="0 0 99.56 24.45"><defs><style>.cls-1{fill:#005039;}.cls-2{fill:#b3b3b3;}.cls-3{fill:#4d4d4d;}.cls-4{fill:#86bacc;}.cls-5{stroke:#000;stroke-miterlimit:10;opacity:0.2;}</style></defs><title>AMOM-Asset 1</title><g id="Layer_2" data-name="Layer 2"><g id="Medals"><rect width="99.56" height="24.45"/><polygon class="cls-1" points="49.78 0.18 0.18 0.18 0.18 24.27 49.78 24.27 99.39 24.27 99.39 0.18 49.78 0.18"/><polygon class="cls-2" points="1.35 0.18 0.18 0.18 0.18 24.27 1.35 24.27 12.93 24.27 12.93 0.18 1.35 0.18"/><polygon class="cls-2" points="87.81 0.18 86.63 0.18 86.63 24.27 87.81 24.27 99.39 24.27 99.39 0.18 87.81 0.18"/><polygon class="cls-3" points="38.8 0.18 36.32 0.18 36.32 24.27 38.8 24.27 63.25 24.27 63.25 0.18 38.8 0.18"/><polygon class="cls-4" points="46.02 0.18 45.18 0.18 45.18 24.27 46.02 24.27 54.39 24.27 54.39 0.18 46.02 0.18"/><line class="cls-5" x1="0.18" y1="0.88" x2="99.39" y2="0.88"/><line class="cls-5" x1="0.18" y1="3.72" x2="99.39" y2="3.72"/><line class="cls-5" x1="0.18" y1="6.55" x2="99.39" y2="6.55"/><line class="cls-5" x1="0.18" y1="9.39" x2="99.39" y2="9.39"/><line class="cls-5" x1="0.18" y1="12.22" x2="99.39" y2="12.22"/><line class="cls-5" x1="0.18" y1="15.06" x2="99.39" y2="15.06"/><line class="cls-5" x1="0.18" y1="17.89" x2="99.39" y2="17.89"/><line class="cls-5" x1="0.18" y1="20.73" x2="99.39" y2="20.73"/><line class="cls-5" x1="0.18" y1="23.56" x2="99.39" y2="23.56"/></g></g></svg>