<svg xmlns="http://www.w3.org/2000/svg" viewBox="0 0 100.63 25.1"><defs><style>.cls-1{fill:#f4c316;}.cls-2{fill:#1f4bb3;}.cls-3{stroke:#000;stroke-miterlimit:10;opacity:0.2;}</style></defs><title>AMSM-Asset 1</title><g id="Layer_2" data-name="Layer 2"><g id="Text"><polygon points="94.85 0 82.96 0 65.53 0 56.66 0 45.13 0 35.81 0 17.23 0 6.69 0 0 0 0 25.1 6.69 25.1 17.23 25.1 35.81 25.1 45.13 25.1 56.66 25.1 65.53 25.1 82.96 25.1 94.85 25.1 100.63 25.1 100.63 0 94.85 0"/><polygon class="cls-1" points="94.22 0.48 82.5 0.48 65.31 0.48 56.57 0.48 45.2 0.48 36.01 0.48 17.69 0.48 7.3 0.48 0.71 0.48 0.71 24.62 7.3 24.62 17.69 24.62 36.01 24.62 45.2 24.62 56.57 24.62 65.31 24.62 82.5 24.62 94.22 24.62 99.92 24.62 99.92 0.48 94.22 0.48"/><polygon class="cls-2" points="16.52 0.48 7.72 0.48 7.72 24.62 16.52 24.62 30.39 24.62 30.39 0.48 16.52 0.48"/><polygon class="cls-2" points="85.5 0.48 70.24 0.48 70.24 24.62 85.5 24.62 92.92 24.62 92.92 0.48 85.5 0.48"/><line class="cls-3" x1="0.62" y1="1.67" x2="99.83" y2="1.67"/><line class="cls-3" x1="0.62" y1="4.51" x2="99.83" y2="4.51"/><line class="cls-3" x1="0.62" y1="7.34" x2="99.83" y2="7.34"/><line class="cls-3" x1="0.62" y1="10.18" x2="99.83" y2="10.18"/><line class="cls-3" x1="0.62" y1="13.01" x2="99.83" y2="13.01"/><line class="cls-3" x1="0.62" y1="15.85" x2="99.83" y2="15.85"/><line class="cls-3" x1="0.62" y1="18.68" x2="99.83" y2="18.68"/><line class="cls-3" x1="0.62" y1="21.52" x2="99.83" y2="21.52"/><line class="cls-3" x1="0.62" y1="24.35" x2="99.83" y2="24.35"/></g></g></svg>