<svg xmlns="http://www.w3.org/2000/svg" xmlns:xlink="http://www.w3.org/1999/xlink" width="105" height="27"><defs><linearGradient id="a" spreadMethod="repeat" x2="0" y2=".111"><stop offset="0" style="stop-color:#fff;stop-opacity:1"/><stop offset=".5" style="stop-color:#fff;stop-opacity:0"/><stop offset=".5" style="stop-color:#000;stop-opacity:0"/><stop offset="1" style="stop-color:#000;stop-opacitity:0"/></linearGradient><linearGradient id="b" x2="0" y2="1"><stop offset="0" style="stop-color:#fff;stop-opacity:1"/><stop offset=".25" style="stop-color:#fff;stop-opacity:0"/><stop offset=".75" style="stop-color:#000;stop-opacity:0"/><stop offset="1" style="stop-color:#000;stop-opacitity:0"/></linearGradient><symbol id="q"><path style="opacity:.125;fill:url(#a)" d="M3 0h99v27H3z"/><path style="opacity:.25;fill:url(#b)" d="M0 0h105v27H0z"/></symbol><symbol id="t"><path style="stroke:none" d="M.001-9.88l2.411 3.257 3.94-.945-.246 4.044L9.73-1.716l-2.788 2.94L8.558 4.94l-4.026.46L3.38 9.284.001 7.05l-3.379 2.235L-4.53 5.4l-4.025-.46 1.615-3.716-2.789-2.94 3.626-1.808-.247-4.044 3.94.945z" transform="translate(52 13)"/><path d="M46.148 5.932L52.5 13.5l-2.41-6.623-3.942-.945zM52.5 13.5l6.352-7.568-3.942.945L52.5 13.5z" style="fill:#fff;fill-opacity:.71142859;stroke:none" transform="translate(-.5 -.5)"/><path d="M46.396 9.977l-3.626 1.808L52.5 13.5l-6.104-3.523zM52.5 13.5l9.73-1.715-3.626-1.808L52.5 13.5z" style="fill:#fff;fill-opacity:.50571445;stroke:none" transform="translate(-.5 -.5)"/><path d="M52.5 13.5l8.557 4.94-1.616-3.715L52.5 13.5zm0 0l-6.941 1.225-1.616 3.714L52.5 13.5z" style="fill:#fff;fill-opacity:.15142858;stroke:none" transform="translate(-.5 -.5)"/><path d="M52.5 13.5l3.379 9.285L57.03 18.9l-4.53-5.4zm0 0l-4.531 5.4 1.152 3.885L52.5 13.5z" style="fill:#000;fill-opacity:.27428571;stroke:none" transform="translate(-.5 -.5)"/><path d="M52.5 13.5l-3.379 9.285L52.5 20.55l3.379 2.236L52.5 13.5z" style="fill:#000;fill-opacity:.61142853;stroke:none" transform="translate(-.5 -.5)"/><path d="M52.5 13.5l4.531 5.4 4.026-.46L52.5 13.5zm0 0l-8.557 4.94 4.026.46 4.531-5.4z" style="fill:#000;fill-opacity:.54857142;stroke:none" transform="translate(-.5 -.5)"/><path d="M42.77 11.785l2.789 2.94L52.5 13.5l-9.73-1.715zM52.5 13.5l6.941 1.225 2.79-2.94L52.5 13.5z" style="fill:#000;fill-opacity:.34285715;stroke:none" transform="translate(-.5 -.5)"/><path d="M46.148 5.932l.248 4.045L52.5 13.5l-6.352-7.568zM52.5 13.5l6.104-3.523.248-4.045L52.5 13.5z" style="fill:#000;fill-opacity:.07142855;stroke:none" transform="translate(-.5 -.5)"/><path d="M52.5 3.62l-2.41 3.257L52.5 13.5l2.41-6.623-2.41-3.258z" style="fill:#fff;fill-opacity:.40285716;stroke:none" transform="translate(-.5 -.5)"/><g style="fill:none"><path style="fill:none" d="M52.5 3.62l2.41 3.256 3.94-.945-.246 4.045 3.626 1.808-2.788 2.94 1.614 3.716-4.025.46-1.152 3.884L52.5 20.55l-3.38 2.235-1.15-3.884-4.026-.46 1.614-3.716-2.788-2.94 3.626-1.808-.247-4.045 3.94.945z" transform="translate(-.499 -.5)"/><path d="M52.5 3.62v9.88m2.41-6.624L52.5 13.5m-6.35-7.569l6.349 7.569m-2.411-6.623L52.5 13.5m-9.73-1.716l9.729 1.717m-6.104-3.524L52.5 13.5m-8.556 4.94l8.556-4.939m-6.941 1.224L52.5 13.5m-3.38 9.284l3.38-9.283M47.97 18.9l4.53-5.4m3.38 9.284l-3.38-9.283m.002 7.048L52.5 13.5m8.556 4.94l-8.555-4.94m4.531 5.399L52.5 13.5m9.73-1.716L52.5 13.5m6.942 1.222L52.5 13.5m6.35-7.569L52.5 13.5m6.103-3.526L52.5 13.5" transform="translate(-.499 -.5)"/></g></symbol><symbol id="r"><path d="M-2.453-2.734l.103.203a.21.21 0 0 0 .028.047l-.02-.03c.045.09.082.195.108.315.023.104.039.288.039.537V1.91c0 .249-.015.434-.04.545a1.354 1.354 0 0 1-.105.303l-.002.004-.222.22h5.25l.257-1.433-.256.127h-.025l-.023.008a2.59 2.59 0 0 1-.328.087c-.117.02-.28.032-.489.032H.152V.629h1.332c.214 0 .38.014.495.039h.003l.004.002c.13.022.242.047.334.078l.022.008h.006l.017.008h.016l.193.095V-.78l-.209.103h-.023L2.32-.67c-.095.032-.208.06-.34.088-.116.02-.282.031-.496.031H.152v-1.004h1.543c.22 0 .391.015.504.04h.008c.13.021.241.049.334.08l.022.007h.007l.016.008h.016l.234.117-.232-1.431H-1.86z" style="stroke:none" transform="matrix(3 0 0 3 52 13)"/><path d="M-2.025-2.453h4.388l.117.715c-.074-.02-.142-.04-.228-.055a2.749 2.749 0 0 0-.557-.045H-.13V-.27h1.615c.225 0 .406-.01.55-.035h.003c.095-.02.174-.043.254-.066V.45C2.211.43 2.133.408 2.039.393a2.67 2.67 0 0 0-.555-.047H-.13v1.74h1.953c.22 0 .399-.012.541-.037h.004c.08-.017.141-.038.21-.057l-.128.71h-4.472c.021-.062.049-.118.064-.184v-.002c.032-.149.045-.347.045-.606v-3.572a2.85 2.85 0 0 0-.045-.598v-.002c-.015-.07-.045-.127-.066-.191z" style="fill:url(#c);fill-opacity:1;fill-rule:nonzero;stroke:none" transform="matrix(3 0 0 3 52 13)"/><path style="color:#000;fill:url(#d);fill-opacity:1;fill-rule:nonzero;stroke:none" d="M2.943 1.549l-.367.443-.127.71.237.28z" transform="matrix(3 0 0 3 52 13)"/><path style="color:#000;fill:url(#e);fill-opacity:1;fill-rule:nonzero;stroke:none" d="M.152 1.803l-.283.283h1.953c.22 0 .399-.012.541-.037h.004c.08-.017.141-.038.21-.057l.366-.443-.256.127h-.025l-.023.008a2.59 2.59 0 0 1-.328.088c-.117.02-.28.03-.489.03z" transform="matrix(3 0 0 3 52 13)"/><path style="color:#000;fill:url(#f);fill-opacity:1;fill-rule:nonzero;stroke:none" d="M-.131.346v1.74l.283-.283V.629z" transform="matrix(3 0 0 3 52 13)"/><path style="color:#000;fill:url(#g);fill-opacity:1;fill-rule:nonzero;stroke:none" d="M-.131.346l.283.283h1.332c.214 0 .38.014.494.039h.005l.003.002c.13.021.242.047.334.078l.022.008h.006l.017.008h.016l.193.095-.283-.408a2.554 2.554 0 0 0-.252-.058 2.667 2.667 0 0 0-.555-.047z" transform="matrix(3 0 0 3 52 13)"/><path style="color:#000;fill:url(#h);fill-opacity:1;fill-rule:nonzero;stroke:none" d="M2.574-.781l-.283.41v.822l.283.408z" transform="matrix(3 0 0 3 52 13)"/><path style="color:#000;fill:url(#i);fill-opacity:1;fill-rule:nonzero;stroke:none" d="M.152-.55l-.283.28h1.615c.225 0 .406-.01.55-.035h.003c.095-.02.174-.043.254-.066l.283-.41-.209.103h-.023L2.32-.67a3.08 3.08 0 0 1-.34.088c-.116.02-.282.031-.496.031z" transform="matrix(3 0 0 3 52 13)"/><path style="color:#000;fill:url(#j);fill-opacity:1;fill-rule:nonzero;stroke:none" d="M-.131-1.838V-.27l.283-.28v-1.005z" transform="matrix(3 0 0 3 52 13)"/><path style="color:#000;fill:url(#k);fill-opacity:1;fill-rule:nonzero;stroke:none" d="M-.131-1.838l.283.283h1.543c.22 0 .39.015.504.04h.008c.13.021.241.049.334.08l.021.007h.009l.015.008h.016l.234.117-.355-.435c-.075-.02-.144-.04-.23-.055a2.747 2.747 0 0 0-.556-.045z" transform="matrix(3 0 0 3 52 13)"/><path style="color:#000;fill:url(#l);fill-opacity:1;fill-rule:nonzero;stroke:none" d="M-2.023 2.701l-.541.281h5.25l-.237-.28h-.33z" transform="matrix(3 0 0 3 52 13)"/><path style="color:#000;fill:url(#m);fill-opacity:1;fill-rule:nonzero;stroke:none" d="M-2.453-2.735l.103.204a.207.207 0 0 0 .028.046l-.02-.028c.045.089.082.194.108.314.023.104.038.288.038.537V1.91c0 .249-.014.434-.038.545a1.355 1.355 0 0 1-.106.303l-.002.004-.222.22.54-.28c.022-.062.05-.118.065-.184v-.002c.032-.149.045-.347.045-.606v-3.572c0-.259-.012-.453-.045-.598v-.002c-.015-.07-.045-.127-.067-.191z" transform="matrix(3 0 0 3 52 13)"/><path style="color:#000;fill:url(#n);fill-opacity:1;fill-rule:nonzero;stroke:none" d="M-2.453-2.735l.427.282h4.389l.24-.282h-4.462z" transform="matrix(3 0 0 3 52 13)"/><path style="color:#000;fill:url(#o);fill-opacity:1;fill-rule:nonzero;stroke:none" d="M2.604-2.735l-.24.282.117.715.355.435z" transform="matrix(3 0 0 3 52 13)"/></symbol><linearGradient id="p"><stop offset="0" style="stop-color:#000;stop-opacity:.54966885"/><stop style="stop-color:#000;stop-opacity:.01986755" offset=".329"/><stop offset=".41" style="stop-color:#fdfdfd;stop-opacity:0"/><stop style="stop-color:#fff5f5;stop-opacity:.22847682" offset=".493"/><stop offset=".547" style="stop-color:#fdfdfd;stop-opacity:0"/><stop offset=".673" style="stop-color:#000;stop-opacity:.05298013"/><stop offset="1" style="stop-color:#000;stop-opacity:.68211919"/></linearGradient><linearGradient xlink:href="#p" id="c" gradientUnits="userSpaceOnUse" gradientTransform="translate(.008 .017) scale(.28222)" x1="-13.214" y1="-14.458" x2="7.968" y2="17.397"/><linearGradient xlink:href="#p" id="n" gradientUnits="userSpaceOnUse" gradientTransform="translate(.008 .017) scale(.28222)" x1="4.912" y1="-7.748" x2="-3.851" y2="6.079"/><linearGradient xlink:href="#p" id="l" gradientUnits="userSpaceOnUse" gradientTransform="translate(.008 .017) scale(.28222)" x1="4.912" y1="-7.748" x2="-3.851" y2="6.079"/><linearGradient xlink:href="#p" id="k" gradientUnits="userSpaceOnUse" gradientTransform="translate(.008 .017) scale(.28222)" x1="4.912" y1="-7.748" x2="-3.851" y2="6.079"/><linearGradient xlink:href="#p" id="j" gradientUnits="userSpaceOnUse" gradientTransform="translate(.008 .017) scale(.28222)" x1="4.912" y1="-7.748" x2="-3.851" y2="6.079"/><linearGradient xlink:href="#p" id="g" gradientUnits="userSpaceOnUse" gradientTransform="translate(.008 .017) scale(.28222)" x1="4.912" y1="-7.748" x2="-3.851" y2="6.079"/><linearGradient xlink:href="#p" id="e" gradientUnits="userSpaceOnUse" gradientTransform="translate(.008 .017) scale(.28222)" x1="4.912" y1="-7.748" x2="-3.851" y2="6.079"/><linearGradient xlink:href="#p" id="i" gradientUnits="userSpaceOnUse" gradientTransform="translate(.008 .017) scale(.28222)" x1="2.861" y1="-11.18" x2="2.845" y2="2.815"/><linearGradient xlink:href="#p" id="m" gradientUnits="userSpaceOnUse" gradientTransform="translate(.008 .017) scale(.28222)" x1="4.326" y1="-2.558" x2="-8.999" y2="15.705"/><linearGradient xlink:href="#p" id="d" gradientUnits="userSpaceOnUse" gradientTransform="translate(.008 .017) scale(.28222)" x1="4.912" y1="-7.748" x2="-1.466" y2="6.791"/><linearGradient xlink:href="#p" id="f" gradientUnits="userSpaceOnUse" gradientTransform="translate(.008 .017) scale(.28222)" x1="-.494" y1="-1.016" x2="-8.79" y2="12.65"/><linearGradient xlink:href="#p" id="o" gradientUnits="userSpaceOnUse" gradientTransform="translate(.008 .017) scale(.28222)" x1="-5.551" y1="-8.627" x2="-3.851" y2="6.079"/><linearGradient xlink:href="#p" id="h" gradientUnits="userSpaceOnUse" gradientTransform="translate(.008 .017) scale(.28222)" x1="-.864" y1="-12.477" x2="-4.27" y2=".848"/><filter height="116%" width="116%" y="-8%" x="-8%" id="s"><feGaussianBlur in="SourceAlpha" stdDeviation="2" result="blurred"/><feOffset dy="2" in="blurred" result="shadow"/><feMerge><feMergeNode in="shadow"/><feMergeNode in="SourceGraphic"/></feMerge></filter></defs><path style="fill:#f67e00" d="M0 0h7v27H0z"/><path style="fill:#af1e2d" d="M6 0h7v27H6z"/><path style="fill:#007a3d" d="M12 0h82v27H12z"/><path style="fill:#af1e2d" d="M93 0h7v27h-7z"/><path style="fill:#f67e00" d="M99 0h7v27h-7z"/><use xlink:href="#q"/><use xlink:href="#r" class="device" style="filter:url(#s);fill:#e3dedb"/><use x="-32.308" xlink:href="#t" class="device" style="filter:url(#s);fill:#a05a2c"/><use x="32.308" xlink:href="#t" class="device" style="filter:url(#s);fill:#a05a2c"/></svg>