<svg xmlns="http://www.w3.org/2000/svg" xmlns:xlink="http://www.w3.org/1999/xlink" width="105" height="27"><defs><linearGradient id="a" spreadMethod="repeat" x2="0" y2=".111"><stop offset="0" style="stop-color:#fff;stop-opacity:1"/><stop offset=".5" style="stop-color:#fff;stop-opacity:0"/><stop offset=".5" style="stop-color:#000;stop-opacity:0"/><stop offset="1" style="stop-color:#000;stop-opacitity:0"/></linearGradient><linearGradient id="b" x2="0" y2="1"><stop offset="0" style="stop-color:#fff;stop-opacity:1"/><stop offset=".25" style="stop-color:#fff;stop-opacity:0"/><stop offset=".75" style="stop-color:#000;stop-opacity:0"/><stop offset="1" style="stop-color:#000;stop-opacitity:0"/></linearGradient><symbol id="c"><path style="opacity:.125;fill:url(#a)" d="M3 0h99v27H3z"/><path style="opacity:.25;fill:url(#b)" d="M0 0h105v27H0z"/></symbol><symbol id="d"><path transform="matrix(.9 0 0 .9 52 13)" style="stroke:none" d="M0-11.448c-.868 0-1.016 2.217-1.016 2.217-.759.526-.775 1.586-.775 1.586-.782 0-1.812.752-1.926 2.341-3.43-.98-7.943-3.214-9.787.102-2.217 3.985 1.142 7.91 3.96 10.733v1.007h.565v3.53H8.98v-3.53h.565V5.53c2.818-2.822 6.178-6.748 3.96-10.733-1.844-3.316-6.357-1.082-9.786-.102-.115-1.589-1.145-2.34-1.927-2.34 0 0-.016-1.061-.775-1.587 0 0-.148-2.217-1.016-2.217z"/><g style="fill:none;stroke:#000;stroke-width:.5px"><path d="M459.732 393.076c-4.496-4.503-9.854-10.768-6.318-17.128 3.536-6.36 13.258.115 18.684.477" transform="matrix(.56423 0 0 .56392 -215.985 -203.687)"/><path d="M472.098 372.05h5.714v21.027h-5.714zm-3.076 3.757c.174-2.552 1.826-3.757 3.076-3.757m2.857-2.991c-2.812 0-2.857 2.99-2.857 2.99m2.857-6.071c-1.384 0-1.622 3.54-1.622 3.54m-1.235 5.612c-2.455 2.054-1.34 17.946-1.34 17.946" transform="matrix(.56423 0 0 .56392 -215.985 -203.687)"/><path d="M459.732 393.076c-3.238-5.393-7.192-10.603-4.532-15.655 2.66-5.053 6.695-.599 16.898-.996m2.857-10.447v-4.24m0 2.187h-2.544m5.089 0h-2.545m15.224 29.151c4.495-4.503 9.854-10.768 6.318-17.128-3.536-6.36-13.258.115-18.685.477m3.077-.618c-.175-2.552-1.826-3.757-3.077-3.757m-2.857-2.991c2.813 0 2.858 2.99 2.858 2.99m-2.858-6.071c1.384 0 1.622 3.54 1.622 3.54m1.236 5.612c2.455 2.054 1.339 17.946 1.339 17.946" transform="matrix(.56423 0 0 .56392 -215.985 -203.687)"/><path d="M490.179 393.076c3.238-5.393 7.191-10.603 4.532-15.655-2.66-5.053-6.695-.599-16.899-.996m-18.08 16.651h12.366m5.715.001h12.365v1.607h-30.446v-1.608m.811-4.969c-.51.05-1.064.185-1.24.829-.13.43.204 1.084.529 1.505.31.393.657.737 1 1.012.144.086.242-.105.092-.294-.2-.43-.013-.724.199-.805.446-.167 1.026-.016 1.584.324.32.222.65.521.904.937h.937a10.766 10.766 0 0 0-1.207-2.147 3.411 3.411 0 0 0-2.147-1.316 3.16 3.16 0 0 0-.65-.045zm6.507 0c-.695.036-1.383.269-1.684 1.04-.163.574-.144 1.307-.055 2.047.044.195.021.52.21.42h.794c.027-.878.576-1.26 1.16-1.318.326-.03.76-.003 1.109.48.14.195.118.422.215.623.25.219.31-.154.4-.31.156-.425.33-.93.12-1.589-.205-.637-.726-.988-1.124-1.168a2.618 2.618 0 0 0-1.144-.225z" transform="matrix(.56423 0 0 .56392 -215.985 -203.687)"/><path d="M462.443 383.253c-.189-.008-.053.373-.152.498-.219.749-.685 1.196-1.041 1.773-.23.401-.204 1.186.21 1.818.375.709.954.963 1.407 1.517.481.494.893 1.142 1.233 1.818.163.3.303.619.414.938h.907c-.196-.812-.239-1.604-.147-2.275.093-.5.264-.92.483-1.28.207-.417.202-1.151-.171-1.8-.45-.794-1.098-1.086-1.655-1.553-.438-.367-.902-.724-1.285-1.262a.245.245 0 0 0-.203-.192z" transform="matrix(.56423 0 0 .56392 -215.985 -203.687)"/><path d="M466.079 391.614a.98.98 0 0 1 .863.542c.162.381-.06.598-.244.668-.4.086-.853.017-1.275.04-.483-.02-.945.039-1.441-.033-.23-.066-.598-.285-.665-.687-.018-.486.362-.55.665-.53h2.097zm23.288-3.507c.512.05 1.065.185 1.241.829.13.43-.204 1.084-.53 1.505-.31.393-.656.737-1 1.012-.143.086-.241-.105-.092-.294.201-.43.014-.724-.198-.805-.447-.167-1.026-.016-1.584.324-.32.222-.651.521-.904.937h-.938c.324-.762.735-1.504 1.208-2.147a3.411 3.411 0 0 1 2.147-1.316 3.16 3.16 0 0 1 .65-.045zm-6.507 0c.695.036 1.384.269 1.684 1.04.164.574.145 1.307.055 2.047-.043.195-.02.52-.21.42h-.794c-.027-.878-.575-1.26-1.159-1.318-.326-.03-.76-.003-1.109.48-.14.195-.118.422-.215.623-.251.219-.31-.154-.4-.31-.156-.425-.331-.93-.12-1.589.205-.637.726-.988 1.123-1.168.4-.176.785-.235 1.145-.225z" transform="matrix(.56423 0 0 .56392 -215.985 -203.687)"/><path d="M487.468 383.253c.188-.008.053.373.152.498.218.749.684 1.196 1.04 1.773.23.401.205 1.186-.208 1.818-.377.709-.955.963-1.409 1.517-.48.494-.892 1.142-1.233 1.818-.162.3-.302.619-.413.938h-.907c.195-.812.238-1.604.146-2.275-.093-.5-.263-.92-.482-1.28-.207-.417-.202-1.151.17-1.8.45-.794 1.099-1.086 1.656-1.553.438-.367.902-.724 1.285-1.262a.245.245 0 0 1 .203-.192z" transform="matrix(.56423 0 0 .56392 -215.985 -203.687)"/><path d="M483.832 391.614a.979.979 0 0 0-.863.542c-.163.381.06.598.244.668.399.086.853.017 1.275.04.482-.02.945.039 1.44-.033.23-.066.599-.285.666-.687.017-.486-.363-.55-.665-.53h-2.097z" transform="matrix(.56423 0 0 .56392 -215.985 -203.687)"/></g></symbol><filter height="116%" width="116%" y="-8%" x="-8%" id="e"><feGaussianBlur in="SourceAlpha" stdDeviation="2" result="blurred"/><feOffset dy="2" in="blurred" result="shadow"/><feMerge><feMergeNode in="shadow"/><feMergeNode in="SourceGraphic"/></feMerge></filter></defs><path style="fill:#ad9b0c" d="M0 0h7v27H0z"/><path style="fill:#c6c7c9" d="M6 0h94v27H6z"/><path style="fill:#ad9b0c" d="M99 0h7v27h-7z"/><use xlink:href="#c"/><use xlink:href="#d" class="device" style="filter:url(#e);fill:#e3dedb"/></svg>