<svg xmlns="http://www.w3.org/2000/svg" xmlns:xlink="http://www.w3.org/1999/xlink" viewBox="0 0 99.57 24.45"><defs><style>.cls-1{fill:#005039;}.cls-2{fill:#f7931e;}.cls-3{fill:#be2f26;}.cls-4{stroke:#000;stroke-miterlimit:10;opacity:0.2;}.cls-5{fill:url(#Silver);}.cls-6{fill:#010101;}.cls-7{fill:url(#Silver-2);}.cls-8{fill:url(#linear-gradient);}.cls-9{fill:url(#Silver-3);}.cls-10{fill:url(#Gold);}</style><linearGradient id="Silver" x1="56.63" y1="19.47" x2="42.48" y2="5.32" gradientUnits="userSpaceOnUse"><stop offset="0" stop-color="#e5e2df"/><stop offset="0" stop-color="#ded9d6"/><stop offset="0.06" stop-color="#cfcac9"/><stop offset="0.18" stop-color="#a8a4a7"/><stop offset="0.26" stop-color="#8b878d"/><stop offset="0.52" stop-color="#f3f4f4"/><stop offset="0.58" stop-color="#e5e5e6"/><stop offset="0.7" stop-color="#c0bec0"/><stop offset="0.86" stop-color="#858085"/><stop offset="0.88" stop-color="#807b80"/><stop offset="1" stop-color="#d1d3d4"/><stop offset="1" stop-color="#a7a9ac"/></linearGradient><linearGradient id="Silver-2" x1="56.16" y1="18.98" x2="42.36" y2="5.17" xlink:href="#Silver"/><linearGradient id="linear-gradient" x1="42.79" y1="12.99" x2="56.43" y2="12.99" gradientTransform="translate(0 -1)" gradientUnits="userSpaceOnUse"><stop offset="0" stop-color="#fffbcc"/><stop offset="0.13" stop-color="#eed688"/><stop offset="0.4" stop-color="#c3922e"/><stop offset="0.45" stop-color="#cca246"/><stop offset="0.59" stop-color="#e7d28e"/><stop offset="0.7" stop-color="#f8f0bb"/><stop offset="0.75" stop-color="#fffbcc"/><stop offset="0.99" stop-color="#fbc926"/></linearGradient><linearGradient id="Silver-3" x1="56.27" y1="18.92" x2="42.94" y2="5.59" xlink:href="#Silver"/><linearGradient id="Gold" x1="56.27" y1="19.92" x2="42.94" y2="6.59" gradientTransform="translate(0 -1)" gradientUnits="userSpaceOnUse"><stop offset="0.01" stop-color="#fbc926"/><stop offset="0.25" stop-color="#fffbcc"/><stop offset="0.3" stop-color="#f8f0bb"/><stop offset="0.41" stop-color="#e7d28e"/><stop offset="0.55" stop-color="#cca246"/><stop offset="0.6" stop-color="#c3922e"/><stop offset="0.87" stop-color="#eed688"/><stop offset="1" stop-color="#fffbcc"/></linearGradient></defs><title>IAREA-Asset 2</title><g id="Layer_2" data-name="Layer 2"><g id="FEA"><rect width="99.57" height="24.45"/><rect class="cls-1" x="0.18" y="0.18" width="99.21" height="24.09"/><polygon class="cls-2" points="4.58 0.16 0.18 0.16 0.18 24.29 4.58 24.29 11.52 24.29 11.52 0.16 4.58 0.16"/><polygon class="cls-2" points="92.45 0.16 88.05 0.16 88.05 24.29 92.45 24.29 99.39 24.29 99.39 0.16 92.45 0.16"/><polygon class="cls-3" points="8.05 0.16 5.84 0.16 5.84 24.29 8.05 24.29 11.52 24.29 11.52 0.16 8.05 0.16"/><polygon class="cls-3" points="90.25 0.16 88.06 0.16 88.06 24.29 90.25 24.29 93.72 24.29 93.72 0.16 90.25 0.16"/><line class="cls-4" x1="0.18" y1="0.88" x2="99.39" y2="0.88"/><line class="cls-4" x1="0.18" y1="3.72" x2="99.39" y2="3.72"/><line class="cls-4" x1="0.18" y1="6.55" x2="99.39" y2="6.55"/><line class="cls-4" x1="0.18" y1="9.39" x2="99.39" y2="9.39"/><line class="cls-4" x1="0.18" y1="12.22" x2="99.39" y2="12.22"/><line class="cls-4" x1="0.18" y1="15.06" x2="99.39" y2="15.06"/><line class="cls-4" x1="0.18" y1="17.89" x2="99.39" y2="17.89"/><line class="cls-4" x1="0.18" y1="20.73" x2="99.39" y2="20.73"/><line class="cls-4" x1="0.18" y1="23.56" x2="99.39" y2="23.56"/><path class="cls-5" d="M54.42,16.56a8.25,8.25,0,0,0,1.33-.08c.29-.05.73-.4,1.17-.55l-.55,3.79H42.64a4,4,0,0,0,.33-1c.07-.37.51-.85.51-1.44V8a7.66,7.66,0,0,0-.1-1.45A12.13,12.13,0,0,0,43,4.75H56.15l.46,3.81a11.7,11.7,0,0,0-1.1-.5,5.16,5.16,0,0,0-1.37-.16H49.73v2.51h3.85a6.51,6.51,0,0,0,1.36-.2,9.62,9.62,0,0,0,1.14-.3l-.06,4c-.34-.1-.7-.19-1.07-.27a7.35,7.35,0,0,0-1.36-.11H49.73v3Z"/><path class="cls-6" d="M54.42,16.56a8.25,8.25,0,0,0,1.33-.08c.29-.05.73-.4,1.17-.55l-.55,3.79H42.64a4,4,0,0,0,.33-1c.07-.37.51-.85.51-1.44V8a7.66,7.66,0,0,0-.1-1.45A12.13,12.13,0,0,0,43,4.75H56.15l.46,3.81a11.7,11.7,0,0,0-1.1-.5,5.16,5.16,0,0,0-1.37-.16H49.73v2.51h3.85a6.51,6.51,0,0,0,1.36-.2,9.62,9.62,0,0,0,1.14-.3l-.06,4c-.34-.1-.7-.19-1.07-.27a7.35,7.35,0,0,0-1.36-.11H49.73v3Z"/><path class="cls-7" d="M53.85,16.55a8.24,8.24,0,0,0,1.33-.08,10.27,10.27,0,0,0,1.25-.35l-.55,3.14H42.79a7.45,7.45,0,0,0,.35-1.36,7.56,7.56,0,0,0,.11-1.44V7.16a7.7,7.7,0,0,0-.1-1.45,4.37,4.37,0,0,0-.34-1H55.57L56,7.6a10.45,10.45,0,0,0-1.08-.37,5.16,5.16,0,0,0-1.37-.16H48.65v3.32H53a7.84,7.84,0,0,0,1.3-.08,8.73,8.73,0,0,0,1.2-.26l-.06,3.06c-.34-.1-.7-.19-1.07-.27A7.36,7.36,0,0,0,53,12.74H48.65v3.81Z"/><path class="cls-8" d="M53.85,16.55a8.24,8.24,0,0,0,1.33-.08,10.27,10.27,0,0,0,1.25-.35l-.55,3.14H42.79a7.45,7.45,0,0,0,.35-1.36,7.56,7.56,0,0,0,.11-1.44V7.16a7.7,7.7,0,0,0-.1-1.45,4.37,4.37,0,0,0-.34-1H55.57L56,7.6a10.45,10.45,0,0,0-1.08-.37,5.16,5.16,0,0,0-1.37-.16H48.65v3.32H53a7.84,7.84,0,0,0,1.3-.08,8.73,8.73,0,0,0,1.2-.26l-.06,3.06c-.34-.1-.7-.19-1.07-.27A7.36,7.36,0,0,0,53,12.74H48.65v3.81Z"/><rect x="48.84" y="16.37" width="0.82" height="0.47" transform="translate(-0.92 30.18) rotate(-33.76)"/><rect x="48.83" y="10.19" width="0.82" height="0.47" transform="translate(2.51 29.12) rotate(-33.76)"/><path class="cls-9" d="M54,16.94a8.25,8.25,0,0,0,1.33-.08,7.8,7.8,0,0,0,1.11-.3l-.49,2.72H43.41a3.92,3.92,0,0,0,.33-1,7.56,7.56,0,0,0,.11-1.44V7.55a7.7,7.7,0,0,0-.1-1.45,4.37,4.37,0,0,0-.34-1H55.68L56.13,8A10.46,10.46,0,0,0,55,7.62a5.16,5.16,0,0,0-1.37-.16H49.26v3.32h3.85a7.84,7.84,0,0,0,1.3-.08,9.63,9.63,0,0,0,1.14-.3v3.1c-.34-.1-.7-.19-1.07-.27a7.35,7.35,0,0,0-1.36-.11H49.26v3.81Z"/><path class="cls-10" d="M54,16.94a8.25,8.25,0,0,0,1.33-.08,7.8,7.8,0,0,0,1.11-.3l-.49,2.72H43.41a3.92,3.92,0,0,0,.33-1,7.56,7.56,0,0,0,.11-1.44V7.55a7.7,7.7,0,0,0-.1-1.45,4.37,4.37,0,0,0-.34-1H55.68L56.13,8A10.46,10.46,0,0,0,55,7.62a5.16,5.16,0,0,0-1.37-.16H49.26v3.32h3.85a7.84,7.84,0,0,0,1.3-.08,9.63,9.63,0,0,0,1.14-.3v3.1c-.34-.1-.7-.19-1.07-.27a7.35,7.35,0,0,0-1.36-.11H49.26v3.81Z"/></g></g></svg>