<svg xmlns="http://www.w3.org/2000/svg" xmlns:xlink="http://www.w3.org/1999/xlink" width="105" height="27"><defs><linearGradient id="a" spreadMethod="repeat" x2="0" y2=".111"><stop offset="0" style="stop-color:#fff;stop-opacity:1"/><stop offset=".5" style="stop-color:#fff;stop-opacity:0"/><stop offset=".5" style="stop-color:#000;stop-opacity:0"/><stop offset="1" style="stop-color:#000;stop-opacitity:0"/></linearGradient><linearGradient id="b" x2="0" y2="1"><stop offset="0" style="stop-color:#fff;stop-opacity:1"/><stop offset=".25" style="stop-color:#fff;stop-opacity:0"/><stop offset=".75" style="stop-color:#000;stop-opacity:0"/><stop offset="1" style="stop-color:#000;stop-opacitity:0"/></linearGradient><symbol id="F"><path style="opacity:.125;fill:url(#a)" d="M3 0h99v27H3z"/><path style="opacity:.25;fill:url(#b)" d="M0 0h105v27H0z"/></symbol><linearGradient id="c"><stop offset="0" style="stop-color:#fff;stop-opacity:0"/><stop offset="1" style="stop-color:#000;stop-opacity:.39714867"/></linearGradient><radialGradient r="24.81" fy="69.053" fx="97.415" cy="69.053" cx="97.415" gradientTransform="matrix(.63165 .46012 -.51817 .71135 26.164 -16.596)" gradientUnits="userSpaceOnUse" id="d" xlink:href="#c"/><radialGradient r="24.81" fy="48.088" fx="102.505" cy="48.088" cx="102.505" gradientTransform="matrix(.12535 .20461 -.27336 .16746 66.292 35.75)" gradientUnits="userSpaceOnUse" id="e" xlink:href="#c"/><radialGradient r="24.81" fy="54.672" fx="103.414" cy="54.672" cx="103.414" gradientTransform="matrix(.2166 .11604 -.08972 .16747 45.666 48.724)" gradientUnits="userSpaceOnUse" id="f" xlink:href="#c"/><radialGradient r="24.81" fy="-83.997" fx="754.72" cy="-83.997" cx="754.72" gradientTransform="matrix(-.0341 .02344 -.01433 -.02085 88.529 84.114)" gradientUnits="userSpaceOnUse" id="g" xlink:href="#c"/><radialGradient r="24.81" fy="61.711" fx="103.237" cy="61.711" cx="103.238" gradientTransform="matrix(.1703 .14702 -.12432 .144 49.488 50.74)" gradientUnits="userSpaceOnUse" id="h" xlink:href="#c"/><radialGradient r="24.81" fy="-3.819" fx="738.586" cy="-3.819" cx="738.586" gradientTransform="matrix(-.04547 .01822 -.01186 -.02958 94.804 90.44)" gradientUnits="userSpaceOnUse" id="i" xlink:href="#c"/><radialGradient r="24.81" fy="81.129" fx="108.802" cy="81.129" cx="108.802" gradientTransform="matrix(.62713 .46626 -.20847 .2804 1.53 17.699)" gradientUnits="userSpaceOnUse" id="j" xlink:href="#c"/><radialGradient r="24.81" fy="54.729" fx="699.047" cy="54.729" cx="699.047" gradientTransform="matrix(-.02028 .06022 -.0302 -.01017 74.134 61.258)" gradientUnits="userSpaceOnUse" id="k" xlink:href="#c"/><radialGradient r="24.81" fy="59.824" fx="670.261" cy="59.824" cx="670.261" gradientTransform="matrix(-.01875 .0564 -.03024 -.01005 71.546 64.077)" gradientUnits="userSpaceOnUse" id="l" xlink:href="#c"/><radialGradient r="24.81" fy="61.781" fx="86.063" cy="61.781" cx="86.063" gradientTransform="matrix(.29253 .23303 -.23633 .29667 37.938 28.567)" gradientUnits="userSpaceOnUse" id="m" xlink:href="#c"/><radialGradient r="24.81" fy="212.973" fx="584.338" cy="212.973" cx="584.338" gradientTransform="matrix(.04845 -.01003 .00646 .0312 20.36 98.3)" gradientUnits="userSpaceOnUse" id="n" xlink:href="#c"/><radialGradient r="24.81" fy="280.958" fx="552.155" cy="280.958" cx="552.155" gradientTransform="matrix(-.0661 .03273 -.01414 -.02856 87.558 88.393)" gradientUnits="userSpaceOnUse" id="o" xlink:href="#c"/><radialGradient r="24.81" fy="206.488" fx="482.117" cy="206.488" cx="482.117" gradientTransform="matrix(.07976 -.00163 .00065 .03186 8.09 87.495)" gradientUnits="userSpaceOnUse" id="p" xlink:href="#c"/><radialGradient r="24.81" fy="281.299" fx="504.381" cy="281.299" cx="504.381" gradientTransform="matrix(.06525 -.02988 .01327 .02898 8.781 102.71)" gradientUnits="userSpaceOnUse" id="q" xlink:href="#c"/><radialGradient r="24.81" fy="62.576" fx="79.698" cy="62.576" cx="79.698" gradientTransform="matrix(.29391 .03156 -.02088 .19442 21.964 49.908)" gradientUnits="userSpaceOnUse" id="r" xlink:href="#c"/><radialGradient r="24.81" fy="-73.656" fx="29.09" cy="-73.656" cx="29.09" gradientTransform="matrix(.00485 .01879 -.0145 .00374 40.487 62.032)" gradientUnits="userSpaceOnUse" id="s" xlink:href="#c"/><radialGradient r="24.81" fy="39.322" fx="81.937" cy="39.322" cx="81.937" gradientTransform="matrix(.01041 .01774 -.02355 .01383 40.282 64.325)" gradientUnits="userSpaceOnUse" id="t" xlink:href="#c"/><radialGradient r="24.81" fy="69.053" fx="97.415" cy="69.053" cx="97.415" gradientTransform="matrix(.63165 .46012 -.51817 .71135 26.164 -16.596)" gradientUnits="userSpaceOnUse" id="u" xlink:href="#c"/><radialGradient r="24.81" fy="67.351" fx="76.167" cy="67.351" cx="76.167" gradientTransform="matrix(.02445 .05067 -.0246 .01187 39.173 61.703)" gradientUnits="userSpaceOnUse" id="v" xlink:href="#c"/><radialGradient r="24.81" fy="58.334" fx="1.347" cy="58.334" cx="1.347" gradientTransform="matrix(.01377 .02897 -.02053 .00976 38.95 61.855)" gradientUnits="userSpaceOnUse" id="w" xlink:href="#c"/><radialGradient r="24.81" fy="79.957" fx="72.369" cy="79.957" cx="72.369" gradientTransform="matrix(.04475 .07515 -.01831 .0109 34.454 61.94)" gradientUnits="userSpaceOnUse" id="x" xlink:href="#c"/><radialGradient r="24.81" fy="436.21" fx="353.233" cy="436.21" cx="353.233" gradientTransform="matrix(.06525 -.01766 .00833 .03076 9.31 82.812)" gradientUnits="userSpaceOnUse" id="y" xlink:href="#c"/><radialGradient r="24.81" fy="132.34" fx="42.207" cy="132.34" cx="42.207" gradientTransform="matrix(.0347 .05564 -.02704 .01687 35.528 62.981)" gradientUnits="userSpaceOnUse" id="z" xlink:href="#c"/><radialGradient r="24.81" fy="479.496" fx="320.36" cy="479.496" cx="320.36" gradientTransform="matrix(.06525 -.01308 .00626 .03125 9.77 78.1)" gradientUnits="userSpaceOnUse" id="A" xlink:href="#c"/><radialGradient r="24.81" fy="418.001" fx="253.882" cy="418.001" cx="253.882" gradientTransform="matrix(.06983 .00524 -.00239 .03178 16.304 69.542)" gradientUnits="userSpaceOnUse" id="B" xlink:href="#c"/><radialGradient r="24.81" fy="231.137" fx="132.149" cy="231.137" cx="132.149" gradientTransform="matrix(.04277 .00916 -.00668 .03116 27.877 64.778)" gradientUnits="userSpaceOnUse" id="C" xlink:href="#c"/><radialGradient r="24.81" fy="486.76" fx="277.982" cy="486.76" cx="277.982" gradientTransform="matrix(.05914 -.02683 .01317 .02902 9.163 79.988)" gradientUnits="userSpaceOnUse" id="D" xlink:href="#c"/><radialGradient r="24.81" fy="239.931" fx="57.261" cy="239.931" cx="57.261" gradientTransform="matrix(.0347 .05564 -.02704 .01687 35.528 62.981)" gradientUnits="userSpaceOnUse" id="E" xlink:href="#c"/><symbol id="G"><path style="stroke:none;stroke-width:.35277775" d="M55.382 67.853c-.91-.06-1.735.823-2.653.518-.894-.26-1.985-.475-2.748.221.472-.112.938.104 1.166.528-.317-.104-.63-.267-.971-.267-.304-.072-.922.209-.586.563a.982.982 0 0 1 .647.663c-.232-.005-.575.273-.834.252-.66.247-1.562-.154-2.032.523-.828.186-1.768.13-2.616.375-.158.009-.246.077-.297.172-.305-.223-.908-.057-.777.441.346-.034.118.559.487.554.016.002.031-.001.047 0-.152.283-.105.67.07.943.689.941 2.031.962 2.863 1.734-.172.003-.388.16-.483.3a.322.322 0 0 0-.333.158l-.01-.017a1.771 1.771 0 0 0-.42-.462c-.163-.098-.562-.433-.586-.188-.03.375-.098.962.187 1.243l-.309-.003c.294 1.18 1.443 2.022 2.64 2.06.415.051.466-.437.353-.722 0-.586.616-.75 1.134-.799-.396.36-.393 1.091-.02 1.504.409.236.062.707-.303.712-.587-.101-.647.654-1.005.925-.48.242-.451-.498-.788-.651-.425.237-.458.802-.319 1.217.328.754 1.061 1.169 1.847 1.255-.288.326-.664.896-.362 1.298a5.308 5.308 0 0 0-.945 1.38c-.624-.61-1.42-1.01-2.048-1.616-.843-.63-.552-1.968-1.458-2.543.401-.584.325-1.511-.206-1.98-.262-.44-.545-.891-1.013-1.127-.165-.084-.857-.286-.597.007.288.27.168.739.3 1.025-.28.239-.427.64-.263 1.008-.442-.052-.546-.51-.563-.897-.014-.471-.33-.92-.746-1.114-.23-.507-.744-.86-1.287-.945-.192-.012-.752-.087-.598.237.602.195.201.994.579 1.304-.095.437.088.967.372 1.304-.206.249-.576.04-.852.065a1.03 1.03 0 0 0-.778.091c-.656-.102-1.345-.336-1.632-.994-.045.742.066 1.747.874 2.044a.237.237 0 0 0 .116-.036.8.8 0 0 0 .13.383c.345.61 1.115.224 1.65.34.278.033.348.382.001.378-.436.006-.695.343-.756.725-.527.09-1.08.092-1.44-.38.2.736.775 1.56 1.626 1.512.179.035.305-.018.36-.105.597.163 1.122-.485 1.644-.688.318.088.689.092 1.037.083.699.598.476 1.693.168 2.45-.174.514.502.605.851.66.972.705.797 2.296 1.831 3.003.217.302.707.26.799-.123.486.191.678.778 1.175.973.161 1.469.993 2.868 2.316 3.58-.063-.479-.152-.97-.051-1.45.083.423.395.95.871 1.099.4-.041.323.42.312.688-.276.092-.807.032-1.18.112-1.25.088-2.376.855-3.64.785-.256-.397-.727-.565-1.164-.676-.837-.06-1.349-.87-2.187-.93-.512-.1-1.174.003-1.584.35a2.507 2.507 0 0 0-.498.094 2.122 2.122 0 0 0-.77.276 1.61 1.61 0 0 0-.536.506l-.01.014a1.53 1.53 0 0 0-.112.217l-.01.026a1.47 1.47 0 0 0-.074.244l-.108.25-.015.033c.05-.04.101-.079.153-.116.205-.123.414-.243.638-.322.138-.044.28-.072.426-.081.122.01.262.03.39.025.104.013.173-.015.22-.067.007-.005.015-.007.021-.013.26.493 1.01.625 1.539.594-.746.35-1.662-.001-2.399.348l.004-.006-.014.008-.006.004-.018.011c-.056.028-.11.06-.164.098a5.393 5.393 0 0 0-.741.534c-.117.095-.23.195-.334.303a1.53 1.53 0 0 0-.176.262 1.9 1.9 0 0 0-.308.795l-.09.297c.14-.119.283-.251.43-.376.12-.06.22-.156.327-.24.14-.08.29-.133.455-.149.017.003.032.002.05.006.08 0 .234.032.374.044.145.026.28.036.307-.065.537.334 1.184.1 1.755-.025.277-.053.711.032.278.265-.174.43-.657.433-1.012.635a.773.773 0 0 0-.286.435c-.444.29-.969.423-1.5.419a3.13 3.13 0 0 1-.29-.016c.61.351 1.239.741 1.953.826.156.004.312-.013.468-.034a.953.953 0 0 0 .289.095c.377.417.833.855 1.439.764.244.046.517-.032.568-.214.433.073.913-.148 1.234-.433.578-.315.33-1.161.874-1.477 1.34-.12 2.392.966 3.7 1.066-.206-.363-.568-.592-.796-.934.455.032.9.242 1.352.342.958.317 2.235.657 3.022-.201a2.753 2.753 0 0 1-1.468-1.027c.906.141 2 .423 3.007.4.534-.069 1.201.059 1.635-.312.215-.552-.688-.54-.84-.965-.105-.144-.033-.594.078-.566.485.517 1.188-.04 1.664-.276 1.067.042 2.152.31 3.239.268.843.061 1.603-.286 2.39-.514-.061.172-.022.414.062.569-.913 1.3-2.485 1.955-3.987 2.251-.273.12-.836-.013-.93.328.297.254.799.258 1.072.593-.568.304-.97 1.018-.772 1.672.41.76.68 1.714.27 2.536-.064.138-.367.617-.297.272-.595.176-1.102-.312-1.366-.79-.423.198-.913.033-1.257-.245-.284-.366-.8-.64-1.23-.322-.023.012-.042.027-.063.04-.14.018-.28.04-.364.056a1.815 1.815 0 0 0-.348.102 1.605 1.605 0 0 0-.68.44 1.808 1.808 0 0 0-.302.42l-.01.02-.015.031c-.08.153-.144.316-.183.487-.03.095-.062.19-.093.284.139-.125.288-.252.451-.347a.477.477 0 0 0 .154-.045.429.429 0 0 1 .064-.053.896.896 0 0 1 .338-.051c.041-.003.086-.004.131-.003.17.03.342.078.489.049.12.015.23.028.324.03.09.07.196.123.32.148.153.124.634-.1.486.191-.692.024-1.497-.194-2.082.294a.97.97 0 0 0-.118.113c.008-.045.013-.091.022-.135-.532.716-1.182 1.482-1.127 2.434l-.02.238c.08-.082.16-.165.245-.244.253-.237.54-.444.889-.504.142-.066.533.038.626.021.063.023.127.042.193.052.578.187.926-.542 1.496-.358.355.054.765.217.147.272-.464-.006-.861.323-1.041.73-.18.2-.334.421-.458.658-.15.25-.277.521-.3.79a3.718 3.718 0 0 0-.101.653l-.037.235c.1-.104.21-.197.327-.28l.013.012c.043-.04.09-.077.136-.11.18-.11.372-.198.574-.258a4.6 4.6 0 0 1 .607-.102c.033-.002.066-.005.1-.006a.25.25 0 0 0 .156-.028c.143-.018.284-.037.42-.066-.034-.017-.07-.028-.105-.043.71-.083 1.404-.595 1.682-1.252.572.099 1.126-.227 1.496-.639.056.417-.138.89-.528 1.08-.445.153-.59.57-.525.974a.48.48 0 0 1 .028-.497c-.34.551-.975.63-1.57.562.268.413.691.765 1.2.796.215.016.583 0 .653-.218.153.16.354.27.588.282.48.05 1.038-.15 1.212-.638.003-.44.354-.71.703-.925.64-.329.408-1.153.802-1.637-.042-.283.167-.539.428-.657.708-.248.733-1.094.548-1.7-.309-1.025.716-1.735 1.333-2.371.315-.232.623-.713.462-1.086.411.283.154.947.085 1.372-.299 1.103.771 1.986 1.72 2.264 1.838.592 3.656-.39 5.315-1.034.17.683.225 1.407.01 2.077-.08.64-.863.92-.867 1.568.137.376-.53.29-.777.343-1.027-.047-2.153.112-2.9.895-.551-.03-1.102.148-1.562.447a1.37 1.37 0 0 0-.79 1.14 3.041 3.041 0 0 0-.289.519 2.29 2.29 0 0 0 .23 2.42l.166.233a1.619 1.619 0 0 1-.025-.152c-.084-.724.343-1.367.868-1.839.288-.001.588-.125.804-.327.365-.34.237-.133.223.168-.612.138-1.217.863-.953 1.508-.46.512-.598 1.389.024 1.832l.06.063.061.063c.007-.633.514-1.044 1.043-1.295.713-.063 1.441-.635 1.467-1.373-.093-.387.334-.677.615-.368-.585.544-.602 1.707-.018 2.254a.489.489 0 0 0-.099.016c-.292.353-.768.408-1.13.66.101.45.656.363.996.444.755.042 1.384-.45 1.811-1.027a.276.276 0 0 0 .022-.107c.038-.031.076-.065.11-.1.65-.587-.056-1.435.165-2.118.343-.297.895-.315 1.111-.78.316.679-.647.918-.804 1.48-.057.452.202.812.568 1.03a.507.507 0 0 1-.229-.125c-.338.308-.445.788-.811 1.074-.406.293.581.093.721.099.406-.088 1.07-.328 1.046-.826.135.008.269 0 .394-.03.95-.574 1.076-1.838.997-2.846.292-.52.803-.991 1.086-1.561.454-.542.386-1.296.037-1.87-.432-.598-.455-1.727.356-2.001.34-.192.82.192 1.069-.164-.015-.351-.451-.65-.462-1.06-.228-1.04.722-1.757.988-2.673.066-.406-.431-.317-.655-.202-.336.135-1.174.034-.898-.475.435-.448 1.324-.71 1.223-1.492-.35.083-.711.15-1.073.115.776-.471 1.043-1.584.555-2.355-.21.709-1.32.706-1.57.033-.15-1.112.967-1.821 1.316-2.784a6.078 6.078 0 0 0 1.525 1.877c.668.433 1.357 1.01 2.195 1.017.463.466 1.121.772 1.787.714.776-.188 1.523-.51 2.316-.658.858-.176 1.897-.564 2.077-1.543.26-.04.688-.083.912-.35 1.094-1.383 2.265-2.995 2.177-4.85-.092-.286-.086-.563.196-.746.688-1.157.313-2.598-.15-3.77-.064-.506-.616-.568-.936-.833-.08-1-.556-1.963-1.297-2.648-.555-.442-1.137-1.1-1.92-.993-.635.194-1.042-.393-1.576-.613-.841-.275-1.761-.098-2.632-.124-1.736-.068-3.687.718-4.371 2.42-.155.577-.587 1.409.014 1.867.283.048.376.281.39.545.547 1.3 2.272 2.246 3.587 1.465.325-.033.564-.636.109-.638-.695.349-1.758-.167-1.653-1.01 1.725-.137 3.532-.755 4.76-2.049.18.635.508 1.321 1.057 1.753.46.463 1.22.439 1.643.918-.355.595-.58 1.366-.375 2.073.068.733.675 1.19 1.238 1.57-1.544.712-2.387 2.435-2.463 4.075a5.162 5.162 0 0 0-2.192.235c-.79.083-.922 1.1-1.634 1.298-.096-.194.063-.604-.03-.874a6.13 6.13 0 0 0-2.552-2.393c-.806-.304-1.737-.598-2.591-.325-.799-1.071-1.73-2.058-2.83-2.821-.862-.684-1.889-1.018-2.954-1.162-.382-.533-.624-1.286-.207-1.86 1.145-.944 2.758-.684 4.093-1.187.054.001.108.006.161.007.244.117.552-.15.471-.354.075.007.15.016.225.022l.308.033c-.711-.444-1.205-1.239-1.24-2.066-.115-1.797 1.49-3.147 3.05-3.677.204-.072.659-.148.674-.384.314.044.674-.014.6-.41-.139-.044-.28-.084-.42-.122-.396-.655-.353-1.491-.132-2.204.59-2.124 2.757-3.343 4.8-3.759.222.026.652-.166.575-.388.456-.008.912-.025 1.366-.07.333-.046-.553-.335-.785-.426-5.221-1.02-10.826.502-14.958 3.818-.929.812-1.87 1.627-2.697 2.546-.29.212-.273.93-.747.762-.21-.649.464-1.147.654-1.727.35-.595-.088-1.394-.773-1.437-.44-.039-.981.254-1.104.678.24.208.703-.113.891.28.375.697-.59 1.014-.781 1.6-.368 1.9-.146 3.863-.319 5.786.044.87-.418 1.723-1.214 2.12-.565.398-1.332.45-1.822.948a.933.933 0 0 0-.504-.698c.389-.111.738-.32.946-.697-.332.068-.716.002-.914-.301-.153-.152-.32-.856-.004-.549.452.463 1.352.238 1.468-.404.022-.452-.61-.055-.7-.514-.44-.913.849-1.448.688-2.336.552.266 1.206-.046 1.519-.533-.34.086-.762.037-.963-.286.461.128 1.084.017 1.29-.467.2-.267.014-.626-.325-.585-.6.02-.466-.795-.33-1.171.585-1.91-.725-3.866-2.354-4.778.36-.161.813-.08 1.209-.066-.589-1.208-2.06-1.614-3.31-1.521.02-.505.466-.858.896-1.038-.513-.672-1.295-1.107-2.119-1.268a1.284 1.284 0 0 0-.394-.09zm-8.01 7.428c.112.076.21.148.095.213a1.257 1.257 0 0 1-.115.143.637.637 0 0 0 .027-.328l-.007-.028zm-.155 11.283l.013.044c-.005.005-.01.014-.015.02.001-.022 0-.043.002-.064zm4.723 6.13a.104.104 0 0 1 .036.041c-.13.222-.113-.08-.036-.04zm12.31 2.216c.44.136.822.392 1.006.836.09.653-.092 1.282-.396 1.861.262-.617.393-1.278.3-1.967a1.996 1.996 0 0 0-.91-.73zm-21.64 3.253a.73.73 0 0 1 .23.054c-.036.156-.106.322-.166.49-.453.256-.967.466-1.474.343a.81.81 0 0 0 .199-.038c.347-.284.697-.88 1.21-.849z" transform="matrix(.5 0 0 .5 22 -31.5)"/><path style="opacity:1;vector-effect:none;fill:url(#d);fill-opacity:1;stroke:none;stroke-width:.35277775;stroke-linecap:butt;stroke-linejoin:miter;stroke-miterlimit:4;stroke-dasharray:none;stroke-dashoffset:0;stroke-opacity:1" d="M61.983 103.773c-1.142-.172-1.305-1.85-.566-2.538-.281-.309-.707-.019-.615.369-.041 1.176-1.87 1.934-2.572.87-.452-.68.207-1.519.87-1.669.014-.3.142-.507-.223-.168-.415.388-1.142.5-1.498-.027-.528-.64-.199-1.645.534-1.967.46-.299 1.01-.477 1.563-.447.746-.783 1.872-.942 2.9-.895.246-.053.912.034.776-.343.003-.647.787-.927.866-1.568.216-.67.162-1.394-.01-2.077-1.658.644-3.476 1.626-5.314 1.034-.949-.278-2.019-1.161-1.72-2.264.076-.468.383-1.227-.229-1.447-.347-.38.362-.67.529-.952.803-.883 1.604-2.046 1.434-3.293-.363-.876-1.495-1.02-2.33-.957-1.101.11-2.084.768-3.217.686-1.087.041-2.172-.226-3.24-.268-.475.235-1.178.792-1.663.276-.11-.028-.184.422-.078.566.151.424 1.055.413.84.964-.434.371-1.101.244-1.636.313-1.007.023-2.1-.26-3.006-.4.36.491.88.863 1.468 1.026-.787.858-2.064.518-3.022.201-.452-.1-.897-.31-1.352-.341.228.342.59.57.796.933-1.307-.1-2.36-1.186-3.7-1.066-.544.317-.296 1.162-.874 1.477-.403.359-1.059.623-1.554.32-.279-.403.058-.86.152-1.258-.644-.262-1.044.47-1.44.794-.897.301-1.846-1.06-1.033-1.697.354-.203.838-.206 1.012-.635.433-.233-.001-.319-.278-.266-.608.133-1.301.39-1.856-.045-.455-.237-.77-.994-.233-1.314.769-.58 1.808-.1 2.636-.49-.639.037-1.6-.16-1.632-.947.068-.924 1.188-1.234 1.963-1.081.838.059 1.35.868 2.186.928.437.111.908.28 1.164.677 1.264.07 2.39-.697 3.641-.785.373-.08.903-.02 1.18-.113.01-.268.088-.729-.312-.688-.476-.148-.788-.676-.871-1.1-.101.481-.012.973.05 1.452-1.968-1.06-2.856-3.642-2.053-5.71.008-.224.162-.483.266-.59-.492-1.323.272-2.785 1.14-3.704-.308-.411.092-1 .382-1.322.358-.388.941-.083 1.32-.447.335-.169.839-.783 1.139-.255.183.248.01.637-.025.818.546.031 1.083-.105 1.621-.174-.392.424-.788.895-1.345 1.102 1.338.675 3.272.702 4.25-.597.466-.106.3.49.341.742.214 1.138 1.489 1.667 2.54 1.614.355.09.645.406.69.77.49-.498 1.257-.55 1.822-.947.796-.397 1.258-1.251 1.214-2.12.173-1.924-.049-3.886.32-5.787.19-.586 1.155-.903.78-1.6-.188-.393-.65-.071-.89-.28.122-.423.663-.717 1.103-.677.685.042 1.122.842.773 1.436-.19.58-.864 1.078-.654 1.728.474.167.456-.551.747-.762.826-.92 1.768-1.735 2.697-2.547 4.132-3.316 9.737-4.838 14.957-3.818.232.09 1.12.38.786.426-1.746.172-3.506-.047-5.239.25-4.364.526-8.825 2.343-11.566 5.925-.256.327-.502.678-.726 1.037 2.946-.958 6.078-1.632 9.182-1.147a12.78 12.78 0 0 1 2.16.478c.097.52-.553.458-.864.348-3.593-.434-7.35-.045-10.662 1.498.42 1.733 2.157 2.768 3.651 3.536 1.297.6 2.693.874 4.106.96.402.177-.01.642-.319.494-3.346-.056-6.843-1.6-8.588-4.559-.614.573-.163 1.49-.042 2.18.273 1.154.823 2.36.543 3.557-.455.845-1.641.586-2.24 1.242 1.136.895 2.68.528 4.02.55 1.8-.09 3.747.069 5.213 1.232 1.101.763 2.033 1.75 2.83 2.821.855-.273 1.786.021 2.591.325a6.131 6.131 0 0 1 2.553 2.393c.093.27-.066.68.03.874.712-.197.843-1.214 1.634-1.298a5.164 5.164 0 0 1 2.193-.234c.075-1.64.918-3.364 2.462-4.076-.563-.38-1.17-.836-1.238-1.57-.205-.706.02-1.478.375-2.073-.423-.479-1.184-.454-1.643-.918-.549-.431-.876-1.118-1.058-1.752-1.228 1.294-3.034 1.911-4.759 2.048-.105.843.957 1.359 1.653 1.01.454.002.216.605-.11.638-1.314.781-3.04-.164-3.586-1.465-.014-.263-.107-.496-.39-.544-.6-.459-.169-1.29-.014-1.867.684-1.702 2.635-2.489 4.371-2.421.87.027 1.79-.15 2.632.124.533.22.94.807 1.577.613.782-.107 1.364.552 1.918.994a4.094 4.094 0 0 1 1.298 2.648c.32.265.872.327.936.832.463 1.172.838 2.614.15 3.77-.282.184-.288.46-.196.746.088 1.856-1.083 3.467-2.177 4.85-.225.267-.651.31-.912.35-.18.98-1.219 1.367-2.077 1.544-.793.147-1.54.47-2.316.658-.666.057-1.324-.249-1.787-.715-.838-.007-1.527-.584-2.196-1.016a6.079 6.079 0 0 1-1.524-1.878c-.35.963-1.465 1.672-1.315 2.784.25.673 1.358.676 1.57-.032.486.77.22 1.883-.556 2.354.362.035.723-.032 1.073-.115.1.782-.788 1.045-1.223 1.493-.276.508.562.61.897.475.224-.116.722-.205.656.202-.266.915-1.216 1.633-.988 2.672.01.41.447.71.462 1.06-.249.357-.729-.028-1.069.164-.811.275-.788 1.403-.357 2.001.35.574.417 1.328-.036 1.87-.283.57-.794 1.04-1.087 1.561.08 1.008-.045 2.273-.996 2.846-.749.18-1.799-.357-1.689-1.221.157-.563 1.12-.802.804-1.481-.216.465-.768.483-1.111.78-.22.683.485 1.532-.164 2.118a1.37 1.37 0 0 1-1.127.398zM45.428 83.381c-.105-.179-.148.253 0 0z" transform="matrix(.5 0 0 .5 25.274 -26.823)"/><path style="opacity:1;vector-effect:none;fill:url(#e);fill-opacity:1;stroke:none;stroke-width:.35277775;stroke-linecap:butt;stroke-linejoin:miter;stroke-miterlimit:4;stroke-dasharray:none;stroke-dashoffset:0;stroke-opacity:1" d="M58.455 68.285c2.033-3.688 5.924-5.98 9.926-6.945 2.133-.47 4.365-.908 6.542-.545.35.27-.21.547-.473.516-2.044.416-4.211 1.634-4.8 3.758-.255.817-.275 1.797.334 2.479-3.842-1.204-7.953-.371-11.657.945l.128-.208z" transform="matrix(.5 0 0 .5 25.274 -26.823)"/><path style="opacity:1;vector-effect:none;fill:url(#f);fill-opacity:1;stroke:none;stroke-width:.35277775;stroke-linecap:butt;stroke-linejoin:miter;stroke-miterlimit:4;stroke-dasharray:none;stroke-dashoffset:0;stroke-opacity:1" d="M66.808 73.9c-2.844-.24-5.916-1.076-7.777-3.395a3.1 3.1 0 0 1-.564-1.304c3.402-1.674 7.33-2.171 11.065-1.59.278.396-.354.49-.606.578-1.559.53-3.164 1.88-3.05 3.677.036.827.53 1.622 1.24 2.066l-.308-.033z" transform="matrix(.5 0 0 .5 25.274 -26.823)"/><path style="opacity:1;vector-effect:none;fill:url(#g);fill-opacity:1;stroke:none;stroke-width:.35277775;stroke-linecap:butt;stroke-linejoin:miter;stroke-miterlimit:4;stroke-dasharray:none;stroke-dashoffset:0;stroke-opacity:1" d="M63.108 103.937c.366-.286.474-.767.812-1.075.273.266.723.06.956.326.045.513-.634.758-1.046.847-.14-.006-1.128.195-.722-.098z" transform="matrix(.5 0 0 .5 25.274 -26.823)"/><path style="opacity:1;vector-effect:none;fill:url(#h);fill-opacity:1;stroke:none;stroke-width:.35277775;stroke-linecap:butt;stroke-linejoin:miter;stroke-miterlimit:4;stroke-dasharray:none;stroke-dashoffset:0;stroke-opacity:1" d="M57.14 77.411c-.507-.061-1.156-.292-1.37-.74.327-.975 1.732-.509 2.168-1.352.119-1.65-.74-3.165-.9-4.79-.024-.377.28-1.086.72-.825.4.367.507.95.922 1.318 1.588 1.951 4.203 2.566 6.584 2.873.244.072.897.164.853.265-1.366.593-3.066.268-4.258 1.252-.447.614-.14 1.439.289 1.974-1.646-.337-3.339.1-5.007.025z" transform="matrix(.5 0 0 .5 25.274 -26.823)"/><path style="opacity:1;vector-effect:none;fill:url(#i);fill-opacity:1;stroke:none;stroke-width:.35277775;stroke-linecap:butt;stroke-linejoin:miter;stroke-miterlimit:4;stroke-dasharray:none;stroke-dashoffset:0;stroke-opacity:1" d="M61.166 104.61c-.34-.082-.895.004-.997-.444.362-.253.839-.308 1.13-.66.383-.116.763.264 1.144.005.157-.073.668-.285.535.072-.428.576-1.057 1.068-1.812 1.026z" transform="matrix(.5 0 0 .5 25.274 -26.823)"/><path style="opacity:1;vector-effect:none;fill:url(#j);fill-opacity:1;stroke:none;stroke-width:.35277775;stroke-linecap:butt;stroke-linejoin:miter;stroke-miterlimit:4;stroke-dasharray:none;stroke-dashoffset:0;stroke-opacity:1" d="M51.4 99.726c-.916-.048-1.322-1.573-.374-1.9.39-.19.585-.663.529-1.08-.37.412-.925.738-1.496.64-.435 1.027-1.886 1.706-2.829.928-.693-.645-.038-1.873.856-1.862.618-.055.208-.218-.147-.272-.57-.184-.918.545-1.497.358-.847-.135-1.465-1.364-.71-1.975.586-.488 1.39-.27 2.082-.294.148-.29-.332-.067-.485-.19-.751-.154-.889-1.26-.213-1.61.429-.318.946-.043 1.23.323.344.277.834.443 1.257.244.264.478.771.967 1.366.791-.07.345.232-.135.297-.272.41-.822.14-1.776-.27-2.536-.198-.654.204-1.369.772-1.672-.273-.335-.775-.34-1.072-.594.094-.341.657-.208.93-.327 1.502-.296 3.074-.95 3.987-2.251-.145-.27-.169-.81.27-.77.964-.195 2.155.015 2.73.88.218 1.629-.8 3.107-1.903 4.198.478.376.102 1.031-.282 1.314-.618.637-1.643 1.346-1.334 2.372.185.605.16 1.452-.548 1.7-.261.118-.47.373-.428.656-.394.484-.161 1.309-.802 1.637-.35.215-.7.485-.703.925-.174.488-.732.688-1.212.639z" transform="matrix(.5 0 0 .5 25.274 -26.823)"/><path style="opacity:1;vector-effect:none;fill:url(#k);fill-opacity:1;stroke:none;stroke-width:.35277775;stroke-linecap:butt;stroke-linejoin:miter;stroke-miterlimit:4;stroke-dasharray:none;stroke-dashoffset:0;stroke-opacity:1" d="M58.17 104.146c-.682-.487-.45-1.498.119-1.972.218.498.756.714 1.272.705-.601.236-1.261.67-1.269 1.393l-.061-.064z" transform="matrix(.5 0 0 .5 25.274 -26.823)"/><path style="opacity:1;vector-effect:none;fill:url(#l);fill-opacity:1;stroke:none;stroke-width:.35277775;stroke-linecap:butt;stroke-linejoin:miter;stroke-miterlimit:4;stroke-dasharray:none;stroke-dashoffset:0;stroke-opacity:1" d="M57.064 102.723a2.29 2.29 0 0 1-.23-2.421c.155-.367.401-.682.64-.997-.108.58-.14 1.538.664 1.599-.592.508-1.083 1.236-.908 2.051l-.166-.232z" transform="matrix(.5 0 0 .5 25.274 -26.823)"/><path style="opacity:1;vector-effect:none;fill:url(#m);fill-opacity:1;stroke:none;stroke-width:.35277775;stroke-linecap:butt;stroke-linejoin:miter;stroke-miterlimit:4;stroke-dasharray:none;stroke-dashoffset:0;stroke-opacity:1" d="M51.248 75.21c-1.144-.087-2-1.218-1.982-2.328-.924 1.238-2.74 1.313-4.063.743-.413-.134-.823-.275-1.236-.413.501-.104 1.312-.298 1.532-.66-.496.094-.995-.032-1.492-.057.364-.196.489-.63.385-1.012-1.061 1.184-3.39 1.04-4.054-.487-.14-.415-.106-.98.319-1.218.337.154.307.894.788.652.358-.272.418-1.027 1.005-.925.365-.005.712-.476.302-.712-.475-.527-.351-1.578.44-1.703.657-.168 1.68-.166 1.836-.957-.812-.102-1.293-1.087-1.03-1.828-.651-.18-.876-1.086-.489-1.603-.498-.319-.341-1.063.107-1.342.305-.49-.054-1.151-.575-1.298-.335-.354.283-.636.587-.563.342 0 .654.163.971.267a1.037 1.037 0 0 0-1.166-.528c.763-.697 1.854-.482 2.748-.222 1.05.349 1.977-.855 3.048-.427.823.16 1.604.595 2.118 1.267-.43.18-.877.533-.897 1.038 1.25-.092 2.722.314 3.31 1.522-.395-.014-.848-.096-1.208.065 1.629.912 2.939 2.87 2.353 4.778-.135.376-.268 1.191.331 1.171.339-.04.524.318.326.585-.207.484-.83.596-1.292.468.202.322.624.371.964.286-.313.487-.968.798-1.52.532.161.888-1.128 1.424-.687 2.336.09.46.722.062.7.514-.116.642-1.016.867-1.468.405-.317-.307-.149.396.004.548.197.303.582.369.914.302-.38.684-1.216.827-1.929.804z" transform="matrix(.5 0 0 .5 25.274 -26.823)"/><path style="opacity:1;vector-effect:none;fill:url(#n);fill-opacity:1;stroke:none;stroke-width:.35277775;stroke-linecap:butt;stroke-linejoin:miter;stroke-miterlimit:4;stroke-dasharray:none;stroke-dashoffset:0;stroke-opacity:1" d="M50.16 99.662c-.509-.031-.932-.384-1.2-.797.595.068 1.23-.01 1.57-.562-.243.398.091.656.281.956.12.399-.385.422-.651.403z" transform="matrix(.5 0 0 .5 25.274 -26.823)"/><path style="opacity:1;vector-effect:none;fill:url(#o);fill-opacity:1;stroke:none;stroke-width:.35277775;stroke-linecap:butt;stroke-linejoin:miter;stroke-miterlimit:4;stroke-dasharray:none;stroke-dashoffset:0;stroke-opacity:1" d="M46.185 99.283c.054-.844.392-1.663 1.004-2.256-.292.58.048 1.323.699 1.41.287 0 .356.369.017.337a2.465 2.465 0 0 0-1.757.744l.037-.235z" transform="matrix(.5 0 0 .5 25.274 -26.823)"/><path style="opacity:1;vector-effect:none;fill:url(#p);fill-opacity:1;stroke:none;stroke-width:.35277775;stroke-linecap:butt;stroke-linejoin:miter;stroke-miterlimit:4;stroke-dasharray:none;stroke-dashoffset:0;stroke-opacity:1" d="M45.151 94.066c.173-.754.766-1.366 1.538-1.5.232-.046.871-.146.844-.027-.476.258-.942.959-.362 1.377-.208.065-.75-.09-1.106-.062-.404-.02-.726.242-1.007.496l.093-.284z" transform="matrix(.5 0 0 .5 25.274 -26.823)"/><path style="opacity:1;vector-effect:none;fill:url(#q);fill-opacity:1;stroke:none;stroke-width:.35277775;stroke-linecap:butt;stroke-linejoin:miter;stroke-miterlimit:4;stroke-dasharray:none;stroke-dashoffset:0;stroke-opacity:1" d="M44.51 96.975c-.055-.952.595-1.718 1.127-2.434-.13.66-.13 1.517.571 1.864.272.2-.39-.03-.585.06-.465.08-.819.421-1.133.748l.02-.238z" transform="matrix(.5 0 0 .5 25.274 -26.823)"/><path style="opacity:1;vector-effect:none;fill:url(#r);fill-opacity:1;stroke:none;stroke-width:.35277775;stroke-linecap:butt;stroke-linejoin:miter;stroke-miterlimit:4;stroke-dasharray:none;stroke-dashoffset:0;stroke-opacity:1" d="M41.286 68.81c-1.197-.039-2.346-.88-2.64-2.06.773-.006 1.77.123 2.273-.61.2-.114-.246-.246-.29-.395-.828-.8-2.195-.808-2.893-1.76-.232-.364-.238-.934.154-1.185-.024-.321-.178-.898.317-.926.848-.244 1.788-.188 2.616-.374.47-.677 1.372-.276 2.032-.523.334.027.81-.449 1.004-.162.289.525-.377.931-.452 1.348.182.432.317.994-.006 1.38.19.352.914.527.682 1.049-.228.717.561 1.2 1.14 1.373-.1 1.013-1.282 1.294-2.13 1.304-.536.014-1.454.103-1.454.818.113.285.062.773-.353.723zm.31-6.314c.213-.001.493-.23.356-.38-.245-.056-.557.022-.456.334.033.013.043.118.1.046z" transform="matrix(.5 0 0 .5 25.274 -26.823)"/><path style="opacity:1;vector-effect:none;fill:url(#s);fill-opacity:1;stroke:none;stroke-width:.35277775;stroke-linecap:butt;stroke-linejoin:miter;stroke-miterlimit:4;stroke-dasharray:none;stroke-dashoffset:0;stroke-opacity:1" d="M41.622 62.683c-.657-.09-.07-1.196.345-.692.115.262.06.781-.345.692z" transform="matrix(.5 0 0 .5 25.274 -26.823)"/><path style="opacity:1;vector-effect:none;fill:url(#t);fill-opacity:1;stroke:none;stroke-width:.35277775;stroke-linecap:butt;stroke-linejoin:miter;stroke-miterlimit:4;stroke-dasharray:none;stroke-dashoffset:0;stroke-opacity:1" d="M40.044 66.82c-.468-.052-.417-.863.073-.801.157-.231.642-.514.714-.064.083.44-.348.892-.787.865z" transform="matrix(.5 0 0 .5 25.274 -26.823)"/><path style="opacity:1;vector-effect:none;fill:url(#u);fill-opacity:1;stroke:none;stroke-width:.35277775;stroke-linecap:butt;stroke-linejoin:miter;stroke-miterlimit:4;stroke-dasharray:none;stroke-dashoffset:0;stroke-opacity:1" d="M40.205 79.996c-.538-.171-.722-.799-1.226-.997-.092.384-.582.425-.8.124-1.034-.707-.858-2.298-1.83-3.002-.35-.056-1.025-.147-.852-.662.309-.756.532-1.851-.168-2.45-.347.01-.718.006-1.036-.083-.58.227-1.165 1.006-1.847.603-.612-.445-.42-1.655.413-1.667.347.004.277-.344-.002-.378-.534-.115-1.304.27-1.65-.339-.503-.772.49-1.738 1.29-1.489.277-.024.647.185.853-.065-.447-.528-.646-1.537.095-1.91.748-.346 1.562.362 1.584 1.125.018.387.122.845.564.896-.3-.674.441-1.462 1.131-1.154.913.263 1.142 1.502.648 2.222.906.575.615 1.912 1.457 2.543.657.632 1.497 1.038 2.132 1.695-.606.9-.016 2.052-.48 3.002-.191.688-.29 1.42-.1 2.101l-.176-.115z" transform="matrix(.5 0 0 .5 25.274 -26.823)"/><path style="opacity:1;vector-effect:none;fill:url(#v);fill-opacity:1;stroke:none;stroke-width:.35277775;stroke-linecap:butt;stroke-linejoin:miter;stroke-miterlimit:4;stroke-dasharray:none;stroke-dashoffset:0;stroke-opacity:1" d="M39.302 66.908c-.678-.075-.574-.914-.535-1.399.024-.244.424.09.586.188.333.255.571.63.653 1.042-.225.088-.457.189-.704.17z" transform="matrix(.5 0 0 .5 25.274 -26.823)"/><path style="opacity:1;vector-effect:none;fill:url(#w);fill-opacity:1;stroke:none;stroke-width:.35277775;stroke-linecap:butt;stroke-linejoin:miter;stroke-miterlimit:4;stroke-dasharray:none;stroke-dashoffset:0;stroke-opacity:1" d="M37.62 63.04c-.37.006-.141-.587-.487-.552-.173-.662.943-.738.945-.097.137.305-.106.705-.458.65z" transform="matrix(.5 0 0 .5 25.274 -26.823)"/><path style="opacity:1;vector-effect:none;fill:url(#x);fill-opacity:1;stroke:none;stroke-width:.35277775;stroke-linecap:butt;stroke-linejoin:miter;stroke-miterlimit:4;stroke-dasharray:none;stroke-dashoffset:0;stroke-opacity:1" d="M37.075 68.927c-.375-.211-.801-.02-1.185-.163-.192-.274-.022-.801-.334-1.094-.26-.293.432-.091.597-.007.534.269.83.82 1.124 1.312l-.202-.048z" transform="matrix(.5 0 0 .5 25.274 -26.823)"/><path style="opacity:1;vector-effect:none;fill:url(#y);fill-opacity:1;stroke:none;stroke-width:.35277775;stroke-linecap:butt;stroke-linejoin:miter;stroke-miterlimit:4;stroke-dasharray:none;stroke-dashoffset:0;stroke-opacity:1" d="M35.891 90.448c-.654.099-1.137-.42-1.531-.862.676.354 1.389.001 1.972-.355.532-.189-.315.387.03.68.32.411-.112.605-.47.537z" transform="matrix(.5 0 0 .5 25.274 -26.823)"/><path style="opacity:1;vector-effect:none;fill:url(#z);fill-opacity:1;stroke:none;stroke-width:.35277775;stroke-linecap:butt;stroke-linejoin:miter;stroke-miterlimit:4;stroke-dasharray:none;stroke-dashoffset:0;stroke-opacity:1" d="M33.032 68.328c-.472-.275-.004-1.14-.633-1.344-.154-.324.406-.249.598-.238.565.09 1.103.467 1.317 1.007-.28.344-.876-.244-1.008.288-.044.122-.11.307-.274.287z" transform="matrix(.5 0 0 .5 25.274 -26.823)"/><path style="opacity:1;vector-effect:none;fill:url(#A);fill-opacity:1;stroke:none;stroke-width:.35277775;stroke-linecap:butt;stroke-linejoin:miter;stroke-miterlimit:4;stroke-dasharray:none;stroke-dashoffset:0;stroke-opacity:1" d="M33.696 89.624c-.714-.085-1.343-.475-1.953-.826.77.076 1.561-.12 2.132-.67.175-.03-.312.603.021.815.2.266.51.412.788.582-.33.023-.657.107-.988.099z" transform="matrix(.5 0 0 .5 25.274 -26.823)"/><path style="opacity:1;vector-effect:none;fill:url(#B);fill-opacity:1;stroke:none;stroke-width:.35277775;stroke-linecap:butt;stroke-linejoin:miter;stroke-miterlimit:4;stroke-dasharray:none;stroke-dashoffset:0;stroke-opacity:1" d="M31.837 84.908c.147-.731.811-1.176 1.512-1.283.328-.098 1.034-.21.411.144-.204.278.051 1.078-.534.908-.556-.07-1.089.17-1.512.513l.123-.282z" transform="matrix(.5 0 0 .5 25.274 -26.823)"/><path style="opacity:1;vector-effect:none;fill:url(#C);fill-opacity:1;stroke:none;stroke-width:.35277775;stroke-linecap:butt;stroke-linejoin:miter;stroke-miterlimit:4;stroke-dasharray:none;stroke-dashoffset:0;stroke-opacity:1" d="M32.289 73.72c-.85.047-1.426-.776-1.626-1.512.465.612 1.258.43 1.896.286-.124.086-.534.517-.098.735.386.214.228.57-.172.491z" transform="matrix(.5 0 0 .5 25.274 -26.823)"/><path style="opacity:1;vector-effect:none;fill:url(#D);fill-opacity:1;stroke:none;stroke-width:.35277775;stroke-linecap:butt;stroke-linejoin:miter;stroke-miterlimit:4;stroke-dasharray:none;stroke-dashoffset:0;stroke-opacity:1" d="M30.945 87.568c.132-.954.982-1.566 1.761-2.015-.331.429-.416 1.096.089 1.426.081.353-.458.106-.64.112-.54 0-.92.451-1.3.774l.09-.297z" transform="matrix(.5 0 0 .5 25.274 -26.823)"/><path style="opacity:1;vector-effect:none;fill:url(#E);fill-opacity:1;stroke:none;stroke-width:.35277775;stroke-linecap:butt;stroke-linejoin:miter;stroke-miterlimit:4;stroke-dasharray:none;stroke-dashoffset:0;stroke-opacity:1" d="M30.962 70.797c-.809-.297-.919-1.301-.874-2.043.317.73 1.13.94 1.845 1.024.347.133-.446.127-.506.43-.156.174-.187.583-.465.59z" transform="matrix(.5 0 0 .5 25.274 -26.823)"/></symbol><filter height="116%" width="116%" y="-8%" x="-8%" id="H"><feGaussianBlur in="SourceAlpha" stdDeviation="2" result="blurred"/><feOffset dy="2" in="blurred" result="shadow"/><feMerge><feMergeNode in="shadow"/><feMergeNode in="SourceGraphic"/></feMerge></filter></defs><path style="fill:#c6c7c9" d="M0 0h10v27H0z"/><path style="fill:#234f33" d="M9 0h40v27H9z"/><path style="fill:#1a2732" d="M48 0h10v27H48z"/><path style="fill:#af1e2d" d="M57 0h40v27H57z"/><path style="fill:#ad9b0c" d="M96 0h10v27H96z"/><use xlink:href="#F"/><use xlink:href="#G" class="device" style="filter:url(#H);fill:#e3dedb"/></svg>