<svg xmlns="http://www.w3.org/2000/svg" viewBox="0 0 99.57 24.45"><defs><style>.cls-1{fill:#006837;}.cls-2{fill:#f4c316;}.cls-3{fill:#c00;}.cls-4{fill:#fff;}.cls-5{stroke:#000;stroke-miterlimit:10;opacity:0.2;}</style></defs><title>MM-Asset 1</title><g id="Layer_2" data-name="Layer 2"><g id="_225X35" data-name="225X35"><rect width="99.57" height="24.45"/><polygon class="cls-1" points="49.78 0.18 0.18 0.18 0.18 24.27 49.78 24.27 99.39 24.27 99.39 0.18 49.78 0.18"/><polygon class="cls-2" points="0.69 0.18 0.08 0.18 0.08 24.27 0.69 24.27 6.67 24.27 6.67 0.18 0.69 0.18"/><polygon class="cls-2" points="93.51 0.18 92.9 0.18 92.9 24.27 93.51 24.27 99.49 24.27 99.49 0.18 93.51 0.18"/><polygon class="cls-3" points="38.8 0.18 36.32 0.18 36.32 24.27 38.8 24.27 63.25 24.27 63.25 0.18 38.8 0.18"/><polygon class="cls-4" points="45.16 0.18 44.11 0.18 44.11 24.27 45.16 24.27 55.45 24.27 55.45 0.18 45.16 0.18"/><line class="cls-5" x1="0.18" y1="0.88" x2="99.39" y2="0.88"/><line class="cls-5" x1="0.18" y1="3.72" x2="99.39" y2="3.72"/><line class="cls-5" x1="0.18" y1="6.55" x2="99.39" y2="6.55"/><line class="cls-5" x1="0.18" y1="9.39" x2="99.39" y2="9.39"/><line class="cls-5" x1="0.18" y1="12.22" x2="99.39" y2="12.22"/><line class="cls-5" x1="0.18" y1="15.06" x2="99.39" y2="15.06"/><line class="cls-5" x1="0.18" y1="17.89" x2="99.39" y2="17.89"/><line class="cls-5" x1="0.18" y1="20.73" x2="99.39" y2="20.73"/><line class="cls-5" x1="0.18" y1="23.56" x2="99.39" y2="23.56"/></g></g></svg>