<svg xmlns="http://www.w3.org/2000/svg" xmlns:xlink="http://www.w3.org/1999/xlink" width="105" height="27"><defs><linearGradient id="a" spreadMethod="repeat" x2="0" y2=".111"><stop offset="0" style="stop-color:#fff;stop-opacity:1"/><stop offset=".5" style="stop-color:#fff;stop-opacity:0"/><stop offset=".5" style="stop-color:#000;stop-opacity:0"/><stop offset="1" style="stop-color:#000;stop-opacitity:0"/></linearGradient><linearGradient id="b" x2="0" y2="1"><stop offset="0" style="stop-color:#fff;stop-opacity:1"/><stop offset=".25" style="stop-color:#fff;stop-opacity:0"/><stop offset=".75" style="stop-color:#000;stop-opacity:0"/><stop offset="1" style="stop-color:#000;stop-opacitity:0"/></linearGradient><symbol id="m"><path style="opacity:.125;fill:url(#a)" d="M3 0h99v27H3z"/><path style="opacity:.25;fill:url(#b)" d="M0 0h105v27H0z"/></symbol><linearGradient id="c"><stop offset="0" style="stop-color:#000;stop-opacity:1"/><stop style="stop-color:#000;stop-opacity:.01324503" offset=".296"/><stop offset=".316" style="stop-color:#fff;stop-opacity:0"/><stop offset=".493" style="stop-color:#fff;stop-opacity:.76158941"/><stop style="stop-color:#f3f3f3;stop-opacity:0" offset=".701"/><stop offset=".72" style="stop-color:#000;stop-opacity:0"/><stop offset="1" style="stop-color:#000;stop-opacity:1"/></linearGradient><linearGradient id="d"><stop offset="0" style="stop-color:#000;stop-opacity:1"/><stop style="stop-color:#000;stop-opacity:.01324503" offset=".296"/><stop offset=".003" style="stop-color:#fff;stop-opacity:0"/><stop offset=".493" style="stop-color:#fff;stop-opacity:.76158941"/><stop style="stop-color:#f3f3f3;stop-opacity:0" offset=".701"/><stop offset=".688" style="stop-color:#000;stop-opacity:0"/><stop offset="1" style="stop-color:#000;stop-opacity:1"/></linearGradient><linearGradient y2="319.448" x2="367.696" y1="459.86" x1="268.701" gradientTransform="translate(-90.914 -158.595)" gradientUnits="userSpaceOnUse" id="e" xlink:href="#c"/><linearGradient y2="470.971" x2="231.325" y1="298.235" x1="348.503" gradientTransform="translate(-90.914 -158.595)" gradientUnits="userSpaceOnUse" id="f" xlink:href="#c"/><linearGradient y2="93.873" x2="226.796" y1="70.609" x1="225.779" gradientTransform="rotate(20.209 399.521 -334.38) scale(3.77953)" gradientUnits="userSpaceOnUse" id="g" xlink:href="#c"/><linearGradient y2="-185.596" x2="86.397" y1="-195.574" x1="86.427" gradientUnits="userSpaceOnUse" id="h" xlink:href="#d"/><linearGradient y2="319.448" x2="367.696" y1="459.86" x1="268.701" gradientTransform="translate(-90.914 -158.595)" gradientUnits="userSpaceOnUse" id="i" xlink:href="#c"/><linearGradient y2="470.971" x2="231.325" y1="298.235" x1="348.503" gradientTransform="translate(-90.914 -158.595)" gradientUnits="userSpaceOnUse" id="j" xlink:href="#c"/><linearGradient y2="93.873" x2="226.796" y1="70.609" x1="225.779" gradientTransform="rotate(20.209 399.521 -334.38) scale(3.77953)" gradientUnits="userSpaceOnUse" id="k" xlink:href="#c"/><linearGradient y2="-185.596" x2="86.397" y1="-195.574" x1="86.427" gradientUnits="userSpaceOnUse" id="l" xlink:href="#d"/><symbol id="n"><g style="stroke-width:17.28150558"><path style="fill-rule:evenodd;stroke:none;stroke-width:.26458332px;stroke-linecap:butt;stroke-linejoin:miter;stroke-opacity:1" d="M38.554 63.41v9.261c22.695 33.276 72.228 58.242 109.498 74.328l-1.804 4.901c-.56 1.523-.313 3.006.555 3.326.869.32 2.018-.65 2.58-2.172l1.62-4.405 40.182 14.791c1.523.56 3.2-.214 3.76-1.737l.588-1.596a2.923 2.923 0 0 0-1.737-3.762l-40.181-14.79 1.213-3.295c.56-1.523.313-3.007-.555-3.326-.868-.32-2.018.65-2.579 2.172l-1.473 4.003c-31.482-10.201-92.835-47.672-109.4-73.686-.87-1.368-1.655-2.714-2.267-4.012zm2.267 8.668c.055.08.097.158.152.239l-.152-.226z" transform="translate(25.402 -12.76) scale(.23146)"/><path style="opacity:1;vector-effect:none;fill:url(#e);fill-opacity:1;fill-rule:evenodd;stroke:none;stroke-width:.99999994px;stroke-linecap:butt;stroke-linejoin:miter;stroke-miterlimit:4;stroke-dasharray:none;stroke-dashoffset:0;stroke-opacity:1" d="M54.8 81.068v35c85.778 125.767 272.99 220.13 413.854 280.926l4.313-11.715a359.843 359.843 0 0 1-11.336-3.966c-8.69-3.216-17.843-6.856-27.371-10.88a899.294 899.294 0 0 1-29.625-13.173 1131.324 1131.324 0 0 1-31.352-15.21 1319.49 1319.49 0 0 1-32.558-16.982 1438.44 1438.44 0 0 1-33.24-18.498 1474.29 1474.29 0 0 1-33.4-19.752 1427.16 1427.16 0 0 1-33.034-20.75 1308.207 1308.207 0 0 1-32.149-21.484 1137.369 1137.369 0 0 1-30.736-21.963 938.034 938.034 0 0 1-28.805-22.182c-9.22-7.4-18.033-14.794-26.347-22.138-8.315-7.344-16.131-14.638-23.366-21.838a410.52 410.52 0 0 1-10.404-10.725 335.271 335.271 0 0 1-9.46-10.55 268.59 268.59 0 0 1-8.456-10.348 211.039 211.039 0 0 1-7.383-10.11c-.195-.286-.381-.57-.574-.855V96.232c-3.292-5.17-6.256-10.255-8.57-15.164z" transform="translate(30.97 -3.048) scale(.06124)"/><path style="opacity:1;vector-effect:none;fill:url(#f);fill-opacity:1;fill-rule:evenodd;stroke:none;stroke-width:.99999994px;stroke-linecap:butt;stroke-linejoin:miter;stroke-miterlimit:4;stroke-dasharray:none;stroke-dashoffset:0;stroke-opacity:1" d="M63.371 96.232v17.594c.206.305.365.599.574.904a211.039 211.039 0 0 0 7.383 10.11 268.59 268.59 0 0 0 8.455 10.348 335.271 335.271 0 0 0 9.461 10.55 411.048 411.048 0 0 0 10.404 10.725c7.235 7.2 15.05 14.494 23.366 21.838 8.314 7.344 17.126 14.738 26.347 22.138a938.2 938.2 0 0 0 28.805 22.182 1137.369 1137.369 0 0 0 30.736 21.963 1308.207 1308.207 0 0 0 32.149 21.484 1427.16 1427.16 0 0 0 33.035 20.75 1474.29 1474.29 0 0 0 33.398 19.752 1438.44 1438.44 0 0 0 33.24 18.498 1319.49 1319.49 0 0 0 32.56 16.983 1130.665 1130.665 0 0 0 31.35 15.209 899.294 899.294 0 0 0 29.626 13.174c9.528 4.023 18.68 7.663 27.37 10.878a359.843 359.843 0 0 0 11.337 3.967l3.883-10.549C357.862 336.176 125.98 194.553 63.37 96.232z" transform="translate(30.97 -3.048) scale(.06124)"/><path style="color:#000;clip-rule:nonzero;display:inline;overflow:visible;visibility:visible;opacity:1;isolation:auto;mix-blend-mode:normal;color-interpolation:sRGB;color-interpolation-filters:linearRGB;solid-color:#000;solid-opacity:1;vector-effect:none;fill:url(#g);fill-opacity:1;fill-rule:nonzero;stroke:none;stroke-width:.99999994px;stroke-linecap:butt;stroke-linejoin:miter;stroke-miterlimit:4;stroke-dasharray:none;stroke-dashoffset:0;stroke-opacity:1;marker:none;color-rendering:auto;image-rendering:auto;shape-rendering:auto;text-rendering:auto;enable-background:accumulate" d="M489.678 376.418l-9.87 26.812 151.866 55.9a11.045 11.045 0 0 0 14.213-6.564l2.22-6.033a11.047 11.047 0 0 0-6.564-14.215z" transform="translate(30.97 -3.048) scale(.06124)"/><path transform="rotate(110.209 17.151 2.479) scale(.23146)" style="color:#000;clip-rule:nonzero;display:inline;overflow:visible;visibility:visible;opacity:1;isolation:auto;mix-blend-mode:normal;color-interpolation:sRGB;color-interpolation-filters:linearRGB;solid-color:#000;solid-opacity:1;vector-effect:none;fill:url(#h);fill-opacity:1;fill-rule:nonzero;stroke:none;stroke-width:.26458332px;stroke-linecap:butt;stroke-linejoin:miter;stroke-miterlimit:4;stroke-dasharray:none;stroke-dashoffset:0;stroke-opacity:1;marker:none;color-rendering:auto;image-rendering:auto;shape-rendering:auto;text-rendering:auto;enable-background:accumulate" d="M76.265-193.057h15.764c1.623 0 2.93.744 2.93 1.67 0 .925-1.307 1.67-2.93 1.67H76.265c-1.623 0-2.93-.745-2.93-1.67 0-.926 1.307-1.67 2.93-1.67z"/><path style="fill-rule:evenodd;stroke:none;stroke-width:.26458332px;stroke-linecap:butt;stroke-linejoin:miter;stroke-opacity:1" d="M38.554 63.41v9.261c22.695 33.276 72.228 58.242 109.498 74.328l-1.804 4.901c-.56 1.523-.313 3.006.555 3.326.869.32 2.018-.65 2.58-2.172l1.62-4.405 40.182 14.791c1.523.56 3.2-.214 3.76-1.737l.588-1.596a2.923 2.923 0 0 0-1.737-3.762l-40.181-14.79 1.213-3.295c.56-1.523.313-3.007-.555-3.326-.868-.32-2.018.65-2.579 2.172l-1.473 4.003c-31.482-10.201-92.835-47.672-109.4-73.686-.87-1.368-1.655-2.714-2.267-4.012zm2.267 8.668c.055.08.097.158.152.239l-.152-.226z" transform="matrix(-.23146 0 0 .23146 79.627 -12.76)"/><path style="opacity:1;vector-effect:none;fill:url(#i);fill-opacity:1;fill-rule:evenodd;stroke:none;stroke-width:.99999994px;stroke-linecap:butt;stroke-linejoin:miter;stroke-miterlimit:4;stroke-dasharray:none;stroke-dashoffset:0;stroke-opacity:1" d="M54.8 81.068v35c85.778 125.767 272.99 220.13 413.854 280.926l4.313-11.715a359.843 359.843 0 0 1-11.336-3.966c-8.69-3.216-17.843-6.856-27.371-10.88a899.294 899.294 0 0 1-29.625-13.173 1131.324 1131.324 0 0 1-31.352-15.21 1319.49 1319.49 0 0 1-32.558-16.982 1438.44 1438.44 0 0 1-33.24-18.498 1474.29 1474.29 0 0 1-33.4-19.752 1427.16 1427.16 0 0 1-33.034-20.75 1308.207 1308.207 0 0 1-32.149-21.484 1137.369 1137.369 0 0 1-30.736-21.963 938.034 938.034 0 0 1-28.805-22.182c-9.22-7.4-18.033-14.794-26.347-22.138-8.315-7.344-16.131-14.638-23.366-21.838a410.52 410.52 0 0 1-10.404-10.725 335.271 335.271 0 0 1-9.46-10.55 268.59 268.59 0 0 1-8.456-10.348 211.039 211.039 0 0 1-7.383-10.11c-.195-.286-.381-.57-.574-.855V96.232c-3.292-5.17-6.256-10.255-8.57-15.164z" transform="matrix(-.06124 0 0 .06124 74.059 -3.048)"/><path style="opacity:1;vector-effect:none;fill:url(#j);fill-opacity:1;fill-rule:evenodd;stroke:none;stroke-width:.99999994px;stroke-linecap:butt;stroke-linejoin:miter;stroke-miterlimit:4;stroke-dasharray:none;stroke-dashoffset:0;stroke-opacity:1" d="M63.371 96.232v17.594c.206.305.365.599.574.904a211.039 211.039 0 0 0 7.383 10.11 268.59 268.59 0 0 0 8.455 10.348 335.271 335.271 0 0 0 9.461 10.55 411.048 411.048 0 0 0 10.404 10.725c7.235 7.2 15.05 14.494 23.366 21.838 8.314 7.344 17.126 14.738 26.347 22.138a938.2 938.2 0 0 0 28.805 22.182 1137.369 1137.369 0 0 0 30.736 21.963 1308.207 1308.207 0 0 0 32.149 21.484 1427.16 1427.16 0 0 0 33.035 20.75 1474.29 1474.29 0 0 0 33.398 19.752 1438.44 1438.44 0 0 0 33.24 18.498 1319.49 1319.49 0 0 0 32.56 16.983 1130.665 1130.665 0 0 0 31.35 15.209 899.294 899.294 0 0 0 29.626 13.174c9.528 4.023 18.68 7.663 27.37 10.878a359.843 359.843 0 0 0 11.337 3.967l3.883-10.549C357.862 336.176 125.98 194.553 63.37 96.232z" transform="matrix(-.06124 0 0 .06124 74.059 -3.048)"/><path style="color:#000;clip-rule:nonzero;display:inline;overflow:visible;visibility:visible;opacity:1;isolation:auto;mix-blend-mode:normal;color-interpolation:sRGB;color-interpolation-filters:linearRGB;solid-color:#000;solid-opacity:1;vector-effect:none;fill:url(#k);fill-opacity:1;fill-rule:nonzero;stroke:none;stroke-width:.99999994px;stroke-linecap:butt;stroke-linejoin:miter;stroke-miterlimit:4;stroke-dasharray:none;stroke-dashoffset:0;stroke-opacity:1;marker:none;color-rendering:auto;image-rendering:auto;shape-rendering:auto;text-rendering:auto;enable-background:accumulate" d="M489.678 376.418l-9.87 26.812 151.866 55.9a11.045 11.045 0 0 0 14.213-6.564l2.22-6.033a11.047 11.047 0 0 0-6.564-14.215z" transform="matrix(-.06124 0 0 .06124 74.059 -3.048)"/><path transform="matrix(.07996 .21721 .21721 -.07996 79.627 -12.76)" style="color:#000;clip-rule:nonzero;display:inline;overflow:visible;visibility:visible;opacity:1;isolation:auto;mix-blend-mode:normal;color-interpolation:sRGB;color-interpolation-filters:linearRGB;solid-color:#000;solid-opacity:1;vector-effect:none;fill:url(#l);fill-opacity:1;fill-rule:nonzero;stroke:none;stroke-width:.26458332px;stroke-linecap:butt;stroke-linejoin:miter;stroke-miterlimit:4;stroke-dasharray:none;stroke-dashoffset:0;stroke-opacity:1;marker:none;color-rendering:auto;image-rendering:auto;shape-rendering:auto;text-rendering:auto;enable-background:accumulate" d="M76.265-193.057h15.764c1.623 0 2.93.744 2.93 1.67 0 .925-1.307 1.67-2.93 1.67H76.265c-1.623 0-2.93-.745-2.93-1.67 0-.926 1.307-1.67 2.93-1.67z"/></g></symbol><filter height="116%" width="116%" y="-8%" x="-8%" id="o"><feGaussianBlur in="SourceAlpha" stdDeviation="2" result="blurred"/><feOffset dy="2" in="blurred" result="shadow"/><feMerge><feMergeNode in="shadow"/><feMergeNode in="SourceGraphic"/></feMerge></filter></defs><path style="fill:#708a90" d="M0 0h16v27H0z"/><path style="fill:#af1e2d" d="M15 0h76v27H15z"/><path style="fill:#708a90" d="M90 0h16v27H90z"/><use xlink:href="#m"/><use xlink:href="#n" class="device" style="filter:url(#o);fill:#a05a2c"/></svg>