<svg xmlns="http://www.w3.org/2000/svg" xmlns:xlink="http://www.w3.org/1999/xlink" width="105" height="27"><defs><linearGradient id="a" spreadMethod="repeat" x2="0" y2=".111"><stop offset="0" style="stop-color:#fff;stop-opacity:1"/><stop offset=".5" style="stop-color:#fff;stop-opacity:0"/><stop offset=".5" style="stop-color:#000;stop-opacity:0"/><stop offset="1" style="stop-color:#000;stop-opacitity:0"/></linearGradient><linearGradient id="b" x2="0" y2="1"><stop offset="0" style="stop-color:#fff;stop-opacity:1"/><stop offset=".25" style="stop-color:#fff;stop-opacity:0"/><stop offset=".75" style="stop-color:#000;stop-opacity:0"/><stop offset="1" style="stop-color:#000;stop-opacitity:0"/></linearGradient><symbol id="c"><path style="opacity:.125;fill:url(#a)" d="M3 0h99v27H3z"/><path style="opacity:.25;fill:url(#b)" d="M0 0h105v27H0z"/></symbol></defs><path style="fill:#af1e2d" d="M0 0h13v27H0z"/><path style="fill:#ad9b0c" d="M12 0h12.4v27H12z"/><path style="fill:#af1e2d" d="M23.4 0h7v27h-7z"/><path style="fill:#ad9b0c" d="M29.4 0h12.4v27H29.4z"/><path style="fill:#af1e2d" d="M40.8 0h7v27h-7z"/><path style="fill:#ad9b0c" d="M46.8 0h12.4v27H46.8z"/><path style="fill:#af1e2d" d="M58.2 0h7v27h-7z"/><path style="fill:#ad9b0c" d="M64.2 0h12.4v27H64.2z"/><path style="fill:#af1e2d" d="M75.6 0h7v27h-7z"/><path style="fill:#ad9b0c" d="M81.6 0H94v27H81.6z"/><path style="fill:#af1e2d" d="M93 0h13v27H93z"/><use xlink:href="#c"/></svg>