<svg xmlns="http://www.w3.org/2000/svg" xmlns:xlink="http://www.w3.org/1999/xlink" width="105" height="27"><defs><linearGradient id="a" spreadMethod="repeat" x2="0" y2=".111"><stop offset="0" style="stop-color:#fff;stop-opacity:1"/><stop offset=".5" style="stop-color:#fff;stop-opacity:0"/><stop offset=".5" style="stop-color:#000;stop-opacity:0"/><stop offset="1" style="stop-color:#000;stop-opacitity:0"/></linearGradient><linearGradient id="b" x2="0" y2="1"><stop offset="0" style="stop-color:#fff;stop-opacity:1"/><stop offset=".25" style="stop-color:#fff;stop-opacity:0"/><stop offset=".75" style="stop-color:#000;stop-opacity:0"/><stop offset="1" style="stop-color:#000;stop-opacitity:0"/></linearGradient><symbol id="c"><path style="opacity:.125;fill:url(#a)" d="M3 0h99v27H3z"/><path style="opacity:.25;fill:url(#b)" d="M0 0h105v27H0z"/></symbol></defs><path style="fill:#af1e2d" d="M0 0h7v27H0z"/><path style="fill:#ad9b0c" d="M6 0h7v27H6z"/><path style="fill:#af1e2d" d="M12 0h7v27h-7z"/><path style="fill:#ad9b0c" d="M18 0h7v27h-7z"/><path style="fill:#6656bc" d="M24 0h58v27H24z"/><path style="fill:#ad9b0c" d="M81 0h7v27h-7z"/><path style="fill:#af1e2d" d="M87 0h7v27h-7z"/><path style="fill:#ad9b0c" d="M93 0h7v27h-7z"/><path style="fill:#af1e2d" d="M99 0h7v27h-7z"/><use xlink:href="#c"/></svg>