<svg xmlns="http://www.w3.org/2000/svg" xmlns:xlink="http://www.w3.org/1999/xlink" width="105" height="27"><defs><linearGradient id="a" spreadMethod="repeat" x2="0" y2=".111"><stop offset="0" style="stop-color:#fff;stop-opacity:1"/><stop offset=".5" style="stop-color:#fff;stop-opacity:0"/><stop offset=".5" style="stop-color:#000;stop-opacity:0"/><stop offset="1" style="stop-color:#000;stop-opacitity:0"/></linearGradient><linearGradient id="b" x2="0" y2="1"><stop offset="0" style="stop-color:#fff;stop-opacity:1"/><stop offset=".25" style="stop-color:#fff;stop-opacity:0"/><stop offset=".75" style="stop-color:#000;stop-opacity:0"/><stop offset="1" style="stop-color:#000;stop-opacitity:0"/></linearGradient><symbol id="c"><path style="opacity:.125;fill:url(#a)" d="M3 0h99v27H3z"/><path style="opacity:.25;fill:url(#b)" d="M0 0h105v27H0z"/></symbol></defs><path style="fill:#00b760" d="M0 0h10v27H0z"/><path style="fill:#fff" d="M9 0h7v27H9z"/><path style="fill:#fcd116" d="M15 0h7v27h-7z"/><path style="fill:#fff" d="M21 0h7v27h-7z"/><path style="fill:#00b760" d="M27 0h10v27H27z"/><path style="fill:#6656bc" d="M36 0h34v27H36z"/><path style="fill:#00b760" d="M69 0h10v27H69z"/><path style="fill:#fff" d="M78 0h7v27h-7z"/><path style="fill:#fcd116" d="M84 0h7v27h-7z"/><path style="fill:#fff" d="M90 0h7v27h-7z"/><path style="fill:#00b760" d="M96 0h10v27H96z"/><use xlink:href="#c"/></svg>