<svg xmlns="http://www.w3.org/2000/svg" xmlns:xlink="http://www.w3.org/1999/xlink" width="105" height="27"><defs><linearGradient id="a" spreadMethod="repeat" x2="0" y2=".111"><stop offset="0" style="stop-color:#fff;stop-opacity:1"/><stop offset=".5" style="stop-color:#fff;stop-opacity:0"/><stop offset=".5" style="stop-color:#000;stop-opacity:0"/><stop offset="1" style="stop-color:#000;stop-opacitity:0"/></linearGradient><linearGradient id="b" x2="0" y2="1"><stop offset="0" style="stop-color:#fff;stop-opacity:1"/><stop offset=".25" style="stop-color:#fff;stop-opacity:0"/><stop offset=".75" style="stop-color:#000;stop-opacity:0"/><stop offset="1" style="stop-color:#000;stop-opacitity:0"/></linearGradient><symbol id="c"><path style="opacity:.125;fill:url(#a)" d="M3 0h99v27H3z"/><path style="opacity:.25;fill:url(#b)" d="M0 0h105v27H0z"/></symbol></defs><path style="fill:#703572" d="M0 0h14.5v27H0z"/><path style="fill:#00b760" d="M13.5 0h10v27h-10z"/><path style="fill:#e8112d" d="M22.5 0h7v27h-7z"/><path style="fill:#00b760" d="M28.5 0h10v27h-10z"/><path style="fill:#703572" d="M37.5 0h31v27h-31z"/><path style="fill:#00b760" d="M67.5 0h10v27h-10z"/><path style="fill:#e8112d" d="M76.5 0h7v27h-7z"/><path style="fill:#00b760" d="M82.5 0h10v27h-10z"/><path style="fill:#703572" d="M91.5 0H106v27H91.5z"/><use xlink:href="#c"/></svg>