<svg xmlns="http://www.w3.org/2000/svg" xmlns:xlink="http://www.w3.org/1999/xlink" width="105" height="27"><defs><linearGradient id="a" spreadMethod="repeat" x2="0" y2=".111"><stop offset="0" style="stop-color:#fff;stop-opacity:1"/><stop offset=".5" style="stop-color:#fff;stop-opacity:0"/><stop offset=".5" style="stop-color:#000;stop-opacity:0"/><stop offset="1" style="stop-color:#000;stop-opacitity:0"/></linearGradient><linearGradient id="b" x2="0" y2="1"><stop offset="0" style="stop-color:#fff;stop-opacity:1"/><stop offset=".25" style="stop-color:#fff;stop-opacity:0"/><stop offset=".75" style="stop-color:#000;stop-opacity:0"/><stop offset="1" style="stop-color:#000;stop-opacitity:0"/></linearGradient><symbol id="i"><path style="opacity:.125;fill:url(#a)" d="M3 0h99v27H3z"/><path style="opacity:.25;fill:url(#b)" d="M0 0h105v27H0z"/></symbol><symbol id="l"><path style="stroke:none" d="M.001-9.88l2.411 3.257 3.94-.945-.246 4.044L9.73-1.716l-2.788 2.94L8.558 4.94l-4.026.46L3.38 9.284.001 7.05l-3.379 2.235L-4.53 5.4l-4.025-.46 1.615-3.716-2.789-2.94 3.626-1.808-.247-4.044 3.94.945z" transform="translate(52 13)"/><path d="M46.148 5.932L52.5 13.5l-2.41-6.623-3.942-.945zM52.5 13.5l6.352-7.568-3.942.945L52.5 13.5z" style="fill:#fff;fill-opacity:.71142859;stroke:none" transform="translate(-.5 -.5)"/><path d="M46.396 9.977l-3.626 1.808L52.5 13.5l-6.104-3.523zM52.5 13.5l9.73-1.715-3.626-1.808L52.5 13.5z" style="fill:#fff;fill-opacity:.50571445;stroke:none" transform="translate(-.5 -.5)"/><path d="M52.5 13.5l8.557 4.94-1.616-3.715L52.5 13.5zm0 0l-6.941 1.225-1.616 3.714L52.5 13.5z" style="fill:#fff;fill-opacity:.15142858;stroke:none" transform="translate(-.5 -.5)"/><path d="M52.5 13.5l3.379 9.285L57.03 18.9l-4.53-5.4zm0 0l-4.531 5.4 1.152 3.885L52.5 13.5z" style="fill:#000;fill-opacity:.27428571;stroke:none" transform="translate(-.5 -.5)"/><path d="M52.5 13.5l-3.379 9.285L52.5 20.55l3.379 2.236L52.5 13.5z" style="fill:#000;fill-opacity:.61142853;stroke:none" transform="translate(-.5 -.5)"/><path d="M52.5 13.5l4.531 5.4 4.026-.46L52.5 13.5zm0 0l-8.557 4.94 4.026.46 4.531-5.4z" style="fill:#000;fill-opacity:.54857142;stroke:none" transform="translate(-.5 -.5)"/><path d="M42.77 11.785l2.789 2.94L52.5 13.5l-9.73-1.715zM52.5 13.5l6.941 1.225 2.79-2.94L52.5 13.5z" style="fill:#000;fill-opacity:.34285715;stroke:none" transform="translate(-.5 -.5)"/><path d="M46.148 5.932l.248 4.045L52.5 13.5l-6.352-7.568zM52.5 13.5l6.104-3.523.248-4.045L52.5 13.5z" style="fill:#000;fill-opacity:.07142855;stroke:none" transform="translate(-.5 -.5)"/><path d="M52.5 3.62l-2.41 3.257L52.5 13.5l2.41-6.623-2.41-3.258z" style="fill:#fff;fill-opacity:.40285716;stroke:none" transform="translate(-.5 -.5)"/><g style="fill:none"><path style="fill:none" d="M52.5 3.62l2.41 3.256 3.94-.945-.246 4.045 3.626 1.808-2.788 2.94 1.614 3.716-4.025.46-1.152 3.884L52.5 20.55l-3.38 2.235-1.15-3.884-4.026-.46 1.614-3.716-2.788-2.94 3.626-1.808-.247-4.045 3.94.945z" transform="translate(-.499 -.5)"/><path d="M52.5 3.62v9.88m2.41-6.624L52.5 13.5m-6.35-7.569l6.349 7.569m-2.411-6.623L52.5 13.5m-9.73-1.716l9.729 1.717m-6.104-3.524L52.5 13.5m-8.556 4.94l8.556-4.939m-6.941 1.224L52.5 13.5m-3.38 9.284l3.38-9.283M47.97 18.9l4.53-5.4m3.38 9.284l-3.38-9.283m.002 7.048L52.5 13.5m8.556 4.94l-8.555-4.94m4.531 5.399L52.5 13.5m9.73-1.716L52.5 13.5m6.942 1.222L52.5 13.5m6.35-7.569L52.5 13.5m6.103-3.526L52.5 13.5" transform="translate(-.499 -.5)"/></g></symbol><linearGradient gradientUnits="userSpaceOnUse" y2="38.745" x2="93.148" y1="-6.534" x1="94.772" id="e" xlink:href="#c"/><linearGradient id="c"><stop offset="0" style="stop-color:#000;stop-opacity:.33112583"/><stop style="stop-color:#000;stop-opacity:0" offset=".339"/><stop offset=".365" style="stop-color:#fff;stop-opacity:0"/><stop style="stop-color:#fff;stop-opacity:.6754967" offset=".462"/><stop style="stop-color:#fff;stop-opacity:0" offset=".57"/><stop offset=".592" style="stop-color:#000;stop-opacity:0"/><stop offset="1" style="stop-color:#000;stop-opacity:.21568628"/></linearGradient><linearGradient gradientUnits="userSpaceOnUse" y2="38.514" x2="-5.868" y1="26.159" x1="118.322" id="f" xlink:href="#c"/><linearGradient gradientUnits="userSpaceOnUse" y2="36.599" x2="4.595" y1="-13.845" x1="1.21" id="g" xlink:href="#c"/><linearGradient gradientUnits="userSpaceOnUse" y2="2.225" x2="105" y1="2.225" id="h" xlink:href="#d"/><linearGradient id="d"><stop style="stop-color:#000;stop-opacity:.33112583" offset="0"/><stop offset=".339" style="stop-color:#000;stop-opacity:0"/><stop style="stop-color:#fff;stop-opacity:0" offset=".365"/><stop offset=".462" style="stop-color:#fff;stop-opacity:.6754967"/><stop offset=".57" style="stop-color:#fff;stop-opacity:0"/><stop style="stop-color:#000;stop-opacity:0" offset="1"/><stop style="stop-color:#000;stop-opacity:.21568628" offset="1"/></linearGradient><symbol id="j"><path style="color:#000;clip-rule:nonzero;display:inline;overflow:visible;visibility:visible;opacity:1;isolation:auto;mix-blend-mode:normal;color-interpolation:sRGB;color-interpolation-filters:linearRGB;solid-color:#000;solid-opacity:1;fill-opacity:1;fill-rule:nonzero;stroke:none;stroke-width:4.9000001;stroke-linecap:square;stroke-linejoin:round;stroke-miterlimit:4;stroke-dasharray:none;stroke-dashoffset:0;stroke-opacity:1;marker:none;color-rendering:auto;image-rendering:auto;shape-rendering:auto;text-rendering:auto;enable-background:accumulate" d="M0 0v27h105V0zm4.45 4.45h96.1v18.1H4.45z" transform="scale(1.00277)"/><path d="M100.55 22.55L105 27V0l-4.45 4.45z" style="color:#000;clip-rule:nonzero;display:inline;overflow:visible;visibility:visible;opacity:1;isolation:auto;mix-blend-mode:normal;color-interpolation:sRGB;color-interpolation-filters:linearRGB;solid-color:#000;solid-opacity:1;fill:url(#e);fill-opacity:1;fill-rule:nonzero;stroke:none;stroke-width:4.9000001;stroke-linecap:square;stroke-linejoin:round;stroke-miterlimit:4;stroke-dasharray:none;stroke-dashoffset:0;stroke-opacity:1;marker:none;color-rendering:auto;image-rendering:auto;shape-rendering:auto;text-rendering:auto;enable-background:accumulate" transform="scale(1.00277)"/><path d="M4.45 22.55L0 27h105l-4.45-4.45z" style="color:#000;clip-rule:nonzero;display:inline;overflow:visible;visibility:visible;opacity:1;isolation:auto;mix-blend-mode:normal;color-interpolation:sRGB;color-interpolation-filters:linearRGB;solid-color:#000;solid-opacity:1;fill:url(#f);fill-opacity:1;fill-rule:nonzero;stroke:none;stroke-width:4.9000001;stroke-linecap:square;stroke-linejoin:round;stroke-miterlimit:4;stroke-dasharray:none;stroke-dashoffset:0;stroke-opacity:1;marker:none;color-rendering:auto;image-rendering:auto;shape-rendering:auto;text-rendering:auto;enable-background:accumulate" transform="scale(1.00277)"/><path d="M0 0v27l4.45-4.45V4.45z" style="color:#000;clip-rule:nonzero;display:inline;overflow:visible;visibility:visible;opacity:1;isolation:auto;mix-blend-mode:normal;color-interpolation:sRGB;color-interpolation-filters:linearRGB;solid-color:#000;solid-opacity:1;fill:url(#g);fill-opacity:1;fill-rule:nonzero;stroke:none;stroke-width:4.9000001;stroke-linecap:square;stroke-linejoin:round;stroke-miterlimit:4;stroke-dasharray:none;stroke-dashoffset:0;stroke-opacity:1;marker:none;color-rendering:auto;image-rendering:auto;shape-rendering:auto;text-rendering:auto;enable-background:accumulate" transform="scale(1.00277)"/><path d="M0 0l4.45 4.45h96.1L105 0z" style="color:#000;clip-rule:nonzero;display:inline;overflow:visible;visibility:visible;opacity:1;isolation:auto;mix-blend-mode:normal;color-interpolation:sRGB;color-interpolation-filters:linearRGB;solid-color:#000;solid-opacity:1;fill:url(#h);fill-opacity:1;fill-rule:nonzero;stroke:none;stroke-width:4.9000001;stroke-linecap:square;stroke-linejoin:round;stroke-miterlimit:4;stroke-dasharray:none;stroke-dashoffset:0;stroke-opacity:1;marker:none;color-rendering:auto;image-rendering:auto;shape-rendering:auto;text-rendering:auto;enable-background:accumulate" transform="scale(1.00277)"/></symbol><filter height="116%" width="116%" y="-8%" x="-8%" id="k"><feGaussianBlur in="SourceAlpha" stdDeviation="2" result="blurred"/><feOffset dy="2" in="blurred" result="shadow"/><feMerge><feMergeNode in="shadow"/><feMergeNode in="SourceGraphic"/></feMerge></filter></defs><path style="fill:#ad9b0c" d="M0 0h16v27H0z"/><path style="fill:#e8112d" d="M15 0h76v27H15z"/><path style="fill:#ad9b0c" d="M90 0h16v27H90z"/><use xlink:href="#i"/><use xlink:href="#j" class="device" style="filter:url(#k);fill:#decd87"/><use x="-32.308" xlink:href="#l" class="device" style="filter:url(#k);fill:#a05a2c"/><use xlink:href="#l" class="device" style="filter:url(#k);fill:#a05a2c"/><use x="32.308" xlink:href="#l" class="device" style="filter:url(#k);fill:#a05a2c"/></svg>