<svg xmlns="http://www.w3.org/2000/svg" xmlns:xlink="http://www.w3.org/1999/xlink" width="105" height="27"><defs><linearGradient id="a" spreadMethod="repeat" x2="0" y2=".111"><stop offset="0" style="stop-color:#fff;stop-opacity:1"/><stop offset=".5" style="stop-color:#fff;stop-opacity:0"/><stop offset=".5" style="stop-color:#000;stop-opacity:0"/><stop offset="1" style="stop-color:#000;stop-opacitity:0"/></linearGradient><linearGradient id="b" x2="0" y2="1"><stop offset="0" style="stop-color:#fff;stop-opacity:1"/><stop offset=".25" style="stop-color:#fff;stop-opacity:0"/><stop offset=".75" style="stop-color:#000;stop-opacity:0"/><stop offset="1" style="stop-color:#000;stop-opacitity:0"/></linearGradient><symbol id="e"><path style="opacity:.125;fill:url(#a)" d="M3 0h99v27H3z"/><path style="opacity:.25;fill:url(#b)" d="M0 0h105v27H0z"/></symbol><symbol id="f"><g transform="translate(52 13)"><g id="d"><use transform="scale(-1 1) rotate(-34.087 -30.228 20)" xlink:href="#c"/><use xlink:href="#c" transform="rotate(-108 .001 -.001)"/><use xlink:href="#c" transform="scale(-1 1) rotate(-16.752 -56.767 44.812)"/><use transform="rotate(-96 .001 -.001)" xlink:href="#c"/><use transform="scale(-1 1) rotate(-28.752 -30.375 29.628)" xlink:href="#c"/><use xlink:href="#c" transform="rotate(-84 .001 -.001)"/><use xlink:href="#c" transform="scale(-1 1) rotate(-40.752 -19.333 23.276)"/><use transform="rotate(-72 .001 -.001)" xlink:href="#c"/><use transform="scale(-1 1) rotate(-52.752 -13.162 19.726)" xlink:href="#c"/><use xlink:href="#c" transform="rotate(-60 .001 -.001)"/><use xlink:href="#c" transform="scale(-1 1) rotate(-64.752 -9.15 17.417)"/><use transform="rotate(-48 .001 -.001)" xlink:href="#c"/><use transform="scale(-1 1) rotate(-76.752 -6.279 15.766)" xlink:href="#c"/><use xlink:href="#c" transform="rotate(-36 .001 -.001)"/><use xlink:href="#c" transform="scale(-1 1) rotate(-88.752 -4.08 14.5)"/><use transform="rotate(-24 .001 -.001)" xlink:href="#c"/><use transform="scale(1 -1) rotate(79.248 16.282 2.788)" xlink:href="#c"/><use xlink:href="#c" transform="rotate(-12 .001 -.001)"/><use xlink:href="#c" transform="scale(1 -1) rotate(67.248 18.985 1.233)"/><g id="c"><path style="stroke:none" d="M-14.36 16.559c0 1.566-.465 2.203-1.206 2.203-.741 0-1.206-.637-1.206-2.203 0-1.566.938-3.466 1.206-3.466s1.206 1.9 1.206 3.466z" transform="rotate(95.16 -1.71 19.699) scale(.77836)"/><path style="opacity:.384;fill:#fff;stroke:none" d="M-15.718 16.18c0 1.566.166 1.99-.238 2.01-.404.02-.652-.066-.652-1.632 0-1.565.726-3.341 1.075-3.218.128.046.34.36.098.517-.426.275-.283 1.33-.283 2.323z" transform="rotate(95.16 -1.71 19.699) scale(.77836)"/><path d="M-14.439 16.84c0 1.566-.855 2.063-1.476 1.689-.622-.374.757-.082.757-1.648 0-1.566-.213-3.319-.063-3.038.15.282.782 1.432.782 2.998z" style="fill:#000;opacity:.24299999;stroke:none" transform="rotate(95.16 -1.71 19.699) scale(.77836)"/><path d="M-14.36 16.559c0 1.566-.465 2.203-1.206 2.203-.741 0-1.206-.637-1.206-2.203 0-1.566.938-3.466 1.206-3.466s1.206 1.9 1.206 3.466z" style="fill:none" transform="rotate(95.16 -1.71 19.699) scale(.77836)"/></g></g><use transform="scale(-1 1)" xlink:href="#d"/><path style="stroke:none" d="M.001-9.88l2.411 3.257 3.94-.945-.246 4.044L9.73-1.716l-2.788 2.94L8.558 4.94l-4.026.46L3.38 9.284.001 7.05l-3.379 2.235L-4.53 5.4l-4.025-.46 1.615-3.716-2.789-2.94 3.626-1.808-.247-4.044 3.94.945z"/><g style="stroke:none"><path d="M46.148 5.932L52.5 13.5l-2.41-6.623-3.942-.945zM52.5 13.5l6.352-7.568-3.942.945L52.5 13.5z" style="fill:#fff;fill-opacity:.71142859" transform="translate(-52.5 -13.5)"/><path d="M46.396 9.977l-3.626 1.808L52.5 13.5l-6.104-3.523zM52.5 13.5l9.73-1.715-3.626-1.808L52.5 13.5z" style="fill:#fff;fill-opacity:.50571445" transform="translate(-52.5 -13.5)"/><path d="M52.5 13.5l8.557 4.94-1.616-3.715L52.5 13.5zm0 0l-6.941 1.225-1.616 3.714L52.5 13.5z" style="fill:#fff;fill-opacity:.15142858" transform="translate(-52.5 -13.5)"/><path d="M52.5 13.5l3.379 9.285L57.03 18.9l-4.53-5.4zm0 0l-4.531 5.4 1.152 3.885L52.5 13.5z" style="fill:#000;fill-opacity:.27428571" transform="translate(-52.5 -13.5)"/><path d="M52.5 13.5l-3.379 9.285L52.5 20.55l3.379 2.236L52.5 13.5z" style="fill:#000;fill-opacity:.61142853" transform="translate(-52.5 -13.5)"/><path d="M52.5 13.5l4.531 5.4 4.026-.46L52.5 13.5zm0 0l-8.557 4.94 4.026.46 4.531-5.4z" style="fill:#000;fill-opacity:.54857142" transform="translate(-52.5 -13.5)"/><path d="M42.77 11.785l2.789 2.94L52.5 13.5l-9.73-1.715zM52.5 13.5l6.941 1.225 2.79-2.94L52.5 13.5z" style="fill:#000;fill-opacity:.34285715" transform="translate(-52.5 -13.5)"/><path d="M46.148 5.932l.248 4.045L52.5 13.5l-6.352-7.568zM52.5 13.5l6.104-3.523.248-4.045L52.5 13.5z" style="fill:#000;fill-opacity:.07142855" transform="translate(-52.5 -13.5)"/><path d="M52.5 3.62l-2.41 3.257L52.5 13.5l2.41-6.623-2.41-3.258z" style="fill:#fff;fill-opacity:.40285716" transform="translate(-52.5 -13.5)"/></g><path d="M52.5 3.62l2.41 3.256 3.94-.945-.246 4.045 3.626 1.808-2.788 2.94 1.614 3.716-4.025.46-1.152 3.884L52.5 20.55l-3.38 2.235-1.15-3.884-4.026-.46 1.614-3.716-2.788-2.94 3.626-1.808-.247-4.045 3.94.945zm0 0v9.88m2.41-6.624L52.5 13.5m-6.35-7.569l6.349 7.569m-2.411-6.623L52.5 13.5m-9.73-1.716l9.729 1.717m-6.104-3.524L52.5 13.5m-8.556 4.94l8.556-4.939m-6.941 1.224L52.5 13.5m-3.38 9.284l3.38-9.283M47.97 18.9l4.53-5.4m3.38 9.284l-3.38-9.283m.002 7.048L52.5 13.5m8.556 4.94l-8.555-4.94m4.531 5.399L52.5 13.5m9.73-1.716L52.5 13.5m6.942 1.222L52.5 13.5m6.35-7.569L52.5 13.5m6.103-3.526L52.5 13.5" transform="translate(-52.499 -13.5)" style="fill:none"/></g></symbol><filter height="116%" width="116%" y="-8%" x="-8%" id="g"><feGaussianBlur in="SourceAlpha" stdDeviation="2" result="blurred"/><feOffset dy="2" in="blurred" result="shadow"/><feMerge><feMergeNode in="shadow"/><feMergeNode in="SourceGraphic"/></feMerge></filter></defs><path style="fill:#703572" d="M0 0h31v27H0z"/><path style="fill:#fff" d="M30 0h10v27H30z"/><path style="fill:#af1e2d" d="M39 0h10v27H39z"/><path style="fill:#fff" d="M48 0h10v27H48z"/><path style="fill:#af1e2d" d="M57 0h10v27H57z"/><path style="fill:#fff" d="M66 0h10v27H66z"/><path style="fill:#703572" d="M75 0h31v27H75z"/><use xlink:href="#e"/><use x="-32.308" xlink:href="#f" class="device" style="filter:url(#g);fill:#a05a2c"/><use xlink:href="#f" class="device" style="filter:url(#g);fill:#a05a2c"/><use x="32.308" xlink:href="#f" class="device" style="filter:url(#g);fill:#a05a2c"/></svg>