<svg id="Layer_1" data-name="Layer 1" xmlns="http://www.w3.org/2000/svg" viewBox="0 0 251.37 110.53"><defs><style>.cls-1{fill:#ffc316;}.cls-2{fill:#ffc114;}</style></defs><title>AHSTAFF</title><path d="M248.08,53A170.54,170.54,0,0,0,124.7,2.5,173.91,173.91,0,0,0,3.28,53.59a2.71,2.71,0,0,0-.13,3.7l24,27.36a2.7,2.7,0,0,0,2,.92h32.5l18.87,20.76A1.62,1.62,0,0,0,82.08,108h87.19a1.62,1.62,0,0,0,1.58-1.66h0l18.87-20.76h33.89c.78,0-.52-.33,0-.92l24.6-28A2.71,2.71,0,0,0,248.08,53Z" transform="translate(0.01 0)"/><path class="cls-1" d="M82.08,110.48a4.08,4.08,0,0,1-3.9-3h0L60.55,88.06H29.19a5.18,5.18,0,0,1-3.91-1.77h0l-24-27.36A5.19,5.19,0,0,1,0,55.51H0a5.19,5.19,0,0,1,1.53-3.68h0A176.4,176.4,0,0,1,124.67,0h2a173,173,0,0,1,123.2,51.23h0L248.08,53l1.77-1.75a5.2,5.2,0,0,1,1.51,3.67h0a5.17,5.17,0,0,1-1.28,3.41h0l-23.74,27v.2h0a2.56,2.56,0,0,1-.94,2h0a2.61,2.61,0,0,1-1,.5h0a3.21,3.21,0,0,1-.8.09H190.84L173.2,107.53a4.08,4.08,0,0,1-3.9,3H82.08Zm86.28-5v-.14l20.26-22.28h33l.07-.08h0l24.6-28a.2.2,0,0,0,.05-.15h0a.23.23,0,0,0-.07-.16h0A168,168,0,0,0,126.71,5h-2A171.41,171.41,0,0,0,5.08,55.35h0a.22.22,0,0,0-.06.16H5a.2.2,0,0,0,.06.14h0L29.08,83a.21.21,0,0,0,.16.07H62.75L83,105.35v.14Z" transform="translate(0.01 0)"/><path class="cls-1" d="M32.55,59.92l.34,1.89a1.65,1.65,0,0,0,.3.71,1.71,1.71,0,0,0,.29.33,2.69,2.69,0,0,0,.46.23l-2.86,2.11V63.76a9.34,9.34,0,0,0-.19-1.25l-2-10.43-.81-.25,4.57-3.36,10,6.08a5.91,5.91,0,0,0,1.91.74L39.47,59a3,3,0,0,0-.11-.52,1.15,1.15,0,0,0-.16-.31,2.37,2.37,0,0,0-.7-.65L37,56.63Zm2.53-4.45-4-2.36,1,4.56Z" transform="translate(0.01 0)"/><path class="cls-1" d="M39.65,46.2a6.86,6.86,0,0,0-.73-1.06,3.89,3.89,0,0,0-.71-.6l8.41-5a3.88,3.88,0,0,1,2.82-.72,3.82,3.82,0,0,1,2.1,2l2.75,4.67a3.82,3.82,0,0,1,.7,2.79,3.89,3.89,0,0,1-2,2.12l-8.41,5a3.52,3.52,0,0,0-.19-.91,6.77,6.77,0,0,0-.56-1.15ZM48,50.94l2.15-1.26q.51-.3.55-.53a1.44,1.44,0,0,0-.29-.81l-3.23-5.48q-.33-.56-.56-.64t-.74.22L43.74,43.7Z" transform="translate(0.01 0)"/><path class="cls-1" d="M62.52,31.75l5.86-2.61a3.84,3.84,0,0,0,.07.91,6.08,6.08,0,0,0,.43,1.23l3.36,7.53A6.8,6.8,0,0,0,72.85,40a3.41,3.41,0,0,0,.65.66l-5.11,2.28A3.51,3.51,0,0,0,68.3,42a6.68,6.68,0,0,0-.43-1.21l-3.15-7.06.82,10.47-3,1.35-7.16-7.77,3.11,7.07a8.6,8.6,0,0,0,.59,1.25,2.36,2.36,0,0,0,.7.6l-2.7,1.23a2.34,2.34,0,0,0,0-.94,8.45,8.45,0,0,0-.51-1.34l-3.28-7.35A8.41,8.41,0,0,0,52.64,37a2.34,2.34,0,0,0-.69-.59l6-2.68,5.13,5.55Z" transform="translate(0.01 0)"/><path class="cls-1" d="M74.86,40.37a3.51,3.51,0,0,0,0-.93,6.7,6.7,0,0,0-.32-1.24l-2.67-7.8a6.86,6.86,0,0,0-.5-1.19,3.87,3.87,0,0,0-.57-.73l5.28-1.8a3.49,3.49,0,0,0,0,.93,6.68,6.68,0,0,0,.32,1.24l2.68,7.8a6.86,6.86,0,0,0,.5,1.19,3.84,3.84,0,0,0,.57.73Z" transform="translate(0.01 0)"/><path class="cls-1" d="M85.16,31.4,86,34.59a6.86,6.86,0,0,0,.41,1.22,3.85,3.85,0,0,0,.51.77L81.51,38a3.53,3.53,0,0,0,.06-.93,6.72,6.72,0,0,0-.23-1.26l-2.07-8a6.06,6.06,0,0,0-.43-1.25,2.29,2.29,0,0,0-.6-.72l10-2.59a4,4,0,0,1,2.56,0,2.6,2.6,0,0,1,1.28,1.87l.58,2.24a2,2,0,0,1-.06,1.71,2.3,2.3,0,0,1-1.29.73l2.54,3,.78.92a3.94,3.94,0,0,0,.71.68l-5.19,1.35L86.58,31Zm-.52-2,2.62-.68a1.07,1.07,0,0,0,.58-.28.75.75,0,0,0,0-.6l-.38-1.48a.76.76,0,0,0-.29-.51,1,1,0,0,0-.64,0l-2.62.68Z" transform="translate(0.01 0)"/><path class="cls-1" d="M98.73,30.43l-.58,1.83a1.65,1.65,0,0,0-.07.74,1.69,1.69,0,0,0,.1.43,2.69,2.69,0,0,0,.3.42L95,34.38q.45-.8.66-1.27A9.39,9.39,0,0,0,96.08,32l3.09-10.16-.65-.62,5.61-.85,6,10a5.88,5.88,0,0,0,1.35,1.54l-6.23.94a3,3,0,0,0,.14-.51,1.15,1.15,0,0,0,0-.35,2.38,2.38,0,0,0-.32-.91l-.92-1.49Zm4.35-2.76-2.41-3.93-1.26,4.49Z" transform="translate(0.01 0)"/><path class="cls-1" d="M120.79,29.42a6,6,0,0,0,1.25-.18,2.54,2.54,0,0,0,.79-.35l-.27,2.51-10.82.6a3.51,3.51,0,0,0,.24-.9,6.78,6.78,0,0,0,0-1.28l-.48-8.23a6.83,6.83,0,0,0-.16-1.28,3.89,3.89,0,0,0-.35-.85l5.56-.33a3.52,3.52,0,0,0-.24.9,6.71,6.71,0,0,0,0,1.28l.49,8.31Z" transform="translate(0.01 0)"/><path class="cls-1" d="M135.2,19.08l.34,2.56a4,4,0,0,0-.79-.37,3.45,3.45,0,0,0-1-.14h-2.18l-.18,8.32a6.89,6.89,0,0,0,.06,1.29,3.85,3.85,0,0,0,.29.88l-5.57-.12a3.52,3.52,0,0,0,.31-.88,6.74,6.74,0,0,0,.13-1.27l.18-8.32h-2.18a3.29,3.29,0,0,0-1,.09,4.36,4.36,0,0,0-.82.38l.45-2.58Z" transform="translate(0.01 0)"/><path class="cls-1" d="M140.27,27.23,137,20.71q-.36-.69-.51-1A5,5,0,0,0,136,19l6.42.71a1.67,1.67,0,0,0-.12.38,1.14,1.14,0,0,0,.07.56c.07.17.21.48.42.94l1.79,3.61L147.08,22a3,3,0,0,0,.48-.82,3.77,3.77,0,0,0,.2-.85l3.55.39a7.43,7.43,0,0,0-1,.73,9.35,9.35,0,0,0-.81.92L145,28l-.27,2.48a6.84,6.84,0,0,0-.05,1.29,3.83,3.83,0,0,0,.21.9l-5.54-.61a3.48,3.48,0,0,0,.39-.85A6.68,6.68,0,0,0,140,30Z" transform="translate(0.01 0)"/><path class="cls-1" d="M167.59,29.62l.74-2.77a6.87,6.87,0,0,0,.24-1.27,3.87,3.87,0,0,0-.07-.92l5.39,1.43a3.5,3.5,0,0,0-.51.78,6.67,6.67,0,0,0-.42,1.21l-2.12,8a6.88,6.88,0,0,0-.24,1.27,3.87,3.87,0,0,0,.07.92l-5.39-1.47a3.52,3.52,0,0,0,.51-.78,6.74,6.74,0,0,0,.42-1.21l.85-3.19-3.45-.92-.85,3.19a6.81,6.81,0,0,0-.25,1.27,3.82,3.82,0,0,0,.07.92l-5.39-1.43a3.51,3.51,0,0,0,.51-.78,6.72,6.72,0,0,0,.42-1.21l2.12-8a6.79,6.79,0,0,0,.24-1.27,3.87,3.87,0,0,0-.07-.92l5.39,1.43a3.53,3.53,0,0,0-.51.78,6.68,6.68,0,0,0-.42,1.21l-.74,2.77Z" transform="translate(0.01 0)"/><path class="cls-1" d="M174.95,30.31a4.11,4.11,0,0,1,1.74-2.36,3.08,3.08,0,0,1,2.54,0l6.72,2.54a3.11,3.11,0,0,1,1.93,1.64,4.1,4.1,0,0,1-.26,2.93l-1.83,4.85a4.11,4.11,0,0,1-1.71,2.4,3.09,3.09,0,0,1-2.54,0l-6.72-2.54a3.1,3.1,0,0,1-1.93-1.64,4.11,4.11,0,0,1,.26-2.94Zm2.37,7.29q-.28.75.6,1.09l1.95.73q.88.33,1.17-.42l2.4-6.35q.28-.75-.6-1.09l-1.95-.73q-.88-.33-1.17.42Z" transform="translate(0.01 0)"/><path class="cls-1" d="M195.63,46.54a2.2,2.2,0,0,0,1.18.37q.28-.08.67-.85l3.11-6.24a8.46,8.46,0,0,0,.57-1.32,2.33,2.33,0,0,0,0-.91l2.71,1.35a2.32,2.32,0,0,0-.72.56,8.29,8.29,0,0,0-.71,1.25l-2.86,5.74a4.72,4.72,0,0,1-2,2.39,3.6,3.6,0,0,1-2.86-.48L189,45.56a3.35,3.35,0,0,1-2-2,4.4,4.4,0,0,1,.58-3l2.91-5.83a6.87,6.87,0,0,0,.5-1.19,3.92,3.92,0,0,0,.12-.92l5,2.49a3.47,3.47,0,0,0-.66.66,6.69,6.69,0,0,0-.66,1.1l-3.19,6.4a1,1,0,0,0,.55,1.59Z" transform="translate(0.01 0)"/><path class="cls-1" d="M214.59,48.58a6,6,0,0,0-.58-.77,3.84,3.84,0,0,0-.82-.66l-3.78-2.36a1.82,1.82,0,0,0-.68-.31c-.13,0-.26.09-.39.29l-.37.6q-.19.3-.09.48a1.81,1.81,0,0,0,.58.48l2.88,1.8A3.9,3.9,0,0,1,213,49.88a2.29,2.29,0,0,1-.37,2.06l-1.58,2.58a3.44,3.44,0,0,1-1.8,1.62,3,3,0,0,1-2.38-.6L199.53,51l.94-2.28a6.34,6.34,0,0,0,.6.68,4.79,4.79,0,0,0,.82.62l3.93,2.45a1.73,1.73,0,0,0,.67.3q.2,0,.39-.29l.46-.73a.48.48,0,0,0,.08-.47,1.59,1.59,0,0,0-.56-.48l-3.31-2.07a2.87,2.87,0,0,1-1.47-1.61,3,3,0,0,1,.63-2.13l1.49-2.38A3.22,3.22,0,0,1,206,41.09a2.5,2.5,0,0,1,2.07.39l7.54,4.71Z" transform="translate(0.01 0)"/><path class="cls-1" d="M219.16,61.83a7.48,7.48,0,0,0,1,.65,7.09,7.09,0,0,0,.94.38l-1.79,1.67-8.85-6.65a3.51,3.51,0,0,0,.77-.53,6.72,6.72,0,0,0,.84-1l5-6.59a6.83,6.83,0,0,0,.7-1.08,3.93,3.93,0,0,0,.28-.88l8.69,6.53-1.22,2.28a8.92,8.92,0,0,0-.57-.84,4.53,4.53,0,0,0-.89-.84l-3.12-2.35L219.08,55l2.76,2a7,7,0,0,0,1,.63,8.59,8.59,0,0,0,1,.4l-1.76,2.21a9.67,9.67,0,0,0-.62-.76,6.31,6.31,0,0,0-.91-.8l-2.73-2-2,2.7Z" transform="translate(0.01 0)"/><path class="cls-2" d="M94.06,73.13a9.57,9.57,0,0,0-1.47-.57,6.25,6.25,0,0,0-1.7-.2H83.63a3,3,0,0,0-1.22.16q-.29.16-.29.74v1.15c0,.38.1.63.29.74a3,3,0,0,0,1.22.16h5.54a6.35,6.35,0,0,1,3.86,1,3.73,3.73,0,0,1,1.26,3.17v5a5.61,5.61,0,0,1-1.09,3.79q-1.09,1.23-3.81,1.23H75.31l-.67-4A10.52,10.52,0,0,0,76,85.9a7.8,7.8,0,0,0,1.66.16h7.55a2.83,2.83,0,0,0,1.18-.16c.19-.11.29-.35.29-.74V83.75a.78.78,0,0,0-.29-.72,2.6,2.6,0,0,0-1.18-.18H78.89a4.68,4.68,0,0,1-3.36-1,4.91,4.91,0,0,1-1-3.49V73.83a5.24,5.24,0,0,1,1.12-3.62A4.08,4.08,0,0,1,78.89,69h14.5Z" transform="translate(0.01 0)"/><path class="cls-2" d="M115.79,69l.64,4.16a6.51,6.51,0,0,0-1.3-.58,5.63,5.63,0,0,0-1.62-.19H110V85.93a11.12,11.12,0,0,0,.14,2.1,6.27,6.27,0,0,0,.5,1.42h-9.09A5.75,5.75,0,0,0,102,88a11,11,0,0,0,.16-2.08V72.36H98.61a5.35,5.35,0,0,0-1.58.18,7.08,7.08,0,0,0-1.33.66L96.33,69Z" transform="translate(0.01 0)"/><path class="cls-2" d="M122.86,83.94l-1.38,2.82A2.68,2.68,0,0,0,121.2,88a2.76,2.76,0,0,0,.06.72,4.43,4.43,0,0,0,.38.75h-5.79q.93-1.18,1.38-1.89a15.33,15.33,0,0,0,1-1.82l7.46-15.62-.9-1.15H134l7.3,17.66a9.62,9.62,0,0,0,1.79,2.82H132.81a4.84,4.84,0,0,0,.35-.78,1.85,1.85,0,0,0,.1-.56,3.88,3.88,0,0,0-.29-1.54l-1.12-2.62Zm7.65-3.39-2.92-6.93-3.13,6.93Z" transform="translate(0.01 0)"/><path class="cls-2" d="M152,85.93a11.07,11.07,0,0,0,.14,2.1,6.29,6.29,0,0,0,.5,1.42H143.6a5.75,5.75,0,0,0,.48-1.44,11,11,0,0,0,.16-2.08V72.49a11.07,11.07,0,0,0-.14-2.1,6.32,6.32,0,0,0-.5-1.42h17.73l.61,4.16a9.14,9.14,0,0,0-1.52-.54,7.84,7.84,0,0,0-2-.23H152v4.8h5.57a11.43,11.43,0,0,0,1.87-.11,14.09,14.09,0,0,0,1.65-.43v4.48a15.94,15.94,0,0,0-1.55-.38,10.41,10.41,0,0,0-2-.16H152Z" transform="translate(0.01 0)"/><path class="cls-2" d="M171.6,85.93a11.07,11.07,0,0,0,.14,2.1,6.29,6.29,0,0,0,.5,1.42h-9.09a5.75,5.75,0,0,0,.48-1.44,11,11,0,0,0,.16-2.08V72.49a11.07,11.07,0,0,0-.14-2.1,6.32,6.32,0,0,0-.5-1.42h17.73l.61,4.16a9.14,9.14,0,0,0-1.52-.54,7.84,7.84,0,0,0-2-.23H171.6v4.8h5.57A11.43,11.43,0,0,0,179,77a14.09,14.09,0,0,0,1.65-.43v4.48a15.94,15.94,0,0,0-1.55-.38,10.41,10.41,0,0,0-2-.16H171.6Z" transform="translate(0.01 0)"/></svg>