<svg id="Layer_1" data-name="Layer 1" xmlns="http://www.w3.org/2000/svg" viewBox="0 0 254.53 111.25"><defs><style>.cls-1{opacity:0.5;}.cls-2{fill:#fff200;}.cls-3{fill:none;stroke:#231f20;}.cls-4{fill:#ffc418;}.cls-5{fill:#231f20;}</style></defs><title>BatCruRon 11</title><g class="cls-1"><path class="cls-2" d="M7.2,57.33a171.41,171.41,0,0,1,121-50.13A167.4,167.4,0,0,1,247.33,56.73L222.81,84.59H31.11ZM94.36,5.09a177,177,0,0,0-91,48.41,5.4,5.4,0,0,0-.25,7.39L27.05,88.15A5.4,5.4,0,0,0,31.11,90h191.7a5.39,5.39,0,0,0,4.05-1.83l24.52-27.86a5.39,5.39,0,0,0-.24-7.38A172.77,172.77,0,0,0,128.25,1.8,176.66,176.66,0,0,0,94.36,5.09"/></g><path class="cls-3" d="M7.2,57.33a171.42,171.42,0,0,1,121-50.13A167.4,167.4,0,0,1,247.33,56.73"/><path class="cls-4" d="M85.21,111.25a7.2,7.2,0,0,1-5.09-2.11L62.76,91.79H31.11a7.2,7.2,0,0,1-5.41-2.45L1.79,62.08a7.2,7.2,0,0,1,.33-9.85A177.55,177.55,0,0,1,128.25,0,174.55,174.55,0,0,1,252.42,51.64a7.2,7.2,0,0,1,.31,9.85L228.22,89.34a7.2,7.2,0,0,1-5.41,2.44H188.24l-17.36,17.36a7.2,7.2,0,0,1-5.09,2.11Z"/><path class="cls-5" d="M247.33,56.73A167.4,167.4,0,0,0,128.25,7.2,171.42,171.42,0,0,0,7.2,57.33L31.11,84.59H65.75l19.47,19.47h80.58l19.47-19.47h37.55Z"/><path class="cls-4" d="M25.46,55.13a11.13,11.13,0,0,0-1.34-1.62,6.36,6.36,0,0,0-1.23-.87l13.61-9.8q2.47-1.78,4-1.6a3.94,3.94,0,0,1,2.71,1.82l1.32,1.84a2.7,2.7,0,0,1,.57,2.65,6.47,6.47,0,0,1-2.33,2.52,10.31,10.31,0,0,1,3.47-1.32,2.4,2.4,0,0,1,2,1.25l2,2.83a4.31,4.31,0,0,1,1,3.29q-.28,1.56-2.75,3.33l-13.61,9.8a5.74,5.74,0,0,0-.45-1.45A11,11,0,0,0,33.32,66Zm9.07-.77,3.69-2.66a1.74,1.74,0,0,0,.71-.77q.09-.32-.34-.92l-1.46-2q-.41-.57-.75-.6a1.64,1.64,0,0,0-1,.42l-3.69,2.66Zm5.2,7.22,3.69-2.66a1.74,1.74,0,0,0,.71-.77q.09-.32-.34-.92l-1.87-2.6q-.41-.57-.75-.6a1.65,1.65,0,0,0-1,.42l-3.69,2.66Z"/><path class="cls-4" d="M55.54,48.62l.06,3.13a2.68,2.68,0,0,0,.3,1.21,2.75,2.75,0,0,0,.39.61,4.38,4.38,0,0,0,.69.49l-5.15,2.64q.29-1.48.36-2.31a15.31,15.31,0,0,0,0-2.06L51.71,35l-1.32-.62,8.23-4.22L73.16,42.6A9.57,9.57,0,0,0,76,44.29L66.9,49a5,5,0,0,0,0-.86,1.92,1.92,0,0,0-.17-.54,3.89,3.89,0,0,0-1-1.24l-2.19-1.82Zm5.26-6.51L55,37.27l.38,7.6Z"/><path class="cls-4" d="M86.66,19.47,88.6,23.2a6.49,6.49,0,0,0-1.41-.13,5.65,5.65,0,0,0-1.59.34l-3.36,1.14L86.58,37.4a11.13,11.13,0,0,0,.81,1.94,6.32,6.32,0,0,0,.93,1.19l-8.61,2.92a5.78,5.78,0,0,0,0-1.52,11,11,0,0,0-.52-2L74.83,27.06,71.47,28.2a5.37,5.37,0,0,0-1.44.67,7.11,7.11,0,0,0-1,1l-.75-4.21Z"/><path class="cls-4" d="M108.43,19.3a9.15,9.15,0,0,0-1.5-.28,6.14,6.14,0,0,0-1.72.13l-5.5,1.07q-1.51.29-1.26,1.58l2.12,10.87q.25,1.29,1.76,1l4.33-.84a19.58,19.58,0,0,0,2.92-.72,6.8,6.8,0,0,0,1.54-.94l.14,4.21L98.89,37.79a5.07,5.07,0,0,1-4.08-.62Q93.27,36,92.66,32.87L91,24.58q-.61-3.14.39-4.77A5,5,0,0,1,95,17.68L107,15.34Z"/><path class="cls-4" d="M119.84,25.93l.21,5.37a11.15,11.15,0,0,0,.22,2.09,6.27,6.27,0,0,0,.55,1.4l-9.08.35a5.76,5.76,0,0,0,.42-1.46,11,11,0,0,0,.08-2.08l-.52-13.43a9.88,9.88,0,0,0-.26-2.14,3.72,3.72,0,0,0-.71-1.35L127.59,14a6.5,6.5,0,0,1,4.08.85,4.25,4.25,0,0,1,1.4,3.45l.14,3.77q.08,2-.7,2.7a3.74,3.74,0,0,1-2.31.71l3,5.65q.45.88.92,1.74a6.36,6.36,0,0,0,.9,1.33l-8.73.34-4.05-8.75Zm-.13-3.39,4.41-.17a1.74,1.74,0,0,0,1-.25,1.23,1.23,0,0,0,.22-1l-.1-2.49a1.24,1.24,0,0,0-.29-.92,1.64,1.64,0,0,0-1-.18l-4.41.17Z"/><path class="cls-4" d="M151.78,33.19a3.61,3.61,0,0,0,2,0q.39-.27.58-1.66l1.55-11.25a13.78,13.78,0,0,0,.19-2.33,3.82,3.82,0,0,0-.45-1.42l4.88.67a3.8,3.8,0,0,0-.82,1.24,13.82,13.82,0,0,0-.45,2.3l-1.43,10.37q-.49,3.55-1.87,4.75t-4.67.74L141,35.13A5.46,5.46,0,0,1,137,33a7.16,7.16,0,0,1-.67-4.94l1.45-10.52a11.18,11.18,0,0,0,.14-2.1,6.28,6.28,0,0,0-.3-1.48l9,1.24a5.68,5.68,0,0,0-.67,1.36,10.91,10.91,0,0,0-.44,2l-1.59,11.54a1.71,1.71,0,0,0,1.67,2.17Z"/><path class="cls-4" d="M168.73,31.61l-1.63,5.12a11.11,11.11,0,0,0-.5,2,6.28,6.28,0,0,0,0,1.51L158,37.53a5.75,5.75,0,0,0,.89-1.23,11,11,0,0,0,.78-1.93l4.07-12.81a9.86,9.86,0,0,0,.48-2.1A3.73,3.73,0,0,0,164,18L180,23a6.5,6.5,0,0,1,3.55,2.19,4.25,4.25,0,0,1,.14,3.72l-1.14,3.6q-.62,2-1.57,2.3a3.75,3.75,0,0,1-2.42-.11l.91,6.33q.12,1,.27,1.95a6.38,6.38,0,0,0,.4,1.55l-8.33-2.64-.85-9.6Zm1-3.23L174,29.71a1.74,1.74,0,0,0,1,.11q.31-.12.53-.82l.75-2.38a1.24,1.24,0,0,0,0-1,1.64,1.64,0,0,0-.91-.52l-4.21-1.34Z"/><path class="cls-4" d="M187,31.89q1.44-2.85,3.24-3.53a5,5,0,0,1,4.1.5l10.45,5.29a5.06,5.06,0,0,1,2.84,3q.53,1.83-.93,4.71l-3.81,7.54q-1.44,2.85-3.24,3.53a5,5,0,0,1-4.1-.5l-10.45-5.29a5.06,5.06,0,0,1-2.84-3q-.53-1.83.93-4.71Zm2.56,12.23q-.59,1.17.78,1.86l3,1.53q1.37.69,2-.48l5-9.88q.59-1.17-.78-1.86l-3-1.53q-1.37-.69-2,.48Z"/><path class="cls-4" d="M214.2,43.83l-7.79,10.76a13.66,13.66,0,0,0-1.26,2A3.8,3.8,0,0,0,204.9,58l-4-2.87a3.78,3.78,0,0,0,1.3-.72,13.61,13.61,0,0,0,1.46-1.82L211.3,42a13.75,13.75,0,0,0,1.26-2,3.83,3.83,0,0,0,.26-1.47l8.92,6.39-3,18.42,7.66-10.53a13.75,13.75,0,0,0,1.26-2,3.82,3.82,0,0,0,.26-1.46l4,2.87a3.79,3.79,0,0,0-1.3.72,13.61,13.61,0,0,0-1.46,1.82l-9.78,13.66-8.22-5.89Z"/><path class="cls-4" d="M121.33,91.68a10.09,10.09,0,0,0,.29,2.73,6.3,6.3,0,0,0,.91,1.85h-15a5.56,5.56,0,0,0,.86-1.8,10.74,10.74,0,0,0,.29-2.79V73.06h-4.73V67.19l14-4.21h3.38Z"/><path class="cls-4" d="M146.34,91.68a10.09,10.09,0,0,0,.29,2.73,6.3,6.3,0,0,0,.91,1.85h-15a5.56,5.56,0,0,0,.86-1.8,10.74,10.74,0,0,0,.29-2.79V73.06h-4.73V67.19L143,63h3.38Z"/></svg>