<svg id="Layer_1" data-name="Layer 1" xmlns="http://www.w3.org/2000/svg" viewBox="0 0 251.39 110.48"><defs><style>.cls-1{fill:#ffc316;}</style></defs><title>1</title><path d="M250,53A170.54,170.54,0,0,0,126.62,2.5,173.91,173.91,0,0,0,5.2,53.59a2.71,2.71,0,0,0-.13,3.7l24,27.36a2.7,2.7,0,0,0,2,.92H63.57l18.87,20.76A1.62,1.62,0,0,0,84,108h87.19a1.62,1.62,0,0,0,1.58-1.66l18.87-20.76h33.89c.78,0-.52-.33,0-.92l24.6-28A2.71,2.71,0,0,0,250,53Z" transform="translate(-1.92 0)"/><path class="cls-1" d="M84,110.48a4.08,4.08,0,0,1-3.9-3h0L62.47,88.06H31.11a5.18,5.18,0,0,1-3.91-1.77h0l-24-27.36a5.19,5.19,0,0,1-1.29-3.42h0a5.19,5.19,0,0,1,1.53-3.68h0A176.4,176.4,0,0,1,126.59,0h2A173,173,0,0,1,251.79,51.23h0L250,53l1.77-1.75a5.2,5.2,0,0,1,1.51,3.67h0A5.17,5.17,0,0,1,252,58.34h0l-23.74,27c0,.06,0,.13,0,.2h0a2.56,2.56,0,0,1-.94,2h0a2.61,2.61,0,0,1-1,.5h0a3.21,3.21,0,0,1-.8.09H192.76l-17.64,19.41a4.08,4.08,0,0,1-3.9,3H84Zm86.28-5v-.14l20.26-22.28h33l.07-.08h0l24.6-28a.2.2,0,0,0,.05-.15h0a.23.23,0,0,0-.07-.16h0A168,168,0,0,0,128.63,5h-2A171.41,171.41,0,0,0,7,55.35H7a.22.22,0,0,0-.06.16h0a.2.2,0,0,0,.06.14h0L31,83a.21.21,0,0,0,.16.07H64.67l20.26,22.28v.14Z" transform="translate(-1.92 0)"/><path class="cls-1" d="M98.53,85.53a15.24,15.24,0,0,0,.2,2.86,8.57,8.57,0,0,0,.68,1.95H87a7.82,7.82,0,0,0,.66-2,15,15,0,0,0,.22-2.84V67.17a15.21,15.21,0,0,0-.2-2.86A8.65,8.65,0,0,0,87,62.36h24.23L112,68A12.48,12.48,0,0,0,110,67.3a10.69,10.69,0,0,0-2.73-.31h-8.7v6.56h7.61a15.67,15.67,0,0,0,2.56-.15,19.61,19.61,0,0,0,2.25-.59v6.12a21.71,21.71,0,0,0-2.12-.52,14.23,14.23,0,0,0-2.69-.22H98.53Z" transform="translate(-1.92 0)"/><path class="cls-1" d="M140.77,68a13.12,13.12,0,0,0-2-.77,8.51,8.51,0,0,0-2.32-.28h-9.93a4,4,0,0,0-1.66.22q-.39.22-.39,1v1.57q0,.79.39,1a4,4,0,0,0,1.66.22h7.56a8.68,8.68,0,0,1,5.27,1.31q1.73,1.31,1.73,4.33v6.82q0,3.5-1.49,5.18t-5.2,1.68H115.15l-.92-5.42a14.18,14.18,0,0,0,1.92.57,10.59,10.59,0,0,0,2.27.21h10.32a3.88,3.88,0,0,0,1.62-.22q.39-.22.39-1V82.56a1.07,1.07,0,0,0-.39-1,3.56,3.56,0,0,0-1.62-.24H120q-3.28,0-4.59-1.31t-1.31-4.77V69a7.16,7.16,0,0,1,1.53-4.94A5.57,5.57,0,0,1,120,62.36h19.81Z" transform="translate(-1.92 0)"/><path class="cls-1" d="M165.39,85.71a13.35,13.35,0,0,0,2.8-.24,5.66,5.66,0,0,0,1.79-.68l-.92,5.55H144.93a7.84,7.84,0,0,0,.66-2,15,15,0,0,0,.22-2.84V67.17a15.16,15.16,0,0,0-.2-2.86,8.63,8.63,0,0,0-.68-1.95h12.42a7.79,7.79,0,0,0-.66,2,15,15,0,0,0-.22,2.84V85.71Z" transform="translate(-1.92 0)"/><path class="cls-1" d="M32.88,61.17l.37,1.89a1.65,1.65,0,0,0,.31.7,1.72,1.72,0,0,0,.3.33,2.79,2.79,0,0,0,.47.23l-2.83,2.14q0-.92,0-1.43a9.38,9.38,0,0,0-.2-1.25l-2.12-10.4-.86-.23,4.53-3.42,10.1,5.95a5.86,5.86,0,0,0,1.92.72l-5,3.8a3,3,0,0,0-.12-.51,1.15,1.15,0,0,0-.16-.31,2.36,2.36,0,0,0-.71-.64l-1.52-.87Zm2.49-4.49-4-2.31,1,4.55Z" transform="translate(-1.92 0)"/><path class="cls-1" d="M40.07,47.18a6.82,6.82,0,0,0-.74-1.05,3.86,3.86,0,0,0-.71-.59l8.35-5a3.88,3.88,0,0,1,2.82-.75,3.82,3.82,0,0,1,2.12,1.94l2.8,4.64a3.82,3.82,0,0,1,.73,2.78,3.88,3.88,0,0,1-2,2.14l-8.35,5a3.52,3.52,0,0,0-.2-.91,6.74,6.74,0,0,0-.58-1.14Zm8.4,4.65,2.13-1.29q.5-.3.55-.54a1.44,1.44,0,0,0-.3-.8l-3.29-5.44q-.33-.55-.57-.63t-.73.23l-2.13,1.29Z" transform="translate(-1.92 0)"/><path class="cls-1" d="M63.14,32.31,69,29.64a3.82,3.82,0,0,0,.08.91,6.06,6.06,0,0,0,.44,1.22l3.42,7.5a6.81,6.81,0,0,0,.62,1.14,3.45,3.45,0,0,0,.65.65l-5.09,2.32a3.51,3.51,0,0,0-.1-.93,6.71,6.71,0,0,0-.44-1.2l-3.21-7,.91,10.46-3,1.38L56,38.36l3.17,7a8.56,8.56,0,0,0,.67,1.29,2.36,2.36,0,0,0,.7.6l-2.75,1.25a2.33,2.33,0,0,0,0-.91,8.39,8.39,0,0,0-.52-1.34L54,39a8.41,8.41,0,0,0-.67-1.27,2.34,2.34,0,0,0-.7-.59l6-2.74,5.13,5.48Z" transform="translate(-1.92 0)"/><path class="cls-1" d="M75.85,40.71a3.52,3.52,0,0,0,0-.93,6.75,6.75,0,0,0-.33-1.24l-2.73-7.78a6.77,6.77,0,0,0-.51-1.18,3.87,3.87,0,0,0-.58-.72L77,27a3.48,3.48,0,0,0,0,.93,6.65,6.65,0,0,0,.33,1.24L80,37a6.83,6.83,0,0,0,.51,1.18,3.87,3.87,0,0,0,.58.72Z" transform="translate(-1.92 0)"/><path class="cls-1" d="M86.3,31.61l.85,3.19A6.83,6.83,0,0,0,87.56,36a3.84,3.84,0,0,0,.52.77l-5.39,1.43a3.52,3.52,0,0,0,.06-.93A6.72,6.72,0,0,0,82.52,36l-2.11-8A6.06,6.06,0,0,0,80,26.81a2.29,2.29,0,0,0-.61-.71l10-2.65a4,4,0,0,1,2.56,0,2.6,2.6,0,0,1,1.3,1.88l.59,2.24a2,2,0,0,1-.05,1.71,2.29,2.29,0,0,1-1.29.74L95,33l.78.92a3.92,3.92,0,0,0,.72.67l-5.18,1.37-3.6-4.69Zm-.53-2,2.62-.69a1.07,1.07,0,0,0,.57-.28.75.75,0,0,0,0-.6l-.39-1.48a.76.76,0,0,0-.3-.51,1,1,0,0,0-.64,0L85,26.75Z" transform="translate(-1.92 0)"/><path class="cls-1" d="M100.21,30.51l-.57,1.84a1.64,1.64,0,0,0-.06.76,1.7,1.7,0,0,0,.11.43,2.69,2.69,0,0,0,.3.42l-3.51.54q.45-.8.66-1.27a9.32,9.32,0,0,0,.41-1.2l3.06-10.17-.65-.61,5.61-.87,6.08,10A5.89,5.89,0,0,0,113,31.95l-6.23,1a3,3,0,0,0,.14-.51,1.14,1.14,0,0,0,0-.35,2.37,2.37,0,0,0-.32-.9l-.92-1.49Zm4.32-2.77-2.42-3.93-1.25,4.49Z" transform="translate(-1.92 0)"/><path class="cls-1" d="M122.56,29.42a6,6,0,0,0,1.25-.18,2.56,2.56,0,0,0,.79-.35l-.26,2.51L113.51,32a3.52,3.52,0,0,0,.24-.9,6.71,6.71,0,0,0,0-1.28l-.49-8.23a6.81,6.81,0,0,0-.16-1.28,3.88,3.88,0,0,0-.36-.85l5.56-.33a3.52,3.52,0,0,0-.24.9,6.72,6.72,0,0,0,0,1.28l.5,8.31Z" transform="translate(-1.92 0)"/><path class="cls-1" d="M137.25,19.09l.34,2.56a3.94,3.94,0,0,0-.79-.37,3.46,3.46,0,0,0-1-.14l-2.18,0-.19,8.32a6.89,6.89,0,0,0,.06,1.29,3.89,3.89,0,0,0,.28.88l-5.57-.12a3.52,3.52,0,0,0,.31-.88,6.68,6.68,0,0,0,.13-1.27l.19-8.32-2.18,0a3.28,3.28,0,0,0-1,.09,4.34,4.34,0,0,0-.82.38l.45-2.58Z" transform="translate(-1.92 0)"/><path class="cls-1" d="M142.61,27.27l-3.25-6.53q-.36-.69-.5-1a5,5,0,0,0-.51-.7l6.42.73a1.63,1.63,0,0,0-.12.38,1.12,1.12,0,0,0,.06.56q.1.25.42.94l1.78,3.62,2.53-3.21a3,3,0,0,0,.48-.82,3.73,3.73,0,0,0,.2-.85l3.55.4a7.3,7.3,0,0,0-1.05.73,9.25,9.25,0,0,0-.82.91l-4.45,5.6-.28,2.48a6.83,6.83,0,0,0-.06,1.29,3.83,3.83,0,0,0,.2.9l-5.54-.63a3.5,3.5,0,0,0,.39-.84A6.72,6.72,0,0,0,142.3,30Z" transform="translate(-1.92 0)"/><path class="cls-1" d="M170.41,29.87l.75-2.77a6.86,6.86,0,0,0,.25-1.26,3.91,3.91,0,0,0-.06-.92l5.38,1.46a3.48,3.48,0,0,0-.52.77,6.72,6.72,0,0,0-.43,1.21l-2.16,8a6.87,6.87,0,0,0-.25,1.26,3.85,3.85,0,0,0,.06.92L168.05,37a3.54,3.54,0,0,0,.52-.77,6.71,6.71,0,0,0,.43-1.21l.87-3.18-3.45-.94-.87,3.18a6.77,6.77,0,0,0-.25,1.26,3.81,3.81,0,0,0,.06.92L160,34.84a3.51,3.51,0,0,0,.52-.77,6.79,6.79,0,0,0,.43-1.21l2.16-8a6.87,6.87,0,0,0,.25-1.26,3.91,3.91,0,0,0-.06-.92l5.38,1.46a3.49,3.49,0,0,0-.52.78,6.64,6.64,0,0,0-.43,1.21L167,28.93Z" transform="translate(-1.92 0)"/><path class="cls-1" d="M178.1,30.72a4.11,4.11,0,0,1,1.76-2.35,3.09,3.09,0,0,1,2.54.06L189.1,31A3.1,3.1,0,0,1,191,32.68a4.1,4.1,0,0,1-.28,2.93l-1.87,4.83a4.11,4.11,0,0,1-1.76,2.35,3.09,3.09,0,0,1-2.54-.06l-6.7-2.59A3.1,3.1,0,0,1,176,38.49a4.1,4.1,0,0,1,.28-2.93ZM180.41,38q-.29.75.59,1.09l1.94.75q.88.34,1.17-.41l2.45-6.33q.29-.75-.59-1.09L184,31.29q-.88-.34-1.17.41Z" transform="translate(-1.92 0)"/><path class="cls-1" d="M198.91,47.26a2.21,2.21,0,0,0,1.17.38q.28-.08.67-.85l3.17-6.2a8.45,8.45,0,0,0,.58-1.31,2.35,2.35,0,0,0,0-.91l2.69,1.38a2.32,2.32,0,0,0-.72.56,8.41,8.41,0,0,0-.72,1.24l-2.92,5.71a4.73,4.73,0,0,1-2,2.37,3.6,3.6,0,0,1-2.86-.51l-5.66-2.9a3.35,3.35,0,0,1-1.93-2,4.39,4.39,0,0,1,.61-3l3-5.8a6.75,6.75,0,0,0,.51-1.19,3.84,3.84,0,0,0,.13-.92l5,2.54a3.49,3.49,0,0,0-.67.65,6.76,6.76,0,0,0-.67,1.09L195,43.92a1,1,0,0,0,.53,1.59Z" transform="translate(-1.92 0)"/><path class="cls-1" d="M218.11,49.67a5.93,5.93,0,0,0-.57-.78,3.84,3.84,0,0,0-.81-.67L213,45.82a1.8,1.8,0,0,0-.68-.32c-.13,0-.26.09-.39.28l-.38.59c-.13.2-.16.36-.1.48a1.8,1.8,0,0,0,.58.49l2.86,1.83A3.89,3.89,0,0,1,216.54,51a2.28,2.28,0,0,1-.4,2.05l-1.65,2.58a3.44,3.44,0,0,1-1.82,1.6,3,3,0,0,1-2.37-.63L203,51.89l1-2.27a6.34,6.34,0,0,0,.59.68,4.8,4.8,0,0,0,.81.63l3.9,2.5a1.75,1.75,0,0,0,.67.31q.2,0,.39-.28l.47-.73a.48.48,0,0,0,.09-.47,1.61,1.61,0,0,0-.55-.48l-3.29-2.11a2.87,2.87,0,0,1-1.42-1.61,3,3,0,0,1,.66-2.12l1.52-2.36a3.21,3.21,0,0,1,1.78-1.5,2.5,2.5,0,0,1,2.07.42l7.48,4.8Z" transform="translate(-1.92 0)"/><path class="cls-1" d="M222.73,63.15a7.4,7.4,0,0,0,1,.67,6.92,6.92,0,0,0,.94.39l-1.82,1.65-8.76-6.77a3.52,3.52,0,0,0,.77-.52,6.73,6.73,0,0,0,.86-.95l5-6.52a6.89,6.89,0,0,0,.72-1.07,4,4,0,0,0,.29-.88l8.6,6.65-1.25,2.26a9,9,0,0,0-.56-.85,4.57,4.57,0,0,0-.88-.85L224.58,54l-1.8,2.33,2.7,2.09a7,7,0,0,0,1,.65,8.78,8.78,0,0,0,1,.41l-1.68,2.17a9.57,9.57,0,0,0-.61-.77,6.33,6.33,0,0,0-.89-.82l-2.7-2.09-2.07,2.67Z" transform="translate(-1.92 0)"/></svg>