<svg id="Layer_1" data-name="Layer 1" xmlns="http://www.w3.org/2000/svg" viewBox="0 0 251.39 110.48"><defs><style>.cls-1{fill:#ffc316;}</style></defs><title>4</title><path d="M250,53A170.54,170.54,0,0,0,126.62,2.5,173.91,173.91,0,0,0,5.2,53.59a2.71,2.71,0,0,0-.13,3.7l24,27.36a2.7,2.7,0,0,0,2,.92H63.57l18.87,20.76A1.62,1.62,0,0,0,84,108h87.19a1.62,1.62,0,0,0,1.58-1.66l18.87-20.76h33.89c.78,0-.52-.33,0-.92l24.6-28A2.71,2.71,0,0,0,250,53Z" transform="translate(-1.92)"/><path class="cls-1" d="M84,110.48a4.08,4.08,0,0,1-3.9-3h0L62.47,88.06H31.11a5.18,5.18,0,0,1-3.91-1.77h0l-24-27.36a5.19,5.19,0,0,1-1.29-3.42h0a5.19,5.19,0,0,1,1.53-3.68h0A176.4,176.4,0,0,1,126.59,0h2A173,173,0,0,1,251.79,51.23h0L250,53l1.77-1.75a5.2,5.2,0,0,1,1.51,3.67h0A5.17,5.17,0,0,1,252,58.33h0l-23.74,27c0,.06,0,.13,0,.2h0a2.56,2.56,0,0,1-.94,2h0a2.61,2.61,0,0,1-1,.5h0a3.21,3.21,0,0,1-.8.09H192.76l-17.64,19.41a4.08,4.08,0,0,1-3.9,3H84Zm86.28-5v-.14l20.26-22.28h33l.07-.08h0l24.6-28a.2.2,0,0,0,.05-.15h0a.23.23,0,0,0-.07-.16h0A168,168,0,0,0,128.63,5h-2A171.41,171.41,0,0,0,7,55.35H7a.22.22,0,0,0-.06.16h0a.2.2,0,0,0,.06.14h0L31,83a.21.21,0,0,0,.16.07H64.67l20.26,22.28v.14Z" transform="translate(-1.92)"/><path class="cls-1" d="M115.83,76.7V84h-4.77v2.45a8.45,8.45,0,0,0,.24,2.29,5.27,5.27,0,0,0,.77,1.55H99.6a4.68,4.68,0,0,0,.72-1.51,9,9,0,0,0,.24-2.34V84H81.94V77.18L98.69,62.36h12.37V76.7Zm-15.26-9.29-11,9.29h11Z" transform="translate(-1.92)"/><path class="cls-1" d="M144.82,68a13.08,13.08,0,0,0-2-.77,8.5,8.5,0,0,0-2.32-.28h-9.93a4,4,0,0,0-1.66.22q-.39.22-.39,1v1.57q0,.79.39,1a4,4,0,0,0,1.66.22h7.57a8.68,8.68,0,0,1,5.27,1.31q1.73,1.31,1.73,4.33v6.82q0,3.5-1.49,5.18t-5.21,1.68H119.19l-.92-5.42a14.18,14.18,0,0,0,1.92.57,10.59,10.59,0,0,0,2.27.21h10.32a3.88,3.88,0,0,0,1.62-.22q.39-.22.39-1V82.56a1.07,1.07,0,0,0-.39-1,3.56,3.56,0,0,0-1.62-.24h-8.7q-3.28,0-4.59-1.31t-1.31-4.77V69a7.16,7.16,0,0,1,1.53-4.94,5.57,5.57,0,0,1,4.37-1.71H143.9Z" transform="translate(-1.92)"/><path class="cls-1" d="M169.44,85.71a13.35,13.35,0,0,0,2.8-.24,5.66,5.66,0,0,0,1.79-.68l-.92,5.55H149a7.84,7.84,0,0,0,.66-2,15,15,0,0,0,.22-2.84V67.17a15.16,15.16,0,0,0-.2-2.86,8.63,8.63,0,0,0-.68-1.95h12.42a7.79,7.79,0,0,0-.66,2,15,15,0,0,0-.22,2.84V85.71Z" transform="translate(-1.92)"/><path class="cls-1" d="M34.47,59.92l.34,1.89a1.65,1.65,0,0,0,.3.71,1.71,1.71,0,0,0,.29.33,2.69,2.69,0,0,0,.46.23L33,65.19q0-.92,0-1.43a9.34,9.34,0,0,0-.19-1.25l-2-10.43L30,51.83l4.57-3.36,10,6.08a5.91,5.91,0,0,0,1.91.74L41.39,59a3,3,0,0,0-.11-.52,1.15,1.15,0,0,0-.16-.31,2.37,2.37,0,0,0-.7-.65l-1.51-.89ZM37,55.47l-4-2.36,1,4.56Z" transform="translate(-1.92)"/><path class="cls-1" d="M41.57,46.2a6.86,6.86,0,0,0-.73-1.06,3.89,3.89,0,0,0-.71-.6l8.41-4.95a3.88,3.88,0,0,1,2.82-.72,3.82,3.82,0,0,1,2.1,2l2.75,4.67a3.82,3.82,0,0,1,.7,2.79,3.89,3.89,0,0,1-2,2.12l-8.41,4.95a3.52,3.52,0,0,0-.19-.91,6.77,6.77,0,0,0-.56-1.15Zm8.35,4.74,2.15-1.26q.51-.3.55-.53a1.44,1.44,0,0,0-.29-.81l-3.23-5.48q-.33-.56-.56-.64t-.74.22L45.66,43.7Z" transform="translate(-1.92)"/><path class="cls-1" d="M64.44,31.75l5.86-2.61a3.84,3.84,0,0,0,.07.91,6.08,6.08,0,0,0,.43,1.23l3.36,7.53A6.8,6.8,0,0,0,74.77,40a3.41,3.41,0,0,0,.65.66l-5.11,2.28a3.51,3.51,0,0,0-.09-.93,6.68,6.68,0,0,0-.43-1.21l-3.15-7.06.82,10.47-3,1.35-7.16-7.77,3.11,7.07A8.6,8.6,0,0,0,61,46.11a2.36,2.36,0,0,0,.7.6L59,47.94A2.34,2.34,0,0,0,59,47a8.45,8.45,0,0,0-.51-1.34l-3.28-7.35a8.41,8.41,0,0,0-.65-1.28,2.34,2.34,0,0,0-.69-.59l6-2.68L65,39.31Z" transform="translate(-1.92)"/><path class="cls-1" d="M76.78,40.37a3.51,3.51,0,0,0,0-.93,6.7,6.7,0,0,0-.32-1.24l-2.67-7.8a6.86,6.86,0,0,0-.5-1.19,3.87,3.87,0,0,0-.57-.73L78,26.68a3.49,3.49,0,0,0,0,.93,6.68,6.68,0,0,0,.32,1.24L81,36.65a6.86,6.86,0,0,0,.5,1.19,3.84,3.84,0,0,0,.57.73Z" transform="translate(-1.92)"/><path class="cls-1" d="M87.08,31.4l.83,3.19a6.86,6.86,0,0,0,.41,1.22,3.85,3.85,0,0,0,.51.77L83.43,38a3.53,3.53,0,0,0,.06-.93,6.72,6.72,0,0,0-.23-1.26l-2.07-8a6.06,6.06,0,0,0-.43-1.25,2.29,2.29,0,0,0-.6-.72l10-2.59a4,4,0,0,1,2.56,0A2.6,2.6,0,0,1,94,25.12l.58,2.24a2,2,0,0,1-.06,1.71,2.3,2.3,0,0,1-1.29.73l2.54,3,.78.92a3.94,3.94,0,0,0,.71.68l-5.19,1.35L88.5,31Zm-.52-2,2.62-.68a1.07,1.07,0,0,0,.58-.28.75.75,0,0,0,0-.6l-.38-1.48a.76.76,0,0,0-.29-.51,1,1,0,0,0-.64,0l-2.62.68Z" transform="translate(-1.92)"/><path class="cls-1" d="M100.65,30.43l-.58,1.83A1.65,1.65,0,0,0,100,33a1.69,1.69,0,0,0,.1.43,2.69,2.69,0,0,0,.3.42l-3.51.53q.45-.8.66-1.27A9.39,9.39,0,0,0,98,31.95l3.09-10.16-.65-.62,5.61-.85,6,10a5.88,5.88,0,0,0,1.35,1.54l-6.23.94a3,3,0,0,0,.14-.51,1.15,1.15,0,0,0,0-.35,2.38,2.38,0,0,0-.32-.91l-.92-1.49ZM105,27.67l-2.41-3.93-1.26,4.49Z" transform="translate(-1.92)"/><path class="cls-1" d="M122.71,29.42a6,6,0,0,0,1.25-.18,2.54,2.54,0,0,0,.79-.35l-.27,2.51L113.66,32a3.51,3.51,0,0,0,.24-.9,6.78,6.78,0,0,0,0-1.28l-.48-8.23a6.83,6.83,0,0,0-.16-1.28,3.89,3.89,0,0,0-.35-.85l5.56-.33a3.52,3.52,0,0,0-.24.9,6.71,6.71,0,0,0,0,1.28l.49,8.31Z" transform="translate(-1.92)"/><path class="cls-1" d="M137.12,19.08l.34,2.56a4,4,0,0,0-.79-.37,3.45,3.45,0,0,0-1-.14l-2.18,0-.18,8.32a6.89,6.89,0,0,0,.06,1.29,3.85,3.85,0,0,0,.29.88l-5.57-.12a3.52,3.52,0,0,0,.31-.88,6.74,6.74,0,0,0,.13-1.27l.18-8.32-2.18,0a3.29,3.29,0,0,0-1,.09,4.36,4.36,0,0,0-.82.38l.45-2.58Z" transform="translate(-1.92)"/><path class="cls-1" d="M142.19,27.23l-3.27-6.52q-.36-.69-.51-1a5,5,0,0,0-.51-.7l6.42.71a1.67,1.67,0,0,0-.12.38,1.14,1.14,0,0,0,.07.56c.07.17.21.48.42.94l1.79,3.61L149,22a3,3,0,0,0,.48-.82,3.77,3.77,0,0,0,.2-.85l3.55.39a7.43,7.43,0,0,0-1,.73,9.35,9.35,0,0,0-.81.92L146.92,28l-.27,2.48a6.84,6.84,0,0,0-.05,1.29,3.83,3.83,0,0,0,.21.9l-5.54-.61a3.48,3.48,0,0,0,.39-.85,6.68,6.68,0,0,0,.24-1.26Z" transform="translate(-1.92)"/><path class="cls-1" d="M169.51,29.62l.74-2.77a6.87,6.87,0,0,0,.24-1.27,3.87,3.87,0,0,0-.07-.92l5.39,1.43a3.5,3.5,0,0,0-.51.78,6.67,6.67,0,0,0-.42,1.21l-2.12,8a6.88,6.88,0,0,0-.24,1.27,3.87,3.87,0,0,0,.07.92L167.2,36.8a3.52,3.52,0,0,0,.51-.78,6.74,6.74,0,0,0,.42-1.21l.85-3.19-3.45-.92-.85,3.19a6.81,6.81,0,0,0-.25,1.27,3.82,3.82,0,0,0,.07.92l-5.39-1.43a3.51,3.51,0,0,0,.51-.78,6.72,6.72,0,0,0,.42-1.21l2.12-8a6.79,6.79,0,0,0,.24-1.27,3.87,3.87,0,0,0-.07-.92l5.39,1.43a3.53,3.53,0,0,0-.51.78,6.68,6.68,0,0,0-.42,1.21l-.74,2.77Z" transform="translate(-1.92)"/><path class="cls-1" d="M176.87,30.31a4.11,4.11,0,0,1,1.74-2.36,3.08,3.08,0,0,1,2.54,0l6.72,2.54a3.11,3.11,0,0,1,1.93,1.64,4.1,4.1,0,0,1-.26,2.93l-1.83,4.85A4.11,4.11,0,0,1,186,42.31a3.09,3.09,0,0,1-2.54,0l-6.72-2.54a3.1,3.1,0,0,1-1.93-1.64,4.11,4.11,0,0,1,.26-2.94Zm2.37,7.29q-.28.75.6,1.09l1.95.73q.88.33,1.17-.42l2.4-6.35q.28-.75-.6-1.09l-1.95-.73q-.88-.33-1.17.42Z" transform="translate(-1.92)"/><path class="cls-1" d="M197.55,46.54a2.2,2.2,0,0,0,1.18.37q.28-.08.67-.85l3.11-6.24a8.46,8.46,0,0,0,.57-1.32,2.33,2.33,0,0,0,0-.91l2.71,1.35a2.32,2.32,0,0,0-.72.56,8.29,8.29,0,0,0-.71,1.25l-2.86,5.74a4.72,4.72,0,0,1-2,2.39,3.6,3.6,0,0,1-2.86-.48l-5.69-2.84a3.35,3.35,0,0,1-2-2,4.4,4.4,0,0,1,.58-3l2.91-5.83a6.87,6.87,0,0,0,.5-1.19,3.92,3.92,0,0,0,.12-.92l5,2.49a3.47,3.47,0,0,0-.66.66,6.69,6.69,0,0,0-.66,1.1l-3.19,6.4a1,1,0,0,0,.55,1.59Z" transform="translate(-1.92)"/><path class="cls-1" d="M216.51,48.58a6,6,0,0,0-.58-.77,3.84,3.84,0,0,0-.82-.66l-3.78-2.36a1.82,1.82,0,0,0-.68-.31c-.13,0-.26.09-.39.29l-.37.6q-.19.3-.09.48a1.81,1.81,0,0,0,.58.48l2.88,1.8a3.9,3.9,0,0,1,1.69,1.75,2.29,2.29,0,0,1-.37,2.06L213,54.52a3.44,3.44,0,0,1-1.8,1.62,3,3,0,0,1-2.38-.6L201.45,51l.94-2.28a6.34,6.34,0,0,0,.6.68,4.79,4.79,0,0,0,.82.62l3.93,2.45a1.73,1.73,0,0,0,.67.3q.2,0,.39-.29l.46-.73a.48.48,0,0,0,.08-.47,1.59,1.59,0,0,0-.56-.48l-3.31-2.07A2.87,2.87,0,0,1,204,47.12a3,3,0,0,1,.63-2.13l1.49-2.38a3.22,3.22,0,0,1,1.76-1.52,2.5,2.5,0,0,1,2.07.39l7.54,4.71Z" transform="translate(-1.92)"/><path class="cls-1" d="M221.08,61.83a7.48,7.48,0,0,0,1,.65,7.09,7.09,0,0,0,.94.38l-1.79,1.67-8.85-6.65a3.51,3.51,0,0,0,.77-.53,6.72,6.72,0,0,0,.84-1l5-6.59a6.83,6.83,0,0,0,.7-1.08,3.93,3.93,0,0,0,.28-.88l8.69,6.53-1.22,2.28a8.92,8.92,0,0,0-.57-.84,4.53,4.53,0,0,0-.89-.84l-3.12-2.35L221,55,223.76,57a7,7,0,0,0,1,.63,8.59,8.59,0,0,0,1,.4L224,60.24a9.67,9.67,0,0,0-.62-.76,6.31,6.31,0,0,0-.91-.8l-2.73-2.05-2,2.7Z" transform="translate(-1.92)"/></svg>