<?xml version="1.0" encoding="utf-8"?>
<!-- Generator: Adobe Illustrator 21.0.0, SVG Export Plug-In . SVG Version: 6.00 Build 0)  -->
<svg version="1.1" id="Layer_1" xmlns="http://www.w3.org/2000/svg"  x="0px" y="0px"
	 viewBox="0 0 341.4 228.6" style="enable-background:new 0 0 341.4 228.6;" xml:space="preserve">
<style type="text/css">
	.st0{fill:#FAED24;}
	.st1{opacity:0.2;fill:none;stroke:#231F20;stroke-miterlimit:10;enable-background:new    ;}
</style>
<title>MT-1</title>
<g id="Ribbon">
	<polygon class="st0" points="338.3,195.3 -1.7,-1 -1.7,31.3 338.3,227.6 	"/>
</g>
<g id="Pattern">
	<line class="st1" x1="25" y1="14.4" x2="11" y2="38.6"/>
	<line class="st1" x1="22.4" y1="12.9" x2="8.4" y2="37.1"/>
	<line class="st1" x1="19.8" y1="11.4" x2="5.8" y2="35.6"/>
	<line class="st1" x1="17.2" y1="9.9" x2="3.2" y2="34.1"/>
	<line class="st1" x1="14.6" y1="8.4" x2="0.6" y2="32.6"/>
	<line class="st1" x1="12" y1="6.8" x2="-2" y2="31.1"/>
	<line class="st1" x1="9.4" y1="5.3" x2="-2.6" y2="26.1"/>
	<line class="st1" x1="6.8" y1="3.8" x2="-2.2" y2="19.4"/>
	<line class="st1" x1="4.2" y1="2.3" x2="-2.3" y2="13.6"/>
	<line class="st1" x1="1.6" y1="0.9" x2="-2.4" y2="7.8"/>
	<line class="st1" x1="-1" y1="-0.6" x2="-2.5" y2="2"/>
	<line class="st1" x1="27.6" y1="15.9" x2="13.6" y2="40.1"/>
	<line class="st1" x1="30.2" y1="17.4" x2="16.2" y2="41.6"/>
	<line class="st1" x1="32.8" y1="18.9" x2="18.8" y2="43.1"/>
	<line class="st1" x1="35.4" y1="20.4" x2="21.4" y2="44.6"/>
	<line class="st1" x1="38" y1="21.9" x2="24" y2="46.1"/>
	<line class="st1" x1="40.6" y1="23.4" x2="26.6" y2="47.6"/>
	<line class="st1" x1="43.2" y1="24.9" x2="29.2" y2="49.1"/>
	<line class="st1" x1="45.8" y1="26.4" x2="31.8" y2="50.6"/>
	<line class="st1" x1="48.4" y1="27.9" x2="34.4" y2="52.1"/>
	<line class="st1" x1="51" y1="29.4" x2="37" y2="53.6"/>
	<line class="st1" x1="53.6" y1="30.9" x2="39.6" y2="55.1"/>
	<line class="st1" x1="56.2" y1="32.3" x2="42.2" y2="56.6"/>
	<line class="st1" x1="58.8" y1="33.8" x2="44.8" y2="58.1"/>
	<line class="st1" x1="61.4" y1="35.3" x2="47.4" y2="59.6"/>
	<line class="st1" x1="64" y1="36.8" x2="50" y2="61.1"/>
	<line class="st1" x1="66.6" y1="38.3" x2="52.6" y2="62.6"/>
	<line class="st1" x1="69.2" y1="39.8" x2="55.2" y2="64.1"/>
	<line class="st1" x1="71.8" y1="41.3" x2="57.8" y2="65.6"/>
	<line class="st1" x1="74.4" y1="42.8" x2="60.4" y2="67.1"/>
	<line class="st1" x1="77" y1="44.3" x2="63" y2="68.6"/>
	<line class="st1" x1="79.6" y1="45.8" x2="65.6" y2="70.1"/>
	<line class="st1" x1="82.2" y1="47.3" x2="68.2" y2="71.6"/>
	<line class="st1" x1="84.8" y1="48.8" x2="70.8" y2="73.1"/>
	<line class="st1" x1="87.4" y1="50.3" x2="73.4" y2="74.6"/>
	<line class="st1" x1="90" y1="51.8" x2="76" y2="76.1"/>
	<line class="st1" x1="92.6" y1="53.3" x2="78.6" y2="77.6"/>
	<line class="st1" x1="95.2" y1="54.8" x2="81.2" y2="79.1"/>
	<line class="st1" x1="97.8" y1="56.3" x2="83.8" y2="80.6"/>
	<line class="st1" x1="100.4" y1="57.8" x2="86.4" y2="82.1"/>
	<line class="st1" x1="103" y1="59.3" x2="89" y2="83.6"/>
	<line class="st1" x1="105.6" y1="60.8" x2="91.6" y2="85.1"/>
	<line class="st1" x1="108.2" y1="62.3" x2="94.2" y2="86.6"/>
	<line class="st1" x1="110.8" y1="63.8" x2="96.8" y2="88.1"/>
	<line class="st1" x1="113.4" y1="65.3" x2="99.4" y2="89.6"/>
	<line class="st1" x1="116" y1="66.8" x2="102" y2="91.1"/>
	<line class="st1" x1="118.6" y1="68.3" x2="104.6" y2="92.6"/>
	<line class="st1" x1="121.2" y1="69.8" x2="107.2" y2="94.1"/>
	<line class="st1" x1="123.8" y1="71.3" x2="109.8" y2="95.6"/>
	<line class="st1" x1="126.4" y1="72.8" x2="112.4" y2="97.1"/>
	<line class="st1" x1="128.9" y1="74.3" x2="114.9" y2="98.6"/>
	<line class="st1" x1="131.5" y1="75.8" x2="117.5" y2="100.1"/>
	<line class="st1" x1="134.1" y1="77.3" x2="120.1" y2="101.6"/>
	<line class="st1" x1="136.7" y1="78.8" x2="122.7" y2="103.1"/>
	<line class="st1" x1="139.3" y1="80.3" x2="125.3" y2="104.6"/>
	<line class="st1" x1="141.9" y1="81.8" x2="127.9" y2="106.1"/>
	<line class="st1" x1="144.5" y1="83.3" x2="130.5" y2="107.6"/>
	<line class="st1" x1="147.1" y1="84.8" x2="133.1" y2="109.1"/>
	<line class="st1" x1="149.7" y1="86.3" x2="135.7" y2="110.6"/>
	<line class="st1" x1="152.3" y1="87.8" x2="138.3" y2="112.1"/>
	<line class="st1" x1="154.9" y1="89.3" x2="140.9" y2="113.6"/>
	<line class="st1" x1="157.5" y1="90.8" x2="143.5" y2="115.1"/>
	<line class="st1" x1="160.1" y1="92.3" x2="146.1" y2="116.6"/>
	<line class="st1" x1="162.7" y1="93.8" x2="148.7" y2="118.1"/>
	<line class="st1" x1="165.3" y1="95.3" x2="151.3" y2="119.6"/>
	<line class="st1" x1="167.9" y1="96.8" x2="153.9" y2="121.1"/>
	<line class="st1" x1="170.5" y1="98.3" x2="156.5" y2="122.6"/>
	<line class="st1" x1="173.1" y1="99.8" x2="159.1" y2="124.1"/>
	<line class="st1" x1="175.7" y1="101.3" x2="161.7" y2="125.6"/>
	<line class="st1" x1="178.3" y1="102.8" x2="164.3" y2="127.1"/>
	<line class="st1" x1="180.9" y1="104.3" x2="166.9" y2="128.6"/>
	<line class="st1" x1="183.5" y1="105.8" x2="169.5" y2="130.1"/>
	<line class="st1" x1="186.1" y1="107.3" x2="172.1" y2="131.6"/>
	<line class="st1" x1="188.7" y1="108.8" x2="174.7" y2="133.1"/>
	<line class="st1" x1="191.3" y1="110.3" x2="177.3" y2="134.6"/>
	<line class="st1" x1="193.9" y1="111.8" x2="179.9" y2="136.1"/>
	<line class="st1" x1="196.5" y1="113.3" x2="182.5" y2="137.6"/>
	<line class="st1" x1="199.1" y1="114.8" x2="185.1" y2="139.1"/>
	<line class="st1" x1="201.7" y1="116.3" x2="187.7" y2="140.6"/>
	<line class="st1" x1="204.3" y1="117.8" x2="190.3" y2="142.1"/>
	<line class="st1" x1="206.9" y1="119.3" x2="192.9" y2="143.6"/>
	<line class="st1" x1="209.5" y1="120.8" x2="195.5" y2="145.1"/>
	<line class="st1" x1="212.1" y1="122.3" x2="198.1" y2="146.6"/>
	<line class="st1" x1="214.7" y1="123.8" x2="200.7" y2="148.1"/>
	<line class="st1" x1="217.3" y1="125.3" x2="203.3" y2="149.6"/>
	<line class="st1" x1="219.9" y1="126.8" x2="205.9" y2="151.1"/>
	<line class="st1" x1="222.5" y1="128.4" x2="208.5" y2="152.6"/>
	<line class="st1" x1="225.1" y1="129.9" x2="211.1" y2="154.1"/>
	<line class="st1" x1="227.7" y1="131.4" x2="213.7" y2="155.6"/>
	<line class="st1" x1="230.3" y1="132.9" x2="216.3" y2="157.1"/>
	<line class="st1" x1="232.9" y1="134.4" x2="218.9" y2="158.6"/>
	<line class="st1" x1="235.5" y1="135.9" x2="221.5" y2="160.1"/>
	<line class="st1" x1="238.1" y1="137.4" x2="224.1" y2="161.6"/>
	<line class="st1" x1="240.7" y1="138.9" x2="226.7" y2="163.1"/>
	<line class="st1" x1="243.3" y1="140.4" x2="229.3" y2="164.6"/>
	<line class="st1" x1="245.9" y1="141.9" x2="231.9" y2="166.1"/>
	<line class="st1" x1="248.5" y1="143.4" x2="234.5" y2="167.6"/>
	<line class="st1" x1="251.1" y1="144.9" x2="237.1" y2="169.1"/>
	<line class="st1" x1="253.7" y1="146.4" x2="239.7" y2="170.6"/>
	<line class="st1" x1="256.3" y1="147.9" x2="242.3" y2="172.1"/>
	<line class="st1" x1="258.9" y1="149.4" x2="244.9" y2="173.6"/>
	<line class="st1" x1="261.5" y1="150.9" x2="247.5" y2="175.1"/>
	<line class="st1" x1="264" y1="152.4" x2="250" y2="176.6"/>
	<line class="st1" x1="266.6" y1="153.9" x2="252.6" y2="178.1"/>
	<line class="st1" x1="269.2" y1="155.4" x2="255.2" y2="179.6"/>
	<line class="st1" x1="271.8" y1="156.9" x2="257.8" y2="181.1"/>
	<line class="st1" x1="274.4" y1="158.4" x2="260.4" y2="182.6"/>
	<line class="st1" x1="277" y1="159.9" x2="263" y2="184.1"/>
	<line class="st1" x1="279.6" y1="161.4" x2="265.6" y2="185.6"/>
	<line class="st1" x1="282.2" y1="162.9" x2="268.2" y2="187.1"/>
	<line class="st1" x1="284.8" y1="164.4" x2="270.8" y2="188.6"/>
	<line class="st1" x1="287.4" y1="165.9" x2="273.4" y2="190.1"/>
	<line class="st1" x1="290" y1="167.4" x2="276" y2="191.6"/>
	<line class="st1" x1="292.6" y1="168.9" x2="278.6" y2="193.1"/>
	<line class="st1" x1="295.2" y1="170.4" x2="281.2" y2="194.6"/>
	<line class="st1" x1="297.8" y1="171.9" x2="283.8" y2="196.1"/>
	<line class="st1" x1="300.4" y1="173.4" x2="286.4" y2="197.6"/>
	<line class="st1" x1="303" y1="174.9" x2="289" y2="199.1"/>
	<line class="st1" x1="305.6" y1="176.4" x2="291.6" y2="200.6"/>
	<line class="st1" x1="308.2" y1="177.9" x2="294.2" y2="202.1"/>
	<line class="st1" x1="310.8" y1="179.4" x2="296.8" y2="203.6"/>
	<line class="st1" x1="313.4" y1="180.9" x2="299.4" y2="205.1"/>
	<line class="st1" x1="316" y1="182.4" x2="302" y2="206.6"/>
	<line class="st1" x1="318.6" y1="183.9" x2="304.6" y2="208.1"/>
	<line class="st1" x1="321.2" y1="185.4" x2="307.2" y2="209.6"/>
	<line class="st1" x1="323.8" y1="186.9" x2="309.8" y2="211.1"/>
	<line class="st1" x1="326.4" y1="188.4" x2="312.4" y2="212.6"/>
	<line class="st1" x1="329" y1="189.9" x2="315" y2="214.1"/>
	<line class="st1" x1="331.6" y1="191.4" x2="317.6" y2="215.6"/>
	<line class="st1" x1="334.2" y1="192.9" x2="320.2" y2="217.1"/>
	<line class="st1" x1="336.8" y1="194.4" x2="322.8" y2="218.6"/>
	<line class="st1" x1="337.9" y1="198.4" x2="325.4" y2="220.1"/>
	<line class="st1" x1="338" y1="204.3" x2="328" y2="221.6"/>
	<line class="st1" x1="337.6" y1="211" x2="330.6" y2="223.1"/>
	<line class="st1" x1="337.7" y1="216.8" x2="333.2" y2="224.6"/>
	<line class="st1" x1="337.8" y1="222.6" x2="335.8" y2="226.1"/>
</g>
</svg>
