<svg xmlns="http://www.w3.org/2000/svg" viewBox="0 0 341.42 228.63"><defs><style>.cls-1{fill:#912b26;}.cls-2{fill:none;stroke:#231f20;stroke-miterlimit:10;opacity:0.2;}</style></defs><title>MT-1</title><g id="Ribbon"><polygon class="cls-1" points="341.25 196.3 1.25 0 1.25 32.33 341.25 228.63 341.25 196.3"/></g><g id="Pattern"><line class="cls-2" x1="28.02" y1="15.35" x2="14.02" y2="39.6"/><line class="cls-2" x1="25.42" y1="13.85" x2="11.42" y2="38.1"/><line class="cls-2" x1="22.83" y1="12.35" x2="8.83" y2="36.6"/><line class="cls-2" x1="20.23" y1="10.85" x2="6.23" y2="35.1"/><line class="cls-2" x1="17.63" y1="9.35" x2="3.63" y2="33.6"/><line class="cls-2" x1="15.03" y1="7.85" x2="1.03" y2="32.1"/><line class="cls-2" x1="12.43" y1="6.35" x2="0.43" y2="27.13"/><line class="cls-2" x1="9.83" y1="4.85" x2="0.83" y2="20.44"/><line class="cls-2" x1="7.24" y1="3.35" x2="0.74" y2="14.61"/><line class="cls-2" x1="4.64" y1="1.85" x2="0.64" y2="8.78"/><line class="cls-2" x1="2.04" y1="0.35" x2="0.54" y2="2.95"/><line class="cls-2" x1="30.62" y1="16.85" x2="16.62" y2="41.1"/><line class="cls-2" x1="33.22" y1="18.35" x2="19.22" y2="42.6"/><line class="cls-2" x1="35.82" y1="19.85" x2="21.82" y2="44.1"/><line class="cls-2" x1="38.41" y1="21.35" x2="24.41" y2="45.6"/><line class="cls-2" x1="41.01" y1="22.85" x2="27.01" y2="47.1"/><line class="cls-2" x1="43.61" y1="24.35" x2="29.61" y2="48.6"/><line class="cls-2" x1="46.21" y1="25.85" x2="32.21" y2="50.1"/><line class="cls-2" x1="48.81" y1="27.35" x2="34.81" y2="51.6"/><line class="cls-2" x1="51.4" y1="28.85" x2="37.4" y2="53.1"/><line class="cls-2" x1="54" y1="30.35" x2="40" y2="54.6"/><line class="cls-2" x1="56.6" y1="31.85" x2="42.6" y2="56.1"/><line class="cls-2" x1="59.2" y1="33.35" x2="45.2" y2="57.6"/><line class="cls-2" x1="61.8" y1="34.85" x2="47.8" y2="59.1"/><line class="cls-2" x1="64.39" y1="36.35" x2="50.39" y2="60.6"/><line class="cls-2" x1="66.99" y1="37.85" x2="52.99" y2="62.1"/><line class="cls-2" x1="69.59" y1="39.35" x2="55.59" y2="63.6"/><line class="cls-2" x1="72.19" y1="40.85" x2="58.19" y2="65.1"/><line class="cls-2" x1="74.79" y1="42.35" x2="60.79" y2="66.6"/><line class="cls-2" x1="77.38" y1="43.85" x2="63.38" y2="68.1"/><line class="cls-2" x1="79.98" y1="45.35" x2="65.98" y2="69.6"/><line class="cls-2" x1="82.58" y1="46.85" x2="68.58" y2="71.1"/><line class="cls-2" x1="85.18" y1="48.35" x2="71.18" y2="72.6"/><line class="cls-2" x1="87.78" y1="49.85" x2="73.78" y2="74.1"/><line class="cls-2" x1="90.38" y1="51.35" x2="76.38" y2="75.6"/><line class="cls-2" x1="92.97" y1="52.85" x2="78.97" y2="77.1"/><line class="cls-2" x1="95.57" y1="54.35" x2="81.57" y2="78.6"/><line class="cls-2" x1="98.17" y1="55.85" x2="84.17" y2="80.1"/><line class="cls-2" x1="100.77" y1="57.35" x2="86.77" y2="81.6"/><line class="cls-2" x1="103.37" y1="58.85" x2="89.37" y2="83.1"/><line class="cls-2" x1="105.96" y1="60.35" x2="91.96" y2="84.6"/><line class="cls-2" x1="108.56" y1="61.85" x2="94.56" y2="86.1"/><line class="cls-2" x1="111.16" y1="63.35" x2="97.16" y2="87.6"/><line class="cls-2" x1="113.76" y1="64.85" x2="99.76" y2="89.1"/><line class="cls-2" x1="116.36" y1="66.35" x2="102.36" y2="90.6"/><line class="cls-2" x1="118.95" y1="67.85" x2="104.95" y2="92.1"/><line class="cls-2" x1="121.55" y1="69.35" x2="107.55" y2="93.6"/><line class="cls-2" x1="124.15" y1="70.85" x2="110.15" y2="95.1"/><line class="cls-2" x1="126.75" y1="72.35" x2="112.75" y2="96.6"/><line class="cls-2" x1="129.35" y1="73.85" x2="115.35" y2="98.1"/><line class="cls-2" x1="131.94" y1="75.35" x2="117.94" y2="99.6"/><line class="cls-2" x1="134.54" y1="76.85" x2="120.54" y2="101.1"/><line class="cls-2" x1="137.14" y1="78.35" x2="123.14" y2="102.6"/><line class="cls-2" x1="139.74" y1="79.85" x2="125.74" y2="104.1"/><line class="cls-2" x1="142.34" y1="81.35" x2="128.34" y2="105.6"/><line class="cls-2" x1="144.93" y1="82.85" x2="130.93" y2="107.1"/><line class="cls-2" x1="147.53" y1="84.35" x2="133.53" y2="108.6"/><line class="cls-2" x1="150.13" y1="85.85" x2="136.13" y2="110.1"/><line class="cls-2" x1="152.73" y1="87.35" x2="138.73" y2="111.6"/><line class="cls-2" x1="155.33" y1="88.85" x2="141.33" y2="113.1"/><line class="cls-2" x1="157.93" y1="90.35" x2="143.93" y2="114.6"/><line class="cls-2" x1="160.52" y1="91.85" x2="146.52" y2="116.1"/><line class="cls-2" x1="163.12" y1="93.35" x2="149.12" y2="117.6"/><line class="cls-2" x1="165.72" y1="94.85" x2="151.72" y2="119.1"/><line class="cls-2" x1="168.32" y1="96.35" x2="154.32" y2="120.6"/><line class="cls-2" x1="170.92" y1="97.85" x2="156.92" y2="122.1"/><line class="cls-2" x1="173.51" y1="99.35" x2="159.51" y2="123.6"/><line class="cls-2" x1="176.11" y1="100.85" x2="162.11" y2="125.1"/><line class="cls-2" x1="178.71" y1="102.35" x2="164.71" y2="126.6"/><line class="cls-2" x1="181.31" y1="103.85" x2="167.31" y2="128.1"/><line class="cls-2" x1="183.91" y1="105.35" x2="169.91" y2="129.6"/><line class="cls-2" x1="186.5" y1="106.85" x2="172.5" y2="131.1"/><line class="cls-2" x1="189.1" y1="108.35" x2="175.1" y2="132.6"/><line class="cls-2" x1="191.7" y1="109.85" x2="177.7" y2="134.1"/><line class="cls-2" x1="194.3" y1="111.35" x2="180.3" y2="135.6"/><line class="cls-2" x1="196.9" y1="112.85" x2="182.9" y2="137.1"/><line class="cls-2" x1="199.49" y1="114.35" x2="185.49" y2="138.6"/><line class="cls-2" x1="202.09" y1="115.85" x2="188.09" y2="140.1"/><line class="cls-2" x1="204.69" y1="117.35" x2="190.69" y2="141.6"/><line class="cls-2" x1="207.29" y1="118.85" x2="193.29" y2="143.1"/><line class="cls-2" x1="209.89" y1="120.35" x2="195.89" y2="144.6"/><line class="cls-2" x1="212.48" y1="121.85" x2="198.48" y2="146.1"/><line class="cls-2" x1="215.08" y1="123.35" x2="201.08" y2="147.6"/><line class="cls-2" x1="217.68" y1="124.85" x2="203.68" y2="149.1"/><line class="cls-2" x1="220.28" y1="126.35" x2="206.28" y2="150.6"/><line class="cls-2" x1="222.88" y1="127.85" x2="208.88" y2="152.1"/><line class="cls-2" x1="225.48" y1="129.35" x2="211.48" y2="153.6"/><line class="cls-2" x1="228.07" y1="130.85" x2="214.07" y2="155.1"/><line class="cls-2" x1="230.67" y1="132.35" x2="216.67" y2="156.6"/><line class="cls-2" x1="233.27" y1="133.85" x2="219.27" y2="158.1"/><line class="cls-2" x1="235.87" y1="135.35" x2="221.87" y2="159.6"/><line class="cls-2" x1="238.47" y1="136.85" x2="224.47" y2="161.1"/><line class="cls-2" x1="241.06" y1="138.35" x2="227.06" y2="162.6"/><line class="cls-2" x1="243.66" y1="139.85" x2="229.66" y2="164.1"/><line class="cls-2" x1="246.26" y1="141.35" x2="232.26" y2="165.6"/><line class="cls-2" x1="248.86" y1="142.85" x2="234.86" y2="167.1"/><line class="cls-2" x1="251.46" y1="144.35" x2="237.46" y2="168.6"/><line class="cls-2" x1="254.05" y1="145.85" x2="240.05" y2="170.1"/><line class="cls-2" x1="256.65" y1="147.35" x2="242.65" y2="171.6"/><line class="cls-2" x1="259.25" y1="148.85" x2="245.25" y2="173.1"/><line class="cls-2" x1="261.85" y1="150.35" x2="247.85" y2="174.6"/><line class="cls-2" x1="264.45" y1="151.85" x2="250.45" y2="176.1"/><line class="cls-2" x1="267.04" y1="153.35" x2="253.04" y2="177.6"/><line class="cls-2" x1="269.64" y1="154.85" x2="255.64" y2="179.1"/><line class="cls-2" x1="272.24" y1="156.35" x2="258.24" y2="180.6"/><line class="cls-2" x1="274.84" y1="157.85" x2="260.84" y2="182.1"/><line class="cls-2" x1="277.44" y1="159.35" x2="263.44" y2="183.6"/><line class="cls-2" x1="280.03" y1="160.85" x2="266.03" y2="185.1"/><line class="cls-2" x1="282.63" y1="162.35" x2="268.63" y2="186.6"/><line class="cls-2" x1="285.23" y1="163.85" x2="271.23" y2="188.1"/><line class="cls-2" x1="287.83" y1="165.35" x2="273.83" y2="189.6"/><line class="cls-2" x1="290.43" y1="166.85" x2="276.43" y2="191.1"/><line class="cls-2" x1="293.03" y1="168.35" x2="279.03" y2="192.6"/><line class="cls-2" x1="295.62" y1="169.85" x2="281.62" y2="194.1"/><line class="cls-2" x1="298.22" y1="171.35" x2="284.22" y2="195.6"/><line class="cls-2" x1="300.82" y1="172.85" x2="286.82" y2="197.1"/><line class="cls-2" x1="303.42" y1="174.35" x2="289.42" y2="198.6"/><line class="cls-2" x1="306.02" y1="175.85" x2="292.02" y2="200.1"/><line class="cls-2" x1="308.61" y1="177.35" x2="294.61" y2="201.6"/><line class="cls-2" x1="311.21" y1="178.85" x2="297.21" y2="203.1"/><line class="cls-2" x1="313.81" y1="180.35" x2="299.81" y2="204.6"/><line class="cls-2" x1="316.41" y1="181.85" x2="302.41" y2="206.1"/><line class="cls-2" x1="319.01" y1="183.35" x2="305.01" y2="207.6"/><line class="cls-2" x1="321.6" y1="184.85" x2="307.6" y2="209.1"/><line class="cls-2" x1="324.2" y1="186.35" x2="310.2" y2="210.6"/><line class="cls-2" x1="326.8" y1="187.85" x2="312.8" y2="212.1"/><line class="cls-2" x1="329.4" y1="189.35" x2="315.4" y2="213.6"/><line class="cls-2" x1="332" y1="190.85" x2="318" y2="215.1"/><line class="cls-2" x1="334.59" y1="192.35" x2="320.59" y2="216.6"/><line class="cls-2" x1="337.19" y1="193.85" x2="323.19" y2="218.1"/><line class="cls-2" x1="339.79" y1="195.35" x2="325.79" y2="219.6"/><line class="cls-2" x1="340.89" y1="199.45" x2="328.39" y2="221.1"/><line class="cls-2" x1="340.99" y1="205.28" x2="330.99" y2="222.6"/><line class="cls-2" x1="340.58" y1="211.97" x2="333.58" y2="224.1"/><line class="cls-2" x1="340.68" y1="217.8" x2="336.18" y2="225.6"/><line class="cls-2" x1="340.78" y1="223.63" x2="338.78" y2="227.1"/></g></svg>