<?xml version="1.0" encoding="utf-8"?>
<!-- Generator: Adobe Illustrator 21.0.0, SVG Export Plug-In . SVG Version: 6.00 Build 0)  -->
<svg version="1.1" id="Layer_1" xmlns="http://www.w3.org/2000/svg"  x="0px" y="0px"
	 viewBox="0 0 341.4 228.6" style="enable-background:new 0 0 341.4 228.6;" xml:space="preserve">
<style type="text/css">
	.st0{fill:#912B26;}
	.st1{opacity:0.2;fill:none;stroke:#231F20;stroke-miterlimit:10;enable-background:new    ;}
</style>
<title>MT-1</title>
<g id="Ribbon">
	<polygon class="st0" points="342.2,196.3 2.2,0 2.2,32.3 342.2,228.6 	"/>
</g>
<g id="Pattern">
	<line class="st1" x1="29" y1="15.4" x2="15" y2="39.6"/>
	<line class="st1" x1="26.4" y1="13.9" x2="12.4" y2="38.1"/>
	<line class="st1" x1="23.8" y1="12.4" x2="9.8" y2="36.6"/>
	<line class="st1" x1="21.2" y1="10.9" x2="7.2" y2="35.1"/>
	<line class="st1" x1="18.6" y1="9.4" x2="4.6" y2="33.6"/>
	<line class="st1" x1="16" y1="7.8" x2="2" y2="32.1"/>
	<line class="st1" x1="13.4" y1="6.3" x2="1.4" y2="27.1"/>
	<line class="st1" x1="10.8" y1="4.8" x2="1.8" y2="20.4"/>
	<line class="st1" x1="8.2" y1="3.3" x2="1.7" y2="14.6"/>
	<line class="st1" x1="5.6" y1="1.9" x2="1.6" y2="8.8"/>
	<line class="st1" x1="3" y1="0.3" x2="1.5" y2="3"/>
	<line class="st1" x1="31.6" y1="16.9" x2="17.6" y2="41.1"/>
	<line class="st1" x1="34.2" y1="18.4" x2="20.2" y2="42.6"/>
	<line class="st1" x1="36.8" y1="19.9" x2="22.8" y2="44.1"/>
	<line class="st1" x1="39.4" y1="21.4" x2="25.4" y2="45.6"/>
	<line class="st1" x1="42" y1="22.9" x2="28" y2="47.1"/>
	<line class="st1" x1="44.6" y1="24.4" x2="30.6" y2="48.6"/>
	<line class="st1" x1="47.2" y1="25.9" x2="33.2" y2="50.1"/>
	<line class="st1" x1="49.8" y1="27.4" x2="35.8" y2="51.6"/>
	<line class="st1" x1="52.4" y1="28.9" x2="38.4" y2="53.1"/>
	<line class="st1" x1="55" y1="30.4" x2="41" y2="54.6"/>
	<line class="st1" x1="57.6" y1="31.9" x2="43.6" y2="56.1"/>
	<line class="st1" x1="60.2" y1="33.3" x2="46.2" y2="57.6"/>
	<line class="st1" x1="62.8" y1="34.8" x2="48.8" y2="59.1"/>
	<line class="st1" x1="65.4" y1="36.3" x2="51.4" y2="60.6"/>
	<line class="st1" x1="68" y1="37.8" x2="54" y2="62.1"/>
	<line class="st1" x1="70.6" y1="39.3" x2="56.6" y2="63.6"/>
	<line class="st1" x1="73.2" y1="40.8" x2="59.2" y2="65.1"/>
	<line class="st1" x1="75.8" y1="42.3" x2="61.8" y2="66.6"/>
	<line class="st1" x1="78.4" y1="43.8" x2="64.4" y2="68.1"/>
	<line class="st1" x1="81" y1="45.3" x2="67" y2="69.6"/>
	<line class="st1" x1="83.6" y1="46.8" x2="69.6" y2="71.1"/>
	<line class="st1" x1="86.2" y1="48.3" x2="72.2" y2="72.6"/>
	<line class="st1" x1="88.8" y1="49.8" x2="74.8" y2="74.1"/>
	<line class="st1" x1="91.4" y1="51.3" x2="77.4" y2="75.6"/>
	<line class="st1" x1="94" y1="52.8" x2="80" y2="77.1"/>
	<line class="st1" x1="96.6" y1="54.3" x2="82.6" y2="78.6"/>
	<line class="st1" x1="99.2" y1="55.8" x2="85.2" y2="80.1"/>
	<line class="st1" x1="101.8" y1="57.3" x2="87.8" y2="81.6"/>
	<line class="st1" x1="104.4" y1="58.8" x2="90.4" y2="83.1"/>
	<line class="st1" x1="107" y1="60.3" x2="93" y2="84.6"/>
	<line class="st1" x1="109.6" y1="61.8" x2="95.6" y2="86.1"/>
	<line class="st1" x1="112.2" y1="63.3" x2="98.2" y2="87.6"/>
	<line class="st1" x1="114.8" y1="64.8" x2="100.8" y2="89.1"/>
	<line class="st1" x1="117.4" y1="66.3" x2="103.4" y2="90.6"/>
	<line class="st1" x1="119.9" y1="67.8" x2="105.9" y2="92.1"/>
	<line class="st1" x1="122.6" y1="69.3" x2="108.6" y2="93.6"/>
	<line class="st1" x1="125.2" y1="70.8" x2="111.2" y2="95.1"/>
	<line class="st1" x1="127.8" y1="72.3" x2="113.8" y2="96.6"/>
	<line class="st1" x1="130.4" y1="73.8" x2="116.3" y2="98.1"/>
	<line class="st1" x1="132.9" y1="75.3" x2="118.9" y2="99.6"/>
	<line class="st1" x1="135.5" y1="76.8" x2="121.5" y2="101.1"/>
	<line class="st1" x1="138.1" y1="78.3" x2="124.1" y2="102.6"/>
	<line class="st1" x1="140.7" y1="79.8" x2="126.7" y2="104.1"/>
	<line class="st1" x1="143.3" y1="81.3" x2="129.3" y2="105.6"/>
	<line class="st1" x1="145.9" y1="82.8" x2="131.9" y2="107.1"/>
	<line class="st1" x1="148.5" y1="84.3" x2="134.5" y2="108.6"/>
	<line class="st1" x1="151.1" y1="85.8" x2="137.1" y2="110.1"/>
	<line class="st1" x1="153.7" y1="87.3" x2="139.7" y2="111.6"/>
	<line class="st1" x1="156.3" y1="88.8" x2="142.3" y2="113.1"/>
	<line class="st1" x1="158.9" y1="90.3" x2="144.9" y2="114.6"/>
	<line class="st1" x1="161.5" y1="91.8" x2="147.5" y2="116.1"/>
	<line class="st1" x1="164.1" y1="93.3" x2="150.1" y2="117.6"/>
	<line class="st1" x1="166.7" y1="94.8" x2="152.7" y2="119.1"/>
	<line class="st1" x1="169.3" y1="96.3" x2="155.3" y2="120.6"/>
	<line class="st1" x1="171.9" y1="97.8" x2="157.9" y2="122.1"/>
	<line class="st1" x1="174.5" y1="99.3" x2="160.5" y2="123.6"/>
	<line class="st1" x1="177.1" y1="100.8" x2="163.1" y2="125.1"/>
	<line class="st1" x1="179.7" y1="102.3" x2="165.7" y2="126.6"/>
	<line class="st1" x1="182.3" y1="103.8" x2="168.3" y2="128.1"/>
	<line class="st1" x1="184.9" y1="105.3" x2="170.9" y2="129.6"/>
	<line class="st1" x1="187.5" y1="106.8" x2="173.5" y2="131.1"/>
	<line class="st1" x1="190.1" y1="108.3" x2="176.1" y2="132.6"/>
	<line class="st1" x1="192.7" y1="109.8" x2="178.7" y2="134.1"/>
	<line class="st1" x1="195.3" y1="111.3" x2="181.3" y2="135.6"/>
	<line class="st1" x1="197.9" y1="112.8" x2="183.9" y2="137.1"/>
	<line class="st1" x1="200.5" y1="114.3" x2="186.5" y2="138.6"/>
	<line class="st1" x1="203.1" y1="115.8" x2="189.1" y2="140.1"/>
	<line class="st1" x1="205.7" y1="117.3" x2="191.7" y2="141.6"/>
	<line class="st1" x1="208.3" y1="118.8" x2="194.3" y2="143.1"/>
	<line class="st1" x1="210.9" y1="120.3" x2="196.9" y2="144.6"/>
	<line class="st1" x1="213.5" y1="121.8" x2="199.5" y2="146.1"/>
	<line class="st1" x1="216.1" y1="123.3" x2="202.1" y2="147.6"/>
	<line class="st1" x1="218.7" y1="124.8" x2="204.7" y2="149.1"/>
	<line class="st1" x1="221.3" y1="126.3" x2="207.3" y2="150.6"/>
	<line class="st1" x1="223.9" y1="127.8" x2="209.9" y2="152.1"/>
	<line class="st1" x1="226.5" y1="129.4" x2="212.5" y2="153.6"/>
	<line class="st1" x1="229.1" y1="130.9" x2="215.1" y2="155.1"/>
	<line class="st1" x1="231.7" y1="132.4" x2="217.7" y2="156.6"/>
	<line class="st1" x1="234.3" y1="133.9" x2="220.3" y2="158.1"/>
	<line class="st1" x1="236.9" y1="135.4" x2="222.9" y2="159.6"/>
	<line class="st1" x1="239.5" y1="136.9" x2="225.5" y2="161.1"/>
	<line class="st1" x1="242.1" y1="138.4" x2="228.1" y2="162.6"/>
	<line class="st1" x1="244.7" y1="139.9" x2="230.7" y2="164.1"/>
	<line class="st1" x1="247.3" y1="141.4" x2="233.3" y2="165.6"/>
	<line class="st1" x1="249.9" y1="142.9" x2="235.9" y2="167.1"/>
	<line class="st1" x1="252.5" y1="144.4" x2="238.5" y2="168.6"/>
	<line class="st1" x1="255.1" y1="145.9" x2="241.1" y2="170.1"/>
	<line class="st1" x1="257.6" y1="147.4" x2="243.6" y2="171.6"/>
	<line class="st1" x1="260.2" y1="148.9" x2="246.2" y2="173.1"/>
	<line class="st1" x1="262.9" y1="150.4" x2="248.9" y2="174.6"/>
	<line class="st1" x1="265.5" y1="151.9" x2="251.4" y2="176.1"/>
	<line class="st1" x1="268" y1="153.4" x2="254" y2="177.6"/>
	<line class="st1" x1="270.6" y1="154.9" x2="256.6" y2="179.1"/>
	<line class="st1" x1="273.2" y1="156.4" x2="259.2" y2="180.6"/>
	<line class="st1" x1="275.8" y1="157.9" x2="261.8" y2="182.1"/>
	<line class="st1" x1="278.4" y1="159.4" x2="264.4" y2="183.6"/>
	<line class="st1" x1="281" y1="160.9" x2="267" y2="185.1"/>
	<line class="st1" x1="283.6" y1="162.4" x2="269.6" y2="186.6"/>
	<line class="st1" x1="286.2" y1="163.9" x2="272.2" y2="188.1"/>
	<line class="st1" x1="288.8" y1="165.4" x2="274.8" y2="189.6"/>
	<line class="st1" x1="291.4" y1="166.9" x2="277.4" y2="191.1"/>
	<line class="st1" x1="294" y1="168.4" x2="280" y2="192.6"/>
	<line class="st1" x1="296.6" y1="169.9" x2="282.6" y2="194.1"/>
	<line class="st1" x1="299.2" y1="171.4" x2="285.2" y2="195.6"/>
	<line class="st1" x1="301.8" y1="172.9" x2="287.8" y2="197.1"/>
	<line class="st1" x1="304.4" y1="174.4" x2="290.4" y2="198.6"/>
	<line class="st1" x1="307" y1="175.9" x2="293" y2="200.1"/>
	<line class="st1" x1="309.6" y1="177.4" x2="295.6" y2="201.6"/>
	<line class="st1" x1="312.2" y1="178.9" x2="298.2" y2="203.1"/>
	<line class="st1" x1="314.8" y1="180.4" x2="300.8" y2="204.6"/>
	<line class="st1" x1="317.4" y1="181.9" x2="303.4" y2="206.1"/>
	<line class="st1" x1="320" y1="183.4" x2="306" y2="207.6"/>
	<line class="st1" x1="322.6" y1="184.9" x2="308.6" y2="209.1"/>
	<line class="st1" x1="325.2" y1="186.4" x2="311.2" y2="210.6"/>
	<line class="st1" x1="327.8" y1="187.9" x2="313.8" y2="212.1"/>
	<line class="st1" x1="330.4" y1="189.4" x2="316.4" y2="213.6"/>
	<line class="st1" x1="333" y1="190.9" x2="319" y2="215.1"/>
	<line class="st1" x1="335.6" y1="192.4" x2="321.6" y2="216.6"/>
	<line class="st1" x1="338.2" y1="193.9" x2="324.2" y2="218.1"/>
	<line class="st1" x1="340.8" y1="195.4" x2="326.8" y2="219.6"/>
	<line class="st1" x1="341.9" y1="199.4" x2="329.4" y2="221.1"/>
	<line class="st1" x1="342" y1="205.3" x2="332" y2="222.6"/>
	<line class="st1" x1="341.6" y1="212" x2="334.6" y2="224.1"/>
	<line class="st1" x1="341.7" y1="217.8" x2="337.2" y2="225.6"/>
	<line class="st1" x1="341.8" y1="223.6" x2="339.8" y2="227.1"/>
</g>
</svg>
