<?xml version="1.0" encoding="utf-8"?>
<!-- Generator: Adobe Illustrator 21.0.0, SVG Export Plug-In . SVG Version: 6.00 Build 0)  -->
<svg version="1.1" xmlns="http://www.w3.org/2000/svg"  x="0px" y="0px"
	 viewBox="0 0 341.4 262.6" style="enable-background:new 0 0 341.4 262.6;" xml:space="preserve">
<style type="text/css">
	.st0{fill:#ED1C24;}
	.st1{opacity:0.2;fill:none;stroke:#231F20;stroke-miterlimit:10;}
</style>
<g id="Ribbon">
</g>
<g id="Pattern">
	<g>
		<polygon class="st0" points="341.3,196.3 1.3,0 1.3,32.3 341.3,228.6 		"/>
		<g>
			<line class="st1" x1="28" y1="15.3" x2="14" y2="39.6"/>
			<line class="st1" x1="25.4" y1="13.8" x2="11.4" y2="38.1"/>
			<line class="st1" x1="22.8" y1="12.3" x2="8.8" y2="36.6"/>
			<line class="st1" x1="20.2" y1="10.8" x2="6.2" y2="35.1"/>
			<line class="st1" x1="17.6" y1="9.3" x2="3.6" y2="33.6"/>
			<line class="st1" x1="15" y1="7.8" x2="1" y2="32.1"/>
			<line class="st1" x1="12.4" y1="6.3" x2="0.4" y2="27.1"/>
			<line class="st1" x1="9.8" y1="4.8" x2="0.8" y2="20.4"/>
			<line class="st1" x1="7.2" y1="3.3" x2="0.7" y2="14.6"/>
			<line class="st1" x1="4.6" y1="1.8" x2="0.6" y2="8.8"/>
			<line class="st1" x1="2" y1="0.3" x2="0.5" y2="2.9"/>
			<line class="st1" x1="30.6" y1="16.8" x2="16.6" y2="41.1"/>
			<line class="st1" x1="33.2" y1="18.3" x2="19.2" y2="42.6"/>
			<line class="st1" x1="35.8" y1="19.8" x2="21.8" y2="44.1"/>
			<line class="st1" x1="38.4" y1="21.3" x2="24.4" y2="45.6"/>
			<line class="st1" x1="41" y1="22.8" x2="27" y2="47.1"/>
			<line class="st1" x1="43.6" y1="24.3" x2="29.6" y2="48.6"/>
			<line class="st1" x1="46.2" y1="25.8" x2="32.2" y2="50.1"/>
			<line class="st1" x1="48.8" y1="27.3" x2="34.8" y2="51.6"/>
			<line class="st1" x1="51.4" y1="28.8" x2="37.4" y2="53.1"/>
			<line class="st1" x1="54" y1="30.3" x2="40" y2="54.6"/>
			<line class="st1" x1="56.6" y1="31.8" x2="42.6" y2="56.1"/>
			<line class="st1" x1="59.2" y1="33.3" x2="45.2" y2="57.6"/>
			<line class="st1" x1="61.8" y1="34.8" x2="47.8" y2="59.1"/>
			<line class="st1" x1="64.4" y1="36.3" x2="50.4" y2="60.6"/>
			<line class="st1" x1="67" y1="37.8" x2="53" y2="62.1"/>
			<line class="st1" x1="69.6" y1="39.3" x2="55.6" y2="63.6"/>
			<line class="st1" x1="72.2" y1="40.8" x2="58.2" y2="65.1"/>
			<line class="st1" x1="74.8" y1="42.3" x2="60.8" y2="66.6"/>
			<line class="st1" x1="77.4" y1="43.8" x2="63.4" y2="68.1"/>
			<line class="st1" x1="80" y1="45.3" x2="66" y2="69.6"/>
			<line class="st1" x1="82.6" y1="46.8" x2="68.6" y2="71.1"/>
			<line class="st1" x1="85.2" y1="48.3" x2="71.2" y2="72.6"/>
			<line class="st1" x1="87.8" y1="49.8" x2="73.8" y2="74.1"/>
			<line class="st1" x1="90.4" y1="51.3" x2="76.4" y2="75.6"/>
			<line class="st1" x1="93" y1="52.8" x2="79" y2="77.1"/>
			<line class="st1" x1="95.6" y1="54.3" x2="81.6" y2="78.6"/>
			<line class="st1" x1="98.2" y1="55.8" x2="84.2" y2="80.1"/>
			<line class="st1" x1="100.8" y1="57.3" x2="86.8" y2="81.6"/>
			<line class="st1" x1="103.4" y1="58.8" x2="89.4" y2="83.1"/>
			<line class="st1" x1="106" y1="60.3" x2="92" y2="84.6"/>
			<line class="st1" x1="108.6" y1="61.8" x2="94.6" y2="86.1"/>
			<line class="st1" x1="111.2" y1="63.3" x2="97.2" y2="87.6"/>
			<line class="st1" x1="113.8" y1="64.8" x2="99.8" y2="89.1"/>
			<line class="st1" x1="116.4" y1="66.3" x2="102.4" y2="90.6"/>
			<line class="st1" x1="119" y1="67.8" x2="105" y2="92.1"/>
			<line class="st1" x1="121.6" y1="69.3" x2="107.6" y2="93.6"/>
			<line class="st1" x1="124.2" y1="70.8" x2="110.2" y2="95.1"/>
			<line class="st1" x1="126.7" y1="72.3" x2="112.7" y2="96.6"/>
			<line class="st1" x1="129.3" y1="73.8" x2="115.3" y2="98.1"/>
			<line class="st1" x1="131.9" y1="75.3" x2="117.9" y2="99.6"/>
			<line class="st1" x1="134.5" y1="76.8" x2="120.5" y2="101.1"/>
			<line class="st1" x1="137.1" y1="78.3" x2="123.1" y2="102.6"/>
			<line class="st1" x1="139.7" y1="79.8" x2="125.7" y2="104.1"/>
			<line class="st1" x1="142.3" y1="81.3" x2="128.3" y2="105.6"/>
			<line class="st1" x1="144.9" y1="82.8" x2="130.9" y2="107.1"/>
			<line class="st1" x1="147.5" y1="84.3" x2="133.5" y2="108.6"/>
			<line class="st1" x1="150.1" y1="85.8" x2="136.1" y2="110.1"/>
			<line class="st1" x1="152.7" y1="87.3" x2="138.7" y2="111.6"/>
			<line class="st1" x1="155.3" y1="88.8" x2="141.3" y2="113.1"/>
			<line class="st1" x1="157.9" y1="90.3" x2="143.9" y2="114.6"/>
			<line class="st1" x1="160.5" y1="91.8" x2="146.5" y2="116.1"/>
			<line class="st1" x1="163.1" y1="93.3" x2="149.1" y2="117.6"/>
			<line class="st1" x1="165.7" y1="94.8" x2="151.7" y2="119.1"/>
			<line class="st1" x1="168.3" y1="96.3" x2="154.3" y2="120.6"/>
			<line class="st1" x1="170.9" y1="97.8" x2="156.9" y2="122.1"/>
			<line class="st1" x1="173.5" y1="99.3" x2="159.5" y2="123.6"/>
			<line class="st1" x1="176.1" y1="100.8" x2="162.1" y2="125.1"/>
			<line class="st1" x1="178.7" y1="102.3" x2="164.7" y2="126.6"/>
			<line class="st1" x1="181.3" y1="103.8" x2="167.3" y2="128.1"/>
			<line class="st1" x1="183.9" y1="105.3" x2="169.9" y2="129.6"/>
			<line class="st1" x1="186.5" y1="106.8" x2="172.5" y2="131.1"/>
			<line class="st1" x1="189.1" y1="108.3" x2="175.1" y2="132.6"/>
			<line class="st1" x1="191.7" y1="109.8" x2="177.7" y2="134.1"/>
			<line class="st1" x1="194.3" y1="111.3" x2="180.3" y2="135.6"/>
			<line class="st1" x1="196.9" y1="112.8" x2="182.9" y2="137.1"/>
			<line class="st1" x1="199.5" y1="114.3" x2="185.5" y2="138.6"/>
			<line class="st1" x1="202.1" y1="115.8" x2="188.1" y2="140.1"/>
			<line class="st1" x1="204.7" y1="117.3" x2="190.7" y2="141.6"/>
			<line class="st1" x1="207.3" y1="118.8" x2="193.3" y2="143.1"/>
			<line class="st1" x1="209.9" y1="120.3" x2="195.9" y2="144.6"/>
			<line class="st1" x1="212.5" y1="121.8" x2="198.5" y2="146.1"/>
			<line class="st1" x1="215.1" y1="123.3" x2="201.1" y2="147.6"/>
			<line class="st1" x1="217.7" y1="124.8" x2="203.7" y2="149.1"/>
			<line class="st1" x1="220.3" y1="126.3" x2="206.3" y2="150.6"/>
			<line class="st1" x1="222.9" y1="127.8" x2="208.9" y2="152.1"/>
			<line class="st1" x1="225.5" y1="129.3" x2="211.5" y2="153.6"/>
			<line class="st1" x1="228.1" y1="130.8" x2="214.1" y2="155.1"/>
			<line class="st1" x1="230.7" y1="132.3" x2="216.7" y2="156.6"/>
			<line class="st1" x1="233.3" y1="133.8" x2="219.3" y2="158.1"/>
			<line class="st1" x1="235.9" y1="135.3" x2="221.9" y2="159.6"/>
			<line class="st1" x1="238.5" y1="136.8" x2="224.5" y2="161.1"/>
			<line class="st1" x1="241.1" y1="138.3" x2="227.1" y2="162.6"/>
			<line class="st1" x1="243.7" y1="139.8" x2="229.7" y2="164.1"/>
			<line class="st1" x1="246.3" y1="141.3" x2="232.3" y2="165.6"/>
			<line class="st1" x1="248.9" y1="142.8" x2="234.9" y2="167.1"/>
			<line class="st1" x1="251.5" y1="144.3" x2="237.5" y2="168.6"/>
			<line class="st1" x1="254.1" y1="145.8" x2="240.1" y2="170.1"/>
			<line class="st1" x1="256.7" y1="147.3" x2="242.7" y2="171.6"/>
			<line class="st1" x1="259.3" y1="148.8" x2="245.3" y2="173.1"/>
			<line class="st1" x1="261.8" y1="150.3" x2="247.8" y2="174.6"/>
			<line class="st1" x1="264.4" y1="151.8" x2="250.4" y2="176.1"/>
			<line class="st1" x1="267" y1="153.3" x2="253" y2="177.6"/>
			<line class="st1" x1="269.6" y1="154.8" x2="255.6" y2="179.1"/>
			<line class="st1" x1="272.2" y1="156.3" x2="258.2" y2="180.6"/>
			<line class="st1" x1="274.8" y1="157.8" x2="260.8" y2="182.1"/>
			<line class="st1" x1="277.4" y1="159.3" x2="263.4" y2="183.6"/>
			<line class="st1" x1="280" y1="160.8" x2="266" y2="185.1"/>
			<line class="st1" x1="282.6" y1="162.3" x2="268.6" y2="186.6"/>
			<line class="st1" x1="285.2" y1="163.8" x2="271.2" y2="188.1"/>
			<line class="st1" x1="287.8" y1="165.3" x2="273.8" y2="189.6"/>
			<line class="st1" x1="290.4" y1="166.8" x2="276.4" y2="191.1"/>
			<line class="st1" x1="293" y1="168.3" x2="279" y2="192.6"/>
			<line class="st1" x1="295.6" y1="169.8" x2="281.6" y2="194.1"/>
			<line class="st1" x1="298.2" y1="171.3" x2="284.2" y2="195.6"/>
			<line class="st1" x1="300.8" y1="172.8" x2="286.8" y2="197.1"/>
			<line class="st1" x1="303.4" y1="174.3" x2="289.4" y2="198.6"/>
			<line class="st1" x1="306" y1="175.8" x2="292" y2="200.1"/>
			<line class="st1" x1="308.6" y1="177.3" x2="294.6" y2="201.6"/>
			<line class="st1" x1="311.2" y1="178.8" x2="297.2" y2="203.1"/>
			<line class="st1" x1="313.8" y1="180.3" x2="299.8" y2="204.6"/>
			<line class="st1" x1="316.4" y1="181.8" x2="302.4" y2="206.1"/>
			<line class="st1" x1="319" y1="183.3" x2="305" y2="207.6"/>
			<line class="st1" x1="321.6" y1="184.8" x2="307.6" y2="209.1"/>
			<line class="st1" x1="324.2" y1="186.3" x2="310.2" y2="210.6"/>
			<line class="st1" x1="326.8" y1="187.8" x2="312.8" y2="212.1"/>
			<line class="st1" x1="329.4" y1="189.3" x2="315.4" y2="213.6"/>
			<line class="st1" x1="332" y1="190.8" x2="318" y2="215.1"/>
			<line class="st1" x1="334.6" y1="192.3" x2="320.6" y2="216.6"/>
			<line class="st1" x1="337.2" y1="193.8" x2="323.2" y2="218.1"/>
			<line class="st1" x1="339.8" y1="195.3" x2="325.8" y2="219.6"/>
			<line class="st1" x1="340.9" y1="199.4" x2="328.4" y2="221.1"/>
			<line class="st1" x1="341" y1="205.3" x2="331" y2="222.6"/>
			<line class="st1" x1="340.6" y1="212" x2="333.6" y2="224.1"/>
			<line class="st1" x1="340.7" y1="217.8" x2="336.2" y2="225.6"/>
			<line class="st1" x1="340.8" y1="223.6" x2="338.8" y2="227.1"/>
		</g>
	</g>
</g>
<g id="Layer_3">
	<g>
		<polygon class="st0" points="341.3,230.3 1.3,34 1.3,66.3 341.3,262.6 		"/>
		<g>
			<line class="st1" x1="28" y1="49.3" x2="14" y2="73.6"/>
			<line class="st1" x1="25.4" y1="47.8" x2="11.4" y2="72.1"/>
			<line class="st1" x1="22.8" y1="46.3" x2="8.8" y2="70.6"/>
			<line class="st1" x1="20.2" y1="44.8" x2="6.2" y2="69.1"/>
			<line class="st1" x1="17.6" y1="43.3" x2="3.6" y2="67.6"/>
			<line class="st1" x1="15" y1="41.8" x2="1" y2="66.1"/>
			<line class="st1" x1="12.4" y1="40.3" x2="0.4" y2="61.1"/>
			<line class="st1" x1="9.8" y1="38.8" x2="0.8" y2="54.4"/>
			<line class="st1" x1="7.2" y1="37.3" x2="0.7" y2="48.6"/>
			<line class="st1" x1="4.6" y1="35.8" x2="0.6" y2="42.8"/>
			<line class="st1" x1="2" y1="34.3" x2="0.5" y2="36.9"/>
			<line class="st1" x1="30.6" y1="50.8" x2="16.6" y2="75.1"/>
			<line class="st1" x1="33.2" y1="52.3" x2="19.2" y2="76.6"/>
			<line class="st1" x1="35.8" y1="53.8" x2="21.8" y2="78.1"/>
			<line class="st1" x1="38.4" y1="55.3" x2="24.4" y2="79.6"/>
			<line class="st1" x1="41" y1="56.8" x2="27" y2="81.1"/>
			<line class="st1" x1="43.6" y1="58.3" x2="29.6" y2="82.6"/>
			<line class="st1" x1="46.2" y1="59.8" x2="32.2" y2="84.1"/>
			<line class="st1" x1="48.8" y1="61.3" x2="34.8" y2="85.6"/>
			<line class="st1" x1="51.4" y1="62.8" x2="37.4" y2="87.1"/>
			<line class="st1" x1="54" y1="64.3" x2="40" y2="88.6"/>
			<line class="st1" x1="56.6" y1="65.8" x2="42.6" y2="90.1"/>
			<line class="st1" x1="59.2" y1="67.3" x2="45.2" y2="91.6"/>
			<line class="st1" x1="61.8" y1="68.8" x2="47.8" y2="93.1"/>
			<line class="st1" x1="64.4" y1="70.3" x2="50.4" y2="94.6"/>
			<line class="st1" x1="67" y1="71.8" x2="53" y2="96.1"/>
			<line class="st1" x1="69.6" y1="73.3" x2="55.6" y2="97.6"/>
			<line class="st1" x1="72.2" y1="74.8" x2="58.2" y2="99.1"/>
			<line class="st1" x1="74.8" y1="76.3" x2="60.8" y2="100.6"/>
			<line class="st1" x1="77.4" y1="77.8" x2="63.4" y2="102.1"/>
			<line class="st1" x1="80" y1="79.3" x2="66" y2="103.6"/>
			<line class="st1" x1="82.6" y1="80.8" x2="68.6" y2="105.1"/>
			<line class="st1" x1="85.2" y1="82.3" x2="71.2" y2="106.6"/>
			<line class="st1" x1="87.8" y1="83.8" x2="73.8" y2="108.1"/>
			<line class="st1" x1="90.4" y1="85.3" x2="76.4" y2="109.6"/>
			<line class="st1" x1="93" y1="86.8" x2="79" y2="111.1"/>
			<line class="st1" x1="95.6" y1="88.3" x2="81.6" y2="112.6"/>
			<line class="st1" x1="98.2" y1="89.8" x2="84.2" y2="114.1"/>
			<line class="st1" x1="100.8" y1="91.3" x2="86.8" y2="115.6"/>
			<line class="st1" x1="103.4" y1="92.8" x2="89.4" y2="117.1"/>
			<line class="st1" x1="106" y1="94.3" x2="92" y2="118.6"/>
			<line class="st1" x1="108.6" y1="95.8" x2="94.6" y2="120.1"/>
			<line class="st1" x1="111.2" y1="97.3" x2="97.2" y2="121.6"/>
			<line class="st1" x1="113.8" y1="98.8" x2="99.8" y2="123.1"/>
			<line class="st1" x1="116.4" y1="100.3" x2="102.4" y2="124.6"/>
			<line class="st1" x1="119" y1="101.8" x2="105" y2="126.1"/>
			<line class="st1" x1="121.6" y1="103.3" x2="107.6" y2="127.6"/>
			<line class="st1" x1="124.2" y1="104.8" x2="110.2" y2="129.1"/>
			<line class="st1" x1="126.7" y1="106.3" x2="112.7" y2="130.6"/>
			<line class="st1" x1="129.3" y1="107.8" x2="115.3" y2="132.1"/>
			<line class="st1" x1="131.9" y1="109.3" x2="117.9" y2="133.6"/>
			<line class="st1" x1="134.5" y1="110.8" x2="120.5" y2="135.1"/>
			<line class="st1" x1="137.1" y1="112.3" x2="123.1" y2="136.6"/>
			<line class="st1" x1="139.7" y1="113.8" x2="125.7" y2="138.1"/>
			<line class="st1" x1="142.3" y1="115.3" x2="128.3" y2="139.6"/>
			<line class="st1" x1="144.9" y1="116.8" x2="130.9" y2="141.1"/>
			<line class="st1" x1="147.5" y1="118.3" x2="133.5" y2="142.6"/>
			<line class="st1" x1="150.1" y1="119.8" x2="136.1" y2="144.1"/>
			<line class="st1" x1="152.7" y1="121.3" x2="138.7" y2="145.6"/>
			<line class="st1" x1="155.3" y1="122.8" x2="141.3" y2="147.1"/>
			<line class="st1" x1="157.9" y1="124.3" x2="143.9" y2="148.6"/>
			<line class="st1" x1="160.5" y1="125.8" x2="146.5" y2="150.1"/>
			<line class="st1" x1="163.1" y1="127.3" x2="149.1" y2="151.6"/>
			<line class="st1" x1="165.7" y1="128.8" x2="151.7" y2="153.1"/>
			<line class="st1" x1="168.3" y1="130.3" x2="154.3" y2="154.6"/>
			<line class="st1" x1="170.9" y1="131.8" x2="156.9" y2="156.1"/>
			<line class="st1" x1="173.5" y1="133.3" x2="159.5" y2="157.6"/>
			<line class="st1" x1="176.1" y1="134.8" x2="162.1" y2="159.1"/>
			<line class="st1" x1="178.7" y1="136.3" x2="164.7" y2="160.6"/>
			<line class="st1" x1="181.3" y1="137.8" x2="167.3" y2="162.1"/>
			<line class="st1" x1="183.9" y1="139.3" x2="169.9" y2="163.6"/>
			<line class="st1" x1="186.5" y1="140.8" x2="172.5" y2="165.1"/>
			<line class="st1" x1="189.1" y1="142.3" x2="175.1" y2="166.6"/>
			<line class="st1" x1="191.7" y1="143.8" x2="177.7" y2="168.1"/>
			<line class="st1" x1="194.3" y1="145.3" x2="180.3" y2="169.6"/>
			<line class="st1" x1="196.9" y1="146.8" x2="182.9" y2="171.1"/>
			<line class="st1" x1="199.5" y1="148.3" x2="185.5" y2="172.6"/>
			<line class="st1" x1="202.1" y1="149.8" x2="188.1" y2="174.1"/>
			<line class="st1" x1="204.7" y1="151.3" x2="190.7" y2="175.6"/>
			<line class="st1" x1="207.3" y1="152.8" x2="193.3" y2="177.1"/>
			<line class="st1" x1="209.9" y1="154.3" x2="195.9" y2="178.6"/>
			<line class="st1" x1="212.5" y1="155.8" x2="198.5" y2="180.1"/>
			<line class="st1" x1="215.1" y1="157.3" x2="201.1" y2="181.6"/>
			<line class="st1" x1="217.7" y1="158.8" x2="203.7" y2="183.1"/>
			<line class="st1" x1="220.3" y1="160.3" x2="206.3" y2="184.6"/>
			<line class="st1" x1="222.9" y1="161.8" x2="208.9" y2="186.1"/>
			<line class="st1" x1="225.5" y1="163.3" x2="211.5" y2="187.6"/>
			<line class="st1" x1="228.1" y1="164.8" x2="214.1" y2="189.1"/>
			<line class="st1" x1="230.7" y1="166.3" x2="216.7" y2="190.6"/>
			<line class="st1" x1="233.3" y1="167.8" x2="219.3" y2="192.1"/>
			<line class="st1" x1="235.9" y1="169.3" x2="221.9" y2="193.6"/>
			<line class="st1" x1="238.5" y1="170.8" x2="224.5" y2="195.1"/>
			<line class="st1" x1="241.1" y1="172.3" x2="227.1" y2="196.6"/>
			<line class="st1" x1="243.7" y1="173.8" x2="229.7" y2="198.1"/>
			<line class="st1" x1="246.3" y1="175.3" x2="232.3" y2="199.6"/>
			<line class="st1" x1="248.9" y1="176.8" x2="234.9" y2="201.1"/>
			<line class="st1" x1="251.5" y1="178.3" x2="237.5" y2="202.6"/>
			<line class="st1" x1="254.1" y1="179.8" x2="240.1" y2="204.1"/>
			<line class="st1" x1="256.7" y1="181.3" x2="242.7" y2="205.6"/>
			<line class="st1" x1="259.3" y1="182.8" x2="245.3" y2="207.1"/>
			<line class="st1" x1="261.8" y1="184.3" x2="247.8" y2="208.6"/>
			<line class="st1" x1="264.4" y1="185.8" x2="250.4" y2="210.1"/>
			<line class="st1" x1="267" y1="187.3" x2="253" y2="211.6"/>
			<line class="st1" x1="269.6" y1="188.8" x2="255.6" y2="213.1"/>
			<line class="st1" x1="272.2" y1="190.3" x2="258.2" y2="214.6"/>
			<line class="st1" x1="274.8" y1="191.8" x2="260.8" y2="216.1"/>
			<line class="st1" x1="277.4" y1="193.3" x2="263.4" y2="217.6"/>
			<line class="st1" x1="280" y1="194.8" x2="266" y2="219.1"/>
			<line class="st1" x1="282.6" y1="196.3" x2="268.6" y2="220.6"/>
			<line class="st1" x1="285.2" y1="197.8" x2="271.2" y2="222.1"/>
			<line class="st1" x1="287.8" y1="199.3" x2="273.8" y2="223.6"/>
			<line class="st1" x1="290.4" y1="200.8" x2="276.4" y2="225.1"/>
			<line class="st1" x1="293" y1="202.3" x2="279" y2="226.6"/>
			<line class="st1" x1="295.6" y1="203.8" x2="281.6" y2="228.1"/>
			<line class="st1" x1="298.2" y1="205.3" x2="284.2" y2="229.6"/>
			<line class="st1" x1="300.8" y1="206.8" x2="286.8" y2="231.1"/>
			<line class="st1" x1="303.4" y1="208.3" x2="289.4" y2="232.6"/>
			<line class="st1" x1="306" y1="209.8" x2="292" y2="234.1"/>
			<line class="st1" x1="308.6" y1="211.3" x2="294.6" y2="235.6"/>
			<line class="st1" x1="311.2" y1="212.8" x2="297.2" y2="237.1"/>
			<line class="st1" x1="313.8" y1="214.3" x2="299.8" y2="238.6"/>
			<line class="st1" x1="316.4" y1="215.8" x2="302.4" y2="240.1"/>
			<line class="st1" x1="319" y1="217.3" x2="305" y2="241.6"/>
			<line class="st1" x1="321.6" y1="218.8" x2="307.6" y2="243.1"/>
			<line class="st1" x1="324.2" y1="220.3" x2="310.2" y2="244.6"/>
			<line class="st1" x1="326.8" y1="221.8" x2="312.8" y2="246.1"/>
			<line class="st1" x1="329.4" y1="223.3" x2="315.4" y2="247.6"/>
			<line class="st1" x1="332" y1="224.8" x2="318" y2="249.1"/>
			<line class="st1" x1="334.6" y1="226.3" x2="320.6" y2="250.6"/>
			<line class="st1" x1="337.2" y1="227.8" x2="323.2" y2="252.1"/>
			<line class="st1" x1="339.8" y1="229.3" x2="325.8" y2="253.6"/>
			<line class="st1" x1="340.9" y1="233.4" x2="328.4" y2="255.1"/>
			<line class="st1" x1="341" y1="239.3" x2="331" y2="256.6"/>
			<line class="st1" x1="340.6" y1="246" x2="333.6" y2="258.1"/>
			<line class="st1" x1="340.7" y1="251.8" x2="336.2" y2="259.6"/>
			<line class="st1" x1="340.8" y1="257.6" x2="338.8" y2="261.1"/>
		</g>
	</g>
	<g>
	</g>
	<g>
	</g>
	<g>
	</g>
	<g>
	</g>
	<g>
	</g>
	<g>
	</g>
</g>
</svg>
