<?xml version="1.0" encoding="utf-8"?>
<!-- Generator: Adobe Illustrator 21.0.0, SVG Export Plug-In . SVG Version: 6.00 Build 0)  -->
<svg version="1.0" id="Layer_1" xmlns="http://www.w3.org/2000/svg" xmlns:xlink="http://www.w3.org/1999/xlink" x="0px" y="0px"
	 viewBox="0 0 341.5 360.6" style="enable-background:new 0 0 341.5 360.6;" xml:space="preserve">
<style type="text/css">
	.st0{fill:#ED1C24;}
	.st1{opacity:0.2;fill:none;stroke:#231F20;stroke-miterlimit:10;enable-background:new    ;}
</style>
<g id="Ribbon">
</g>
<g id="Pattern">
	<g>
		<polygon class="st0" points="341.3,196.3 1.3,0 1.3,32.3 341.3,228.6 		"/>
		<g>
			<line class="st1" x1="28" y1="15.3" x2="14" y2="39.6"/>
			<line class="st1" x1="25.4" y1="13.8" x2="11.4" y2="38.1"/>
			<line class="st1" x1="22.8" y1="12.3" x2="8.8" y2="36.6"/>
			<line class="st1" x1="20.2" y1="10.8" x2="6.2" y2="35.1"/>
			<line class="st1" x1="17.6" y1="9.3" x2="3.6" y2="33.6"/>
			<line class="st1" x1="15" y1="7.8" x2="1" y2="32.1"/>
			<line class="st1" x1="12.4" y1="6.3" x2="0.4" y2="27.1"/>
			<line class="st1" x1="9.8" y1="4.8" x2="0.8" y2="20.4"/>
			<line class="st1" x1="7.2" y1="3.3" x2="0.7" y2="14.6"/>
			<line class="st1" x1="4.6" y1="1.8" x2="0.6" y2="8.8"/>
			<line class="st1" x1="2" y1="0.3" x2="0.5" y2="2.9"/>
			<line class="st1" x1="30.6" y1="16.8" x2="16.6" y2="41.1"/>
			<line class="st1" x1="33.2" y1="18.3" x2="19.2" y2="42.6"/>
			<line class="st1" x1="35.8" y1="19.8" x2="21.8" y2="44.1"/>
			<line class="st1" x1="38.4" y1="21.3" x2="24.4" y2="45.6"/>
			<line class="st1" x1="41" y1="22.8" x2="27" y2="47.1"/>
			<line class="st1" x1="43.6" y1="24.3" x2="29.6" y2="48.6"/>
			<line class="st1" x1="46.2" y1="25.8" x2="32.2" y2="50.1"/>
			<line class="st1" x1="48.8" y1="27.3" x2="34.8" y2="51.6"/>
			<line class="st1" x1="51.4" y1="28.8" x2="37.4" y2="53.1"/>
			<line class="st1" x1="54" y1="30.3" x2="40" y2="54.6"/>
			<line class="st1" x1="56.6" y1="31.8" x2="42.6" y2="56.1"/>
			<line class="st1" x1="59.2" y1="33.3" x2="45.2" y2="57.6"/>
			<line class="st1" x1="61.8" y1="34.8" x2="47.8" y2="59.1"/>
			<line class="st1" x1="64.4" y1="36.3" x2="50.4" y2="60.6"/>
			<line class="st1" x1="67" y1="37.8" x2="53" y2="62.1"/>
			<line class="st1" x1="69.6" y1="39.3" x2="55.6" y2="63.6"/>
			<line class="st1" x1="72.2" y1="40.8" x2="58.2" y2="65.1"/>
			<line class="st1" x1="74.8" y1="42.3" x2="60.8" y2="66.6"/>
			<line class="st1" x1="77.4" y1="43.8" x2="63.4" y2="68.1"/>
			<line class="st1" x1="80" y1="45.3" x2="66" y2="69.6"/>
			<line class="st1" x1="82.6" y1="46.8" x2="68.6" y2="71.1"/>
			<line class="st1" x1="85.2" y1="48.3" x2="71.2" y2="72.6"/>
			<line class="st1" x1="87.8" y1="49.8" x2="73.8" y2="74.1"/>
			<line class="st1" x1="90.4" y1="51.3" x2="76.4" y2="75.6"/>
			<line class="st1" x1="93" y1="52.8" x2="79" y2="77.1"/>
			<line class="st1" x1="95.6" y1="54.3" x2="81.6" y2="78.6"/>
			<line class="st1" x1="98.2" y1="55.8" x2="84.2" y2="80.1"/>
			<line class="st1" x1="100.8" y1="57.3" x2="86.8" y2="81.6"/>
			<line class="st1" x1="103.4" y1="58.8" x2="89.4" y2="83.1"/>
			<line class="st1" x1="106" y1="60.3" x2="92" y2="84.6"/>
			<line class="st1" x1="108.6" y1="61.8" x2="94.6" y2="86.1"/>
			<line class="st1" x1="111.2" y1="63.3" x2="97.2" y2="87.6"/>
			<line class="st1" x1="113.8" y1="64.8" x2="99.8" y2="89.1"/>
			<line class="st1" x1="116.4" y1="66.3" x2="102.4" y2="90.6"/>
			<line class="st1" x1="119" y1="67.8" x2="105" y2="92.1"/>
			<line class="st1" x1="121.6" y1="69.3" x2="107.6" y2="93.6"/>
			<line class="st1" x1="124.2" y1="70.8" x2="110.2" y2="95.1"/>
			<line class="st1" x1="126.7" y1="72.3" x2="112.7" y2="96.6"/>
			<line class="st1" x1="129.3" y1="73.8" x2="115.3" y2="98.1"/>
			<line class="st1" x1="131.9" y1="75.3" x2="117.9" y2="99.6"/>
			<line class="st1" x1="134.5" y1="76.8" x2="120.5" y2="101.1"/>
			<line class="st1" x1="137.1" y1="78.3" x2="123.1" y2="102.6"/>
			<line class="st1" x1="139.7" y1="79.8" x2="125.7" y2="104.1"/>
			<line class="st1" x1="142.3" y1="81.3" x2="128.3" y2="105.6"/>
			<line class="st1" x1="144.9" y1="82.8" x2="130.9" y2="107.1"/>
			<line class="st1" x1="147.5" y1="84.3" x2="133.5" y2="108.6"/>
			<line class="st1" x1="150.1" y1="85.8" x2="136.1" y2="110.1"/>
			<line class="st1" x1="152.7" y1="87.3" x2="138.7" y2="111.6"/>
			<line class="st1" x1="155.3" y1="88.8" x2="141.3" y2="113.1"/>
			<line class="st1" x1="157.9" y1="90.3" x2="143.9" y2="114.6"/>
			<line class="st1" x1="160.5" y1="91.8" x2="146.5" y2="116.1"/>
			<line class="st1" x1="163.1" y1="93.3" x2="149.1" y2="117.6"/>
			<line class="st1" x1="165.7" y1="94.8" x2="151.7" y2="119.1"/>
			<line class="st1" x1="168.3" y1="96.3" x2="154.3" y2="120.6"/>
			<line class="st1" x1="170.9" y1="97.8" x2="156.9" y2="122.1"/>
			<line class="st1" x1="173.5" y1="99.3" x2="159.5" y2="123.6"/>
			<line class="st1" x1="176.1" y1="100.8" x2="162.1" y2="125.1"/>
			<line class="st1" x1="178.7" y1="102.3" x2="164.7" y2="126.6"/>
			<line class="st1" x1="181.3" y1="103.8" x2="167.3" y2="128.1"/>
			<line class="st1" x1="183.9" y1="105.3" x2="169.9" y2="129.6"/>
			<line class="st1" x1="186.5" y1="106.8" x2="172.5" y2="131.1"/>
			<line class="st1" x1="189.1" y1="108.3" x2="175.1" y2="132.6"/>
			<line class="st1" x1="191.7" y1="109.8" x2="177.7" y2="134.1"/>
			<line class="st1" x1="194.3" y1="111.3" x2="180.3" y2="135.6"/>
			<line class="st1" x1="196.9" y1="112.8" x2="182.9" y2="137.1"/>
			<line class="st1" x1="199.5" y1="114.3" x2="185.5" y2="138.6"/>
			<line class="st1" x1="202.1" y1="115.8" x2="188.1" y2="140.1"/>
			<line class="st1" x1="204.7" y1="117.3" x2="190.7" y2="141.6"/>
			<line class="st1" x1="207.3" y1="118.8" x2="193.3" y2="143.1"/>
			<line class="st1" x1="209.9" y1="120.3" x2="195.9" y2="144.6"/>
			<line class="st1" x1="212.5" y1="121.8" x2="198.5" y2="146.1"/>
			<line class="st1" x1="215.1" y1="123.3" x2="201.1" y2="147.6"/>
			<line class="st1" x1="217.7" y1="124.8" x2="203.7" y2="149.1"/>
			<line class="st1" x1="220.3" y1="126.3" x2="206.3" y2="150.6"/>
			<line class="st1" x1="222.9" y1="127.8" x2="208.9" y2="152.1"/>
			<line class="st1" x1="225.5" y1="129.3" x2="211.5" y2="153.6"/>
			<line class="st1" x1="228.1" y1="130.8" x2="214.1" y2="155.1"/>
			<line class="st1" x1="230.7" y1="132.3" x2="216.7" y2="156.6"/>
			<line class="st1" x1="233.3" y1="133.8" x2="219.3" y2="158.1"/>
			<line class="st1" x1="235.9" y1="135.3" x2="221.9" y2="159.6"/>
			<line class="st1" x1="238.5" y1="136.8" x2="224.5" y2="161.1"/>
			<line class="st1" x1="241.1" y1="138.3" x2="227.1" y2="162.6"/>
			<line class="st1" x1="243.7" y1="139.8" x2="229.7" y2="164.1"/>
			<line class="st1" x1="246.3" y1="141.3" x2="232.3" y2="165.6"/>
			<line class="st1" x1="248.9" y1="142.8" x2="234.9" y2="167.1"/>
			<line class="st1" x1="251.5" y1="144.3" x2="237.5" y2="168.6"/>
			<line class="st1" x1="254.1" y1="145.8" x2="240.1" y2="170.1"/>
			<line class="st1" x1="256.7" y1="147.3" x2="242.7" y2="171.6"/>
			<line class="st1" x1="259.3" y1="148.8" x2="245.3" y2="173.1"/>
			<line class="st1" x1="261.8" y1="150.3" x2="247.8" y2="174.6"/>
			<line class="st1" x1="264.4" y1="151.8" x2="250.4" y2="176.1"/>
			<line class="st1" x1="267" y1="153.3" x2="253" y2="177.6"/>
			<line class="st1" x1="269.6" y1="154.8" x2="255.6" y2="179.1"/>
			<line class="st1" x1="272.2" y1="156.3" x2="258.2" y2="180.6"/>
			<line class="st1" x1="274.8" y1="157.8" x2="260.8" y2="182.1"/>
			<line class="st1" x1="277.4" y1="159.3" x2="263.4" y2="183.6"/>
			<line class="st1" x1="280" y1="160.8" x2="266" y2="185.1"/>
			<line class="st1" x1="282.6" y1="162.3" x2="268.6" y2="186.6"/>
			<line class="st1" x1="285.2" y1="163.8" x2="271.2" y2="188.1"/>
			<line class="st1" x1="287.8" y1="165.3" x2="273.8" y2="189.6"/>
			<line class="st1" x1="290.4" y1="166.8" x2="276.4" y2="191.1"/>
			<line class="st1" x1="293" y1="168.3" x2="279" y2="192.6"/>
			<line class="st1" x1="295.6" y1="169.8" x2="281.6" y2="194.1"/>
			<line class="st1" x1="298.2" y1="171.3" x2="284.2" y2="195.6"/>
			<line class="st1" x1="300.8" y1="172.8" x2="286.8" y2="197.1"/>
			<line class="st1" x1="303.4" y1="174.3" x2="289.4" y2="198.6"/>
			<line class="st1" x1="306" y1="175.8" x2="292" y2="200.1"/>
			<line class="st1" x1="308.6" y1="177.3" x2="294.6" y2="201.6"/>
			<line class="st1" x1="311.2" y1="178.8" x2="297.2" y2="203.1"/>
			<line class="st1" x1="313.8" y1="180.3" x2="299.8" y2="204.6"/>
			<line class="st1" x1="316.4" y1="181.8" x2="302.4" y2="206.1"/>
			<line class="st1" x1="319" y1="183.3" x2="305" y2="207.6"/>
			<line class="st1" x1="321.6" y1="184.8" x2="307.6" y2="209.1"/>
			<line class="st1" x1="324.2" y1="186.3" x2="310.2" y2="210.6"/>
			<line class="st1" x1="326.8" y1="187.8" x2="312.8" y2="212.1"/>
			<line class="st1" x1="329.4" y1="189.3" x2="315.4" y2="213.6"/>
			<line class="st1" x1="332" y1="190.8" x2="318" y2="215.1"/>
			<line class="st1" x1="334.6" y1="192.3" x2="320.6" y2="216.6"/>
			<line class="st1" x1="337.2" y1="193.8" x2="323.2" y2="218.1"/>
			<line class="st1" x1="339.8" y1="195.3" x2="325.8" y2="219.6"/>
			<line class="st1" x1="340.9" y1="199.4" x2="328.4" y2="221.1"/>
			<line class="st1" x1="341" y1="205.3" x2="331" y2="222.6"/>
			<line class="st1" x1="340.6" y1="212" x2="333.6" y2="224.1"/>
			<line class="st1" x1="340.7" y1="217.8" x2="336.2" y2="225.6"/>
			<line class="st1" x1="340.8" y1="223.6" x2="338.8" y2="227.1"/>
		</g>
	</g>
</g>
<g>
	<polygon class="st0" points="341.3,240.3 1.3,44 1.3,76.3 341.3,272.6 	"/>
	<g>
		<line class="st1" x1="28" y1="59.3" x2="14" y2="83.6"/>
		<line class="st1" x1="25.4" y1="57.8" x2="11.4" y2="82.1"/>
		<line class="st1" x1="22.8" y1="56.3" x2="8.8" y2="80.6"/>
		<line class="st1" x1="20.2" y1="54.8" x2="6.2" y2="79.1"/>
		<line class="st1" x1="17.6" y1="53.3" x2="3.6" y2="77.6"/>
		<line class="st1" x1="15" y1="51.8" x2="1" y2="76.1"/>
		<line class="st1" x1="12.4" y1="50.3" x2="0.4" y2="71.1"/>
		<line class="st1" x1="9.8" y1="48.8" x2="0.8" y2="64.4"/>
		<line class="st1" x1="7.2" y1="47.3" x2="0.7" y2="58.6"/>
		<line class="st1" x1="4.6" y1="45.8" x2="0.6" y2="52.8"/>
		<line class="st1" x1="2" y1="44.3" x2="0.5" y2="46.9"/>
		<line class="st1" x1="30.6" y1="60.8" x2="16.6" y2="85.1"/>
		<line class="st1" x1="33.2" y1="62.3" x2="19.2" y2="86.6"/>
		<line class="st1" x1="35.8" y1="63.8" x2="21.8" y2="88.1"/>
		<line class="st1" x1="38.4" y1="65.3" x2="24.4" y2="89.6"/>
		<line class="st1" x1="41" y1="66.8" x2="27" y2="91.1"/>
		<line class="st1" x1="43.6" y1="68.3" x2="29.6" y2="92.6"/>
		<line class="st1" x1="46.2" y1="69.8" x2="32.2" y2="94.1"/>
		<line class="st1" x1="48.8" y1="71.3" x2="34.8" y2="95.6"/>
		<line class="st1" x1="51.4" y1="72.8" x2="37.4" y2="97.1"/>
		<line class="st1" x1="54" y1="74.3" x2="40" y2="98.6"/>
		<line class="st1" x1="56.6" y1="75.8" x2="42.6" y2="100.1"/>
		<line class="st1" x1="59.2" y1="77.3" x2="45.2" y2="101.6"/>
		<line class="st1" x1="61.8" y1="78.8" x2="47.8" y2="103.1"/>
		<line class="st1" x1="64.4" y1="80.3" x2="50.4" y2="104.6"/>
		<line class="st1" x1="67" y1="81.8" x2="53" y2="106.1"/>
		<line class="st1" x1="69.6" y1="83.3" x2="55.6" y2="107.6"/>
		<line class="st1" x1="72.2" y1="84.8" x2="58.2" y2="109.1"/>
		<line class="st1" x1="74.8" y1="86.3" x2="60.8" y2="110.6"/>
		<line class="st1" x1="77.4" y1="87.8" x2="63.4" y2="112.1"/>
		<line class="st1" x1="80" y1="89.3" x2="66" y2="113.6"/>
		<line class="st1" x1="82.6" y1="90.8" x2="68.6" y2="115.1"/>
		<line class="st1" x1="85.2" y1="92.3" x2="71.2" y2="116.6"/>
		<line class="st1" x1="87.8" y1="93.8" x2="73.8" y2="118.1"/>
		<line class="st1" x1="90.4" y1="95.3" x2="76.4" y2="119.6"/>
		<line class="st1" x1="93" y1="96.8" x2="79" y2="121.1"/>
		<line class="st1" x1="95.6" y1="98.3" x2="81.6" y2="122.6"/>
		<line class="st1" x1="98.2" y1="99.8" x2="84.2" y2="124.1"/>
		<line class="st1" x1="100.8" y1="101.3" x2="86.8" y2="125.6"/>
		<line class="st1" x1="103.4" y1="102.8" x2="89.4" y2="127.1"/>
		<line class="st1" x1="106" y1="104.3" x2="92" y2="128.6"/>
		<line class="st1" x1="108.6" y1="105.8" x2="94.6" y2="130.1"/>
		<line class="st1" x1="111.2" y1="107.3" x2="97.2" y2="131.6"/>
		<line class="st1" x1="113.8" y1="108.8" x2="99.8" y2="133.1"/>
		<line class="st1" x1="116.4" y1="110.3" x2="102.4" y2="134.6"/>
		<line class="st1" x1="119" y1="111.8" x2="105" y2="136.1"/>
		<line class="st1" x1="121.6" y1="113.3" x2="107.6" y2="137.6"/>
		<line class="st1" x1="124.2" y1="114.8" x2="110.2" y2="139.1"/>
		<line class="st1" x1="126.7" y1="116.3" x2="112.7" y2="140.6"/>
		<line class="st1" x1="129.3" y1="117.8" x2="115.3" y2="142.1"/>
		<line class="st1" x1="131.9" y1="119.3" x2="117.9" y2="143.6"/>
		<line class="st1" x1="134.5" y1="120.8" x2="120.5" y2="145.1"/>
		<line class="st1" x1="137.1" y1="122.3" x2="123.1" y2="146.6"/>
		<line class="st1" x1="139.7" y1="123.8" x2="125.7" y2="148.1"/>
		<line class="st1" x1="142.3" y1="125.3" x2="128.3" y2="149.6"/>
		<line class="st1" x1="144.9" y1="126.8" x2="130.9" y2="151.1"/>
		<line class="st1" x1="147.5" y1="128.3" x2="133.5" y2="152.6"/>
		<line class="st1" x1="150.1" y1="129.8" x2="136.1" y2="154.1"/>
		<line class="st1" x1="152.7" y1="131.3" x2="138.7" y2="155.6"/>
		<line class="st1" x1="155.3" y1="132.8" x2="141.3" y2="157.1"/>
		<line class="st1" x1="157.9" y1="134.3" x2="143.9" y2="158.6"/>
		<line class="st1" x1="160.5" y1="135.8" x2="146.5" y2="160.1"/>
		<line class="st1" x1="163.1" y1="137.3" x2="149.1" y2="161.6"/>
		<line class="st1" x1="165.7" y1="138.8" x2="151.7" y2="163.1"/>
		<line class="st1" x1="168.3" y1="140.3" x2="154.3" y2="164.6"/>
		<line class="st1" x1="170.9" y1="141.8" x2="156.9" y2="166.1"/>
		<line class="st1" x1="173.5" y1="143.3" x2="159.5" y2="167.6"/>
		<line class="st1" x1="176.1" y1="144.8" x2="162.1" y2="169.1"/>
		<line class="st1" x1="178.7" y1="146.3" x2="164.7" y2="170.6"/>
		<line class="st1" x1="181.3" y1="147.8" x2="167.3" y2="172.1"/>
		<line class="st1" x1="183.9" y1="149.3" x2="169.9" y2="173.6"/>
		<line class="st1" x1="186.5" y1="150.8" x2="172.5" y2="175.1"/>
		<line class="st1" x1="189.1" y1="152.3" x2="175.1" y2="176.6"/>
		<line class="st1" x1="191.7" y1="153.8" x2="177.7" y2="178.1"/>
		<line class="st1" x1="194.3" y1="155.3" x2="180.3" y2="179.6"/>
		<line class="st1" x1="196.9" y1="156.8" x2="182.9" y2="181.1"/>
		<line class="st1" x1="199.5" y1="158.3" x2="185.5" y2="182.6"/>
		<line class="st1" x1="202.1" y1="159.8" x2="188.1" y2="184.1"/>
		<line class="st1" x1="204.7" y1="161.3" x2="190.7" y2="185.6"/>
		<line class="st1" x1="207.3" y1="162.8" x2="193.3" y2="187.1"/>
		<line class="st1" x1="209.9" y1="164.3" x2="195.9" y2="188.6"/>
		<line class="st1" x1="212.5" y1="165.8" x2="198.5" y2="190.1"/>
		<line class="st1" x1="215.1" y1="167.3" x2="201.1" y2="191.6"/>
		<line class="st1" x1="217.7" y1="168.8" x2="203.7" y2="193.1"/>
		<line class="st1" x1="220.3" y1="170.3" x2="206.3" y2="194.6"/>
		<line class="st1" x1="222.9" y1="171.8" x2="208.9" y2="196.1"/>
		<line class="st1" x1="225.5" y1="173.3" x2="211.5" y2="197.6"/>
		<line class="st1" x1="228.1" y1="174.8" x2="214.1" y2="199.1"/>
		<line class="st1" x1="230.7" y1="176.3" x2="216.7" y2="200.6"/>
		<line class="st1" x1="233.3" y1="177.8" x2="219.3" y2="202.1"/>
		<line class="st1" x1="235.9" y1="179.3" x2="221.9" y2="203.6"/>
		<line class="st1" x1="238.5" y1="180.8" x2="224.5" y2="205.1"/>
		<line class="st1" x1="241.1" y1="182.3" x2="227.1" y2="206.6"/>
		<line class="st1" x1="243.7" y1="183.8" x2="229.7" y2="208.1"/>
		<line class="st1" x1="246.3" y1="185.3" x2="232.3" y2="209.6"/>
		<line class="st1" x1="248.9" y1="186.8" x2="234.9" y2="211.1"/>
		<line class="st1" x1="251.5" y1="188.3" x2="237.5" y2="212.6"/>
		<line class="st1" x1="254.1" y1="189.8" x2="240.1" y2="214.1"/>
		<line class="st1" x1="256.7" y1="191.3" x2="242.7" y2="215.6"/>
		<line class="st1" x1="259.3" y1="192.8" x2="245.3" y2="217.1"/>
		<line class="st1" x1="261.8" y1="194.3" x2="247.8" y2="218.6"/>
		<line class="st1" x1="264.4" y1="195.8" x2="250.4" y2="220.1"/>
		<line class="st1" x1="267" y1="197.3" x2="253" y2="221.6"/>
		<line class="st1" x1="269.6" y1="198.8" x2="255.6" y2="223.1"/>
		<line class="st1" x1="272.2" y1="200.3" x2="258.2" y2="224.6"/>
		<line class="st1" x1="274.8" y1="201.8" x2="260.8" y2="226.1"/>
		<line class="st1" x1="277.4" y1="203.3" x2="263.4" y2="227.6"/>
		<line class="st1" x1="280" y1="204.8" x2="266" y2="229.1"/>
		<line class="st1" x1="282.6" y1="206.3" x2="268.6" y2="230.6"/>
		<line class="st1" x1="285.2" y1="207.8" x2="271.2" y2="232.1"/>
		<line class="st1" x1="287.8" y1="209.3" x2="273.8" y2="233.6"/>
		<line class="st1" x1="290.4" y1="210.8" x2="276.4" y2="235.1"/>
		<line class="st1" x1="293" y1="212.3" x2="279" y2="236.6"/>
		<line class="st1" x1="295.6" y1="213.8" x2="281.6" y2="238.1"/>
		<line class="st1" x1="298.2" y1="215.3" x2="284.2" y2="239.6"/>
		<line class="st1" x1="300.8" y1="216.8" x2="286.8" y2="241.1"/>
		<line class="st1" x1="303.4" y1="218.3" x2="289.4" y2="242.6"/>
		<line class="st1" x1="306" y1="219.8" x2="292" y2="244.1"/>
		<line class="st1" x1="308.6" y1="221.3" x2="294.6" y2="245.6"/>
		<line class="st1" x1="311.2" y1="222.8" x2="297.2" y2="247.1"/>
		<line class="st1" x1="313.8" y1="224.3" x2="299.8" y2="248.6"/>
		<line class="st1" x1="316.4" y1="225.8" x2="302.4" y2="250.1"/>
		<line class="st1" x1="319" y1="227.3" x2="305" y2="251.6"/>
		<line class="st1" x1="321.6" y1="228.8" x2="307.6" y2="253.1"/>
		<line class="st1" x1="324.2" y1="230.3" x2="310.2" y2="254.6"/>
		<line class="st1" x1="326.8" y1="231.8" x2="312.8" y2="256.1"/>
		<line class="st1" x1="329.4" y1="233.3" x2="315.4" y2="257.6"/>
		<line class="st1" x1="332" y1="234.8" x2="318" y2="259.1"/>
		<line class="st1" x1="334.6" y1="236.3" x2="320.6" y2="260.6"/>
		<line class="st1" x1="337.2" y1="237.8" x2="323.2" y2="262.1"/>
		<line class="st1" x1="339.8" y1="239.3" x2="325.8" y2="263.6"/>
		<line class="st1" x1="340.9" y1="243.4" x2="328.4" y2="265.1"/>
		<line class="st1" x1="341" y1="249.3" x2="331" y2="266.6"/>
		<line class="st1" x1="340.6" y1="256" x2="333.6" y2="268.1"/>
		<line class="st1" x1="340.7" y1="261.8" x2="336.2" y2="269.6"/>
		<line class="st1" x1="340.8" y1="267.6" x2="338.8" y2="271.1"/>
	</g>
</g>
<g>
	<polygon class="st0" points="341.3,284.3 1.3,88 1.3,120.3 341.3,316.6 	"/>
	<g>
		<line class="st1" x1="28" y1="103.3" x2="14" y2="127.6"/>
		<line class="st1" x1="25.4" y1="101.8" x2="11.4" y2="126.1"/>
		<line class="st1" x1="22.8" y1="100.3" x2="8.8" y2="124.6"/>
		<line class="st1" x1="20.2" y1="98.8" x2="6.2" y2="123.1"/>
		<line class="st1" x1="17.6" y1="97.3" x2="3.6" y2="121.6"/>
		<line class="st1" x1="15" y1="95.8" x2="1" y2="120.1"/>
		<line class="st1" x1="12.4" y1="94.3" x2="0.4" y2="115.1"/>
		<line class="st1" x1="9.8" y1="92.8" x2="0.8" y2="108.4"/>
		<line class="st1" x1="7.2" y1="91.3" x2="0.7" y2="102.6"/>
		<line class="st1" x1="4.6" y1="89.8" x2="0.6" y2="96.8"/>
		<line class="st1" x1="2" y1="88.3" x2="0.5" y2="90.9"/>
		<line class="st1" x1="30.6" y1="104.8" x2="16.6" y2="129.1"/>
		<line class="st1" x1="33.2" y1="106.3" x2="19.2" y2="130.6"/>
		<line class="st1" x1="35.8" y1="107.8" x2="21.8" y2="132.1"/>
		<line class="st1" x1="38.4" y1="109.3" x2="24.4" y2="133.6"/>
		<line class="st1" x1="41" y1="110.8" x2="27" y2="135.1"/>
		<line class="st1" x1="43.6" y1="112.3" x2="29.6" y2="136.6"/>
		<line class="st1" x1="46.2" y1="113.8" x2="32.2" y2="138.1"/>
		<line class="st1" x1="48.8" y1="115.3" x2="34.8" y2="139.6"/>
		<line class="st1" x1="51.4" y1="116.8" x2="37.4" y2="141.1"/>
		<line class="st1" x1="54" y1="118.3" x2="40" y2="142.6"/>
		<line class="st1" x1="56.6" y1="119.8" x2="42.6" y2="144.1"/>
		<line class="st1" x1="59.2" y1="121.3" x2="45.2" y2="145.6"/>
		<line class="st1" x1="61.8" y1="122.8" x2="47.8" y2="147.1"/>
		<line class="st1" x1="64.4" y1="124.3" x2="50.4" y2="148.6"/>
		<line class="st1" x1="67" y1="125.8" x2="53" y2="150.1"/>
		<line class="st1" x1="69.6" y1="127.3" x2="55.6" y2="151.6"/>
		<line class="st1" x1="72.2" y1="128.8" x2="58.2" y2="153.1"/>
		<line class="st1" x1="74.8" y1="130.3" x2="60.8" y2="154.6"/>
		<line class="st1" x1="77.4" y1="131.8" x2="63.4" y2="156.1"/>
		<line class="st1" x1="80" y1="133.3" x2="66" y2="157.6"/>
		<line class="st1" x1="82.6" y1="134.8" x2="68.6" y2="159.1"/>
		<line class="st1" x1="85.2" y1="136.3" x2="71.2" y2="160.6"/>
		<line class="st1" x1="87.8" y1="137.8" x2="73.8" y2="162.1"/>
		<line class="st1" x1="90.4" y1="139.3" x2="76.4" y2="163.6"/>
		<line class="st1" x1="93" y1="140.8" x2="79" y2="165.1"/>
		<line class="st1" x1="95.6" y1="142.3" x2="81.6" y2="166.6"/>
		<line class="st1" x1="98.2" y1="143.8" x2="84.2" y2="168.1"/>
		<line class="st1" x1="100.8" y1="145.3" x2="86.8" y2="169.6"/>
		<line class="st1" x1="103.4" y1="146.8" x2="89.4" y2="171.1"/>
		<line class="st1" x1="106" y1="148.3" x2="92" y2="172.6"/>
		<line class="st1" x1="108.6" y1="149.8" x2="94.6" y2="174.1"/>
		<line class="st1" x1="111.2" y1="151.3" x2="97.2" y2="175.6"/>
		<line class="st1" x1="113.8" y1="152.8" x2="99.8" y2="177.1"/>
		<line class="st1" x1="116.4" y1="154.3" x2="102.4" y2="178.6"/>
		<line class="st1" x1="119" y1="155.8" x2="105" y2="180.1"/>
		<line class="st1" x1="121.6" y1="157.3" x2="107.6" y2="181.6"/>
		<line class="st1" x1="124.2" y1="158.8" x2="110.2" y2="183.1"/>
		<line class="st1" x1="126.7" y1="160.3" x2="112.7" y2="184.6"/>
		<line class="st1" x1="129.3" y1="161.8" x2="115.3" y2="186.1"/>
		<line class="st1" x1="131.9" y1="163.3" x2="117.9" y2="187.6"/>
		<line class="st1" x1="134.5" y1="164.8" x2="120.5" y2="189.1"/>
		<line class="st1" x1="137.1" y1="166.3" x2="123.1" y2="190.6"/>
		<line class="st1" x1="139.7" y1="167.8" x2="125.7" y2="192.1"/>
		<line class="st1" x1="142.3" y1="169.3" x2="128.3" y2="193.6"/>
		<line class="st1" x1="144.9" y1="170.8" x2="130.9" y2="195.1"/>
		<line class="st1" x1="147.5" y1="172.3" x2="133.5" y2="196.6"/>
		<line class="st1" x1="150.1" y1="173.8" x2="136.1" y2="198.1"/>
		<line class="st1" x1="152.7" y1="175.3" x2="138.7" y2="199.6"/>
		<line class="st1" x1="155.3" y1="176.8" x2="141.3" y2="201.1"/>
		<line class="st1" x1="157.9" y1="178.3" x2="143.9" y2="202.6"/>
		<line class="st1" x1="160.5" y1="179.8" x2="146.5" y2="204.1"/>
		<line class="st1" x1="163.1" y1="181.3" x2="149.1" y2="205.6"/>
		<line class="st1" x1="165.7" y1="182.8" x2="151.7" y2="207.1"/>
		<line class="st1" x1="168.3" y1="184.3" x2="154.3" y2="208.6"/>
		<line class="st1" x1="170.9" y1="185.8" x2="156.9" y2="210.1"/>
		<line class="st1" x1="173.5" y1="187.3" x2="159.5" y2="211.6"/>
		<line class="st1" x1="176.1" y1="188.8" x2="162.1" y2="213.1"/>
		<line class="st1" x1="178.7" y1="190.3" x2="164.7" y2="214.6"/>
		<line class="st1" x1="181.3" y1="191.8" x2="167.3" y2="216.1"/>
		<line class="st1" x1="183.9" y1="193.3" x2="169.9" y2="217.6"/>
		<line class="st1" x1="186.5" y1="194.8" x2="172.5" y2="219.1"/>
		<line class="st1" x1="189.1" y1="196.3" x2="175.1" y2="220.6"/>
		<line class="st1" x1="191.7" y1="197.8" x2="177.7" y2="222.1"/>
		<line class="st1" x1="194.3" y1="199.3" x2="180.3" y2="223.6"/>
		<line class="st1" x1="196.9" y1="200.8" x2="182.9" y2="225.1"/>
		<line class="st1" x1="199.5" y1="202.3" x2="185.5" y2="226.6"/>
		<line class="st1" x1="202.1" y1="203.8" x2="188.1" y2="228.1"/>
		<line class="st1" x1="204.7" y1="205.3" x2="190.7" y2="229.6"/>
		<line class="st1" x1="207.3" y1="206.8" x2="193.3" y2="231.1"/>
		<line class="st1" x1="209.9" y1="208.3" x2="195.9" y2="232.6"/>
		<line class="st1" x1="212.5" y1="209.8" x2="198.5" y2="234.1"/>
		<line class="st1" x1="215.1" y1="211.3" x2="201.1" y2="235.6"/>
		<line class="st1" x1="217.7" y1="212.8" x2="203.7" y2="237.1"/>
		<line class="st1" x1="220.3" y1="214.3" x2="206.3" y2="238.6"/>
		<line class="st1" x1="222.9" y1="215.8" x2="208.9" y2="240.1"/>
		<line class="st1" x1="225.5" y1="217.3" x2="211.5" y2="241.6"/>
		<line class="st1" x1="228.1" y1="218.8" x2="214.1" y2="243.1"/>
		<line class="st1" x1="230.7" y1="220.3" x2="216.7" y2="244.6"/>
		<line class="st1" x1="233.3" y1="221.8" x2="219.3" y2="246.1"/>
		<line class="st1" x1="235.9" y1="223.3" x2="221.9" y2="247.6"/>
		<line class="st1" x1="238.5" y1="224.8" x2="224.5" y2="249.1"/>
		<line class="st1" x1="241.1" y1="226.3" x2="227.1" y2="250.6"/>
		<line class="st1" x1="243.7" y1="227.8" x2="229.7" y2="252.1"/>
		<line class="st1" x1="246.3" y1="229.3" x2="232.3" y2="253.6"/>
		<line class="st1" x1="248.9" y1="230.8" x2="234.9" y2="255.1"/>
		<line class="st1" x1="251.5" y1="232.3" x2="237.5" y2="256.6"/>
		<line class="st1" x1="254.1" y1="233.8" x2="240.1" y2="258.1"/>
		<line class="st1" x1="256.7" y1="235.3" x2="242.7" y2="259.6"/>
		<line class="st1" x1="259.3" y1="236.8" x2="245.3" y2="261.1"/>
		<line class="st1" x1="261.8" y1="238.3" x2="247.8" y2="262.6"/>
		<line class="st1" x1="264.4" y1="239.8" x2="250.4" y2="264.1"/>
		<line class="st1" x1="267" y1="241.3" x2="253" y2="265.6"/>
		<line class="st1" x1="269.6" y1="242.8" x2="255.6" y2="267.1"/>
		<line class="st1" x1="272.2" y1="244.3" x2="258.2" y2="268.6"/>
		<line class="st1" x1="274.8" y1="245.8" x2="260.8" y2="270.1"/>
		<line class="st1" x1="277.4" y1="247.3" x2="263.4" y2="271.6"/>
		<line class="st1" x1="280" y1="248.8" x2="266" y2="273.1"/>
		<line class="st1" x1="282.6" y1="250.3" x2="268.6" y2="274.6"/>
		<line class="st1" x1="285.2" y1="251.8" x2="271.2" y2="276.1"/>
		<line class="st1" x1="287.8" y1="253.3" x2="273.8" y2="277.6"/>
		<line class="st1" x1="290.4" y1="254.8" x2="276.4" y2="279.1"/>
		<line class="st1" x1="293" y1="256.3" x2="279" y2="280.6"/>
		<line class="st1" x1="295.6" y1="257.8" x2="281.6" y2="282.1"/>
		<line class="st1" x1="298.2" y1="259.3" x2="284.2" y2="283.6"/>
		<line class="st1" x1="300.8" y1="260.8" x2="286.8" y2="285.1"/>
		<line class="st1" x1="303.4" y1="262.3" x2="289.4" y2="286.6"/>
		<line class="st1" x1="306" y1="263.8" x2="292" y2="288.1"/>
		<line class="st1" x1="308.6" y1="265.3" x2="294.6" y2="289.6"/>
		<line class="st1" x1="311.2" y1="266.8" x2="297.2" y2="291.1"/>
		<line class="st1" x1="313.8" y1="268.3" x2="299.8" y2="292.6"/>
		<line class="st1" x1="316.4" y1="269.8" x2="302.4" y2="294.1"/>
		<line class="st1" x1="319" y1="271.3" x2="305" y2="295.6"/>
		<line class="st1" x1="321.6" y1="272.8" x2="307.6" y2="297.1"/>
		<line class="st1" x1="324.2" y1="274.3" x2="310.2" y2="298.6"/>
		<line class="st1" x1="326.8" y1="275.8" x2="312.8" y2="300.1"/>
		<line class="st1" x1="329.4" y1="277.3" x2="315.4" y2="301.6"/>
		<line class="st1" x1="332" y1="278.8" x2="318" y2="303.1"/>
		<line class="st1" x1="334.6" y1="280.3" x2="320.6" y2="304.6"/>
		<line class="st1" x1="337.2" y1="281.8" x2="323.2" y2="306.1"/>
		<line class="st1" x1="339.8" y1="283.3" x2="325.8" y2="307.6"/>
		<line class="st1" x1="340.9" y1="287.4" x2="328.4" y2="309.1"/>
		<line class="st1" x1="341" y1="293.3" x2="331" y2="310.6"/>
		<line class="st1" x1="340.6" y1="300" x2="333.6" y2="312.1"/>
		<line class="st1" x1="340.7" y1="305.8" x2="336.2" y2="313.6"/>
		<line class="st1" x1="340.8" y1="311.6" x2="338.8" y2="315.1"/>
	</g>
</g>
<g>
	<polygon class="st0" points="341.3,328.3 1.3,132 1.3,164.3 341.3,360.6 	"/>
	<g>
		<line class="st1" x1="28" y1="147.3" x2="14" y2="171.6"/>
		<line class="st1" x1="25.4" y1="145.8" x2="11.4" y2="170.1"/>
		<line class="st1" x1="22.8" y1="144.3" x2="8.8" y2="168.6"/>
		<line class="st1" x1="20.2" y1="142.8" x2="6.2" y2="167.1"/>
		<line class="st1" x1="17.6" y1="141.3" x2="3.6" y2="165.6"/>
		<line class="st1" x1="15" y1="139.8" x2="1" y2="164.1"/>
		<line class="st1" x1="12.4" y1="138.3" x2="0.4" y2="159.1"/>
		<line class="st1" x1="9.8" y1="136.8" x2="0.8" y2="152.4"/>
		<line class="st1" x1="7.2" y1="135.3" x2="0.7" y2="146.6"/>
		<line class="st1" x1="4.6" y1="133.8" x2="0.6" y2="140.8"/>
		<line class="st1" x1="2" y1="132.3" x2="0.5" y2="134.9"/>
		<line class="st1" x1="30.6" y1="148.8" x2="16.6" y2="173.1"/>
		<line class="st1" x1="33.2" y1="150.3" x2="19.2" y2="174.6"/>
		<line class="st1" x1="35.8" y1="151.8" x2="21.8" y2="176.1"/>
		<line class="st1" x1="38.4" y1="153.3" x2="24.4" y2="177.6"/>
		<line class="st1" x1="41" y1="154.8" x2="27" y2="179.1"/>
		<line class="st1" x1="43.6" y1="156.3" x2="29.6" y2="180.6"/>
		<line class="st1" x1="46.2" y1="157.8" x2="32.2" y2="182.1"/>
		<line class="st1" x1="48.8" y1="159.3" x2="34.8" y2="183.6"/>
		<line class="st1" x1="51.4" y1="160.8" x2="37.4" y2="185.1"/>
		<line class="st1" x1="54" y1="162.3" x2="40" y2="186.6"/>
		<line class="st1" x1="56.6" y1="163.8" x2="42.6" y2="188.1"/>
		<line class="st1" x1="59.2" y1="165.3" x2="45.2" y2="189.6"/>
		<line class="st1" x1="61.8" y1="166.8" x2="47.8" y2="191.1"/>
		<line class="st1" x1="64.4" y1="168.3" x2="50.4" y2="192.6"/>
		<line class="st1" x1="67" y1="169.8" x2="53" y2="194.1"/>
		<line class="st1" x1="69.6" y1="171.3" x2="55.6" y2="195.6"/>
		<line class="st1" x1="72.2" y1="172.8" x2="58.2" y2="197.1"/>
		<line class="st1" x1="74.8" y1="174.3" x2="60.8" y2="198.6"/>
		<line class="st1" x1="77.4" y1="175.8" x2="63.4" y2="200.1"/>
		<line class="st1" x1="80" y1="177.3" x2="66" y2="201.6"/>
		<line class="st1" x1="82.6" y1="178.8" x2="68.6" y2="203.1"/>
		<line class="st1" x1="85.2" y1="180.3" x2="71.2" y2="204.6"/>
		<line class="st1" x1="87.8" y1="181.8" x2="73.8" y2="206.1"/>
		<line class="st1" x1="90.4" y1="183.3" x2="76.4" y2="207.6"/>
		<line class="st1" x1="93" y1="184.8" x2="79" y2="209.1"/>
		<line class="st1" x1="95.6" y1="186.3" x2="81.6" y2="210.6"/>
		<line class="st1" x1="98.2" y1="187.8" x2="84.2" y2="212.1"/>
		<line class="st1" x1="100.8" y1="189.3" x2="86.8" y2="213.6"/>
		<line class="st1" x1="103.4" y1="190.8" x2="89.4" y2="215.1"/>
		<line class="st1" x1="106" y1="192.3" x2="92" y2="216.6"/>
		<line class="st1" x1="108.6" y1="193.8" x2="94.6" y2="218.1"/>
		<line class="st1" x1="111.2" y1="195.3" x2="97.2" y2="219.6"/>
		<line class="st1" x1="113.8" y1="196.8" x2="99.8" y2="221.1"/>
		<line class="st1" x1="116.4" y1="198.3" x2="102.4" y2="222.6"/>
		<line class="st1" x1="119" y1="199.8" x2="105" y2="224.1"/>
		<line class="st1" x1="121.6" y1="201.3" x2="107.6" y2="225.6"/>
		<line class="st1" x1="124.2" y1="202.8" x2="110.2" y2="227.1"/>
		<line class="st1" x1="126.7" y1="204.3" x2="112.7" y2="228.6"/>
		<line class="st1" x1="129.3" y1="205.8" x2="115.3" y2="230.1"/>
		<line class="st1" x1="131.9" y1="207.3" x2="117.9" y2="231.6"/>
		<line class="st1" x1="134.5" y1="208.8" x2="120.5" y2="233.1"/>
		<line class="st1" x1="137.1" y1="210.3" x2="123.1" y2="234.6"/>
		<line class="st1" x1="139.7" y1="211.8" x2="125.7" y2="236.1"/>
		<line class="st1" x1="142.3" y1="213.3" x2="128.3" y2="237.6"/>
		<line class="st1" x1="144.9" y1="214.8" x2="130.9" y2="239.1"/>
		<line class="st1" x1="147.5" y1="216.3" x2="133.5" y2="240.6"/>
		<line class="st1" x1="150.1" y1="217.8" x2="136.1" y2="242.1"/>
		<line class="st1" x1="152.7" y1="219.3" x2="138.7" y2="243.6"/>
		<line class="st1" x1="155.3" y1="220.8" x2="141.3" y2="245.1"/>
		<line class="st1" x1="157.9" y1="222.3" x2="143.9" y2="246.6"/>
		<line class="st1" x1="160.5" y1="223.8" x2="146.5" y2="248.1"/>
		<line class="st1" x1="163.1" y1="225.3" x2="149.1" y2="249.6"/>
		<line class="st1" x1="165.7" y1="226.8" x2="151.7" y2="251.1"/>
		<line class="st1" x1="168.3" y1="228.3" x2="154.3" y2="252.6"/>
		<line class="st1" x1="170.9" y1="229.8" x2="156.9" y2="254.1"/>
		<line class="st1" x1="173.5" y1="231.3" x2="159.5" y2="255.6"/>
		<line class="st1" x1="176.1" y1="232.8" x2="162.1" y2="257.1"/>
		<line class="st1" x1="178.7" y1="234.3" x2="164.7" y2="258.6"/>
		<line class="st1" x1="181.3" y1="235.8" x2="167.3" y2="260.1"/>
		<line class="st1" x1="183.9" y1="237.3" x2="169.9" y2="261.6"/>
		<line class="st1" x1="186.5" y1="238.8" x2="172.5" y2="263.1"/>
		<line class="st1" x1="189.1" y1="240.3" x2="175.1" y2="264.6"/>
		<line class="st1" x1="191.7" y1="241.8" x2="177.7" y2="266.1"/>
		<line class="st1" x1="194.3" y1="243.3" x2="180.3" y2="267.6"/>
		<line class="st1" x1="196.9" y1="244.8" x2="182.9" y2="269.1"/>
		<line class="st1" x1="199.5" y1="246.3" x2="185.5" y2="270.6"/>
		<line class="st1" x1="202.1" y1="247.8" x2="188.1" y2="272.1"/>
		<line class="st1" x1="204.7" y1="249.3" x2="190.7" y2="273.6"/>
		<line class="st1" x1="207.3" y1="250.8" x2="193.3" y2="275.1"/>
		<line class="st1" x1="209.9" y1="252.3" x2="195.9" y2="276.6"/>
		<line class="st1" x1="212.5" y1="253.8" x2="198.5" y2="278.1"/>
		<line class="st1" x1="215.1" y1="255.3" x2="201.1" y2="279.6"/>
		<line class="st1" x1="217.7" y1="256.8" x2="203.7" y2="281.1"/>
		<line class="st1" x1="220.3" y1="258.3" x2="206.3" y2="282.6"/>
		<line class="st1" x1="222.9" y1="259.8" x2="208.9" y2="284.1"/>
		<line class="st1" x1="225.5" y1="261.3" x2="211.5" y2="285.6"/>
		<line class="st1" x1="228.1" y1="262.8" x2="214.1" y2="287.1"/>
		<line class="st1" x1="230.7" y1="264.3" x2="216.7" y2="288.6"/>
		<line class="st1" x1="233.3" y1="265.8" x2="219.3" y2="290.1"/>
		<line class="st1" x1="235.9" y1="267.3" x2="221.9" y2="291.6"/>
		<line class="st1" x1="238.5" y1="268.8" x2="224.5" y2="293.1"/>
		<line class="st1" x1="241.1" y1="270.3" x2="227.1" y2="294.6"/>
		<line class="st1" x1="243.7" y1="271.8" x2="229.7" y2="296.1"/>
		<line class="st1" x1="246.3" y1="273.3" x2="232.3" y2="297.6"/>
		<line class="st1" x1="248.9" y1="274.8" x2="234.9" y2="299.1"/>
		<line class="st1" x1="251.5" y1="276.3" x2="237.5" y2="300.6"/>
		<line class="st1" x1="254.1" y1="277.8" x2="240.1" y2="302.1"/>
		<line class="st1" x1="256.7" y1="279.3" x2="242.7" y2="303.6"/>
		<line class="st1" x1="259.3" y1="280.8" x2="245.3" y2="305.1"/>
		<line class="st1" x1="261.8" y1="282.3" x2="247.8" y2="306.6"/>
		<line class="st1" x1="264.4" y1="283.8" x2="250.4" y2="308.1"/>
		<line class="st1" x1="267" y1="285.3" x2="253" y2="309.6"/>
		<line class="st1" x1="269.6" y1="286.8" x2="255.6" y2="311.1"/>
		<line class="st1" x1="272.2" y1="288.3" x2="258.2" y2="312.6"/>
		<line class="st1" x1="274.8" y1="289.8" x2="260.8" y2="314.1"/>
		<line class="st1" x1="277.4" y1="291.3" x2="263.4" y2="315.6"/>
		<line class="st1" x1="280" y1="292.8" x2="266" y2="317.1"/>
		<line class="st1" x1="282.6" y1="294.3" x2="268.6" y2="318.6"/>
		<line class="st1" x1="285.2" y1="295.8" x2="271.2" y2="320.1"/>
		<line class="st1" x1="287.8" y1="297.3" x2="273.8" y2="321.6"/>
		<line class="st1" x1="290.4" y1="298.8" x2="276.4" y2="323.1"/>
		<line class="st1" x1="293" y1="300.3" x2="279" y2="324.6"/>
		<line class="st1" x1="295.6" y1="301.8" x2="281.6" y2="326.1"/>
		<line class="st1" x1="298.2" y1="303.3" x2="284.2" y2="327.6"/>
		<line class="st1" x1="300.8" y1="304.8" x2="286.8" y2="329.1"/>
		<line class="st1" x1="303.4" y1="306.3" x2="289.4" y2="330.6"/>
		<line class="st1" x1="306" y1="307.8" x2="292" y2="332.1"/>
		<line class="st1" x1="308.6" y1="309.3" x2="294.6" y2="333.6"/>
		<line class="st1" x1="311.2" y1="310.8" x2="297.2" y2="335.1"/>
		<line class="st1" x1="313.8" y1="312.3" x2="299.8" y2="336.6"/>
		<line class="st1" x1="316.4" y1="313.8" x2="302.4" y2="338.1"/>
		<line class="st1" x1="319" y1="315.3" x2="305" y2="339.6"/>
		<line class="st1" x1="321.6" y1="316.8" x2="307.6" y2="341.1"/>
		<line class="st1" x1="324.2" y1="318.3" x2="310.2" y2="342.6"/>
		<line class="st1" x1="326.8" y1="319.8" x2="312.8" y2="344.1"/>
		<line class="st1" x1="329.4" y1="321.3" x2="315.4" y2="345.6"/>
		<line class="st1" x1="332" y1="322.8" x2="318" y2="347.1"/>
		<line class="st1" x1="334.6" y1="324.3" x2="320.6" y2="348.6"/>
		<line class="st1" x1="337.2" y1="325.8" x2="323.2" y2="350.1"/>
		<line class="st1" x1="339.8" y1="327.3" x2="325.8" y2="351.6"/>
		<line class="st1" x1="340.9" y1="331.4" x2="328.4" y2="353.1"/>
		<line class="st1" x1="341" y1="337.3" x2="331" y2="354.6"/>
		<line class="st1" x1="340.6" y1="344" x2="333.6" y2="356.1"/>
		<line class="st1" x1="340.7" y1="349.8" x2="336.2" y2="357.6"/>
		<line class="st1" x1="340.8" y1="355.6" x2="338.8" y2="359.1"/>
	</g>
</g>
</svg>
