<?xml version="1.0" encoding="utf-8"?>
<!-- Generator: Adobe Illustrator 16.0.0, SVG Export Plug-In . SVG Version: 6.00 Build 0)  -->
<!DOCTYPE svg PUBLIC "-//W3C//DTD SVG 1.1//EN" "http://www.w3.org/Graphics/SVG/1.1/DTD/svg11.dtd">
<svg version="1.1" id="Layer_1" xmlns="http://www.w3.org/2000/svg" xmlns:xlink="http://www.w3.org/1999/xlink" x="0px" y="0px"
	 width="327.6px" height="302.4px" viewBox="0 0 327.6 302.4" enable-background="new 0 0 327.6 302.4" xml:space="preserve">
<g>
	<g>
		<defs>
			<path id="SVGID_1_" d="M163.798,2.953c-0.027-0.005-0.057-0.015-0.084-0.02c0,0-0.002,0.015-0.008,0.047
				C58.76,30.819,1.8,112.248,1.8,112.248s19.515,101.594,71.144,176.878c-0.039-0.106,10.256,2.669,27.418,5.447
				c33.668,5.442,93.784,10.893,154.292-5.447c51.633-75.284,71.146-176.878,71.146-176.878S268.841,30.819,163.891,2.98
				c-0.002-0.033-0.002-0.047-0.005-0.047C163.853,2.938,163.828,2.948,163.798,2.953"/>
		</defs>
		<clipPath id="SVGID_2_">
			<use xlink:href="#SVGID_1_"  overflow="visible"/>
		</clipPath>
		
			<linearGradient id="SVGID_3_" gradientUnits="userSpaceOnUse" x1="-144.3145" y1="547.3701" x2="-141.5196" y2="547.3701" gradientTransform="matrix(88.9335 -67.3742 -67.3742 -88.9335 49755.4961 39202.6953)">
			<stop  offset="0" style="stop-color:#F1A245"/>
			<stop  offset="0.4142" style="stop-color:#F3BD3E"/>
			<stop  offset="0.7472" style="stop-color:#F5D537"/>
			<stop  offset="1" style="stop-color:#F1B940"/>
		</linearGradient>
		<polygon clip-path="url(#SVGID_2_)" fill="url(#SVGID_3_)" points="-143.819,113.251 207.653,-153.019 471.42,195.149 
			119.944,461.419 		"/>
	</g>
	<g>
		<defs>
			<path id="SVGID_4_" d="M163.798,12.832c-0.027-0.008-0.052-0.014-0.074-0.019c-0.008,0-0.008,0.016-0.013,0.04
				C65.747,38.84,12.575,114.858,12.575,114.858s18.212,94.829,66.406,165.116c-0.033-0.101,9.58,2.492,25.606,5.082
				c31.433,5.084,87.548,10.169,144.027-5.082c48.198-70.287,66.413-165.116,66.413-165.116S261.856,38.84,163.888,12.853
				c-0.005-0.023-0.005-0.04-0.014-0.04C163.853,12.818,163.825,12.824,163.798,12.832"/>
		</defs>
		<clipPath id="SVGID_5_">
			<use xlink:href="#SVGID_4_"  overflow="visible"/>
		</clipPath>
		
			<linearGradient id="SVGID_6_" gradientUnits="userSpaceOnUse" x1="-143.6074" y1="545.998" x2="-140.8125" y2="545.998" gradientTransform="matrix(108.2207 0 0 -108.2207 15553.8594 59242.2578)">
			<stop  offset="0" style="stop-color:#1A1919"/>
			<stop  offset="0.0652" style="stop-color:#232222"/>
			<stop  offset="0.4551" style="stop-color:#575858"/>
			<stop  offset="0.8815" style="stop-color:#292A29"/>
			<stop  offset="1" style="stop-color:#1C1C1B"/>
		</linearGradient>
		<rect x="12.575" y="12.813" clip-path="url(#SVGID_5_)" fill="url(#SVGID_6_)" width="302.45" height="282.416"/>
	</g>
	<g>
		<defs>
			<path id="SVGID_7_" d="M163.798,20.461c-0.027-0.005-0.052-0.008-0.071-0.016c-0.003,0-0.003,0.014-0.011,0.042
				c-92.574,24.555-142.82,96.385-142.82,96.385s17.211,89.612,62.754,156.025c-0.03-0.093,9.053,2.358,24.195,4.804
				c29.702,4.804,82.733,9.607,136.099-4.804c45.54-66.413,62.751-156.025,62.751-156.025s-50.237-71.83-142.812-96.385
				c-0.008-0.028-0.008-0.042-0.014-0.042C163.844,20.453,163.82,20.456,163.798,20.461"/>
		</defs>
		<clipPath id="SVGID_8_">
			<use xlink:href="#SVGID_7_"  overflow="visible"/>
		</clipPath>
		
			<linearGradient id="SVGID_9_" gradientUnits="userSpaceOnUse" x1="-144.3188" y1="547.3691" x2="-141.5247" y2="547.3691" gradientTransform="matrix(88.9333 -67.374 -67.374 -88.9333 49755.5078 39201.8945)">
			<stop  offset="0" style="stop-color:#F1A245"/>
			<stop  offset="0.4142" style="stop-color:#F3BD3E"/>
			<stop  offset="0.7472" style="stop-color:#F5D537"/>
			<stop  offset="1" style="stop-color:#F1B940"/>
		</linearGradient>
		<polygon clip-path="url(#SVGID_8_)" fill="url(#SVGID_9_)" points="-107.553,117.756 202.479,-117.119 435.146,189.999 
			125.111,424.874 		"/>
	</g>
	<g>
		<defs>
			<path id="SVGID_10_" d="M163.798,24.528c-0.027-0.003-0.041-0.011-0.068-0.017c-0.003,0-0.006,0.014-0.008,0.042
				C74.019,48.348,25.329,117.949,25.329,117.949s16.684,86.826,60.811,151.177c-0.03-0.088,8.764,2.284,23.434,4.653
				c28.777,4.656,80.165,9.314,131.885-4.653c44.129-64.351,60.808-151.177,60.808-151.177s-48.69-69.602-138.391-93.395
				c0-0.029-0.003-0.042-0.005-0.042C163.844,24.517,163.82,24.525,163.798,24.528"/>
		</defs>
		<clipPath id="SVGID_11_">
			<use xlink:href="#SVGID_10_"  overflow="visible"/>
		</clipPath>
		
			<linearGradient id="SVGID_12_" gradientUnits="userSpaceOnUse" x1="-139.647" y1="545.877" x2="-136.8522" y2="545.877" gradientTransform="matrix(0 85.0834 85.0834 0 -46281.3125 11921.7891)">
			<stop  offset="0" style="stop-color:#8A0E1A"/>
			<stop  offset="1" style="stop-color:#BE1E2D"/>
		</linearGradient>
		<rect x="25.329" y="24.513" clip-path="url(#SVGID_11_)" fill="url(#SVGID_12_)" width="276.937" height="258.581"/>
	</g>
	<g>
		<defs>
			<path id="SVGID_13_" d="M177.317,98.894c-2.442,2.328-4.209,4.078-6.498,6.389c-1.338,1.356-0.972,4.469-3.955,3.656
				c-1.912-0.525-1.778-3.026-0.375-5.248c1.745-2.765,4.169-6.613,1.292-8.365c-2.051-1.246-4.035,0.542-4.035,0.542
				s4.104,0.015,3.146,4.274c-0.664,2.957-2.34,2.584-3.44,4.459c-1.763,2.986-1.021,24.883-1.875,28.659
				c-1.782,7.808-7.74,7.83-13.534,11.408c-0.83,1.987,0.022,3.784,0.464,5.312c-1.52-1.417-3.469-2.987-2.358-6.123
				c-0.811-2.611-3.319-2.138-5.42-2.429c-4.779-0.646-9.214-4.323-8.927-9.806c-1.4,1.8-3.644,3.379-6.689,4.024
				c-5.57,1.179-12.877-0.811-15.726-3.622c3.054,0.312,4.7-0.904,6.125-2.36c-3.019,0.539-5.074,0.277-6.725-0.315
				c1.441-0.429,3.294-2.922,1.403-4.034c-1.659,1.021-4.017,3.709-7.866,3.131c-1.067,1.35-2.353,2.082-2.375,4.575
				c1.965-0.202,3.693-2.007,4.462-2.674c-0.035,2.333-2.156,2.699-3.3,3.694c-4.252,3.675-8.955,11.699-4.915,17.585
				c0.835-3.123,3.938-5.097,7.2-4.718c-3.641,1.389-6.553,3.578-6.436,9.09c-1.114-0.991-1.509-2.62-2.486-3.729
				c-3.564,10.075-0.579,18.375,6.132,23.402c-0.663-4.72,1.155-8.815,5.238-9.149c-5.661,4.525-1.76,8.152,0.772,9.189
				c1.146-0.011,0.488-1.449,2.008-1.594c-2.147,3.008,0.582,2.732-0.464,5.041c1.004,0.202,2.443-1.602,4.263-1.746
				c-1.722-0.115-2.396-1.736-3.07-2.801c1.67,0.202,2.584-0.011,3.395-0.229c0.882-0.235,1.632-0.47,3.095-0.17
				c-0.838-2.184-2.855-2.197-2.424-4.926c5.106,2.196,10.824,1.059,15.652,0.014c-3.374,1.766-7.92,2.707-12.857,2.041
				c0.382,2.571,3.46,2.576,4.599,4.46c-4.29-0.663-5.922-0.508-7.162-0.35c-0.827,0.104-1.482,0.207-2.625,0.065
				c0.835,1.125,3.335,0.885,3.461,2.009c-1.782,1.253-4.55,1.845-5.235,3.603c-2.342-0.055-4.462-0.199-6.247-0.055
				c-6.108,0.514-12.096,4.105-17.844,3.777c-0.437-0.682-0.884-1.468-1.757-2.153c-0.887-0.688-7.08-1.405-8.712-3.624
				c-1.22-1.662-11.31-3.186-11.105,2.786c0.582,2.549,6.602,2.71,9.181,2.129c-1.345,2.765-5.488,3.799-8.895,3.319
				c-0.158-0.167-5.96,0.136-6.056,2.483c-0.055,1.468,2.686,3.417,4.643,3.586c1.312,0.114,2.841-0.89,4.148-1.005
				c2.309-0.196,3.963,0.476,4.814,1.531c-1.283,0.276-2.353,2.189-4.107,3.808c-1.725,0.033-3.161,0.66-3.464,1.992
				c-0.756,3.347,3.977,5.153,4.768,3.881c1.324-2.104,3.827-4.743,7.459-2.827c0.259,2.429-2.036,3.777-0.843,5.718
				c3.147,0.145,5.582-1.46,6.689-4.062c0.278-0.622,0.3-1.643,0.429-2.076c1.894-5.978,11.455,0.316,15.729,1.585
				c-1.28-1.121-2.219-2.473-1.717-3.613c5.366,0.292,14.484,5.319,18.251,2.345c-3.109-1.233-5.631-4.492-6.679-6.829
				c6.94,1.747,14.691,3.718,22.074,1.753c-0.45-1.122-2.476-0.731-3.597-2.713c-1.122-1.977-0.532-5.014,2.044-5.307
				c-0.145,0.934-0.3,0.85,0.172,1.455c2.462,1.019,4.55-1.785,6.362-2.109c1.258-0.221,3.095,0.482,4.787,0.701
				c3.974,0.538,8.07,0.707,12.003,0.565c3.799-0.137,6.894-2.599,10.491-2.872c4.685-0.376,7.18,0.107,10.825,2.433
				c3.663,2.314,2.192,11.907-7.556,20.742c3.585,1.078,1.967,3.092,1.396,8.878c-0.419,4.192,5.971,7.588,10.073,7.871
				c8.093,0.555,15.363-3.859,20.497-5.78c0.805,0.56,2.89,10.68-1.569,14.839c-0.849,0.789-3.554,4.354,0.229,2.967
				c-1.845,3.28-8.764,2.377-12.628,2.964c-2.732,0.415-4.427,2.238-6.195,3.57c-4.271-0.731-13.042,4.071-8.365,9.001
				c1.679,1.758,2.541,0.818,4.732-0.475c2.184-1.294,3.777-3.134,5.486-1.709c-2.539,1.201-3.139,2.112-2.375,4.471
				c-2.816,0.344-5.117,2.017-4.792,4.588c0.502,3.916,6.386,3.25,8.318,0.789c1.927-2.457,0.923-4.787,2.284-6.07
				c1.752-0.552,3.895,0.391,4.495,1.654c-3.482,2.123-3.062,9.14,0.497,9.891c2.295,0.344,4.688-0.56,5.368-2.926
				c0.516-1.823-1.46-4.945-0.537-7.123c0.925-2.184,2.8-1.526,4.2-2.768c1.189-1.06,1.65-2.898,3.288-3.456
				c-0.982,1.922,0.663,4.787-0.347,6.103c-1.015,1.327-3.308,2.255-3.572,4.267c0.102,1.711,3.27,4.088,6.226,3.356
				c2.727-1.714,4.296-7.429,3.16-12.268c1.94-1.562,3.224-3.319,4.402-5.322c0.437-0.75,2.124-3.095,2.173-4.716
				c0.065-2.053-1.668-3.753-2.361-6.075c-0.674-2.238-0.122-5.02,1.06-6.61c1.187-1.595,3.487-1.771,6.095-1.523
				c-2.135-2.173-3.172-7.527,0.245-12.03c1.848-2.418,1.872-2.923,2.15-4.053c-2.584,1.11-7.229,0.761-7.222-1.788
				c0.012-3.472,4.662-3.253,5.521-6.144c-1.899,0.391-4.31,0.464-7.063-0.844c3.78-0.611,7.184-3.618,5.862-8.166
				c-3.67,3.505-9.069-0.703-7.724-4.699c2.033-5.999,7.269-8.554,6.384-14.604c2.238,6.313,5.102,12.383,15.996,16.504
				c0.115,0.027,0.339-0.044,0.573-0.114c0.278-0.088,0.57-0.175,0.721-0.099c1.057,1.072,3.598,3.101,5.71,3.297
				c3.021,0.312,6.46-1.73,9.74-2.424c6.247-1.343,10.227-2.491,10.363-7.636c0.357-0.027,0.759,0.029,1.171,0.087
				c0.846,0.114,1.749,0.229,2.462-0.382c1.916-1.638,4.967-6.201,6.44-8.903c2.768-5.09,4.457-9.506,2.95-14.819
				c4.013-1.455,3.923-11.084,0.047-18.282c-1.49-1.25-2.112-0.237-3.689-2.205c-0.058-3.482-0.645-5.375-2.08-7.504
				c-2.176-3.28-6.676-7.535-9.935-7.89c-0.333-0.035-0.753,0.074-1.209,0.183c-0.467,0.105-0.969,0.217-1.452,0.172
				c-2.56-0.214-3.662-2.881-6.536-3.336c-0.819-0.134-2.817-0.307-3.89-0.277c-3.952,0.127-10.093-0.016-13.774,1.034
				c-2.5,0.725-5.649,2.742-7.173,4.008c-2.868,2.387-4.126,6.512-4.686,10.568c-0.104,0.997,2.841,2.224,2.841,2.224
				s-0.742,2.006,2.672,5.449c5.778,5.813,11.433,2.901,12.309,1.912c-5.761,1.408-9.071-2.993-7.721-7.144
				c2.036,0.048,13.333,0.048,21.603-9.198c0.321-0.379,0.723-0.475,0.969-0.189c0.701,1.333,0.56,3.147,1.49,4.491
				c1.185,1.703,1.907,3.309,3.311,4.319c1.402,1.014,6.948,2.702,7.555,4.116c0.564,1.356-0.85,1.816-1.569,4.045
				c-0.876,2.651-0.57,3.633,0.095,6.059c1.431,5.223,3.357,3.168,6.016,6.97c-11.892,4.353-11.787,18.341-11.717,19.565
				c-0.68-0.076-0.827-1.271-1.73-1.141c-4.511,0.224-8.171,0.47-10.611,2.135c-2.216,1.515-3.098,5.952-6.989,4.732
				c-0.199-1.294,0.532-2.31,0.027-5.061c-4.694-5.826-9.477-11.375-20.15-11.062c-1.463,0.161-1.58,1.067-1.58,1.067
				s-1.274-2.109-3.77-5.052c-3.987-4.697-10.987-10.71-17.748-12.499c-4.522-1.188-9.886-1.014-15.027-0.842
				c-7.473,0.252-14.483,0.504-17.766-3.425c1.447-4.136,9.947-3.066,10.602-6.861c0.652-3.795-2.882-14.069-3.643-18.008
				c-1.348-6.966,2.218-7.531,2.742-7.615c0.439,0.721,9.358,19.793,38.356,20.444c-19.647-0.442-35.052-13.681-35.114-21.52
				c19.661-9.443,39.962-8.39,50.865-6.71c-26.103-6.728-44.533,3.038-51.283,4.102c22.552-39.661,76.75-34.314,76.75-34.314
				s-5.655-1.408-14.46-1.408C219.807,76.095,197.41,79.756,177.317,98.894"/>
		</defs>
		<clipPath id="SVGID_14_">
			<use xlink:href="#SVGID_13_"  overflow="visible"/>
		</clipPath>
		
			<linearGradient id="SVGID_15_" gradientUnits="userSpaceOnUse" x1="-144.832" y1="547.2471" x2="-142.0371" y2="547.2471" gradientTransform="matrix(66.9884 -54.6685 -54.6685 -66.9884 39717.9141 28965.998)">
			<stop  offset="0" style="stop-color:#F1A245"/>
			<stop  offset="0.4142" style="stop-color:#F3BD3E"/>
			<stop  offset="0.7472" style="stop-color:#F5D537"/>
			<stop  offset="1" style="stop-color:#F1B940"/>
		</linearGradient>
		<polygon clip-path="url(#SVGID_14_)" fill="url(#SVGID_15_)" points="-37.321,149.753 188.202,-34.294 370.159,188.667 
			144.636,372.718 		"/>
	</g>
	<g>
		<defs>
			<path id="SVGID_16_" d="M174.577,109.688c12.585-4.354,30.655-8.203,46.081-3.925c-1.654-2.222-3.362-21.53,23.204-26.994
				c-0.999-0.173-2.678-0.293-4.877-0.293C225.091,78.476,190.388,83.291,174.577,109.688"/>
		</defs>
		<clipPath id="SVGID_17_">
			<use xlink:href="#SVGID_16_"  overflow="visible"/>
		</clipPath>
		
			<linearGradient id="SVGID_18_" gradientUnits="userSpaceOnUse" x1="-144.8428" y1="547.4316" x2="-142.047" y2="547.4316" gradientTransform="matrix(66.9883 -54.6684 -54.6684 -66.9883 39708.8164 28953.5391)">
			<stop  offset="0" style="stop-color:#F1A245"/>
			<stop  offset="0.4142" style="stop-color:#F3BD3E"/>
			<stop  offset="0.7472" style="stop-color:#F5D537"/>
			<stop  offset="1" style="stop-color:#F1B940"/>
		</linearGradient>
		<polygon clip-path="url(#SVGID_17_)" fill="url(#SVGID_18_)" points="159.289,90.953 216.166,44.536 259.151,97.211 
			202.276,143.626 		"/>
	</g>
	<g>
		<defs>
			<path id="SVGID_19_" d="M173.852,115.576c1.452,7.18,13.861,16.833,33.22,18.641c-2.038-1.886-3.714-6.344-2.955-10.684
				c1.332-7.72,8.916-12.642,15.677-14.707c-3.622-0.525-7.369-0.773-11.141-0.773C195.991,108.053,183.068,110.87,173.852,115.576"
				/>
		</defs>
		<clipPath id="SVGID_20_">
			<use xlink:href="#SVGID_19_"  overflow="visible"/>
		</clipPath>
		
			<linearGradient id="SVGID_21_" gradientUnits="userSpaceOnUse" x1="-144.8354" y1="547.334" x2="-142.0413" y2="547.334" gradientTransform="matrix(66.9865 -54.6669 -54.6669 -66.9865 39710.2031 28956.8184)">
			<stop  offset="0" style="stop-color:#F1A245"/>
			<stop  offset="0.4142" style="stop-color:#F3BD3E"/>
			<stop  offset="0.7472" style="stop-color:#F5D537"/>
			<stop  offset="1" style="stop-color:#F1B940"/>
		</linearGradient>
		<polygon clip-path="url(#SVGID_20_)" fill="url(#SVGID_21_)" points="161.036,118.512 201.428,85.549 232.609,123.757 
			192.217,156.721 		"/>
	</g>
	<g>
		<defs>
			<path id="SVGID_22_" d="M194.959,267.256c1.346,0.03,3.873-0.893,4.525-2.076c-1.037,0.278-2.175-0.333-2.762-0.827
				C196.436,265.531,195.819,266.238,194.959,267.256"/>
		</defs>
		<clipPath id="SVGID_23_">
			<use xlink:href="#SVGID_22_"  overflow="visible"/>
		</clipPath>
		
			<linearGradient id="SVGID_24_" gradientUnits="userSpaceOnUse" x1="-144.8306" y1="546.498" x2="-142.0697" y2="546.498" gradientTransform="matrix(66.9887 -54.6687 -54.6687 -66.9887 39737.2656 28988.6465)">
			<stop  offset="0" style="stop-color:#F1A245"/>
			<stop  offset="0.4142" style="stop-color:#F3BD3E"/>
			<stop  offset="0.7472" style="stop-color:#F5D537"/>
			<stop  offset="1" style="stop-color:#F1B940"/>
		</linearGradient>
		<polygon clip-path="url(#SVGID_23_)" fill="url(#SVGID_24_)" points="193.523,265.523 197.675,262.136 200.92,266.112 
			196.769,269.502 		"/>
	</g>
	<g>
		<defs>
			<path id="SVGID_25_" d="M169.334,129.131c0.562,3.125,1.452,5.841,1.884,7.932c0.248,1.247,0.327,4.152,0.104,5.075
				c-1.029,4.125-8.257,2.733-9.379,5.664c3.513,3.402,8.978,1.946,15.059,1.63c6.094-0.318,7.243-0.243,9.473,0.06
				c-2.727-5.146-0.28-8.125,1.635-9.357c3.137-2.016,13.715-3.15,14.539-3.394c-4.514-0.44-10.59-1.763-14.072-2.83
				c-10.849-3.326-16.255-9.379-19.888-16.073C165.706,119.937,168.616,125.174,169.334,129.131"/>
		</defs>
		<clipPath id="SVGID_26_">
			<use xlink:href="#SVGID_25_"  overflow="visible"/>
		</clipPath>
		
			<linearGradient id="SVGID_27_" gradientUnits="userSpaceOnUse" x1="-144.8325" y1="547.3105" x2="-142.0388" y2="547.3105" gradientTransform="matrix(66.9889 -54.6689 -54.6689 -66.9889 39711.0977 28957.1934)">
			<stop  offset="0" style="stop-color:#F1A245"/>
			<stop  offset="0.4142" style="stop-color:#F3BD3E"/>
			<stop  offset="0.7472" style="stop-color:#F5D537"/>
			<stop  offset="1" style="stop-color:#F1B940"/>
		</linearGradient>
		<polygon clip-path="url(#SVGID_26_)" fill="url(#SVGID_27_)" points="145.597,131.175 186.376,97.896 218.993,137.865 
			178.216,171.146 		"/>
	</g>
	<g>
		<defs>
			<path id="SVGID_28_" d="M181.892,269.164c3.695,1.247,6.422-0.082,8.117-1.977c-2.045,0.798-3.521,0.104-4.481-0.4
				C185.104,267.646,183.242,268.831,181.892,269.164"/>
		</defs>
		<clipPath id="SVGID_29_">
			<use xlink:href="#SVGID_28_"  overflow="visible"/>
		</clipPath>
		
			<linearGradient id="SVGID_30_" gradientUnits="userSpaceOnUse" x1="-144.8379" y1="546.5391" x2="-142.0184" y2="546.5391" gradientTransform="matrix(66.9844 -54.6652 -54.6652 -66.9844 39733.5234 28985.8242)">
			<stop  offset="0" style="stop-color:#F1A245"/>
			<stop  offset="0.4142" style="stop-color:#F3BD3E"/>
			<stop  offset="0.7472" style="stop-color:#F5D537"/>
			<stop  offset="1" style="stop-color:#F1B940"/>
		</linearGradient>
		<polygon clip-path="url(#SVGID_29_)" fill="url(#SVGID_30_)" points="180.117,268.236 186.764,262.811 191.782,268.962 
			185.137,274.388 		"/>
	</g>
	<g>
		<defs>
			<path id="SVGID_31_" d="M160.583,187.595c0.42,0.704,0.584,1.627,0.62,2.187c-3.679,6.331-13.136,10.504-20.478,11.129
				c1.941,0.322,2.634,2.293,4.902,2.599c-2.028,0.792-3.477,2.232-4.751,3.87c-1.253,3.292,1.722,6.192,1.979,9.236
				c0.426,5.049-2.109,9.934-6.484,10.049c1.149-0.549,1.542-0.993,1.776-2.08c-2.939-0.011-3.873-1.842-5.136-3.379
				c-2.596,0.672-4.446-0.458-5.846-1.583c-1.192-0.963-2.058-1.927-2.773-1.771c-2.708,0.605-3.299,3.139-1.75,5.021
				c0.259,0.631,4.632,0.401,5.404,1.471c-1.842,0.47-1.245,1.638-1.305,2.113c-0.931,0.057-1.981,0.008-3.054-0.044
				c-3.425-0.164-7.052-0.328-7.549,3.073c-0.311,2.172,1.895,5.046,4.954,4.645c1.198-0.158,2.014-1.681,3.692-1.746
				c2.388-0.096,3.824,1.195,6.417,1.735c-1.793,2.08-6.81,1.878-7.634,3.739c-1.973,4.416,1.103,5.622,4.984,5.549
				c1.531-0.038,6.072-3.379,6.201-5.885c4.806,1.81,6.572-3.305,9.018-4.492c-1.346,2.074-0.058,3.385-0.764,5.979
				c-0.663,2.476-3.758,2.778-4.299,4.373c-1.252,3.752,2.939,6.026,6.051,3.99c1.428-0.923,0.671-2.948,1.116-3.336
				c1.974-1.81,3.922-2.254,5.079-4.901c0.284-0.646-0.041-1.528,0.104-2.159c0.131-0.603,1.059-1.495,1.315-2.339
				c0.177-0.666-0.183-1.045,0.06-1.452c0.868-1.422,3.663-2.205,4.266-3.648c0.797-1.93-0.431-3.718-0.45-5.8
				c-0.084-6.73,5.753-7.533,8.551-13.079c-0.3-0.941-1.067-1.416-2.181-1.643c1.733-1.921,10.566-8.925,9.376-18.75
				c-1.492-1.807-4.702-3.145-8.069-3.145C162.807,187.122,161.675,187.268,160.583,187.595"/>
		</defs>
		<clipPath id="SVGID_32_">
			<use xlink:href="#SVGID_31_"  overflow="visible"/>
		</clipPath>
		
			<linearGradient id="SVGID_33_" gradientUnits="userSpaceOnUse" x1="-144.835" y1="547.0293" x2="-142.0392" y2="547.0293" gradientTransform="matrix(66.9878 -54.668 -54.668 -66.9878 39721.1875 28969.7148)">
			<stop  offset="0" style="stop-color:#F1A245"/>
			<stop  offset="0.4142" style="stop-color:#F3BD3E"/>
			<stop  offset="0.7472" style="stop-color:#F5D537"/>
			<stop  offset="1" style="stop-color:#F1B940"/>
		</linearGradient>
		<polygon clip-path="url(#SVGID_32_)" fill="url(#SVGID_33_)" points="85.312,212.021 150.255,159.024 203.695,224.508 
			138.754,277.508 		"/>
	</g>
	<g>
		<defs>
			<path id="SVGID_34_" d="M171.108,267.014c0.368-1.417,1.799-2.763,2.74-3.262c-0.232,0-1.566-0.751-2.217-1.752
				C170.366,263.465,170.099,266.14,171.108,267.014"/>
		</defs>
		<clipPath id="SVGID_35_">
			<use xlink:href="#SVGID_34_"  overflow="visible"/>
		</clipPath>
		
			<linearGradient id="SVGID_36_" gradientUnits="userSpaceOnUse" x1="-144.8359" y1="546.626" x2="-142.0124" y2="546.626" gradientTransform="matrix(66.9884 -54.6685 -54.6685 -66.9884 39732.7891 28984.248)">
			<stop  offset="0" style="stop-color:#F1A245"/>
			<stop  offset="0.4142" style="stop-color:#F3BD3E"/>
			<stop  offset="0.7472" style="stop-color:#F5D537"/>
			<stop  offset="1" style="stop-color:#F1B940"/>
		</linearGradient>
		<polygon clip-path="url(#SVGID_35_)" fill="url(#SVGID_36_)" points="167.643,264.006 172.351,260.163 176.305,265.01 
			171.597,268.85 		"/>
	</g>
	<g>
		<defs>
			<path id="SVGID_37_" d="M166.099,259.693c0.21-2.068,1.865-3.4,2.902-4.678c-1.255-0.48-2.205-2.26-2.147-3.603
				C165.867,252.812,164.519,257.292,166.099,259.693"/>
		</defs>
		<clipPath id="SVGID_38_">
			<use xlink:href="#SVGID_37_"  overflow="visible"/>
		</clipPath>
		
			<linearGradient id="SVGID_39_" gradientUnits="userSpaceOnUse" x1="-144.835" y1="546.7002" x2="-142.0512" y2="546.7002" gradientTransform="matrix(66.984 -54.6649 -54.6649 -66.984 39728.1211 28979.2148)">
			<stop  offset="0" style="stop-color:#F1A245"/>
			<stop  offset="0.4142" style="stop-color:#F3BD3E"/>
			<stop  offset="0.7472" style="stop-color:#F5D537"/>
			<stop  offset="1" style="stop-color:#F1B940"/>
		</linearGradient>
		<polygon clip-path="url(#SVGID_38_)" fill="url(#SVGID_39_)" points="160.463,254.724 167.208,249.219 173.057,256.383 
			166.312,261.891 		"/>
	</g>
	<g>
		<defs>
			<path id="SVGID_40_" d="M122.101,71.46c-2.006,0.512-3.827-0.045-5.655-0.598c-2.025-0.618-4.056-1.232-6.334-0.392
				c2.516,0.775,1.395,3.426,5.322,4.291c-1.637,0.732-3.384,0.098-5.076-0.534c-1.785-0.668-3.51-1.331-4.989-0.414
				c1.976,0.606,3.987,3.099,3.335,5.931c-0.391,1.679-2.975,2.847-2.148,4.72c0.128,0.875,1.842,0.969,2.156,1.677
				c-2.868,1.601-1.826,5.446,0.372,6.142c0.688,0.221,1.075-0.029,1.482-0.274c0.376-0.232,0.77-0.461,1.43-0.315
				c-4.673,1.976-1.829,9.824,3.45,8.59c-1.452,1.613-1.261,3.562-3.106,4.665c-2.282,1.373-5.841,1.045-8.305,2.502
				c-2.587,3.795,1.471,4.605,1.463,7.641c-0.628,1.262-2.571,2.595-4.678,2.378c-1.056,1.931-2.099,4.479-3.922,4.27
				c-1.815-0.21-2.454-1.397-2.868-2.667c-2.17,4.832,3.393,7.764,7.418,8.192c5.071,0.534,8.532-2.845,10.117-5.736
				c-0.729,2.352,1.275,4.794-0.316,6.963c3.114,0.397,5.737,0.256,6.575-1.856c0.325,3.147-2.74,5.446-5.117,6.076
				c2.68,0.89,6.015,2.141,8.834,2.04c3.491-0.117,7.252-1.053,9.591-4.368c0.671-0.931,1.171-3.032,2.694-3.197
				c-2.942,10.074,5.63,15.941,13.04,11.643c-3.39-0.59-4.228-3.787-3.032-7.436c1.507,1.31,4.323,4.678,6.635,0.979
				c-3.008,0.34-3.69-2.832-3.3-5.087c0.753-4.376,7.017-6.59,0.357-9.88c1.992-0.108,3.163,0.373,4.047,0.858
				c1.318,0.722,1.99,1.442,3.794,0.184c-2.795-0.421-3.688-4.449-2.729-6.363c0.213,0.883,0.221,1.887,0.702,2.521
				c2.926,1.258,5.155,0.602,5.486-1.899c-0.83,0.349-2.009,0.112-2.833-0.752c-2.309-2.454,0.895-7.186,0.341-10.958
				c-1.007-7.002-5.715-12.336-12.025-15.496c0.846-1.424,3.627-1.891,5.183-1.74c-2.341-3.352-7.598-4.64-13.338-4.176
				c-0.516-3.312,1.359-5.022,3.177-6.107c-1.93-2.24-5.393-3.775-8.226-4.24c-0.62-0.104-1.195-0.147-1.728-0.147
				C126.014,69.091,124.297,70.902,122.101,71.46"/>
		</defs>
		<clipPath id="SVGID_41_">
			<use xlink:href="#SVGID_40_"  overflow="visible"/>
		</clipPath>
		
			<linearGradient id="SVGID_42_" gradientUnits="userSpaceOnUse" x1="-144.8398" y1="547.752" x2="-142.0444" y2="547.752" gradientTransform="matrix(66.9905 -54.6702 -54.6702 -66.9905 39699.8477 28942.3672)">
			<stop  offset="0" style="stop-color:#F1A245"/>
			<stop  offset="0.4142" style="stop-color:#F3BD3E"/>
			<stop  offset="0.7472" style="stop-color:#F5D537"/>
			<stop  offset="1" style="stop-color:#F1B940"/>
		</linearGradient>
		<polygon clip-path="url(#SVGID_41_)" fill="url(#SVGID_42_)" points="55.591,98.689 132.054,36.289 195.091,113.532 
			118.629,175.933 		"/>
	</g>
	<g>
		<defs>
			<path id="SVGID_43_" d="M133.233,246.702c0.822,0.928,3.133,1.522,4.503,0.991c-0.557-0.489-1.042-1.209-1.332-1.941
				C135.635,246.421,134.439,246.702,133.233,246.702"/>
		</defs>
		<clipPath id="SVGID_44_">
			<use xlink:href="#SVGID_43_"  overflow="visible"/>
		</clipPath>
		
			<linearGradient id="SVGID_45_" gradientUnits="userSpaceOnUse" x1="-144.8311" y1="546.8965" x2="-142.0404" y2="546.8965" gradientTransform="matrix(66.9494 -54.6367 -54.6367 -66.9494 39701.5352 28957.2051)">
			<stop  offset="0" style="stop-color:#F1A245"/>
			<stop  offset="0.4142" style="stop-color:#F3BD3E"/>
			<stop  offset="0.7472" style="stop-color:#F5D537"/>
			<stop  offset="1" style="stop-color:#F1B940"/>
		</linearGradient>
		<polygon clip-path="url(#SVGID_44_)" fill="url(#SVGID_45_)" points="132.021,246.74 135.938,243.547 138.948,247.237 
			135.034,250.431 		"/>
	</g>
	<g>
		<defs>
			<path id="SVGID_46_" d="M119.876,245.689L119.876,245.689c1.021-0.734,2.282-1.307,4.389-1.522
				c-1.976-0.797-2.647-1.761-2.762-3.082C120.559,242.303,120.059,244.289,119.876,245.689"/>
		</defs>
		<clipPath id="SVGID_47_">
			<use xlink:href="#SVGID_46_"  overflow="visible"/>
		</clipPath>
		
			<linearGradient id="SVGID_48_" gradientUnits="userSpaceOnUse" x1="-144.8359" y1="546.9844" x2="-142.0058" y2="546.9844" gradientTransform="matrix(67.0028 -54.6802 -54.6802 -67.0028 39730.8867 28976.9941)">
			<stop  offset="0" style="stop-color:#F1A245"/>
			<stop  offset="0.4142" style="stop-color:#F3BD3E"/>
			<stop  offset="0.7472" style="stop-color:#F5D537"/>
			<stop  offset="1" style="stop-color:#F1B940"/>
		</linearGradient>
		<polygon clip-path="url(#SVGID_47_)" fill="url(#SVGID_48_)" points="117.619,242.925 122.51,238.935 126.522,243.848 
			121.631,247.84 		"/>
	</g>
	<g>
		<defs>
			<path id="SVGID_49_" d="M115.842,222.745c1.646-0.822,2.514-0.606,3.417-0.388c0.428,0.104,0.86,0.202,1.386,0.196
				c-0.868-1.938,0.123-2.827,0.819-3.66C118.847,219.224,116.688,220.479,115.842,222.745"/>
		</defs>
		<clipPath id="SVGID_50_">
			<use xlink:href="#SVGID_49_"  overflow="visible"/>
		</clipPath>
		
			<linearGradient id="SVGID_51_" gradientUnits="userSpaceOnUse" x1="-144.8311" y1="547.1328" x2="-142.0552" y2="547.1328" gradientTransform="matrix(66.9704 -54.6538 -54.6538 -66.9704 39707.1641 28958.1875)">
			<stop  offset="0" style="stop-color:#F1A245"/>
			<stop  offset="0.4142" style="stop-color:#F3BD3E"/>
			<stop  offset="0.7472" style="stop-color:#F5D537"/>
			<stop  offset="1" style="stop-color:#F1B940"/>
		</linearGradient>
		<polygon clip-path="url(#SVGID_50_)" fill="url(#SVGID_51_)" points="113.956,220.434 119.218,216.14 123.351,221.205 
			118.091,225.498 		"/>
	</g>
	<g>
		<defs>
			<path id="SVGID_52_" d="M112.381,235.397L112.381,235.397c0.922-0.824,2.312-1.542,3.526-1.562
				c-0.83-0.949-1.343-1.842-1.272-3.405C113.806,231.719,112.501,233.323,112.381,235.397"/>
		</defs>
		<clipPath id="SVGID_53_">
			<use xlink:href="#SVGID_52_"  overflow="visible"/>
		</clipPath>
		
			<linearGradient id="SVGID_54_" gradientUnits="userSpaceOnUse" x1="-144.8408" y1="547.0762" x2="-142.0041" y2="547.0762" gradientTransform="matrix(66.9893 -54.6692 -54.6692 -66.9893 39719.8594 28967.1172)">
			<stop  offset="0" style="stop-color:#F1A245"/>
			<stop  offset="0.4142" style="stop-color:#F3BD3E"/>
			<stop  offset="0.7472" style="stop-color:#F5D537"/>
			<stop  offset="1" style="stop-color:#F1B940"/>
		</linearGradient>
		<polygon clip-path="url(#SVGID_53_)" fill="url(#SVGID_54_)" points="109.947,232.417 114.497,228.705 118.339,233.41 
			113.79,237.125 		"/>
	</g>
	<g>
		<defs>
			<path id="SVGID_55_" d="M96.235,84.86c1.217-0.551-0.15-1.09,0.737-1.943c3.357-0.888,5.199-0.045,5.808,2.181
				c-0.729-0.138-0.75-1.152-1.725-0.981c0.183,1.307-0.789,2.171-2.317,2.344c0.772,0.779,1.591,1.496,2.345,2.309
				C99.753,88.154,97.084,86.943,96.235,84.86 M97.149,80.426c-0.601,0.543-1.149,1.018-1.807,1.887
				c-4.301,0.486-8.611,0.525-12.527,1.704c0.068,1.112,0.478,2.049,0.202,3.475c-0.543,0.579-1.411,0.795-1.351,1.331
				c-0.087,4.63,4.722,5.366,8.027,6.867c3.559,1.62,6.072,3.881,7.816,6.156c-1.971-0.162-2.568,2.152-4.301,2.815
				c-1.902,0.723-4.126,0.563-6.288,0.627c1.362,3.837,5.996,6.976,10.573,6.648c-2.355-10.574,13.461-3.431,15.331-10.537
				c-3.076-1.119-6.425-4.229-4.5-7.854c-1.337-1.061-3.038-2.142-3.63-3.888c2.958-2.896-0.183-4.243,0.166-6.235
				c0.341-1.962,2.929-2.261,2.298-4.533C104.497,80.036,100.182,80.692,97.149,80.426"/>
		</defs>
		<clipPath id="SVGID_56_">
			<use xlink:href="#SVGID_55_"  overflow="visible"/>
		</clipPath>
		
			<linearGradient id="SVGID_57_" gradientUnits="userSpaceOnUse" x1="-144.8379" y1="547.9336" x2="-142.0436" y2="547.9336" gradientTransform="matrix(66.9884 -54.6685 -54.6685 -66.9884 39692.1211 28933.498)">
			<stop  offset="0" style="stop-color:#F1A245"/>
			<stop  offset="0.4142" style="stop-color:#F3BD3E"/>
			<stop  offset="0.7472" style="stop-color:#F5D537"/>
			<stop  offset="1" style="stop-color:#F1B940"/>
		</linearGradient>
		<polygon clip-path="url(#SVGID_56_)" fill="url(#SVGID_57_)" points="65.231,92.231 100.334,63.584 129.172,98.922 94.068,127.57 
					"/>
	</g>
	<g>
		<defs>
			<path id="SVGID_58_" d="M98.896,83.879c-0.385,0-0.666,0.296-0.75,0.598c-0.09,0.341,0.082,0.678,0.677,0.576
				c-0.262-0.629,0.265-0.629,0.109-1.173C98.921,83.879,98.91,83.879,98.896,83.879"/>
		</defs>
		<clipPath id="SVGID_59_">
			<use xlink:href="#SVGID_58_"  overflow="visible"/>
		</clipPath>
		
			<linearGradient id="SVGID_60_" gradientUnits="userSpaceOnUse" x1="-144.8047" y1="548.0059" x2="-142.0904" y2="548.0059" gradientTransform="matrix(66.9802 -54.6618 -54.6618 -66.9801 39686.1328 28928.9863)">
			<stop  offset="0" style="stop-color:#F1A245"/>
			<stop  offset="0.4142" style="stop-color:#F3BD3E"/>
			<stop  offset="0.7472" style="stop-color:#F5D537"/>
			<stop  offset="1" style="stop-color:#F1B940"/>
		</linearGradient>
		<polygon clip-path="url(#SVGID_59_)" fill="url(#SVGID_60_)" points="97.431,84.389 98.675,83.374 99.712,84.644 98.468,85.661 		
			"/>
	</g>
	<g>
		<defs>
			<path id="SVGID_61_" d="M91.02,102.374c-0.055,0.565,0.423,0.722,0.677,1.007c0.882-0.178,2.546-1.642,1.954-2.628
				C93.37,101.336,92.24,102.173,91.02,102.374"/>
		</defs>
		<clipPath id="SVGID_62_">
			<use xlink:href="#SVGID_61_"  overflow="visible"/>
		</clipPath>
		
			<linearGradient id="SVGID_63_" gradientUnits="userSpaceOnUse" x1="-144.8218" y1="547.9434" x2="-142.0718" y2="547.9434" gradientTransform="matrix(66.9754 -54.6578 -54.6578 -66.9753 39686.1367 28930.1699)">
			<stop  offset="0" style="stop-color:#F1A245"/>
			<stop  offset="0.4142" style="stop-color:#F3BD3E"/>
			<stop  offset="0.7472" style="stop-color:#F5D537"/>
			<stop  offset="1" style="stop-color:#F1B940"/>
		</linearGradient>
		<polygon clip-path="url(#SVGID_62_)" fill="url(#SVGID_63_)" points="89.68,101.803 92.933,99.147 95.531,102.33 92.278,104.985 
					"/>
	</g>
	<g>
		<defs>
			<path id="SVGID_64_" d="M61.382,111.499c-0.57,3.024,1.924,3.507,1.897,5.632c-0.696,1.374-2.503,1.209-4.372,1.051
				c-1.66-0.146-3.371-0.288-4.394,0.643c-2.167,1.964-1.924,3.934,0.199,5.002c0.535,0.265,1.468,0.128,2.495-0.012
				c2.022-0.27,4.405-0.544,4.819,2.245c0.353,2.387-3.234,0.531-4.612,3.688c0.789,7.706,6.029,0.858,8.633,0.269
				c0.519-0.114,1.023,0.093,1.496,0.302c0.48,0.213,0.934,0.426,1.332,0.288c5.139-1.713,6.165,7.163,3.431,12.686
				c0.562,0.917,3.155,0.216,4.82,2.168c3.223,3.787,3.07,11.047,8.062,12.901c1.687-4.479,4.329,1.274,6.157,2.208
				c-0.581-4.233,1.613-8.184,1.763-11.959c0.106-2.774-0.775-5.41,0.849-7.903c-3.518-3.349-9.967-6.277-11.64-10.978
				c-0.999-2.784-0.065-4.782-4.351-7.58c2.762-3.138,2.14-9.586-3.419-9.072c-3.36,1.141-0.982,4.726-1.048,6.931
				c-1.056-0.008-0.767-2.168-3.758-2.102c-1.528-1.587-1.173-4.131-2.099-6.35c-0.699-1.648-2.191-2.597-3.553-2.597
				C62.843,108.96,61.71,109.747,61.382,111.499"/>
		</defs>
		<clipPath id="SVGID_65_">
			<use xlink:href="#SVGID_64_"  overflow="visible"/>
		</clipPath>
		
			<linearGradient id="SVGID_66_" gradientUnits="userSpaceOnUse" x1="-144.8359" y1="547.8516" x2="-142.0432" y2="547.8516" gradientTransform="matrix(66.9875 -54.6677 -54.6677 -66.9875 39696.5938 28939.332)">
			<stop  offset="0" style="stop-color:#F1A245"/>
			<stop  offset="0.4142" style="stop-color:#F3BD3E"/>
			<stop  offset="0.7472" style="stop-color:#F5D537"/>
			<stop  offset="1" style="stop-color:#F1B940"/>
		</linearGradient>
		<polygon clip-path="url(#SVGID_65_)" fill="url(#SVGID_66_)" points="27.065,129.592 77.321,88.579 119.237,139.939 
			68.981,180.954 		"/>
	</g>
	<g>
		<defs>
			<path id="SVGID_67_" d="M87.572,103.581c0.857,0.206,1.613,0.07,2.222-0.2c-0.371-1.443-1.948-3.032-2.898-3.439
				C86.835,101.024,86.677,103.002,87.572,103.581"/>
		</defs>
		<clipPath id="SVGID_68_">
			<use xlink:href="#SVGID_67_"  overflow="visible"/>
		</clipPath>
		
			<linearGradient id="SVGID_69_" gradientUnits="userSpaceOnUse" x1="-144.8467" y1="547.957" x2="-142.0418" y2="547.957" gradientTransform="matrix(66.988 -54.6681 -54.6681 -66.988 39692.8516 28933.9648)">
			<stop  offset="0" style="stop-color:#F1A245"/>
			<stop  offset="0.4142" style="stop-color:#F3BD3E"/>
			<stop  offset="0.7472" style="stop-color:#F5D537"/>
			<stop  offset="1" style="stop-color:#F1B940"/>
		</linearGradient>
		<polygon clip-path="url(#SVGID_68_)" fill="url(#SVGID_69_)" points="84.792,101.479 88.547,98.415 91.677,102.25 87.922,105.315 
					"/>
	</g>
	<g>
		<defs>
			<path id="SVGID_70_" d="M79.835,84.516c1.471,0.651,0.145,2.078,1.288,2.14c1.258-0.502,0.26-1.721-0.109-2.552
				c-0.169-0.013-0.336-0.03-0.486-0.03C80.163,84.074,79.873,84.161,79.835,84.516"/>
		</defs>
		<clipPath id="SVGID_71_">
			<use xlink:href="#SVGID_70_"  overflow="visible"/>
		</clipPath>
		
			<linearGradient id="SVGID_72_" gradientUnits="userSpaceOnUse" x1="-144.8257" y1="548.0781" x2="-142.0838" y2="548.0781" gradientTransform="matrix(66.993 -54.6722 -54.6722 -66.993 39691.6055 28930.9688)">
			<stop  offset="0" style="stop-color:#F1A245"/>
			<stop  offset="0.4142" style="stop-color:#F3BD3E"/>
			<stop  offset="0.7472" style="stop-color:#F5D537"/>
			<stop  offset="1" style="stop-color:#F1B940"/>
		</linearGradient>
		<polygon clip-path="url(#SVGID_71_)" fill="url(#SVGID_72_)" points="78.569,85.105 81.363,82.827 83.645,85.624 80.853,87.903 		
			"/>
	</g>
	<g>
		<defs>
			<path id="SVGID_73_" d="M73.751,112.139c0.969-0.106,1.67-0.354,2.937,0c-0.734-1.029-1.523-2.56-3.265-3.01
				C73.981,110.208,73.967,110.939,73.751,112.139"/>
		</defs>
		<clipPath id="SVGID_74_">
			<use xlink:href="#SVGID_73_"  overflow="visible"/>
		</clipPath>
		
			<linearGradient id="SVGID_75_" gradientUnits="userSpaceOnUse" x1="-144.8291" y1="547.9648" x2="-142.0659" y2="547.9648" gradientTransform="matrix(67.0311 -54.7033 -54.7033 -67.0311 39717.4453 28952.2734)">
			<stop  offset="0" style="stop-color:#F1A245"/>
			<stop  offset="0.4142" style="stop-color:#F3BD3E"/>
			<stop  offset="0.7472" style="stop-color:#F5D537"/>
			<stop  offset="1" style="stop-color:#F1B940"/>
		</linearGradient>
		<polygon clip-path="url(#SVGID_74_)" fill="url(#SVGID_75_)" points="71.947,110.332 75.384,107.529 78.162,110.935 
			74.729,113.738 		"/>
	</g>
	<g>
		<defs>
			<path id="SVGID_76_" d="M69.846,206.424c1.321,1.271,3.376,0.835,4.654,0.739c-0.448-0.641-1.04-1.064-0.74-2.109
				C72.818,205.525,71.854,206.522,69.846,206.424"/>
		</defs>
		<clipPath id="SVGID_77_">
			<use xlink:href="#SVGID_76_"  overflow="visible"/>
		</clipPath>
		
			<linearGradient id="SVGID_78_" gradientUnits="userSpaceOnUse" x1="-144.8345" y1="547.4258" x2="-142.0567" y2="547.4258" gradientTransform="matrix(66.9971 -54.6756 -54.6756 -66.9971 39713.6406 28957.4824)">
			<stop  offset="0" style="stop-color:#F1A245"/>
			<stop  offset="0.4142" style="stop-color:#F3BD3E"/>
			<stop  offset="0.7472" style="stop-color:#F5D537"/>
			<stop  offset="1" style="stop-color:#F1B940"/>
		</linearGradient>
		<polygon clip-path="url(#SVGID_77_)" fill="url(#SVGID_78_)" points="68.552,206.109 72.638,202.774 75.793,206.64 
			71.708,209.975 		"/>
	</g>
	<g>
		<defs>
			<path id="SVGID_79_" d="M59.641,105.302c1.397,1.264,0.849,3.125,1.026,4.05c0.328-1.571,2.172-2.071,3.63-1.607
				c-0.731-0.633-1.599-2.443-4.574-2.443C59.696,105.302,59.671,105.302,59.641,105.302"/>
		</defs>
		<clipPath id="SVGID_80_">
			<use xlink:href="#SVGID_79_"  overflow="visible"/>
		</clipPath>
		
			<linearGradient id="SVGID_81_" gradientUnits="userSpaceOnUse" x1="-144.8413" y1="548.0449" x2="-142.0336" y2="548.0449" gradientTransform="matrix(66.9289 -54.6199 -54.6199 -66.9289 39654.8242 28904.9297)">
			<stop  offset="0" style="stop-color:#F1A245"/>
			<stop  offset="0.4142" style="stop-color:#F3BD3E"/>
			<stop  offset="0.7472" style="stop-color:#F5D537"/>
			<stop  offset="1" style="stop-color:#F1B940"/>
		</linearGradient>
		<polygon clip-path="url(#SVGID_80_)" fill="url(#SVGID_81_)" points="57.66,106.922 62.436,103.021 66.282,107.734 
			61.502,111.634 		"/>
	</g>
	<g>
		<defs>
			<path id="SVGID_82_" d="M59.03,202.172c1.676,0.835,3.772,1.758,5.53,1.457c-0.846-0.683-2.009-1.288-1.81-2.926
				C61.582,201.527,60.408,202.172,59.03,202.172"/>
		</defs>
		<clipPath id="SVGID_83_">
			<use xlink:href="#SVGID_82_"  overflow="visible"/>
		</clipPath>
		
			<linearGradient id="SVGID_84_" gradientUnits="userSpaceOnUse" x1="-144.6099" y1="547.7676" x2="-141.7797" y2="547.7676" gradientTransform="matrix(67.0037 -54.681 -54.681 -67.0037 39714.9922 28988.0332)">
			<stop  offset="0" style="stop-color:#F1A245"/>
			<stop  offset="0.4142" style="stop-color:#F3BD3E"/>
			<stop  offset="0.7472" style="stop-color:#F5D537"/>
			<stop  offset="1" style="stop-color:#F1B940"/>
		</linearGradient>
		<polygon clip-path="url(#SVGID_83_)" fill="url(#SVGID_84_)" points="57.45,201.994 62.349,197.996 66.137,202.641 
			61.241,206.637 		"/>
	</g>
	<g>
		<defs>
			<path id="SVGID_85_" d="M57.207,182.537c1.236-0.704,3.149-0.884,4.841-0.496c-0.218-0.975,0.011-1.521,0.317-2.479v-0.003
				C60.422,179.95,57.837,180.73,57.207,182.537"/>
		</defs>
		<clipPath id="SVGID_86_">
			<use xlink:href="#SVGID_85_"  overflow="visible"/>
		</clipPath>
		
			<linearGradient id="SVGID_87_" gradientUnits="userSpaceOnUse" x1="-144.8296" y1="547.6299" x2="-142.0496" y2="547.6299" gradientTransform="matrix(66.9962 -54.6749 -54.6749 -66.9962 39706.6406 28949.8008)">
			<stop  offset="0" style="stop-color:#F1A245"/>
			<stop  offset="0.4142" style="stop-color:#F3BD3E"/>
			<stop  offset="0.7472" style="stop-color:#F5D537"/>
			<stop  offset="1" style="stop-color:#F1B940"/>
		</linearGradient>
		<polygon clip-path="url(#SVGID_86_)" fill="url(#SVGID_87_)" points="55.75,180.75 60.302,177.035 63.822,181.348 59.27,185.062 
					"/>
	</g>
	<g>
		<defs>
			<path id="SVGID_88_" d="M52.733,131.031c0.661,0.922,1.714,2.698,4.553,2.631c-0.822-0.33-1.458-1.778-1.19-2.767
				C55.239,131.484,53.992,131.624,52.733,131.031"/>
		</defs>
		<clipPath id="SVGID_89_">
			<use xlink:href="#SVGID_88_"  overflow="visible"/>
		</clipPath>
		
			<linearGradient id="SVGID_90_" gradientUnits="userSpaceOnUse" x1="-144.8359" y1="547.9307" x2="-142.0359" y2="547.9307" gradientTransform="matrix(67.0231 -54.6968 -54.6968 -67.0231 39713.6289 28949.4688)">
			<stop  offset="0" style="stop-color:#F1A245"/>
			<stop  offset="0.4142" style="stop-color:#F3BD3E"/>
			<stop  offset="0.7472" style="stop-color:#F5D537"/>
			<stop  offset="1" style="stop-color:#F1B940"/>
		</linearGradient>
		<polygon clip-path="url(#SVGID_89_)" fill="url(#SVGID_90_)" points="51.344,132.027 55.465,128.665 58.675,132.596 
			54.554,135.958 		"/>
	</g>
	<g>
		<defs>
			<path id="SVGID_91_" d="M53.298,193.673c1.425-1.185,2.732-1.168,4.271-0.993c-0.671-0.906-1.417-1.621-0.835-2.839
				C55.657,191.015,54.038,191.506,53.298,193.673"/>
		</defs>
		<clipPath id="SVGID_92_">
			<use xlink:href="#SVGID_91_"  overflow="visible"/>
		</clipPath>
		
			<linearGradient id="SVGID_93_" gradientUnits="userSpaceOnUse" x1="-144.8286" y1="547.5977" x2="-141.9953" y2="547.5977" gradientTransform="matrix(66.9838 -54.6647 -54.6647 -66.9838 39701.2656 28946.418)">
			<stop  offset="0" style="stop-color:#F1A245"/>
			<stop  offset="0.4142" style="stop-color:#F3BD3E"/>
			<stop  offset="0.7472" style="stop-color:#F5D537"/>
			<stop  offset="1" style="stop-color:#F1B940"/>
		</linearGradient>
		<polygon clip-path="url(#SVGID_92_)" fill="url(#SVGID_93_)" points="51.421,191.375 55.861,187.75 59.445,192.142 
			55.004,195.764 		"/>
	</g>
	<g>
		<defs>
			<path id="SVGID_94_" d="M48.901,116.336c0.134,1.714,0.664,3.298,2.637,4.48c0-1.112,0.532-2.037,1.578-2.702
				C51.312,118,49.854,117.307,48.901,116.336z"/>
		</defs>
		<clipPath id="SVGID_95_">
			<use xlink:href="#SVGID_94_"  overflow="visible"/>
		</clipPath>
		
			<linearGradient id="SVGID_96_" gradientUnits="userSpaceOnUse" x1="-144.8379" y1="548.0352" x2="-142.0687" y2="548.0352" gradientTransform="matrix(66.9705 -54.6538 -54.6538 -66.9705 39679.9766 28923.6016)">
			<stop  offset="0" style="stop-color:#F1A245"/>
			<stop  offset="0.4142" style="stop-color:#F3BD3E"/>
			<stop  offset="0.7472" style="stop-color:#F5D537"/>
			<stop  offset="1" style="stop-color:#F1B940"/>
		</linearGradient>
		<polygon clip-path="url(#SVGID_95_)" fill="url(#SVGID_96_)" points="46.707,118.127 51.432,114.271 55.31,119.026 
			50.585,122.881 		"/>
	</g>
</g>
<g>
	<g>
		<defs>
			<path id="SVGID_97_" d="M163.947,2.094c-0.027-0.005-0.057-0.015-0.084-0.02c0,0-0.002,0.015-0.008,0.047
				C58.909,29.96,1.949,111.389,1.949,111.389s19.515,101.594,71.144,176.878c-0.039-0.106,10.256,2.669,27.418,5.447
				c33.668,5.442,93.784,10.893,154.292-5.447c51.633-75.284,71.146-176.878,71.146-176.878S268.99,29.96,164.04,2.121
				c-0.002-0.033-0.002-0.047-0.005-0.047C164.002,2.079,163.978,2.088,163.947,2.094"/>
		</defs>
		<clipPath id="SVGID_98_">
			<use xlink:href="#SVGID_97_"  overflow="visible"/>
		</clipPath>
		
			<linearGradient id="SVGID_99_" gradientUnits="userSpaceOnUse" x1="-144.3086" y1="547.375" x2="-141.5137" y2="547.375" gradientTransform="matrix(88.9335 -67.3742 -67.3742 -88.9335 49755.4961 39202.6953)">
			<stop  offset="0" style="stop-color:#F1A245"/>
			<stop  offset="0.4142" style="stop-color:#F3BD3E"/>
			<stop  offset="0.7472" style="stop-color:#F5D537"/>
			<stop  offset="1" style="stop-color:#F1B940"/>
		</linearGradient>
		<polygon clip-path="url(#SVGID_98_)" fill="url(#SVGID_99_)" points="-143.67,112.392 207.803,-153.878 471.569,194.29 
			120.094,460.56 		"/>
	</g>
	<g>
		<defs>
			<path id="SVGID_100_" d="M163.947,11.973c-0.027-0.008-0.052-0.014-0.074-0.019c-0.008,0-0.008,0.016-0.013,0.04
				C65.896,37.981,12.725,113.999,12.725,113.999s18.212,94.829,66.406,165.116c-0.033-0.101,9.58,2.492,25.606,5.082
				c31.433,5.084,87.548,10.169,144.027-5.082c48.198-70.287,66.413-165.116,66.413-165.116S262.006,37.981,164.038,11.993
				c-0.005-0.023-0.005-0.04-0.014-0.04C164.002,11.959,163.975,11.964,163.947,11.973"/>
		</defs>
		<clipPath id="SVGID_101_">
			<use xlink:href="#SVGID_100_"  overflow="visible"/>
		</clipPath>
		
			<linearGradient id="SVGID_102_" gradientUnits="userSpaceOnUse" x1="-143.606" y1="546.0059" x2="-140.811" y2="546.0059" gradientTransform="matrix(108.2207 0 0 -108.2207 15553.8594 59242.2578)">
			<stop  offset="0" style="stop-color:#1A1919"/>
			<stop  offset="0.0652" style="stop-color:#232222"/>
			<stop  offset="0.4551" style="stop-color:#575858"/>
			<stop  offset="0.8815" style="stop-color:#292A29"/>
			<stop  offset="1" style="stop-color:#1C1C1B"/>
		</linearGradient>
		<rect x="12.725" y="11.954" clip-path="url(#SVGID_101_)" fill="url(#SVGID_102_)" width="302.45" height="282.416"/>
	</g>
	<g>
		<defs>
			<path id="SVGID_103_" d="M163.947,19.602c-0.027-0.005-0.052-0.008-0.071-0.016c-0.003,0-0.003,0.014-0.011,0.042
				c-92.574,24.555-142.82,96.385-142.82,96.385S38.257,205.625,83.8,272.038c-0.03-0.093,9.053,2.358,24.195,4.804
				c29.702,4.804,82.733,9.607,136.099-4.804c45.54-66.413,62.751-156.025,62.751-156.025s-50.237-71.83-142.812-96.385
				c-0.008-0.028-0.008-0.042-0.014-0.042C163.994,19.594,163.969,19.597,163.947,19.602"/>
		</defs>
		<clipPath id="SVGID_104_">
			<use xlink:href="#SVGID_103_"  overflow="visible"/>
		</clipPath>
		
			<linearGradient id="SVGID_105_" gradientUnits="userSpaceOnUse" x1="-144.3135" y1="547.375" x2="-141.519" y2="547.375" gradientTransform="matrix(88.9333 -67.374 -67.374 -88.9333 49755.5078 39201.8945)">
			<stop  offset="0" style="stop-color:#F1A245"/>
			<stop  offset="0.4142" style="stop-color:#F3BD3E"/>
			<stop  offset="0.7472" style="stop-color:#F5D537"/>
			<stop  offset="1" style="stop-color:#F1B940"/>
		</linearGradient>
		<polygon clip-path="url(#SVGID_104_)" fill="url(#SVGID_105_)" points="-107.404,116.896 202.628,-117.979 435.295,189.14 
			125.26,424.015 		"/>
	</g>
	<g>
		<defs>
			<path id="SVGID_106_" d="M163.947,23.669c-0.027-0.003-0.041-0.011-0.068-0.017c-0.003,0-0.006,0.014-0.008,0.042
				C74.168,47.488,25.479,117.09,25.479,117.09s16.684,86.826,60.811,151.177c-0.03-0.088,8.764,2.284,23.434,4.653
				c28.777,4.656,80.165,9.314,131.885-4.653c44.129-64.351,60.808-151.177,60.808-151.177s-48.69-69.602-138.391-93.395
				c0-0.029-0.003-0.042-0.005-0.042C163.994,23.658,163.969,23.666,163.947,23.669"/>
		</defs>
		<clipPath id="SVGID_107_">
			<use xlink:href="#SVGID_106_"  overflow="visible"/>
		</clipPath>
		
			<linearGradient id="SVGID_108_" gradientUnits="userSpaceOnUse" x1="-139.6567" y1="545.8789" x2="-136.862" y2="545.8789" gradientTransform="matrix(0 85.0834 85.0834 0 -46281.3125 11921.7891)">
			<stop  offset="0" style="stop-color:#00A551"/>
			<stop  offset="1" style="stop-color:#006838"/>
		</linearGradient>
		<rect x="25.479" y="23.654" clip-path="url(#SVGID_107_)" fill="url(#SVGID_108_)" width="276.937" height="258.581"/>
	</g>
	<g>
		<defs>
			<path id="SVGID_109_" d="M177.467,98.034c-2.442,2.328-4.209,4.078-6.498,6.389c-1.338,1.356-0.972,4.469-3.955,3.656
				c-1.912-0.525-1.778-3.026-0.375-5.248c1.745-2.765,4.169-6.613,1.292-8.365c-2.051-1.246-4.035,0.542-4.035,0.542
				s4.104,0.015,3.146,4.274c-0.664,2.957-2.34,2.584-3.44,4.459c-1.763,2.986-1.021,24.883-1.875,28.659
				c-1.782,7.808-7.74,7.83-13.534,11.408c-0.83,1.987,0.022,3.784,0.464,5.312c-1.52-1.417-3.469-2.987-2.358-6.123
				c-0.811-2.611-3.319-2.138-5.42-2.429c-4.779-0.646-9.214-4.323-8.927-9.806c-1.4,1.8-3.644,3.379-6.689,4.024
				c-5.57,1.179-12.877-0.811-15.726-3.622c3.054,0.312,4.7-0.904,6.125-2.36c-3.019,0.539-5.074,0.277-6.725-0.315
				c1.441-0.429,3.294-2.922,1.403-4.034c-1.659,1.021-4.017,3.709-7.866,3.131c-1.067,1.35-2.353,2.082-2.375,4.575
				c1.965-0.202,3.693-2.007,4.462-2.674c-0.035,2.333-2.156,2.699-3.3,3.694c-4.252,3.675-8.955,11.699-4.915,17.585
				c0.835-3.123,3.938-5.097,7.2-4.718c-3.641,1.389-6.553,3.578-6.436,9.09c-1.114-0.991-1.509-2.62-2.486-3.729
				c-3.564,10.075-0.579,18.375,6.132,23.402c-0.663-4.72,1.155-8.815,5.238-9.149c-5.661,4.525-1.76,8.152,0.772,9.189
				c1.146-0.011,0.488-1.449,2.008-1.594c-2.147,3.008,0.582,2.732-0.464,5.041c1.004,0.202,2.443-1.602,4.263-1.746
				c-1.722-0.115-2.396-1.736-3.07-2.801c1.67,0.202,2.584-0.011,3.395-0.229c0.882-0.235,1.632-0.47,3.095-0.17
				c-0.838-2.184-2.855-2.197-2.424-4.926c5.106,2.196,10.824,1.059,15.652,0.014c-3.374,1.766-7.92,2.707-12.857,2.041
				c0.382,2.571,3.46,2.576,4.599,4.46c-4.29-0.663-5.922-0.508-7.162-0.35c-0.827,0.104-1.482,0.207-2.625,0.065
				c0.835,1.125,3.335,0.885,3.461,2.009c-1.782,1.253-4.55,1.845-5.235,3.603c-2.342-0.055-4.462-0.199-6.247-0.055
				c-6.108,0.514-12.096,4.105-17.844,3.777c-0.437-0.682-0.884-1.468-1.757-2.153c-0.887-0.688-7.08-1.405-8.712-3.624
				c-1.22-1.662-11.31-3.186-11.105,2.786c0.582,2.549,6.602,2.71,9.181,2.129c-1.345,2.765-5.488,3.799-8.895,3.319
				c-0.158-0.167-5.96,0.136-6.056,2.483c-0.055,1.468,2.686,3.417,4.643,3.586c1.312,0.114,2.841-0.89,4.148-1.005
				c2.309-0.196,3.963,0.476,4.814,1.531c-1.283,0.276-2.353,2.189-4.107,3.808c-1.725,0.033-3.161,0.66-3.464,1.992
				c-0.756,3.347,3.977,5.153,4.768,3.881c1.324-2.104,3.827-4.743,7.459-2.827c0.259,2.429-2.036,3.777-0.843,5.718
				c3.147,0.145,5.582-1.46,6.689-4.062c0.278-0.622,0.3-1.643,0.429-2.076c1.894-5.978,11.455,0.316,15.729,1.585
				c-1.28-1.121-2.219-2.473-1.717-3.613c5.366,0.292,14.484,5.319,18.251,2.345c-3.109-1.233-5.631-4.492-6.679-6.829
				c6.94,1.747,14.691,3.718,22.074,1.753c-0.45-1.122-2.476-0.731-3.597-2.713c-1.122-1.977-0.532-5.014,2.044-5.307
				c-0.145,0.934-0.3,0.85,0.172,1.455c2.462,1.019,4.55-1.785,6.362-2.109c1.258-0.221,3.095,0.482,4.787,0.701
				c3.974,0.538,8.07,0.707,12.003,0.565c3.799-0.137,6.894-2.599,10.491-2.872c4.685-0.376,7.18,0.107,10.825,2.433
				c3.663,2.314,2.192,11.907-7.556,20.742c3.585,1.078,1.967,3.092,1.396,8.878c-0.419,4.192,5.971,7.588,10.073,7.871
				c8.093,0.555,15.363-3.859,20.497-5.78c0.805,0.56,2.89,10.68-1.569,14.839c-0.849,0.789-3.554,4.354,0.229,2.967
				c-1.845,3.28-8.764,2.377-12.628,2.964c-2.732,0.415-4.427,2.238-6.195,3.57c-4.271-0.731-13.042,4.071-8.365,9.001
				c1.679,1.758,2.541,0.818,4.732-0.475c2.184-1.294,3.777-3.134,5.486-1.709c-2.539,1.201-3.139,2.112-2.375,4.471
				c-2.816,0.344-5.117,2.017-4.792,4.588c0.502,3.916,6.386,3.25,8.318,0.789c1.927-2.457,0.923-4.787,2.284-6.07
				c1.752-0.552,3.895,0.391,4.495,1.654c-3.482,2.123-3.062,9.14,0.497,9.891c2.295,0.344,4.688-0.56,5.368-2.926
				c0.516-1.823-1.46-4.945-0.537-7.123c0.925-2.184,2.8-1.526,4.2-2.768c1.189-1.06,1.65-2.898,3.288-3.456
				c-0.982,1.922,0.663,4.787-0.347,6.103c-1.015,1.327-3.308,2.255-3.572,4.267c0.102,1.711,3.27,4.088,6.226,3.356
				c2.727-1.714,4.296-7.429,3.16-12.268c1.94-1.562,3.224-3.319,4.402-5.322c0.437-0.75,2.124-3.095,2.173-4.716
				c0.065-2.053-1.668-3.753-2.361-6.075c-0.674-2.238-0.122-5.02,1.06-6.61c1.187-1.595,3.487-1.771,6.095-1.523
				c-2.135-2.173-3.172-7.527,0.245-12.03c1.848-2.418,1.872-2.923,2.15-4.053c-2.584,1.11-7.229,0.761-7.222-1.788
				c0.012-3.472,4.662-3.253,5.521-6.144c-1.899,0.391-4.31,0.464-7.063-0.844c3.78-0.611,7.184-3.618,5.862-8.166
				c-3.67,3.505-9.069-0.703-7.724-4.699c2.033-5.999,7.269-8.554,6.384-14.604c2.238,6.313,5.102,12.383,15.996,16.504
				c0.115,0.027,0.339-0.044,0.573-0.114c0.278-0.088,0.57-0.175,0.721-0.099c1.057,1.072,3.598,3.101,5.71,3.297
				c3.021,0.312,6.46-1.73,9.74-2.424c6.247-1.343,10.227-2.491,10.363-7.636c0.357-0.027,0.759,0.029,1.171,0.087
				c0.846,0.114,1.749,0.229,2.462-0.382c1.916-1.638,4.967-6.201,6.44-8.903c2.768-5.09,4.457-9.506,2.95-14.819
				c4.013-1.455,3.923-11.084,0.047-18.282c-1.49-1.25-2.112-0.237-3.689-2.205c-0.058-3.482-0.645-5.375-2.08-7.504
				c-2.176-3.28-6.676-7.535-9.935-7.89c-0.333-0.035-0.753,0.074-1.209,0.183c-0.467,0.105-0.969,0.217-1.452,0.172
				c-2.56-0.214-3.662-2.881-6.536-3.336c-0.819-0.134-2.817-0.307-3.89-0.277c-3.952,0.127-10.093-0.016-13.774,1.034
				c-2.5,0.725-5.649,2.742-7.173,4.008c-2.868,2.387-4.126,6.512-4.686,10.568c-0.104,0.997,2.841,2.224,2.841,2.224
				s-0.742,2.006,2.672,5.449c5.778,5.813,11.433,2.901,12.309,1.912c-5.761,1.408-9.071-2.993-7.721-7.144
				c2.036,0.048,13.333,0.048,21.603-9.198c0.321-0.379,0.723-0.475,0.969-0.189c0.701,1.333,0.56,3.147,1.49,4.491
				c1.185,1.703,1.907,3.309,3.311,4.319c1.402,1.014,6.948,2.702,7.555,4.116c0.564,1.356-0.85,1.816-1.569,4.045
				c-0.876,2.651-0.57,3.633,0.095,6.059c1.431,5.223,3.357,3.168,6.016,6.97c-11.892,4.353-11.787,18.341-11.717,19.565
				c-0.68-0.076-0.827-1.271-1.73-1.141c-4.511,0.224-8.171,0.47-10.611,2.135c-2.216,1.515-3.098,5.952-6.989,4.732
				c-0.199-1.294,0.532-2.31,0.027-5.061c-4.694-5.826-9.477-11.375-20.15-11.062c-1.463,0.161-1.58,1.067-1.58,1.067
				s-1.274-2.109-3.77-5.052c-3.987-4.697-10.987-10.71-17.748-12.499c-4.522-1.188-9.886-1.014-15.027-0.842
				c-7.473,0.252-14.483,0.503-17.766-3.425c1.447-4.136,9.947-3.066,10.602-6.861c0.652-3.795-2.882-14.069-3.643-18.008
				c-1.348-6.966,2.218-7.531,2.742-7.615c0.439,0.721,9.358,19.793,38.356,20.444c-19.647-0.442-35.052-13.681-35.114-21.52
				c19.661-9.443,39.962-8.39,50.865-6.71c-26.103-6.728-44.533,3.038-51.283,4.102c22.552-39.661,76.75-34.314,76.75-34.314
				s-5.655-1.408-14.46-1.408C219.956,75.235,197.56,78.896,177.467,98.034"/>
		</defs>
		<clipPath id="SVGID_110_">
			<use xlink:href="#SVGID_109_"  overflow="visible"/>
		</clipPath>
		
			<linearGradient id="SVGID_111_" gradientUnits="userSpaceOnUse" x1="-144.8247" y1="547.2539" x2="-142.0298" y2="547.2539" gradientTransform="matrix(66.9884 -54.6685 -54.6685 -66.9884 39717.9141 28965.998)">
			<stop  offset="0" style="stop-color:#F1A245"/>
			<stop  offset="0.4142" style="stop-color:#F3BD3E"/>
			<stop  offset="0.7472" style="stop-color:#F5D537"/>
			<stop  offset="1" style="stop-color:#F1B940"/>
		</linearGradient>
		<polygon clip-path="url(#SVGID_110_)" fill="url(#SVGID_111_)" points="-37.172,148.894 188.352,-35.153 370.309,187.808 
			144.785,371.858 		"/>
	</g>
	<g>
		<defs>
			<path id="SVGID_112_" d="M174.727,108.829c12.585-4.354,30.655-8.203,46.081-3.925c-1.654-2.222-3.362-21.53,23.204-26.994
				c-0.999-0.173-2.678-0.293-4.877-0.293C225.24,77.617,190.537,82.431,174.727,108.829"/>
		</defs>
		<clipPath id="SVGID_113_">
			<use xlink:href="#SVGID_112_"  overflow="visible"/>
		</clipPath>
		
			<linearGradient id="SVGID_114_" gradientUnits="userSpaceOnUse" x1="-144.835" y1="547.4375" x2="-142.0391" y2="547.4375" gradientTransform="matrix(66.9883 -54.6684 -54.6684 -66.9883 39708.8164 28953.5391)">
			<stop  offset="0" style="stop-color:#F1A245"/>
			<stop  offset="0.4142" style="stop-color:#F3BD3E"/>
			<stop  offset="0.7472" style="stop-color:#F5D537"/>
			<stop  offset="1" style="stop-color:#F1B940"/>
		</linearGradient>
		<polygon clip-path="url(#SVGID_113_)" fill="url(#SVGID_114_)" points="159.438,90.094 216.315,43.677 259.301,96.352 
			202.426,142.767 		"/>
	</g>
	<g>
		<defs>
			<path id="SVGID_115_" d="M174.001,114.717c1.452,7.18,13.861,16.833,33.22,18.641c-2.038-1.886-3.714-6.344-2.955-10.684
				c1.332-7.72,8.916-12.642,15.677-14.707c-3.622-0.525-7.369-0.773-11.141-0.773C196.141,107.194,183.218,110.01,174.001,114.717"
				/>
		</defs>
		<clipPath id="SVGID_116_">
			<use xlink:href="#SVGID_115_"  overflow="visible"/>
		</clipPath>
		
			<linearGradient id="SVGID_117_" gradientUnits="userSpaceOnUse" x1="-144.8281" y1="547.3408" x2="-142.034" y2="547.3408" gradientTransform="matrix(66.9865 -54.6669 -54.6669 -66.9865 39710.2031 28956.8184)">
			<stop  offset="0" style="stop-color:#F1A245"/>
			<stop  offset="0.4142" style="stop-color:#F3BD3E"/>
			<stop  offset="0.7472" style="stop-color:#F5D537"/>
			<stop  offset="1" style="stop-color:#F1B940"/>
		</linearGradient>
		<polygon clip-path="url(#SVGID_116_)" fill="url(#SVGID_117_)" points="161.186,117.652 201.577,84.689 232.759,122.898 
			192.366,155.861 		"/>
	</g>
	<g>
		<defs>
			<path id="SVGID_118_" d="M195.108,266.396c1.346,0.03,3.873-0.893,4.525-2.076c-1.037,0.278-2.175-0.333-2.762-0.827
				C196.585,264.672,195.969,265.379,195.108,266.396"/>
		</defs>
		<clipPath id="SVGID_119_">
			<use xlink:href="#SVGID_118_"  overflow="visible"/>
		</clipPath>
		
			<linearGradient id="SVGID_120_" gradientUnits="userSpaceOnUse" x1="-144.8228" y1="546.5059" x2="-142.0619" y2="546.5059" gradientTransform="matrix(66.9887 -54.6687 -54.6687 -66.9887 39737.2656 28988.6465)">
			<stop  offset="0" style="stop-color:#F1A245"/>
			<stop  offset="0.4142" style="stop-color:#F3BD3E"/>
			<stop  offset="0.7472" style="stop-color:#F5D537"/>
			<stop  offset="1" style="stop-color:#F1B940"/>
		</linearGradient>
		<polygon clip-path="url(#SVGID_119_)" fill="url(#SVGID_120_)" points="193.673,264.664 197.824,261.276 201.069,265.253 
			196.918,268.643 		"/>
	</g>
	<g>
		<defs>
			<path id="SVGID_121_" d="M169.483,128.271c0.562,3.125,1.452,5.841,1.884,7.932c0.248,1.247,0.327,4.152,0.104,5.075
				c-1.029,4.125-8.257,2.733-9.379,5.664c3.513,3.402,8.978,1.946,15.059,1.63c6.094-0.318,7.243-0.243,9.473,0.06
				c-2.727-5.146-0.28-8.125,1.635-9.357c3.137-2.016,13.715-3.15,14.539-3.394c-4.514-0.44-10.59-1.763-14.072-2.83
				c-10.849-3.326-16.255-9.379-19.888-16.073C165.855,119.077,168.766,124.314,169.483,128.271"/>
		</defs>
		<clipPath id="SVGID_122_">
			<use xlink:href="#SVGID_121_"  overflow="visible"/>
		</clipPath>
		
			<linearGradient id="SVGID_123_" gradientUnits="userSpaceOnUse" x1="-144.8262" y1="547.3164" x2="-142.0302" y2="547.3164" gradientTransform="matrix(66.9889 -54.6689 -54.6689 -66.9889 39711.0977 28957.1934)">
			<stop  offset="0" style="stop-color:#F1A245"/>
			<stop  offset="0.4142" style="stop-color:#F3BD3E"/>
			<stop  offset="0.7472" style="stop-color:#F5D537"/>
			<stop  offset="1" style="stop-color:#F1B940"/>
		</linearGradient>
		<polygon clip-path="url(#SVGID_122_)" fill="url(#SVGID_123_)" points="145.746,130.316 186.525,97.037 219.143,137.005 
			178.365,170.286 		"/>
	</g>
	<g>
		<defs>
			<path id="SVGID_124_" d="M182.041,268.305c3.695,1.247,6.422-0.082,8.117-1.977c-2.045,0.798-3.521,0.104-4.481-0.4
				C185.254,266.787,183.392,267.972,182.041,268.305"/>
		</defs>
		<clipPath id="SVGID_125_">
			<use xlink:href="#SVGID_124_"  overflow="visible"/>
		</clipPath>
		
			<linearGradient id="SVGID_126_" gradientUnits="userSpaceOnUse" x1="-144.8301" y1="546.5449" x2="-142.0106" y2="546.5449" gradientTransform="matrix(66.9844 -54.6652 -54.6652 -66.9844 39733.5234 28985.8242)">
			<stop  offset="0" style="stop-color:#F1A245"/>
			<stop  offset="0.4142" style="stop-color:#F3BD3E"/>
			<stop  offset="0.7472" style="stop-color:#F5D537"/>
			<stop  offset="1" style="stop-color:#F1B940"/>
		</linearGradient>
		<polygon clip-path="url(#SVGID_125_)" fill="url(#SVGID_126_)" points="180.267,267.377 186.913,261.951 191.932,268.103 
			185.286,273.528 		"/>
	</g>
	<g>
		<defs>
			<path id="SVGID_127_" d="M160.732,186.735c0.42,0.704,0.584,1.627,0.62,2.187c-3.679,6.331-13.136,10.504-20.478,11.129
				c1.941,0.322,2.634,2.293,4.902,2.599c-2.028,0.792-3.477,2.232-4.751,3.87c-1.253,3.292,1.722,6.192,1.979,9.236
				c0.426,5.049-2.109,9.934-6.484,10.049c1.149-0.549,1.542-0.993,1.776-2.08c-2.939-0.011-3.873-1.842-5.136-3.379
				c-2.596,0.672-4.446-0.458-5.846-1.583c-1.192-0.963-2.058-1.927-2.773-1.771c-2.708,0.605-3.299,3.139-1.75,5.021
				c0.259,0.631,4.632,0.401,5.404,1.471c-1.842,0.47-1.245,1.638-1.305,2.113c-0.931,0.057-1.981,0.008-3.054-0.044
				c-3.425-0.164-7.052-0.328-7.549,3.073c-0.311,2.172,1.895,5.046,4.954,4.645c1.198-0.158,2.014-1.681,3.692-1.746
				c2.388-0.096,3.824,1.195,6.417,1.735c-1.793,2.08-6.81,1.878-7.634,3.739c-1.973,4.416,1.103,5.622,4.984,5.549
				c1.531-0.038,6.072-3.379,6.201-5.885c4.806,1.81,6.572-3.305,9.018-4.492c-1.346,2.074-0.058,3.385-0.764,5.979
				c-0.663,2.476-3.758,2.778-4.299,4.373c-1.252,3.752,2.939,6.026,6.051,3.99c1.428-0.923,0.671-2.948,1.116-3.336
				c1.974-1.81,3.922-2.254,5.079-4.901c0.284-0.646-0.041-1.528,0.104-2.159c0.131-0.603,1.059-1.495,1.315-2.339
				c0.177-0.666-0.183-1.045,0.06-1.452c0.868-1.422,3.663-2.205,4.266-3.648c0.797-1.93-0.431-3.718-0.45-5.8
				c-0.084-6.73,5.753-7.533,8.551-13.079c-0.3-0.941-1.067-1.416-2.181-1.643c1.733-1.921,10.566-8.925,9.376-18.75
				c-1.492-1.807-4.702-3.145-8.069-3.145C162.957,186.263,161.824,186.408,160.732,186.735"/>
		</defs>
		<clipPath id="SVGID_128_">
			<use xlink:href="#SVGID_127_"  overflow="visible"/>
		</clipPath>
		
			<linearGradient id="SVGID_129_" gradientUnits="userSpaceOnUse" x1="-144.8271" y1="547.0371" x2="-142.0314" y2="547.0371" gradientTransform="matrix(66.9878 -54.668 -54.668 -66.9878 39721.1875 28969.7148)">
			<stop  offset="0" style="stop-color:#F1A245"/>
			<stop  offset="0.4142" style="stop-color:#F3BD3E"/>
			<stop  offset="0.7472" style="stop-color:#F5D537"/>
			<stop  offset="1" style="stop-color:#F1B940"/>
		</linearGradient>
		<polygon clip-path="url(#SVGID_128_)" fill="url(#SVGID_129_)" points="85.462,211.162 150.405,158.165 203.845,223.648 
			138.904,276.648 		"/>
	</g>
	<g>
		<defs>
			<path id="SVGID_130_" d="M171.258,266.154c0.368-1.417,1.799-2.763,2.74-3.262c-0.232,0-1.566-0.751-2.217-1.752
				C170.516,262.605,170.248,265.28,171.258,266.154"/>
		</defs>
		<clipPath id="SVGID_131_">
			<use xlink:href="#SVGID_130_"  overflow="visible"/>
		</clipPath>
		
			<linearGradient id="SVGID_132_" gradientUnits="userSpaceOnUse" x1="-144.8281" y1="546.6328" x2="-142.0046" y2="546.6328" gradientTransform="matrix(66.9884 -54.6685 -54.6685 -66.9884 39732.7891 28984.248)">
			<stop  offset="0" style="stop-color:#F1A245"/>
			<stop  offset="0.4142" style="stop-color:#F3BD3E"/>
			<stop  offset="0.7472" style="stop-color:#F5D537"/>
			<stop  offset="1" style="stop-color:#F1B940"/>
		</linearGradient>
		<polygon clip-path="url(#SVGID_131_)" fill="url(#SVGID_132_)" points="167.792,263.146 172.5,259.304 176.454,264.15 
			171.746,267.99 		"/>
	</g>
	<g>
		<defs>
			<path id="SVGID_133_" d="M166.248,258.834c0.21-2.068,1.865-3.4,2.902-4.678c-1.255-0.48-2.205-2.26-2.147-3.603
				C166.017,251.953,164.668,256.433,166.248,258.834"/>
		</defs>
		<clipPath id="SVGID_134_">
			<use xlink:href="#SVGID_133_"  overflow="visible"/>
		</clipPath>
		
			<linearGradient id="SVGID_135_" gradientUnits="userSpaceOnUse" x1="-144.8271" y1="546.707" x2="-142.0434" y2="546.707" gradientTransform="matrix(66.984 -54.6649 -54.6649 -66.984 39728.1211 28979.2148)">
			<stop  offset="0" style="stop-color:#F1A245"/>
			<stop  offset="0.4142" style="stop-color:#F3BD3E"/>
			<stop  offset="0.7472" style="stop-color:#F5D537"/>
			<stop  offset="1" style="stop-color:#F1B940"/>
		</linearGradient>
		<polygon clip-path="url(#SVGID_134_)" fill="url(#SVGID_135_)" points="160.612,253.864 167.357,248.359 173.206,255.523 
			166.461,261.031 		"/>
	</g>
	<g>
		<defs>
			<path id="SVGID_136_" d="M122.25,70.601c-2.006,0.512-3.827-0.045-5.655-0.598c-2.025-0.618-4.056-1.232-6.334-0.392
				c2.516,0.775,1.395,3.426,5.322,4.291c-1.637,0.732-3.384,0.098-5.076-0.534c-1.785-0.668-3.51-1.331-4.989-0.414
				c1.976,0.606,3.987,3.099,3.335,5.931c-0.391,1.679-2.975,2.847-2.148,4.72c0.128,0.875,1.842,0.969,2.156,1.677
				c-2.868,1.601-1.826,5.446,0.372,6.142c0.688,0.221,1.075-0.029,1.482-0.274c0.376-0.232,0.77-0.461,1.43-0.315
				c-4.673,1.976-1.829,9.824,3.45,8.59c-1.452,1.613-1.261,3.562-3.106,4.665c-2.282,1.373-5.841,1.045-8.305,2.502
				c-2.587,3.795,1.471,4.605,1.463,7.641c-0.628,1.262-2.571,2.595-4.678,2.378c-1.056,1.931-2.099,4.479-3.922,4.27
				c-1.815-0.21-2.454-1.397-2.868-2.667c-2.17,4.832,3.393,7.764,7.418,8.192c5.071,0.534,8.532-2.845,10.117-5.736
				c-0.729,2.352,1.275,4.794-0.316,6.963c3.114,0.397,5.737,0.256,6.575-1.856c0.325,3.147-2.74,5.446-5.117,6.076
				c2.68,0.89,6.015,2.141,8.834,2.04c3.491-0.117,7.252-1.053,9.591-4.368c0.671-0.931,1.171-3.032,2.694-3.197
				c-2.942,10.074,5.63,15.941,13.04,11.643c-3.39-0.59-4.228-3.787-3.032-7.436c1.507,1.31,4.323,4.678,6.635,0.979
				c-3.008,0.34-3.69-2.832-3.3-5.087c0.753-4.376,7.017-6.59,0.357-9.88c1.992-0.108,3.163,0.373,4.047,0.858
				c1.318,0.722,1.99,1.442,3.794,0.184c-2.795-0.421-3.688-4.449-2.729-6.363c0.213,0.883,0.221,1.887,0.702,2.521
				c2.926,1.258,5.155,0.602,5.486-1.899c-0.83,0.349-2.009,0.112-2.833-0.752c-2.309-2.454,0.895-7.186,0.341-10.958
				c-1.007-7.002-5.715-12.336-12.025-15.496c0.846-1.424,3.627-1.891,5.183-1.74c-2.341-3.352-7.598-4.64-13.338-4.176
				c-0.516-3.312,1.359-5.022,3.177-6.107c-1.93-2.24-5.393-3.775-8.226-4.24c-0.62-0.104-1.195-0.147-1.728-0.147
				C126.164,68.232,124.447,70.043,122.25,70.601"/>
		</defs>
		<clipPath id="SVGID_137_">
			<use xlink:href="#SVGID_136_"  overflow="visible"/>
		</clipPath>
		
			<linearGradient id="SVGID_138_" gradientUnits="userSpaceOnUse" x1="-144.8325" y1="547.7598" x2="-142.0359" y2="547.7598" gradientTransform="matrix(66.9905 -54.6702 -54.6702 -66.9905 39699.8477 28942.3672)">
			<stop  offset="0" style="stop-color:#F1A245"/>
			<stop  offset="0.4142" style="stop-color:#F3BD3E"/>
			<stop  offset="0.7472" style="stop-color:#F5D537"/>
			<stop  offset="1" style="stop-color:#F1B940"/>
		</linearGradient>
		<polygon clip-path="url(#SVGID_137_)" fill="url(#SVGID_138_)" points="55.74,97.83 132.203,35.429 195.24,112.673 
			118.778,175.073 		"/>
	</g>
	<g>
		<defs>
			<path id="SVGID_139_" d="M133.382,245.843c0.822,0.928,3.133,1.522,4.503,0.991c-0.557-0.489-1.042-1.209-1.332-1.941
				C135.784,245.562,134.589,245.843,133.382,245.843"/>
		</defs>
		<clipPath id="SVGID_140_">
			<use xlink:href="#SVGID_139_"  overflow="visible"/>
		</clipPath>
		
			<linearGradient id="SVGID_141_" gradientUnits="userSpaceOnUse" x1="-144.8237" y1="546.9033" x2="-142.033" y2="546.9033" gradientTransform="matrix(66.9494 -54.6367 -54.6367 -66.9494 39701.5352 28957.2051)">
			<stop  offset="0" style="stop-color:#F1A245"/>
			<stop  offset="0.4142" style="stop-color:#F3BD3E"/>
			<stop  offset="0.7472" style="stop-color:#F5D537"/>
			<stop  offset="1" style="stop-color:#F1B940"/>
		</linearGradient>
		<polygon clip-path="url(#SVGID_140_)" fill="url(#SVGID_141_)" points="132.171,245.881 136.087,242.688 139.098,246.378 
			135.184,249.571 		"/>
	</g>
	<g>
		<defs>
			<path id="SVGID_142_" d="M120.025,244.83L120.025,244.83c1.021-0.734,2.282-1.307,4.389-1.522
				c-1.976-0.797-2.647-1.761-2.762-3.082C120.708,241.443,120.208,243.43,120.025,244.83"/>
		</defs>
		<clipPath id="SVGID_143_">
			<use xlink:href="#SVGID_142_"  overflow="visible"/>
		</clipPath>
		
			<linearGradient id="SVGID_144_" gradientUnits="userSpaceOnUse" x1="-144.8281" y1="546.9902" x2="-141.9979" y2="546.9902" gradientTransform="matrix(67.0028 -54.6802 -54.6802 -67.0028 39730.8867 28976.9941)">
			<stop  offset="0" style="stop-color:#F1A245"/>
			<stop  offset="0.4142" style="stop-color:#F3BD3E"/>
			<stop  offset="0.7472" style="stop-color:#F5D537"/>
			<stop  offset="1" style="stop-color:#F1B940"/>
		</linearGradient>
		<polygon clip-path="url(#SVGID_143_)" fill="url(#SVGID_144_)" points="117.769,242.065 122.659,238.075 126.671,242.988 
			121.78,246.98 		"/>
	</g>
	<g>
		<defs>
			<path id="SVGID_145_" d="M115.992,221.886c1.646-0.822,2.514-0.606,3.417-0.388c0.428,0.104,0.86,0.202,1.386,0.196
				c-0.868-1.938,0.123-2.827,0.819-3.66C118.997,218.364,116.838,219.62,115.992,221.886"/>
		</defs>
		<clipPath id="SVGID_146_">
			<use xlink:href="#SVGID_145_"  overflow="visible"/>
		</clipPath>
		
			<linearGradient id="SVGID_147_" gradientUnits="userSpaceOnUse" x1="-144.8232" y1="547.1396" x2="-142.0474" y2="547.1396" gradientTransform="matrix(66.9704 -54.6538 -54.6538 -66.9704 39707.1641 28958.1875)">
			<stop  offset="0" style="stop-color:#F1A245"/>
			<stop  offset="0.4142" style="stop-color:#F3BD3E"/>
			<stop  offset="0.7472" style="stop-color:#F5D537"/>
			<stop  offset="1" style="stop-color:#F1B940"/>
		</linearGradient>
		<polygon clip-path="url(#SVGID_146_)" fill="url(#SVGID_147_)" points="114.105,219.574 119.368,215.28 123.5,220.346 
			118.24,224.639 		"/>
	</g>
	<g>
		<defs>
			<path id="SVGID_148_" d="M112.531,234.538L112.531,234.538c0.922-0.824,2.312-1.542,3.526-1.562
				c-0.83-0.949-1.343-1.842-1.272-3.405C113.956,230.859,112.651,232.464,112.531,234.538"/>
		</defs>
		<clipPath id="SVGID_149_">
			<use xlink:href="#SVGID_148_"  overflow="visible"/>
		</clipPath>
		
			<linearGradient id="SVGID_150_" gradientUnits="userSpaceOnUse" x1="-144.833" y1="547.082" x2="-141.9963" y2="547.082" gradientTransform="matrix(66.9893 -54.6692 -54.6692 -66.9893 39719.8594 28967.1172)">
			<stop  offset="0" style="stop-color:#F1A245"/>
			<stop  offset="0.4142" style="stop-color:#F3BD3E"/>
			<stop  offset="0.7472" style="stop-color:#F5D537"/>
			<stop  offset="1" style="stop-color:#F1B940"/>
		</linearGradient>
		<polygon clip-path="url(#SVGID_149_)" fill="url(#SVGID_150_)" points="110.096,231.558 114.646,227.846 118.489,232.551 
			113.939,236.266 		"/>
	</g>
	<g>
		<defs>
			<path id="SVGID_151_" d="M96.385,84c1.217-0.551-0.15-1.09,0.737-1.943c3.357-0.888,5.199-0.045,5.808,2.181
				c-0.729-0.138-0.75-1.152-1.725-0.981c0.183,1.307-0.789,2.171-2.317,2.344c0.772,0.779,1.591,1.496,2.345,2.309
				C99.902,87.295,97.233,86.084,96.385,84 M97.299,79.567c-0.601,0.543-1.149,1.018-1.807,1.887
				c-4.301,0.486-8.611,0.525-12.527,1.704c0.068,1.112,0.478,2.049,0.202,3.475c-0.543,0.579-1.411,0.795-1.351,1.331
				c-0.087,4.63,4.722,5.366,8.027,6.867c3.559,1.62,6.072,3.881,7.816,6.156c-1.971-0.162-2.568,2.152-4.301,2.815
				c-1.902,0.723-4.126,0.563-6.288,0.627c1.362,3.837,5.996,6.976,10.573,6.648c-2.355-10.574,13.461-3.431,15.331-10.537
				c-3.076-1.119-6.425-4.229-4.5-7.854c-1.337-1.061-3.038-2.142-3.63-3.888c2.958-2.896-0.183-4.243,0.166-6.235
				c0.341-1.962,2.929-2.261,2.298-4.533C104.646,79.177,100.331,79.833,97.299,79.567"/>
		</defs>
		<clipPath id="SVGID_152_">
			<use xlink:href="#SVGID_151_"  overflow="visible"/>
		</clipPath>
		
			<linearGradient id="SVGID_153_" gradientUnits="userSpaceOnUse" x1="-144.8301" y1="547.9404" x2="-142.0358" y2="547.9404" gradientTransform="matrix(66.9884 -54.6685 -54.6685 -66.9884 39692.1211 28933.498)">
			<stop  offset="0" style="stop-color:#F1A245"/>
			<stop  offset="0.4142" style="stop-color:#F3BD3E"/>
			<stop  offset="0.7472" style="stop-color:#F5D537"/>
			<stop  offset="1" style="stop-color:#F1B940"/>
		</linearGradient>
		<polygon clip-path="url(#SVGID_152_)" fill="url(#SVGID_153_)" points="65.38,91.372 100.484,62.725 129.321,98.063 
			94.218,126.71 		"/>
	</g>
	<g>
		<defs>
			<path id="SVGID_154_" d="M99.045,83.02c-0.385,0-0.666,0.296-0.75,0.598c-0.09,0.341,0.082,0.678,0.677,0.576
				c-0.262-0.629,0.265-0.629,0.109-1.173C99.07,83.02,99.059,83.02,99.045,83.02"/>
		</defs>
		<clipPath id="SVGID_155_">
			<use xlink:href="#SVGID_154_"  overflow="visible"/>
		</clipPath>
		
			<linearGradient id="SVGID_156_" gradientUnits="userSpaceOnUse" x1="-144.7974" y1="548.0127" x2="-142.0831" y2="548.0127" gradientTransform="matrix(66.9802 -54.6618 -54.6618 -66.9801 39686.1328 28928.9863)">
			<stop  offset="0" style="stop-color:#F1A245"/>
			<stop  offset="0.4142" style="stop-color:#F3BD3E"/>
			<stop  offset="0.7472" style="stop-color:#F5D537"/>
			<stop  offset="1" style="stop-color:#F1B940"/>
		</linearGradient>
		<polygon clip-path="url(#SVGID_155_)" fill="url(#SVGID_156_)" points="97.58,83.53 98.825,82.515 99.862,83.785 98.617,84.802 		
			"/>
	</g>
	<g>
		<defs>
			<path id="SVGID_157_" d="M91.169,101.514c-0.055,0.565,0.423,0.722,0.677,1.007c0.882-0.178,2.546-1.642,1.954-2.628
				C93.519,100.477,92.389,101.313,91.169,101.514"/>
		</defs>
		<clipPath id="SVGID_158_">
			<use xlink:href="#SVGID_157_"  overflow="visible"/>
		</clipPath>
		
			<linearGradient id="SVGID_159_" gradientUnits="userSpaceOnUse" x1="-144.8223" y1="547.9492" x2="-142.0445" y2="547.9492" gradientTransform="matrix(66.9754 -54.6578 -54.6578 -66.9753 39686.1367 28930.1699)">
			<stop  offset="0" style="stop-color:#F1A245"/>
			<stop  offset="0.4142" style="stop-color:#F3BD3E"/>
			<stop  offset="0.7472" style="stop-color:#F5D537"/>
			<stop  offset="1" style="stop-color:#F1B940"/>
		</linearGradient>
		<polygon clip-path="url(#SVGID_158_)" fill="url(#SVGID_159_)" points="89.829,100.944 93.082,98.288 95.681,101.471 
			92.427,104.126 		"/>
	</g>
	<g>
		<defs>
			<path id="SVGID_160_" d="M61.532,110.64c-0.57,3.024,1.924,3.507,1.897,5.632c-0.696,1.374-2.503,1.209-4.372,1.051
				c-1.66-0.146-3.371-0.288-4.394,0.643c-2.167,1.964-1.924,3.934,0.199,5.002c0.535,0.265,1.468,0.128,2.495-0.012
				c2.022-0.27,4.405-0.544,4.819,2.245c0.353,2.387-3.234,0.531-4.612,3.688c0.789,7.706,6.029,0.858,8.633,0.269
				c0.519-0.114,1.023,0.093,1.496,0.302c0.48,0.213,0.934,0.426,1.332,0.288c5.139-1.713,6.165,7.163,3.431,12.686
				c0.562,0.917,3.155,0.216,4.82,2.168c3.223,3.787,3.07,11.047,8.062,12.901c1.687-4.479,4.329,1.274,6.157,2.208
				c-0.581-4.233,1.613-8.184,1.763-11.959c0.106-2.774-0.775-5.41,0.849-7.903c-3.518-3.349-9.967-6.277-11.64-10.978
				c-0.999-2.784-0.065-4.782-4.351-7.58c2.762-3.138,2.14-9.586-3.419-9.072c-3.36,1.141-0.982,4.726-1.048,6.931
				c-1.056-0.008-0.767-2.168-3.758-2.102c-1.528-1.587-1.173-4.131-2.099-6.35c-0.699-1.648-2.191-2.597-3.553-2.597
				C62.992,108.101,61.859,108.887,61.532,110.64"/>
		</defs>
		<clipPath id="SVGID_161_">
			<use xlink:href="#SVGID_160_"  overflow="visible"/>
		</clipPath>
		
			<linearGradient id="SVGID_162_" gradientUnits="userSpaceOnUse" x1="-144.8286" y1="547.8594" x2="-142.0341" y2="547.8594" gradientTransform="matrix(66.9875 -54.6677 -54.6677 -66.9875 39696.5938 28939.332)">
			<stop  offset="0" style="stop-color:#F1A245"/>
			<stop  offset="0.4142" style="stop-color:#F3BD3E"/>
			<stop  offset="0.7472" style="stop-color:#F5D537"/>
			<stop  offset="1" style="stop-color:#F1B940"/>
		</linearGradient>
		<polygon clip-path="url(#SVGID_161_)" fill="url(#SVGID_162_)" points="27.214,128.733 77.471,87.719 119.387,139.08 
			69.13,180.095 		"/>
	</g>
	<g>
		<defs>
			<path id="SVGID_163_" d="M87.722,102.722c0.857,0.206,1.613,0.07,2.222-0.2c-0.371-1.443-1.948-3.032-2.898-3.439
				C86.985,100.165,86.827,102.143,87.722,102.722"/>
		</defs>
		<clipPath id="SVGID_164_">
			<use xlink:href="#SVGID_163_"  overflow="visible"/>
		</clipPath>
		
			<linearGradient id="SVGID_165_" gradientUnits="userSpaceOnUse" x1="-144.832" y1="547.9629" x2="-142.0515" y2="547.9629" gradientTransform="matrix(66.988 -54.6681 -54.6681 -66.988 39692.8516 28933.9648)">
			<stop  offset="0" style="stop-color:#F1A245"/>
			<stop  offset="0.4142" style="stop-color:#F3BD3E"/>
			<stop  offset="0.7472" style="stop-color:#F5D537"/>
			<stop  offset="1" style="stop-color:#F1B940"/>
		</linearGradient>
		<polygon clip-path="url(#SVGID_164_)" fill="url(#SVGID_165_)" points="84.941,100.62 88.696,97.555 91.827,101.391 
			88.071,104.456 		"/>
	</g>
	<g>
		<defs>
			<path id="SVGID_166_" d="M79.984,83.657c1.471,0.651,0.145,2.078,1.288,2.14c1.258-0.502,0.26-1.721-0.109-2.552
				c-0.169-0.013-0.336-0.03-0.486-0.03C80.312,83.214,80.022,83.302,79.984,83.657"/>
		</defs>
		<clipPath id="SVGID_167_">
			<use xlink:href="#SVGID_166_"  overflow="visible"/>
		</clipPath>
		
			<linearGradient id="SVGID_168_" gradientUnits="userSpaceOnUse" x1="-144.8179" y1="548.085" x2="-142.0759" y2="548.085" gradientTransform="matrix(66.993 -54.6722 -54.6722 -66.993 39691.6055 28930.9688)">
			<stop  offset="0" style="stop-color:#F1A245"/>
			<stop  offset="0.4142" style="stop-color:#F3BD3E"/>
			<stop  offset="0.7472" style="stop-color:#F5D537"/>
			<stop  offset="1" style="stop-color:#F1B940"/>
		</linearGradient>
		<polygon clip-path="url(#SVGID_167_)" fill="url(#SVGID_168_)" points="78.718,84.246 81.513,81.967 83.794,84.765 81.002,87.043 
					"/>
	</g>
	<g>
		<defs>
			<path id="SVGID_169_" d="M73.901,111.279c0.969-0.106,1.67-0.354,2.937,0c-0.734-1.029-1.523-2.56-3.265-3.01
				C74.13,109.349,74.117,110.08,73.901,111.279"/>
		</defs>
		<clipPath id="SVGID_170_">
			<use xlink:href="#SVGID_169_"  overflow="visible"/>
		</clipPath>
		
			<linearGradient id="SVGID_171_" gradientUnits="userSpaceOnUse" x1="-144.8218" y1="547.9717" x2="-142.0586" y2="547.9717" gradientTransform="matrix(67.0311 -54.7033 -54.7033 -67.0311 39717.4453 28952.2734)">
			<stop  offset="0" style="stop-color:#F1A245"/>
			<stop  offset="0.4142" style="stop-color:#F3BD3E"/>
			<stop  offset="0.7472" style="stop-color:#F5D537"/>
			<stop  offset="1" style="stop-color:#F1B940"/>
		</linearGradient>
		<polygon clip-path="url(#SVGID_170_)" fill="url(#SVGID_171_)" points="72.097,109.473 75.533,106.67 78.312,110.076 
			74.878,112.879 		"/>
	</g>
	<g>
		<defs>
			<path id="SVGID_172_" d="M69.995,205.564c1.321,1.271,3.376,0.835,4.654,0.739c-0.448-0.641-1.04-1.064-0.74-2.109
				C72.968,204.666,72.004,205.663,69.995,205.564"/>
		</defs>
		<clipPath id="SVGID_173_">
			<use xlink:href="#SVGID_172_"  overflow="visible"/>
		</clipPath>
		
			<linearGradient id="SVGID_174_" gradientUnits="userSpaceOnUse" x1="-144.8267" y1="547.4316" x2="-142.0489" y2="547.4316" gradientTransform="matrix(66.9971 -54.6756 -54.6756 -66.9971 39713.6406 28957.4824)">
			<stop  offset="0" style="stop-color:#F1A245"/>
			<stop  offset="0.4142" style="stop-color:#F3BD3E"/>
			<stop  offset="0.7472" style="stop-color:#F5D537"/>
			<stop  offset="1" style="stop-color:#F1B940"/>
		</linearGradient>
		<polygon clip-path="url(#SVGID_173_)" fill="url(#SVGID_174_)" points="68.702,205.25 72.788,201.915 75.942,205.78 
			71.857,209.115 		"/>
	</g>
	<g>
		<defs>
			<path id="SVGID_175_" d="M59.791,104.442c1.397,1.264,0.849,3.125,1.026,4.05c0.328-1.571,2.172-2.071,3.63-1.607
				c-0.731-0.633-1.599-2.443-4.574-2.443C59.845,104.442,59.821,104.442,59.791,104.442"/>
		</defs>
		<clipPath id="SVGID_176_">
			<use xlink:href="#SVGID_175_"  overflow="visible"/>
		</clipPath>
		
			<linearGradient id="SVGID_177_" gradientUnits="userSpaceOnUse" x1="-144.8374" y1="548.0508" x2="-142.0105" y2="548.0508" gradientTransform="matrix(66.9289 -54.6199 -54.6199 -66.9289 39654.8242 28904.9297)">
			<stop  offset="0" style="stop-color:#F1A245"/>
			<stop  offset="0.4142" style="stop-color:#F3BD3E"/>
			<stop  offset="0.7472" style="stop-color:#F5D537"/>
			<stop  offset="1" style="stop-color:#F1B940"/>
		</linearGradient>
		<polygon clip-path="url(#SVGID_176_)" fill="url(#SVGID_177_)" points="57.809,106.062 62.585,102.162 66.431,106.875 
			61.652,110.774 		"/>
	</g>
	<g>
		<defs>
			<path id="SVGID_178_" d="M59.179,201.312c1.676,0.835,3.772,1.758,5.53,1.457c-0.846-0.683-2.009-1.288-1.81-2.926
				C61.731,200.668,60.558,201.312,59.179,201.312"/>
		</defs>
		<clipPath id="SVGID_179_">
			<use xlink:href="#SVGID_178_"  overflow="visible"/>
		</clipPath>
		
			<linearGradient id="SVGID_180_" gradientUnits="userSpaceOnUse" x1="-144.6025" y1="547.7734" x2="-141.7724" y2="547.7734" gradientTransform="matrix(67.0037 -54.681 -54.681 -67.0037 39714.9922 28988.0332)">
			<stop  offset="0" style="stop-color:#F1A245"/>
			<stop  offset="0.4142" style="stop-color:#F3BD3E"/>
			<stop  offset="0.7472" style="stop-color:#F5D537"/>
			<stop  offset="1" style="stop-color:#F1B940"/>
		</linearGradient>
		<polygon clip-path="url(#SVGID_179_)" fill="url(#SVGID_180_)" points="57.599,201.135 62.498,197.137 66.286,201.781 
			61.39,205.777 		"/>
	</g>
	<g>
		<defs>
			<path id="SVGID_181_" d="M57.356,181.678c1.236-0.704,3.149-0.884,4.841-0.496c-0.218-0.975,0.011-1.521,0.317-2.479V178.7
				C60.571,179.091,57.987,179.871,57.356,181.678"/>
		</defs>
		<clipPath id="SVGID_182_">
			<use xlink:href="#SVGID_181_"  overflow="visible"/>
		</clipPath>
		
			<linearGradient id="SVGID_183_" gradientUnits="userSpaceOnUse" x1="-144.8223" y1="547.6357" x2="-142.0423" y2="547.6357" gradientTransform="matrix(66.9962 -54.6749 -54.6749 -66.9962 39706.6406 28949.8008)">
			<stop  offset="0" style="stop-color:#F1A245"/>
			<stop  offset="0.4142" style="stop-color:#F3BD3E"/>
			<stop  offset="0.7472" style="stop-color:#F5D537"/>
			<stop  offset="1" style="stop-color:#F1B940"/>
		</linearGradient>
		<polygon clip-path="url(#SVGID_182_)" fill="url(#SVGID_183_)" points="55.899,179.891 60.451,176.176 63.972,180.488 
			59.419,184.202 		"/>
	</g>
	<g>
		<defs>
			<path id="SVGID_184_" d="M52.883,130.171c0.661,0.922,1.714,2.698,4.553,2.631c-0.822-0.33-1.458-1.778-1.19-2.767
				C55.388,130.625,54.141,130.765,52.883,130.171"/>
		</defs>
		<clipPath id="SVGID_185_">
			<use xlink:href="#SVGID_184_"  overflow="visible"/>
		</clipPath>
		
			<linearGradient id="SVGID_186_" gradientUnits="userSpaceOnUse" x1="-144.8281" y1="547.9375" x2="-142.0281" y2="547.9375" gradientTransform="matrix(67.0231 -54.6968 -54.6968 -67.0231 39713.6289 28949.4688)">
			<stop  offset="0" style="stop-color:#F1A245"/>
			<stop  offset="0.4142" style="stop-color:#F3BD3E"/>
			<stop  offset="0.7472" style="stop-color:#F5D537"/>
			<stop  offset="1" style="stop-color:#F1B940"/>
		</linearGradient>
		<polygon clip-path="url(#SVGID_185_)" fill="url(#SVGID_186_)" points="51.494,131.167 55.615,127.805 58.825,131.736 
			54.703,135.099 		"/>
	</g>
	<g>
		<defs>
			<path id="SVGID_187_" d="M53.448,192.813c1.425-1.185,2.732-1.168,4.271-0.993c-0.671-0.906-1.417-1.621-0.835-2.839
				C55.806,190.155,54.188,190.646,53.448,192.813"/>
		</defs>
		<clipPath id="SVGID_188_">
			<use xlink:href="#SVGID_187_"  overflow="visible"/>
		</clipPath>
		
			<linearGradient id="SVGID_189_" gradientUnits="userSpaceOnUse" x1="-144.8213" y1="547.6035" x2="-141.988" y2="547.6035" gradientTransform="matrix(66.9838 -54.6647 -54.6647 -66.9838 39701.2656 28946.418)">
			<stop  offset="0" style="stop-color:#F1A245"/>
			<stop  offset="0.4142" style="stop-color:#F3BD3E"/>
			<stop  offset="0.7472" style="stop-color:#F5D537"/>
			<stop  offset="1" style="stop-color:#F1B940"/>
		</linearGradient>
		<polygon clip-path="url(#SVGID_188_)" fill="url(#SVGID_189_)" points="51.57,190.516 56.011,186.891 59.594,191.282 
			55.154,194.904 		"/>
	</g>
	<g>
		<defs>
			<path id="SVGID_190_" d="M49.051,115.477c0.134,1.714,0.664,3.298,2.637,4.48c0-1.112,0.532-2.037,1.578-2.702
				C51.461,117.141,50.003,116.447,49.051,115.477z"/>
		</defs>
		<clipPath id="SVGID_191_">
			<use xlink:href="#SVGID_190_"  overflow="visible"/>
		</clipPath>
		
			<linearGradient id="SVGID_192_" gradientUnits="userSpaceOnUse" x1="-144.833" y1="548.041" x2="-142.0445" y2="548.041" gradientTransform="matrix(66.9705 -54.6538 -54.6538 -66.9705 39679.9766 28923.6016)">
			<stop  offset="0" style="stop-color:#F1A245"/>
			<stop  offset="0.4142" style="stop-color:#F3BD3E"/>
			<stop  offset="0.7472" style="stop-color:#F5D537"/>
			<stop  offset="1" style="stop-color:#F1B940"/>
		</linearGradient>
		<polygon clip-path="url(#SVGID_191_)" fill="url(#SVGID_192_)" points="46.856,117.268 51.581,113.412 55.459,118.167 
			50.735,122.021 		"/>
	</g>
</g>
</svg>
