<svg id="Patch" xmlns="http://www.w3.org/2000/svg" xmlns:xlink="http://www.w3.org/1999/xlink" viewBox="0 0 217.06 214.56"><defs><style>.cls-1,.cls-21{fill:none;}.cls-2,.cls-21,.cls-4{stroke:#231f20;}.cls-2,.cls-4{stroke-width:0.45px;}.cls-2{fill:url(#radial-gradient);}.cls-3,.cls-5{stroke:#000;stroke-width:0.27px;}.cls-21,.cls-3,.cls-5{stroke-miterlimit:10;}.cls-4{fill:url(#radial-gradient-2);}.cls-5{fill:#be2f26;}.cls-17,.cls-6{fill:#060602;}.cls-10,.cls-11,.cls-12,.cls-13,.cls-14,.cls-15,.cls-16,.cls-17,.cls-7,.cls-8,.cls-9{fill-rule:evenodd;}.cls-7{fill:url(#linear-gradient);}.cls-8{fill:url(#linear-gradient-2);}.cls-9{fill:url(#linear-gradient-3);}.cls-10{fill:url(#linear-gradient-4);}.cls-11{fill:url(#linear-gradient-5);}.cls-12{fill:url(#linear-gradient-6);}.cls-13{fill:url(#linear-gradient-7);}.cls-14{fill:url(#linear-gradient-8);}.cls-15{fill:url(#linear-gradient-9);}.cls-16{fill:#feffff;}.cls-18{clip-path:url(#clip-path);}.cls-19{fill:url(#linear-gradient-10);}.cls-20{fill:#ec1c24;}.cls-21{stroke-width:0.19px;}</style><radialGradient id="radial-gradient" cx="108.53" cy="107.29" r="107.67" gradientUnits="userSpaceOnUse"><stop offset="0" stop-color="#fffbcc"/><stop offset="0.11" stop-color="#fbf2bb"/><stop offset="0.34" stop-color="#f0d98e"/><stop offset="0.37" stop-color="#eed688"/><stop offset="0.69" stop-color="#ebbb10"/><stop offset="0.87" stop-color="#edd173"/><stop offset="0.93" stop-color="#ffde17"/><stop offset="1" stop-color="#ebc026"/></radialGradient><radialGradient id="radial-gradient-2" cx="108.53" cy="107.63" r="100.09" xlink:href="#radial-gradient"/><linearGradient id="linear-gradient" x1="88.59" y1="40.77" x2="89.16" y2="40.77" gradientUnits="userSpaceOnUse"><stop offset="0" stop-color="#fbb040"/><stop offset="0.11" stop-color="#fbb63e"/><stop offset="0.27" stop-color="#fcc83a"/><stop offset="0.45" stop-color="#fde433"/><stop offset="0.48" stop-color="#fdea32"/><stop offset="0.62" stop-color="#fde034"/><stop offset="0.85" stop-color="#fcc53b"/><stop offset="1" stop-color="#fbb040"/></linearGradient><linearGradient id="linear-gradient-2" x1="43.56" y1="122.54" x2="179.41" y2="122.54" xlink:href="#linear-gradient"/><linearGradient id="linear-gradient-3" x1="65.86" y1="69.68" x2="106.5" y2="69.68" xlink:href="#linear-gradient"/><linearGradient id="linear-gradient-4" x1="78.97" y1="158.48" x2="116.23" y2="158.48" xlink:href="#linear-gradient"/><linearGradient id="linear-gradient-5" x1="117.45" y1="60.9" x2="158.67" y2="60.9" xlink:href="#linear-gradient"/><linearGradient id="linear-gradient-6" x1="40.38" y1="93.42" x2="65.7" y2="93.42" xlink:href="#linear-gradient"/><linearGradient id="linear-gradient-7" x1="116.65" y1="82.6" x2="144.05" y2="82.6" xlink:href="#linear-gradient"/><linearGradient id="linear-gradient-8" x1="58.38" y1="62.51" x2="77.47" y2="62.51" xlink:href="#linear-gradient"/><linearGradient id="linear-gradient-9" x1="109.22" y1="93.29" x2="132.55" y2="93.29" xlink:href="#linear-gradient"/><clipPath id="clip-path"><path class="cls-1" d="M64.54,68.21c0,.45.27.58.43.8.56-.14,1.6-1.32,1.22-2.1a2.53,2.53,0,0,1-1.65,1.3"/></clipPath><linearGradient id="linear-gradient-10" x1="-458.43" y1="-292.29" x2="-458.23" y2="-292.29" gradientTransform="matrix(-3.51, -4.42, 3.49, -4.45, -525.14, -3259.39)" xlink:href="#linear-gradient"/></defs><title>RMN</title><path class="cls-2" d="M108.53.24A309.61,309.61,0,0,0,.23,78.85a306.85,306.85,0,0,0,42,128.34,310,310,0,0,0,66.3,7.14,310,310,0,0,0,66.3-7.14,306.83,306.83,0,0,0,42-128.34A309.59,309.59,0,0,0,108.53.24Z"/><path class="cls-3" d="M108.53,209.48a306.11,306.11,0,0,1-63.2-6.58A302,302,0,0,1,5.27,80.5a304.78,304.78,0,0,1,103.26-75,304.09,304.09,0,0,1,55.78,32.15A306,306,0,0,1,211.8,80.5a302.9,302.9,0,0,1-13.68,64.14,302.87,302.87,0,0,1-26.38,58.26A306.11,306.11,0,0,1,108.53,209.48Z"/><path class="cls-4" d="M108.53,207.06a303.76,303.76,0,0,1-61.65-6.31A299.53,299.53,0,0,1,7.79,81.32,302.36,302.36,0,0,1,108.53,8.19a301.67,301.67,0,0,1,54.35,31.45,303.77,303.77,0,0,1,46.39,41.68,300.77,300.77,0,0,1-13.46,62.56,300.59,300.59,0,0,1-25.62,56.87A303.78,303.78,0,0,1,108.53,207.06Z"/><path class="cls-5" d="M108.53,204.63a301.51,301.51,0,0,1-60.1-6A297.09,297.09,0,0,1,10.32,82.14a300,300,0,0,1,98.21-71.29A299.6,299.6,0,0,1,161.46,41.6a301.36,301.36,0,0,1,45.29,40.54,298.09,298.09,0,0,1-13.24,61,298.12,298.12,0,0,1-24.88,55.48A301.54,301.54,0,0,1,108.53,204.63Z"/><path class="cls-6" d="M180.17,107.92a4.45,4.45,0,0,1,.07-1.14,11,11,0,0,0-.05-1.38c-.09-.63-.17-1.26-.3-1.88a25.41,25.41,0,0,0-1.25-4.15,2.16,2.16,0,0,0-.94-1.1l-.34-.17-.44-.2a1.49,1.49,0,0,1-.25-.13.84.84,0,0,1-.4-.67c0-.08,0-.16,0-.24-.07-.57-.07-1.14-.15-1.71a11.17,11.17,0,0,0-1.08-3.5,19.48,19.48,0,0,0-3.59-5,11.3,11.3,0,0,0-1.77-1.46,5.23,5.23,0,0,0-1.2-.58,2.05,2.05,0,0,0-1.36,0,2.63,2.63,0,0,1-.65.13,1.28,1.28,0,0,1-.9-.25,10.07,10.07,0,0,1-.91-.77c-.22-.21-.43-.42-.66-.62a4.15,4.15,0,0,0-2.32-1,12.39,12.39,0,0,0-1.76-.11l-2.1,0a43.36,43.36,0,0,0-4.39.24,14.61,14.61,0,0,0-1.74.3,8.8,8.8,0,0,0-2.82,1.24,22.33,22.33,0,0,0-2.3,1.79,9.29,9.29,0,0,0-2.33,3.17,17.18,17.18,0,0,0-1.14,3.64c-.13.64-.23,1.29-.33,1.93a8.87,8.87,0,0,0-.09,1.43,1.41,1.41,0,0,0,.16.64,2.68,2.68,0,0,0,.59.81c.19.17.38.34.58.5a1.14,1.14,0,0,1,.42.67c0,.14.07.28.1.42a5.74,5.74,0,0,0,.53,1.53,11.63,11.63,0,0,0,2.5,3.36,7.4,7.4,0,0,0,1.58,1.14,5.29,5.29,0,0,0,3.27.61,4.87,4.87,0,0,0,2.35-1,2.39,2.39,0,0,0,.51-.5c.43-.59.87-1.18,1.26-1.8l.18-.33a.17.17,0,0,0-.14-.24,2.55,2.55,0,0,0-.43,0c-.12,0-.25.07-.37.11l-1.6.48a2.42,2.42,0,0,1-.9.12,3.34,3.34,0,0,1-.92-.22,2.68,2.68,0,0,1-1.21-1,3.54,3.54,0,0,1-.62-2.17.43.43,0,0,1,.42-.43l.76-.09a14.8,14.8,0,0,0,1.69-.28A16.49,16.49,0,0,0,159,95.74a18.42,18.42,0,0,0,3.62-3.18l.5-.57a1.53,1.53,0,0,1,.18-.15.15.15,0,0,1,.18,0,.48.48,0,0,1,.12.15,2.51,2.51,0,0,1,.14.5,5.45,5.45,0,0,0,.54,1.57c.29.55.56,1.11.85,1.65.19.35.39.7.6,1a4.45,4.45,0,0,0,1.68,1.59l.42.23c.82.45,1.64.92,2.44,1.42a2.7,2.7,0,0,1,.46.33,1.16,1.16,0,0,1,.16.18.34.34,0,0,1,.05.36c-.08.18-.14.35-.23.53a9.77,9.77,0,0,0-1,3.67,6.06,6.06,0,0,0,0,.62c0,.35,0,.7.09,1a18.85,18.85,0,0,0,.47,2.34,9.8,9.8,0,0,0,.53,1.58,4.57,4.57,0,0,0,1.41,1.78l.6.47a2,2,0,0,1,.25.23.34.34,0,0,1,0,.47l-.53.41a11.45,11.45,0,0,0-2,1.89,14,14,0,0,0-1.66,2.56,21.29,21.29,0,0,0-2,6.55c-.08.54-.13,1.08-.21,1.61a4.15,4.15,0,0,1-.1.52.41.41,0,0,1-.32.33,3.25,3.25,0,0,1-.66.09l-.67,0q-1,.09-2.09.26a9.06,9.06,0,0,0-2.28.66,5,5,0,0,0-2.38,2.13c-.22.39-.45.77-.69,1.15s-.32.48-.47.72a1.59,1.59,0,0,1-.44.43,5.49,5.49,0,0,1-.89.06c-.1,0-.85-.08-.85-.17v-.91c0-.58.65-1.15.6-1.72,0-.36.19-.68,0-1-.7-1.1-1.22-2.21-1.92-3.32a19.22,19.22,0,0,0-1.43-2,11.1,11.1,0,0,0-1.67-1.66,10,10,0,0,0-3.35-1.75,13.3,13.3,0,0,0-3.91-.52,2.52,2.52,0,0,0-1,.21l-.31.13a.26.26,0,0,1-.26-.06.63.63,0,0,1-.12-.14c-.13-.2-.26-.4-.38-.6a54.05,54.05,0,0,0-4.28-6.1,32.18,32.18,0,0,0-3.36-3.6,19.18,19.18,0,0,0-2.33-1.83,12.07,12.07,0,0,0-2.5-1.27l-1-.4c-.64-.25-1.26-.53-1.92-.72a1,1,0,0,1-.71-.7c-.09-.3-.19-.61-.27-.91a4,4,0,0,1-.17-1.08c0-.3,0-.61,0-.91a1.78,1.78,0,0,1,.05-.38,3.73,3.73,0,0,1,2.09-2.69l.21-.1a12,12,0,0,1,1.52-.56,40.78,40.78,0,0,1,4.88-1.14,11.6,11.6,0,0,0,2.34-.64c.55-.22,1.1-.42,1.65-.63a19.57,19.57,0,0,1,1.93-.69l.13-.06a.28.28,0,0,0,.11-.33.67.67,0,0,0-.1-.16c-.37-.44-.72-.89-1.1-1.32a6.7,6.7,0,0,1-1.14-1.81,10.84,10.84,0,0,1-.81-3.42,15.61,15.61,0,0,1,0-1.91,10.52,10.52,0,0,1,.35-2.26,12.25,12.25,0,0,1,2.09-4.26,16.62,16.62,0,0,1,2.95-3,24.6,24.6,0,0,1,3.58-2.36l1.94-1a6.14,6.14,0,0,0,.53-.32.33.33,0,0,0,.1-.39l-.14-.25c-.28-.48-.55-1-.84-1.45a3.69,3.69,0,0,1-.47-1.19,7.72,7.72,0,0,1-.12-.95q-.05-1.12,0-2.25a10.59,10.59,0,0,1,.13-1.28,19.08,19.08,0,0,1,.55-2.47,16.2,16.2,0,0,1,4-6.92,18,18,0,0,1,4.25-3.22,22.69,22.69,0,0,1,4.67-1.92c.73-.21,1.46-.45,2.17-.71l3.07-1.06,1-.35a.66.66,0,0,0,.21-.11.28.28,0,0,0,.07-.17.14.14,0,0,0-.1-.14l-.68-.22c-.84-.25-1.69-.45-2.53-.68-.54-.15-1.08-.28-1.63-.37s-1.38-.23-2.08-.32-1.3-.16-1.95-.18l-.43,0-2.25-.12c-.28,0-.57,0-.86,0l-1,0-2.24.12c-.38,0-.76.06-1.14.11l-1.61.24c-.95.14-1.88.31-2.82.51a41.79,41.79,0,0,0-6.65,2.05,46.12,46.12,0,0,0-10,5.58,55.33,55.33,0,0,0-8.19,7.38c-.9,1-1.75,2-2.59,3-1.2,1.47-2.38,3-3.54,4.45a4.89,4.89,0,0,0-.84,1.59l-.09.27L113,72a1.11,1.11,0,0,1-.26.4.35.35,0,0,1-.4.07.55.55,0,0,1-.36-.47,2.28,2.28,0,0,1,0-.67,5.88,5.88,0,0,1,.45-1.36q.39-.82.78-1.64a12.5,12.5,0,0,0,.77-2.1,5.77,5.77,0,0,0,.15-2.55,3,3,0,0,0-1.46-2.13,1.78,1.78,0,0,0-.39-.17,2.41,2.41,0,0,0-1.77.14,2.88,2.88,0,0,0-1,.7l-1.16,1.33a1.08,1.08,0,0,0-.11.15.68.68,0,0,0-.06.13.21.21,0,0,0,.14.26l.24,0,1.15,0a3.09,3.09,0,0,1,.52.06,1.18,1.18,0,0,1,.89.79,1.66,1.66,0,0,1,.09.89c0,.25-.1.5-.15.75a2.11,2.11,0,0,1-.53,1.05c-.14.16-.29.3-.43.45s-.31.32-.45.49A3.42,3.42,0,0,0,109,70a11.56,11.56,0,0,0-.38,2.26c0,.64-.08,1.27-.13,1.91-.08,1-.11,2-.14,3.06,0,1.39,0,2.77-.06,4.16q-.07,3.63-.15,7.27c0,.81,0,1.62-.05,2.44a11.36,11.36,0,0,1-.24,2.18,9.49,9.49,0,0,1-.65,2,6.35,6.35,0,0,1-2,2.47,14.82,14.82,0,0,1-1.34.91l-1.16.67c-.76.44-1.51.88-2.23,1.38a3.15,3.15,0,0,1-.33.19.26.26,0,0,1-.3-.08,2,2,0,0,1-.15-.25,6.09,6.09,0,0,0-.76-1.21l-.05-.08a.21.21,0,0,1,.05-.26l.19-.14c.68-.44,1.33-.93,2-1.42a3.27,3.27,0,0,0,.29-.25.65.65,0,0,0,.11-.16.17.17,0,0,0-.09-.24,8,8,0,0,0-1.11-.29,7,7,0,0,1-1-.26,1.49,1.49,0,0,1-.7-.48,2.22,2.22,0,0,1-.48-1.7.21.21,0,0,1,.29-.15l.17.09.41.25a2.77,2.77,0,0,0,.56.26,1.87,1.87,0,0,0,1.69-.23,2.2,2.2,0,0,0,.5-.44,5.17,5.17,0,0,0,.36-.5,12.74,12.74,0,0,0,.91-1.79,2.25,2.25,0,0,0,.08-.23.26.26,0,0,0-.2-.28,3.35,3.35,0,0,0-.76,0l-.52.07a.85.85,0,0,1-.89-.5,2.7,2.7,0,0,1-.17-.44,4.21,4.21,0,0,1-.06-2.08,5.74,5.74,0,0,1,.6-1.6l.82-1.51a5.51,5.51,0,0,0,.69-2.07,1.49,1.49,0,0,1,.06-.28.21.21,0,0,1,.19-.12l.19,0,.32.1a1.13,1.13,0,0,0,.61,0,2.33,2.33,0,0,0,1-.47c.49-.41,1-.84,1.44-1.26a.88.88,0,0,0,.13-.14.55.55,0,0,0,.07-.13.24.24,0,0,0-.14-.31l-.14,0L105,80.13l-.32-.1a.32.32,0,0,1-.11-.08.21.21,0,0,1,0-.22.16.16,0,0,1,.15-.09h.43a2.8,2.8,0,0,0,.84-.14,2.29,2.29,0,0,0,1.12-.86,3.58,3.58,0,0,0,.6-1.44,10.61,10.61,0,0,0,.13-1.71.2.2,0,0,0,0-.09.36.36,0,0,0-.08-.12.27.27,0,0,0-.31-.06l-.43.2-.44.19a.37.37,0,0,1-.28,0,1,1,0,0,1-.68-.69,2.48,2.48,0,0,1-.13-1.22c0-.09,0-.19,0-.29a21.63,21.63,0,0,1,.34-2.27,15.93,15.93,0,0,0,.31-1.93,12,12,0,0,0-.09-3,19.33,19.33,0,0,0-1-3.82,17,17,0,0,0-4-6.16c-.33-.32-.68-.62-1-.94a2.55,2.55,0,0,1-.27-.27.26.26,0,0,1,.15-.44l.09,0a3.48,3.48,0,0,1,1.14,0l1,.08a1.3,1.3,0,0,0,.24,0,.21.21,0,0,0,.14-.22.53.53,0,0,0,0-.14c-.3-.54-.59-1.09-.9-1.63a6.17,6.17,0,0,0-1.64-1.84,7.57,7.57,0,0,0-2.31-1.21,9.81,9.81,0,0,0-3.19-.52H94l-.28,0a.36.36,0,0,1-.29-.38,2.09,2.09,0,0,1,.24-.91,3.79,3.79,0,0,1,.93-1.2l.74-.61a1.49,1.49,0,0,0,.21-.2.36.36,0,0,0,.06-.4,2.64,2.64,0,0,0-.19-.33,9,9,0,0,0-3.62-3.25A8.11,8.11,0,0,0,89,40.8s-.09,1.11-.13,1.1S88.67,43,88.59,43H87.44s0-1,0-1-.22-.51-.33-.48c-.45.1-.88,0-1.29.21s-.75.28-1.12.5-.63.3-1,.46a1.71,1.71,0,0,1-.73.16h-.52a3.38,3.38,0,0,1-1.12-.21l-2-.7a5.56,5.56,0,0,0-2.78-.2,3,3,0,0,0-.5.17l-1.86.87a.73.73,0,0,0-.16.09A.61.61,0,0,0,74,43a.18.18,0,0,0,0,.22l.21.11,1.24.51.48.21a.91.91,0,0,1,.35.31.58.58,0,0,1,.07.17.16.16,0,0,1-.15.19l-.28-.06-.86-.27-.32-.08a2.23,2.23,0,0,0-1.86.35,8.79,8.79,0,0,0-1.21.94l-.2.21a.2.2,0,0,0,0,.26.61.61,0,0,0,.12.08l.61.27.58.23a2.56,2.56,0,0,1,1.4,1.55.38.38,0,0,1-.12.43,2.51,2.51,0,0,1-.49.29,10.47,10.47,0,0,1-1.47.56,11,11,0,0,1-2.3.42,10.64,10.64,0,0,1-1.62,0,1,1,0,0,0-.88.38l-.51.63c-.1.12-.2.25-.32.36a.71.71,0,0,1-.46.23l-1.57.19c-1,.12-1.93.21-2.89.38a14.44,14.44,0,0,0-2.27.56,5.68,5.68,0,0,1-.83.22,2.73,2.73,0,0,1-.81,0,1.82,1.82,0,0,0-.38,0,1,1,0,0,0-.78.49,1.85,1.85,0,0,0-.25.62,3.46,3.46,0,0,0-.05.38.72.72,0,0,0,.2.62,1.19,1.19,0,0,1,.34.77,1.6,1.6,0,0,0,.4.9l.1.11a.62.62,0,0,1,.18.48q0,.19,0,.38a7.36,7.36,0,0,0,.16,1.66,4.62,4.62,0,0,0,.88,1.89,5.58,5.58,0,0,0,1.6,1.42c.63.37,1.27.72,1.94,1a12.89,12.89,0,0,1,1.55.84,10.25,10.25,0,0,1,1.33,1,3.27,3.27,0,0,1,.24.23.5.5,0,0,1,.12.44,1.49,1.49,0,0,1-.44.83,1.9,1.9,0,0,1-.84.44.38.38,0,0,1-.39-.11L63.36,67c-.21-.26-.41-.53-.63-.78a3.5,3.5,0,0,0-1.39-1l-.09,0a.3.3,0,0,0-.45.27,1.69,1.69,0,0,0,0,.28c0,.8-.08,1.59,0,2.39a4.87,4.87,0,0,0,.08.76c0,.12,0,.25.05.38a.45.45,0,0,1-.14.43.59.59,0,0,0-.16.62,9.2,9.2,0,0,0,3.07,5.16,7.32,7.32,0,0,0,2.58,1.4,4.83,4.83,0,0,0,1.41.2c.37,0,.73,0,1.1,0A.57.57,0,0,0,69,77a.36.36,0,0,0,.19-.36c0-.17-.05-.35-.08-.52A9.53,9.53,0,0,1,69,74.36a4.46,4.46,0,0,1,.08-.66,1.54,1.54,0,0,1,.41-.8,2.67,2.67,0,0,1,1.6-.79.31.31,0,0,1,.26.09.19.19,0,0,1,.07.17c0,.11-.05.22-.08.33l-.24.92a3.13,3.13,0,0,0,0,1.56,5.38,5.38,0,0,0,.5,1.29l.48.88a3.61,3.61,0,0,1,.25.61.71.71,0,0,1-.15.71,2.15,2.15,0,0,1-1.07.69,2,2,0,0,1-.61.09h-.29a.49.49,0,0,0-.43.25,4.59,4.59,0,0,0-.23.47l-.71,1.62a3.16,3.16,0,0,1-.45.73l-.09.11a.52.52,0,0,1-.57.12,1,1,0,0,1-.54-.51,5.61,5.61,0,0,1-.33-.89L66.6,80.3c0-.15-.07-.31-.12-.46a.94.94,0,0,0-.21-.37.12.12,0,0,0-.2,0,1.21,1.21,0,0,0-.12.21,16.89,16.89,0,0,0-.86,2.58,4.91,4.91,0,0,0-.13.9,5.46,5.46,0,0,0,1.54,4.09,6.71,6.71,0,0,0,2.35,1.61l.89.36.17.08a.21.21,0,0,1,.09.2,1.7,1.7,0,0,1-.21.48,5.37,5.37,0,0,0-.65,1.73,3.7,3.7,0,0,0-.07.62c0,.53,0,1.05-.06,1.58a1,1,0,0,1-.13.5c-.12.21-.24.41-.37.61a9.83,9.83,0,0,0-.65,1.12L67,97.75a3.32,3.32,0,0,1-.17.29.23.23,0,0,1-.33,0l-.1-.1c-.94-1-2-1.88-2.95-2.8-.49-.45-1-.92-1.45-1.39a14,14,0,0,1-1-1.14l-.21-.26A7.22,7.22,0,0,1,59.33,89c-.07-.52-.17-1-.28-1.55a6.37,6.37,0,0,0-1.38-2.85c-.1-.12-.2-.25-.29-.38a.49.49,0,0,1-.08-.36,1.87,1.87,0,0,1,.1-.42,8.4,8.4,0,0,0,.32-1.29,9.34,9.34,0,0,0,.09-1.71,6,6,0,0,0-.2-1.42A4.66,4.66,0,0,0,57,77.51c-.48-.71-.9-1.47-1.32-2.21-.14-.25-.28-.5-.42-.75a4.59,4.59,0,0,0-.76-1,3.09,3.09,0,0,0-1-.65c-.43-.17-.87-.3-1.31-.43h0c-.23,0-.41,0-.34.32a2.78,2.78,0,0,0,.14.46c.13.34.26.68.41,1a2.78,2.78,0,0,1,.24,1.35,5.18,5.18,0,0,1-.35,1.67A4.6,4.6,0,0,0,51.85,79c0,.18,0,.35,0,.53a.32.32,0,0,1-.42.27.46.46,0,0,1-.26-.2,1.15,1.15,0,0,1-.17-.39c-.05-.27-.12-.53-.16-.8s-.13-.82-.19-1.23a11.57,11.57,0,0,0-.4-1.77,4.4,4.4,0,0,0-1.12-1.86,6.17,6.17,0,0,1-.68-.8L48,72.2c-.17-.25-.35-.49-.53-.74s-.27-.35-.42-.52a3.28,3.28,0,0,0-2.3-1.12,17,17,0,0,0-1.77,0,.7.7,0,0,0-.23.06.24.24,0,0,0-.11.36c.15.21.3.41.46.61s.28.3.43.45a2.16,2.16,0,0,1,.56,1,6,6,0,0,1,.09.66,2.34,2.34,0,0,1,0,.29,7.79,7.79,0,0,0,.25,2,5.56,5.56,0,0,1,.17,1.23,4.59,4.59,0,0,0,.53,2.06l.42.8a.84.84,0,0,1,.1.36.29.29,0,0,1-.16.27l0,0a1.16,1.16,0,0,1-.47.07l-.86,0L42.75,80a4.69,4.69,0,0,0-.67,0,5.42,5.42,0,0,1-1,0c-.29,0-.57,0-.86-.07a3,3,0,0,1-1.91-1c-.12-.13-.22-.27-.33-.41l-.77-1a.89.89,0,0,0-.28-.26,1.5,1.5,0,0,0-.53,0,4,4,0,0,1-.58.06v.86s.45,0,.47,0,.22.19.23.28c0,.25.12.51.15.76,0,.43.15.85.18,1.28a3.26,3.26,0,0,0,.15.65c0,.17.12.33.17.5a4.67,4.67,0,0,0,1.35,2.05c.15.14.31.27.48.4a1.81,1.81,0,0,1,.64.82,3.08,3.08,0,0,0,.9,1.22,2,2,0,0,0,1.64.48l1.09-.14c.21,0,.41,0,.62,0a3.23,3.23,0,0,1,.52,0,.7.7,0,0,1,.55.54.31.31,0,0,1-.07.27.82.82,0,0,1-.31.22l-.27.1a3,3,0,0,0-1.74,1.47l-.23.47a1.89,1.89,0,0,1-.68.72,1.06,1.06,0,0,1-.78.15,2,2,0,0,1-.66-.26l-1.6-.94-.37-.21-.14,0c-.1,0-.23.11-.19.21a2.28,2.28,0,0,0,.14.3l1.62,2.87a5.22,5.22,0,0,0,.64.89,3.39,3.39,0,0,0,2.14,1.14,1.52,1.52,0,0,0,.66,0,4.24,4.24,0,0,1,1.23-.18,2.18,2.18,0,0,0,.74-.15,3.55,3.55,0,0,0,1-.52l.71-.57,1.13-1a2.88,2.88,0,0,1,.55-.38.52.52,0,0,1,.46,0l.48.22a1.62,1.62,0,0,0,1.21.09l.18-.05a.87.87,0,0,1,.8.21,1,1,0,0,1,.27.33,6.41,6.41,0,0,1,.34.79A7.45,7.45,0,0,1,52.52,95a14,14,0,0,1-.11,2.91,13.81,13.81,0,0,1-.63,2.59c-.06.18-.12.36-.18.55a.47.47,0,0,0,0,.28,1.72,1.72,0,0,0,1.12,1.21l.27.08.87.25a1.69,1.69,0,0,1,1,.67,6,6,0,0,1,.4.65,7.58,7.58,0,0,1,.57,1.31c.2.61.38,1.21.57,1.82.28.9.53,1.8.85,2.69a12.1,12.1,0,0,0,.88,2,6.18,6.18,0,0,0,1,1.33,4.27,4.27,0,0,0,1.6,1l.18,0a.25.25,0,0,0,.22-.07.89.89,0,0,0,.14-.19,1.78,1.78,0,0,0,.1-.27c0-.11.06-.21.1-.32a1.18,1.18,0,0,1,.11-.21.27.27,0,0,1,.38-.06,1.91,1.91,0,0,1,.38.42l.89,1.24a4,4,0,0,0,1.12,1.1l.12.08a.67.67,0,0,1,.26.44c.06.39.12.78.18,1.18s.08.63.13.95a17.19,17.19,0,0,0,.63,2.45,16.09,16.09,0,0,0,3.2,5.66A28.8,28.8,0,0,0,71,128.84l.08.06,0,0,0,0c.16.05.31,0,.29-.19-.05-.59-.12-1.17-.17-1.76,0-.32,0-.64-.06-1a.62.62,0,0,1,.07-.33.18.18,0,0,1,.21,0l.1.1c.16.22.31.44.48.66A6,6,0,0,0,73.89,128l.16.1a.48.48,0,0,1,.13.14,1.26,1.26,0,0,1,.15,1.18c-.05.11-.09.24-.13.36a.49.49,0,0,1-.43.33,5.26,5.26,0,0,1-.53,0,14.34,14.34,0,0,0-2.14.19,13.8,13.8,0,0,0-2.53.7c-1.32.5-2.65,1-4,1.51a14.14,14.14,0,0,1-2.77.71,2.26,2.26,0,0,1-.43,0,.38.38,0,0,1-.29-.14l-.18-.23-.37-.5-.26-.34a2.26,2.26,0,0,0-1-.71l-1.84-.65a12.14,12.14,0,0,1-1.58-.67A3.46,3.46,0,0,1,54.62,129a2.39,2.39,0,0,0-.87-.74,5.81,5.81,0,0,0-2.46-.68c-.33,0-.67,0-1,0a3.93,3.93,0,0,0-.85.09,3.85,3.85,0,0,0-1.79.85,2.37,2.37,0,0,1-.92.49l-.28.06a7.08,7.08,0,0,0-1.19.34,6.31,6.31,0,0,0-1.45.71,3.8,3.8,0,0,0-1.6,2.24l-.28,1.06c-.06.23-.13.46-.18.7s-.09.25,0,.36.24,0,.34-.06l.87-.58c.2-.13.39.16.59,0s.66.12,1,.12h.62c.35,0,.69-.35,1-.23s.55,0,.77.25a3.34,3.34,0,0,0,1.34.69c.2.07.4.06.59.13s.3.07.45.13.14.11.13.17a.18.18,0,0,1-.12.13,1.32,1.32,0,0,1-.42.1,8.61,8.61,0,0,1-1,0l-1,0a5.55,5.55,0,0,0-2.29.41,4,4,0,0,0-1.64,1.12,4.44,4.44,0,0,1-.59.56,7.56,7.56,0,0,0-.6.54c-.29.29-.57.6-.86.9a5,5,0,0,0-1.17,2c-.28.88-.49,1.78-.73,2.67a2.12,2.12,0,0,0,0,.42.17.17,0,0,0,.08.16.2.2,0,0,0,.22,0l.28-.26,1.17-1.2.48-.47a1.66,1.66,0,0,1,1.31-.45c.32,0,.63.06.95.12a6.61,6.61,0,0,0,1.14.14,2.57,2.57,0,0,1,.75.13l.23.07a2.76,2.76,0,0,0,1.83-.07l.48-.2.66-.27a2.26,2.26,0,0,1,1-.14,1.11,1.11,0,0,1,.53.19l.07.07a.13.13,0,0,1,0,.09,1.22,1.22,0,0,1-.09.22,10.15,10.15,0,0,1-.95,1.37.76.76,0,0,1-.35.24l-.59.2a2.69,2.69,0,0,0-1.7,1.63,1.87,1.87,0,0,1-.54.77c-.27.22-.55.44-.84.64a1.76,1.76,0,0,1-1,.31h-.77l-1.53,0-.43,0a.25.25,0,0,0-.2.18.25.25,0,0,0,.1.21l.28.19L44,149.3a13.69,13.69,0,0,0,1.43.77,4.13,4.13,0,0,0,2.18.38c.35,0,.7,0,1.05,0a1.22,1.22,0,0,1,.51.08.65.65,0,0,0,.19,0,2.16,2.16,0,0,0,1.12-.19,1,1,0,0,0,.51-.48,7.19,7.19,0,0,1,.37-.67,4.85,4.85,0,0,1,.6-.8,2.94,2.94,0,0,1,.62-.52,1.68,1.68,0,0,1,.44-.19,1.31,1.31,0,0,1,.66,0A.35.35,0,0,1,54,148a1.77,1.77,0,0,1-.7,1.44c-.57.4-1.13.82-1.73,1.19-.3.18-.58.4-.86.61a1.92,1.92,0,0,0-.49.52c-.07.11-.08.16,0,.26l.34.4a2.65,2.65,0,0,0,1.83.92,4,4,0,0,0,2.19-.36,6.3,6.3,0,0,1,1.25-.45,4.4,4.4,0,0,0,2.25-1.37,6.24,6.24,0,0,0,1.44-2.71,6.6,6.6,0,0,0,.19-1.18,1.89,1.89,0,0,1,.35-1,1.22,1.22,0,0,1,.78-.51,2.11,2.11,0,0,1,.85,0,8.21,8.21,0,0,1,2,.66q1.37.67,2.71,1.41l1.09.59a10.1,10.1,0,0,0,1.08.5l1.43.55,1.35.48.28.07a.25.25,0,0,0,.13,0s0-.14,0-.18l-.08-.12c-.18-.21-.35-.42-.53-.62l-1.44-1.6a4.18,4.18,0,0,1-.47-.6.62.62,0,0,1-.06-.13.17.17,0,0,1,.1-.19l.14,0a2.63,2.63,0,0,1,.74.17l3,1.07a17.89,17.89,0,0,0,2.14.67c.36.08.71.17,1.07.22a5.43,5.43,0,0,0,1.43,0,3.25,3.25,0,0,0,1.59-.59,6.06,6.06,0,0,0,1.2-1.16l.13-.2a.15.15,0,0,0,0-.18,1.14,1.14,0,0,0-.21-.19c-.18-.1-.36-.2-.55-.29a6.44,6.44,0,0,1-2.69-2.44.71.71,0,0,1-.06-.18s.06-.15.1-.14a2.29,2.29,0,0,1,.38,0c.17,0,.34.09.51.14.84.24,1.69.45,2.55.62q.94.18,1.89.31a16.06,16.06,0,0,0,2.48.15l.62,0,1.19-.14a11,11,0,0,0,2.41-.59,1.86,1.86,0,0,0,.34-.16.58.58,0,0,0,.28-.69c-.06-.21-.14-.42-.21-.63a1.86,1.86,0,0,0-.73-.92l-.41-.25-.53-.32a1.48,1.48,0,0,1-.51-.56,2.47,2.47,0,0,1-.23-.57,2.1,2.1,0,0,1,0-1.09.23.23,0,0,1,0-.09.14.14,0,0,1,.07-.05.31.31,0,0,1,.14,0c.17.05.33.11.49.18a2,2,0,0,0,1.53,0,4.37,4.37,0,0,0,1-.53l.95-.73.26-.21a1.32,1.32,0,0,1,1.13-.23l.74.19a16.68,16.68,0,0,0,2.48.5c.46.06.92.1,1.38.14.79.08,1.59.15,2.38.16s1.63,0,2.44,0a7.24,7.24,0,0,0,1.7-.25,7.46,7.46,0,0,0,1.25-.46l2.46-1.15a3.72,3.72,0,0,1,.58-.21.25.25,0,0,1,.18,0,.48.48,0,0,1,.2.2,1.72,1.72,0,0,1,.19.68,1.12,1.12,0,0,1-.21.77c-.16.22-.31.44-.48.65a12.42,12.42,0,0,1-2.82,2.56,16.8,16.8,0,0,1-3.65,1.86,15.22,15.22,0,0,1-5.18,1c-.17,0-.35,0-.53,0l-.76.08-.09,0a.21.21,0,0,0-.09.25,1.47,1.47,0,0,0,.14.19l.61.67a3.78,3.78,0,0,1,.56.77c.21.39.4.8.64,1.17l0,0a.28.28,0,0,1,0,.31,1.46,1.46,0,0,1-.19.22c-.21.22-.43.43-.63.65s-.45.5-.66.75a2.77,2.77,0,0,0-.57,1.09,7.86,7.86,0,0,0-.25,1.65,8.37,8.37,0,0,0,.13,1.33c0,.33.1.66.17,1s.12.46.18.69c.13.54.26,1.09.37,1.63a5.25,5.25,0,0,1,.13,1.14,9.92,9.92,0,0,1-.1,1.33A11.13,11.13,0,0,1,95,161.1a4.53,4.53,0,0,1-.47.94,2.25,2.25,0,0,1-.21.25.23.23,0,0,1-.17.08,1.26,1.26,0,0,1-.24,0l-1-.16a1.67,1.67,0,0,1-.91-.5,3,3,0,0,1-.51-.68l-.31-.59-.43-.8c-.05-.1-.11-.19-.18-.28a.39.39,0,0,0-.28-.16,1.86,1.86,0,0,0-.29,0l-.53,0a1.9,1.9,0,0,1-.88-.19,2.9,2.9,0,0,1-.89-.63,13.64,13.64,0,0,1-1-1.12l-.41-.53a4,4,0,0,0-.6-.62,1.25,1.25,0,0,0-1-.29,2.41,2.41,0,0,0-.9.29l0,0a2.25,2.25,0,0,1-.87.24,6.1,6.1,0,0,0-1.09.13,4.56,4.56,0,0,0-1.56.7,4.66,4.66,0,0,0-1.67,2c-.27.65-.51,1.3-.76,2a1.53,1.53,0,0,0-.06.23.18.18,0,0,0,.13.18.59.59,0,0,0,.37,0l1-.47.39-.17a1.68,1.68,0,0,1,1.26,0l.36.14a3.82,3.82,0,0,0,.87.25,2.19,2.19,0,0,1,1,.41,2.52,2.52,0,0,0,.46.25,4.29,4.29,0,0,0,.72.26l.23.07a.16.16,0,0,1,.1.15c0,.06-.06.11-.13.11h-.19l-1.51-.24a7.31,7.31,0,0,0-1.43-.11,3.73,3.73,0,0,0-1.74.44.81.81,0,0,1-.45.12.54.54,0,0,0-.44.24,2.06,2.06,0,0,0-.13.2c-.69,1.07-1.38,2.14-2.06,3.22a10.26,10.26,0,0,0-.55,1,6.74,6.74,0,0,0-.65,2.14c0,.29-.07.57-.11.85s-.09.57-.12.85a1.3,1.3,0,0,0,0,.24.22.22,0,0,0,.28.18.62.62,0,0,0,.24-.15l1-.89a3.3,3.3,0,0,1,1.05-.64,1.19,1.19,0,0,1,.42-.09H79a3.73,3.73,0,0,1,1.43.34l.4.15a2.52,2.52,0,0,0,.9.08,1.52,1.52,0,0,0,.85-.27l.68-.44a3.46,3.46,0,0,1,.33-.19.92.92,0,0,1,.78-.08c.21.08.42.13.63.22a2.47,2.47,0,0,1,.41.24.35.35,0,0,1,.1.16.19.19,0,0,1-.13.26l-.37.1c-.37.1-.75.17-1.11.29a2.53,2.53,0,0,0-1.71,1.54,4.66,4.66,0,0,1-.67,1.15l-.63.84a6,6,0,0,0-.7,1.25,13.05,13.05,0,0,0-.63,1.9c-.2.77-.33,1.56-.46,2.34a2.68,2.68,0,0,0,0,.38.19.19,0,0,0,.25.16l.17-.09,1-.71A4.12,4.12,0,0,1,82,178.9a5.83,5.83,0,0,1,1.28-.14h2.1a1.87,1.87,0,0,0,1-.22l.85-.44A8,8,0,0,0,89,176.75a9.66,9.66,0,0,0,1.14-1.35c.1-.14.2-.29.31-.42a.4.4,0,0,1,.33-.16l.67,0a2.59,2.59,0,0,0,1.16-.2,4.16,4.16,0,0,0,1-.57l.57-.44a.38.38,0,0,1,.17-.07.17.17,0,0,1,.18.12,1.88,1.88,0,0,1,0,.24,3.1,3.1,0,0,1-.12.65,2,2,0,0,1-.88,1.25l-.55.38-.32.21A3.17,3.17,0,0,0,91.35,178a.65.65,0,0,1-.29.37,5.66,5.66,0,0,0-.8.6,2,2,0,0,1-.27.2,1.8,1.8,0,0,1-1.28.27l-.71-.11a2.8,2.8,0,0,0-.81,0,.21.21,0,0,0-.16.21.91.91,0,0,0,.06.23,12.68,12.68,0,0,0,.93,1.61,2.41,2.41,0,0,0,.25.29,3.71,3.71,0,0,0,2,1.09,2.16,2.16,0,0,0,1.18-.06,2.54,2.54,0,0,1,.37-.1.58.58,0,0,1,.42.06l.33.19c.15.09.29.2.44.28a1.84,1.84,0,0,0,.43.2,3.21,3.21,0,0,0,1.84,0,2.52,2.52,0,0,0,1.8-2c0-.23.13-.46.15-.7a1.22,1.22,0,0,1,.59-.93c.37-.25.73-.52,1.08-.79a6.08,6.08,0,0,0,1.38-1.44,4.35,4.35,0,0,0,.8-2.36,1.74,1.74,0,0,1,.33-1,4.29,4.29,0,0,0,.79-1.93.93.93,0,0,1,.44-.7l.91-.62c.2-.13.4-.27.58-.42a3,3,0,0,0,1.1-1.64,5.21,5.21,0,0,0,.16-.94,7.73,7.73,0,0,0,0-1.58c-.07-.55-.08-1.11-.1-1.67a6,6,0,0,1,.12-1.42,6.07,6.07,0,0,1,1.49-2.95c.19-.21.4-.42.6-.61.61-.6,1.24-1.2,1.84-1.81a10.73,10.73,0,0,0,1.91-2.61l.18-.33.11-.15a.22.22,0,0,1,.22,0,.23.23,0,0,1,.13.13s0,.09,0,.14a6.37,6.37,0,0,1-.05,1.57c0,.3-.1.6-.14.9-.11.87-.16,1.74-.28,2.61a3.27,3.27,0,0,0,0,1l0,.28a5.59,5.59,0,0,0,.58,1.76,7.45,7.45,0,0,0,1.16,1.63,9.51,9.51,0,0,0,3.87,2.46,5.39,5.39,0,0,0,1,.25,9.32,9.32,0,0,0,2.1.06l.38,0a10.91,10.91,0,0,0,1.7-.26,16.76,16.76,0,0,0,2.41-.76,25.7,25.7,0,0,0,3-1.42l2.6-1.42.38-.2a.31.31,0,0,1,.42.19c0,.08,0,.15.07.23a5.53,5.53,0,0,1,.17,1.23,28.3,28.3,0,0,1,0,3.15,13.91,13.91,0,0,1-.21,1.8,6.69,6.69,0,0,1-1.35,3.07,6.46,6.46,0,0,0-.81,1.35,4.13,4.13,0,0,0-.39,1.37c0,.16,0,.32,0,.48a.46.46,0,0,1-.32.43,3.12,3.12,0,0,1-.37.1,9.53,9.53,0,0,1-2,.27c-.81,0-1.62.09-2.43.19l-.33,0a3.77,3.77,0,0,0-.8.15,4.85,4.85,0,0,0-1.85,1,17.5,17.5,0,0,0-1.41,1.29,1.15,1.15,0,0,1-1,.47,6.5,6.5,0,0,0-1.31.26,7.52,7.52,0,0,0-3.63,2.46,5.22,5.22,0,0,0-1,2c-.07.26-.11.53-.16.79a2.93,2.93,0,0,1-.29,1,8.45,8.45,0,0,0-.77,2.1c-.1.45-.18.9-.27,1.36a5.58,5.58,0,0,0-.11,1.14c0,.39,0,.77,0,1.15a5.08,5.08,0,0,0,.16,1,5,5,0,0,0,.22.68,15.37,15.37,0,0,0,1.11,2.16.49.49,0,0,0,.19.21.13.13,0,0,0,.16,0,.74.74,0,0,0,.06-.18,17.19,17.19,0,0,0,.22-2,3.07,3.07,0,0,1,.35-1.33c.1-.19.19-.36.3-.54.39-.64.84-1.24,1.27-1.85a.57.57,0,0,1,.35-.24,3.28,3.28,0,0,0,1.11-.54l.61-.46.47-.33a.29.29,0,0,1,.35,0,.29.29,0,0,1,0,.31.7.7,0,0,1-.15.18,2.59,2.59,0,0,1-.28.18l-.49.3a3.79,3.79,0,0,0-1.36,1.5,4.49,4.49,0,0,0-.44,2.74c0,.1,0,.19.06.28a.75.75,0,0,1-.06.47c-.06.13-.13.26-.2.38a6.25,6.25,0,0,0-.74,3.69,2.8,2.8,0,0,0,.3,1,3.72,3.72,0,0,0,1,1.24c.17.13.27.07.36-.06a.63.63,0,0,0,.11-.26c.06-.3.11-.59.19-.89a3.31,3.31,0,0,1,1.12-1.79c.33-.27.68-.52,1-.76a3.77,3.77,0,0,1,1.25-.58l.14,0a4.37,4.37,0,0,0,2.19-1.85,6.51,6.51,0,0,0,.78-2.14c.07-.38.12-.75.18-1.13s.08-.5.13-.75a.4.4,0,0,1,.4-.35.69.69,0,0,1,.5.13.27.27,0,0,1,.12.24.65.65,0,0,1,0,.23c-.05.13-.12.26-.18.39a7.08,7.08,0,0,0-.63,2.53,12.67,12.67,0,0,0,0,1.58,5.39,5.39,0,0,0,.33,1.68c.11.28.19.57.3.86a.59.59,0,0,1-.07.55,3.55,3.55,0,0,1-.29.38,8.79,8.79,0,0,1-2.16,1.72l-.37.21a.88.88,0,0,0-.17.16.19.19,0,0,0,0,.26.75.75,0,0,0,.17.1l.73.22c.14,0,.28,0,.41,0s0,0,0,0H124s0,0,0,0c.21-.06.43-.06.64-.13a6.58,6.58,0,0,0,2.15-1.09,9.83,9.83,0,0,0,2.21-2.41,4.3,4.3,0,0,0,.64-3.15c-.09-.54-.2-1.09-.31-1.64a7.84,7.84,0,0,1-.16-1.37,5.28,5.28,0,0,1,0-.67,1,1,0,0,1,.07-.27,1.19,1.19,0,0,1,.62-.7c.2-.1.4-.19.61-.28a3.44,3.44,0,0,0,1.16-.82l.16-.18.1-.1a.19.19,0,0,1,.31.1,1.31,1.31,0,0,1-.31,1.33c-.19.2-.38.39-.56.59s-.44.5-.65.77a3.85,3.85,0,0,0-.7,1.4,2.86,2.86,0,0,0-.11,1,3.31,3.31,0,0,0,.3,1.1l.25.52a.77.77,0,0,1,.06.51c0,.23-.1.47-.14.7a3.37,3.37,0,0,1-.36,1.08c-.12.22-.25.44-.39.66l-.76,1.16a2.34,2.34,0,0,0-.27.51.24.24,0,0,0,.13.28.68.68,0,0,0,.23.06,11.43,11.43,0,0,0,1.53,0l.24,0a4.61,4.61,0,0,0,1.89-.87,3.31,3.31,0,0,0,1-1.24c.09-.19.19-.37.28-.55a.5.5,0,0,1,.29-.24,2.24,2.24,0,0,1,.37-.1,1.2,1.2,0,0,0,.6-.27,3.26,3.26,0,0,0,.32-.29,5.21,5.21,0,0,0,.8-1.13,10.31,10.31,0,0,0,.77-1.9,16.76,16.76,0,0,0,.65-4.91c0-.3,0-.6,0-.91s0-.47-.06-.71a.92.92,0,0,1,.2-.67l.21-.27a13.6,13.6,0,0,0,1.52-2.42l1.25-2.58a9.3,9.3,0,0,0,.62-1.7,4.81,4.81,0,0,0,.16-1.13,5.06,5.06,0,0,0-.25-1.74c-.12-.36-.25-.72-.39-1.08s-.37-.91-.56-1.37a5.53,5.53,0,0,1-.42-1.56A7.47,7.47,0,0,1,140,171a4.91,4.91,0,0,1,.48-1.35,1.61,1.61,0,0,1,1.1-.84,5.06,5.06,0,0,1,1.71-.1c.38,0,.76.1,1.14.13s.61,0,.91,0l.09,0a.17.17,0,0,0,.1-.15.39.39,0,0,0,0-.14.74.74,0,0,0-.1-.16l-1-1.29a4.75,4.75,0,0,1-.93-2c0-.24-.11-.47-.14-.7a7.45,7.45,0,0,1-.11-1.19,9.67,9.67,0,0,1,.91-3.87l.36-.68.67-1.21a5.82,5.82,0,0,0,.54-1.27,22.3,22.3,0,0,0,.46-2.2,3.44,3.44,0,0,0,0-.43,1.45,1.45,0,0,0,0-.14.17.17,0,0,0-.19-.11l-.18,0a3,3,0,0,0-.68.34,4,4,0,0,1-1.42.52,3.27,3.27,0,0,1-1.33,0,1.71,1.71,0,0,1-.64-.32.63.63,0,0,1-.24-.45,1.35,1.35,0,0,1,.32-1,3.61,3.61,0,0,1,.59-.56l.87-.67c.2-.16.39-.33.57-.5a3.31,3.31,0,0,0,.86-1.36c.07-.23.15-.45.22-.68a5.77,5.77,0,0,0,.17-.89.6.6,0,0,0,0-.33.23.23,0,0,0-.19-.13l-.28,0c-.29.07-.59.15-.88.21s-.57.08-.85.11a.2.2,0,0,1-.2-.29,1.27,1.27,0,0,1,.15-.24c.11-.15.24-.29.35-.45a6.29,6.29,0,0,0,1.14-3.44,10,10,0,0,0-.39-3,1.45,1.45,0,0,0-.2-.43.17.17,0,0,0-.21,0,1.5,1.5,0,0,0-.38.36l-.39.48a2.27,2.27,0,0,1-.74.59,1.37,1.37,0,0,1-1.2,0,2.42,2.42,0,0,1-1.06-.86,3.29,3.29,0,0,1-.53-1.22,2.21,2.21,0,0,1,0-1,11.92,11.92,0,0,1,.49-1.55,18.71,18.71,0,0,1,1-2.2c.26-.49.54-1,.81-1.46.35-.64.69-1.29,1-2a3,3,0,0,1,.21-.38.18.18,0,0,1,.26,0,1.56,1.56,0,0,1,.16.24l.61,1.24a16.26,16.26,0,0,0,3.37,4.6,19,19,0,0,0,4.88,3.32,1.43,1.43,0,0,0,.69.16,1,1,0,0,1,.8.35c.19.2.39.38.58.56a8.12,8.12,0,0,0,1.46,1.08,3.45,3.45,0,0,0,1.77.49,5.55,5.55,0,0,0,1.83-.3c.71-.24,1.39-.55,2.07-.85l1.27-.54a17,17,0,0,1,1.82-.57,16.39,16.39,0,0,0,2.38-.85,7.82,7.82,0,0,0,1.37-.78,5.42,5.42,0,0,0,2.1-3c.06-.21.13-.43.19-.64a1.58,1.58,0,0,1,.09-.22.3.3,0,0,1,.21-.17l.52-.08.33,0a1.56,1.56,0,0,0,.76-.37,4.29,4.29,0,0,0,.61-.67,16.37,16.37,0,0,0,1.09-1.62,44.73,44.73,0,0,0,3.33-6.76,29.56,29.56,0,0,0,1.22-3.77,16.83,16.83,0,0,0,.41-2.54,16.27,16.27,0,0,0,0-1.86c0-.51-.05-1-.09-1.53a1.17,1.17,0,0,1,.31-1.15,5.58,5.58,0,0,0,.74-1.44,8.89,8.89,0,0,0,.46-2.38c0-.18-.29-.35-.28-.53s-.25-.08-.25-.12v-1.63C179.87,108.08,180.19,108,180.17,107.92Z"/><path class="cls-7" d="M89,40.8a.38.38,0,0,1-.13,0,.52.52,0,0,0-.26,0h.57Z"/><path class="cls-8" d="M157.89,82.64l2,0a9.44,9.44,0,0,1,1.95.21,2.75,2.75,0,0,1,1.25.58c.29.25.58.5.86.76l.45.43a4.44,4.44,0,0,0,.68.53,2,2,0,0,0,1.41.31c.24,0,.47-.07.71-.12a2,2,0,0,1,1.34.17,6.5,6.5,0,0,1,1.4.91c.27.23.52.47.77.72A18.27,18.27,0,0,1,174,91.52a9.9,9.9,0,0,1,1,3.06c.06.39.09.79.12,1.19s.08.89.12,1.33a1.18,1.18,0,0,0,.21.58,2.34,2.34,0,0,0,1,.86l.57.25a1.31,1.31,0,0,1,.65.67,11.76,11.76,0,0,1,.5,1.29,26.05,26.05,0,0,1,1,4,21.76,21.76,0,0,1,.28,3.76,11,11,0,0,1-.44,3c-.05.17-.11.33-.17.5a3.28,3.28,0,0,1-.81,1.23,3.38,3.38,0,0,0-.26.28.5.5,0,0,0-.11.36c0,.11,0,.22,0,.33a15,15,0,0,1,.19,3.33c0,.43-.05.86-.09,1.29a13.84,13.84,0,0,1-.37,1.87,24,24,0,0,1-1,3.18,43.25,43.25,0,0,1-3,6.23c-.36.6-.74,1.19-1.15,1.76a4.4,4.4,0,0,1-.43.51,1.17,1.17,0,0,1-.9.37c-.16,0-.32,0-.47,0a1.82,1.82,0,0,0-.57,0,.51.51,0,0,0-.4.37,2.73,2.73,0,0,0-.1.52,5.56,5.56,0,0,1-.27,1.26,4.14,4.14,0,0,1-1.19,1.81,5.69,5.69,0,0,1-1.1.76,8.25,8.25,0,0,1-1.31.57l-1.63.54-.41.12a10.77,10.77,0,0,0-1.94.67L160,140a13.06,13.06,0,0,1-1.47.56,4.51,4.51,0,0,1-1,.19,3,3,0,0,1-1.82-.46,7.72,7.72,0,0,1-1.31-1l-.5-.51-.31-.3a.77.77,0,0,0-.61-.23h-.24a1.19,1.19,0,0,1-.6-.11l-.17-.08a18.45,18.45,0,0,1-3.34-2.13,15.51,15.51,0,0,1-4.29-5.49,24.49,24.49,0,0,1-1.16-2.93c-.16-.48-.32-1-.49-1.45a2.13,2.13,0,0,0-.11-.27s0,0-.08,0a.11.11,0,0,0-.12.05.3.3,0,0,0-.06.13,1.89,1.89,0,0,0,0,.29,9.56,9.56,0,0,1-1.13,4.4c-.49.93-1,1.86-1.49,2.78a18.2,18.2,0,0,0-1.33,3.12,4.84,4.84,0,0,0-.23,1.88,4,4,0,0,0,1.62,3A2.53,2.53,0,0,0,141,142a2.32,2.32,0,0,0,1.21-.17l.52-.24a.63.63,0,0,1,.19,0,.23.23,0,0,1,.22.15,1.61,1.61,0,0,1,.06.28,5.31,5.31,0,0,1-.26,2.26,4.43,4.43,0,0,1-1.46,2,5.5,5.5,0,0,1-1.28.75l-.48.21a.21.21,0,0,0-.05.26.47.47,0,0,0,.09.11,2.33,2.33,0,0,0,.32.21,5,5,0,0,0,2.35.56h.62l.28,0a.21.21,0,0,1,.16.21.64.64,0,0,1-.1.32,2.2,2.2,0,0,1-.4.47l-.44.36c-.27.22-.56.42-.83.65a6.24,6.24,0,0,0-.56.52,2.75,2.75,0,0,0-.66,2.66,1.52,1.52,0,0,0,.39.65,2.43,2.43,0,0,0,1.06.63,2.69,2.69,0,0,0,.61.11,6.34,6.34,0,0,0,1.57-.06,1.51,1.51,0,0,1,.29,0c.24,0,.34.13.29.38a2.1,2.1,0,0,1-.08.27,7.34,7.34,0,0,1-.53,1.12l-.67,1.21a9.28,9.28,0,0,0-1.12,3.48,12.52,12.52,0,0,0-.09,1.28,9.57,9.57,0,0,0,.45,3.06c.09.29.19.58.28.87a.28.28,0,0,1-.19.34l-.33,0a5,5,0,0,0-1.4.29,2.41,2.41,0,0,0-1.15.82,3.71,3.71,0,0,0-.52.91,8.2,8.2,0,0,0-.55,3.84,7.4,7.4,0,0,0,.51,2.08c.28.71.54,1.43.84,2.13a4.1,4.1,0,0,1,.24,2,3.61,3.61,0,0,1-.14.6,9.69,9.69,0,0,1-.57,1.47l-.87,1.81a14.54,14.54,0,0,1-2,3.17c-.08.1-.16.2-.24.3a.82.82,0,0,0-.15.54c0,.08,0,.16,0,.24a11.13,11.13,0,0,1,.16,2.43,15.13,15.13,0,0,1-.46,3.5,10,10,0,0,1-.65,1.79,4.05,4.05,0,0,1-.76,1.1,1,1,0,0,1-.72.33,2.59,2.59,0,0,1-1.46-.35,3.64,3.64,0,0,1-1.36-1.32,1.87,1.87,0,0,1-.24-.62,1.71,1.71,0,0,1,.1-.89,3.13,3.13,0,0,1,.59-1l.42-.46c.24-.27.49-.55.72-.83a2.49,2.49,0,0,0,.54-1.92c0-.14,0-.28-.06-.43a12.13,12.13,0,0,1-.11-2.38c0-.14,0-.29,0-.43a.25.25,0,0,0-.35-.21,1.11,1.11,0,0,0-.45.34c-.16.22-.32.44-.47.66s-.17.3-.26.46-.23.38-.33.58a2.48,2.48,0,0,1-1.29,1.16c-.21.08-.4.19-.6.29a2.18,2.18,0,0,0-1,1.09,3,3,0,0,0-.29,1.25c0,.24,0,.48,0,.72a5.86,5.86,0,0,0,.13,1.09c.1.53.21,1.06.31,1.59a4,4,0,0,1,0,1.24,2.77,2.77,0,0,1-1.21,2,2.28,2.28,0,0,1-1.12.36h-.38a1.53,1.53,0,0,1-1.25-.6,2.7,2.7,0,0,1-.41-.69,5,5,0,0,1-.42-1.95c0-.38,0-.76,0-1.15a5.1,5.1,0,0,1,.31-1.54,4.65,4.65,0,0,1,.69-1.25c.1-.13.18-.26.27-.39a.41.41,0,0,0,0-.41,2.06,2.06,0,0,0-.17-.29,2.49,2.49,0,0,0-1.58-1l-.24,0a1.18,1.18,0,0,0-.78.12.94.94,0,0,0-.47.46,3.34,3.34,0,0,0-.34,1.24,10.49,10.49,0,0,1-.34,2,4.2,4.2,0,0,1-.49,1.14,3.22,3.22,0,0,1-2.1,1.52,2.82,2.82,0,0,1-1.37,0,1.59,1.59,0,0,1-.64-.31,2,2,0,0,1-.72-1.15,3.92,3.92,0,0,1,0-1.52,2.72,2.72,0,0,1,1.3-1.87,5,5,0,0,1,.85-.42l.31-.12a.52.52,0,0,0,.34-.48,2.35,2.35,0,0,0,0-.29c0-.24,0-.47,0-.71a1.77,1.77,0,0,1,.56-1.38c.19-.19.4-.36.6-.54l.27-.27a.16.16,0,0,0,0-.18.61.61,0,0,0-.27-.33,1,1,0,0,0-.87-.12,2.46,2.46,0,0,0-.8.42l-1.9,1.53-.6.47a2.68,2.68,0,0,1-.58.33.7.7,0,0,1-.72-.07,2.26,2.26,0,0,1-.39-.34,3.48,3.48,0,0,1-.92-2.68,3.62,3.62,0,0,1,.63-1.78,6.44,6.44,0,0,1,3.27-2.45,3.66,3.66,0,0,1,1.31-.22,2.14,2.14,0,0,0,.57,0,.84.84,0,0,0,.38-.19l.35-.33c.37-.35.73-.71,1.11-1.05a6,6,0,0,1,.59-.49,4.4,4.4,0,0,1,2.3-.84l1.1-.06c.78,0,1.56-.1,2.33-.2.28,0,.57-.05.85-.1a6.4,6.4,0,0,0,1.58-.52,3,3,0,0,0,1-.73,3.7,3.7,0,0,0,.3-.43.57.57,0,0,0,.05-.18.23.23,0,0,0-.2-.27l-.43,0a.31.31,0,0,1-.33-.37,3.33,3.33,0,0,1,.25-.77,6,6,0,0,1,.69-1.09,6.63,6.63,0,0,0,1-1.78,9.69,9.69,0,0,0,.32-1,13.66,13.66,0,0,0,.32-1.79,19.65,19.65,0,0,0,.07-3.58c0-.6-.08-1.21-.17-1.81s-.18-.94-.3-1.4a2.45,2.45,0,0,0-.22-.48.38.38,0,0,0-.45-.16,2.54,2.54,0,0,0-.49.2l-1.93,1.05-1.92,1.06a21.73,21.73,0,0,1-3.5,1.52,14.44,14.44,0,0,1-2.22.56,10.74,10.74,0,0,1-1.9.13c-.21,0-.41,0-.62,0a4.17,4.17,0,0,1-1.3-.26,8.32,8.32,0,0,1-2.41-1.24,7.32,7.32,0,0,1-1.94-2.09,4.45,4.45,0,0,1-.54-1.37,3.65,3.65,0,0,1-.07-.9c0-.38,0-.76.08-1.14s.08-.89.13-1.33c0-.24.08-.47.1-.71.06-.55.11-1.11.16-1.67a4.85,4.85,0,0,0,0-1,1.75,1.75,0,0,0-.54-1.09l-.42-.39a.29.29,0,0,1,0-.31,1.79,1.79,0,0,1,.13-.2l.63-.84a28.59,28.59,0,0,0,1.8-2.65,23.7,23.7,0,0,0,2.29-5.08,14.7,14.7,0,0,0,.54-2.42c0-.38.1-.76.14-1.14a4.73,4.73,0,0,0,0-1.05,9.41,9.41,0,0,0-.25-1.41,3.15,3.15,0,0,0-1.15-1.77,11.39,11.39,0,0,0-1.71-1.13,6.48,6.48,0,0,0-2-.68,4.39,4.39,0,0,0-.71-.06c-.67,0-1.34,0-2,0a4.86,4.86,0,0,0-1.58.33q-.47.17-.93.39l-2,.94a6.48,6.48,0,0,1-1.81.59,10.5,10.5,0,0,1-1.14.12,23.93,23.93,0,0,1-2.58,0c-.62,0-1.24-.09-1.86-.14-.41,0-.83-.06-1.24-.11a16.43,16.43,0,0,1-2.71-.54,5.81,5.81,0,0,0-1.17-.2,1.54,1.54,0,0,0-1.08.29l-1.08.78-.5.37a2.52,2.52,0,0,1-1,.4.73.73,0,0,1-.63-.16.55.55,0,0,1-.21-.36c0-.16,0-.32-.09-.47a.28.28,0,0,0-.34-.2,1.2,1.2,0,0,0-.4.15,1.87,1.87,0,0,0-.6.6,2.82,2.82,0,0,0-.28.61,3.85,3.85,0,0,0,0,2.53c0,.14.1.27.16.4a2.71,2.71,0,0,0,1.19,1.33l.33.19a1.77,1.77,0,0,1,.27.2c.15.14.16.31-.07.41a4.18,4.18,0,0,1-.68.22,4.56,4.56,0,0,1-.75.13c-.37,0-.73.06-1.09.11a6.38,6.38,0,0,1-1.43,0c-.59,0-1.18-.08-1.76-.14s-1.32-.2-2-.33c-1.31-.28-2.6-.63-3.87-1a10.17,10.17,0,0,0-1.14-.34,1.53,1.53,0,0,0-.28,0,.25.25,0,0,0-.23.25,1.69,1.69,0,0,0,.16.55,12.77,12.77,0,0,0,1.53,2.59,9.23,9.23,0,0,0,1.41,1.49l.44.37c.21.19.18.39-.08.52a2.77,2.77,0,0,1-.77.26,3.94,3.94,0,0,1-1.47,0,14.85,14.85,0,0,1-2.57-.71c-1.12-.41-2.25-.81-3.37-1.21a9.75,9.75,0,0,0-1.33-.39c-.28-.06-.57-.1-.85-.14a.54.54,0,0,0-.6.48,1,1,0,0,0,0,.43c.07.24.15.49.22.73s.07.25.09.37a.18.18,0,0,1-.22.17l-.3-.14-2.11-1.12-.94-.48a11.4,11.4,0,0,0-1.69-.67,5.71,5.71,0,0,0-1.17-.22,2.66,2.66,0,0,0-.95.09,2,2,0,0,0-1.1.72,3,3,0,0,0-.48.87,4.8,4.8,0,0,0-.26,1.21,4.8,4.8,0,0,1-1.2,2.76,3.68,3.68,0,0,1-1.51,1.06,2.65,2.65,0,0,1-1,.17.56.56,0,0,1-.55-.5,1.74,1.74,0,0,1,.05-.8l.5-1.65a2.88,2.88,0,0,0,.15-.84c0-.1,0-.19,0-.28a.7.7,0,0,0-.29-.53,1.16,1.16,0,0,0-.2-.12,2.48,2.48,0,0,0-2.62.18,4.16,4.16,0,0,0-1,.93c-.19.26-.36.53-.54.79l-.38.61a.59.59,0,0,1-.53.26,1.39,1.39,0,0,1-.6-.15A2.71,2.71,0,0,1,47.4,147a1.11,1.11,0,0,1,0-.28c0-.28,0-.57,0-.86a1.48,1.48,0,0,1,.72-1.18,2.3,2.3,0,0,1,.71-.28l.37-.09a.92.92,0,0,0,.48-.3c.13-.14.25-.29.36-.44l.63-.9a7.2,7.2,0,0,1,1.1-1.32,1.08,1.08,0,0,0,.13-.14.29.29,0,0,0,0-.36,1.81,1.81,0,0,0-.19-.27,2.29,2.29,0,0,0-.69-.51,3.59,3.59,0,0,0-2.13-.35,2.55,2.55,0,0,0-.55.16c-.37.14-.74.29-1.11.44a2.1,2.1,0,0,1-.64.16,2,2,0,0,1-1.06-.22,4,4,0,0,1-1.75-1.64,1.82,1.82,0,0,1-.18-.49,1.11,1.11,0,0,1,.19-.91,2,2,0,0,1,.63-.57,4.06,4.06,0,0,1,1.25-.47l.84-.16a1.79,1.79,0,0,1,.67,0,5.93,5.93,0,0,0,3.24-.34,4.49,4.49,0,0,0,1.6-1,4,4,0,0,0,.61-.79,1.06,1.06,0,0,0,.15-.45.28.28,0,0,0-.22-.27,2.74,2.74,0,0,0-.67,0,5.61,5.61,0,0,1-2,0l-.75-.14a3.57,3.57,0,0,1-1.19-.48,1.69,1.69,0,0,1-.65-.74,1.1,1.1,0,0,1-.12-.46,3.38,3.38,0,0,1,.16-1.13,2.53,2.53,0,0,1,1.1-1.4,3.43,3.43,0,0,1,1.24-.48,5.75,5.75,0,0,1,3.36.44,2.11,2.11,0,0,1,.76.56l.09.11a4.51,4.51,0,0,0,1.63,1.3,15.87,15.87,0,0,0,1.81.74c.47.16.93.34,1.4.49a1.84,1.84,0,0,1,1,.75c.16.24.31.48.47.72a3.28,3.28,0,0,0,.21.32.56.56,0,0,0,.41.22,5.61,5.61,0,0,0,1.38,0,14.26,14.26,0,0,0,2.62-.71l2.85-1.1a25,25,0,0,1,2.53-.86,9.28,9.28,0,0,1,2.64-.35l2.05,0h.62a.45.45,0,0,0,.36-.2l.11-.16a4,4,0,0,1,1-1l.59-.41c.29-.19.59-.37.88-.57a3.86,3.86,0,0,0,.48-.39.49.49,0,0,0,0-.72,2.45,2.45,0,0,0-.64-.41l-.43-.21a.28.28,0,0,1-.08-.11.12.12,0,0,1,0-.12l.09,0,1.08-.19.43,0a9.8,9.8,0,0,1,2.19.15c.3.05.6.08.9.11a1.29,1.29,0,0,0,.28,0,.25.25,0,0,0,.19-.29.93.93,0,0,0-.1-.22,2,2,0,0,0-.48-.52l-.72-.56-.49-.38a2.77,2.77,0,0,1-.49-.53,1.44,1.44,0,0,1-.22-.47.25.25,0,0,1,.17-.3.89.89,0,0,1,.23,0h1.77a10.38,10.38,0,0,0,5-1.41,2,2,0,0,0,.31-.22.4.4,0,0,0,.07-.12.13.13,0,0,0-.07-.16.74.74,0,0,0-.38,0l-.88.22-1.59.34a11.46,11.46,0,0,1-2.33.22q-.72,0-1.43,0a6.71,6.71,0,0,1-1.85-.44l-.81-.3a.34.34,0,0,0-.37.14.84.84,0,0,0-.11.41,2.8,2.8,0,0,0,.15.84,2.74,2.74,0,0,0,.4.81L79,124l.29.44a1.07,1.07,0,0,1,.1.22.3.3,0,0,1-.17.36,1.54,1.54,0,0,1-.47.09,1.23,1.23,0,0,0-.37.08,8.86,8.86,0,0,1-2.11.39l-.24,0a.27.27,0,0,0-.2.24,1.09,1.09,0,0,0,.09.41,5.62,5.62,0,0,0,.65,1.11l.23.3a.28.28,0,0,1,0,.35,4.26,4.26,0,0,1-1,.76.32.32,0,0,1-.14,0,.2.2,0,0,1-.12-.06.29.29,0,0,1-.06-.12c-.12-.45-.23-.9-.35-1.34a1.71,1.71,0,0,1,0-1c.06-.2.11-.4.17-.6a1.12,1.12,0,0,0,0-.18.22.22,0,0,0-.07-.22.24.24,0,0,0-.23,0,.76.76,0,0,0-.38.34c-.07.13-.14.25-.21.38a.41.41,0,0,1-.22.17.39.39,0,0,1-.28,0l-.21-.11a4.06,4.06,0,0,1-1.78-3,2.45,2.45,0,0,1,.08-.81,5.29,5.29,0,0,1,1-2.13c.15-.19.28-.38.42-.58a.67.67,0,0,0,.07-.18.17.17,0,0,0-.09-.16.48.48,0,0,0-.28,0,2.71,2.71,0,0,0-.37.1,3.09,3.09,0,0,0-1.14.76,4.31,4.31,0,0,0-.87,1.3,7.46,7.46,0,0,0-.63,2.59c0,.48,0,1-.07,1.43,0,.06,0,.13,0,.19a.2.2,0,0,1-.27.12.73.73,0,0,1-.15-.11c-.2-.22-.41-.45-.6-.68a14.61,14.61,0,0,1-2.4-4.38,18.46,18.46,0,0,1-.79-3.24,17.75,17.75,0,0,1-.16-4.1,22,22,0,0,1,.42-3.22c0-.11,0-.22.06-.33a3.11,3.11,0,0,1,.22-.73.18.18,0,0,1,.28,0,.86.86,0,0,1,.12.15c.07.13.13.25.2.38l.41.86a1.12,1.12,0,0,0,.31.41.49.49,0,0,0,.13.06.19.19,0,0,0,.2-.09,1.1,1.1,0,0,0,.07-.23c.06-.41.12-.82.15-1.23a7.18,7.18,0,0,1,.65-2.43,5.6,5.6,0,0,1,2.05-2.34l.52-.34a3,3,0,0,0,.33-.28.2.2,0,0,0-.09-.31l-.14,0a2.78,2.78,0,0,0-1.31.16,4.24,4.24,0,0,0-2,1.57c-.17.25-.32.51-.48.77s-.13.22-.21.32a.22.22,0,0,1-.3,0,.54.54,0,0,1-.08-.12,5.22,5.22,0,0,1-.2-.54,8.41,8.41,0,0,1-.27-1.65c0-.27,0-.54,0-.81a10.85,10.85,0,0,1,.35-2.65,17,17,0,0,1,3-6.29,7.22,7.22,0,0,1,1.37-1.39,7.75,7.75,0,0,0,.65-.57,2.35,2.35,0,0,0,.62-1.11.81.81,0,0,0,0-.38.68.68,0,0,0-.1-.21.22.22,0,0,0-.26-.06,5.12,5.12,0,0,0-.41.33l-.87.82a1.75,1.75,0,0,1-.69.41.23.23,0,0,1-.25-.08.31.31,0,0,1-.06-.13.35.35,0,0,1,0-.14,3.64,3.64,0,0,1,.44-1.31c.17-.29.36-.56.55-.84a1.69,1.69,0,0,1,.26-.28.63.63,0,0,1,.39-.16l.67-.06a3.44,3.44,0,0,0,1.27-.39,5.43,5.43,0,0,0,1-.65c.28-.23.55-.48.83-.72l.4-.34a.41.41,0,0,1,.27-.08.29.29,0,0,1,.28.22,1.72,1.72,0,0,1-.19,1.29,3.25,3.25,0,0,1-.49.65l-.27.27a.32.32,0,0,0,.08.49,2.68,2.68,0,0,0,.4.17,4,4,0,0,0,1.17.21l1.29,0a.23.23,0,0,1,.21.09.27.27,0,0,1,0,.31l-.13.14a2.65,2.65,0,0,1-1.39.7l-.66.08a1.32,1.32,0,0,0-.46.11.26.26,0,0,0-.12.33,1.77,1.77,0,0,0,.35.45,6.84,6.84,0,0,0,1.06.82,11.51,11.51,0,0,0,3.47,1.45,16.53,16.53,0,0,0,2.31.35h.48a9.43,9.43,0,0,0,2.72-.48,6.81,6.81,0,0,0,2.5-1.54l.58-.57a.5.5,0,0,1,.17-.08.16.16,0,0,1,.17.06,2,2,0,0,1,.12.31c.07.33.13.66.2,1a7.47,7.47,0,0,0,2.14,3.82A6.54,6.54,0,0,0,94.71,99a7.79,7.79,0,0,0,1.17.24c.33,0,.66.08,1,.11a2.22,2.22,0,0,1,.83.22,1.73,1.73,0,0,1,1,1.23,1.89,1.89,0,0,1,0,.57c0,.33-.06.67-.07,1a3.82,3.82,0,0,0,.66,2.25c.16.24.33.47.5.7a1.39,1.39,0,0,0,.38.36.18.18,0,0,0,.24-.09.58.58,0,0,0,0-.33l-.19-.89a6,6,0,0,1-.08-2.14,1.07,1.07,0,0,1,.41-.73,12.09,12.09,0,0,1,1.18-.82l2.1-1.24a16.41,16.41,0,0,0,1.83-1.22,7.52,7.52,0,0,0,2.18-2.69,10.58,10.58,0,0,0,.64-1.7,11.15,11.15,0,0,0,.41-2.25c0-.46.06-.92.07-1.38q.08-3.47.16-6.93c0-1,0-2.07.05-3.11q0-2.29.08-4.59c0-.83.09-1.65.16-2.48,0-.48.08-1,.11-1.43a8.38,8.38,0,0,1,.16-1.13l.06-.28a2.64,2.64,0,0,1,.63-1.32l.33-.35.37-.38a3.36,3.36,0,0,0,.78-1.3,5.84,5.84,0,0,0,.31-1.59,2.24,2.24,0,0,0-.31-1.28,1.47,1.47,0,0,0-.79-.66l-.32-.1-.37-.1a.23.23,0,0,1-.1-.39,2.3,2.3,0,0,1,1.1-.65,1.13,1.13,0,0,1,1.11.26,2.18,2.18,0,0,1,.69,1.07,2.66,2.66,0,0,1,.1.66,5.77,5.77,0,0,1-.34,2.16,10.26,10.26,0,0,1-.89,1.9l-.47.77a5,5,0,0,0-.68,1.92,2.47,2.47,0,0,0,.26,1.62,1.42,1.42,0,0,0,.79.66,1.48,1.48,0,0,0,.89,0,1,1,0,0,0,.53-.38,2.81,2.81,0,0,0,.39-.71c.1-.28.21-.57.3-.86a4.27,4.27,0,0,1,.74-1.38c1.54-1.95,3.07-3.91,4.69-5.8a54.46,54.46,0,0,1,9.31-8.69,45.34,45.34,0,0,1,10.35-5.7,40.65,40.65,0,0,1,6.3-1.89c.87-.18,1.75-.35,2.63-.48.57-.08,1.13-.17,1.7-.24s.92-.09,1.38-.13a44,44,0,0,1,4.44-.08c.69,0,1.37,0,2.05.09.24,0,.47.06.71.09l1.09.13a.61.61,0,0,1,.17.07s0,0,0,0,0,.06,0,.07a.63.63,0,0,1-.18.06l-.43,0c-.61,0-1.21,0-1.81.07-.76.06-1.53.09-2.29.14-.48,0-.95.09-1.43.14l-1.75.2c-.71.08-1.42.2-2.12.33-1,.19-2.06.4-3.08.65A48.26,48.26,0,0,0,133,54.36a43.2,43.2,0,0,0-13.18,12.11,48.74,48.74,0,0,0-4.62,8c-.09.19-.15.38-.22.58a.28.28,0,0,0,.22.36,1,1,0,0,0,.42-.05c.39-.13.79-.25,1.18-.4.88-.34,1.75-.69,2.62-1,1.67-.66,3.36-1.29,5.08-1.82A42.64,42.64,0,0,1,128.73,71c.87-.17,1.75-.32,2.64-.43s1.58-.18,2.38-.24,1.53-.05,2.29-.06c.45,0,.89,0,1.34,0,.68,0,1.37.1,2,.16.35,0,.7.08,1,.12l.66.1,1.13.18a3,3,0,0,1,.72.23.08.08,0,0,1,0,.08s0,.05-.07,0l-.71-.09-.57-.06c-1.53-.08-3.06-.11-4.59-.08-.78,0-1.56,0-2.34.09-.33,0-.66.08-1,.11l-.53.06c-.7.06-1.39.15-2.09.26s-1.51.25-2.26.4a42.56,42.56,0,0,0-4.52,1.19,41.61,41.61,0,0,0-8.19,3.63l-.57.36-.2.14a.61.61,0,0,0-.24.45,4.09,4.09,0,0,0,.07,1,12.29,12.29,0,0,0,1.13,3.14,19.79,19.79,0,0,0,2.27,3.42,24.46,24.46,0,0,0,3.26,3.29c.32.27.65.52,1,.75.66.45,1.33.88,2,1.33a2.32,2.32,0,0,0,.47.23l2.76,1.06c1.57.62,3.18,1.14,4.76,1.71l1.57.57.22.1s0,0,0,.07,0,0,0,0l-.23,0a90.47,90.47,0,0,1-9.4-3.2,7,7,0,0,1-.94-.47,26,26,0,0,1-7.5-6.86,27.73,27.73,0,0,1-2.9-4.88c-.06-.13-.12-.26-.19-.39a.76.76,0,0,0-.14-.19.42.42,0,0,0-.44-.1,1.93,1.93,0,0,0-.88.64,3.16,3.16,0,0,0-.64,1.32,9.43,9.43,0,0,0-.15,3.09,40.72,40.72,0,0,0,.75,4.18c.41,1.85.81,3.7,1.18,5.56.18.89.32,1.79.42,2.69,0,.38.09.76.13,1.14,0,.19,0,.38,0,.57s0,.51,0,.76a2.48,2.48,0,0,1-.14.84,2.27,2.27,0,0,1-.85,1.18,5.88,5.88,0,0,1-1.17.64l-1,.39-1.15.48a6.17,6.17,0,0,0-1,.56,4.23,4.23,0,0,0-.69.59,2.94,2.94,0,0,0-.59,1,.75.75,0,0,0,.09.73,4.22,4.22,0,0,0,.36.45,5.42,5.42,0,0,0,1.82,1.29,8.93,8.93,0,0,0,2.47.69,26.35,26.35,0,0,0,3.72.18,16.68,16.68,0,0,0,1.67-.08h.1c2-.09,3.92-.16,5.88-.09a18.2,18.2,0,0,1,3.08.34,12,12,0,0,1,3.47,1.29,20,20,0,0,1,3.16,2.24,32.44,32.44,0,0,1,4.14,4.3,38.25,38.25,0,0,1,3.53,5.22c.12.21.22.43.34.63a3.29,3.29,0,0,0,.27.39.2.2,0,0,0,.3,0l.21-.2a1.28,1.28,0,0,1,.94-.4c.33,0,.67,0,1,0a10.58,10.58,0,0,1,6.77,2.86,17.5,17.5,0,0,1,2.09,2.3c.78,1,1.48,2.07,2.17,3.15a1.93,1.93,0,0,1,.3.9,8.93,8.93,0,0,1,0,1.67c0,.33,0,.67-.07,1a3,3,0,0,0,0,.62.47.47,0,0,0,.2.31,1.07,1.07,0,0,0,.58.21,1.8,1.8,0,0,0,.88-.17,2.27,2.27,0,0,0,.59-.4,3.51,3.51,0,0,0,.63-.77l.85-1.38.32-.53a3.38,3.38,0,0,1,1-1,5.29,5.29,0,0,1,1.5-.71,13.54,13.54,0,0,1,2.43-.48l1.24-.13.72,0a.87.87,0,0,1,.65.25l.2.21.19.15a.3.3,0,0,0,.42-.17.66.66,0,0,0,0-.19c0-.73.1-1.46.18-2.19,0-.32.06-.64.09-1a21.06,21.06,0,0,1,1-4.42,15.42,15.42,0,0,1,1.41-3.13c.23-.38.47-.75.74-1.11a10.39,10.39,0,0,1,3.05-2.78l.57-.34a.41.41,0,0,0,.19-.27.31.31,0,0,0,0-.23,3.56,3.56,0,0,0-.17-.34,4.17,4.17,0,0,0-.77-1c-.21-.2-.43-.38-.65-.56l-.49-.38a3.32,3.32,0,0,1-1.06-1.44,13.37,13.37,0,0,1-.6-2.06,14.72,14.72,0,0,1-.25-1.6,7.77,7.77,0,0,1,0-1.29,8,8,0,0,1,.86-3,7.61,7.61,0,0,0,.35-.78,1.39,1.39,0,0,0-.21-1.4,2.87,2.87,0,0,0-.66-.62c-.32-.21-.63-.43-1-.62-.63-.37-1.27-.73-1.92-1.07a4.5,4.5,0,0,1-2-2c-.36-.69-.71-1.39-1.07-2.08a4.27,4.27,0,0,1-.43-1.26l-.23-1.22a3.68,3.68,0,0,0-.3-1,.43.43,0,0,0-.42-.26.39.39,0,0,0-.22.06,1.37,1.37,0,0,0-.3.3l-.56.71a17.63,17.63,0,0,1-3.78,3.62,15.75,15.75,0,0,1-6.06,2.58c-.5.1-1,.18-1.51.24-.24,0-.48,0-.72,0a4,4,0,0,0-.52,0,.51.51,0,0,0-.43.4,4.62,4.62,0,0,0-.14,1.18,5.53,5.53,0,0,0,.35,2,4.3,4.3,0,0,0,1,1.59,3.36,3.36,0,0,0,1.89.94l.71.1a.14.14,0,0,1,.09.09.17.17,0,0,1,0,.13.43.43,0,0,1-.15.12,3.14,3.14,0,0,1-.81.28,4.67,4.67,0,0,1-1.43.06,4.56,4.56,0,0,1-1.79-.61,6.63,6.63,0,0,1-1.19-.88,10.67,10.67,0,0,1-1.9-2.32,6.66,6.66,0,0,1-.87-2.16,7.33,7.33,0,0,1-.1-.76.64.64,0,0,0-.28-.48l-.57-.43c-.16-.13-.32-.26-.47-.41a1.09,1.09,0,0,1-.36-.9c0-.13,0-.26,0-.38.13-.87.26-1.73.45-2.59a15.73,15.73,0,0,1,.87-2.77,8.41,8.41,0,0,1,1.37-2.23c.14-.16.28-.31.43-.45a16.63,16.63,0,0,1,2.78-2.18,7.77,7.77,0,0,1,2.84-1.07c.83-.14,1.67-.22,2.51-.3C155.9,82.7,157,82.7,157.89,82.64Z"/><path class="cls-9" d="M90.91,90.7c0-.44.08-1,.13-1.49,0-.36.08-.73.12-1.09a1.48,1.48,0,0,0,0-.19.27.27,0,0,0-.31-.23l-.13,0a1.18,1.18,0,0,0-.43.37,2.73,2.73,0,0,0-.36.62l-.37.88a6.52,6.52,0,0,1-1.3,2,6.19,6.19,0,0,1-3,1.73,8,8,0,0,1-2.51.24,6.89,6.89,0,0,1-1.64-.3,17.78,17.78,0,0,1-2.15-.8,2,2,0,0,1-.29-.16.24.24,0,0,1,0-.3.76.76,0,0,1,.13-.14l.56-.44a5,5,0,0,0,1.55-2.15,2.86,2.86,0,0,0,.25-1.54.32.32,0,0,0-.05-.13.17.17,0,0,0-.17-.05.5.5,0,0,0-.12.08,1.91,1.91,0,0,0-.19.22,2.15,2.15,0,0,1-1.22.79,4,4,0,0,1-1.28.13,1.71,1.71,0,0,1-.51-.11.38.38,0,0,1-.26-.32.86.86,0,0,1,0-.28,7.13,7.13,0,0,0,.06-1.14,8.78,8.78,0,0,0-.12-1.33c-.07-.51-.14-1-.19-1.52a1.35,1.35,0,0,0-.06-.28.19.19,0,0,0-.28-.06l-.12.15-.51.81A8.16,8.16,0,0,1,75.05,86a7.41,7.41,0,0,1-.83.71,5.11,5.11,0,0,1-2.32.95,3.71,3.71,0,0,1-1.28,0,7.33,7.33,0,0,1-1.9-.62,5.88,5.88,0,0,1-1.62-1.17,4.14,4.14,0,0,1-1.12-2,6.54,6.54,0,0,1-.11-.85,1,1,0,0,1,0-.33A.46.46,0,0,1,66,82.5a.16.16,0,0,1,.18,0l.21.19.37.37A1.63,1.63,0,0,0,68,83.5a1.18,1.18,0,0,0,.74-.3,2.62,2.62,0,0,0,.44-.5,5.72,5.72,0,0,0,.47-.83l.47-1c.07-.15.13-.29.21-.43a.39.39,0,0,1,.26-.2l.33-.07A3.3,3.3,0,0,0,73,78.71a2.18,2.18,0,0,0,.25-.51,1.25,1.25,0,0,0,0-.61,4,4,0,0,0-.49-1.39c-.19-.33-.36-.67-.54-1a3.83,3.83,0,0,1-.27-.66,2.42,2.42,0,0,1,0-1.55l.13-.36a1.44,1.44,0,0,1,.73-.84A5.64,5.64,0,0,1,74,71.34L75.51,71a10.5,10.5,0,0,0,1.23-.4,3.18,3.18,0,0,0,1.89-2l.71-1.93c0-.06,0-.12.06-.18a.25.25,0,0,0-.18-.29l-.24,0-.57-.07a1.86,1.86,0,0,1-.91-.38,3.05,3.05,0,0,1-.8-.88,4.8,4.8,0,0,1-.71-3,3.14,3.14,0,0,1,.85-1.93A2.31,2.31,0,0,0,77,59.7a1,1,0,0,0,.11-.21.16.16,0,0,0-.12-.22.56.56,0,0,0-.23,0,1.45,1.45,0,0,0-.31.12l-.42.23a.69.69,0,0,1-.69,0,1.59,1.59,0,0,1-.53-.47,2.69,2.69,0,0,1-.5-1.23,4.29,4.29,0,0,1,0-1,2.55,2.55,0,0,1,.49-1.33l.32-.42a.45.45,0,0,0,.09-.36.37.37,0,0,0-.12-.25l-.29-.25a2.34,2.34,0,0,0-.26-.21A1.28,1.28,0,0,1,74,52.7a2,2,0,0,1,.26-.71l.32-.53.28-.44a3.74,3.74,0,0,0,.56-2.33,5.4,5.4,0,0,0-.17-1.08,4.66,4.66,0,0,0-.93-1.76l-.4-.47a.52.52,0,0,1-.07-.12.16.16,0,0,1,.08-.2.92.92,0,0,1,.28-.05,2.22,2.22,0,0,1,.84.17l1.4.61a7.09,7.09,0,0,0,1,.36c.17,0,.34.1.51.13a1.74,1.74,0,0,0,1.12-.11l.16-.1a.24.24,0,0,0,0-.34,1.3,1.3,0,0,0-.34-.26,2.9,2.9,0,0,1-1.3-1.35L77,43l-.1-.21a.32.32,0,0,1,.21-.42,1.45,1.45,0,0,1,.75,0,9.28,9.28,0,0,1,1.52.4l1.21.44A8.16,8.16,0,0,0,82,43.5a3,3,0,0,0,1.28-.06,4.68,4.68,0,0,0,1.28-.52l1.1-.67a6.24,6.24,0,0,1,1.3-.6,3.84,3.84,0,0,1,2-.13,9.27,9.27,0,0,1,2.76,1,8.29,8.29,0,0,1,2,1.58,2.47,2.47,0,0,1,.23.3.44.44,0,0,1,0,.53l-.38.43a5.48,5.48,0,0,0-.7,1,4.22,4.22,0,0,0-.54,2c0,.27,0,.54,0,.81a.69.69,0,0,0,.08.32.43.43,0,0,0,.37.26h.62c.4,0,.8,0,1.19,0a9.91,9.91,0,0,1,2.85.57,6.37,6.37,0,0,1,2.47,1.58,4.08,4.08,0,0,1,.31.36,1,1,0,0,1,.12.26.23.23,0,0,1-.15.27l-.56.12a3.64,3.64,0,0,0-1.47.65,1.75,1.75,0,0,0-.43.45.51.51,0,0,0-.08.32.4.4,0,0,0,.11.26,3.09,3.09,0,0,0,.48.39,16.11,16.11,0,0,1,6.12,8.32A15.82,15.82,0,0,1,105,66a9.16,9.16,0,0,1,.12,1.52q0,.38,0,.76c0,.32-.06.63-.1,1-.05.51-.18,1-.27,1.5a18.46,18.46,0,0,0-.3,2.18,6.66,6.66,0,0,0,0,1.43,2.61,2.61,0,0,0,.7,1.44,1.86,1.86,0,0,0,.85.5l.32.1a.32.32,0,0,1,.17.31.78.78,0,0,1,0,.14,1.47,1.47,0,0,1-.66.85,1.1,1.1,0,0,1-.45.15,2.73,2.73,0,0,1-1.23-.11l-.26-.11a1,1,0,0,1-.52-.65l-.13-.61c0-.16-.07-.31-.11-.46a.44.44,0,0,0-.07-.12.12.12,0,0,0-.13,0,.57.57,0,0,0-.11.09,1,1,0,0,0-.17.39,4.08,4.08,0,0,0-.06,1.24,6.18,6.18,0,0,0,.45,1.8,3.68,3.68,0,0,0,.65,1l.28.33a.22.22,0,0,1,0,.26.48.48,0,0,1-.44.12,1.67,1.67,0,0,1-.53-.21l-.44-.29-.48-.31a3.05,3.05,0,0,0-1.73-.45.59.59,0,0,0-.32.08.17.17,0,0,0-.06.24,2.2,2.2,0,0,0,.23.25l.3.24a3.86,3.86,0,0,1,.63.65,1.89,1.89,0,0,1,.38,1.44,2.07,2.07,0,0,1-.21.73L100.4,85c-.11.21-.23.42-.34.63a7.42,7.42,0,0,0-.78,2.83,6,6,0,0,0,.29,2,2.39,2.39,0,0,0,1.09,1.4l.25.14a.27.27,0,0,1,.08.34,1,1,0,0,1-.52.48,1,1,0,0,1-.74,0,2.34,2.34,0,0,1-.84-.53l-.8-.82a5.16,5.16,0,0,0-.39-.35.27.27,0,0,0-.43.11,2.39,2.39,0,0,0-.16.45,4,4,0,0,0-.1.71c0,.56,0,1.11,0,1.67a3.67,3.67,0,0,0,.25,1.16,3.28,3.28,0,0,0,.87,1.3l.34.33a.26.26,0,0,1,0,.38,1.59,1.59,0,0,1-.24.16,4.4,4.4,0,0,1-4.94-.63,5.91,5.91,0,0,1-1.5-2,8.94,8.94,0,0,1-.68-2.23A14.15,14.15,0,0,1,90.91,90.7Z"/><path class="cls-10" d="M96.56,157a8,8,0,0,0-.25-2.08c-.18-.71-.33-1.43-.49-2.14a7.57,7.57,0,0,1-.14-2.23,3.9,3.9,0,0,1,.1-.61,2,2,0,0,1,.37-.77,8.2,8.2,0,0,1,1.69-1.68,6.62,6.62,0,0,1,.81-.5l.24-.15a.2.2,0,0,0,0-.26l-.18-.15a6,6,0,0,1-1.44-1.52,1.3,1.3,0,0,1-.11-.21.22.22,0,0,1,.14-.27l.66-.12,1.5-.27a17.2,17.2,0,0,0,5.93-2.43,14.19,14.19,0,0,0,2.95-2.49,13.88,13.88,0,0,0,1.11-1.44,1.83,1.83,0,0,0,.32-1.22,2.9,2.9,0,0,1,0-.33,2.71,2.71,0,0,1,0-.38.43.43,0,0,1,.37-.38l.19,0a5.62,5.62,0,0,1,1.1,0,6.67,6.67,0,0,1,3.89,1.87,4.26,4.26,0,0,1,.64.77l.15.25a.85.85,0,0,1,.1.41,12.28,12.28,0,0,1-.08,1.72,16.3,16.3,0,0,1-2.48,6.76,21.35,21.35,0,0,1-1.94,2.6q-.9,1-1.87,2a5.13,5.13,0,0,0-.36.39,1,1,0,0,0-.15.24.19.19,0,0,0,0,.22l.31.3c.1.1.22.19.31.3a1,1,0,0,1,.3.73.71.71,0,0,1-.07.32c-.08.16-.16.31-.24.46a9.07,9.07,0,0,1-1.36,1.72L107,157.95c-.29.29-.59.58-.87.89a6.89,6.89,0,0,0-1.34,2.08,8.88,8.88,0,0,0-.55,2,9.1,9.1,0,0,0,0,2.43c0,.24.06.47.09.71a4.5,4.5,0,0,1-.1,1.66,2.1,2.1,0,0,1-.79,1.21l-.67.47-.56.37a4.39,4.39,0,0,0-.79.69,1,1,0,0,0-.3.73,2.63,2.63,0,0,1-.44,1.39l-.4.65a1.67,1.67,0,0,0-.25.76c0,.19,0,.38,0,.57a2.36,2.36,0,0,1-.19.83,4.27,4.27,0,0,1-1.27,1.7c-.23.19-.48.37-.72.55l-.92.69a3.78,3.78,0,0,0-.32.28,1.07,1.07,0,0,0-.34.67c0,.19-.05.38-.08.57a3.75,3.75,0,0,1-.2.78,1.33,1.33,0,0,1-.57.68,2,2,0,0,1-2,.07,2.36,2.36,0,0,1-1.19-1.6,2.55,2.55,0,0,1,0-1.09,6.59,6.59,0,0,1,.11-.66,1.59,1.59,0,0,1,.47-.76,5.78,5.78,0,0,1,.49-.38c.16-.11.32-.21.48-.31a5.36,5.36,0,0,0,.89-.72,2.54,2.54,0,0,0,.63-1,7.11,7.11,0,0,0,.28-1.11,3.07,3.07,0,0,0,0-.43c0-.19,0-.38,0-.57a7.76,7.76,0,0,1,.32-2.31c0-.08,0-.15.06-.23a.17.17,0,0,0-.22-.18,1.08,1.08,0,0,0-.41.24l-.24.23-1.17,1.2c-.2.21-.4.41-.61.61a3.22,3.22,0,0,1-1,.62,1.93,1.93,0,0,1-1.4.07l-.64-.2a.26.26,0,0,0-.3.1,1.52,1.52,0,0,0-.21.37,7.11,7.11,0,0,1-3.08,3.22,2.2,2.2,0,0,1-1.25.23,4.44,4.44,0,0,1-1.55-.46,2.39,2.39,0,0,1-.79-.61,2,2,0,0,1-.49-1.27,3.32,3.32,0,0,1,.18-1.27c.07-.19.13-.39.2-.59a3.25,3.25,0,0,1,.16-.34,1.34,1.34,0,0,1,.61-.58,4.73,4.73,0,0,1,1-.36L86,171a6.41,6.41,0,0,0,.91-.28,3.32,3.32,0,0,0,.67-.35,1.13,1.13,0,0,0,.31-.3.29.29,0,0,0,0-.42l-.2-.13-1.82-1.14a4.58,4.58,0,0,0-1.46-.58,1.39,1.39,0,0,0-.89.07,4.73,4.73,0,0,0-.8.42l-.44.29a1.36,1.36,0,0,1-1.19.16,2.28,2.28,0,0,1-1-.58,3.56,3.56,0,0,1-.87-1.41,3.63,3.63,0,0,1-.06-2.21,2.43,2.43,0,0,1,.47-.88,1.69,1.69,0,0,1,.69-.5,3.7,3.7,0,0,1,1.16-.25,1.64,1.64,0,0,1,.38,0c.8.12,1.61.2,2.4.39a3.72,3.72,0,0,0,1,.1,1.33,1.33,0,0,0,.24,0,.46.46,0,0,0,.36-.34,2.36,2.36,0,0,0,0-.24,1.18,1.18,0,0,1,.45-.76l.22-.19a.3.3,0,0,0,0-.36,1.14,1.14,0,0,0-.39-.35,5.13,5.13,0,0,0-1-.42l-.86-.28a5.16,5.16,0,0,1-.53-.22.7.7,0,0,1-.33-.33,2.65,2.65,0,0,1-.22-2,2.25,2.25,0,0,1,.4-.76,1.72,1.72,0,0,1,.91-.58.5.5,0,0,1,.46.07,3.5,3.5,0,0,1,.43.38c.13.14.24.3.36.44.24.3.48.6.73.89a6.11,6.11,0,0,0,.94.87,2.94,2.94,0,0,0,1.63.62l.43,0a.55.55,0,0,1,.41.22,2,2,0,0,1,.18.28l.4.71c.09.17.19.33.3.49a3.22,3.22,0,0,0,1.28,1.12l.34.17a.37.37,0,0,1,.14.46,1.39,1.39,0,0,1-.18.28c-.1.12-.22.23-.33.35l-.18.22a.13.13,0,0,0,0,.17.77.77,0,0,0,.42.07,3,3,0,0,0,.51-.1,3.62,3.62,0,0,0,1.31-.77,5.43,5.43,0,0,0,.94-1.13,8.61,8.61,0,0,0,1-2.36,13.41,13.41,0,0,0,.38-1.92C96.54,157.76,96.54,157.38,96.56,157Z"/><path class="cls-11" d="M144.81,69.85a4.46,4.46,0,0,1-.44-.09,20.81,20.81,0,0,0-2.43-.53c-.47-.08-.94-.17-1.41-.21s-.92-.11-1.38-.14c-.87,0-1.75-.08-2.63-.09a27.74,27.74,0,0,0-3.29.18l-1,.09c-.51.05-1,.12-1.52.2-.79.13-1.57.29-2.35.44A51.16,51.16,0,0,0,123,71.1c-1.64.51-3.25,1.11-4.85,1.74l-.5.18a.17.17,0,0,1-.21-.18.71.71,0,0,1,0-.23c.06-.13.13-.26.19-.39a41.71,41.71,0,0,1,9.4-12.07,42.62,42.62,0,0,1,8.44-5.81,48.44,48.44,0,0,1,9.76-3.84c1.49-.41,3-.74,4.51-1,.92-.17,1.85-.31,2.79-.42s1.68-.18,2.52-.23c.32,0,.64,0,1,0l2.25,0a1.83,1.83,0,0,1,.28,0,.14.14,0,0,1,.06.2.37.37,0,0,1-.11.1l-.49.19a23.93,23.93,0,0,0-2.84,1.25,19.91,19.91,0,0,0-3.95,2.67,17.61,17.61,0,0,0-5.21,7.93,19.82,19.82,0,0,0-.74,3.06,17.53,17.53,0,0,0-.21,3.67c0,.41.09.82.14,1.23,0,.11,0,.22,0,.33a.37.37,0,0,1-.36.37Z"/><path class="cls-12" d="M56.72,80.33a7.67,7.67,0,0,1-.25,1.84,6.49,6.49,0,0,1-.36.93c-.07.16-.14.32-.21.48a.32.32,0,0,0,0,.32c.09.11.18.22.28.33l.47.48a5.32,5.32,0,0,1,1.38,2.88c.09.61.19,1.23.33,1.83a7.94,7.94,0,0,0,1.16,2.66,12.39,12.39,0,0,0,1.76,2.13l2.6,2.47,1.24,1.19a2.85,2.85,0,0,1,.43.51.53.53,0,0,1,.08.45c-.09.34-.18.68-.26,1a6.53,6.53,0,0,0-.19,1.7c0,.72,0,1.43.08,2.15a7,7,0,0,1,0,.91,17.87,17.87,0,0,1-.3,2.7c-.2,1-.4,2-.59,3,0,.25-.07.5-.1.75l-.23,1.9a1.07,1.07,0,0,1,0,.19.18.18,0,0,1-.24.09.6.6,0,0,1-.16-.11c-.1-.1-.18-.22-.27-.33l-.86-1.09a1.68,1.68,0,0,0-.59-.47.76.76,0,0,0-1,.16c-.13.14-.24.3-.36.44a1.43,1.43,0,0,1-.16.17.34.34,0,0,1-.36.05,1,1,0,0,1-.24-.15,3.73,3.73,0,0,1-.77-.84,8.47,8.47,0,0,1-.91-1.78c-.28-.76-.52-1.54-.76-2.31s-.44-1.39-.65-2.1a12.6,12.6,0,0,0-.71-1.77,5.89,5.89,0,0,0-.54-.9A2.84,2.84,0,0,0,54,101.19l-1-.31a.47.47,0,0,1-.32-.27.33.33,0,0,1,0-.23c.06-.23.11-.46.18-.69a13.73,13.73,0,0,0,.51-2.62,14.21,14.21,0,0,0,.07-2c0-.25,0-.51,0-.76a8.42,8.42,0,0,0-.55-2.51,3.26,3.26,0,0,0-.5-.87,2.18,2.18,0,0,0-.41-.4,1.52,1.52,0,0,0-1.12-.33,4.88,4.88,0,0,0-.52.08,1.06,1.06,0,0,1-.66-.06l-.4-.17L48.86,90a.94.94,0,0,0-.74.09,4.42,4.42,0,0,0-.79.53l-.58.5L45.4,92.16a2.37,2.37,0,0,1-.67.36.85.85,0,0,1-1-.36,2.37,2.37,0,0,1-.33-.74,5.07,5.07,0,0,1-.09-.52c0-.22,0-.44-.07-.67a1.38,1.38,0,0,1,.18-.87,2,2,0,0,1,1.07-.91l.58-.21c.15-.06.3-.12.44-.19a.94.94,0,0,0,.52-.7,2.15,2.15,0,0,0-.1-1.08,3.94,3.94,0,0,0-.25-.56,1.51,1.51,0,0,0-1-.77,2.74,2.74,0,0,0-1.18-.07c-.39.07-.79.1-1.18.14-.19,0-.38,0-.57,0a1,1,0,0,1-.61-.24,1.9,1.9,0,0,1-.64-2,3.6,3.6,0,0,1,.68-1.3,1.84,1.84,0,0,1,1.17-.68,4.36,4.36,0,0,1,1.19,0l1,.12a2.87,2.87,0,0,0,1.41-.17,1.38,1.38,0,0,0,.83-.81.88.88,0,0,0,.05-.52,3.49,3.49,0,0,0-.3-.91c-.13-.24-.25-.48-.39-.71a4.46,4.46,0,0,1-.51-1.43,2,2,0,0,1,0-.76c.05-.27.11-.53.18-.79a2.07,2.07,0,0,1,.35-.73,1.2,1.2,0,0,1,1-.52,1.61,1.61,0,0,1,1,.31,2.79,2.79,0,0,1,.81.93,5,5,0,0,1,.45,1.2c.07.29.13.59.17.89.08.49.15,1,.23,1.46a6.61,6.61,0,0,0,.38,1.38,3.73,3.73,0,0,0,.25.46.73.73,0,0,0,.4.32,3,3,0,0,0,.41.12,1.56,1.56,0,0,1,1,.69l.38.55a.47.47,0,0,0,.23.17.24.24,0,0,0,.29-.11.63.63,0,0,0,.08-.27,3,3,0,0,0-.1-.95,12.38,12.38,0,0,1-.29-2,2.68,2.68,0,0,1,.14-1.13,1.35,1.35,0,0,1,.59-.72,1.22,1.22,0,0,1,.73-.18,2.25,2.25,0,0,1,1.77,1,3.4,3.4,0,0,1,.63,1.68A6.23,6.23,0,0,1,56.72,80.33Z"/><path class="cls-13" d="M138.35,72.43l2.34,0a13.19,13.19,0,0,1,1.85.18c.38.06.76.09,1.14.13a.53.53,0,0,1,.34.16.16.16,0,0,1,0,.18.66.66,0,0,1-.13.14c-.17.11-.35.23-.53.32a17,17,0,0,0-3.11,2.13A15.16,15.16,0,0,0,137,79.56a13.88,13.88,0,0,0-1.58,4.08,11.81,11.81,0,0,0-.28,2.46,16.61,16.61,0,0,0,.1,2.19,12.12,12.12,0,0,0,.71,2.82c.14.36.3.7.44,1.06a3.13,3.13,0,0,1,.15.35c0,.16,0,.27-.18.27a4.71,4.71,0,0,1-.76,0,32.85,32.85,0,0,1-5.5-1.41,26.8,26.8,0,0,1-7.5-4.11,20.5,20.5,0,0,1-3.47-3.41,14.38,14.38,0,0,1-1.82-2.91,11.05,11.05,0,0,1-.59-1.56c0-.12-.06-.25-.09-.37a.76.76,0,0,1,0-.38.41.41,0,0,1,.14-.24,5.42,5.42,0,0,1,.5-.37c.67-.43,1.37-.81,2.08-1.17a38.58,38.58,0,0,1,6.83-2.67q1.93-.56,3.9-.94c.92-.17,1.85-.31,2.78-.43.74-.09,1.49-.18,2.23-.23a23.83,23.83,0,0,1,3-.08h.19Z"/><path class="cls-14" d="M67.31,75.37a3.54,3.54,0,0,1-1-.17,6.14,6.14,0,0,1-2-1,7.58,7.58,0,0,1-2.24-2.76,3.65,3.65,0,0,1-.18-.49.69.69,0,0,1,0-.24.26.26,0,0,1,.18-.2l.81-.1c.44,0,.89-.07,1.33-.12a3.85,3.85,0,0,0,1.27-.39,2.35,2.35,0,0,0,.74-.59c.14-.17.28-.35.41-.52s.21-.28.32-.42a2.19,2.19,0,0,1,.81-.65l.17-.08a.32.32,0,0,0,.14-.41,2.82,2.82,0,0,0-.21-.38,13.41,13.41,0,0,0-5.25-4.69l-.73-.36a17.64,17.64,0,0,1-1.71-1,4,4,0,0,1-1.41-1.53,3.68,3.68,0,0,1-.43-1.84,1.16,1.16,0,0,1,.3-.78,4.73,4.73,0,0,0,.31-.37,1.08,1.08,0,0,0,.23-.66c0-.38,0-.76,0-1.15s0-.48,0-.72a.45.45,0,0,1,.27-.42,3.37,3.37,0,0,1,.76-.29l1.54-.34c.22,0,.44-.07.66-.1.88-.11,1.76-.25,2.65-.33.3,0,.6-.09.9-.13l.38-.06a.9.9,0,0,0,.65-.36l.33-.41.36-.45a.79.79,0,0,1,.58-.3c.14,0,.29,0,.43,0a13.33,13.33,0,0,0,4.4-.78,2.52,2.52,0,0,1,.55-.15.28.28,0,0,1,.32.22.74.74,0,0,1,0,.24,1.29,1.29,0,0,1-.24.61l-.4.54a5.58,5.58,0,0,0-.51.81,2,2,0,0,0-.15,1.57c.13.44.29.88.43,1.31l.06.18a2,2,0,0,1-.06,1.53c-.08.17-.17.34-.25.51l-.18.34a.76.76,0,0,0,0,.65,4.34,4.34,0,0,0,.46.89,5.61,5.61,0,0,0,.56.71l.59.63c.09.09.18.18.26.28a.54.54,0,0,1,.13.53,4.94,4.94,0,0,0-.17,1.23,4.16,4.16,0,0,0,.27,1.69,5.46,5.46,0,0,0,1.44,2.11c.25.23.52.43.78.64s.23.17.34.27a.45.45,0,0,1,.13.48,2.67,2.67,0,0,1-.74,1.15,3.26,3.26,0,0,1-.83.55,5.86,5.86,0,0,1-1.5.47c-.71.13-1.41.24-2.13.31a10.88,10.88,0,0,0-1.91.39,3.87,3.87,0,0,0-1.12.53A2.89,2.89,0,0,0,68,72.72a3,3,0,0,0-.12.75c0,.35,0,.7,0,1.05,0,.17,0,.35,0,.52a.37.37,0,0,1-.32.31Zm2.07-23.84c-.17,0-.35,0-.52.06a6.69,6.69,0,0,0-.78.22.82.82,0,0,0-.49.42,1.23,1.23,0,0,0-.15.5,2.59,2.59,0,0,1-.14.75,1.07,1.07,0,0,0,0,.75,3.58,3.58,0,0,0,.8,1.29A8,8,0,0,0,70,57l.17.08a1,1,0,0,0,.23.05.36.36,0,0,0,.33-.53c-.15-.23-.31-.44-.46-.66s-.23-.31-.33-.47a.29.29,0,0,1,0-.36l.82-.93a.24.24,0,0,1,.22-.07l.28.05.23.06a.36.36,0,0,0,.39-.38,2.88,2.88,0,0,0-.73-1.57,2.22,2.22,0,0,0-1-.61A2.87,2.87,0,0,0,69.38,51.53Z"/><path class="cls-15" d="M113.37,105.67a10.38,10.38,0,0,1-1.57-.08,4.23,4.23,0,0,1-2.19-1l-.17-.16a.61.61,0,0,1,0-.89,2.41,2.41,0,0,1,.59-.48,5.29,5.29,0,0,1,.87-.38l1.58-.54a5.16,5.16,0,0,0,1.12-.54,3,3,0,0,0,1.36-2,2.16,2.16,0,0,0,0-.38c0-.67,0-1.34,0-2a15,15,0,0,0-.36-3c-.23-1.09-.46-2.18-.68-3.27-.12-.59-.21-1.19-.3-1.79-.12-.75-.28-1.5-.45-2.25-.2-.9-.41-1.8-.59-2.7a5.51,5.51,0,0,1-.14-1.23c0-.38,0-.77,0-1.15a1.6,1.6,0,0,1,.28-.85.25.25,0,0,1,.38,0,1.52,1.52,0,0,1,.16.23c.18.34.36.67.53,1A27.11,27.11,0,0,0,115.47,85a20.7,20.7,0,0,0,9.94,8,36.1,36.1,0,0,0,5.06,1.57c.16,0,.31.07.46.12.33.11.68.17,1,.25.17,0,.34.09.5.15s.07.06.09.1a.09.09,0,0,1,0,.09.76.76,0,0,1-.21.11c-.29.08-.58.16-.88.22-.92.2-1.83.41-2.73.68a16.09,16.09,0,0,0-2.16.76l-.52.25A4.61,4.61,0,0,0,124,99.5a6,6,0,0,0-.56,2.83,8.38,8.38,0,0,0,.21,1.37c.07.31.13.62.21.93a.29.29,0,0,1-.06.27.31.31,0,0,1-.15.1,4.21,4.21,0,0,1-.47,0h-.43c-1,0-1.91,0-2.87.06-.49,0-1,.09-1.47.13l-.38,0-1.43.12c-.24,0-.47.06-.71.1A17.24,17.24,0,0,1,113.37,105.67Z"/><path class="cls-16" d="M111.46,191.07c0-.3,0-.6.09-.9s.11-.79.18-1.18a2.85,2.85,0,0,1,.26-.76.13.13,0,0,1,.17,0,.34.34,0,0,1,.1.1,2.72,2.72,0,0,1,.18.33,2.88,2.88,0,0,0,.33.58c.12.17.24.34.35.51a.31.31,0,0,1,0,.32,1.64,1.64,0,0,1-.1.16l-1,1.66-.08.12c-.06.09-.13.13-.19.11a.27.27,0,0,1-.16-.17.75.75,0,0,1,0-.14A3.59,3.59,0,0,1,111.46,191.07Z"/><path class="cls-16" d="M123.65,201.2a2.41,2.41,0,0,1-.83-.09.19.19,0,0,1-.1-.3.42.42,0,0,1,.09-.1,10.53,10.53,0,0,0,1.09-1,.44.44,0,0,1,.43-.13,1.48,1.48,0,0,1,.27.08,3.81,3.81,0,0,0,1,.25,1.06,1.06,0,0,1,.23.06.12.12,0,0,1,.07.11.28.28,0,0,1-.07.22,2.69,2.69,0,0,1-.32.29,3.27,3.27,0,0,1-1.67.62Z"/><path class="cls-16" d="M82,157.6a1.12,1.12,0,0,1,0,.18,5.84,5.84,0,0,0-.2,1.07,1.64,1.64,0,0,1-.07.28.27.27,0,0,1-.27.16h0a7,7,0,0,0-1.44-.33l-.13,0a.13.13,0,0,1-.05-.07.27.27,0,0,1,0-.23,2.21,2.21,0,0,1,.2-.27,3.29,3.29,0,0,1,1.36-.94,1.48,1.48,0,0,1,.32-.07.4.4,0,0,1,.18,0C82,157.39,82,157.46,82,157.6Z"/><path class="cls-16" d="M61.63,67.35a1.6,1.6,0,0,1,.05-.52.34.34,0,0,1,.07-.12.11.11,0,0,1,.08,0,.55.55,0,0,1,.33.19,4,4,0,0,1,.74,1.22,1.13,1.13,0,0,1,.05.33.35.35,0,0,1-.27.34l-.29,0a.65.65,0,0,1-.64-.48,3.45,3.45,0,0,1-.13-.8S61.63,67.4,61.63,67.35Z"/><path class="cls-16" d="M38.13,80.09a.39.39,0,0,1,.11,0l1.11.54,0,0a.29.29,0,0,1,.13.33.64.64,0,0,1,0,.13l-.35.73A.51.51,0,0,1,39,82a.18.18,0,0,1-.22,0,1.38,1.38,0,0,1-.21-.19,3.1,3.1,0,0,1-.66-1.51A.22.22,0,0,1,38.13,80.09Z"/><path class="cls-16" d="M114.74,197.64a4.25,4.25,0,0,1,.35-1.47.28.28,0,0,1,.41-.12,1.86,1.86,0,0,1,.58.61.16.16,0,0,1,0,.18,2,2,0,0,1-.13.2l-.79,1.07-.1.1a.19.19,0,0,1-.25-.07A1.78,1.78,0,0,1,114.74,197.64Z"/><path class="cls-16" d="M44.9,70.86a.22.22,0,0,1,.22-.22.85.85,0,0,1,.19,0,2.37,2.37,0,0,1,1.1.8.77.77,0,0,1,.09.17.25.25,0,0,1-.13.32l-.94.32a.25.25,0,0,1-.2-.1.66.66,0,0,1-.06-.13l-.26-1.16A.09.09,0,0,1,44.9,70.86Z"/><path class="cls-16" d="M44.64,131.31l-.48,0H44a.17.17,0,0,1-.11-.26.93.93,0,0,1,.15-.18,3.13,3.13,0,0,1,.88-.56l.49-.17a.26.26,0,0,1,.26.07.26.26,0,0,1,.08.11,1.16,1.16,0,0,1-.08.7.35.35,0,0,1-.29.22l-.71,0Z"/><path class="cls-16" d="M80.62,177.12a2,2,0,0,1,.12-.67c.1-.23.19-.47.29-.7a.57.57,0,0,1,.12-.14.15.15,0,0,1,.17,0l0,0L82,176.7a.23.23,0,0,1-.05.26,2.33,2.33,0,0,1-1.21.36.12.12,0,0,1-.09-.1Z"/><path class="cls-16" d="M46.78,148.56s-.1.05-.16.05h-.14a3.65,3.65,0,0,1-1.06-.41l-.16-.11a.22.22,0,0,1,0-.36l.65-.39a.25.25,0,0,1,.37.11c.16.29.31.59.46.88a.43.43,0,0,1,0,.09S46.78,148.44,46.78,148.56Z"/><path class="cls-16" d="M77.8,167.66l0,.19a.33.33,0,0,1-.21.29l-.57.23a.76.76,0,0,1-.23,0,.17.17,0,0,1-.13-.12.44.44,0,0,1,0-.19,3.6,3.6,0,0,1,.64-1.26l0,0a.2.2,0,0,1,.28.06,1.44,1.44,0,0,1,.19.53C77.79,167.47,77.8,167.57,77.8,167.66Z"/><path class="cls-16" d="M131.37,197.74a1.29,1.29,0,0,1,.77.34.2.2,0,0,1,0,.22.36.36,0,0,1-.05.08,2.45,2.45,0,0,1-1.26.71h-.09s-.13-.07-.12-.12a.55.55,0,0,1,0-.14,3.81,3.81,0,0,1,.51-1A.24.24,0,0,1,131.37,197.74Z"/><path class="cls-16" d="M41.37,91.39l.18,0a.4.4,0,0,1,.36.27c.08.21.13.43.19.64a.34.34,0,0,1,0,.09.19.19,0,0,1-.23.18l-.09,0a1.89,1.89,0,0,1-1-.82l0,0a.21.21,0,0,1,.14-.26Z"/><path class="cls-16" d="M53.49,74.62c0-.14,0-.28,0-.43a.12.12,0,0,1,.14-.1.46.46,0,0,1,.18.05,2.07,2.07,0,0,1,.63.87.38.38,0,0,1,0,.19.17.17,0,0,1-.1.15,1,1,0,0,1-.51.07.58.58,0,0,1-.21-.09.24.24,0,0,1-.12-.19c0-.17,0-.35,0-.52Z"/><path class="cls-16" d="M42.53,139.58a.27.27,0,0,1-.15.23.65.65,0,0,1-.18.06l-.75.1a.1.1,0,0,1-.11-.12.47.47,0,0,1,0-.14A1.84,1.84,0,0,1,42,139a.22.22,0,0,1,.33.05A.93.93,0,0,1,42.53,139.58Z"/><path class="cls-16" d="M90.26,180.88a1.16,1.16,0,0,1-.45-.08,1.7,1.7,0,0,1-.52-.33.18.18,0,0,1,0-.25l.13-.05.65-.16a.29.29,0,0,1,.29.12,1.23,1.23,0,0,1,.2.43.23.23,0,0,1-.18.29h0Z"/><path class="cls-16" d="M52.6,151.57a1.88,1.88,0,0,1-.6-.15s0-.1,0-.13a.36.36,0,0,1,.08-.11,2.8,2.8,0,0,1,.76-.39.31.31,0,0,1,.35.09.35.35,0,0,1,.1.39.28.28,0,0,1-.19.2Z"/><path class="cls-16" d="M58,54.61a.89.89,0,0,1,0,.1.19.19,0,0,1-.15.16.18.18,0,0,1-.15-.1,2.44,2.44,0,0,1-.14-.93l.08,0,0,0A1.22,1.22,0,0,1,58,54.61Z"/><path class="cls-17" d="M69.38,51.53a2.87,2.87,0,0,1,.8.13,2.22,2.22,0,0,1,1,.61,2.88,2.88,0,0,1,.73,1.57.36.36,0,0,1-.39.38l-.23-.06L71,54.11a.24.24,0,0,0-.22.07l-.82.93a.29.29,0,0,0,0,.36c.1.16.22.31.33.47s.31.44.46.66a.36.36,0,0,1-.33.53,1,1,0,0,1-.23-.05L70,57a8,8,0,0,1-1.92-1.48,3.58,3.58,0,0,1-.8-1.29,1.07,1.07,0,0,1,0-.75,2.59,2.59,0,0,0,.14-.75,1.23,1.23,0,0,1,.15-.5.82.82,0,0,1,.49-.42,6.69,6.69,0,0,1,.78-.22C69,51.55,69.21,51.55,69.38,51.53Zm-.15.62a2.59,2.59,0,0,0-.93.23.35.35,0,0,0-.21.3c0,.06,0,.13,0,.19,0,.28-.06.57-.12.85a.71.71,0,0,0,.08.55,4.44,4.44,0,0,0,.27.39.44.44,0,0,0,.47.16,4.43,4.43,0,0,0,.81-.27,1.12,1.12,0,0,0,.6-.7,1.76,1.76,0,0,0,.08-.32,2.31,2.31,0,0,1,.2-.73.19.19,0,0,0,0-.13.49.49,0,0,0-.22-.24A2.72,2.72,0,0,0,69.23,52.15Z"/><path class="cls-16" d="M69.23,52.15a2.72,2.72,0,0,1,1,.25.49.49,0,0,1,.22.24.19.19,0,0,1,0,.13,2.31,2.31,0,0,0-.2.73,1.76,1.76,0,0,1-.08.32,1.12,1.12,0,0,1-.6.7,4.43,4.43,0,0,1-.81.27.44.44,0,0,1-.47-.16,4.44,4.44,0,0,1-.27-.39.71.71,0,0,1-.08-.55c.06-.28.08-.57.12-.85,0-.06,0-.13,0-.19a.35.35,0,0,1,.21-.3A2.59,2.59,0,0,1,69.23,52.15ZM69,53.52V53.4a.16.16,0,0,0-.16-.14.25.25,0,0,0-.18.06.49.49,0,0,0-.13.52.22.22,0,0,0,.43,0C69,53.72,69,53.61,69,53.52Z"/><g class="cls-18"><polygon class="cls-19" points="67.4 67.96 65.53 65.61 63.68 67.97 65.55 70.33 67.4 67.96"/><polygon class="cls-20" points="63.69 67.76 65.74 65.64 67.38 68.17 65.34 70.3 63.69 67.76"/><polygon class="cls-21" points="63.69 67.76 65.74 65.64 67.38 68.17 65.34 70.3 63.69 67.76"/></g></svg>