<svg id="Layer_1" data-name="Layer 1" xmlns="http://www.w3.org/2000/svg" viewBox="0 0 341.84 736.42"><defs><style>.cls-1{fill:#231f20;}.cls-2{fill:#fff;}.cls-3{fill:#fff200;}.cls-4{fill:none;stroke:#231f20;}</style></defs><title>CL-398</title><path class="cls-1" d="M9.86,56.69a171.41,171.41,0,0,1,121-50.13A167.4,167.4,0,0,1,250,56.09L225.47,83.95H33.77Z" transform="translate(84.67 647.08)"/><path class="cls-1" d="M44.1-638.23a5.62,5.62,0,0,0,0,.71,3.75,3.75,0,0,0,.15.66H40.9a3.82,3.82,0,0,0,.15-.65,5.52,5.52,0,0,0,0-.73v-7.48a5.6,5.6,0,0,0,0-.71,3.76,3.76,0,0,0-.15-.66H49a2.12,2.12,0,0,1,1.5.5,1.94,1.94,0,0,1,.53,1.49V-643a1.76,1.76,0,0,1-.35,1.16,1.91,1.91,0,0,1-1.23.55l1.33,3.37a2.87,2.87,0,0,0,.74,1.09H48.1l-1.76-4.51H44.1Zm0-4.45h3.5a.49.49,0,0,0,.41-.15.89.89,0,0,0,.12-.53v-1.72q0-.68-.53-.68H44.1Z" transform="translate(84.67 647.08)"/><path class="cls-1" d="M60.27-639.66l3-7.42h3.82a3.85,3.85,0,0,0-.15.65,5.42,5.42,0,0,0,0,.73v7.47a5.55,5.55,0,0,0,0,.71,3.81,3.81,0,0,0,.15.66h-3.3a3.79,3.79,0,0,0,.15-.65,5.63,5.63,0,0,0,0-.73v-7.37l-3.54,8.75H58.35l-3.44-8.85,0,7.46a5.63,5.63,0,0,0,0,.72,3.86,3.86,0,0,0,.15.67H53.31a3.84,3.84,0,0,0,.15-.65,5.63,5.63,0,0,0,0-.73v-7.47a5.68,5.68,0,0,0,0-.71,3.76,3.76,0,0,0-.15-.66h4Z" transform="translate(84.67 647.08)"/><path class="cls-1" d="M76.06-636.85l-5.25-8.27,0,6.9a5.53,5.53,0,0,0,0,.71,3.79,3.79,0,0,0,.15.66H69.22a4,4,0,0,0,.15-.65,5.59,5.59,0,0,0,0-.73v-7.47a5.71,5.71,0,0,0,0-.71,3.9,3.9,0,0,0-.15-.66H73L78.13-639l0-6.74a5.68,5.68,0,0,0,0-.71,3.89,3.89,0,0,0-.15-.66h1.76a3.88,3.88,0,0,0-.15.65,5.45,5.45,0,0,0,0,.73v8.85Z" transform="translate(84.67 647.08)"/><path class="cls-1" d="M90.51-636.85a1.82,1.82,0,0,1-2-2.08V-645a1.82,1.82,0,0,1,2-2.08h6a1.82,1.82,0,0,1,2,2.08v6.07a1.82,1.82,0,0,1-2,2.08ZM95-638.16a.62.62,0,0,0,.45-.13.68.68,0,0,0,.13-.48v-6.39a.71.71,0,0,0-.12-.49.65.65,0,0,0-.46-.12H92a.63.63,0,0,0-.45.13.68.68,0,0,0-.13.48v6.39a.71.71,0,0,0,.12.49.65.65,0,0,0,.46.12Z" transform="translate(84.67 647.08)"/><path class="cls-1" d="M100.56-636.85a3.87,3.87,0,0,0,.15-.65,5.43,5.43,0,0,0,0-.73v-7.48a5.52,5.52,0,0,0,0-.71,3.8,3.8,0,0,0-.15-.66H109l.26,1.38-.74,0-.84,0h-3.87v3.09h3.38a8.26,8.26,0,0,0,.86,0,2.35,2.35,0,0,0,.73-.2v1.79a2.88,2.88,0,0,0-.74-.18,6.72,6.72,0,0,0-.84-.06h-3.38v3.14a5.53,5.53,0,0,0,0,.71,3.79,3.79,0,0,0,.15.66Z" transform="translate(84.67 647.08)"/><path class="cls-1" d="M110.54-636.85a3.87,3.87,0,0,0,.15-.65,5.43,5.43,0,0,0,0-.73v-7.48a5.52,5.52,0,0,0,0-.71,3.8,3.8,0,0,0-.15-.66h8.4l.26,1.38-.74,0-.84,0h-3.87v3.09h3.38a8.26,8.26,0,0,0,.86,0,2.35,2.35,0,0,0,.73-.2v1.79a2.88,2.88,0,0,0-.74-.18,6.72,6.72,0,0,0-.84-.06h-3.38v3.14a5.53,5.53,0,0,0,0,.71,3.79,3.79,0,0,0,.15.66Z" transform="translate(84.67 647.08)"/><path class="cls-1" d="M124.43-647.08a3.88,3.88,0,0,0-.15.65,5.44,5.44,0,0,0,0,.73v7.48a5.5,5.5,0,0,0,0,.71,3.78,3.78,0,0,0,.15.66H121a4,4,0,0,0,.15-.65,5.6,5.6,0,0,0,0-.73v-7.48a5.7,5.7,0,0,0,0-.71,3.9,3.9,0,0,0-.15-.66Z" transform="translate(84.67 647.08)"/><path class="cls-1" d="M128.94-636.85a1.82,1.82,0,0,1-2-2.08V-645a1.82,1.82,0,0,1,2-2.08h6l.26,1.38-.74,0-.84,0h-3.09a.63.63,0,0,0-.45.13.68.68,0,0,0-.13.48v6.39a.71.71,0,0,0,.12.49.65.65,0,0,0,.46.12h3.09a8.16,8.16,0,0,0,.86,0,2.34,2.34,0,0,0,.73-.2l-.26,1.55Z" transform="translate(84.67 647.08)"/><path class="cls-1" d="M136.62-636.85a4,4,0,0,0,.15-.65,5.45,5.45,0,0,0,0-.73v-7.48a5.53,5.53,0,0,0,0-.71,3.9,3.9,0,0,0-.15-.66H145l.26,1.38-.74,0-.84,0h-3.87v3.09h3.38a8.24,8.24,0,0,0,.86,0,2.34,2.34,0,0,0,.73-.2v1.79a2.88,2.88,0,0,0-.74-.18,6.71,6.71,0,0,0-.84-.06h-3.37v3.2h3.87a8.09,8.09,0,0,0,.86,0,2.34,2.34,0,0,0,.73-.2l-.26,1.55Z" transform="translate(84.67 647.08)"/><path class="cls-1" d="M150.27-638.23a5.51,5.51,0,0,0,0,.71,3.55,3.55,0,0,0,.15.66h-3.39a4,4,0,0,0,.15-.65,5.81,5.81,0,0,0,0-.73v-7.48a5.91,5.91,0,0,0,0-.71,3.9,3.9,0,0,0-.15-.66h8.11a2.12,2.12,0,0,1,1.5.5,1.94,1.94,0,0,1,.53,1.49V-643a1.76,1.76,0,0,1-.35,1.16,1.91,1.91,0,0,1-1.23.55l1.33,3.37a2.87,2.87,0,0,0,.74,1.09h-3.43l-1.76-4.51h-2.24Zm0-4.45h3.5a.49.49,0,0,0,.41-.15.88.88,0,0,0,.12-.53v-1.72q0-.68-.53-.68h-3.5Z" transform="translate(84.67 647.08)"/><path class="cls-1" d="M169.38-647.08a3.6,3.6,0,0,0-.15.65,5.41,5.41,0,0,0,0,.73v7.11c0,.29.16.43.46.43h4.64q.46,0,.46-.43v-7.11a5.89,5.89,0,0,0,0-.71,3.89,3.89,0,0,0-.15-.66h1.76a4,4,0,0,0-.15.65,5.81,5.81,0,0,0,0,.73v7.09a1.64,1.64,0,0,1-.54,1.25,1.84,1.84,0,0,1-1.31.51H168a1.86,1.86,0,0,1-1.32-.5,1.65,1.65,0,0,1-.54-1.25v-7.09a5.91,5.91,0,0,0,0-.71,3.9,3.9,0,0,0-.15-.66Z" transform="translate(84.67 647.08)"/><path class="cls-1" d="M185.25-636.85,180-645.12l0,6.9a5.54,5.54,0,0,0,0,.71,3.89,3.89,0,0,0,.15.66H178.4a4,4,0,0,0,.15-.65,5.79,5.79,0,0,0,0-.73v-7.47a5.92,5.92,0,0,0,0-.71,3.9,3.9,0,0,0-.15-.66h3.76l5.15,8.11,0-6.74a5.89,5.89,0,0,0,0-.71,3.89,3.89,0,0,0-.15-.66h1.76a4,4,0,0,0-.15.65,5.47,5.47,0,0,0,0,.73v8.85Z" transform="translate(84.67 647.08)"/><path class="cls-1" d="M194.73-647.08a4,4,0,0,0-.15.65,5.46,5.46,0,0,0,0,.73v7.48a5.52,5.52,0,0,0,0,.71,3.88,3.88,0,0,0,.15.66h-3.39a4,4,0,0,0,.15-.65,5.42,5.42,0,0,0,0-.73v-7.48a5.5,5.5,0,0,0,0-.71,3.9,3.9,0,0,0-.15-.66Z" transform="translate(84.67 647.08)"/><path class="cls-1" d="M196.94-636.85a4,4,0,0,0,.15-.65,5.45,5.45,0,0,0,0-.73v-7.48a5.53,5.53,0,0,0,0-.71,3.9,3.9,0,0,0-.15-.66h8.4l.26,1.38-.74,0-.84,0h-3.87v3.09h3.38a8.24,8.24,0,0,0,.86,0,2.34,2.34,0,0,0,.73-.2v1.79a2.88,2.88,0,0,0-.74-.18,6.71,6.71,0,0,0-.84-.06h-3.37v3.14a5.54,5.54,0,0,0,0,.71,3.89,3.89,0,0,0,.15.66Z" transform="translate(84.67 647.08)"/><path class="cls-1" d="M209.3-636.85a1.82,1.82,0,0,1-2-2.08V-645a1.82,1.82,0,0,1,2-2.08h6a1.82,1.82,0,0,1,2,2.08v6.07a1.82,1.82,0,0,1-2,2.08Zm4.51-1.31a.62.62,0,0,0,.45-.13.67.67,0,0,0,.13-.48v-6.39a.71.71,0,0,0-.12-.49.65.65,0,0,0-.46-.12h-3a.62.62,0,0,0-.45.13.68.68,0,0,0-.13.48v6.39a.71.71,0,0,0,.12.49.65.65,0,0,0,.46.12Z" transform="translate(84.67 647.08)"/><path class="cls-1" d="M222.7-638.23a5.51,5.51,0,0,0,0,.71,3.55,3.55,0,0,0,.15.66H219.5a4,4,0,0,0,.15-.65,5.81,5.81,0,0,0,0-.73v-7.48a5.91,5.91,0,0,0,0-.71,3.9,3.9,0,0,0-.15-.66h8.11a2.12,2.12,0,0,1,1.5.5,1.94,1.94,0,0,1,.53,1.49V-643a1.76,1.76,0,0,1-.35,1.16,1.91,1.91,0,0,1-1.23.55l1.33,3.37a2.87,2.87,0,0,0,.74,1.09H226.7l-1.76-4.51H222.7Zm0-4.45h3.5a.49.49,0,0,0,.41-.15.88.88,0,0,0,.12-.53v-1.72q0-.68-.53-.68h-3.5Z" transform="translate(84.67 647.08)"/><path class="cls-1" d="M238.88-639.66l3-7.42h3.82a4,4,0,0,0-.15.65,5.44,5.44,0,0,0,0,.73v7.47a5.56,5.56,0,0,0,0,.71,3.91,3.91,0,0,0,.15.66h-3.3a3.61,3.61,0,0,0,.15-.65,5.44,5.44,0,0,0,0-.73v-7.37L239-636.85H237l-3.44-8.85,0,7.46a5.65,5.65,0,0,0,0,.72,4,4,0,0,0,.15.67h-1.76a4,4,0,0,0,.15-.65,5.83,5.83,0,0,0,0-.73v-7.47a5.89,5.89,0,0,0,0-.71,3.89,3.89,0,0,0-.15-.66h4Z" transform="translate(84.67 647.08)"/><path class="cls-1" d="M257.17-638.93a1.83,1.83,0,0,1-2,2.08h-7l-.26-1.62a2.35,2.35,0,0,0,.74.23,5.26,5.26,0,0,0,.84.07h4.21a.62.62,0,0,0,.45-.13.68.68,0,0,0,.13-.48v-1.34a.71.71,0,0,0-.12-.49.65.65,0,0,0-.46-.12h-3.82a1.82,1.82,0,0,1-2-2.07V-645a1.82,1.82,0,0,1,2-2.07h7l.26,1.38-.74,0-.84,0h-4.22a.63.63,0,0,0-.45.13.67.67,0,0,0-.13.48v1a.7.7,0,0,0,.12.48.65.65,0,0,0,.46.12h3.82a1.83,1.83,0,0,1,2,2.08Z" transform="translate(84.67 647.08)"/><path class="cls-2" d="M-73.71-601.4a5.37,5.37,0,0,0-.83-.32,3.49,3.49,0,0,0-1-.11h-4.09a1.66,1.66,0,0,0-.68.09c-.11.06-.16.2-.16.41v.65q0,.32.16.41a1.66,1.66,0,0,0,.68.09h3.11a3.58,3.58,0,0,1,2.17.54,2.1,2.1,0,0,1,.71,1.78V-595a3.16,3.16,0,0,1-.61,2.13,2.76,2.76,0,0,1-2.14.69h-7.92l-.38-2.23a5.85,5.85,0,0,0,.79.24,4.37,4.37,0,0,0,.94.09h4.25a1.6,1.6,0,0,0,.67-.09c.11-.06.16-.2.16-.41v-.79a.44.44,0,0,0-.16-.4,1.47,1.47,0,0,0-.67-.1h-3.58a2.64,2.64,0,0,1-1.89-.54,2.76,2.76,0,0,1-.54-2V-601a3,3,0,0,1,.63-2,2.29,2.29,0,0,1,1.8-.7h8.15Z" transform="translate(84.67 647.08)"/><path class="cls-2" d="M-62.26-594.13a6.74,6.74,0,0,0,1.08-.06,6.42,6.42,0,0,0,.9-.24l-.4,2.21H-70.83a3.2,3.2,0,0,0,.27-.81,6.16,6.16,0,0,0,.09-1.17v-7.56a6.29,6.29,0,0,0-.08-1.18,3.55,3.55,0,0,0-.28-.8h10l.36,2.34a8.25,8.25,0,0,0-.88-.3,4.19,4.19,0,0,0-1.12-.13h-3.58v2.7h3.13a6.41,6.41,0,0,0,1.05-.06,8.11,8.11,0,0,0,.93-.24v2.52q-.41-.13-.87-.22a5.84,5.84,0,0,0-1.11-.09h-3.13v3.1Z" transform="translate(84.67 647.08)"/><path class="cls-2" d="M-53.39-597.23v3a6.29,6.29,0,0,0,.08,1.18,3.54,3.54,0,0,0,.28.8h-5.11a3.2,3.2,0,0,0,.27-.81,6.16,6.16,0,0,0,.09-1.17v-7.56a5.54,5.54,0,0,0-.1-1.21,2.09,2.09,0,0,0-.37-.77h9.47a3.66,3.66,0,0,1,2.28.57,2.39,2.39,0,0,1,.71,2v2.12a1.87,1.87,0,0,1-.45,1.5,2.1,2.1,0,0,1-1.31.35L-46-594l.48,1a3.62,3.62,0,0,0,.48.77H-50l-2.09-5Zm0-1.91h2.48a1,1,0,0,0,.58-.12q.14-.12.14-.53v-1.4a.69.69,0,0,0-.14-.52.92.92,0,0,0-.58-.13h-2.48Z" transform="translate(84.67 647.08)"/><path class="cls-2" d="M-39.17-592.22-43-602.68a2.55,2.55,0,0,0-.3-.58,2.69,2.69,0,0,0-.4-.48h5.47a3,3,0,0,0-.09.47v.16a3,3,0,0,0,.05.56,6.07,6.07,0,0,0,.31.93l2.52,6.94,2.7-6.94a8.28,8.28,0,0,0,.27-.81,2.66,2.66,0,0,0,.1-.68,1.7,1.7,0,0,0,0-.35c0-.11,0-.21-.05-.28h3a4.24,4.24,0,0,0-.56.79,9.76,9.76,0,0,0-.59,1.3l-3.64,9.43Z" transform="translate(84.67 647.08)"/><path class="cls-2" d="M-27.45-592.22a3.22,3.22,0,0,0,.27-.81,6.17,6.17,0,0,0,.09-1.17v-7.56a6.25,6.25,0,0,0-.08-1.18,3.55,3.55,0,0,0-.28-.8h5.11a3.22,3.22,0,0,0-.27.81,6.17,6.17,0,0,0-.09,1.17v7.56a6.25,6.25,0,0,0,.08,1.18,3.56,3.56,0,0,0,.28.8Z" transform="translate(84.67 647.08)"/><path class="cls-2" d="M-9.07-601.4a5.13,5.13,0,0,0-.8-.32,3.46,3.46,0,0,0-1-.11H-14q-.86,0-.86.74v6.23q0,.74.86.74h2.48a11.07,11.07,0,0,0,1.69-.08,3.87,3.87,0,0,0,1-.35l-.38,2.34h-7.09a2.85,2.85,0,0,1-2.19-.78,3.76,3.76,0,0,1-.73-2.6v-4.75a3.77,3.77,0,0,1,.73-2.59,2.83,2.83,0,0,1,2.19-.79h6.91Z" transform="translate(84.67 647.08)"/><path class="cls-2" d="M1.83-594.13a6.74,6.74,0,0,0,1.08-.06,6.42,6.42,0,0,0,.9-.24l-.4,2.21H-6.73a3.2,3.2,0,0,0,.27-.81,6.16,6.16,0,0,0,.09-1.17v-7.56a6.29,6.29,0,0,0-.08-1.18,3.55,3.55,0,0,0-.28-.8h10l.36,2.34a8.25,8.25,0,0,0-.88-.3,4.19,4.19,0,0,0-1.12-.13H-2v2.7H1.15a6.41,6.41,0,0,0,1.05-.06,8.11,8.11,0,0,0,.93-.24v2.52q-.41-.13-.87-.22a5.84,5.84,0,0,0-1.11-.09H-2v3.1Z" transform="translate(84.67 647.08)"/><path class="cls-2" d="M14.67-601.76a6.29,6.29,0,0,0-.08-1.18,3.55,3.55,0,0,0-.28-.8h8.95a3.56,3.56,0,0,1,2.56.75,3.5,3.5,0,0,1,.75,2.53v5a3.5,3.5,0,0,1-.75,2.53,3.56,3.56,0,0,1-2.56.75H14.31a3.2,3.2,0,0,0,.27-.81,6.16,6.16,0,0,0,.09-1.17Zm4.39,7.63h2.29a1,1,0,0,0,.68-.16,1.32,1.32,0,0,0,.14-.77v-5.83a1.33,1.33,0,0,0-.14-.77q-.14-.17-.68-.17H19.06Z" transform="translate(84.67 647.08)"/><path class="cls-2" d="M34.07-597.23v3a6.29,6.29,0,0,0,.08,1.18,3.54,3.54,0,0,0,.28.8H29.32a3.2,3.2,0,0,0,.27-.81,6.16,6.16,0,0,0,.09-1.17v-7.56a5.54,5.54,0,0,0-.1-1.21,2.09,2.09,0,0,0-.37-.77h9.47a3.66,3.66,0,0,1,2.28.57,2.39,2.39,0,0,1,.71,2v2.12a1.87,1.87,0,0,1-.45,1.5,2.1,2.1,0,0,1-1.31.35L41.47-594l.48,1a3.62,3.62,0,0,0,.48.77H37.51l-2.09-5Zm0-1.91h2.48a1,1,0,0,0,.58-.12q.14-.12.14-.53v-1.4a.69.69,0,0,0-.14-.52.92.92,0,0,0-.58-.13H34.07Z" transform="translate(84.67 647.08)"/><path class="cls-2" d="M53.22-594.13a6.74,6.74,0,0,0,1.08-.06,6.39,6.39,0,0,0,.9-.24l-.4,2.21H44.66a3.2,3.2,0,0,0,.27-.81A6.16,6.16,0,0,0,45-594.2v-7.56a6.29,6.29,0,0,0-.08-1.18,3.55,3.55,0,0,0-.28-.8h10L55-601.4a8.42,8.42,0,0,0-.88-.3,4.19,4.19,0,0,0-1.12-.13H49.41v2.7h3.13a6.4,6.4,0,0,0,1.05-.06,8.14,8.14,0,0,0,.93-.24v2.52a8.91,8.91,0,0,0-.87-.22,5.84,5.84,0,0,0-1.11-.09H49.41v3.1Z" transform="translate(84.67 647.08)"/><path class="cls-2" d="M68.49-601.4a5.39,5.39,0,0,0-.83-.32,3.5,3.5,0,0,0-1-.11H62.62a1.65,1.65,0,0,0-.68.09c-.11.06-.16.2-.16.41v.65c0,.22.05.35.16.41a1.65,1.65,0,0,0,.68.09h3.11a3.58,3.58,0,0,1,2.17.54,2.1,2.1,0,0,1,.71,1.78V-595a3.15,3.15,0,0,1-.61,2.13,2.75,2.75,0,0,1-2.14.69H57.94l-.38-2.23a5.83,5.83,0,0,0,.79.24,4.37,4.37,0,0,0,.94.09h4.25a1.59,1.59,0,0,0,.67-.09c.11-.06.16-.2.16-.41v-.79a.44.44,0,0,0-.16-.4,1.46,1.46,0,0,0-.67-.1H60a2.64,2.64,0,0,1-1.89-.54,2.76,2.76,0,0,1-.54-2V-601a3,3,0,0,1,.63-2,2.29,2.29,0,0,1,1.8-.7h8.15Z" transform="translate(84.67 647.08)"/><path class="cls-2" d="M82.49-601.4a5.39,5.39,0,0,0-.83-.32,3.5,3.5,0,0,0-1-.11H76.62a1.65,1.65,0,0,0-.68.09c-.11.06-.16.2-.16.41v.65c0,.22.05.35.16.41a1.65,1.65,0,0,0,.68.09h3.11a3.58,3.58,0,0,1,2.17.54,2.1,2.1,0,0,1,.71,1.78V-595a3.15,3.15,0,0,1-.61,2.13,2.75,2.75,0,0,1-2.14.69H71.94l-.38-2.23a5.83,5.83,0,0,0,.79.24,4.37,4.37,0,0,0,.94.09h4.25a1.59,1.59,0,0,0,.67-.09c.11-.06.16-.2.16-.41v-.79a.44.44,0,0,0-.16-.4,1.46,1.46,0,0,0-.67-.1H74a2.64,2.64,0,0,1-1.89-.54,2.76,2.76,0,0,1-.54-2V-601a3,3,0,0,1,.63-2,2.29,2.29,0,0,1,1.8-.7h8.15Z" transform="translate(84.67 647.08)"/><path class="cls-2" d="M103-594.13a2,2,0,0,0,1.12-.18q.2-.18.2-1v-6.39a7.7,7.7,0,0,0-.07-1.31,2.15,2.15,0,0,0-.36-.76h2.77a2.15,2.15,0,0,0-.36.76,7.6,7.6,0,0,0-.07,1.31v5.89a4.33,4.33,0,0,1-.67,2.79,3.3,3.3,0,0,1-2.55.77H97.18a3.07,3.07,0,0,1-2.43-.86,4,4,0,0,1-.76-2.7v-6a6.21,6.21,0,0,0-.08-1.18,3.55,3.55,0,0,0-.28-.8h5.11a3.2,3.2,0,0,0-.27.81,6.13,6.13,0,0,0-.09,1.17v6.55a1,1,0,0,0,1.1,1.08Z" transform="translate(84.67 647.08)"/><path class="cls-2" d="M111.38-601.76l0,7.47a7.7,7.7,0,0,0,.07,1.31,2.14,2.14,0,0,0,.36.76H109a2.16,2.16,0,0,0,.36-.76,7.74,7.74,0,0,0,.07-1.31v-7.38a7.74,7.74,0,0,0-.07-1.31,2.17,2.17,0,0,0-.36-.76h6.17l4.68,9.4.05-7.33a7.7,7.7,0,0,0-.07-1.31,2.14,2.14,0,0,0-.36-.76h2.77a2.14,2.14,0,0,0-.36.76,7.74,7.74,0,0,0-.07,1.31v9.45h-5.69Z" transform="translate(84.67 647.08)"/><path class="cls-2" d="M125.08-592.22a3.22,3.22,0,0,0,.27-.81,6.21,6.21,0,0,0,.09-1.17v-7.56a6.29,6.29,0,0,0-.08-1.18,3.5,3.5,0,0,0-.28-.8h5.11a3.2,3.2,0,0,0-.27.81,6.13,6.13,0,0,0-.09,1.17v7.56a6.31,6.31,0,0,0,.08,1.18,3.59,3.59,0,0,0,.28.8Z" transform="translate(84.67 647.08)"/><path class="cls-2" d="M137.9-594.2A6.22,6.22,0,0,0,138-593a3.54,3.54,0,0,0,.28.8h-5.11a3.26,3.26,0,0,0,.27-.81,6.12,6.12,0,0,0,.09-1.17v-7.56a6.19,6.19,0,0,0-.08-1.18,3.54,3.54,0,0,0-.28-.8h10l.34,2.34a5.17,5.17,0,0,0-.85-.3,4.42,4.42,0,0,0-1.12-.13H137.9v2.7H141a6.39,6.39,0,0,0,1.05-.06,8.14,8.14,0,0,0,.93-.24v2.52a8.91,8.91,0,0,0-.87-.22,5.86,5.86,0,0,0-1.11-.09H137.9Z" transform="translate(84.67 647.08)"/><path class="cls-2" d="M145.67-600.36a3.77,3.77,0,0,1,.73-2.59,2.83,2.83,0,0,1,2.19-.79h6.59a2.85,2.85,0,0,1,2.19.78,3.77,3.77,0,0,1,.73,2.6v4.75a3.78,3.78,0,0,1-.73,2.59,2.83,2.83,0,0,1-2.19.79h-6.59a2.85,2.85,0,0,1-2.19-.78,3.76,3.76,0,0,1-.73-2.6Zm4.39,5.49q0,.74.87.74h1.91q.86,0,.86-.74v-6.23q0-.74-.86-.74h-1.91q-.86,0-.87.74Z" transform="translate(84.67 647.08)"/><path class="cls-2" d="M165.6-597.23v3a6.22,6.22,0,0,0,.08,1.18,3.54,3.54,0,0,0,.28.8h-5.11a3.26,3.26,0,0,0,.27-.81,6.12,6.12,0,0,0,.09-1.17v-7.56a5.51,5.51,0,0,0-.1-1.21,2.11,2.11,0,0,0-.37-.77h9.47a3.66,3.66,0,0,1,2.28.57,2.39,2.39,0,0,1,.71,2v2.12a1.87,1.87,0,0,1-.45,1.5,2.1,2.1,0,0,1-1.31.35L173-594q.23.5.48,1a3.61,3.61,0,0,0,.48.77H169l-2.09-5Zm0-1.91h2.48a1,1,0,0,0,.58-.12.69.69,0,0,0,.14-.53v-1.4a.7.7,0,0,0-.14-.52.92.92,0,0,0-.58-.13H165.6Z" transform="translate(84.67 647.08)"/><path class="cls-2" d="M186.79-603.74h5.89a3.49,3.49,0,0,0-.28.79,5.54,5.54,0,0,0-.1,1.19v7.56a6.17,6.17,0,0,0,.08,1.19,3.08,3.08,0,0,0,.3.79h-5.13a3.11,3.11,0,0,0,.27-.81,6.12,6.12,0,0,0,.09-1.17v-7.09l-3.22,9.07h-3l-3.1-9.18,0,7.09a7.78,7.78,0,0,0,.07,1.33,2.16,2.16,0,0,0,.36.77h-2.77a2.16,2.16,0,0,0,.36-.76,7.81,7.81,0,0,0,.07-1.31v-7.38a7.81,7.81,0,0,0-.07-1.31,2.17,2.17,0,0,0-.36-.76h6l2.2,6.53Z" transform="translate(84.67 647.08)"/><path class="cls-3" d="M9.86,56.69a171.41,171.41,0,0,1,121-50.13A167.4,167.4,0,0,1,250,56.09L225.47,83.95H33.77ZM97,4.45A177,177,0,0,0,6,52.87a5.4,5.4,0,0,0-.25,7.39L29.71,87.51a5.4,5.4,0,0,0,4.06,1.84h191.7a5.39,5.39,0,0,0,4.05-1.83L254,59.65a5.39,5.39,0,0,0-.24-7.38A172.77,172.77,0,0,0,130.91,1.16,176.66,176.66,0,0,0,97,4.45" transform="translate(84.67 647.08)"/><path class="cls-4" d="M9.86,56.69a171.42,171.42,0,0,1,121-50.13A167.4,167.4,0,0,1,250,56.09" transform="translate(84.67 647.08)"/><path class="cls-3" d="M63.43,35.91l-1.55-3.14a8.34,8.34,0,0,0-.79-1.36,4.73,4.73,0,0,0-.81-.79l6.11-3a4.27,4.27,0,0,0,.16,1.13,8.22,8.22,0,0,0,.58,1.45l4.46,9a8.36,8.36,0,0,0,.79,1.36,4.68,4.68,0,0,0,.81.79l-6.11,3a4.28,4.28,0,0,0-.16-1.13,8.18,8.18,0,0,0-.58-1.45l-1.79-3.62-3.92,1.94,1.79,3.61a8.34,8.34,0,0,0,.79,1.36,4.71,4.71,0,0,0,.81.79l-6.11,3a4.3,4.3,0,0,0-.16-1.13,8.24,8.24,0,0,0-.58-1.45l-4.47-9a8.36,8.36,0,0,0-.79-1.36,4.73,4.73,0,0,0-.81-.79l6.11-3a4.28,4.28,0,0,0,.16,1.13A8.17,8.17,0,0,0,58,34.71l1.55,3.14Z" transform="translate(84.67 647.08)"/><path class="cls-3" d="M82.12,22l7.44-2.49a4.68,4.68,0,0,0,0,1.12,7.42,7.42,0,0,0,.38,1.54l3.19,9.56a8.35,8.35,0,0,0,.6,1.47,4.19,4.19,0,0,0,.71.88l-6.49,2.17a4.31,4.31,0,0,0,0-1.14,8.2,8.2,0,0,0-.38-1.52l-3-9-.24,12.83-3.85,1.29-7.79-10.3,2.95,9A10.56,10.56,0,0,0,76.29,39a2.9,2.9,0,0,0,.78.82L73.56,41a2.86,2.86,0,0,0,.14-1.11,10.34,10.34,0,0,0-.46-1.69L70.11,28.9a10.34,10.34,0,0,0-.65-1.63,2.86,2.86,0,0,0-.78-.8l7.65-2.55,5.54,7.33Z" transform="translate(84.67 647.08)"/><path class="cls-3" d="M107.2,19.3a7.18,7.18,0,0,0-1.16-.21,4.68,4.68,0,0,0-1.28.09l-5.35,1a2.22,2.22,0,0,0-.87.29q-.19.16-.11.58l.17.85c.05.28.16.45.32.5a2.2,2.2,0,0,0,.92-.06l4.08-.79a4.76,4.76,0,0,1,3,.15,2.8,2.8,0,0,1,1.38,2.15l.71,3.67a4.21,4.21,0,0,1-.26,2.95A3.67,3.67,0,0,1,106.1,32L95.73,34l-1.06-2.83a7.86,7.86,0,0,0,1.1.11A5.79,5.79,0,0,0,97,31.16l5.56-1.08a2.14,2.14,0,0,0,.85-.29c.13-.11.16-.3.11-.58l-.2-1q-.08-.4-.32-.49a2,2,0,0,0-.9,0l-4.69.91a3.51,3.51,0,0,1-2.61-.22A3.68,3.68,0,0,1,93.61,26L93,22.61a3.93,3.93,0,0,1,.31-2.82,3.06,3.06,0,0,1,2.18-1.38l10.67-2.08Z" transform="translate(84.67 647.08)"/><path class="cls-3" d="M122.9,26l-1,2.13a2,2,0,0,0-.2.92,2.07,2.07,0,0,0,.06.54,3.36,3.36,0,0,0,.3.56l-4.34.09q.68-.9,1-1.44a11.48,11.48,0,0,0,.69-1.38l5.36-11.82-.69-.85,6.93-.14,5.73,13.14a7.2,7.2,0,0,0,1.39,2.08l-7.7.15a3.64,3.64,0,0,0,.25-.59,1.4,1.4,0,0,0,.06-.42,2.89,2.89,0,0,0-.24-1.15l-.88-2Zm5.68-2.66-2.29-5.15-2.25,5.24Z" transform="translate(84.67 647.08)"/><path class="cls-3" d="M141.85,17.52l-1.09,9.9a10.18,10.18,0,0,0-.09,1.75,2.87,2.87,0,0,0,.37,1.05l-3.68-.39a2.86,2.86,0,0,0,.58-1,10.41,10.41,0,0,0,.28-1.73l1-9.79a10.24,10.24,0,0,0,.09-1.75,2.87,2.87,0,0,0-.37-1.05l8.19.86,4.9,13.11,1.09-9.71a10.24,10.24,0,0,0,.09-1.75,2.87,2.87,0,0,0-.37-1.05l3.68.39a2.85,2.85,0,0,0-.58,1,10.2,10.2,0,0,0-.28,1.73l-1.31,12.53-7.54-.79Z" transform="translate(84.67 647.08)"/><path class="cls-3" d="M171.51,22.87a6.72,6.72,0,0,0-1-.64,4.63,4.63,0,0,0-1.22-.42l-4.1-.9q-1.12-.25-1.34.71l-1.78,8.11q-.21,1,.91,1.21l3.24.71a14.73,14.73,0,0,0,2.23.38,5.11,5.11,0,0,0,1.34-.18l-1.16,2.94-9.24-2a3.8,3.8,0,0,1-2.62-1.64,5,5,0,0,1-.21-3.6L158,21.33a5,5,0,0,1,1.69-3.17,3.77,3.77,0,0,1,3.08-.41l9,2Z" transform="translate(84.67 647.08)"/><path class="cls-3" d="M169.68,35.18a4.26,4.26,0,0,0,.66-.93,8.26,8.26,0,0,0,.57-1.46l2.93-9.64a8.34,8.34,0,0,0,.35-1.54,4.77,4.77,0,0,0,0-1.13l6.52,2a4.27,4.27,0,0,0-.66.93,8.15,8.15,0,0,0-.57,1.46l-2.93,9.64a8.42,8.42,0,0,0-.35,1.54,4.72,4.72,0,0,0,0,1.13Z" transform="translate(84.67 647.08)"/><path class="cls-3" d="M189,39.24a7.36,7.36,0,0,0,1.48.44,3.13,3.13,0,0,0,1.05,0l-1.58,2.66-12.34-4.82a4.28,4.28,0,0,0,.73-.87,8.24,8.24,0,0,0,.68-1.41l3.67-9.39a8.35,8.35,0,0,0,.47-1.5,4.74,4.74,0,0,0,0-1.13l6.35,2.48a4.29,4.29,0,0,0-.73.88A8.15,8.15,0,0,0,188.1,28l-3.7,9.48Z" transform="translate(84.67 647.08)"/><path class="cls-3" d="M201.42,45.33a9,9,0,0,0,1.32.58,8.64,8.64,0,0,0,1.22.25l-1.81,2.39-12.07-6.12a4.26,4.26,0,0,0,.81-.8,8.19,8.19,0,0,0,.81-1.34l4.56-9a8.26,8.26,0,0,0,.61-1.45,4.73,4.73,0,0,0,.15-1.12l11.86,6-1,3a11,11,0,0,0-.86-.89,5.57,5.57,0,0,0-1.25-.82l-4.26-2.16-1.63,3.21L203.63,39a8.7,8.7,0,0,0,1.29.56,10.82,10.82,0,0,0,1.25.27l-1.52,3a11.79,11.79,0,0,0-.91-.78,7.83,7.83,0,0,0-1.26-.78l-3.72-1.89L196.88,43Z" transform="translate(84.67 647.08)"/><path class="cls-3" d="M90.82,59.79a8.67,8.67,0,0,0-1.38-.55,5.92,5.92,0,0,0-1.66-.2H82.35q-1.49,0-1.49,1.27V71q0,1.27,1.49,1.27h4.28a18.85,18.85,0,0,0,2.91-.14,6.6,6.6,0,0,0,1.64-.6l-.65,4H78.32a4.9,4.9,0,0,1-3.77-1.35q-1.26-1.35-1.25-4.48V61.59q0-3.1,1.25-4.46a4.87,4.87,0,0,1,3.77-1.36h11.9Z" transform="translate(84.67 647.08)"/><path class="cls-3" d="M107.34,72.32a9.54,9.54,0,0,0,2-.17,4.07,4.07,0,0,0,1.27-.48l-.65,3.94H92.83a5.56,5.56,0,0,0,.46-1.39,10.61,10.61,0,0,0,.16-2v-13a10.82,10.82,0,0,0-.14-2,6.15,6.15,0,0,0-.48-1.38h8.8a5.53,5.53,0,0,0-.46,1.39,10.63,10.63,0,0,0-.16,2V72.32Z" transform="translate(84.67 647.08)"/><path class="cls-3" d="M111.56,65.71h10.91v5.21H111.56Z" transform="translate(84.67 647.08)"/><path class="cls-3" d="M138.18,55.76a7.21,7.21,0,0,1,4.15.91,3.6,3.6,0,0,1,1.24,3.11V63.1a2.14,2.14,0,0,1-1.07,2,7.29,7.29,0,0,1-3.55.64q2.88,0,3.75.74a3.14,3.14,0,0,1,.87,2.55v3.2a3.32,3.32,0,0,1-.93,2.52,4.36,4.36,0,0,1-3.07.89H124.51l-.71-4.25a10.49,10.49,0,0,0,1.64.73,5.88,5.88,0,0,0,1.8.23h7.41a1.78,1.78,0,0,0,1.1-.23,1.31,1.31,0,0,0,.26-1V68.38a1.36,1.36,0,0,0-.25-1,1.88,1.88,0,0,0-1.12-.22h-3.6a11.14,11.14,0,0,0-1.81.11,13.93,13.93,0,0,0-1.6.42V63.36a15.3,15.3,0,0,0,1.5.37,10.06,10.06,0,0,0,1.91.16h3.6a1.79,1.79,0,0,0,1.1-.23,1.31,1.31,0,0,0,.26-1V60.26a1.36,1.36,0,0,0-.25-1,1.88,1.88,0,0,0-1.12-.22h-8.06a5.25,5.25,0,0,0-1.44.15,8.58,8.58,0,0,0-1.35.59l.68-4Z" transform="translate(84.67 647.08)"/><path class="cls-3" d="M157.65,72.32a2.42,2.42,0,0,0,1.44-.29,1.37,1.37,0,0,0,.36-1.1V67.14a3.84,3.84,0,0,1-.93,1.18,2,2,0,0,1-1.15.28h-6.29a5.33,5.33,0,0,1-3.5-1.15,3.77,3.77,0,0,1-1.39-3.07V60a3.76,3.76,0,0,1,1.41-3.05,5.3,5.3,0,0,1,3.49-1.16h11a5.34,5.34,0,0,1,3.5,1.15A3.77,3.77,0,0,1,167,60V71.39a3.77,3.77,0,0,1-1.41,3.05,5.31,5.31,0,0,1-3.49,1.16H147.21l-.68-3.84a7.16,7.16,0,0,0,1.5.41,16.7,16.7,0,0,0,2.59.15Zm.56-7a1.51,1.51,0,0,0,1-.23,1.16,1.16,0,0,0,.26-.88v-4a1.2,1.2,0,0,0-.25-.87,1.44,1.44,0,0,0-1-.25H155a1.51,1.51,0,0,0-1,.23,1.15,1.15,0,0,0-.26.88v4a1.22,1.22,0,0,0,.25.87,1.43,1.43,0,0,0,1,.25Z" transform="translate(84.67 647.08)"/><path class="cls-3" d="M186.26,55.76a4.56,4.56,0,0,1,3.3,1.07,4,4,0,0,1,1.1,3v1.86q0,2.08-1.12,2.68a10.23,10.23,0,0,1-3.63.85,6.59,6.59,0,0,1,3.57.88,3.07,3.07,0,0,1,1.18,2.71v2.67q0,4.09-4.4,4.09H174a4.44,4.44,0,0,1-3.27-1.1,4.21,4.21,0,0,1-1.1-3.11V68.64a3.21,3.21,0,0,1,1.18-2.79,6.06,6.06,0,0,1,3.53-.85q-3.07-.36-3.89-1.14a3.08,3.08,0,0,1-.82-2.34v-1.8q0-4,4.4-4Zm-4.34,7.87a1,1,0,0,0,1.18-1.24v-2a1.45,1.45,0,0,0-.28-1,1.23,1.23,0,0,0-.9-.28h-3.56a1.24,1.24,0,0,0-.9.28,1.45,1.45,0,0,0-.28,1v2a1.44,1.44,0,0,0,.28,1,1.23,1.23,0,0,0,.9.28Zm-3.56,3.29a1.24,1.24,0,0,0-.9.28,1.45,1.45,0,0,0-.28,1V71a1.44,1.44,0,0,0,.28,1,1.23,1.23,0,0,0,.9.28h3.56a1,1,0,0,0,1.18-1.24V68.22a1.49,1.49,0,0,0-.26-1,1.32,1.32,0,0,0-.95-.26Z" transform="translate(84.67 647.08)"/></svg>