<svg id="Layer_1" data-name="Layer 1" xmlns="http://www.w3.org/2000/svg" viewBox="0 0 254.53 111.25"><defs><style>.cls-1{opacity:0.5;}.cls-2{fill:#fff200;}.cls-3{fill:none;stroke:#231f20;}.cls-4{fill:#ffc418;}.cls-5{fill:#231f20;}</style></defs><title>1</title><g class="cls-1"><path class="cls-2" d="M7.2,57.33a171.41,171.41,0,0,1,121-50.13A167.4,167.4,0,0,1,247.33,56.73L222.81,84.59H31.11ZM94.36,5.09a177,177,0,0,0-91,48.41,5.4,5.4,0,0,0-.25,7.39L27.05,88.15A5.4,5.4,0,0,0,31.11,90h191.7a5.39,5.39,0,0,0,4.05-1.83l24.52-27.86a5.39,5.39,0,0,0-.24-7.38A172.77,172.77,0,0,0,128.25,1.8,176.66,176.66,0,0,0,94.36,5.09"/></g><path class="cls-3" d="M7.2,57.33a171.42,171.42,0,0,1,121-50.13A167.4,167.4,0,0,1,247.33,56.73"/><path class="cls-4" d="M85.21,111.25a7.2,7.2,0,0,1-5.09-2.11L62.76,91.79H31.11a7.2,7.2,0,0,1-5.41-2.45L1.79,62.08a7.2,7.2,0,0,1,.33-9.85A177.55,177.55,0,0,1,128.25,0,174.55,174.55,0,0,1,252.42,51.64a7.2,7.2,0,0,1,.31,9.85L228.22,89.34a7.2,7.2,0,0,1-5.41,2.44H188.24l-17.36,17.36a7.2,7.2,0,0,1-5.09,2.11Z"/><path class="cls-5" d="M247.33,56.73A167.4,167.4,0,0,0,128.25,7.2,171.42,171.42,0,0,0,7.2,57.33L31.11,84.59H65.75l19.47,19.47h80.58l19.47-19.47h37.55Z"/><path class="cls-4" d="M55.78,35.26a11.12,11.12,0,0,0-1-1.86,6.26,6.26,0,0,0-1-1.1l15.35-6.74q2.78-1.22,4.24-.73a4,4,0,0,1,2.27,2.34l.91,2.08a2.7,2.7,0,0,1,0,2.71,6.47,6.47,0,0,1-2.8,2,10.3,10.3,0,0,1,3.66-.57q1,.16,1.66,1.64l1.4,3.19a4.31,4.31,0,0,1,.26,3.42q-.6,1.46-3.38,2.69L62,51a5.71,5.71,0,0,0-.14-1.51,11,11,0,0,0-.69-2Zm9,1.14L69,34.57a1.74,1.74,0,0,0,.85-.6,1.23,1.23,0,0,0-.14-1l-1-2.29q-.28-.64-.61-.75a1.64,1.64,0,0,0-1,.21L62.87,32Zm3.58,8.15,4.16-1.83a1.73,1.73,0,0,0,.85-.6,1.22,1.22,0,0,0-.14-1L72,38.22c-.19-.43-.39-.68-.61-.75a1.64,1.64,0,0,0-1,.21L66.17,39.5Z"/><path class="cls-4" d="M86.58,35.22,86,38.29a2.69,2.69,0,0,0,0,1.25,2.76,2.76,0,0,0,.24.68,4.37,4.37,0,0,0,.56.63l-5.61,1.44q.6-1.38.86-2.17a15.36,15.36,0,0,0,.48-2l3.35-17-1.15-.89,9-2.3,11.45,15.3a9.59,9.59,0,0,0,2.43,2.28l-10,2.55a4.91,4.91,0,0,0,.15-.85,1.89,1.89,0,0,0,0-.57A3.88,3.88,0,0,0,97,35.26L95.3,33ZM93.15,30l-4.55-6-1.31,7.49Z"/><path class="cls-4" d="M123.57,13.89l1,4.08a6.43,6.43,0,0,0-1.34-.45,5.62,5.62,0,0,0-1.63,0l-3.54.33,1.26,13.51a11.16,11.16,0,0,0,.34,2.07,6.32,6.32,0,0,0,.63,1.37l-9,.84a5.74,5.74,0,0,0,.34-1.48,11,11,0,0,0,0-2.09l-1.26-13.51-3.54.33a5.35,5.35,0,0,0-1.56.32A7.16,7.16,0,0,0,104,20l.25-4.26Z"/><path class="cls-4" d="M134.63,25.82l-.36,5.36a11.21,11.21,0,0,0,0,2.1,6.28,6.28,0,0,0,.4,1.45l-9.07-.6a5.74,5.74,0,0,0,.57-1.4,11,11,0,0,0,.3-2.07l.89-13.41a9.79,9.79,0,0,0,0-2.15,3.71,3.71,0,0,0-.56-1.42l16.79,1.12a6.5,6.5,0,0,1,4,1.28,4.25,4.25,0,0,1,1,3.58l-.25,3.77q-.14,2-1,2.61a3.74,3.74,0,0,1-2.37.47l2.39,5.93q.35.92.73,1.83a6.39,6.39,0,0,0,.76,1.41l-8.72-.58L137,26Zm.23-3.38,4.41.29a1.74,1.74,0,0,0,1-.14q.27-.19.32-.92l.17-2.49a1.24,1.24,0,0,0-.19-.94,1.64,1.64,0,0,0-1-.29l-4.41-.29Z"/><path class="cls-4" d="M152.57,21.78q.76-3.11,2.36-4.17a5,5,0,0,1,4.11-.44L170.41,20a5.06,5.06,0,0,1,3.45,2.28q.93,1.66.16,4.8l-2,8.21q-.76,3.11-2.36,4.17a5,5,0,0,1-4.11.44l-11.38-2.79a5.06,5.06,0,0,1-3.44-2.28q-.93-1.66-.16-4.8Zm5.26,11.34q-.31,1.27,1.18,1.64l3.29.81q1.49.36,1.8-.91l2.63-10.75q.31-1.27-1.18-1.64l-3.29-.81q-1.49-.37-1.8.91Z"/><path class="cls-4" d="M181.89,27.38l-5.32,12.17a13.64,13.64,0,0,0-.81,2.2,3.77,3.77,0,0,0,.06,1.49l-4.53-2a3.81,3.81,0,0,0,1.12-1,13.76,13.76,0,0,0,1-2.09l5.19-12a13.67,13.67,0,0,0,.81-2.2,3.8,3.8,0,0,0-.06-1.49l10.08,4.35,1,18.63,5.24-11.92a13.77,13.77,0,0,0,.81-2.2,3.8,3.8,0,0,0-.06-1.49l4.53,2a3.8,3.8,0,0,0-1.12,1,13.69,13.69,0,0,0-1,2.09L192.22,50.3l-9.29-4Z"/><path class="cls-4" d="M133.83,91.68a10.09,10.09,0,0,0,.29,2.73,6.3,6.3,0,0,0,.91,1.85H120a5.56,5.56,0,0,0,.86-1.8,10.74,10.74,0,0,0,.29-2.79V73.06h-4.73V67.19l14-4.21h3.38Z"/></svg>