<svg id="Layer_1" data-name="Layer 1" xmlns="http://www.w3.org/2000/svg" viewBox="0 0 250.93 88.19"><defs><style>.cls-1{fill:#ffc418;}</style></defs><title>BC-545</title><path d="M5.4,55.53a171.41,171.41,0,0,1,121-50.13A167.4,167.4,0,0,1,245.53,54.93L221,82.78H29.31Z"/><path class="cls-1" d="M5.4,55.53a171.41,171.41,0,0,1,121-50.13A167.4,167.4,0,0,1,245.53,54.92L221,82.78H29.31ZM92.56,3.29a177,177,0,0,0-91,48.41,5.4,5.4,0,0,0-.25,7.39L25.25,86.35a5.4,5.4,0,0,0,4.06,1.84H221a5.39,5.39,0,0,0,4.05-1.83l24.52-27.86a5.39,5.39,0,0,0-.24-7.38A172.77,172.77,0,0,0,126.45,0,176.66,176.66,0,0,0,92.56,3.29"/><path class="cls-1" d="M64.49,32.25,63.06,29a8.3,8.3,0,0,0-.74-1.39,4.72,4.72,0,0,0-.77-.82l6.22-2.78a4.29,4.29,0,0,0,.11,1.13,8.14,8.14,0,0,0,.53,1.47l4.11,9.2a8.3,8.3,0,0,0,.74,1.39,4.66,4.66,0,0,0,.78.82l-6.22,2.78a4.3,4.3,0,0,0-.11-1.13,8.16,8.16,0,0,0-.53-1.47l-1.64-3.68-4,1.78L63.18,40a8.22,8.22,0,0,0,.74,1.39,4.71,4.71,0,0,0,.78.82L58.47,45a4.3,4.3,0,0,0-.11-1.13,8.22,8.22,0,0,0-.53-1.47l-4.11-9.2A8.36,8.36,0,0,0,53,31.83a4.72,4.72,0,0,0-.77-.82l6.22-2.78a4.27,4.27,0,0,0,.11,1.13,8.25,8.25,0,0,0,.53,1.47L60.5,34Z"/><path class="cls-1" d="M84.95,18.73l7.55-2.14a4.69,4.69,0,0,0-.07,1.12,7.43,7.43,0,0,0,.3,1.56L95.48,29a8.3,8.3,0,0,0,.54,1.5,4.17,4.17,0,0,0,.67.91L90.1,33.23a4.33,4.33,0,0,0,.05-1.14,8.27,8.27,0,0,0-.31-1.53l-2.57-9.1-.84,12.81-3.9,1.1-7.3-10.66,2.52,9.1a10.52,10.52,0,0,0,.58,1.68,2.88,2.88,0,0,0,.74.85l-3.56,1a2.88,2.88,0,0,0,.19-1.1,10.36,10.36,0,0,0-.38-1.71l-2.68-9.47a10.28,10.28,0,0,0-.57-1.66,2.86,2.86,0,0,0-.74-.84l7.76-2.19L84.27,28Z"/><path class="cls-1" d="M111.4,17.1a7.13,7.13,0,0,0-1.15-.27,4.65,4.65,0,0,0-1.28,0l-5.4.75a2.19,2.19,0,0,0-.89.24q-.2.15-.14.58l.12.86q.06.43.29.52a2.2,2.2,0,0,0,.92,0l4.11-.57a4.77,4.77,0,0,1,3,.32,2.8,2.8,0,0,1,1.26,2.22l.51,3.71a4.2,4.2,0,0,1-.42,2.93,3.67,3.67,0,0,1-2.7,1.31L99.15,31.15l-.91-2.88a7.64,7.64,0,0,0,1.09.17,5.83,5.83,0,0,0,1.25-.05l5.61-.78a2.12,2.12,0,0,0,.86-.24q.2-.15.14-.58l-.15-1a.59.59,0,0,0-.29-.51,2,2,0,0,0-.9,0l-4.73.66a3.52,3.52,0,0,1-2.6-.37A3.68,3.68,0,0,1,97.46,23L97,19.62a3.94,3.94,0,0,1,.46-2.8,3.06,3.06,0,0,1,2.25-1.26l10.77-1.49Z"/><path class="cls-1" d="M129.11,24.61,128,26.67a2,2,0,0,0-.26.9,2.1,2.1,0,0,0,0,.54,3.34,3.34,0,0,0,.26.58l-4.34-.22q.74-.85,1.1-1.36a11.52,11.52,0,0,0,.79-1.33l6.18-11.42-.63-.9,6.93.35,4.8,13.51a7.22,7.22,0,0,0,1.24,2.18l-7.69-.39a3.72,3.72,0,0,0,.29-.57,1.41,1.41,0,0,0,.09-.42,2.9,2.9,0,0,0-.16-1.16l-.74-2ZM135,22.36,133,17.06l-2.61,5.07Z"/><path class="cls-1" d="M149.43,28a1.86,1.86,0,0,0,1.36-.13,2.33,2.33,0,0,0,.62-1.48l1.38-8.14a8.46,8.46,0,0,0,.16-1.57,4.79,4.79,0,0,0-.19-1.12l6.72,1.14a4.27,4.27,0,0,0-.54,1,8.15,8.15,0,0,0-.38,1.52l-1.38,8.14q-.46,2.7-1.81,3.34a6.48,6.48,0,0,1-3.81.23l-7.5-1.27,0-3a5.43,5.43,0,0,0,2,.77Z"/><path class="cls-1" d="M163.77,29.31,162.18,31a2,2,0,0,0-.46.81,2.06,2.06,0,0,0-.11.53,3.34,3.34,0,0,0,.12.62l-4.17-1.23q.92-.65,1.39-1.07A11.56,11.56,0,0,0,160,29.61L168.7,20l-.4-1,6.65,2,1.5,14.25a7.19,7.19,0,0,0,.69,2.41l-7.39-2.18a3.68,3.68,0,0,0,.42-.49,1.41,1.41,0,0,0,.19-.38,2.9,2.9,0,0,0,.12-1.17l-.25-2.12ZM170,28.5l-.63-5.6-3.72,4.32Z"/><path class="cls-1" d="M190.77,31.81,194,30.56a5.7,5.7,0,0,0,1.23-.61,2.6,2.6,0,0,0,.69-.75l4.36,1.94a11.39,11.39,0,0,0-1.64.37q-.76.24-1.79.65l-5.44,2.18,1.8,8.16q.23,1,.4,1.57a6.06,6.06,0,0,0,.51,1.15l-7.67-3.42a3.84,3.84,0,0,0,.37-1.16,6.21,6.21,0,0,0-.21-1.39L186,36.5l-3.48,1.39a4,4,0,0,0-1.94,1.29l-4.15-1.85q1.09-.25,1.5-.38t1.75-.66L185.4,34l-1.86-8q-.24-1.05-.39-1.49a7.16,7.16,0,0,0-.7-1.31l7.89,3.52a3.46,3.46,0,0,0-.3,1,2.66,2.66,0,0,0,.06.91Z"/><path class="cls-1" d="M65.69,58a10.82,10.82,0,0,0-.14-2,6.11,6.11,0,0,0-.48-1.38H81.32q2.94,0,4,1a3.82,3.82,0,0,1,1.1,3v2.2a2.62,2.62,0,0,1-1.05,2.41,6.25,6.25,0,0,1-3.25.66,10,10,0,0,1,3.47.92,2.33,2.33,0,0,1,.84,2.1v3.38a4.18,4.18,0,0,1-1.1,3.14q-1.1,1.07-4,1.07H65.07A5.56,5.56,0,0,0,65.54,73a10.69,10.69,0,0,0,.16-2Zm7.56,4.53h4.4a1.68,1.68,0,0,0,1-.2c.17-.13.25-.44.25-.91V59a1.19,1.19,0,0,0-.25-.9,1.59,1.59,0,0,0-1-.22h-4.4Zm0,8.62h4.4a1.68,1.68,0,0,0,1-.2c.17-.13.25-.44.25-.92v-3.1a1.2,1.2,0,0,0-.25-.9,1.6,1.6,0,0,0-1-.22h-4.4Z"/><path class="cls-1" d="M106.43,58.63a8.67,8.67,0,0,0-1.38-.55,5.92,5.92,0,0,0-1.66-.2H98q-1.49,0-1.49,1.27V69.88q0,1.27,1.49,1.27h4.28a18.85,18.85,0,0,0,2.91-.14,6.6,6.6,0,0,0,1.64-.6l-.65,4H93.93a4.9,4.9,0,0,1-3.77-1.35q-1.26-1.35-1.25-4.48V60.43q0-3.1,1.25-4.46a4.87,4.87,0,0,1,3.77-1.36h11.9Z"/><path class="cls-1" d="M108.23,64.55h10.91v5.21H108.23Z"/><path class="cls-1" d="M128.9,61.79H137a5.28,5.28,0,0,1,3.8,1.1,4.68,4.68,0,0,1,1.1,3.43v3.6a4.68,4.68,0,0,1-1.1,3.43,5.28,5.28,0,0,1-3.8,1.1H122l-.68-4.28a4.67,4.67,0,0,0,1.36.71,7.71,7.71,0,0,0,2.39.28H133a1.76,1.76,0,0,0,1.13-.23,1.62,1.62,0,0,0,.23-1.07V66.38a1.56,1.56,0,0,0-.25-1.05,1.69,1.69,0,0,0-1.12-.25h-8a9.39,9.39,0,0,0-1.94.17,3.45,3.45,0,0,0-1.47.73l.25-11.38h19.84l.59,4a6.65,6.65,0,0,0-1.61-.57,13.1,13.1,0,0,0-2.51-.18h-9Z"/><path class="cls-1" d="M167.62,64.77V70h-3.38v1.74a6,6,0,0,0,.17,1.63,3.75,3.75,0,0,0,.54,1.1h-8.84a3.31,3.31,0,0,0,.51-1.07,6.39,6.39,0,0,0,.17-1.66V70H143.6V65.11L155.47,54.6h8.77V64.77ZM156.8,58.18,149,64.77h7.77Z"/><path class="cls-1" d="M176.55,61.79h8.09a5.28,5.28,0,0,1,3.8,1.1,4.68,4.68,0,0,1,1.1,3.43v3.6a4.68,4.68,0,0,1-1.1,3.43,5.28,5.28,0,0,1-3.8,1.1h-15L169,70.16a4.67,4.67,0,0,0,1.36.71,7.72,7.72,0,0,0,2.39.28h7.9a1.76,1.76,0,0,0,1.13-.23,1.62,1.62,0,0,0,.23-1.07V66.38a1.56,1.56,0,0,0-.25-1.05,1.69,1.69,0,0,0-1.12-.25h-8a9.38,9.38,0,0,0-1.94.17,3.46,3.46,0,0,0-1.47.73l.25-11.38h19.84l.59,4a6.65,6.65,0,0,0-1.61-.57,13.1,13.1,0,0,0-2.51-.18h-9Z"/></svg>