<svg id="Layer_1" data-name="Layer 1" xmlns="http://www.w3.org/2000/svg" viewBox="0 0 250.93 88.19"><defs><style>.cls-1{fill:#231f20;}.cls-2{fill:#ffc418;}</style></defs><title>BC-548</title><path class="cls-1" d="M5.4,55.53a171.41,171.41,0,0,1,121-50.13A167.4,167.4,0,0,1,245.53,54.93L221,82.78H29.31Z"/><path class="cls-2" d="M5.4,55.53a171.41,171.41,0,0,1,121-50.13A167.4,167.4,0,0,1,245.53,54.92L221,82.78H29.31ZM92.56,3.29a177,177,0,0,0-91,48.41,5.4,5.4,0,0,0-.25,7.39L25.25,86.35a5.4,5.4,0,0,0,4.06,1.84H221a5.39,5.39,0,0,0,4.05-1.83l24.52-27.86a5.39,5.39,0,0,0-.24-7.38A172.77,172.77,0,0,0,126.45,0,176.66,176.66,0,0,0,92.56,3.29"/><path class="cls-2" d="M58.89,34.79l-1.55-3.14a8.41,8.41,0,0,0-.79-1.36,4.75,4.75,0,0,0-.81-.79l6.11-3A4.27,4.27,0,0,0,62,27.6a8.22,8.22,0,0,0,.58,1.45l4.47,9a8.4,8.4,0,0,0,.79,1.36,4.73,4.73,0,0,0,.81.79l-6.11,3a4.28,4.28,0,0,0-.16-1.13,8.28,8.28,0,0,0-.58-1.45L60,37.07,56.1,39l1.79,3.61A8.4,8.4,0,0,0,58.68,44a4.73,4.73,0,0,0,.81.79l-6.11,3a4.31,4.31,0,0,0-.16-1.13,8.3,8.3,0,0,0-.58-1.45l-4.47-9a8.31,8.31,0,0,0-.79-1.36,4.75,4.75,0,0,0-.81-.79l6.11-3a4.29,4.29,0,0,0,.16,1.13,8.24,8.24,0,0,0,.58,1.45L55,36.73Z"/><path class="cls-2" d="M77.57,20.84,85,18.35a4.64,4.64,0,0,0,0,1.12A7.44,7.44,0,0,0,85.38,21l3.2,9.56A8.34,8.34,0,0,0,89.18,32a4.2,4.2,0,0,0,.71.88l-6.49,2.17a4.31,4.31,0,0,0,0-1.14A8.21,8.21,0,0,0,83,32.43l-3-9L79.79,36.3l-3.85,1.29-7.8-10.3,3,9a10.53,10.53,0,0,0,.65,1.65,2.89,2.89,0,0,0,.78.81L69,39.9a2.84,2.84,0,0,0,.13-1.11,10.27,10.27,0,0,0-.46-1.69l-3.12-9.33a10.25,10.25,0,0,0-.65-1.63,2.85,2.85,0,0,0-.77-.8l7.65-2.56,5.54,7.33Z"/><path class="cls-2" d="M102.65,18.15a7.1,7.1,0,0,0-1.17-.21,4.69,4.69,0,0,0-1.28.1l-5.35,1a2.2,2.2,0,0,0-.87.29c-.13.11-.16.3-.11.58l.17.85c.05.28.16.45.32.5a2.22,2.22,0,0,0,.92-.06l4.08-.79a4.76,4.76,0,0,1,3,.15,2.8,2.8,0,0,1,1.39,2.15l.72,3.67a4.21,4.21,0,0,1-.26,2.95,3.68,3.68,0,0,1-2.63,1.45l-10.36,2L90.13,30a7.72,7.72,0,0,0,1.1.11A5.86,5.86,0,0,0,92.47,30L98,28.93a2.12,2.12,0,0,0,.85-.29q.19-.16.11-.58l-.2-1c-.05-.27-.16-.43-.32-.49a2,2,0,0,0-.9,0l-4.69.92a3.52,3.52,0,0,1-2.61-.22,3.68,3.68,0,0,1-1.21-2.43l-.66-3.37a3.93,3.93,0,0,1,.31-2.82,3.06,3.06,0,0,1,2.18-1.38l10.67-2.08Z"/><path class="cls-2" d="M124.93,19.58l-.08-3.5a8.38,8.38,0,0,0-.14-1.57,4.7,4.7,0,0,0-.4-1.06l6.81-.16a4.29,4.29,0,0,0-.33,1.09,8.2,8.2,0,0,0-.08,1.56L130.94,26a8.36,8.36,0,0,0,.14,1.57,4.66,4.66,0,0,0,.4,1.06l-6.81.16a4.3,4.3,0,0,0,.33-1.09,8.27,8.27,0,0,0,.08-1.56l-.09-4-4.37.1.09,4a8.36,8.36,0,0,0,.14,1.57,4.73,4.73,0,0,0,.4,1.06l-6.81.16a4.29,4.29,0,0,0,.33-1.09,8.12,8.12,0,0,0,.08-1.56l-.23-10.08a8.3,8.3,0,0,0-.14-1.57,4.78,4.78,0,0,0-.4-1.06l6.81-.16a4.33,4.33,0,0,0-.33,1.09,8.28,8.28,0,0,0-.08,1.56l.08,3.5Z"/><path class="cls-2" d="M143.68,27.18a9,9,0,0,0,1.44,0,8.58,8.58,0,0,0,1.22-.22l-.78,2.9-13.49-1.14a4.32,4.32,0,0,0,.45-1,8.3,8.3,0,0,0,.25-1.54l.85-10a8.3,8.3,0,0,0,0-1.58,4.69,4.69,0,0,0-.28-1.1l13.25,1.12.21,3.15a10.94,10.94,0,0,0-1.14-.5,5.55,5.55,0,0,0-1.47-.29l-4.76-.4-.3,3.59,4.16.35a8.51,8.51,0,0,0,1.41,0,10.67,10.67,0,0,0,1.26-.22l-.28,3.35q-.54-.21-1.14-.39a7.89,7.89,0,0,0-1.46-.24L139,22.64l-.35,4.11Z"/><path class="cls-2" d="M162,20.44a6.71,6.71,0,0,0-1-.61,4.6,4.6,0,0,0-1.23-.38l-4.13-.76q-1.13-.21-1.31.76l-1.5,8.17q-.18,1,1,1.18l3.26.6a14.55,14.55,0,0,0,2.24.3,5.1,5.1,0,0,0,1.34-.23l-1.06,3-9.3-1.71a3.8,3.8,0,0,1-2.68-1.56,5,5,0,0,1-.33-3.59l1.15-6.23A5,5,0,0,1,150,16.13a3.77,3.77,0,0,1,3.06-.51l9.06,1.67Z"/><path class="cls-2" d="M178,21.77l-.41,3.13a4.84,4.84,0,0,0-.81-.69,4.19,4.19,0,0,0-1.12-.48L173.13,23l-2.83,9.77a8.32,8.32,0,0,0-.33,1.54,4.75,4.75,0,0,0,.06,1.13l-6.55-1.9a4.3,4.3,0,0,0,.65-.94,8.29,8.29,0,0,0,.55-1.46l2.83-9.77-2.56-.74a4,4,0,0,0-1.18-.2,5.37,5.37,0,0,0-1.09.2L164,17.71Z"/><path class="cls-2" d="M178.42,26.63a5,5,0,0,1,2.23-2.82,3.77,3.77,0,0,1,3.1.15l8.11,3.38a3.8,3.8,0,0,1,2.29,2.08,5,5,0,0,1-.44,3.58l-2.44,5.85A5,5,0,0,1,189,41.66a3.77,3.77,0,0,1-3.1-.15l-8.11-3.38a3.8,3.8,0,0,1-2.29-2.08,5,5,0,0,1,.44-3.58Zm2.59,9q-.38.91.68,1.35L184,38q1.06.44,1.44-.46l3.19-7.67q.38-.91-.69-1.35l-2.35-1q-1.06-.44-1.44.46Z"/><path class="cls-2" d="M199.07,40.68l-2,3.51a8.27,8.27,0,0,0-.68,1.42,4.69,4.69,0,0,0-.2,1.11l-5.93-3.37a4.3,4.3,0,0,0,.85-.76,8.21,8.21,0,0,0,.88-1.3l5-8.76a7.46,7.46,0,0,0,.68-1.46,2.81,2.81,0,0,0,.08-1.14l11,6.24A4.88,4.88,0,0,1,211,38.32a3.19,3.19,0,0,1-.47,2.75l-1.4,2.46q-.76,1.34-1.51,1.45a2.81,2.81,0,0,1-1.75-.46l-.32,4.79q-.06.74-.11,1.47a4.78,4.78,0,0,0,0,1.2l-5.7-3.24.88-7.18Zm1.26-2.21,2.88,1.64a1.31,1.31,0,0,0,.75.24c.16,0,.33-.2.52-.52l.92-1.63a.93.93,0,0,0,.18-.7A1.24,1.24,0,0,0,205,37l-2.88-1.64Z"/><path class="cls-2" d="M65.41,58a10.92,10.92,0,0,0-.14-2,6.18,6.18,0,0,0-.48-1.38H81q2.94,0,4,1a3.82,3.82,0,0,1,1.1,3v2.2a2.62,2.62,0,0,1-1.05,2.41,6.26,6.26,0,0,1-3.25.66,10,10,0,0,1,3.47.92,2.32,2.32,0,0,1,.84,2.1v3.38a4.17,4.17,0,0,1-1.1,3.14q-1.1,1.07-4,1.07H64.8A5.56,5.56,0,0,0,65.26,73a10.7,10.7,0,0,0,.15-2ZM73,62.54h4.4a1.68,1.68,0,0,0,1-.2q.25-.2.25-.91V59a1.2,1.2,0,0,0-.25-.9,1.59,1.59,0,0,0-1-.22H73Zm0,8.62h4.4a1.68,1.68,0,0,0,1-.2q.25-.2.25-.92v-3.1a1.2,1.2,0,0,0-.25-.9,1.6,1.6,0,0,0-1-.22H73Z"/><path class="cls-2" d="M106.15,58.63a8.67,8.67,0,0,0-1.38-.55,5.92,5.92,0,0,0-1.66-.2H97.69q-1.49,0-1.49,1.27V69.88q0,1.27,1.49,1.27H102a18.85,18.85,0,0,0,2.91-.14,6.6,6.6,0,0,0,1.64-.6l-.65,4H93.66a4.9,4.9,0,0,1-3.77-1.35q-1.26-1.35-1.25-4.48V60.43q0-3.1,1.25-4.46a4.87,4.87,0,0,1,3.77-1.36h11.9Z"/><path class="cls-2" d="M107.95,64.55h10.91v5.21H107.95Z"/><path class="cls-2" d="M128.62,61.79h8.09a5.28,5.28,0,0,1,3.8,1.1,4.68,4.68,0,0,1,1.1,3.43v3.6a4.68,4.68,0,0,1-1.1,3.43,5.28,5.28,0,0,1-3.8,1.1h-15L121,70.16a4.67,4.67,0,0,0,1.36.71,7.71,7.71,0,0,0,2.39.28h7.9a1.76,1.76,0,0,0,1.13-.23,1.62,1.62,0,0,0,.23-1.07V66.38a1.56,1.56,0,0,0-.25-1.05,1.69,1.69,0,0,0-1.12-.25h-8a9.39,9.39,0,0,0-1.94.17,3.45,3.45,0,0,0-1.47.73l.25-11.38h19.84l.59,4a6.65,6.65,0,0,0-1.61-.57,13.1,13.1,0,0,0-2.51-.18h-9Z"/><path class="cls-2" d="M167.34,64.77V70H164v1.74a6,6,0,0,0,.17,1.63,3.75,3.75,0,0,0,.54,1.1h-8.83a3.35,3.35,0,0,0,.51-1.07,6.39,6.39,0,0,0,.17-1.66V70H143.32V65.11L155.19,54.6H164V64.77Zm-10.82-6.59-7.77,6.59h7.77Z"/><path class="cls-2" d="M185.54,54.6a4.56,4.56,0,0,1,3.3,1.07,4,4,0,0,1,1.1,3v1.86q0,2.08-1.12,2.68a10.23,10.23,0,0,1-3.63.85,6.59,6.59,0,0,1,3.57.88,3.07,3.07,0,0,1,1.18,2.71v2.67q0,4.09-4.4,4.09H173.26a4.44,4.44,0,0,1-3.27-1.1,4.21,4.21,0,0,1-1.1-3.11V67.48a3.21,3.21,0,0,1,1.18-2.79,6.06,6.06,0,0,1,3.53-.85q-3.07-.36-3.89-1.14a3.08,3.08,0,0,1-.82-2.34v-1.8q0-4,4.4-4Zm-4.34,7.87a1,1,0,0,0,1.18-1.24v-2a1.45,1.45,0,0,0-.28-1,1.23,1.23,0,0,0-.9-.28h-3.56a1.24,1.24,0,0,0-.9.28,1.45,1.45,0,0,0-.28,1v2a1.44,1.44,0,0,0,.28,1,1.23,1.23,0,0,0,.9.28Zm-3.56,3.29a1.24,1.24,0,0,0-.9.28,1.45,1.45,0,0,0-.28,1v2.79a1.44,1.44,0,0,0,.28,1,1.23,1.23,0,0,0,.9.28h3.56a1,1,0,0,0,1.18-1.24V67.06a1.49,1.49,0,0,0-.26-1,1.32,1.32,0,0,0-.95-.26Z"/></svg>