<svg id="Layer_1" data-name="Layer 1" xmlns="http://www.w3.org/2000/svg" viewBox="0 0 250.93 88.19"><defs><style>.cls-1{fill:#231f20;}.cls-2{fill:#ffc418;}.cls-3{fill:none;stroke:#231f20;}</style></defs><title>BC-544</title><path class="cls-1" d="M5.4,55.53a171.41,171.41,0,0,1,121-50.13A167.4,167.4,0,0,1,245.53,54.93L221,82.78H29.31Z"/><path class="cls-2" d="M5.4,55.53a171.41,171.41,0,0,1,121-50.13A167.4,167.4,0,0,1,245.53,54.92L221,82.78H29.31ZM92.56,3.29a177,177,0,0,0-91,48.41,5.4,5.4,0,0,0-.25,7.39L25.25,86.35a5.4,5.4,0,0,0,4.06,1.84H221a5.39,5.39,0,0,0,4.05-1.83l24.52-27.86a5.39,5.39,0,0,0-.24-7.38A172.77,172.77,0,0,0,126.45,0,176.66,176.66,0,0,0,92.56,3.29"/><path class="cls-3" d="M5.4,55.53a171.42,171.42,0,0,1,121-50.13A167.4,167.4,0,0,1,245.53,54.93"/><path class="cls-2" d="M25.83,57l-2.1-2.43a7.63,7.63,0,0,0-1-1,4.32,4.32,0,0,0-.9-.52L26.54,49a3.91,3.91,0,0,0,.4,1,7.53,7.53,0,0,0,.85,1.15l6,7a7.65,7.65,0,0,0,1,1,4.3,4.3,0,0,0,.9.52L31,63.72a4,4,0,0,0-.4-1,7.59,7.59,0,0,0-.85-1.15l-2.42-2.8-3,2.62,2.42,2.8a7.68,7.68,0,0,0,1,1,4.33,4.33,0,0,0,.9.52l-4.73,4.08a4,4,0,0,0-.4-1,7.54,7.54,0,0,0-.85-1.15l-6-7a7.63,7.63,0,0,0-1-1,4.31,4.31,0,0,0-.9-.52l4.73-4.09a3.91,3.91,0,0,0,.4,1,7.58,7.58,0,0,0,.85,1.15l2.1,2.43Z"/><path class="cls-2" d="M40,39.67l6-4a4.3,4.3,0,0,0,.25,1A6.85,6.85,0,0,0,47,38L52,45.7a7.57,7.57,0,0,0,.88,1.16,3.85,3.85,0,0,0,.84.61l-5.24,3.45a4,4,0,0,0-.27-1,7.56,7.56,0,0,0-.69-1.25l-4.77-7.24L45.6,52.85l-3.1,2L33.16,47.6l4.73,7.26a9.58,9.58,0,0,0,1,1.31,2.65,2.65,0,0,0,.88.54l-2.83,1.86a2.63,2.63,0,0,0-.14-1A9.45,9.45,0,0,0,36,56.17l-5-7.53a9.48,9.48,0,0,0-1-1.29,2.63,2.63,0,0,0-.88-.53l6.17-4.07L42,47.93Z"/><path class="cls-2" d="M62.5,30.79a6.57,6.57,0,0,0-1.08.1,4.29,4.29,0,0,0-1.11.39l-4.48,2.2a2,2,0,0,0-.7.47c-.09.13-.07.3,0,.54l.35.71q.17.36.4.37a2,2,0,0,0,.8-.27l3.42-1.67A4.37,4.37,0,0,1,62.81,33a2.56,2.56,0,0,1,1.74,1.57l1.51,3.08a3.86,3.86,0,0,1,.48,2.67,3.37,3.37,0,0,1-2,1.91l-8.69,4.26L54.25,44.3a7.42,7.42,0,0,0,1-.17,5.39,5.39,0,0,0,1.07-.41L61,41.44a2,2,0,0,0,.68-.46q.13-.19,0-.54l-.43-.87q-.16-.34-.4-.36a1.78,1.78,0,0,0-.78.25l-3.93,1.93a3.21,3.21,0,0,1-2.36.42,3.37,3.37,0,0,1-1.65-1.86l-1.39-2.82a3.6,3.6,0,0,1-.4-2.57,2.8,2.8,0,0,1,1.6-1.74l8.95-4.39Z"/><path class="cls-2" d="M80.06,32.16l-.37,2.12a1.85,1.85,0,0,0,0,.86,1.87,1.87,0,0,0,.18.46,3,3,0,0,0,.4.42l-3.83,1.1q.39-1,.55-1.51a10.54,10.54,0,0,0,.29-1.39l2-11.73-.81-.59,6.11-1.76,8.18,10.29A6.61,6.61,0,0,0,94.46,32l-6.79,2a3.41,3.41,0,0,0,.08-.58,1.29,1.29,0,0,0,0-.39,2.63,2.63,0,0,0-.48-1L86,30.45Zm4.41-3.69-3.25-4-.75,5.17Z"/><path class="cls-2" d="M108.94,21.12a4.91,4.91,0,0,0-.37,1.15,4.26,4.26,0,0,0,.07,1.13l.56,3.43a10.54,10.54,0,0,0,.37,1.71,3.34,3.34,0,0,0,.64.93l-4.67.76L105.16,29a2.31,2.31,0,0,1-.45,1.1,2.35,2.35,0,0,1-1.32.5l-4.69.76a3.48,3.48,0,0,1-2.79-.52,4.6,4.6,0,0,1-1.39-3l-.93-5.73A4.61,4.61,0,0,1,94,18.83a3.46,3.46,0,0,1,2.48-1.38l10.16-1.65.87,2.76a6.23,6.23,0,0,0-1-.23,4.23,4.23,0,0,0-1.18.05l-5.62.92q-1,.17-.9,1.06L100,27.86q.15.89,1.19.72l1.78-.29q1-.17.9-1.06l-.46-2.84-2,.32a1.37,1.37,0,0,0-.52.18l-.33.22-.42-2.56Z"/><path class="cls-2" d="M115.1,25.37l-.86,2a1.84,1.84,0,0,0-.16.84,1.89,1.89,0,0,0,.07.49,3,3,0,0,0,.29.5l-4,.18q.6-.84.89-1.34a10.44,10.44,0,0,0,.6-1.28l4.65-11-.65-.76,6.35-.28,5.55,11.91a6.58,6.58,0,0,0,1.32,1.88l-7.06.31a3.33,3.33,0,0,0,.22-.55,1.28,1.28,0,0,0,0-.39,2.66,2.66,0,0,0-.25-1l-.85-1.77Zm5.15-2.56L118,18.13,116.09,23Z"/><path class="cls-2" d="M143.76,15.63l7.17.65a4.28,4.28,0,0,0-.43.93,6.76,6.76,0,0,0-.25,1.44l-.83,9.2a7.61,7.61,0,0,0,0,1.46,3.87,3.87,0,0,0,.27,1l-6.24-.56a4,4,0,0,0,.42-1,7.58,7.58,0,0,0,.24-1.41l.78-8.63-4.92,10.69-3.7-.33-2.76-11.51-.82,8.62a9.6,9.6,0,0,0-.06,1.63,2.64,2.64,0,0,0,.35,1l-3.37-.3a2.62,2.62,0,0,0,.52-.88,9.46,9.46,0,0,0,.23-1.59l.81-9a9.41,9.41,0,0,0,.06-1.61,2.62,2.62,0,0,0-.36-1l7.36.67,2,8.19Z"/><path class="cls-2" d="M161.9,30.71a8.21,8.21,0,0,0,1.31.21,7.9,7.9,0,0,0,1.14-.06l-1,2.54-12.13-2.63a4,4,0,0,0,.53-.9,7.59,7.59,0,0,0,.41-1.37l2-9a7.54,7.54,0,0,0,.21-1.43,4.32,4.32,0,0,0-.13-1l11.91,2.58-.18,2.89a10,10,0,0,0-1-.59,5.12,5.12,0,0,0-1.3-.44l-4.28-.93-.7,3.23,3.74.81a7.86,7.86,0,0,0,1.27.2,9.79,9.79,0,0,0,1.17-.05l-.65,3q-.46-.26-1-.48a7.14,7.14,0,0,0-1.3-.39L158.14,26l-.8,3.7Z"/><path class="cls-2" d="M181.76,24.61,188.55,27a4.27,4.27,0,0,0-.64.8,6.79,6.79,0,0,0-.6,1.33l-3.07,8.72a7.63,7.63,0,0,0-.39,1.4,3.82,3.82,0,0,0,0,1L178,38.2a4,4,0,0,0,.64-.83,7.6,7.6,0,0,0,.58-1.31l2.88-8.18L174.66,37l-3.51-1.23L171.3,24l-2.91,8.15a9.47,9.47,0,0,0-.46,1.56,2.64,2.64,0,0,0,.1,1l-3.2-1.12a2.61,2.61,0,0,0,.72-.73,9.41,9.41,0,0,0,.62-1.49l3-8.51a9.53,9.53,0,0,0,.45-1.54,2.64,2.64,0,0,0-.11-1l7,2.45-.12,8.42Z"/><path class="cls-2" d="M193.06,31.94,188.85,40a9.39,9.39,0,0,0-.66,1.47,2.63,2.63,0,0,0,0,1l-3-1.55a2.62,2.62,0,0,0,.81-.62,9.46,9.46,0,0,0,.81-1.39l4.12-8a9.49,9.49,0,0,0,.66-1.47,2.63,2.63,0,0,0,0-1l6.71,3.45-.16,12.83,4.15-7.93a9.35,9.35,0,0,0,.66-1.47,2.63,2.63,0,0,0,0-1l3,1.55a2.62,2.62,0,0,0-.81.62,9.4,9.4,0,0,0-.81,1.39l-5.28,10.27L192.9,45Z"/><path class="cls-2" d="M206.63,41.08A4.6,4.6,0,0,1,209.14,39a3.46,3.46,0,0,1,2.76.7l6.67,4.52a3.48,3.48,0,0,1,1.68,2.29,4.6,4.6,0,0,1-1,3.13l-3.26,4.81a4.61,4.61,0,0,1-2.51,2.12,3.46,3.46,0,0,1-2.76-.7L204,51.31A3.48,3.48,0,0,1,202.32,49a4.59,4.59,0,0,1,1-3.13Zm.68,8.57q-.51.75.37,1.34l1.93,1.31q.87.59,1.38-.16l4.27-6.3q.51-.75-.37-1.34L213,43.19q-.87-.59-1.38.15Z"/><path class="cls-2" d="M224.87,52l-6,6.87a9.3,9.3,0,0,0-1,1.27,2.59,2.59,0,0,0-.27,1L215,58.89a2.64,2.64,0,0,0,.94-.41,9.47,9.47,0,0,0,1.12-1.16L223,50.51a9.47,9.47,0,0,0,1-1.27,2.63,2.63,0,0,0,.27-1l5.7,4.94-3.2,12.42,5.91-6.72a9.3,9.3,0,0,0,1-1.27,2.6,2.6,0,0,0,.27-1l2.56,2.22a2.62,2.62,0,0,0-.94.41,9.4,9.4,0,0,0-1.12,1.16l-7.56,8.73-5.25-4.55Z"/><path class="cls-2" d="M64.84,58a10.83,10.83,0,0,0-.14-2,6.15,6.15,0,0,0-.48-1.38H80.47q2.94,0,4,1a3.82,3.82,0,0,1,1.1,3v2.2a2.62,2.62,0,0,1-1.05,2.41,6.26,6.26,0,0,1-3.25.66,10,10,0,0,1,3.47.92,2.32,2.32,0,0,1,.84,2.1v3.38a4.17,4.17,0,0,1-1.1,3.14q-1.1,1.07-4,1.07H64.22A5.56,5.56,0,0,0,64.69,73a10.66,10.66,0,0,0,.15-2Zm7.56,4.53h4.4a1.68,1.68,0,0,0,1-.2q.25-.2.25-.91V59a1.2,1.2,0,0,0-.25-.9,1.59,1.59,0,0,0-1-.22h-4.4Zm0,8.62h4.4a1.68,1.68,0,0,0,1-.2q.25-.2.25-.92v-3.1a1.2,1.2,0,0,0-.25-.9,1.6,1.6,0,0,0-1-.22h-4.4Z"/><path class="cls-2" d="M105.57,58.63a8.67,8.67,0,0,0-1.38-.55,5.92,5.92,0,0,0-1.66-.2H97.11q-1.49,0-1.49,1.27V69.88q0,1.27,1.49,1.27h4.28A18.85,18.85,0,0,0,104.3,71a6.6,6.6,0,0,0,1.64-.6l-.65,4H93.08a4.9,4.9,0,0,1-3.77-1.35q-1.26-1.35-1.25-4.48V60.43q0-3.1,1.25-4.46a4.87,4.87,0,0,1,3.77-1.36H105Z"/><path class="cls-2" d="M107.37,64.55h10.91v5.21H107.37Z"/><path class="cls-2" d="M128,61.79h8.09a5.28,5.28,0,0,1,3.8,1.1,4.67,4.67,0,0,1,1.1,3.43v3.6a4.67,4.67,0,0,1-1.1,3.43,5.28,5.28,0,0,1-3.8,1.1h-15l-.68-4.28a4.67,4.67,0,0,0,1.36.71,7.71,7.71,0,0,0,2.39.28h7.9a1.77,1.77,0,0,0,1.13-.23,1.64,1.64,0,0,0,.23-1.07V66.38a1.57,1.57,0,0,0-.25-1.05,1.69,1.69,0,0,0-1.12-.25h-8a9.39,9.39,0,0,0-1.94.17,3.45,3.45,0,0,0-1.47.73l.25-11.38h19.84l.59,4a6.64,6.64,0,0,0-1.61-.57,13.12,13.12,0,0,0-2.51-.18h-9Z"/><path class="cls-2" d="M166.77,64.77V70h-3.38v1.74a6,6,0,0,0,.17,1.63,3.75,3.75,0,0,0,.54,1.1h-8.84a3.31,3.31,0,0,0,.51-1.07,6.39,6.39,0,0,0,.17-1.66V70H142.74V65.11L154.62,54.6h8.77V64.77Zm-10.82-6.59-7.77,6.59h7.77Z"/><path class="cls-2" d="M191.45,64.77V70h-3.38v1.74a6,6,0,0,0,.17,1.63,3.75,3.75,0,0,0,.54,1.1h-8.84a3.31,3.31,0,0,0,.51-1.07,6.39,6.39,0,0,0,.17-1.66V70H167.42V65.11L179.29,54.6h8.77V64.77Zm-10.82-6.59-7.77,6.59h7.77Z"/></svg>