<svg id="Layer_1" data-name="Layer 1" xmlns="http://www.w3.org/2000/svg" viewBox="0 0 250.93 88.19"><defs><style>.cls-1{fill:#231f20;}.cls-2{fill:#ffc418;}.cls-3{fill:none;stroke:#231f20;}</style></defs><title>BC-566</title><path class="cls-1" d="M5.4,55.53a171.41,171.41,0,0,1,121-50.13A167.4,167.4,0,0,1,245.53,54.93L221,82.78H29.31Z"/><path class="cls-2" d="M5.4,55.53a171.41,171.41,0,0,1,121-50.13A167.4,167.4,0,0,1,245.53,54.92L221,82.78H29.31ZM92.56,3.29a177,177,0,0,0-91,48.41,5.4,5.4,0,0,0-.25,7.39L25.25,86.35a5.4,5.4,0,0,0,4.06,1.84H221a5.39,5.39,0,0,0,4.05-1.83l24.52-27.86a5.39,5.39,0,0,0-.24-7.38A172.77,172.77,0,0,0,126.45,0,176.66,176.66,0,0,0,92.56,3.29"/><path class="cls-3" d="M5.4,55.53a171.42,171.42,0,0,1,121-50.13A167.4,167.4,0,0,1,245.53,54.93"/><path class="cls-2" d="M41,44.79l-2-2.91a8.35,8.35,0,0,0-1-1.25,4.77,4.77,0,0,0-.9-.68l5.66-3.79a4.26,4.26,0,0,0,.3,1.1A8.12,8.12,0,0,0,44,38.62L49.57,47a8.37,8.37,0,0,0,1,1.25,4.69,4.69,0,0,0,.9.68l-5.66,3.79a4.29,4.29,0,0,0-.3-1.1,8.24,8.24,0,0,0-.77-1.36L42.46,46.9l-3.63,2.43,2.24,3.35a8.3,8.3,0,0,0,1,1.25,4.73,4.73,0,0,0,.9.68L37.29,58.4a4.31,4.31,0,0,0-.3-1.1,8.24,8.24,0,0,0-.77-1.36L30.6,47.57a8.38,8.38,0,0,0-1-1.25,4.73,4.73,0,0,0-.9-.68l5.66-3.79a4.27,4.27,0,0,0,.3,1.1,8.2,8.2,0,0,0,.77,1.36l2,2.91Z"/><path class="cls-2" d="M57.73,28.52l7.05-3.45a4.64,4.64,0,0,0,.13,1.11,7.47,7.47,0,0,0,.58,1.48l4.43,9.06a8.28,8.28,0,0,0,.79,1.38,4.21,4.21,0,0,0,.82.77l-6.14,3a4.35,4.35,0,0,0-.15-1.13,8.18,8.18,0,0,0-.58-1.45l-4.15-8.5L62,43.55l-3.64,1.78-9.08-9.18,4.11,8.51a10.46,10.46,0,0,0,.87,1.55,2.89,2.89,0,0,0,.88.71l-3.32,1.62a2.86,2.86,0,0,0,0-1.12,10.27,10.27,0,0,0-.68-1.62L46.74,37a10.32,10.32,0,0,0-.86-1.53,2.88,2.88,0,0,0-.87-.69l7.24-3.54,6.45,6.54Z"/><path class="cls-2" d="M82.25,22.56a7.21,7.21,0,0,0-1.18-.05,4.71,4.71,0,0,0-1.25.26l-5.16,1.73a2.23,2.23,0,0,0-.83.4q-.17.18,0,.59l.28.82q.14.41.38.46a2.22,2.22,0,0,0,.9-.18l3.94-1.32a4.77,4.77,0,0,1,3-.24,2.8,2.8,0,0,1,1.66,2l1.19,3.55a4.21,4.21,0,0,1,.13,3,3.67,3.67,0,0,1-2.41,1.79l-10,3.36L71.39,36a7.75,7.75,0,0,0,1.1,0,5.8,5.8,0,0,0,1.22-.29l5.37-1.8a2.11,2.11,0,0,0,.8-.4q.17-.18,0-.59l-.34-1c-.09-.26-.21-.41-.38-.44a2,2,0,0,0-.88.16L73.79,33.1a3.52,3.52,0,0,1-2.62.12A3.68,3.68,0,0,1,69.65,31l-1.09-3.25a3.93,3.93,0,0,1-.07-2.84,3.06,3.06,0,0,1,2-1.65l10.31-3.46Z"/><path class="cls-2" d="M104.55,21.08,104,17.62a8.35,8.35,0,0,0-.35-1.54,4.72,4.72,0,0,0-.53-1l6.74-1a4.26,4.26,0,0,0-.19,1.12,8.25,8.25,0,0,0,.12,1.56l1.53,10a8.35,8.35,0,0,0,.35,1.54,4.72,4.72,0,0,0,.53,1l-6.74,1a4.3,4.3,0,0,0,.19-1.12,8.26,8.26,0,0,0-.12-1.56l-.61-4-4.32.66.61,4a8.36,8.36,0,0,0,.34,1.54,4.73,4.73,0,0,0,.53,1l-6.74,1a4.33,4.33,0,0,0,.19-1.12,8.33,8.33,0,0,0-.12-1.56l-1.53-10a8.36,8.36,0,0,0-.34-1.54,4.72,4.72,0,0,0-.53-1l6.74-1a4.26,4.26,0,0,0-.19,1.12,8.17,8.17,0,0,0,.12,1.56l.53,3.46Z"/><path class="cls-2" d="M124.13,26.2a8.89,8.89,0,0,0,1.43-.15,8.64,8.64,0,0,0,1.18-.38l-.39,3-13.52.62a4.35,4.35,0,0,0,.31-1.1,8.3,8.3,0,0,0,0-1.56l-.46-10.07a8.34,8.34,0,0,0-.18-1.57,4.69,4.69,0,0,0-.42-1l13.28-.61.62,3.09a11.21,11.21,0,0,0-1.19-.35,5.63,5.63,0,0,0-1.5-.1l-4.77.22.16,3.6,4.17-.19a8.61,8.61,0,0,0,1.4-.15,10.67,10.67,0,0,0,1.22-.38l.15,3.36a12,12,0,0,0-1.18-.23,7.85,7.85,0,0,0-1.48-.05l-4.17.19.19,4.12Z"/><path class="cls-2" d="M133.68,22.28l-.25,4a8.38,8.38,0,0,0,0,1.58,4.72,4.72,0,0,0,.31,1.09l-6.8-.42a4.31,4.31,0,0,0,.43-1.06,8.27,8.27,0,0,0,.22-1.55l.62-10.06a7.38,7.38,0,0,0,0-1.61,2.78,2.78,0,0,0-.43-1.06l12.6.78a4.87,4.87,0,0,1,3,.94,3.18,3.18,0,0,1,.79,2.68l-.17,2.83a2.5,2.5,0,0,1-.72,2,2.81,2.81,0,0,1-1.78.36l1.82,4.44q.27.69.55,1.37a4.8,4.8,0,0,0,.57,1.06l-6.54-.4-2.37-6.83Zm.16-2.54,3.31.2a1.29,1.29,0,0,0,.78-.11c.13-.1.21-.33.24-.69l.11-1.87a.92.92,0,0,0-.15-.71,1.23,1.23,0,0,0-.76-.21l-3.31-.2Z"/><path class="cls-2" d="M149.2,26.32l-1.4,1.89a2,2,0,0,0-.38.86,2,2,0,0,0-.05.54,3.26,3.26,0,0,0,.18.61l-4.27-.8q.85-.74,1.28-1.2a11.62,11.62,0,0,0,1-1.21l7.66-10.48-.5-1,6.82,1.28,2.93,14a7.22,7.22,0,0,0,.93,2.32l-7.57-1.42a3.68,3.68,0,0,0,.37-.53,1.4,1.4,0,0,0,.15-.4,2.9,2.9,0,0,0,0-1.17l-.46-2.09Zm6.11-1.44-1.19-5.51L150.84,24Z"/><path class="cls-2" d="M179.45,25.58a6.81,6.81,0,0,0-.9-.72,4.62,4.62,0,0,0-1.18-.52l-4-1.24q-1.1-.34-1.39.6l-2.45,7.93q-.29.94.81,1.28l3.16,1a14.74,14.74,0,0,0,2.19.56,5.11,5.11,0,0,0,1.35-.07l-1.4,2.83-9-2.79a3.79,3.79,0,0,1-2.48-1.86,5,5,0,0,1,.09-3.6l1.87-6.05a5,5,0,0,1,1.95-3,3.77,3.77,0,0,1,3.1-.15l8.81,2.72Z"/><path class="cls-2" d="M187.73,39.51a7.36,7.36,0,0,0,1.47.47,3.1,3.1,0,0,0,1.05,0l-1.64,2.62-12.22-5.12a4.29,4.29,0,0,0,.75-.86,8.25,8.25,0,0,0,.71-1.39l3.89-9.3a8.38,8.38,0,0,0,.51-1.49,4.77,4.77,0,0,0,.07-1.13L188.61,26a4.28,4.28,0,0,0-.75.86,8.25,8.25,0,0,0-.71,1.39l-3.93,9.39Z"/><path class="cls-2" d="M200,45.91a9.13,9.13,0,0,0,1.31.61,8.85,8.85,0,0,0,1.21.28l-1.86,2.35-11.92-6.41a4.32,4.32,0,0,0,.83-.78,8.22,8.22,0,0,0,.84-1.32l4.78-8.88a8.34,8.34,0,0,0,.65-1.44,4.73,4.73,0,0,0,.18-1.12l11.71,6.3-1.06,3a11,11,0,0,0-.84-.92,5.58,5.58,0,0,0-1.23-.85l-4.21-2.26-1.71,3.17,3.68,2a8.74,8.74,0,0,0,1.28.59,10.7,10.7,0,0,0,1.24.3l-1.59,3q-.41-.41-.89-.8a7.74,7.74,0,0,0-1.24-.8l-3.68-2-2,3.63Z"/><path class="cls-2" d="M220.37,47.63a7.11,7.11,0,0,0-.67-1,4.7,4.7,0,0,0-1-.84l-4.51-3.06a2.22,2.22,0,0,0-.82-.41c-.16,0-.33.1-.49.33l-.49.71q-.24.36-.13.58a2.21,2.21,0,0,0,.69.61l3.43,2.33a4.77,4.77,0,0,1,2,2.22,2.8,2.8,0,0,1-.55,2.5l-2.1,3.1a4.21,4.21,0,0,1-2.27,1.89,3.68,3.68,0,0,1-2.88-.84l-8.73-5.94,1.26-2.75a7.91,7.91,0,0,0,.7.85,5.83,5.83,0,0,0,1,.8l4.68,3.18a2.13,2.13,0,0,0,.8.4q.24,0,.49-.33l.59-.87a.59.59,0,0,0,.13-.57,2,2,0,0,0-.66-.61l-4-2.68a3.52,3.52,0,0,1-1.68-2,3.68,3.68,0,0,1,.88-2.57L208,39.85a3.93,3.93,0,0,1,2.22-1.77,3.06,3.06,0,0,1,2.51.58l9,6.11Z"/><path class="cls-2" d="M66,58a10.72,10.72,0,0,0-.14-2,6,6,0,0,0-.48-1.38H81.61q2.94,0,4,1a3.82,3.82,0,0,1,1.1,3v2.2a2.62,2.62,0,0,1-1.05,2.41,6.25,6.25,0,0,1-3.25.66,10,10,0,0,1,3.47.92,2.33,2.33,0,0,1,.84,2.1v3.38a4.18,4.18,0,0,1-1.1,3.14q-1.1,1.07-4,1.07H65.37A5.52,5.52,0,0,0,65.83,73,10.6,10.6,0,0,0,66,71Zm7.56,4.53H78a1.68,1.68,0,0,0,1-.2c.17-.13.25-.44.25-.91V59a1.19,1.19,0,0,0-.25-.9,1.59,1.59,0,0,0-1-.22h-4.4Zm0,8.62H78a1.68,1.68,0,0,0,1-.2c.17-.13.25-.44.25-.92v-3.1a1.2,1.2,0,0,0-.25-.9,1.6,1.6,0,0,0-1-.22h-4.4Z"/><path class="cls-2" d="M106.72,58.63a8.67,8.67,0,0,0-1.38-.55,5.92,5.92,0,0,0-1.66-.2H98.26q-1.49,0-1.49,1.27V69.88q0,1.27,1.49,1.27h4.28a18.85,18.85,0,0,0,2.91-.14,6.6,6.6,0,0,0,1.64-.6l-.65,4H94.23a4.9,4.9,0,0,1-3.77-1.35q-1.26-1.35-1.25-4.48V60.43q0-3.1,1.25-4.46a4.87,4.87,0,0,1,3.77-1.36h11.9Z"/><path class="cls-2" d="M108.52,64.55h10.91v5.21H108.52Z"/><path class="cls-2" d="M129.2,61.79h8.09a5.28,5.28,0,0,1,3.8,1.1,4.68,4.68,0,0,1,1.1,3.43v3.6a4.68,4.68,0,0,1-1.1,3.43,5.28,5.28,0,0,1-3.8,1.1h-15l-.68-4.28a4.67,4.67,0,0,0,1.36.71,7.71,7.71,0,0,0,2.39.28h7.9a1.76,1.76,0,0,0,1.13-.23,1.62,1.62,0,0,0,.23-1.07V66.38a1.56,1.56,0,0,0-.25-1.05,1.69,1.69,0,0,0-1.12-.25h-8a9.39,9.39,0,0,0-1.94.17,3.45,3.45,0,0,0-1.47.73l.25-11.38h19.84l.59,4a6.65,6.65,0,0,0-1.61-.57,13.1,13.1,0,0,0-2.51-.18h-9Z"/><path class="cls-2" d="M154.28,57.89a2.42,2.42,0,0,0-1.44.29,1.38,1.38,0,0,0-.36,1.1v3.78a3.81,3.81,0,0,1,.93-1.18,2,2,0,0,1,1.15-.28h6.29a5.33,5.33,0,0,1,3.5,1.15,3.77,3.77,0,0,1,1.4,3.07v4.4a3.76,3.76,0,0,1-1.41,3.05,5.3,5.3,0,0,1-3.49,1.16h-11a5.33,5.33,0,0,1-3.5-1.15,3.77,3.77,0,0,1-1.39-3.07V58.82a3.76,3.76,0,0,1,1.41-3.05,5.3,5.3,0,0,1,3.49-1.16h14.91l.68,4a5.79,5.79,0,0,0-1.5-.55,12.61,12.61,0,0,0-2.59-.19Zm-.56,7a1.51,1.51,0,0,0-1,.23,1.16,1.16,0,0,0-.26.88v4a1.21,1.21,0,0,0,.25.87,1.43,1.43,0,0,0,1,.25h3.22a1.51,1.51,0,0,0,1-.23,1.16,1.16,0,0,0,.26-.88V66a1.22,1.22,0,0,0-.25-.87,1.44,1.44,0,0,0-1-.25Z"/><path class="cls-2" d="M177.8,57.89a2.43,2.43,0,0,0-1.44.29,1.38,1.38,0,0,0-.36,1.1v3.78a3.81,3.81,0,0,1,.93-1.18,2,2,0,0,1,1.15-.28h6.29a5.33,5.33,0,0,1,3.5,1.15,3.77,3.77,0,0,1,1.39,3.07v4.4a3.77,3.77,0,0,1-1.41,3.05,5.31,5.31,0,0,1-3.49,1.16h-11a5.33,5.33,0,0,1-3.5-1.15,3.77,3.77,0,0,1-1.39-3.07V58.82a3.77,3.77,0,0,1,1.41-3.05,5.31,5.31,0,0,1,3.49-1.16h14.91l.68,4a5.82,5.82,0,0,0-1.5-.55,12.62,12.62,0,0,0-2.59-.19Zm-.56,7a1.51,1.51,0,0,0-1,.23A1.16,1.16,0,0,0,176,66v4a1.21,1.21,0,0,0,.25.87,1.43,1.43,0,0,0,1,.25h3.22a1.51,1.51,0,0,0,1-.23,1.16,1.16,0,0,0,.26-.88V66a1.21,1.21,0,0,0-.25-.87,1.44,1.44,0,0,0-1-.25Z"/></svg>