<svg id="Layer_1" data-name="Layer 1" xmlns="http://www.w3.org/2000/svg" viewBox="0 0 250.93 88.19"><defs><style>.cls-1{fill:#231f20;}.cls-2{fill:#ffc418;}.cls-3{fill:none;stroke:#231f20;}</style></defs><title>BC-585</title><path class="cls-1" d="M5.4,55.53a171.41,171.41,0,0,1,121-50.13A167.4,167.4,0,0,1,245.53,54.93L221,82.78H29.31Z"/><path class="cls-2" d="M5.4,55.53a171.41,171.41,0,0,1,121-50.13A167.4,167.4,0,0,1,245.53,54.92L221,82.78H29.31ZM92.56,3.29a177,177,0,0,0-91,48.41,5.4,5.4,0,0,0-.25,7.39L25.25,86.35a5.4,5.4,0,0,0,4.06,1.84H221a5.39,5.39,0,0,0,4.05-1.83l24.52-27.86a5.39,5.39,0,0,0-.24-7.38A172.77,172.77,0,0,0,126.45,0,176.66,176.66,0,0,0,92.56,3.29"/><path class="cls-3" d="M5.4,55.53a171.42,171.42,0,0,1,121-50.13A167.4,167.4,0,0,1,245.53,54.93"/><path class="cls-2" d="M41.25,44.66,39.3,41.75a8.33,8.33,0,0,0-1-1.25,4.72,4.72,0,0,0-.9-.68L43.11,36a4.3,4.3,0,0,0,.3,1.1,8.28,8.28,0,0,0,.77,1.36l5.6,8.38a8.35,8.35,0,0,0,1,1.25,4.76,4.76,0,0,0,.9.68L46,52.59a4.3,4.3,0,0,0-.3-1.1,8.17,8.17,0,0,0-.77-1.36l-2.24-3.35L39,49.2l2.24,3.35a8.38,8.38,0,0,0,1,1.25,4.72,4.72,0,0,0,.9.68l-5.67,3.79a4.31,4.31,0,0,0-.3-1.1,8.24,8.24,0,0,0-.77-1.36l-5.6-8.38a8.38,8.38,0,0,0-1-1.25,4.72,4.72,0,0,0-.9-.68l5.67-3.79a4.29,4.29,0,0,0,.3,1.1,8.23,8.23,0,0,0,.77,1.36l1.95,2.91Z"/><path class="cls-2" d="M58,28.42,65,25a4.65,4.65,0,0,0,.13,1.11,7.3,7.3,0,0,0,.57,1.48l4.41,9.06A8.35,8.35,0,0,0,70.92,38a4.29,4.29,0,0,0,.82.78l-6.15,3a4.34,4.34,0,0,0-.15-1.13,8.18,8.18,0,0,0-.58-1.46l-4.14-8.5,1.43,12.76-3.65,1.78L49.44,36l4.09,8.51a10.52,10.52,0,0,0,.86,1.55,2.9,2.9,0,0,0,.88.71L52,48.43a2.86,2.86,0,0,0,0-1.12,10.3,10.3,0,0,0-.68-1.62L47,36.85a10.36,10.36,0,0,0-.85-1.53,2.87,2.87,0,0,0-.87-.7l7.25-3.53,6.44,6.55Z"/><path class="cls-2" d="M82.48,22.49a7.09,7.09,0,0,0-1.18-.05A4.69,4.69,0,0,0,80,22.7l-5.17,1.73a2.2,2.2,0,0,0-.83.4q-.17.18,0,.59l.27.82c.09.27.22.42.38.46a2.21,2.21,0,0,0,.9-.18l3.94-1.32a4.77,4.77,0,0,1,3-.23,2.8,2.8,0,0,1,1.65,2l1.19,3.55a4.21,4.21,0,0,1,.13,3A3.67,3.67,0,0,1,83,35.21L73,38.56,71.6,35.9a7.75,7.75,0,0,0,1.1,0,5.78,5.78,0,0,0,1.22-.28l5.37-1.8a2.11,2.11,0,0,0,.8-.4q.17-.18,0-.59l-.33-1c-.09-.26-.21-.41-.38-.44a2,2,0,0,0-.88.16L74,33a3.52,3.52,0,0,1-2.62.12,3.68,3.68,0,0,1-1.51-2.25l-1.09-3.25a3.93,3.93,0,0,1-.06-2.84,3.06,3.06,0,0,1,2-1.65L81,19.69Z"/><path class="cls-2" d="M101.47,28.21a8.39,8.39,0,0,0,.35,1.54,4.71,4.71,0,0,0,.53,1l-6.74,1a4.35,4.35,0,0,0,.19-1.12,8.28,8.28,0,0,0-.12-1.56l-1.54-10a7.36,7.36,0,0,0-.38-1.57,2.79,2.79,0,0,0-.64-.94l12.43-1.92a4.61,4.61,0,0,1,3,.33A3.63,3.63,0,0,1,110,17.81l.37,2.37a3.66,3.66,0,0,1-.51,3.08,4.6,4.6,0,0,1-2.76,1.22l-6,.93Zm-.82-5.31,3-.47a1.08,1.08,0,0,0,.8-.38,1.87,1.87,0,0,0,0-1.09l-.33-2.13a1.86,1.86,0,0,0-.37-1,1.08,1.08,0,0,0-.88-.12l-3,.47Z"/><path class="cls-2" d="M123.49,26.21a9,9,0,0,0,1.43-.16,8.63,8.63,0,0,0,1.18-.38l-.38,3-13.52.67a4.31,4.31,0,0,0,.31-1.1,8.24,8.24,0,0,0,0-1.56l-.5-10.07a8.38,8.38,0,0,0-.19-1.56,4.83,4.83,0,0,0-.42-1l13.28-.66.63,3.09a11,11,0,0,0-1.2-.35,5.58,5.58,0,0,0-1.49-.09l-4.77.24.18,3.6,4.17-.21a8.67,8.67,0,0,0,1.4-.15,10.66,10.66,0,0,0,1.22-.39l.17,3.36a11.68,11.68,0,0,0-1.18-.23,7.82,7.82,0,0,0-1.48,0l-4.17.21.21,4.12Z"/><path class="cls-2" d="M130.09,16,129.46,26a10.24,10.24,0,0,0,0,1.75,2.85,2.85,0,0,0,.42,1l-3.69-.22a2.87,2.87,0,0,0,.54-1,10.34,10.34,0,0,0,.2-1.74l.57-9.82a10.27,10.27,0,0,0,0-1.75,2.85,2.85,0,0,0-.42-1l8.22.48,5.5,12.87.64-9.75a10.26,10.26,0,0,0,0-1.75,2.87,2.87,0,0,0-.42-1l3.69.22a2.84,2.84,0,0,0-.54,1A10.25,10.25,0,0,0,144,17l-.74,12.58-7.57-.44Z"/><path class="cls-2" d="M156,29.15a8.94,8.94,0,0,0,1.43.16,8.61,8.61,0,0,0,1.24-.12l-1,2.82-13.34-2.28a4.33,4.33,0,0,0,.54-1,8.25,8.25,0,0,0,.38-1.52l1.7-9.94a8.24,8.24,0,0,0,.16-1.57,4.73,4.73,0,0,0-.19-1.12L160,16.83,160,20a10.94,10.94,0,0,0-1.09-.6,5.55,5.55,0,0,0-1.44-.42l-4.71-.8-.61,3.55,4.12.7a8.65,8.65,0,0,0,1.4.15,10.85,10.85,0,0,0,1.27-.11l-.57,3.31a11.62,11.62,0,0,0-1.1-.48,7.86,7.86,0,0,0-1.43-.37l-4.12-.7-.7,4.07Z"/><path class="cls-2" d="M170,32.73a7.3,7.3,0,0,0,1.52.28,3.12,3.12,0,0,0,1-.1l-1.29,2.81-12.78-3.49a4.28,4.28,0,0,0,.63-.95,8.35,8.35,0,0,0,.53-1.47l2.65-9.73a8.34,8.34,0,0,0,.31-1.54,4.74,4.74,0,0,0-.08-1.13l6.58,1.79a4.28,4.28,0,0,0-.63.95,8.28,8.28,0,0,0-.53,1.47l-2.68,9.82Z"/><path class="cls-2" d="M175.64,25.67a5,5,0,0,1,2.17-2.86,3.77,3.77,0,0,1,3.1.09l8.17,3.22a3.8,3.8,0,0,1,2.33,2,5,5,0,0,1-.37,3.58l-2.32,5.89a5,5,0,0,1-2.17,2.86,3.77,3.77,0,0,1-3.1-.09l-8.17-3.22a3.8,3.8,0,0,1-2.33-2,5,5,0,0,1,.37-3.58Zm2.76,9q-.36.92.71,1.34l2.37.93q1.07.42,1.43-.49l3-7.73q.36-.91-.71-1.34l-2.37-.93q-1.07-.42-1.43.49Z"/><path class="cls-2" d="M194.61,42.87a8.29,8.29,0,0,0-.65,1.43,4.68,4.68,0,0,0-.18,1.12l-6-3.24a4.32,4.32,0,0,0,.83-.78,8.34,8.34,0,0,0,.85-1.32l4.79-8.87a7.42,7.42,0,0,0,.65-1.48A2.79,2.79,0,0,0,195,28.6l11.07,6a4.61,4.61,0,0,1,2.19,2.07,3.63,3.63,0,0,1-.54,3.08l-1.14,2.11q-1,1.92-2.26,2.15a4.6,4.6,0,0,1-2.94-.7L196,40.38Zm2.55-4.73,2.7,1.46a1.08,1.08,0,0,0,.87.18,1.87,1.87,0,0,0,.69-.84l1-1.9a1.87,1.87,0,0,0,.33-1q-.06-.32-.63-.63l-2.7-1.46Z"/><path class="cls-2" d="M213.37,54.62a9,9,0,0,0,1.23.75,8.57,8.57,0,0,0,1.17.41l-2.11,2.14-11.16-7.66a4.34,4.34,0,0,0,.91-.69,8.26,8.26,0,0,0,1-1.22L210.1,40a8.34,8.34,0,0,0,.8-1.36,4.77,4.77,0,0,0,.3-1.09l11,7.52L220.79,48a10.71,10.71,0,0,0-.74-1,5.55,5.55,0,0,0-1.13-1L215,43.27l-2,3,3.44,2.36a8.61,8.61,0,0,0,1.21.72,10.67,10.67,0,0,0,1.2.43l-1.9,2.77c-.24-.3-.51-.6-.8-.9A7.82,7.82,0,0,0,215,50.7l-3.44-2.36-2.34,3.4Z"/><path class="cls-2" d="M66.27,58a10.74,10.74,0,0,0-.14-2,6.11,6.11,0,0,0-.48-1.38H81.89q2.94,0,4,1a3.82,3.82,0,0,1,1.1,3v2.2A2.62,2.62,0,0,1,86,63.18a6.26,6.26,0,0,1-3.25.66,10,10,0,0,1,3.47.92,2.32,2.32,0,0,1,.84,2.1v3.38a4.17,4.17,0,0,1-1.1,3.14q-1.1,1.07-4,1.07H65.65A5.52,5.52,0,0,0,66.11,73a10.61,10.61,0,0,0,.16-2Zm7.56,4.53h4.4a1.68,1.68,0,0,0,1-.2q.25-.2.25-.91V59a1.2,1.2,0,0,0-.25-.9,1.59,1.59,0,0,0-1-.22h-4.4Zm0,8.62h4.4a1.68,1.68,0,0,0,1-.2q.25-.2.25-.92v-3.1a1.2,1.2,0,0,0-.25-.9,1.6,1.6,0,0,0-1-.22h-4.4Z"/><path class="cls-2" d="M107,58.63a8.67,8.67,0,0,0-1.38-.55,5.92,5.92,0,0,0-1.66-.2H98.54Q97,57.89,97,59.16V69.88q0,1.27,1.49,1.27h4.28a18.85,18.85,0,0,0,2.91-.14,6.6,6.6,0,0,0,1.64-.6l-.65,4H94.51a4.9,4.9,0,0,1-3.77-1.35q-1.26-1.35-1.25-4.48V60.43q0-3.1,1.25-4.46a4.87,4.87,0,0,1,3.77-1.36h11.9Z"/><path class="cls-2" d="M108.8,64.55h10.91v5.21H108.8Z"/><path class="cls-2" d="M129.47,61.79h8.09a5.28,5.28,0,0,1,3.8,1.1,4.67,4.67,0,0,1,1.1,3.43v3.6a4.67,4.67,0,0,1-1.1,3.43,5.28,5.28,0,0,1-3.8,1.1h-15l-.68-4.28a4.67,4.67,0,0,0,1.36.71,7.71,7.71,0,0,0,2.39.28h7.9a1.77,1.77,0,0,0,1.13-.23,1.64,1.64,0,0,0,.23-1.07V66.38a1.57,1.57,0,0,0-.25-1.05,1.69,1.69,0,0,0-1.12-.25h-8a9.39,9.39,0,0,0-1.94.17,3.45,3.45,0,0,0-1.47.73l.25-11.38h19.84l.59,4a6.64,6.64,0,0,0-1.61-.57,13.12,13.12,0,0,0-2.51-.18h-9Z"/><path class="cls-2" d="M161.72,54.6a4.57,4.57,0,0,1,3.3,1.07,4,4,0,0,1,1.1,3v1.86q0,2.08-1.12,2.68a10.23,10.23,0,0,1-3.63.85,6.58,6.58,0,0,1,3.56.88,3.07,3.07,0,0,1,1.18,2.71v2.67q0,4.09-4.4,4.09H149.44a4.43,4.43,0,0,1-3.27-1.1,4.21,4.21,0,0,1-1.1-3.11V67.48a3.21,3.21,0,0,1,1.18-2.79,6.06,6.06,0,0,1,3.54-.85q-3.07-.36-3.89-1.14a3.07,3.07,0,0,1-.82-2.34v-1.8q0-4,4.4-4Zm-4.34,7.87a1,1,0,0,0,1.18-1.24v-2a1.45,1.45,0,0,0-.28-1,1.24,1.24,0,0,0-.9-.28h-3.56a1.23,1.23,0,0,0-.9.28,1.45,1.45,0,0,0-.28,1v2a1.44,1.44,0,0,0,.28,1,1.23,1.23,0,0,0,.9.28Zm-3.56,3.29a1.23,1.23,0,0,0-.9.28,1.45,1.45,0,0,0-.28,1v2.79a1.44,1.44,0,0,0,.28,1,1.23,1.23,0,0,0,.9.28h3.56a1,1,0,0,0,1.18-1.24V67.06a1.51,1.51,0,0,0-.26-1,1.33,1.33,0,0,0-.95-.26Z"/><path class="cls-2" d="M176,61.79h8.09a5.28,5.28,0,0,1,3.8,1.1,4.67,4.67,0,0,1,1.1,3.43v3.6a4.67,4.67,0,0,1-1.1,3.43,5.28,5.28,0,0,1-3.8,1.1h-15l-.68-4.28a4.67,4.67,0,0,0,1.36.71,7.71,7.71,0,0,0,2.39.28H180a1.77,1.77,0,0,0,1.13-.23,1.64,1.64,0,0,0,.23-1.07V66.38a1.57,1.57,0,0,0-.25-1.05,1.69,1.69,0,0,0-1.12-.25h-8a9.39,9.39,0,0,0-1.94.17,3.45,3.45,0,0,0-1.47.73l.25-11.38h19.84l.59,4a6.64,6.64,0,0,0-1.61-.57,13.12,13.12,0,0,0-2.51-.18h-9Z"/></svg>