<svg id="Layer_1" data-name="Layer 1" xmlns="http://www.w3.org/2000/svg" viewBox="0 0 250.93 88.19"><defs><style>.cls-1{fill:#ffc418;}</style></defs><title>BC-584</title><path d="M5.4,55.53a171.41,171.41,0,0,1,121-50.13A167.4,167.4,0,0,1,245.53,54.93L221,82.78H29.31Z"/><path class="cls-1" d="M5.4,55.53a171.41,171.41,0,0,1,121-50.13A167.4,167.4,0,0,1,245.53,54.92L221,82.78H29.31ZM92.56,3.29a177,177,0,0,0-91,48.41,5.4,5.4,0,0,0-.25,7.39L25.25,86.35a5.4,5.4,0,0,0,4.06,1.84H221a5.39,5.39,0,0,0,4.05-1.83l24.52-27.86a5.39,5.39,0,0,0-.24-7.38A172.77,172.77,0,0,0,126.45,0,176.66,176.66,0,0,0,92.56,3.29"/><path class="cls-1" d="M42,44.16l-1.93-2.93a8.36,8.36,0,0,0-1-1.25,4.76,4.76,0,0,0-.9-.69l5.69-3.75a4.25,4.25,0,0,0,.29,1.1A8.16,8.16,0,0,0,45,38l5.55,8.42a8.32,8.32,0,0,0,1,1.25,4.73,4.73,0,0,0,.9.69l-5.69,3.75a4.33,4.33,0,0,0-.29-1.1,8.2,8.2,0,0,0-.76-1.37l-2.22-3.37-3.65,2.4L42,52.05a8.41,8.41,0,0,0,1,1.25,4.71,4.71,0,0,0,.9.69l-5.69,3.75a4.29,4.29,0,0,0-.29-1.1,8.2,8.2,0,0,0-.76-1.37l-5.55-8.42a8.38,8.38,0,0,0-1-1.25,4.73,4.73,0,0,0-.9-.69l5.69-3.75a4.28,4.28,0,0,0,.29,1.1,8.2,8.2,0,0,0,.76,1.37l1.93,2.93Z"/><path class="cls-1" d="M58.83,28l7.08-3.39A4.69,4.69,0,0,0,66,25.73a7.43,7.43,0,0,0,.57,1.49L71,36.31a8.22,8.22,0,0,0,.78,1.38,4.19,4.19,0,0,0,.81.78l-6.17,3a4.34,4.34,0,0,0-.14-1.13,8.34,8.34,0,0,0-.57-1.46l-4.09-8.53,1.36,12.76-3.66,1.75-9-9.25,4,8.54a10.52,10.52,0,0,0,.85,1.56,2.89,2.89,0,0,0,.87.71L52.71,48a2.85,2.85,0,0,0,0-1.12A10.25,10.25,0,0,0,52,45.25l-4.26-8.87a10.3,10.3,0,0,0-.84-1.54,2.86,2.86,0,0,0-.87-.7l7.27-3.49,6.41,6.58Z"/><path class="cls-1" d="M83.39,22.24a7.24,7.24,0,0,0-1.18-.06,4.62,4.62,0,0,0-1.26.25l-5.18,1.7a2.21,2.21,0,0,0-.83.4c-.11.12-.12.32,0,.59l.27.82c.09.27.21.43.38.46a2.21,2.21,0,0,0,.9-.17l3.95-1.29a4.76,4.76,0,0,1,3-.22,2.79,2.79,0,0,1,1.64,2l1.17,3.56a4.2,4.2,0,0,1,.11,3A3.67,3.67,0,0,1,83.87,35l-10,3.29-1.41-2.67a7.91,7.91,0,0,0,1.1,0,5.81,5.81,0,0,0,1.22-.28l5.38-1.76a2.13,2.13,0,0,0,.81-.39c.11-.12.12-.32,0-.59l-.33-1q-.13-.39-.37-.45a1.94,1.94,0,0,0-.88.15l-4.54,1.49a3.51,3.51,0,0,1-2.62.1,3.68,3.68,0,0,1-1.5-2.26l-1.07-3.26a3.93,3.93,0,0,1,0-2.84,3.06,3.06,0,0,1,2-1.64l10.33-3.38Z"/><path class="cls-1" d="M107.44,27.36a7.28,7.28,0,0,0,1.5-.37,3.12,3.12,0,0,0,.91-.52l0,3.09L96.75,31.64a4.31,4.31,0,0,0,.19-1.12A8.28,8.28,0,0,0,96.81,29L95.22,19a8.44,8.44,0,0,0-.35-1.54,4.74,4.74,0,0,0-.54-1l6.73-1.07a4.32,4.32,0,0,0-.19,1.12,8.27,8.27,0,0,0,.13,1.56l1.6,10Z"/><path class="cls-1" d="M121.28,26.27a9,9,0,0,0,1.43-.18,8.62,8.62,0,0,0,1.18-.4l-.34,3L110,29.54a4.32,4.32,0,0,0,.29-1.1,8.27,8.27,0,0,0,0-1.56l-.65-10.06a8.36,8.36,0,0,0-.21-1.56,4.78,4.78,0,0,0-.44-1l13.27-.85.68,3.08a10.85,10.85,0,0,0-1.2-.33,5.56,5.56,0,0,0-1.5-.07l-4.77.31.23,3.59,4.17-.27a8.6,8.6,0,0,0,1.4-.17,10.67,10.67,0,0,0,1.21-.4l.22,3.35a11.86,11.86,0,0,0-1.18-.21,7.78,7.78,0,0,0-1.48,0l-4.17.27.27,4.12Z"/><path class="cls-1" d="M124.83,17.74a5,5,0,0,1,1.12-3.41,3.77,3.77,0,0,1,3-.93l8.78.37a3.8,3.8,0,0,1,2.87,1.17,5,5,0,0,1,.82,3.51l-.27,6.33A5,5,0,0,1,140,28.19a3.77,3.77,0,0,1-3,.93l-8.78-.37a3.79,3.79,0,0,1-2.87-1.17,5,5,0,0,1-.83-3.51Zm5.54,7.56c0,.66.34,1,1.11,1l2.54.11q1.15,0,1.19-.93l.35-8.3q0-1-1.11-1l-2.54-.11q-1.15,0-1.19.93Z"/><path class="cls-1" d="M146.83,17.29l-1.68,9.82a10.16,10.16,0,0,0-.19,1.74,2.84,2.84,0,0,0,.31,1.07l-3.65-.61a2.86,2.86,0,0,0,.64-.92,10.3,10.3,0,0,0,.38-1.71L144.25,17a10.36,10.36,0,0,0,.19-1.74,2.88,2.88,0,0,0-.31-1.07l8.12,1.35,4.1,13.38L158,19.27a10.26,10.26,0,0,0,.19-1.74,2.86,2.86,0,0,0-.31-1.07l3.65.61a2.84,2.84,0,0,0-.64.92,10.2,10.2,0,0,0-.38,1.71l-2.07,12.43L151,30.88Z"/><path class="cls-1" d="M160,32.67a4.31,4.31,0,0,0,.62-1,8.29,8.29,0,0,0,.51-1.48l2.56-9.75a8.34,8.34,0,0,0,.29-1.55,4.71,4.71,0,0,0-.09-1.13l6.59,1.73a4.29,4.29,0,0,0-.62,1,8.3,8.3,0,0,0-.51,1.48l-2.56,9.75a8.34,8.34,0,0,0-.29,1.55,4.67,4.67,0,0,0,.09,1.13Z"/><path class="cls-1" d="M172.48,22.73a8.39,8.39,0,0,0,.43-1.52,4.77,4.77,0,0,0,0-1.13l11.22,4.05a4.75,4.75,0,0,1,2.88,2.1,4.67,4.67,0,0,1-.21,3.51L184.56,36a4.67,4.67,0,0,1-2.08,2.83,4.74,4.74,0,0,1-3.55-.22L167.7,34.53a4.31,4.31,0,0,0,.71-.89,8.17,8.17,0,0,0,.64-1.43Zm2.05,11.56,2.87,1a1.29,1.29,0,0,0,.93.11,1.76,1.76,0,0,0,.53-.91l2.64-7.31a1.77,1.77,0,0,0,.17-1q-.1-.28-.78-.52l-2.87-1Z"/><path class="cls-1" d="M189.29,38.49l-1.88,1.41a2,2,0,0,0-.61.71,2.07,2.07,0,0,0-.2.5,3.33,3.33,0,0,0,0,.63l-3.87-2q1-.47,1.56-.79a11.54,11.54,0,0,0,1.26-.89l10.3-7.9-.21-1.08,6.18,3.15-1.13,14.29a7.17,7.17,0,0,0,.24,2.49l-6.87-3.5a3.74,3.74,0,0,0,.5-.4,1.41,1.41,0,0,0,.25-.34,2.89,2.89,0,0,0,.33-1.12l.14-2.13Zm6.27.33L196,33.2l-4.45,3.57Z"/><path class="cls-1" d="M219.43,46.93a7.21,7.21,0,0,0-.68-1,4.69,4.69,0,0,0-1-.83l-4.53-3a2.2,2.2,0,0,0-.82-.41q-.25,0-.49.34l-.48.72q-.24.36-.13.58a2.21,2.21,0,0,0,.69.61l3.45,2.31a4.77,4.77,0,0,1,2,2.21,2.8,2.8,0,0,1-.53,2.5l-2.08,3.11A4.21,4.21,0,0,1,212.6,56a3.67,3.67,0,0,1-2.89-.82l-8.78-5.87,1.24-2.75a7.8,7.8,0,0,0,.7.85,5.88,5.88,0,0,0,1,.79l4.71,3.15a2.13,2.13,0,0,0,.8.39q.25,0,.49-.34l.59-.88a.58.58,0,0,0,.12-.57,2,2,0,0,0-.67-.6l-4-2.66a3.52,3.52,0,0,1-1.69-2,3.68,3.68,0,0,1,.86-2.57L207,39.24a3.93,3.93,0,0,1,2.21-1.79,3.06,3.06,0,0,1,2.51.56l9,6Z"/><path class="cls-1" d="M65.41,58a10.92,10.92,0,0,0-.14-2,6.18,6.18,0,0,0-.48-1.38H81q2.94,0,4,1a3.82,3.82,0,0,1,1.1,3v2.2a2.62,2.62,0,0,1-1.05,2.41,6.26,6.26,0,0,1-3.25.66,10,10,0,0,1,3.47.92,2.32,2.32,0,0,1,.84,2.1v3.38a4.17,4.17,0,0,1-1.1,3.14q-1.1,1.07-4,1.07H64.8A5.56,5.56,0,0,0,65.26,73a10.7,10.7,0,0,0,.15-2ZM73,62.54h4.4a1.68,1.68,0,0,0,1-.2q.25-.2.25-.91V59a1.2,1.2,0,0,0-.25-.9,1.59,1.59,0,0,0-1-.22H73Zm0,8.62h4.4a1.68,1.68,0,0,0,1-.2q.25-.2.25-.92v-3.1a1.2,1.2,0,0,0-.25-.9,1.6,1.6,0,0,0-1-.22H73Z"/><path class="cls-1" d="M106.15,58.63a8.67,8.67,0,0,0-1.38-.55,5.92,5.92,0,0,0-1.66-.2H97.69q-1.49,0-1.49,1.27V69.88q0,1.27,1.49,1.27H102a18.85,18.85,0,0,0,2.91-.14,6.6,6.6,0,0,0,1.64-.6l-.65,4H93.66a4.9,4.9,0,0,1-3.77-1.35q-1.26-1.35-1.25-4.48V60.43q0-3.1,1.25-4.46a4.87,4.87,0,0,1,3.77-1.36h11.9Z"/><path class="cls-1" d="M107.95,64.55h10.91v5.21H107.95Z"/><path class="cls-1" d="M128.62,61.79h8.09a5.28,5.28,0,0,1,3.8,1.1,4.68,4.68,0,0,1,1.1,3.43v3.6a4.68,4.68,0,0,1-1.1,3.43,5.28,5.28,0,0,1-3.8,1.1h-15L121,70.16a4.67,4.67,0,0,0,1.36.71,7.71,7.71,0,0,0,2.39.28h7.9a1.76,1.76,0,0,0,1.13-.23,1.62,1.62,0,0,0,.23-1.07V66.38a1.56,1.56,0,0,0-.25-1.05,1.69,1.69,0,0,0-1.12-.25h-8a9.39,9.39,0,0,0-1.94.17,3.45,3.45,0,0,0-1.47.73l.25-11.38h19.84l.59,4a6.65,6.65,0,0,0-1.61-.57,13.1,13.1,0,0,0-2.51-.18h-9Z"/><path class="cls-1" d="M160.86,54.6a4.56,4.56,0,0,1,3.3,1.07,4,4,0,0,1,1.1,3v1.86q0,2.08-1.12,2.68a10.23,10.23,0,0,1-3.63.85,6.59,6.59,0,0,1,3.57.88,3.07,3.07,0,0,1,1.18,2.71v2.67q0,4.09-4.4,4.09H148.59a4.44,4.44,0,0,1-3.27-1.1,4.21,4.21,0,0,1-1.1-3.11V67.48a3.21,3.21,0,0,1,1.18-2.79,6.06,6.06,0,0,1,3.53-.85q-3.07-.36-3.89-1.14a3.08,3.08,0,0,1-.82-2.34v-1.8q0-4,4.4-4Zm-4.34,7.87a1,1,0,0,0,1.18-1.24v-2a1.45,1.45,0,0,0-.28-1,1.23,1.23,0,0,0-.9-.28H153a1.24,1.24,0,0,0-.9.28,1.45,1.45,0,0,0-.28,1v2a1.44,1.44,0,0,0,.28,1,1.23,1.23,0,0,0,.9.28ZM153,65.76a1.24,1.24,0,0,0-.9.28,1.45,1.45,0,0,0-.28,1v2.79a1.44,1.44,0,0,0,.28,1,1.23,1.23,0,0,0,.9.28h3.56a1,1,0,0,0,1.18-1.24V67.06a1.49,1.49,0,0,0-.26-1,1.32,1.32,0,0,0-.95-.26Z"/><path class="cls-1" d="M190.87,64.77V70h-3.38v1.74a6,6,0,0,0,.17,1.63,3.75,3.75,0,0,0,.54,1.1h-8.84a3.31,3.31,0,0,0,.51-1.07,6.39,6.39,0,0,0,.17-1.66V70H166.85V65.11L178.72,54.6h8.77V64.77Zm-10.82-6.59-7.77,6.59h7.77Z"/></svg>