<svg id="Layer_1" data-name="Layer 1" xmlns="http://www.w3.org/2000/svg" viewBox="0 0 250.93 88.19"><defs><style>.cls-1{fill:#231f20;}.cls-2{fill:#ffc418;}.cls-3{fill:none;stroke:#231f20;}</style></defs><title>BC-591</title><path class="cls-1" d="M5.4,55.53a171.41,171.41,0,0,1,121-50.13A167.4,167.4,0,0,1,245.53,54.93L221,82.78H29.31Z"/><path class="cls-2" d="M5.4,55.53a171.41,171.41,0,0,1,121-50.13A167.4,167.4,0,0,1,245.53,54.92L221,82.78H29.31ZM92.56,3.29a177,177,0,0,0-91,48.41,5.4,5.4,0,0,0-.25,7.39L25.25,86.35a5.4,5.4,0,0,0,4.06,1.84H221a5.39,5.39,0,0,0,4.05-1.83l24.52-27.86a5.39,5.39,0,0,0-.24-7.38A172.77,172.77,0,0,0,126.45,0,176.66,176.66,0,0,0,92.56,3.29"/><path class="cls-3" d="M5.4,55.53a171.42,171.42,0,0,1,121-50.13A167.4,167.4,0,0,1,245.53,54.93"/><path class="cls-2" d="M66.66,31.33l-1.38-3.22a8.43,8.43,0,0,0-.72-1.4,4.85,4.85,0,0,0-.76-.83l6.27-2.68a4.26,4.26,0,0,0,.09,1.13,8.22,8.22,0,0,0,.5,1.48l4,9.27a8.38,8.38,0,0,0,.72,1.4,4.69,4.69,0,0,0,.76.83L69.85,40a4.27,4.27,0,0,0-.09-1.13,8.27,8.27,0,0,0-.5-1.48l-1.59-3.71-4,1.72,1.59,3.71A8.38,8.38,0,0,0,66,40.5a4.63,4.63,0,0,0,.76.83L60.45,44a4.31,4.31,0,0,0-.09-1.13,8.24,8.24,0,0,0-.5-1.48l-4-9.26a8.35,8.35,0,0,0-.72-1.4,4.75,4.75,0,0,0-.76-.84l6.27-2.68a4.26,4.26,0,0,0,.1,1.13,8.22,8.22,0,0,0,.5,1.48l1.38,3.22Z"/><path class="cls-2" d="M86.09,18.43l7.57-2.08a4.73,4.73,0,0,0-.08,1.12A7.39,7.39,0,0,0,93.88,19l2.67,9.72a8.3,8.3,0,0,0,.52,1.5,4.19,4.19,0,0,0,.66.91L91.14,33a4.27,4.27,0,0,0,.06-1.14,8.22,8.22,0,0,0-.3-1.54l-2.51-9.12L87.46,34l-3.91,1.08L76.32,24.35l2.46,9.12a10.42,10.42,0,0,0,.56,1.68,2.89,2.89,0,0,0,.73.86l-3.56,1a2.86,2.86,0,0,0,.2-1.1,10.3,10.3,0,0,0-.37-1.71l-2.61-9.49A10.31,10.31,0,0,0,73.17,23a2.86,2.86,0,0,0-.73-.84L80.21,20l5.13,7.62Z"/><path class="cls-2" d="M111.27,17.11a7.14,7.14,0,0,0-1.15-.27,4.68,4.68,0,0,0-1.28,0l-5.4.75a2.2,2.2,0,0,0-.89.25q-.2.15-.14.58l.12.86q.06.43.29.52a2.2,2.2,0,0,0,.92,0l4.11-.57a4.77,4.77,0,0,1,3,.31,2.8,2.8,0,0,1,1.27,2.22l.52,3.71a4.21,4.21,0,0,1-.42,2.93,3.67,3.67,0,0,1-2.7,1.31L99,31.17l-.91-2.88a7.81,7.81,0,0,0,1.09.17,5.85,5.85,0,0,0,1.25-.06l5.61-.78a2.11,2.11,0,0,0,.86-.24c.13-.1.18-.29.14-.58l-.15-1a.59.59,0,0,0-.29-.5,2,2,0,0,0-.9,0L101,25.9a3.51,3.51,0,0,1-2.59-.37A3.68,3.68,0,0,1,97.34,23l-.47-3.4a3.93,3.93,0,0,1,.46-2.8,3.06,3.06,0,0,1,2.25-1.26l10.77-1.5Z"/><path class="cls-2" d="M129,22.13l-.12,4a8.37,8.37,0,0,0,.06,1.57,4.75,4.75,0,0,0,.34,1.08l-6.81-.21a4.3,4.3,0,0,0,.39-1.07A8.26,8.26,0,0,0,123,26l.31-10.08a7.42,7.42,0,0,0-.08-1.61,2.78,2.78,0,0,0-.46-1l12.62.39a4.88,4.88,0,0,1,3,.85,3.19,3.19,0,0,1,.87,2.66L139.21,20a2.5,2.5,0,0,1-.66,2,2.81,2.81,0,0,1-1.77.41l2,4.38q.29.68.59,1.35a4.83,4.83,0,0,0,.6,1l-6.55-.2-2.58-6.75Zm.08-2.54,3.31.1a1.31,1.31,0,0,0,.77-.13c.13-.1.2-.33.21-.7l.06-1.87a.92.92,0,0,0-.17-.7,1.24,1.24,0,0,0-.76-.19L129.2,16Z"/><path class="cls-2" d="M140.6,29.44a4.35,4.35,0,0,0,.49-1,8.29,8.29,0,0,0,.31-1.53l1.21-10a8.32,8.32,0,0,0,.08-1.57,4.73,4.73,0,0,0-.24-1.1l6.77.82a4.32,4.32,0,0,0-.49,1,8.22,8.22,0,0,0-.31,1.54l-1.21,10a8.31,8.31,0,0,0-.08,1.57,4.7,4.7,0,0,0,.24,1.1Z"/><path class="cls-2" d="M167,24.74a5.42,5.42,0,0,0-.83,1,4.67,4.67,0,0,0-.37,1.17L165,30.65a11.43,11.43,0,0,0-.3,1.89,3.62,3.62,0,0,0,.28,1.2l-5-1.07.11-1.42a2.52,2.52,0,0,1-.89.94,2.56,2.56,0,0,1-1.54,0l-5.07-1.08a3.79,3.79,0,0,1-2.63-1.63,5,5,0,0,1-.23-3.59l1.32-6.2a5,5,0,0,1,1.67-3.18,3.77,3.77,0,0,1,3.07-.43l11,2.33-.2,3.15a6.82,6.82,0,0,0-1-.64,4.61,4.61,0,0,0-1.22-.42l-6.08-1.29q-1.13-.24-1.33.72L155.2,28q-.21,1,.92,1.2l1.92.41q1.13.24,1.33-.72l.65-3.08-2.14-.45a1.5,1.5,0,0,0-.6,0l-.42.09.59-2.77Z"/><path class="cls-2" d="M176.94,35.08a9,9,0,0,0,1.39.37,8.5,8.5,0,0,0,1.24.07l-1.43,2.64-12.85-4.24A4.33,4.33,0,0,0,166,33a8.19,8.19,0,0,0,.6-1.44L169.73,22a8.45,8.45,0,0,0,.39-1.53,4.76,4.76,0,0,0,0-1.13l12.63,4.16-.52,3.11a10.87,10.87,0,0,0-1-.75,5.5,5.5,0,0,0-1.36-.63l-4.54-1.5-1.13,3.42,4,1.31a8.68,8.68,0,0,0,1.36.36,11,11,0,0,0,1.28.08l-1.05,3.19a11.87,11.87,0,0,0-1-.64,7.87,7.87,0,0,0-1.36-.58l-4-1.31-1.29,3.92Z"/><path class="cls-2" d="M190.24,40.7a7.36,7.36,0,0,0,1.46.5,3.12,3.12,0,0,0,1,.06l-1.69,2.58-12.12-5.35a4.34,4.34,0,0,0,.77-.84,8.27,8.27,0,0,0,.74-1.38L184.52,27a8.37,8.37,0,0,0,.54-1.48,4.71,4.71,0,0,0,.09-1.13l6.24,2.75a4.34,4.34,0,0,0-.77.84,8.25,8.25,0,0,0-.74,1.38l-4.11,9.31Z"/><path class="cls-2" d="M70.3,58a10.74,10.74,0,0,0-.14-2,6.11,6.11,0,0,0-.48-1.38H85.92q2.94,0,4,1a3.82,3.82,0,0,1,1.1,3v2.2A2.62,2.62,0,0,1,90,63.18a6.26,6.26,0,0,1-3.25.66,10,10,0,0,1,3.47.92,2.32,2.32,0,0,1,.84,2.1v3.38A4.17,4.17,0,0,1,90,73.37q-1.1,1.07-4,1.07H69.68A5.52,5.52,0,0,0,70.14,73a10.61,10.61,0,0,0,.16-2Zm7.56,4.53h4.4a1.68,1.68,0,0,0,1-.2q.25-.2.25-.91V59a1.2,1.2,0,0,0-.25-.9,1.59,1.59,0,0,0-1-.22h-4.4Zm0,8.62h4.4a1.68,1.68,0,0,0,1-.2q.25-.2.25-.92v-3.1a1.2,1.2,0,0,0-.25-.9,1.6,1.6,0,0,0-1-.22h-4.4Z"/><path class="cls-2" d="M111,58.63a8.67,8.67,0,0,0-1.38-.55,5.92,5.92,0,0,0-1.66-.2h-5.42q-1.49,0-1.49,1.27V69.88q0,1.27,1.49,1.27h4.28a18.85,18.85,0,0,0,2.91-.14,6.6,6.6,0,0,0,1.64-.6l-.65,4H98.54a4.9,4.9,0,0,1-3.77-1.35q-1.26-1.35-1.25-4.48V60.43q0-3.1,1.25-4.46a4.87,4.87,0,0,1,3.77-1.36h11.9Z"/><path class="cls-2" d="M112.83,64.55h10.91v5.21H112.83Z"/><path class="cls-2" d="M133.51,61.79h8.09a5.28,5.28,0,0,1,3.8,1.1,4.68,4.68,0,0,1,1.1,3.43v3.6a4.68,4.68,0,0,1-1.1,3.43,5.28,5.28,0,0,1-3.8,1.1h-15l-.68-4.28a4.67,4.67,0,0,0,1.36.71,7.72,7.72,0,0,0,2.39.28h7.9a1.76,1.76,0,0,0,1.13-.23,1.62,1.62,0,0,0,.23-1.07V66.38a1.56,1.56,0,0,0-.25-1.05,1.69,1.69,0,0,0-1.12-.25h-8a9.38,9.38,0,0,0-1.94.17,3.45,3.45,0,0,0-1.47.73l.25-11.38h19.84l.59,4a6.65,6.65,0,0,0-1.61-.57,13.1,13.1,0,0,0-2.51-.18h-9Z"/><path class="cls-2" d="M160.66,71.15a2.43,2.43,0,0,0,1.44-.29,1.38,1.38,0,0,0,.36-1.1V66a3.81,3.81,0,0,1-.93,1.18,2,2,0,0,1-1.15.28h-6.29a5.33,5.33,0,0,1-3.5-1.15,3.77,3.77,0,0,1-1.39-3.07v-4.4a3.77,3.77,0,0,1,1.41-3.05,5.31,5.31,0,0,1,3.49-1.16h11a5.34,5.34,0,0,1,3.5,1.15A3.77,3.77,0,0,1,170,58.82V70.23a3.77,3.77,0,0,1-1.41,3.05,5.31,5.31,0,0,1-3.49,1.16H150.22l-.68-3.84A7.09,7.09,0,0,0,151,71a16.68,16.68,0,0,0,2.59.15Zm.56-7a1.51,1.51,0,0,0,1-.23,1.16,1.16,0,0,0,.26-.88V59a1.2,1.2,0,0,0-.25-.87,1.43,1.43,0,0,0-1-.25H158a1.51,1.51,0,0,0-1,.23,1.15,1.15,0,0,0-.26.88v4a1.21,1.21,0,0,0,.25.87,1.43,1.43,0,0,0,1,.25Z"/><path class="cls-2" d="M182.8,71.71a6,6,0,0,0,.17,1.63,3.75,3.75,0,0,0,.54,1.1h-9a3.28,3.28,0,0,0,.51-1.07,6.41,6.41,0,0,0,.17-1.66V60.61h-2.82v-3.5l8.37-2.51h2Z"/></svg>