<?xml version="1.0" encoding="utf-8"?>
<!-- Generator: Adobe Illustrator 21.0.0, SVG Export Plug-In . SVG Version: 6.00 Build 0)  -->
<svg version="1.1" id="Layer_1" xmlns="http://www.w3.org/2000/svg"  x="0px" y="0px"
	 viewBox="0 0 250.9 88.2" style="enable-background:new 0 0 250.9 88.2;" xml:space="preserve">
<style type="text/css">
	.st0{fill:#FFC316;}
	.st1{fill:none;stroke:#231F20;}
</style>
<title>BC-549</title>
<path d="M5.4,55.5c32.1-32,75.6-50.1,121-50.1c44.7-0.1,87.6,17.8,119.1,49.5L221,82.8H29.3L5.4,55.5z"/>
<path class="st0" d="M5.4,55.5c32.1-32,75.6-50.1,121-50.1c44.7-0.1,87.6,17.8,119.1,49.5L221,82.8H29.3L5.4,55.5z M92.6,3.3
	C58.1,10,26.5,26.9,1.6,51.7c-2,2-2.1,5.2-0.2,7.4l23.9,27.3c1,1.2,2.5,1.8,4.1,1.8H221c1.6,0,3-0.7,4.1-1.8l24.5-27.9
	c1.9-2.1,1.8-5.4-0.2-7.4C216.9,18.4,172.6-0.1,126.5,0C115.1,0,103.8,1.1,92.6,3.3"/>
<path class="st1" d="M5.4,55.5c32.1-32,75.6-50.1,121-50.1c44.7-0.1,87.6,17.8,119.1,49.5"/>
<path class="st0" d="M39.6,45.8l-2-2.9c-0.3-0.4-0.6-0.9-1-1.2c-0.3-0.3-0.6-0.5-0.9-0.7l5.6-3.9c0.1,0.4,0.2,0.7,0.3,1.1
	c0.2,0.5,0.5,0.9,0.8,1.3l5.8,8.3c0.3,0.4,0.6,0.9,1,1.2c0.3,0.3,0.6,0.5,0.9,0.7l-5.6,3.9c-0.1-0.4-0.2-0.7-0.3-1.1
	c-0.2-0.5-0.5-0.9-0.8-1.3L41,47.8l-3.6,2.5l2.3,3.3c0.3,0.4,0.6,0.9,1,1.2c0.3,0.3,0.6,0.5,0.9,0.7L36,59.4
	c-0.1-0.4-0.2-0.7-0.3-1.1c-0.2-0.5-0.5-0.9-0.8-1.3l-5.7-8.3c-0.3-0.4-0.6-0.9-1-1.2c-0.3-0.3-0.6-0.5-0.9-0.7l5.6-3.9
	c0.1,0.4,0.2,0.8,0.3,1.1c0.2,0.5,0.5,0.9,0.8,1.3l2,2.9L39.6,45.8z"/>
<path class="st0" d="M57.3,28.8l7-3.5c0,0.4,0,0.7,0.1,1.1c0.2,0.5,0.4,1,0.6,1.4l4.5,9c0.2,0.5,0.5,0.9,0.8,1.4
	c0.2,0.3,0.5,0.6,0.8,0.8L65,42c0-0.4-0.1-0.8-0.2-1.1c-0.1-0.5-0.3-0.9-0.6-1.3L60.1,31l1.5,12.8L58,45.6l-9.1-9.2l4.1,8.5
	c0.2,0.5,0.5,1.1,0.9,1.5c0.2,0.3,0.5,0.5,0.9,0.7l-3.3,1.6c0.1-0.4,0.1-0.8,0-1.1c-0.2-0.6-0.4-1.1-0.7-1.6l-4.3-8.8
	c-0.2-0.5-0.5-1-0.9-1.5c-0.2-0.3-0.5-0.5-0.9-0.7l7.2-3.6l6.4,6.5L57.3,28.8z"/>
<path class="st0" d="M83,22.4c-0.4-0.1-0.8-0.1-1.2-0.1c-0.4,0-0.8,0.1-1.2,0.3l-5.2,1.7c-0.3,0.1-0.6,0.2-0.8,0.4
	c-0.1,0.1-0.1,0.3,0,0.6l0.3,0.8c0.1,0.3,0.2,0.4,0.4,0.5c0.3,0,0.6-0.1,0.9-0.2l3.9-1.3c1-0.4,2-0.5,3-0.2c0.8,0.4,1.5,1.1,1.7,2
	l1.2,3.5c0.4,1,0.5,2,0.1,3c-0.5,0.9-1.4,1.6-2.4,1.8l-10,3.3l-1.4-2.7c0.4,0,0.7,0,1.1,0s0.8-0.1,1.2-0.3l5.4-1.8
	c0.3-0.1,0.6-0.2,0.8-0.4c0.1-0.1,0.1-0.3,0-0.6l-0.3-1c-0.1-0.3-0.2-0.4-0.4-0.5c-0.3,0-0.6,0-0.9,0.2l-4.6,1.4
	c-0.8,0.4-1.8,0.4-2.6,0.1c-0.8-0.5-1.3-1.3-1.5-2.3l-1.1-3.2c-0.4-0.9-0.4-1.9,0-2.8c0.4-0.8,1.1-1.4,2-1.6l10.3-3.4L83,22.4z"/>
<path class="st0" d="M101.8,26.6l-0.8,2.3c-0.1,0.3-0.1,0.6-0.1,0.9c0,0.2,0.1,0.4,0.1,0.5c0.1,0.2,0.2,0.4,0.4,0.5l-4.3,0.6
	c0.4-0.7,0.7-1.2,0.8-1.5c0.2-0.5,0.4-1,0.5-1.5l4-12.3l-0.8-0.8l6.9-0.9l7.2,12.4c0.4,0.7,1,1.4,1.6,1.9l-7.6,1
	c0.1-0.2,0.1-0.4,0.2-0.6c0-0.1,0-0.3,0-0.4c0-0.4-0.2-0.8-0.4-1.1l-1.1-1.8L101.8,26.6z M107.2,23.3l-2.8-4.9l-1.7,5.5L107.2,23.3z
	"/>
<path class="st0" d="M131.6,16.5c-0.3-0.2-0.7-0.3-1.1-0.4c-0.4-0.1-0.9-0.2-1.3-0.1H125c-0.8,0-1.1,0.3-1.1,1l0.1,8.3
	c0,0.7,0.4,1,1.2,1h3.3c0.8,0,1.5,0,2.2-0.1c0.4-0.1,0.9-0.3,1.3-0.5l-0.5,3.1l-9.5,0.1c-1.1,0.1-2.1-0.3-2.9-1
	c-0.8-1-1.1-2.2-1-3.5l-0.1-6.3c-0.1-1.2,0.2-2.5,0.9-3.5c0.8-0.8,1.8-1.2,2.9-1.1l9.2-0.1L131.6,16.5z"/>
<path class="st0" d="M144.8,20.7l0.4-3.5c0.1-0.5,0.1-1,0.1-1.6c0-0.4-0.1-0.7-0.3-1.1l6.8,0.7c-0.2,0.3-0.4,0.6-0.5,1
	c-0.1,0.5-0.2,1-0.3,1.5l-1,10c-0.1,0.5-0.1,1.1-0.1,1.6c0,0.4,0.1,0.7,0.3,1.1l-6.8-0.7c0.2-0.3,0.4-0.6,0.5-1
	c0.1-0.5,0.2-1,0.3-1.5l0.4-4l-4.3-0.5l-0.4,4c-0.1,0.5-0.1,1.1-0.1,1.6c0,0.4,0.1,0.7,0.3,1.1l-6.8-0.7c0.2-0.3,0.4-0.6,0.5-1
	c0.1-0.5,0.2-1,0.3-1.5l1-10c0.1-0.5,0.1-1,0.1-1.6c0-0.4-0.1-0.7-0.3-1.1l6.8,0.7c-0.2,0.3-0.4,0.6-0.5,1c-0.1,0.5-0.2,1-0.3,1.5
	l-0.4,3.5L144.8,20.7z"/>
<path class="st0" d="M152.3,31.1c0.2-0.3,0.4-0.6,0.6-1c0.2-0.5,0.3-1,0.4-1.5l2-9.9c0.1-0.5,0.2-1,0.2-1.6c0-0.4-0.1-0.8-0.1-1.1
	l6.7,1.4c-0.2,0.3-0.4,0.6-0.6,1c-0.2,0.5-0.3,1-0.4,1.5l-2,9.9c-0.1,0.5-0.2,1-0.2,1.6c0,0.4,0.1,0.8,0.1,1.1L152.3,31.1z"/>
<path class="st0" d="M173,33.7c0.5,0.2,1,0.3,1.5,0.3c0.3,0,0.7,0,1-0.1l-1.3,2.8L161.6,33c0.3-0.3,0.5-0.6,0.6-0.9
	c0.2-0.5,0.4-1,0.6-1.5l2.9-9.7c0.2-0.5,0.3-1,0.3-1.5c0-0.4,0-0.8-0.1-1.1l6.5,1.9c-0.3,0.3-0.5,0.6-0.6,0.9
	c-0.2,0.5-0.4,1-0.6,1.5l-2.9,9.8L173,33.7z"/>
<path class="st0" d="M187.1,39.2c0.5,0.2,1,0.4,1.5,0.5c0.3,0.1,0.7,0.1,1.1,0l-1.6,2.6l-12.2-5c0.3-0.3,0.5-0.5,0.8-0.9
	s0.5-0.9,0.7-1.4l3.9-9.3c0.2-0.5,0.4-1,0.5-1.5c0.1-0.4,0.1-0.8,0.1-1.1l6.3,2.6c-0.3,0.3-0.5,0.5-0.8,0.9s-0.5,0.9-0.7,1.4
	l-3.9,9.4L187.1,39.2z"/>
<path class="st0" d="M200.5,46.2c0.4,0.2,0.9,0.4,1.3,0.6c0.4,0.1,0.8,0.2,1.2,0.3l-1.9,2.3L189.3,43c0.3-0.2,0.6-0.5,0.8-0.8
	c0.3-0.4,0.6-0.8,0.9-1.3l4.8-8.9c0.3-0.5,0.5-0.9,0.6-1.4c0.1-0.4,0.2-0.7,0.2-1.1l11.7,6.3l-1.1,3c-0.3-0.3-0.5-0.6-0.8-0.9
	c-0.4-0.3-0.8-0.6-1.2-0.9l-4.2-2.3l-1.7,3.1l3.7,2c0.4,0.2,0.8,0.4,1.3,0.6c0.4,0.1,0.8,0.2,1.2,0.3l-1.6,3
	c-0.3-0.3-0.6-0.5-0.9-0.8c-0.4-0.3-0.8-0.6-1.2-0.8l-3.7-2l-2,3.6L200.5,46.2z"/>
<path class="st0" d="M221.8,48.7c-0.2-0.4-0.4-0.7-0.7-1s-0.6-0.6-1-0.8l-4.5-3.1c-0.2-0.2-0.5-0.3-0.8-0.4c-0.2,0-0.3,0.1-0.5,0.3
	l-0.5,0.7c-0.2,0.2-0.2,0.4-0.1,0.6c0.2,0.3,0.4,0.5,0.7,0.6l3.4,2.4c0.9,0.5,1.6,1.3,2,2.2c0.2,0.9,0,1.8-0.6,2.5l-2.1,3.1
	c-0.5,0.9-1.3,1.5-2.3,1.9c-1,0.1-2.1-0.2-2.9-0.9l-8.7-6l1.3-2.7c0.2,0.3,0.4,0.6,0.7,0.8c0.3,0.3,0.6,0.6,1,0.8l4.6,3.2
	c0.2,0.2,0.5,0.3,0.8,0.4c0.2,0,0.3-0.1,0.5-0.3l0.6-0.9c0.1-0.2,0.2-0.4,0.1-0.6c-0.2-0.3-0.4-0.5-0.6-0.6l-3.9-2.7
	c-0.8-0.4-1.4-1.1-1.7-2c0-0.9,0.3-1.9,0.9-2.6l2-2.8c0.5-0.8,1.3-1.5,2.2-1.8c0.9-0.2,1.8,0,2.5,0.6l8.9,6.2L221.8,48.7z"/>
<path class="st0" d="M65.4,58c0-0.7,0-1.3-0.1-2c-0.1-0.5-0.3-0.9-0.5-1.4H81c2,0,3.3,0.3,4,1c0.8,0.8,1.2,1.9,1.1,3v2.2
	c0.1,0.9-0.3,1.9-1.1,2.4c-1,0.5-2.1,0.7-3.2,0.7c1.2,0.1,2.4,0.4,3.5,0.9c0.6,0.5,0.9,1.3,0.8,2.1v3.3c0.1,1.2-0.3,2.3-1.1,3.1
	c-0.7,0.7-2.1,1.1-4,1.1H64.8c0.2-0.4,0.4-0.9,0.4-1.4c0.1-0.7,0.2-1.3,0.2-2V58z M73,62.5h4.4c0.3,0,0.7,0,1-0.2
	c0.2-0.1,0.2-0.4,0.2-0.9V59c0-0.3,0-0.6-0.2-0.9c-0.3-0.2-0.7-0.3-1-0.2H73V62.5z M73,71.2h4.4c0.3,0,0.7,0,1-0.2
	c0.2-0.1,0.2-0.4,0.2-0.9V67c0-0.3,0-0.6-0.2-0.9c-0.3-0.2-0.7-0.3-1-0.2H73V71.2z"/>
<path class="st0" d="M106.2,58.6c-0.4-0.2-0.9-0.4-1.4-0.5s-1.1-0.2-1.7-0.2h-5.4c-1,0-1.4,0.4-1.4,1.3v10.7c0,0.8,0.5,1.3,1.5,1.3
	h4.3c1,0,1.9,0,2.9-0.1c0.6-0.1,1.1-0.3,1.6-0.6l-0.7,4H93.7c-1.4,0.1-2.8-0.4-3.8-1.3c-0.8-0.9-1.3-2.4-1.2-4.5v-8.1
	c0-2.1,0.4-3.6,1.2-4.5c1-1,2.4-1.5,3.8-1.4h11.9L106.2,58.6z"/>
<path class="st0" d="M108,64.6h10.9v5.2H108V64.6z"/>
<path class="st0" d="M128.7,61.8h8.1c1.4-0.1,2.7,0.3,3.8,1.1c0.8,1,1.2,2.2,1.1,3.4V70c0.1,1.2-0.3,2.5-1.1,3.4
	c-1.1,0.8-2.4,1.2-3.8,1.1h-15l-0.7-4.3c0.4,0.3,0.9,0.5,1.4,0.7c0.8,0.2,1.6,0.3,2.4,0.3h7.9c0.4,0.1,0.8,0,1.1-0.2
	c0.2-0.3,0.3-0.7,0.2-1.1v-3.5c0-0.4,0-0.7-0.2-1.1c-0.3-0.2-0.7-0.3-1.1-0.2h-8c-0.7,0-1.3,0-1.9,0.2c-0.5,0.1-1,0.4-1.5,0.7
	l0.2-11.4h19.8l0.6,4c-0.5-0.3-1.1-0.4-1.6-0.6c-0.8-0.1-1.7-0.2-2.5-0.2h-9L128.7,61.8z"/>
<path class="st0" d="M167.4,64.8V70H164v1.7c0,0.5,0,1.1,0.2,1.6c0.1,0.4,0.3,0.8,0.5,1.1h-8.8c0.2-0.3,0.4-0.7,0.5-1.1
	c0.1-0.5,0.2-1.1,0.2-1.7V70h-13.2v-4.9l11.9-10.5h8.8v10.2C164.1,64.8,167.4,64.8,167.4,64.8z M156.6,58.2l-7.8,6.6h7.8V58.2z"/>
<path class="st0" d="M180.5,71.2c0.5,0.1,1,0,1.4-0.3c0.3-0.3,0.4-0.7,0.4-1.1V66c-0.2,0.5-0.5,0.9-0.9,1.2
	c-0.3,0.2-0.7,0.3-1.1,0.3H174c-1.3,0-2.5-0.4-3.5-1.2c-0.9-0.7-1.4-1.9-1.4-3.1v-4.4c0-1.2,0.5-2.3,1.4-3c1-0.8,2.2-1.2,3.5-1.2h11
	c1.3,0,2.5,0.4,3.5,1.2c0.9,0.7,1.5,1.9,1.4,3.1v11.4c0,1.2-0.5,2.3-1.4,3.1c-1,0.8-2.2,1.2-3.5,1.2h-15l-0.7-3.8
	c0.5,0.2,1,0.3,1.5,0.4c0.9,0.1,1.7,0.2,2.6,0.2L180.5,71.2z M181,64.2c0.3,0,0.7,0,1-0.2c0.2-0.2,0.3-0.6,0.3-0.9v-4
	c0-0.3-0.1-0.6-0.2-0.9c-0.3-0.2-0.6-0.3-1-0.2h-3.2c-0.3,0-0.7,0-1,0.2c-0.2,0.2-0.3,0.6-0.3,0.9v4c0,0.3,0.1,0.6,0.2,0.9
	c0.3,0.2,0.6,0.3,1,0.2H181z"/>
</svg>
