<svg id="Layer_1" data-name="Layer 1" xmlns="http://www.w3.org/2000/svg" viewBox="0 0 250.93 88.19"><defs><style>.cls-1{fill:#231f20;}.cls-2{fill:#ffc418;}.cls-3{fill:none;stroke:#231f20;}</style></defs><title>BC-749</title><path class="cls-1" d="M5.4,55.53a171.41,171.41,0,0,1,121-50.13A167.4,167.4,0,0,1,245.53,54.93L221,82.78H29.31Z"/><path class="cls-2" d="M5.4,55.53a171.41,171.41,0,0,1,121-50.13A167.4,167.4,0,0,1,245.53,54.92L221,82.78H29.31ZM92.56,3.29a177,177,0,0,0-91,48.41,5.4,5.4,0,0,0-.25,7.39L25.25,86.35a5.4,5.4,0,0,0,4.06,1.84H221a5.39,5.39,0,0,0,4.05-1.83l24.52-27.86a5.39,5.39,0,0,0-.24-7.38A172.77,172.77,0,0,0,126.45,0,176.66,176.66,0,0,0,92.56,3.29"/><path class="cls-3" d="M5.4,55.53a171.42,171.42,0,0,1,121-50.13A167.4,167.4,0,0,1,245.53,54.93"/><path class="cls-2" d="M29.47,53.09l-2.2-2.72a8.37,8.37,0,0,0-1.07-1.15,4.75,4.75,0,0,0-1-.6l5.3-4.29a4.31,4.31,0,0,0,.4,1.07,8.27,8.27,0,0,0,.89,1.29l6.34,7.83a8.32,8.32,0,0,0,1.07,1.15,4.69,4.69,0,0,0,1,.6l-5.3,4.29a4.3,4.3,0,0,0-.4-1.07,8.19,8.19,0,0,0-.89-1.29l-2.54-3.13-3.4,2.75,2.54,3.13a8.29,8.29,0,0,0,1.07,1.15,4.72,4.72,0,0,0,1,.6L26.95,67a4.32,4.32,0,0,0-.4-1.07,8.19,8.19,0,0,0-.89-1.29l-6.34-7.84a8.41,8.41,0,0,0-1.07-1.15,4.77,4.77,0,0,0-1-.6l5.3-4.29a4.27,4.27,0,0,0,.4,1.07,8.22,8.22,0,0,0,.89,1.29l2.2,2.72Z"/><path class="cls-2" d="M45.72,34.73l6.74-4a4.72,4.72,0,0,0,.22,1.1,7.44,7.44,0,0,0,.7,1.43l5.17,8.66a8.28,8.28,0,0,0,.9,1.3,4.2,4.2,0,0,0,.88.7L54.46,47.4a4.31,4.31,0,0,0-.24-1.11,8.24,8.24,0,0,0-.7-1.4l-4.85-8.12,2.51,12.59L47.7,51.44,37.88,43l4.8,8.14a10.41,10.41,0,0,0,1,1.47,2.89,2.89,0,0,0,.93.63l-3.17,1.89a2.86,2.86,0,0,0-.1-1.11,10.33,10.33,0,0,0-.82-1.55l-5-8.45a10.33,10.33,0,0,0-1-1.46,2.88,2.88,0,0,0-.93-.62l6.92-4.13,7,6Z"/><path class="cls-2" d="M70.85,26.29a7.24,7.24,0,0,0-1.18,0,4.69,4.69,0,0,0-1.23.36l-5,2.12a2.21,2.21,0,0,0-.79.47c-.1.13-.1.33,0,.59l.34.8c.11.26.25.41.41.42a2.19,2.19,0,0,0,.89-.24l3.82-1.62A4.77,4.77,0,0,1,71,28.76a2.79,2.79,0,0,1,1.8,1.82L74.3,34A4.21,4.21,0,0,1,74.65,37a3.67,3.67,0,0,1-2.27,2L62.66,43,61,40.5a7.82,7.82,0,0,0,1.1-.12,5.87,5.87,0,0,0,1.2-.38l5.22-2.21a2.12,2.12,0,0,0,.77-.46c.1-.13.1-.33,0-.59l-.41-1c-.11-.25-.24-.39-.41-.41a2,2,0,0,0-.87.22l-4.4,1.86a3.51,3.51,0,0,1-2.6.32,3.68,3.68,0,0,1-1.68-2.13l-1.34-3.16a3.93,3.93,0,0,1-.28-2.83,3.06,3.06,0,0,1,1.85-1.8l10-4.23Z"/><path class="cls-2" d="M97.51,29a9,9,0,0,0,1.39-.4A8.67,8.67,0,0,0,100,28l.14,3-13.2,3A4.28,4.28,0,0,0,87,32.83a8.16,8.16,0,0,0-.23-1.55l-2.23-9.83a8.29,8.29,0,0,0-.45-1.51,4.76,4.76,0,0,0-.6-1L96.5,16,97.66,19a11,11,0,0,0-1.24-.14,5.57,5.57,0,0,0-1.49.16l-4.66,1.06.8,3.51,4.07-.92a8.66,8.66,0,0,0,1.35-.39,10.77,10.77,0,0,0,1.13-.59l.74,3.28q-.58,0-1.2,0a7.89,7.89,0,0,0-1.47.21l-4.07.92.91,4Z"/><path class="cls-2" d="M110.21,18.72,112.33,16a5.72,5.72,0,0,0,.75-1.15,2.61,2.61,0,0,0,.22-1l4.74-.52a11.23,11.23,0,0,0-1.23,1.15q-.54.59-1.22,1.46L112,20.6l5.67,6.14q.71.77,1.14,1.15a6,6,0,0,0,1,.73l-8.35.92a3.8,3.8,0,0,0-.26-1.19,6.16,6.16,0,0,0-.88-1.1l-1.91-2.06-2.31,3a4,4,0,0,0-1,2.09l-4.51.5q.81-.76,1.1-1.09t1.18-1.46l3.81-4.88-5.63-6q-.74-.79-1.09-1.09a7.28,7.28,0,0,0-1.27-.78l8.59-.94a3.42,3.42,0,0,0,.24,1,2.67,2.67,0,0,0,.51.75Z"/><path class="cls-2" d="M134,16.62a6.69,6.69,0,0,0-1.06-.43A4.58,4.58,0,0,0,131.7,16l-4.2,0q-1.15,0-1.16,1l-.06,8.3q0,1,1.14,1l3.31,0A14.81,14.81,0,0,0,133,26.2a5.13,5.13,0,0,0,1.28-.46l-.53,3.12-9.45-.07a3.8,3.8,0,0,1-2.91-1.07,5,5,0,0,1-.95-3.48l0-6.34a5,5,0,0,1,1-3.45,3.78,3.78,0,0,1,2.92-1l9.21.07Z"/><path class="cls-2" d="M139.89,25.19l-1.28,2a2,2,0,0,0-.33.88,2.06,2.06,0,0,0,0,.54,3.25,3.25,0,0,0,.22.59l-4.31-.53q.8-.8,1.2-1.28a11.51,11.51,0,0,0,.88-1.27l7-10.94-.56-.94,6.88.85,3.81,13.82a7.19,7.19,0,0,0,1.08,2.26l-7.65-.94a3.66,3.66,0,0,0,.33-.55,1.4,1.4,0,0,0,.12-.41,2.91,2.91,0,0,0-.07-1.17L146.58,26Zm6-1.82-1.54-5.43-3,4.87Z"/><path class="cls-2" d="M166.65,31.73a7.26,7.26,0,0,0,1.52.24,3.09,3.09,0,0,0,1-.12L168,34.69l-12.86-3.18a4.29,4.29,0,0,0,.61-1,8.24,8.24,0,0,0,.49-1.49l2.42-9.79a8.36,8.36,0,0,0,.27-1.55,4.76,4.76,0,0,0-.1-1.13l6.62,1.64a4.32,4.32,0,0,0-.61,1,8.2,8.2,0,0,0-.49,1.49l-2.44,9.88Z"/><path class="cls-2" d="M169.74,35.36a4.32,4.32,0,0,0,.69-.91A8.25,8.25,0,0,0,171,33l3.25-9.54a8.42,8.42,0,0,0,.4-1.52,4.73,4.73,0,0,0,0-1.13l6.45,2.2a4.25,4.25,0,0,0-.69.91,8.22,8.22,0,0,0-.62,1.44l-3.25,9.54a8.41,8.41,0,0,0-.4,1.52,4.68,4.68,0,0,0,0,1.13Z"/><path class="cls-2" d="M184.1,26.79a8.32,8.32,0,0,0,.55-1.48,4.72,4.72,0,0,0,.1-1.13l11.45,5.19a4.71,4.71,0,0,1,2.53,2,3,3,0,0,1-.17,2.44l-.7,1.55a2,2,0,0,1-1.51,1.36,4.85,4.85,0,0,1-2.51-.57A7.72,7.72,0,0,1,196,37.92a1.8,1.8,0,0,1-.08,1.75L194.84,42a3.24,3.24,0,0,1-1.78,1.86,4.53,4.53,0,0,1-3.19-.54l-11.45-5.19a4.32,4.32,0,0,0,.77-.83,8.22,8.22,0,0,0,.75-1.37Zm1.13,11.69,3.1,1.41a1.31,1.31,0,0,0,.76.17q.24-.06.47-.57l1-2.19a.93.93,0,0,0,.11-.71,1.23,1.23,0,0,0-.63-.47l-3.1-1.41ZM188,32.4l3.1,1.41a1.3,1.3,0,0,0,.76.17c.16,0,.32-.23.47-.57l.77-1.71a.93.93,0,0,0,.11-.71,1.23,1.23,0,0,0-.63-.47l-3.1-1.41Z"/><path class="cls-2" d="M206.94,50.19a2.72,2.72,0,0,0,1.39.58q.35-.07.91-1l4.49-7.25a10.29,10.29,0,0,0,.84-1.54,2.86,2.86,0,0,0,.12-1.11l3.14,1.95a2.86,2.86,0,0,0-.94.6,10.22,10.22,0,0,0-1,1.44l-4.13,6.67A5.77,5.77,0,0,1,209,53.26q-1.31.4-3.43-.91L199,48.26a4.1,4.1,0,0,1-2.15-2.68,5.38,5.38,0,0,1,1-3.59l4.19-6.77a8.38,8.38,0,0,0,.74-1.39,4.76,4.76,0,0,0,.25-1.1l5.79,3.59A4.3,4.3,0,0,0,208,37a8.17,8.17,0,0,0-.92,1.26l-4.6,7.43a1.28,1.28,0,0,0,.49,2Z"/><path class="cls-2" d="M220.1,54.63l-2.54,3.13a8.23,8.23,0,0,0-.91,1.29,4.68,4.68,0,0,0-.39,1.06L211,55.81a4.26,4.26,0,0,0,1-.61A8.16,8.16,0,0,0,213,54.06l6.36-7.82a7.41,7.41,0,0,0,.91-1.33,2.78,2.78,0,0,0,.27-1.11l9.8,8a4.88,4.88,0,0,1,1.88,2.5,3.18,3.18,0,0,1-.92,2.64l-1.79,2.2q-1,1.19-1.73,1.18a2.8,2.8,0,0,1-1.66-.74L225,64.2q-.18.72-.35,1.43a4.76,4.76,0,0,0-.15,1.19l-5.08-4.13,2-6.93Zm1.61-2,2.57,2.09a1.3,1.3,0,0,0,.69.36q.25,0,.6-.43l1.18-1.45a.92.92,0,0,0,.29-.66,1.23,1.23,0,0,0-.49-.62L224,49.86Z"/><path class="cls-2" d="M66.28,58a10.74,10.74,0,0,0-.14-2,6.11,6.11,0,0,0-.48-1.38H81.91q2.94,0,4,1a3.82,3.82,0,0,1,1.1,3v2.2A2.62,2.62,0,0,1,86,63.18a6.26,6.26,0,0,1-3.25.66,10,10,0,0,1,3.47.92,2.32,2.32,0,0,1,.84,2.1v3.38A4.17,4.17,0,0,1,86,73.37q-1.1,1.07-4,1.07H65.66A5.52,5.52,0,0,0,66.13,73a10.61,10.61,0,0,0,.16-2Zm7.56,4.53h4.4a1.68,1.68,0,0,0,1-.2q.25-.2.25-.91V59a1.2,1.2,0,0,0-.25-.9,1.59,1.59,0,0,0-1-.22h-4.4Zm0,8.62h4.4a1.68,1.68,0,0,0,1-.2q.25-.2.25-.92v-3.1a1.2,1.2,0,0,0-.25-.9,1.6,1.6,0,0,0-1-.22h-4.4Z"/><path class="cls-2" d="M107,58.63a8.67,8.67,0,0,0-1.38-.55,5.92,5.92,0,0,0-1.66-.2H98.55q-1.49,0-1.49,1.27V69.88q0,1.27,1.49,1.27h4.28a18.85,18.85,0,0,0,2.91-.14,6.6,6.6,0,0,0,1.64-.6l-.65,4H94.52a4.9,4.9,0,0,1-3.77-1.35q-1.26-1.35-1.25-4.48V60.43q0-3.1,1.25-4.46a4.87,4.87,0,0,1,3.77-1.36h11.9Z"/><path class="cls-2" d="M108.82,64.55h10.91v5.21H108.82Z"/><path class="cls-2" d="M124.56,58a8.57,8.57,0,0,0-1.69.11,11.52,11.52,0,0,0-1.53.57L122,54.6h19.47l.19,3.35a42.79,42.79,0,0,0-6,8.08,27.16,27.16,0,0,0-3.26,8.42h-8.56a25.06,25.06,0,0,1,2.74-6.29,61.12,61.12,0,0,1,4.19-6.26A50.46,50.46,0,0,1,133.92,58Z"/><path class="cls-2" d="M166.47,64.77V70H163.1v1.74a6,6,0,0,0,.17,1.63,3.75,3.75,0,0,0,.54,1.1H155a3.31,3.31,0,0,0,.51-1.07,6.39,6.39,0,0,0,.17-1.66V70H142.45V65.11L154.32,54.6h8.77V64.77Zm-10.82-6.59-7.77,6.59h7.77Z"/><path class="cls-2" d="M179.59,71.15a2.42,2.42,0,0,0,1.44-.29,1.37,1.37,0,0,0,.36-1.1V66a3.84,3.84,0,0,1-.93,1.18,2,2,0,0,1-1.15.28H173a5.33,5.33,0,0,1-3.5-1.15,3.77,3.77,0,0,1-1.39-3.07v-4.4a3.76,3.76,0,0,1,1.41-3.05A5.3,5.3,0,0,1,173,54.6h11a5.34,5.34,0,0,1,3.5,1.15,3.77,3.77,0,0,1,1.4,3.07V70.23a3.77,3.77,0,0,1-1.41,3.05,5.31,5.31,0,0,1-3.49,1.16H169.14l-.68-3.84A7.16,7.16,0,0,0,170,71a16.7,16.7,0,0,0,2.59.15Zm.56-7a1.51,1.51,0,0,0,1-.23,1.16,1.16,0,0,0,.26-.88V59a1.2,1.2,0,0,0-.25-.87,1.44,1.44,0,0,0-1-.25h-3.22a1.51,1.51,0,0,0-1,.23,1.15,1.15,0,0,0-.26.88v4a1.22,1.22,0,0,0,.25.87,1.43,1.43,0,0,0,1,.25Z"/></svg>