<svg id="Layer_1" data-name="Layer 1" xmlns="http://www.w3.org/2000/svg" viewBox="0 0 250.93 88.19"><defs><style>.cls-1{fill:#ffc418;}.cls-2{fill:none;stroke:#231f20;}</style></defs><title>BC-775</title><path d="M5.4,55.53a171.41,171.41,0,0,1,121-50.13A167.4,167.4,0,0,1,245.53,54.93L221,82.78H29.31Z"/><path class="cls-1" d="M5.4,55.53a171.41,171.41,0,0,1,121-50.13A167.4,167.4,0,0,1,245.53,54.92L221,82.78H29.31ZM92.56,3.29a177,177,0,0,0-91,48.41,5.4,5.4,0,0,0-.25,7.39L25.25,86.35a5.4,5.4,0,0,0,4.06,1.84H221a5.39,5.39,0,0,0,4.05-1.83l24.52-27.86a5.39,5.39,0,0,0-.24-7.38A172.77,172.77,0,0,0,126.45,0,176.66,176.66,0,0,0,92.56,3.29"/><path class="cls-2" d="M5.4,55.53a171.42,171.42,0,0,1,121-50.13A167.4,167.4,0,0,1,245.53,54.93"/><path class="cls-1" d="M45.27,42.14l-1.86-3a8.36,8.36,0,0,0-.92-1.28,4.77,4.77,0,0,0-.88-.71l5.78-3.61a4.28,4.28,0,0,0,.27,1.11,8.21,8.21,0,0,0,.73,1.39l5.34,8.55a8.37,8.37,0,0,0,.92,1.28,4.73,4.73,0,0,0,.88.71l-5.78,3.61a4.3,4.3,0,0,0-.27-1.11,8.25,8.25,0,0,0-.73-1.39L46.62,44.3l-3.7,2.32L45.05,50A8.32,8.32,0,0,0,46,51.31a4.69,4.69,0,0,0,.88.71l-5.78,3.61a4.31,4.31,0,0,0-.27-1.11,8.21,8.21,0,0,0-.73-1.39l-5.34-8.55a8.3,8.3,0,0,0-.92-1.28,4.71,4.71,0,0,0-.88-.71L38.72,39A4.29,4.29,0,0,0,39,40.1a8.25,8.25,0,0,0,.73,1.39l1.86,3Z"/><path class="cls-1" d="M62.47,26.41l7.16-3.22a4.71,4.71,0,0,0,.09,1.12,7.44,7.44,0,0,0,.53,1.5L74.39,35a8.36,8.36,0,0,0,.75,1.4,4.2,4.2,0,0,0,.79.8L69.69,40a4.34,4.34,0,0,0-.12-1.13A8.17,8.17,0,0,0,69,37.4l-3.88-8.62,1,12.79-3.7,1.66-8.79-9.47,3.83,8.64A10.49,10.49,0,0,0,58.37,44a2.89,2.89,0,0,0,.86.73l-3.37,1.52a2.85,2.85,0,0,0,0-1.12,10.29,10.29,0,0,0-.63-1.64l-4-9a10.24,10.24,0,0,0-.81-1.56,2.85,2.85,0,0,0-.85-.72l7.35-3.31,6.24,6.74Z"/><path class="cls-1" d="M87.16,21.24A7.06,7.06,0,0,0,86,21.15a4.67,4.67,0,0,0-1.26.22l-5.22,1.57a2.21,2.21,0,0,0-.84.38q-.17.18,0,.59l.25.83c.08.28.2.43.37.47a2.21,2.21,0,0,0,.91-.15l4-1.2a4.77,4.77,0,0,1,3-.14,2.8,2.8,0,0,1,1.59,2l1.08,3.58a4.21,4.21,0,0,1,0,3A3.68,3.68,0,0,1,87.33,34L77.22,37l-1.34-2.71a7.83,7.83,0,0,0,1.1,0,5.85,5.85,0,0,0,1.23-.25l5.42-1.63a2.11,2.11,0,0,0,.82-.37q.17-.18,0-.59l-.3-1q-.12-.39-.36-.46a2,2,0,0,0-.89.13L78.37,31.5a3.51,3.51,0,0,1-2.62,0,3.68,3.68,0,0,1-1.44-2.3l-1-3.29a3.93,3.93,0,0,1,0-2.84,3.06,3.06,0,0,1,2-1.59L85.78,18.4Z"/><path class="cls-1" d="M112.34,14l7.81-.82a4.7,4.7,0,0,0-.26,1.09,7.4,7.4,0,0,0,0,1.59l1.05,10a8.34,8.34,0,0,0,.27,1.56,4.2,4.2,0,0,0,.5,1l-6.8.71a4.27,4.27,0,0,0,.25-1.11,8.25,8.25,0,0,0,0-1.56l-1-9.4-3,12.48-4,.42-5.38-11.74.94,9.4a10.59,10.59,0,0,0,.28,1.75,2.91,2.91,0,0,0,.58,1l-3.68.39a2.86,2.86,0,0,0,.37-1.05,10.24,10.24,0,0,0-.09-1.75l-1-9.79a10.42,10.42,0,0,0-.28-1.73,2.87,2.87,0,0,0-.58-1l8-.84L110.09,23Z"/><path class="cls-1" d="M134.67,26.43a2.7,2.7,0,0,0,1.49-.2q.27-.23.3-1.29l.25-8.52a10.4,10.4,0,0,0,0-1.75,2.88,2.88,0,0,0-.45-1l3.69.11a2.84,2.84,0,0,0-.51,1,10.15,10.15,0,0,0-.15,1.75L139,24.35A5.76,5.76,0,0,1,138,28q-.93,1-3.42.93l-7.77-.23a4.09,4.09,0,0,1-3.2-1.25,5.37,5.37,0,0,1-.9-3.63l.23-8a8.38,8.38,0,0,0-.06-1.57,4.77,4.77,0,0,0-.34-1.08l6.81.2a4.27,4.27,0,0,0-.39,1.07,8.21,8.21,0,0,0-.17,1.56l-.25,8.73A1.28,1.28,0,0,0,130,26.3Z"/><path class="cls-1" d="M156.3,19.23a7.29,7.29,0,0,0-1-.58,4.7,4.7,0,0,0-1.24-.33l-5.39-.78a2.21,2.21,0,0,0-.92,0q-.23.09-.29.51l-.12.86q-.06.43.13.58a2.19,2.19,0,0,0,.89.25l4.11.6a4.77,4.77,0,0,1,2.76,1.13,2.79,2.79,0,0,1,.6,2.49l-.54,3.71a4.2,4.2,0,0,1-1.22,2.7,3.67,3.67,0,0,1-3,.5l-10.45-1.52-.07-3a7.91,7.91,0,0,0,1,.46,5.78,5.78,0,0,0,1.22.29l5.61.81a2.12,2.12,0,0,0,.9,0q.23-.09.29-.52l.15-1a.59.59,0,0,0-.14-.57,2,2,0,0,0-.86-.26L144,24.82a3.52,3.52,0,0,1-2.39-1.07,3.68,3.68,0,0,1-.34-2.69l.49-3.4A3.93,3.93,0,0,1,143,15.09a3.06,3.06,0,0,1,2.51-.58l10.76,1.56Z"/><path class="cls-1" d="M160.49,28.51l-1.55,1.77a2,2,0,0,0-.45.82,2.09,2.09,0,0,0-.09.53,3.4,3.4,0,0,0,.13.62l-4.19-1.13q.9-.68,1.37-1.1a11.28,11.28,0,0,0,1.05-1.13L165.2,19l-.42-1,6.7,1.81,1.83,14.22a7.22,7.22,0,0,0,.75,2.39l-7.44-2a3.7,3.7,0,0,0,.41-.5,1.39,1.39,0,0,0,.18-.39,2.9,2.9,0,0,0,.09-1.17l-.3-2.12Zm6.2-1L165.93,22l-3.62,4.41Z"/><path class="cls-1" d="M191.72,30.58a7.2,7.2,0,0,0-.87-.81,4.69,4.69,0,0,0-1.12-.62l-5.05-2a2.21,2.21,0,0,0-.89-.23q-.25,0-.41.43l-.32.8c-.11.27-.11.46,0,.59a2.21,2.21,0,0,0,.8.45l3.85,1.55a4.77,4.77,0,0,1,2.41,1.75,2.8,2.8,0,0,1,0,2.56l-1.4,3.47a4.2,4.2,0,0,1-1.82,2.33,3.67,3.67,0,0,1-3-.21l-9.79-4,.65-2.95a7.75,7.75,0,0,0,.86.69,5.81,5.81,0,0,0,1.11.58L182,37.11a2.13,2.13,0,0,0,.87.22c.16,0,.3-.16.41-.43l.4-1a.59.59,0,0,0,0-.58,2,2,0,0,0-.77-.45l-4.43-1.79a3.52,3.52,0,0,1-2.07-1.61,3.68,3.68,0,0,1,.31-2.7L178,25.6a3.93,3.93,0,0,1,1.79-2.2,3.06,3.06,0,0,1,2.58,0l10.08,4.07Z"/><path class="cls-1" d="M201.88,39.34l1.68-3.08a8.31,8.31,0,0,0,.66-1.43,4.77,4.77,0,0,0,.19-1.12l6,3.27a4.28,4.28,0,0,0-.83.78,8.23,8.23,0,0,0-.85,1.31l-4.83,8.85a8.34,8.34,0,0,0-.66,1.43,4.73,4.73,0,0,0-.19,1.12l-6-3.27a4.33,4.33,0,0,0,.83-.77,8.23,8.23,0,0,0,.85-1.31l1.93-3.54-3.83-2.09L194.9,43a8.31,8.31,0,0,0-.66,1.43,4.76,4.76,0,0,0-.19,1.12l-6-3.27a4.31,4.31,0,0,0,.83-.78,8.3,8.3,0,0,0,.85-1.31l4.83-8.85a8.37,8.37,0,0,0,.66-1.43,4.71,4.71,0,0,0,.19-1.12l6,3.27a4.25,4.25,0,0,0-.83.78,8.16,8.16,0,0,0-.85,1.31l-1.68,3.08Z"/><path class="cls-1" d="M203.84,51.23a4.31,4.31,0,0,0,.9-.7,8.19,8.19,0,0,0,1-1.23l5.61-8.37a8.37,8.37,0,0,0,.79-1.37,4.82,4.82,0,0,0,.29-1.09l5.66,3.79a4.29,4.29,0,0,0-.9.7,8.29,8.29,0,0,0-1,1.23l-5.61,8.38a8.37,8.37,0,0,0-.79,1.37,4.72,4.72,0,0,0-.29,1.09Z"/><path class="cls-1" d="M68.28,58a10.74,10.74,0,0,0-.14-2,6.11,6.11,0,0,0-.48-1.38H83.91q2.94,0,4,1a3.82,3.82,0,0,1,1.1,3v2.2A2.62,2.62,0,0,1,88,63.18a6.26,6.26,0,0,1-3.25.66,10,10,0,0,1,3.47.92,2.32,2.32,0,0,1,.84,2.1v3.38A4.17,4.17,0,0,1,88,73.37q-1.1,1.07-4,1.07H67.66A5.52,5.52,0,0,0,68.13,73a10.61,10.61,0,0,0,.16-2Zm7.56,4.53h4.4a1.68,1.68,0,0,0,1-.2q.25-.2.25-.91V59a1.2,1.2,0,0,0-.25-.9,1.59,1.59,0,0,0-1-.22h-4.4Zm0,8.62h4.4a1.68,1.68,0,0,0,1-.2q.25-.2.25-.92v-3.1a1.2,1.2,0,0,0-.25-.9,1.6,1.6,0,0,0-1-.22h-4.4Z"/><path class="cls-1" d="M109,58.63a8.67,8.67,0,0,0-1.38-.55,5.92,5.92,0,0,0-1.66-.2h-5.42q-1.49,0-1.49,1.27V69.88q0,1.27,1.49,1.27h4.28a18.85,18.85,0,0,0,2.91-.14,6.6,6.6,0,0,0,1.64-.6l-.65,4H96.52a4.9,4.9,0,0,1-3.77-1.35q-1.26-1.35-1.25-4.48V60.43q0-3.1,1.25-4.46a4.87,4.87,0,0,1,3.77-1.36h11.9Z"/><path class="cls-1" d="M110.81,64.55h10.91v5.21H110.81Z"/><path class="cls-1" d="M126.56,58a8.57,8.57,0,0,0-1.69.11,11.52,11.52,0,0,0-1.53.57L124,54.6h19.47l.19,3.35a42.8,42.8,0,0,0-6,8.08,27.16,27.16,0,0,0-3.25,8.42h-8.56a25,25,0,0,1,2.74-6.29,60.89,60.89,0,0,1,4.19-6.26Q134.9,59,135.92,58Z"/><path class="cls-1" d="M147.8,58a8.59,8.59,0,0,0-1.69.11,11.52,11.52,0,0,0-1.53.57l.62-4.06h19.47l.19,3.35a42.79,42.79,0,0,0-6,8.08,27.16,27.16,0,0,0-3.26,8.42H147a25.08,25.08,0,0,1,2.74-6.29,61.21,61.21,0,0,1,4.19-6.26A50.46,50.46,0,0,1,157.16,58Z"/><path class="cls-1" d="M174,61.79h8.09a5.28,5.28,0,0,1,3.8,1.1,4.68,4.68,0,0,1,1.1,3.43v3.6a4.68,4.68,0,0,1-1.1,3.43,5.28,5.28,0,0,1-3.8,1.1H167l-.68-4.28a4.67,4.67,0,0,0,1.36.71,7.72,7.72,0,0,0,2.39.28H178a1.76,1.76,0,0,0,1.13-.23,1.62,1.62,0,0,0,.23-1.07V66.38a1.56,1.56,0,0,0-.25-1.05,1.69,1.69,0,0,0-1.12-.25h-8a9.38,9.38,0,0,0-1.94.17,3.46,3.46,0,0,0-1.47.73l.25-11.38H186.7l.59,4a6.65,6.65,0,0,0-1.61-.57,13.1,13.1,0,0,0-2.51-.18h-9Z"/></svg>