<svg id="Layer_1" data-name="Layer 1" xmlns="http://www.w3.org/2000/svg" viewBox="0 0 250.93 88.19"><defs><style>.cls-1{fill:#ffc418;}.cls-2{fill:none;stroke:#231f20;}</style></defs><title>BC-739</title><path d="M5.4,55.53a171.41,171.41,0,0,1,121-50.13A167.4,167.4,0,0,1,245.53,54.93L221,82.78H29.31Z"/><path class="cls-1" d="M5.4,55.53a171.41,171.41,0,0,1,121-50.13A167.4,167.4,0,0,1,245.53,54.92L221,82.78H29.31ZM92.56,3.29a177,177,0,0,0-91,48.41,5.4,5.4,0,0,0-.25,7.39L25.25,86.35a5.4,5.4,0,0,0,4.06,1.84H221a5.39,5.39,0,0,0,4.05-1.83l24.52-27.86a5.39,5.39,0,0,0-.24-7.38A172.77,172.77,0,0,0,126.45,0,176.66,176.66,0,0,0,92.56,3.29"/><path class="cls-2" d="M5.4,55.53a171.42,171.42,0,0,1,121-50.13A167.4,167.4,0,0,1,245.53,54.93"/><path class="cls-1" d="M39.84,45.58l-2-2.89a8.33,8.33,0,0,0-1-1.24,4.68,4.68,0,0,0-.91-.67l5.63-3.85A4.26,4.26,0,0,0,41.92,38a8.19,8.19,0,0,0,.78,1.36l5.69,8.32a8.33,8.33,0,0,0,1,1.24,4.68,4.68,0,0,0,.91.67l-5.63,3.85a4.31,4.31,0,0,0-.31-1.09A8.23,8.23,0,0,0,43.55,51l-2.27-3.33-3.61,2.46,2.27,3.33a8.36,8.36,0,0,0,1,1.24,4.69,4.69,0,0,0,.91.67L36.2,59.23a4.31,4.31,0,0,0-.31-1.1,8.22,8.22,0,0,0-.78-1.36l-5.69-8.32a8.36,8.36,0,0,0-1-1.24,4.73,4.73,0,0,0-.91-.67l5.63-3.85a4.29,4.29,0,0,0,.31,1.09,8.22,8.22,0,0,0,.78,1.36l2,2.89Z"/><path class="cls-1" d="M57.54,28.61l7-3.46a4.7,4.7,0,0,0,.13,1.11,7.42,7.42,0,0,0,.58,1.48l4.44,9a8.29,8.29,0,0,0,.79,1.37,4.16,4.16,0,0,0,.82.77l-6.14,3a4.35,4.35,0,0,0-.15-1.13,8.2,8.2,0,0,0-.58-1.45l-4.16-8.49,1.47,12.75-3.64,1.79L49,36.26l4.12,8.5A10.49,10.49,0,0,0,54,46.31a2.9,2.9,0,0,0,.88.7l-3.32,1.63a2.86,2.86,0,0,0,0-1.12,10.35,10.35,0,0,0-.69-1.62l-4.33-8.83a10.32,10.32,0,0,0-.86-1.53,2.85,2.85,0,0,0-.87-.69l7.24-3.55,6.46,6.53Z"/><path class="cls-1" d="M83.27,22.27a7.24,7.24,0,0,0-1.18-.06,4.67,4.67,0,0,0-1.25.25l-5.18,1.7a2.2,2.2,0,0,0-.83.4q-.17.18,0,.59l.27.82q.13.41.38.46a2.22,2.22,0,0,0,.9-.17L80.29,25a4.77,4.77,0,0,1,3-.22,2.79,2.79,0,0,1,1.64,2l1.17,3.56a4.21,4.21,0,0,1,.11,3A3.68,3.68,0,0,1,83.77,35l-10,3.29-1.41-2.67a7.76,7.76,0,0,0,1.1,0,5.89,5.89,0,0,0,1.22-.28L80,33.54a2.1,2.1,0,0,0,.81-.39q.17-.18,0-.59l-.33-1c-.08-.26-.21-.41-.37-.45a1.94,1.94,0,0,0-.88.15l-4.54,1.49a3.51,3.51,0,0,1-2.62.1,3.68,3.68,0,0,1-1.5-2.26l-1.07-3.26a3.92,3.92,0,0,1,0-2.84,3.06,3.06,0,0,1,2-1.64l10.33-3.39Z"/><path class="cls-1" d="M97.44,18.5A8.34,8.34,0,0,0,97.12,17a4.74,4.74,0,0,0-.51-1l12.47-1.65a4.71,4.71,0,0,1,3.21.36,3,3,0,0,1,1.14,2.16l.22,1.69a2,2,0,0,1-.56,2,4.87,4.87,0,0,1-2.43.84,7.7,7.7,0,0,1,2.76.36,1.8,1.8,0,0,1,.86,1.53l.34,2.59a3.23,3.23,0,0,1-.53,2.52,4.52,4.52,0,0,1-3,1.23L98.63,31.17a4.29,4.29,0,0,0,.22-1.12,8.34,8.34,0,0,0-.08-1.56Zm6.26,2.71,3.38-.45a1.31,1.31,0,0,0,.74-.25.93.93,0,0,0,.1-.73l-.25-1.86a.93.93,0,0,0-.28-.67,1.24,1.24,0,0,0-.78-.07l-3.38.45Zm.87,6.61,3.38-.45a1.3,1.3,0,0,0,.74-.25.93.93,0,0,0,.1-.73L108.48,24a.93.93,0,0,0-.28-.67,1.23,1.23,0,0,0-.78-.07l-3.38.45Z"/><path class="cls-1" d="M128.26,26.2a9.12,9.12,0,0,0,1.44-.11,8.77,8.77,0,0,0,1.19-.35l-.47,3L116.88,29a4.25,4.25,0,0,0,.34-1.09,8.19,8.19,0,0,0,.09-1.56l-.19-10.08a8.35,8.35,0,0,0-.14-1.57,4.74,4.74,0,0,0-.39-1.06l13.29-.25.54,3.11a11.14,11.14,0,0,0-1.18-.38,5.62,5.62,0,0,0-1.49-.14L123,16l.07,3.6,4.17-.08a8.66,8.66,0,0,0,1.4-.11,10.64,10.64,0,0,0,1.23-.35l.06,3.36a12,12,0,0,0-1.17-.27,7.81,7.81,0,0,0-1.48-.09l-4.17.08.08,4.13Z"/><path class="cls-1" d="M133.45,17.89a5,5,0,0,1,1.3-3.35,3.77,3.77,0,0,1,3-.77l8.74.85a3.8,3.8,0,0,1,2.8,1.32,5,5,0,0,1,.63,3.55l-.62,6.31a5,5,0,0,1-1.3,3.35,3.77,3.77,0,0,1-3,.77l-8.74-.85a3.79,3.79,0,0,1-2.8-1.32,5,5,0,0,1-.63-3.55Zm5.12,7.85q-.1,1,1.05,1.09l2.53.25q1.15.11,1.24-.87l.81-8.26q.1-1-1.05-1.09l-2.53-.25q-1.15-.11-1.24.87Z"/><path class="cls-1" d="M164.1,23.24l-4.91,9.26-5.43-1.36-.08-13.8a4.77,4.77,0,0,0-.14-1.17,8.59,8.59,0,0,0-.33-1L160,16.86a3.2,3.2,0,0,0-.27.44,2.8,2.8,0,0,0-.16.49,7.27,7.27,0,0,0-.15.72,7.63,7.63,0,0,0,0,.8l-.07,7.6,4.79-9,5.67,1.42,0,10.23,3.55-6.73c.1-.19.2-.43.31-.7a5.89,5.89,0,0,0,.24-.72,3.37,3.37,0,0,0,.11-.59,1.41,1.41,0,0,0-.08-.44l3.61.9a4.65,4.65,0,0,0-.91.85,6.52,6.52,0,0,0-.73,1.14l-6.21,11.88-5.5-1.37Z"/><path class="cls-1" d="M186.42,39a2.71,2.71,0,0,0,1.47.35q.34-.12.74-1.1l3.27-7.87a10.22,10.22,0,0,0,.58-1.66,2.85,2.85,0,0,0-.06-1.11L195.84,29a2.85,2.85,0,0,0-.83.75,10.3,10.3,0,0,0-.76,1.58l-3,7.25A5.77,5.77,0,0,1,189,41.65q-1.23.61-3.53-.35l-7.18-3A4.09,4.09,0,0,1,175.71,36a5.37,5.37,0,0,1,.45-3.71l3.06-7.36a8.4,8.4,0,0,0,.5-1.49,4.72,4.72,0,0,0,.07-1.13l6.29,2.62a4.31,4.31,0,0,0-.75.86,8.12,8.12,0,0,0-.71,1.39l-3.36,8.07a1.28,1.28,0,0,0,.8,1.89Z"/><path class="cls-1" d="M202.54,47.38a7.32,7.32,0,0,0,1.4.64,3.13,3.13,0,0,0,1,.16l-1.93,2.41L191.5,44.1a4.28,4.28,0,0,0,.84-.77,8.28,8.28,0,0,0,.87-1.3l4.93-8.79a8.34,8.34,0,0,0,.67-1.42,4.72,4.72,0,0,0,.2-1.11L205,34a4.34,4.34,0,0,0-.84.77,8.3,8.3,0,0,0-.87,1.3l-5,8.88Z"/><path class="cls-1" d="M210.91,52.83a8.4,8.4,0,0,0-.82,1.35,4.71,4.71,0,0,0-.31,1.09l-5.57-3.93a4.27,4.27,0,0,0,.92-.68,8.2,8.2,0,0,0,1-1.21l5.81-8.24a8.31,8.31,0,0,0,.82-1.35,4.74,4.74,0,0,0,.31-1.09l10.87,7.66-1.42,2.81a6.8,6.8,0,0,0-.7-1,5.86,5.86,0,0,0-1.13-1l-3.91-2.75-2.07,2.94,3.41,2.41a8.61,8.61,0,0,0,1.2.74,10.66,10.66,0,0,0,1.2.45l-1.94,2.75a11.88,11.88,0,0,0-.79-.91,7.71,7.71,0,0,0-1.14-.95l-3.41-2.41Z"/><path class="cls-1" d="M68,58a10.74,10.74,0,0,0-.14-2,6.11,6.11,0,0,0-.48-1.38H83.63q2.94,0,4,1a3.82,3.82,0,0,1,1.1,3v2.2a2.62,2.62,0,0,1-1.05,2.41,6.26,6.26,0,0,1-3.25.66,10,10,0,0,1,3.47.92,2.32,2.32,0,0,1,.84,2.1v3.38a4.17,4.17,0,0,1-1.1,3.14q-1.1,1.07-4,1.07H67.38A5.52,5.52,0,0,0,67.85,73,10.61,10.61,0,0,0,68,71Zm7.56,4.53H80a1.68,1.68,0,0,0,1-.2q.25-.2.25-.91V59a1.2,1.2,0,0,0-.25-.9,1.59,1.59,0,0,0-1-.22h-4.4Zm0,8.62H80a1.68,1.68,0,0,0,1-.2q.25-.2.25-.92v-3.1A1.2,1.2,0,0,0,81,66a1.6,1.6,0,0,0-1-.22h-4.4Z"/><path class="cls-1" d="M108.74,58.63a8.67,8.67,0,0,0-1.38-.55,5.92,5.92,0,0,0-1.66-.2h-5.42q-1.49,0-1.49,1.27V69.88q0,1.27,1.49,1.27h4.28a18.85,18.85,0,0,0,2.91-.14,6.6,6.6,0,0,0,1.64-.6l-.65,4H96.24a4.9,4.9,0,0,1-3.77-1.35q-1.26-1.35-1.25-4.48V60.43q0-3.1,1.25-4.46a4.87,4.87,0,0,1,3.77-1.36h11.9Z"/><path class="cls-1" d="M110.54,64.55h10.91v5.21H110.54Z"/><path class="cls-1" d="M126.28,58a8.57,8.57,0,0,0-1.69.11,11.52,11.52,0,0,0-1.53.57l.62-4.06h19.47l.19,3.35a42.79,42.79,0,0,0-6,8.08,27.16,27.16,0,0,0-3.26,8.42h-8.56a25.09,25.09,0,0,1,2.74-6.29,61.21,61.21,0,0,1,4.19-6.26A50.46,50.46,0,0,1,135.64,58Z"/><path class="cls-1" d="M158.4,54.6a7.21,7.21,0,0,1,4.15.91,3.6,3.6,0,0,1,1.24,3.11v3.32a2.14,2.14,0,0,1-1.07,2,7.29,7.29,0,0,1-3.55.64q2.88,0,3.75.74a3.14,3.14,0,0,1,.87,2.55V71a3.32,3.32,0,0,1-.93,2.52,4.36,4.36,0,0,1-3.07.89H144.73L144,70.19a10.5,10.5,0,0,0,1.64.73,5.87,5.87,0,0,0,1.8.23h7.41a1.78,1.78,0,0,0,1.1-.23,1.31,1.31,0,0,0,.26-1V67.22a1.36,1.36,0,0,0-.25-1,1.88,1.88,0,0,0-1.12-.22h-3.6a11.15,11.15,0,0,0-1.81.11,13.93,13.93,0,0,0-1.6.42V62.2a15.35,15.35,0,0,0,1.5.37,10.07,10.07,0,0,0,1.91.16h3.6a1.79,1.79,0,0,0,1.1-.23,1.31,1.31,0,0,0,.26-1V59.1a1.36,1.36,0,0,0-.25-1,1.88,1.88,0,0,0-1.12-.22H146.8a5.25,5.25,0,0,0-1.44.15,8.54,8.54,0,0,0-1.35.59l.68-4Z"/><path class="cls-1" d="M177.87,71.15a2.43,2.43,0,0,0,1.44-.29,1.38,1.38,0,0,0,.36-1.1V66a3.81,3.81,0,0,1-.93,1.18,2,2,0,0,1-1.15.28H171.3a5.33,5.33,0,0,1-3.5-1.15,3.77,3.77,0,0,1-1.39-3.07v-4.4a3.77,3.77,0,0,1,1.41-3.05,5.31,5.31,0,0,1,3.49-1.16h11a5.34,5.34,0,0,1,3.5,1.15,3.77,3.77,0,0,1,1.39,3.07V70.23a3.77,3.77,0,0,1-1.41,3.05,5.31,5.31,0,0,1-3.49,1.16H167.42l-.68-3.84a7.09,7.09,0,0,0,1.5.41,16.68,16.68,0,0,0,2.59.15Zm.56-7a1.51,1.51,0,0,0,1-.23,1.16,1.16,0,0,0,.26-.88V59a1.2,1.2,0,0,0-.25-.87,1.43,1.43,0,0,0-1-.25H175.2a1.51,1.51,0,0,0-1,.23A1.15,1.15,0,0,0,174,59v4a1.21,1.21,0,0,0,.25.87,1.43,1.43,0,0,0,1,.25Z"/></svg>