<svg id="Layer_1" data-name="Layer 1" xmlns="http://www.w3.org/2000/svg" viewBox="0 0 250.93 88.19"><defs><style>.cls-1{fill:#231f20;}.cls-2{fill:#ffc418;}.cls-3{fill:none;stroke:#231f20;}</style></defs><title>CA-01</title><path class="cls-1" d="M5.4,55.53a171.41,171.41,0,0,1,121-50.13A167.4,167.4,0,0,1,245.53,54.93L221,82.78H29.31Z"/><path class="cls-2" d="M5.4,55.53a171.41,171.41,0,0,1,121-50.13A167.4,167.4,0,0,1,245.53,54.92L221,82.78H29.31ZM92.56,3.29a177,177,0,0,0-91,48.41,5.4,5.4,0,0,0-.25,7.39L25.25,86.35a5.4,5.4,0,0,0,4.06,1.84H221a5.39,5.39,0,0,0,4.05-1.83l24.52-27.86a5.39,5.39,0,0,0-.24-7.38A172.77,172.77,0,0,0,126.45,0,176.66,176.66,0,0,0,92.56,3.29"/><path class="cls-3" d="M5.4,55.53a171.42,171.42,0,0,1,121-50.13A167.4,167.4,0,0,1,245.53,54.93"/><path class="cls-2" d="M55.45,36.48l-1.63-3.1A8.35,8.35,0,0,0,53,32a4.75,4.75,0,0,0-.83-.77l6-3.17a4.29,4.29,0,0,0,.18,1.12A8.24,8.24,0,0,0,59,30.65l4.69,8.92a8.31,8.31,0,0,0,.83,1.34,4.71,4.71,0,0,0,.83.77l-6,3.17a4.3,4.3,0,0,0-.18-1.12,8.28,8.28,0,0,0-.62-1.44l-1.88-3.57-3.87,2,1.88,3.57a8.38,8.38,0,0,0,.83,1.34,4.7,4.7,0,0,0,.83.77l-6,3.17a4.29,4.29,0,0,0-.18-1.12,8.2,8.2,0,0,0-.62-1.44l-4.69-8.92a8.37,8.37,0,0,0-.83-1.34,4.71,4.71,0,0,0-.83-.77l6-3.17A4.29,4.29,0,0,0,49.34,34,8.2,8.2,0,0,0,50,35.41l1.63,3.1Z"/><path class="cls-2" d="M75,21.67l7.4-2.62a4.72,4.72,0,0,0,0,1.12,7.46,7.46,0,0,0,.4,1.54l3.36,9.5a8.26,8.26,0,0,0,.63,1.46,4.2,4.2,0,0,0,.73.86l-6.45,2.28a4.31,4.31,0,0,0,0-1.14,8.24,8.24,0,0,0-.41-1.51L77.5,24.25l0,12.84-3.82,1.35-8-10.17,3.1,8.92a10.57,10.57,0,0,0,.68,1.64,2.91,2.91,0,0,0,.79.8l-3.49,1.23a2.84,2.84,0,0,0,.12-1.11,10.25,10.25,0,0,0-.49-1.68L63.12,28.8a10.28,10.28,0,0,0-.67-1.62,2.85,2.85,0,0,0-.79-.79l7.6-2.69,5.66,7.23Z"/><path class="cls-2" d="M101.32,18.35a7.26,7.26,0,0,0-1.17-.2,4.65,4.65,0,0,0-1.28.11l-5.34,1.09a2.23,2.23,0,0,0-.87.3q-.19.16-.1.58l.17.85q.09.42.32.5a2.21,2.21,0,0,0,.92-.06L98,20.69a4.77,4.77,0,0,1,3,.13,2.79,2.79,0,0,1,1.4,2.14l.75,3.67a4.21,4.21,0,0,1-.23,3A3.67,3.67,0,0,1,100.33,31L90,33.16,88.9,30.34a7.7,7.7,0,0,0,1.1.1,5.86,5.86,0,0,0,1.25-.13l5.55-1.13a2.11,2.11,0,0,0,.85-.29c.13-.11.16-.3.1-.58l-.21-1q-.08-.4-.32-.49a2,2,0,0,0-.9,0l-4.68,1a3.51,3.51,0,0,1-2.61-.2,3.68,3.68,0,0,1-1.23-2.42l-.69-3.36A3.93,3.93,0,0,1,87.38,19a3.05,3.05,0,0,1,2.17-1.4L100.2,15.4Z"/><path class="cls-2" d="M115.79,16.24a8.37,8.37,0,0,0-.14-1.57,4.73,4.73,0,0,0-.39-1.06l11.93-.21a4.75,4.75,0,0,1,3.44.94,4.67,4.67,0,0,1,1.05,3.35l.12,6.62a4.67,4.67,0,0,1-.94,3.39,4.75,4.75,0,0,1-3.4,1.06L115.53,29a4.31,4.31,0,0,0,.34-1.09,8.24,8.24,0,0,0,.09-1.56Zm6,10.07,3-.05a1.29,1.29,0,0,0,.91-.23,1.76,1.76,0,0,0,.17-1l-.13-7.78a1.76,1.76,0,0,0-.21-1q-.2-.22-.92-.21l-3,.05Z"/><path class="cls-2" d="M140.89,22.79l-.44,4a8.38,8.38,0,0,0-.06,1.57,4.68,4.68,0,0,0,.25,1.1l-6.78-.74a4.31,4.31,0,0,0,.47-1,8.19,8.19,0,0,0,.29-1.54l1.1-10a7.37,7.37,0,0,0,0-1.61,2.78,2.78,0,0,0-.38-1.08l12.55,1.37a4.87,4.87,0,0,1,2.94,1.08,3.18,3.18,0,0,1,.66,2.72l-.31,2.81q-.17,1.53-.81,1.93a2.81,2.81,0,0,1-1.79.28l1.61,4.52q.24.7.49,1.39a4.8,4.8,0,0,0,.52,1.08l-6.51-.71-2-6.94Zm.28-2.53,3.29.36a1.3,1.3,0,0,0,.78-.07q.21-.13.27-.68l.2-1.86a.93.93,0,0,0-.12-.71,1.23,1.23,0,0,0-.75-.25l-3.29-.36Z"/><path class="cls-2" d="M157.38,27.81l-1.51,1.8a2,2,0,0,0-.43.83,2.09,2.09,0,0,0-.08.54,3.34,3.34,0,0,0,.14.62l-4.22-1q.89-.69,1.34-1.13a11.44,11.44,0,0,0,1-1.16l8.24-10-.45-1,6.73,1.66,2.14,14.17a7.2,7.2,0,0,0,.8,2.37l-7.48-1.85a3.66,3.66,0,0,0,.4-.51,1.38,1.38,0,0,0,.17-.39,2.91,2.91,0,0,0,.07-1.17l-.34-2.11Zm6.18-1.09-.88-5.57-3.53,4.48Z"/><path class="cls-2" d="M187.7,38.72q.17,1.07.39,2a13.15,13.15,0,0,0,.53,1.73l-6.7-2.65-.8-7.31-1.87.94-.85,2.14a8.34,8.34,0,0,0-.48,1.5,4.73,4.73,0,0,0,0,1.13l-6.34-2.5a4.27,4.27,0,0,0,.73-.87,8.21,8.21,0,0,0,.69-1.41l3.7-9.37a8.37,8.37,0,0,0,.48-1.5,4.78,4.78,0,0,0,0-1.13l6.34,2.5a4.29,4.29,0,0,0-.73.87,8.25,8.25,0,0,0-.69,1.41l-1.56,4L186,27.3a4.31,4.31,0,0,0,.94-.61,1.74,1.74,0,0,0,.43-.63l.21-.54,4.93,1.95a12.07,12.07,0,0,0-1.22.21,7.06,7.06,0,0,0-1.21.45l-3.74,1.78Z"/><path class="cls-2" d="M200.22,46a9.05,9.05,0,0,0,1.31.61,8.48,8.48,0,0,0,1.21.29l-1.87,2.35L189,42.82a4.32,4.32,0,0,0,.83-.78,8.34,8.34,0,0,0,.85-1.32l4.79-8.87a8.41,8.41,0,0,0,.65-1.44,4.77,4.77,0,0,0,.18-1.12L208,35.61l-1.06,3a10.83,10.83,0,0,0-.84-.92,5.56,5.56,0,0,0-1.23-.86l-4.2-2.27-1.71,3.17,3.67,2a8.64,8.64,0,0,0,1.28.59,10.84,10.84,0,0,0,1.24.3l-1.6,3q-.41-.41-.89-.81a7.91,7.91,0,0,0-1.24-.81l-3.67-2-2,3.63Z"/><path class="cls-2" d="M97.82,58.63a8.67,8.67,0,0,0-1.38-.55,5.92,5.92,0,0,0-1.66-.2H89.36q-1.49,0-1.49,1.27V69.88q0,1.27,1.49,1.27h4.28A18.85,18.85,0,0,0,96.55,71a6.6,6.6,0,0,0,1.64-.6l-.65,4H85.33a4.9,4.9,0,0,1-3.77-1.35q-1.26-1.35-1.25-4.48V60.43q0-3.1,1.25-4.46a4.87,4.87,0,0,1,3.77-1.36h11.9Z"/><path class="cls-2" d="M104.71,69.11l-1.33,2.73a2.59,2.59,0,0,0-.28,1.18,2.7,2.7,0,0,0,.06.7,4.34,4.34,0,0,0,.37.73H97.92q.9-1.15,1.33-1.83a14.77,14.77,0,0,0,.93-1.77l7.22-15.13-.87-1.12h9l7.07,17.11a9.31,9.31,0,0,0,1.74,2.73h-10a4.7,4.7,0,0,0,.34-.76,1.79,1.79,0,0,0,.09-.54,3.75,3.75,0,0,0-.28-1.49l-1.08-2.54Zm7.41-3.29-2.83-6.71-3,6.71Z"/><path class="cls-2" d="M124.89,64.55H135.8v5.21H124.89Z"/><path class="cls-2" d="M154.68,54.6a4.9,4.9,0,0,1,3.77,1.35q1.26,1.35,1.26,4.48v8.18q0,3.1-1.26,4.46a4.87,4.87,0,0,1-3.77,1.36H143.33a4.91,4.91,0,0,1-3.77-1.35q-1.25-1.35-1.25-4.48V60.43q0-3.1,1.25-4.46a4.88,4.88,0,0,1,3.77-1.36Zm-7.32,3.29q-1.49,0-1.49,1.27V69.88q0,1.27,1.49,1.27h3.29q1.49,0,1.49-1.27V59.16q0-1.27-1.49-1.27Z"/><path class="cls-2" d="M172.47,71.71a6,6,0,0,0,.17,1.63,3.75,3.75,0,0,0,.54,1.1h-9a3.37,3.37,0,0,0,.51-1.07,6.41,6.41,0,0,0,.17-1.66V60.61h-2.82v-3.5l8.37-2.51h2Z"/></svg>