<svg id="Layer_1" data-name="Layer 1" xmlns="http://www.w3.org/2000/svg" viewBox="0 0 250.93 88.19"><defs><style>.cls-1{fill:#231f20;}.cls-2{fill:#ffc418;}.cls-3{fill:none;stroke:#231f20;}</style></defs><title>CA-100</title><path class="cls-1" d="M5.4,55.53a171.41,171.41,0,0,1,121-50.13A167.4,167.4,0,0,1,245.53,54.93L221,82.78H29.31Z"/><path class="cls-2" d="M5.4,55.53a171.41,171.41,0,0,1,121-50.13A167.4,167.4,0,0,1,245.53,54.92L221,82.78H29.31ZM92.56,3.29a177,177,0,0,0-91,48.41,5.4,5.4,0,0,0-.25,7.39L25.25,86.35a5.4,5.4,0,0,0,4.06,1.84H221a5.39,5.39,0,0,0,4.05-1.83l24.52-27.86a5.39,5.39,0,0,0-.24-7.38A172.77,172.77,0,0,0,126.45,0,176.66,176.66,0,0,0,92.56,3.29"/><path class="cls-3" d="M5.4,55.53a171.42,171.42,0,0,1,121-50.13A167.4,167.4,0,0,1,245.53,54.93"/><path class="cls-2" d="M24,62.2l-1.48-1.62a5.2,5.2,0,0,0-.71-.68,2.92,2.92,0,0,0-.62-.34l3.15-2.87a2.68,2.68,0,0,0,.29.65,5.16,5.16,0,0,0,.6.77l4.24,4.66a5.22,5.22,0,0,0,.71.68,3,3,0,0,0,.62.34l-3.15,2.87a2.7,2.7,0,0,0-.29-.65,5.12,5.12,0,0,0-.6-.77l-1.7-1.86-2,1.84,1.7,1.86a5.17,5.17,0,0,0,.71.68,2.92,2.92,0,0,0,.62.34L22.94,71a2.7,2.7,0,0,0-.29-.65,5.18,5.18,0,0,0-.6-.77L17.8,64.89a5.17,5.17,0,0,0-.71-.68,2.92,2.92,0,0,0-.62-.34L19.62,61a2.68,2.68,0,0,0,.29.65,5.13,5.13,0,0,0,.6.77L22,64Z"/><path class="cls-2" d="M32.89,50l3.91-3a2.9,2.9,0,0,0,.21.67,4.61,4.61,0,0,0,.53.84l3.81,5a5.17,5.17,0,0,0,.65.75,2.65,2.65,0,0,0,.6.38l-3.4,2.59a2.69,2.69,0,0,0-.23-.67,5.19,5.19,0,0,0-.53-.82l-3.58-4.7,2.44,7.64-2,1.53L28.61,55.7l3.55,4.72a6.54,6.54,0,0,0,.72.85,1.82,1.82,0,0,0,.62.33L31.66,63a1.79,1.79,0,0,0-.14-.68,6.45,6.45,0,0,0-.62-.91l-3.72-4.9a6.42,6.42,0,0,0-.71-.83,1.8,1.8,0,0,0-.62-.32l4-3,4.75,3.22Z"/><path class="cls-2" d="M47.39,42.64a4.42,4.42,0,0,0-.73.14,2.9,2.9,0,0,0-.72.34l-2.88,1.82a1.38,1.38,0,0,0-.44.37c0,.09,0,.21.07.36l.29.46c.1.15.2.23.3.22a1.37,1.37,0,0,0,.52-.24L46,44.73a3,3,0,0,1,1.77-.59,1.75,1.75,0,0,1,1.29.94l1.25,2a2.63,2.63,0,0,1,.52,1.77,2.3,2.3,0,0,1-1.2,1.44L44,53.8l-1.26-1.4a4.92,4.92,0,0,0,.66-.19,3.64,3.64,0,0,0,.7-.36l3-1.89a1.33,1.33,0,0,0,.43-.36c0-.09,0-.21-.07-.36l-.35-.56c-.09-.14-.19-.21-.29-.21a1.21,1.21,0,0,0-.51.23l-2.52,1.59a2.2,2.2,0,0,1-1.57.46A2.3,2.3,0,0,1,41,49.61L39.84,47.8a2.45,2.45,0,0,1-.46-1.71,1.91,1.91,0,0,1,1-1.3l5.74-3.63Z"/><path class="cls-2" d="M60.94,42.21a5.26,5.26,0,0,0,.49.86,2.94,2.94,0,0,0,.5.5l-3.84,1.84a2.69,2.69,0,0,0-.09-.71,5.13,5.13,0,0,0-.35-.91l-2.72-5.68a4.63,4.63,0,0,0-.51-.87,1.75,1.75,0,0,0-.56-.45l7.09-3.4a2.88,2.88,0,0,1,1.85-.35q.77.17,1.36,1.4l.65,1.35A2.28,2.28,0,0,1,65,37.74,2.87,2.87,0,0,1,63.61,39l-3.44,1.65Zm-1.45-3,1.73-.83c.24-.12.38-.24.41-.37a1.17,1.17,0,0,0-.17-.66l-.58-1.22a1.17,1.17,0,0,0-.4-.55.67.67,0,0,0-.55.09l-1.73.83Z"/><path class="cls-2" d="M70.5,35.23l.91,2.35a5.13,5.13,0,0,0,.42.89,2.93,2.93,0,0,0,.46.54l-4,1.53a2.69,2.69,0,0,0,0-.71A5.15,5.15,0,0,0,68,38.9L65.73,33a4.62,4.62,0,0,0-.44-.91,1.73,1.73,0,0,0-.52-.49l7.36-2.84a3,3,0,0,1,1.94-.24,2,2,0,0,1,1.14,1.32l.64,1.65a1.56,1.56,0,0,1,.1,1.3,1.75,1.75,0,0,1-.92.67l2.19,2.05.67.63a3,3,0,0,0,.6.45l-3.82,1.47-3.12-3.26Zm-.57-1.48L71.86,33a.82.82,0,0,0,.41-.26.57.57,0,0,0,0-.46l-.42-1.09q-.12-.31-.27-.36a.78.78,0,0,0-.49.08l-1.93.74Z"/><path class="cls-2" d="M79.69,36.31a2.65,2.65,0,0,0,0-.71,5.09,5.09,0,0,0-.22-1l-1.9-6a5.18,5.18,0,0,0-.36-.92,3,3,0,0,0-.42-.57l4.06-1.29a2.65,2.65,0,0,0,0,.71,5.09,5.09,0,0,0,.22,1l1.9,6a5.22,5.22,0,0,0,.36.92,2.94,2.94,0,0,0,.42.57Z"/><path class="cls-2" d="M85.14,26.33l1.48,6a6.42,6.42,0,0,0,.32,1,1.78,1.78,0,0,0,.44.54l-2.24.56a1.79,1.79,0,0,0,.14-.68,6.39,6.39,0,0,0-.21-1.08l-1.49-6a6.5,6.5,0,0,0-.32-1,1.79,1.79,0,0,0-.44-.54l5-1.25,5.68,6.65-1.43-5.93a6.43,6.43,0,0,0-.32-1,1.79,1.79,0,0,0-.44-.54l2.24-.56a1.77,1.77,0,0,0-.14.68,6.34,6.34,0,0,0,.21,1.08l1.91,7.64-4.6,1.15Z"/><path class="cls-2" d="M104.21,22.66a4.28,4.28,0,0,0-.7-.15,2.89,2.89,0,0,0-.81,0l-2.59.45q-.71.12-.61.73l.88,5.12q.1.61.81.48l2-.35a9.33,9.33,0,0,0,1.38-.31,3.25,3.25,0,0,0,.73-.42l0,2-5.83,1a2.38,2.38,0,0,1-1.91-.33,3.14,3.14,0,0,1-1-2L96,25a3.14,3.14,0,0,1,.23-2.23,2.35,2.35,0,0,1,1.68-1l5.68-1Z"/><path class="cls-2" d="M113.49,27.73a5.7,5.7,0,0,0,.89-.15,5.43,5.43,0,0,0,.72-.28L115,29.18l-8.41.89a2.64,2.64,0,0,0,.15-.69,5.14,5.14,0,0,0,0-1L106,22.13a5.36,5.36,0,0,0-.17-1,3,3,0,0,0-.3-.64l8.26-.87.5,1.91a6.69,6.69,0,0,0-.76-.18,3.47,3.47,0,0,0-.94,0l-3,.31.24,2.24,2.6-.27a5.49,5.49,0,0,0,.87-.14,7,7,0,0,0,.75-.28l.22,2.09q-.35-.07-.74-.1a4.89,4.89,0,0,0-.93,0l-2.6.27.27,2.57Z"/><path class="cls-2" d="M125.16,21.09a4.47,4.47,0,0,0-.7-.24,2.91,2.91,0,0,0-.8-.07l-3.4.12a1.37,1.37,0,0,0-.57.1c-.09.05-.13.17-.12.35l0,.54c0,.18.06.29.15.34a1.39,1.39,0,0,0,.57.05l2.59-.1a3,3,0,0,1,1.82.38,1.75,1.75,0,0,1,.65,1.46l.09,2.34a2.62,2.62,0,0,1-.45,1.79,2.29,2.29,0,0,1-1.76.64l-6.6.24-.38-1.85a5,5,0,0,0,.67.17,3.71,3.71,0,0,0,.78,0l3.54-.13a1.31,1.31,0,0,0,.55-.09c.09-.05.13-.17.12-.35l0-.66a.36.36,0,0,0-.15-.33,1.22,1.22,0,0,0-.56-.06l-3,.11a2.2,2.2,0,0,1-1.59-.39,2.3,2.3,0,0,1-.51-1.62L116,21.76A2.46,2.46,0,0,1,116.5,20,1.91,1.91,0,0,1,118,19.4l6.79-.25Z"/><path class="cls-2" d="M136.48,21.41a4.57,4.57,0,0,0-.68-.29A2.93,2.93,0,0,0,135,21l-3.4-.12a1.39,1.39,0,0,0-.57.05c-.09,0-.14.16-.15.34l0,.54c0,.18,0,.3.12.35a1.37,1.37,0,0,0,.57.09l2.59.09a3,3,0,0,1,1.79.51,1.75,1.75,0,0,1,.54,1.5l-.08,2.34a2.62,2.62,0,0,1-.57,1.76A2.29,2.29,0,0,1,134,29l-6.6-.24-.25-1.87a5,5,0,0,0,.65.22,3.64,3.64,0,0,0,.78.1l3.54.13a1.33,1.33,0,0,0,.56-.05c.09,0,.14-.16.15-.34l0-.66a.37.37,0,0,0-.12-.34,1.21,1.21,0,0,0-.55-.1l-3-.11a2.19,2.19,0,0,1-1.56-.51,2.3,2.3,0,0,1-.39-1.65l.08-2.14a2.46,2.46,0,0,1,.58-1.67,1.91,1.91,0,0,1,1.52-.53l6.79.24Z"/><path class="cls-2" d="M154.08,23.59a4.42,4.42,0,0,0-.64-.37,2.91,2.91,0,0,0-.77-.21l-3.37-.51a1.37,1.37,0,0,0-.58,0c-.1,0-.16.14-.19.32l-.08.53c0,.18,0,.3.08.36a1.39,1.39,0,0,0,.55.16l2.57.39a3,3,0,0,1,1.72.72,1.75,1.75,0,0,1,.36,1.56l-.35,2.31a2.62,2.62,0,0,1-.77,1.68,2.29,2.29,0,0,1-1.85.3l-6.52-1,0-1.89a4.8,4.8,0,0,0,.62.29,3.57,3.57,0,0,0,.76.19l3.5.54a1.33,1.33,0,0,0,.56,0c.1,0,.16-.14.19-.32l.1-.65a.37.37,0,0,0-.08-.35,1.23,1.23,0,0,0-.54-.17l-3-.45a2.19,2.19,0,0,1-1.49-.68,2.3,2.3,0,0,1-.2-1.68l.32-2.12a2.46,2.46,0,0,1,.78-1.6,1.91,1.91,0,0,1,1.57-.35l6.72,1Z"/><path class="cls-2" d="M157.41,29.45l-.93,1.14a1.26,1.26,0,0,0-.26.52,1.28,1.28,0,0,0,0,.34,2.18,2.18,0,0,0,.09.38l-2.64-.62q.55-.44.83-.71a7.09,7.09,0,0,0,.63-.73l5.09-6.32-.28-.62,4.22,1,1.42,8.84a4.52,4.52,0,0,0,.51,1.48L161.36,33a2.23,2.23,0,0,0,.25-.32.89.89,0,0,0,.1-.25,1.81,1.81,0,0,0,0-.73l-.23-1.32Zm3.85-.72-.58-3.48-2.18,2.82Z"/><path class="cls-2" d="M177.85,28l4.65,1.58a2.93,2.93,0,0,0-.43.55,4.61,4.61,0,0,0-.4.91l-2,6a5.19,5.19,0,0,0-.25,1,2.64,2.64,0,0,0,0,.71l-4-1.37a2.71,2.71,0,0,0,.43-.57,5.15,5.15,0,0,0,.38-.9l1.9-5.6-5,6.3-2.4-.82,0-8.07-1.93,5.58a6.62,6.62,0,0,0-.3,1.07,1.84,1.84,0,0,0,.08.7l-2.19-.74a1.79,1.79,0,0,0,.49-.5,6.37,6.37,0,0,0,.41-1l2-5.82a6.3,6.3,0,0,0,.29-1.06,1.78,1.78,0,0,0-.08-.69l4.77,1.62,0,5.74Z"/><path class="cls-2" d="M183.8,37.79l-1.13.94a1.26,1.26,0,0,0-.36.46,1.32,1.32,0,0,0-.11.32,2.09,2.09,0,0,0,0,.4l-2.48-1.11q.62-.33,1-.54a7.19,7.19,0,0,0,.76-.6l6.19-5.24-.16-.67,4,1.78-.28,9a4.48,4.48,0,0,0,.22,1.55l-4.39-2a2.19,2.19,0,0,0,.3-.27.88.88,0,0,0,.15-.22,1.81,1.81,0,0,0,.17-.71l0-1.34Zm3.92,0,.08-3.52-2.67,2.36Z"/><path class="cls-2" d="M197.29,38.24l-3.05,5.42a6.49,6.49,0,0,0-.48,1,1.77,1.77,0,0,0,0,.7l-2-1.12a1.8,1.8,0,0,0,.57-.4,6.47,6.47,0,0,0,.58-.93l3-5.37a6.43,6.43,0,0,0,.48-1,1.81,1.81,0,0,0,0-.7l4.5,2.5-.4,8.74,3-5.31a6.47,6.47,0,0,0,.48-1,1.81,1.81,0,0,0,0-.7l2,1.12a1.77,1.77,0,0,0-.57.4,6.38,6.38,0,0,0-.58.93L201,49.42l-4.14-2.3Z"/><path class="cls-2" d="M215,47.14l-.82,1.79a3.06,3.06,0,0,0-.36-.56,2.64,2.64,0,0,0-.58-.49L211.89,47l-3.51,5.31a5.19,5.19,0,0,0-.49.86,2.91,2.91,0,0,0-.17.68l-3.55-2.35a2.69,2.69,0,0,0,.56-.44,5.24,5.24,0,0,0,.6-.77l3.51-5.31L207.45,44a2.48,2.48,0,0,0-.67-.34,3.34,3.34,0,0,0-.69-.09l1.34-1.49Z"/><path class="cls-2" d="M219.4,55.25l1.34-1.73a5.23,5.23,0,0,0,.55-.82,2.92,2.92,0,0,0,.22-.67l3.37,2.61a2.69,2.69,0,0,0-.59.4,5.11,5.11,0,0,0-.66.73l-3.85,5a5.18,5.18,0,0,0-.55.82,3,3,0,0,0-.22.67l-3.37-2.61a2.68,2.68,0,0,0,.59-.4,5.17,5.17,0,0,0,.66-.73l1.54-2-2.16-1.67-1.54,2a5.37,5.37,0,0,0-.55.82,2.93,2.93,0,0,0-.22.67l-3.37-2.61a2.71,2.71,0,0,0,.59-.4,5.17,5.17,0,0,0,.66-.73l3.85-5a5.27,5.27,0,0,0,.55-.82,3,3,0,0,0,.22-.67l3.37,2.61a2.67,2.67,0,0,0-.59.4,5.22,5.22,0,0,0-.66.73l-1.34,1.73Z"/><path class="cls-2" d="M223.53,62.79l-1.37.54a1.26,1.26,0,0,0-.48.33,1.32,1.32,0,0,0-.21.27,2,2,0,0,0-.1.38l-2-1.83q.69-.12,1.07-.22a7.14,7.14,0,0,0,.91-.33l7.52-3,.05-.68,3.2,2.92-3.06,8.42a4.52,4.52,0,0,0-.27,1.54l-3.55-3.25a2.28,2.28,0,0,0,.37-.16.88.88,0,0,0,.21-.16,1.81,1.81,0,0,0,.39-.62l.44-1.26ZM227.25,64l1.18-3.32-3.27,1.41Z"/><path class="cls-2" d="M85.77,58.63a8.67,8.67,0,0,0-1.38-.55,5.92,5.92,0,0,0-1.66-.2H77.3q-1.49,0-1.49,1.27V69.88q0,1.27,1.49,1.27h4.28A18.85,18.85,0,0,0,84.5,71a6.6,6.6,0,0,0,1.64-.6l-.65,4H73.27a4.9,4.9,0,0,1-3.77-1.35q-1.26-1.35-1.25-4.48V60.43q0-3.1,1.25-4.46a4.87,4.87,0,0,1,3.77-1.36h11.9Z"/><path class="cls-2" d="M92.65,69.11l-1.33,2.73A2.59,2.59,0,0,0,91,73a2.7,2.7,0,0,0,.06.7,4.34,4.34,0,0,0,.37.73H85.86q.9-1.15,1.33-1.83a14.77,14.77,0,0,0,.93-1.77l7.22-15.13-.87-1.12h9l7.07,17.11a9.31,9.31,0,0,0,1.74,2.73h-10a4.7,4.7,0,0,0,.34-.76,1.79,1.79,0,0,0,.09-.54,3.75,3.75,0,0,0-.28-1.49l-1.08-2.54Zm7.41-3.29-2.83-6.71-3,6.71Z"/><path class="cls-2" d="M112.83,64.55h10.91v5.21H112.83Z"/><path class="cls-2" d="M136.3,71.71a6,6,0,0,0,.17,1.63,3.75,3.75,0,0,0,.54,1.1h-9a3.28,3.28,0,0,0,.51-1.07,6.41,6.41,0,0,0,.17-1.66V60.61h-2.82v-3.5l8.37-2.51h2Z"/><path class="cls-2" d="M157.53,54.6a4.9,4.9,0,0,1,3.77,1.35q1.26,1.35,1.26,4.48v8.18q0,3.1-1.26,4.46a4.87,4.87,0,0,1-3.77,1.36H146.18a4.9,4.9,0,0,1-3.77-1.35q-1.26-1.35-1.26-4.48V60.43q0-3.1,1.26-4.46a4.87,4.87,0,0,1,3.77-1.36Zm-7.32,3.29q-1.49,0-1.49,1.27V69.88q0,1.27,1.49,1.27h3.29q1.49,0,1.49-1.27V59.16q0-1.27-1.49-1.27Z"/><path class="cls-2" d="M181.65,54.6a4.9,4.9,0,0,1,3.77,1.35q1.26,1.35,1.26,4.48v8.18q0,3.1-1.26,4.46a4.87,4.87,0,0,1-3.77,1.36H170.3a4.9,4.9,0,0,1-3.77-1.35q-1.26-1.35-1.26-4.48V60.43q0-3.1,1.26-4.46a4.87,4.87,0,0,1,3.77-1.36Zm-7.32,3.29q-1.49,0-1.49,1.27V69.88q0,1.27,1.49,1.27h3.29q1.49,0,1.49-1.27V59.16q0-1.27-1.49-1.27Z"/></svg>