<svg id="Layer_1" data-name="Layer 1" xmlns="http://www.w3.org/2000/svg" viewBox="0 0 250.93 88.19"><defs><style>.cls-1{fill:#ffc418;}.cls-2{fill:none;stroke:#231f20;}</style></defs><title>CA-272</title><path d="M5.4,55.53a171.41,171.41,0,0,1,121-50.13A167.4,167.4,0,0,1,245.53,54.93L221,82.78H29.31Z"/><path class="cls-1" d="M5.4,55.53a171.41,171.41,0,0,1,121-50.13A167.4,167.4,0,0,1,245.53,54.92L221,82.78H29.31ZM92.56,3.29a177,177,0,0,0-91,48.41,5.4,5.4,0,0,0-.25,7.39L25.25,86.35a5.4,5.4,0,0,0,4.06,1.84H221a5.39,5.39,0,0,0,4.05-1.83l24.52-27.86a5.39,5.39,0,0,0-.24-7.38A172.77,172.77,0,0,0,126.45,0,176.66,176.66,0,0,0,92.56,3.29"/><path class="cls-2" d="M5.4,55.53a171.42,171.42,0,0,1,121-50.13A167.4,167.4,0,0,1,245.53,54.93"/><path class="cls-1" d="M29.11,53.37,26.9,50.65a8.33,8.33,0,0,0-1.08-1.15,4.74,4.74,0,0,0-1-.59l5.29-4.3a4.26,4.26,0,0,0,.4,1.06A8.2,8.2,0,0,0,31.44,47l6.36,7.82a8.33,8.33,0,0,0,1.08,1.15,4.69,4.69,0,0,0,1,.59l-5.29,4.3a4.29,4.29,0,0,0-.4-1.06,8.26,8.26,0,0,0-.89-1.29l-2.55-3.13L27.33,58.1l2.55,3.13A8.41,8.41,0,0,0,31,62.38a4.74,4.74,0,0,0,1,.59l-5.29,4.3a4.31,4.31,0,0,0-.4-1.06,8.17,8.17,0,0,0-.89-1.29L19,57.11A8.38,8.38,0,0,0,17.89,56a4.74,4.74,0,0,0-1-.59l5.29-4.3a4.3,4.3,0,0,0,.4,1.07,8.25,8.25,0,0,0,.89,1.29l2.21,2.72Z"/><path class="cls-1" d="M45.31,35l6.73-4a4.69,4.69,0,0,0,.23,1.1,7.43,7.43,0,0,0,.7,1.43l5.19,8.64a8.3,8.3,0,0,0,.91,1.3,4.22,4.22,0,0,0,.88.7l-5.86,3.52a4.29,4.29,0,0,0-.25-1.11,8.27,8.27,0,0,0-.7-1.4L48.27,37l2.55,12.58-3.48,2.09L37.5,43.3l4.82,8.12a10.5,10.5,0,0,0,1,1.47,2.91,2.91,0,0,0,.94.63l-3.17,1.9A2.86,2.86,0,0,0,41,54.31a10.32,10.32,0,0,0-.82-1.55l-5.07-8.44a10.26,10.26,0,0,0-1-1.45,2.86,2.86,0,0,0-.93-.62l6.91-4.15,7,6Z"/><path class="cls-1" d="M70.39,26.46a7.12,7.12,0,0,0-1.18,0,4.65,4.65,0,0,0-1.23.36L63,29a2.2,2.2,0,0,0-.79.47q-.15.19,0,.59l.34.79c.11.26.25.41.42.42a2.19,2.19,0,0,0,.89-.25l3.82-1.63a4.77,4.77,0,0,1,2.94-.47,2.8,2.8,0,0,1,1.8,1.81l1.47,3.44a4.21,4.21,0,0,1,.36,2.94,3.67,3.67,0,0,1-2.27,2l-9.71,4.14L60.62,40.7a7.8,7.8,0,0,0,1.09-.12,5.82,5.82,0,0,0,1.19-.38L68.12,38a2.14,2.14,0,0,0,.77-.46c.1-.13.09-.33,0-.59l-.41-1q-.16-.37-.41-.41a2,2,0,0,0-.87.23l-4.39,1.87a3.51,3.51,0,0,1-2.6.33,3.68,3.68,0,0,1-1.69-2.12l-1.35-3.16a3.93,3.93,0,0,1-.29-2.82,3.06,3.06,0,0,1,1.84-1.8l10-4.26Z"/><path class="cls-1" d="M89.48,29.11l-.57,2.28a2,2,0,0,0,0,.94,2.05,2.05,0,0,0,.16.52,3.27,3.27,0,0,0,.4.49l-4.25.91q.5-1,.71-1.6a11.42,11.42,0,0,0,.42-1.49l3-12.62-.84-.7,6.78-1.46,8.13,11.8A7.2,7.2,0,0,0,105.18,30l-7.53,1.62a3.63,3.63,0,0,0,.13-.63,1.37,1.37,0,0,0,0-.43,2.89,2.89,0,0,0-.45-1.08l-1.23-1.75Zm5.07-3.69-3.23-4.62-1.21,5.57Z"/><path class="cls-1" d="M116.94,26.47a7.35,7.35,0,0,0,1.52-.28,3.14,3.14,0,0,0,.94-.46l-.21,3.08L106,30.07a4.29,4.29,0,0,0,.26-1.11,8.21,8.21,0,0,0,0-1.56l-1-10A8.33,8.33,0,0,0,105,15.8a4.76,4.76,0,0,0-.47-1l6.79-.65a4.26,4.26,0,0,0-.26,1.11,8.21,8.21,0,0,0,0,1.56l1,10.13Z"/><path class="cls-1" d="M134.47,16.62a6.69,6.69,0,0,0-1.06-.43,4.58,4.58,0,0,0-1.28-.16l-4.2,0q-1.15,0-1.16,1l-.06,8.3q0,1,1.14,1l3.31,0a14.81,14.81,0,0,0,2.26-.09,5.13,5.13,0,0,0,1.28-.46l-.53,3.12-9.45-.07a3.8,3.8,0,0,1-2.91-1.07,5,5,0,0,1-.95-3.48l0-6.34a5,5,0,0,1,1-3.45,3.78,3.78,0,0,1,2.92-1l9.21.07Z"/><path class="cls-1" d="M147.59,21l.43-3.48a8.37,8.37,0,0,0,.08-1.57,4.73,4.73,0,0,0-.24-1.11l6.76.83a4.26,4.26,0,0,0-.49,1,8.19,8.19,0,0,0-.31,1.53l-1.23,10a8.37,8.37,0,0,0-.08,1.57,4.7,4.7,0,0,0,.24,1.11L146,30.1a4.29,4.29,0,0,0,.49-1,8.31,8.31,0,0,0,.31-1.53l.49-4L142.95,23l-.49,4a8.37,8.37,0,0,0-.08,1.57,4.71,4.71,0,0,0,.24,1.11l-6.76-.83a4.26,4.26,0,0,0,.49-1,8.17,8.17,0,0,0,.31-1.53l1.23-10a8.29,8.29,0,0,0,.08-1.57,4.71,4.71,0,0,0-.24-1.11l6.76.83a4.28,4.28,0,0,0-.49,1,8.26,8.26,0,0,0-.31,1.53l-.43,3.48Z"/><path class="cls-1" d="M166.16,31.61a9.06,9.06,0,0,0,1.42.26,8.72,8.72,0,0,0,1.24,0l-1.22,2.74-13.15-3.23a4.29,4.29,0,0,0,.61-1,8.2,8.2,0,0,0,.49-1.49l2.4-9.79a8.3,8.3,0,0,0,.27-1.55,4.76,4.76,0,0,0-.11-1.13L171,19.61l-.28,3.14a11.09,11.09,0,0,0-1-.68,5.59,5.59,0,0,0-1.41-.52l-4.64-1.14-.86,3.5,4.06,1a8.58,8.58,0,0,0,1.38.25,10.65,10.65,0,0,0,1.28,0l-.8,3.26a11.87,11.87,0,0,0-1.06-.56,7.83,7.83,0,0,0-1.41-.47l-4.05-1-1,4Z"/><path class="cls-1" d="M188,25.72l7.3,2.88a4.72,4.72,0,0,0-.73.85,7.42,7.42,0,0,0-.71,1.42l-3.7,9.37a8.41,8.41,0,0,0-.48,1.51,4.21,4.21,0,0,0,0,1.13l-6.36-2.51a4.3,4.3,0,0,0,.73-.87,8.14,8.14,0,0,0,.68-1.41l3.47-8.79L179.79,39,176,37.48l.66-12.9-3.52,8.77A10.55,10.55,0,0,0,172.6,35a2.91,2.91,0,0,0,.07,1.13l-3.44-1.36a2.87,2.87,0,0,0,.82-.76,10.34,10.34,0,0,0,.73-1.59l3.62-9.15a10.33,10.33,0,0,0,.55-1.67,2.86,2.86,0,0,0-.08-1.11l7.5,3-.48,9.17Z"/><path class="cls-1" d="M191.49,44.2a4.32,4.32,0,0,0,.83-.78,8.3,8.3,0,0,0,.84-1.32l4.76-8.89a8.28,8.28,0,0,0,.65-1.44,4.8,4.8,0,0,0,.18-1.12l6,3.22a4.26,4.26,0,0,0-.83.78,8.29,8.29,0,0,0-.84,1.32l-4.76,8.89a8.37,8.37,0,0,0-.65,1.44,4.7,4.7,0,0,0-.18,1.12Z"/><path class="cls-1" d="M218.75,46.43a7.11,7.11,0,0,0-.69-1,4.66,4.66,0,0,0-1-.83l-4.54-3a2.21,2.21,0,0,0-.83-.4c-.17,0-.33.1-.49.34l-.48.72c-.16.24-.2.43-.12.58a2.21,2.21,0,0,0,.69.6l3.46,2.29a4.76,4.76,0,0,1,2,2.2,2.8,2.8,0,0,1-.52,2.5l-2.07,3.12A4.21,4.21,0,0,1,212,55.51a3.67,3.67,0,0,1-2.89-.8l-8.81-5.82,1.22-2.76a7.79,7.79,0,0,0,.71.85,5.87,5.87,0,0,0,1,.79l4.72,3.12a2.12,2.12,0,0,0,.81.39c.16,0,.33-.1.48-.34l.58-.88a.59.59,0,0,0,.12-.57,2,2,0,0,0-.67-.6l-4-2.63a3.51,3.51,0,0,1-1.71-2,3.68,3.68,0,0,1,.84-2.58l1.89-2.86a3.93,3.93,0,0,1,2.2-1.8,3.06,3.06,0,0,1,2.52.54l9.07,6Z"/><path class="cls-1" d="M234.55,55.32,232.92,58a4.85,4.85,0,0,0-.47-1,4.22,4.22,0,0,0-.84-.89l-2-1.71L223,62.29a8.29,8.29,0,0,0-.92,1.28,4.66,4.66,0,0,0-.4,1.06l-5.23-4.37a4.3,4.3,0,0,0,1-.6,8.27,8.27,0,0,0,1.09-1.12l6.52-7.81L223,49a4,4,0,0,0-1-.66,5.36,5.36,0,0,0-1.08-.26l2.4-2.12Z"/><path class="cls-1" d="M83.75,58.63a8.67,8.67,0,0,0-1.38-.55,5.93,5.93,0,0,0-1.66-.2H75.29q-1.49,0-1.49,1.27V69.88q0,1.27,1.49,1.27h4.28A18.86,18.86,0,0,0,82.48,71a6.61,6.61,0,0,0,1.64-.6l-.65,4H71.26a4.91,4.91,0,0,1-3.77-1.35q-1.25-1.35-1.25-4.48V60.43q0-3.1,1.25-4.46a4.88,4.88,0,0,1,3.77-1.36h11.9Z"/><path class="cls-1" d="M90.63,69.11,89.3,71.84A2.59,2.59,0,0,0,89,73a2.7,2.7,0,0,0,.06.7,4.34,4.34,0,0,0,.37.73H83.84q.9-1.15,1.33-1.83a14.77,14.77,0,0,0,.93-1.77l7.22-15.13-.87-1.12h9l7.07,17.11a9.31,9.31,0,0,0,1.74,2.73h-10a4.7,4.7,0,0,0,.34-.76,1.79,1.79,0,0,0,.09-.54,3.75,3.75,0,0,0-.28-1.49l-1.08-2.54ZM98,65.82l-2.83-6.71-3,6.71Z"/><path class="cls-1" d="M110.81,64.55h10.91v5.21H110.81Z"/><path class="cls-1" d="M140.63,71.15a9.41,9.41,0,0,0,2-.16,19,19,0,0,0,2.11-.71L144,74.44H124.11V65.61a4.68,4.68,0,0,1,.88-3.3,4.09,4.09,0,0,1,3-.88L136,61a1.32,1.32,0,0,0,.93-.25,1.16,1.16,0,0,0,.25-.84V58.82a.8.8,0,0,0-.33-.7,2,2,0,0,0-1.13-.23h-8.68a6.47,6.47,0,0,0-3.1.71l.65-4h14.63q3.13,0,4.2,1.1a4.76,4.76,0,0,1,1.07,3.42v4a4,4,0,0,1-1,3.08,5.32,5.32,0,0,1-3.46.85l-7.5.37q-.62,0-.76.45a2.86,2.86,0,0,0-.14.85v2.45Z"/><path class="cls-1" d="M149.53,58a8.59,8.59,0,0,0-1.69.11,11.52,11.52,0,0,0-1.53.57l.62-4.06H166.4l.19,3.35a42.79,42.79,0,0,0-6,8.08,27.16,27.16,0,0,0-3.26,8.42h-8.55a25.08,25.08,0,0,1,2.74-6.29,61.21,61.21,0,0,1,4.19-6.26A50.46,50.46,0,0,1,158.89,58Z"/><path class="cls-1" d="M184.84,71.15a9.41,9.41,0,0,0,2-.16,19,19,0,0,0,2.11-.71l-.71,4.15H168.32V65.61a4.68,4.68,0,0,1,.88-3.3,4.09,4.09,0,0,1,3-.88l8.06-.43a1.32,1.32,0,0,0,.93-.25,1.16,1.16,0,0,0,.25-.84V58.82a.8.8,0,0,0-.33-.7,2,2,0,0,0-1.13-.23h-8.68a6.47,6.47,0,0,0-3.1.71l.65-4h14.63q3.13,0,4.2,1.1a4.76,4.76,0,0,1,1.07,3.42v4a4,4,0,0,1-1,3.08,5.32,5.32,0,0,1-3.46.85l-7.5.37q-.62,0-.76.45a2.86,2.86,0,0,0-.14.85v2.45Z"/></svg>