<svg id="Layer_1" data-name="Layer 1" xmlns="http://www.w3.org/2000/svg" viewBox="0 0 250.93 88.19"><defs><style>.cls-1{fill:#ffc418;}.cls-2{fill:none;stroke:#231f20;}</style></defs><title>CA-417</title><path d="M5.4,55.53a171.41,171.41,0,0,1,121-50.13A167.4,167.4,0,0,1,245.53,54.93L221,82.78H29.31Z"/><path class="cls-1" d="M5.4,55.53a171.41,171.41,0,0,1,121-50.13A167.4,167.4,0,0,1,245.53,54.92L221,82.78H29.31ZM92.56,3.29a177,177,0,0,0-91,48.41,5.4,5.4,0,0,0-.25,7.39L25.25,86.35a5.4,5.4,0,0,0,4.06,1.84H221a5.39,5.39,0,0,0,4.05-1.83l24.52-27.86a5.39,5.39,0,0,0-.24-7.38A172.77,172.77,0,0,0,126.45,0,176.66,176.66,0,0,0,92.56,3.29"/><path class="cls-2" d="M5.4,55.53a171.42,171.42,0,0,1,121-50.13A167.4,167.4,0,0,1,245.53,54.93"/><path class="cls-1" d="M34.66,49.17l-2.09-2.81a8.33,8.33,0,0,0-1-1.2,4.73,4.73,0,0,0-.94-.63l5.47-4.07a4.27,4.27,0,0,0,.36,1.08,8.24,8.24,0,0,0,.83,1.32l6,8.09a8.31,8.31,0,0,0,1,1.2,4.72,4.72,0,0,0,.94.64l-5.47,4.07a4.32,4.32,0,0,0-.36-1.08,8.25,8.25,0,0,0-.83-1.32l-2.41-3.24-3.5,2.61,2.41,3.24a8.34,8.34,0,0,0,1,1.2,4.73,4.73,0,0,0,.94.64L31.57,63a4.3,4.3,0,0,0-.36-1.08,8.25,8.25,0,0,0-.83-1.32l-6-8.09a8.33,8.33,0,0,0-1-1.2,4.71,4.71,0,0,0-.94-.63l5.47-4.07a4.28,4.28,0,0,0,.36,1.08A8.21,8.21,0,0,0,29.07,49l2.09,2.81Z"/><path class="cls-1" d="M50.52,32.1l6.87-3.79a4.69,4.69,0,0,0,.19,1.1,7.41,7.41,0,0,0,.65,1.45l4.87,8.83A8.27,8.27,0,0,0,64,41a4.2,4.2,0,0,0,.86.73l-6,3.31a4.31,4.31,0,0,0-.21-1.12A8.23,8.23,0,0,0,58,42.51L53.4,34.23,55.49,46.9l-3.55,2-9.53-8.72,4.52,8.29a10.44,10.44,0,0,0,.94,1.51,2.89,2.89,0,0,0,.91.66l-3.24,1.79a2.86,2.86,0,0,0-.07-1.11,10.25,10.25,0,0,0-.76-1.58L40,41.08A10.32,10.32,0,0,0,39,39.59a2.86,2.86,0,0,0-.91-.65L45.18,35,52,41.25Z"/><path class="cls-1" d="M74.72,24.92a7.19,7.19,0,0,0-1.18,0,4.66,4.66,0,0,0-1.24.32l-5.07,2a2.22,2.22,0,0,0-.8.44q-.16.19,0,.59l.32.8q.16.4.4.43a2.21,2.21,0,0,0,.89-.22l3.87-1.52a4.76,4.76,0,0,1,3-.39,2.79,2.79,0,0,1,1.75,1.87L78,32.74a4.21,4.21,0,0,1,.28,2.95,3.67,3.67,0,0,1-2.32,1.9L66.1,41.45l-1.56-2.59a7.91,7.91,0,0,0,1.1-.09,5.85,5.85,0,0,0,1.2-.35l5.27-2.07a2.12,2.12,0,0,0,.78-.44c.11-.13.1-.33,0-.59l-.39-1q-.15-.38-.4-.42a2,2,0,0,0-.87.2l-4.45,1.74a3.51,3.51,0,0,1-2.61.25,3.69,3.69,0,0,1-1.63-2.17l-1.25-3.2a3.93,3.93,0,0,1-.21-2.83A3.06,3.06,0,0,1,63,26.17l10.12-4Z"/><path class="cls-1" d="M100.32,18.51a7.14,7.14,0,0,0-1.17-.19,4.68,4.68,0,0,0-1.28.11l-5.33,1.12a2.2,2.2,0,0,0-.87.31c-.12.11-.16.3-.1.58l.18.84q.09.42.33.5a2.2,2.2,0,0,0,.92-.07l4.06-.86a4.77,4.77,0,0,1,3,.11,2.8,2.8,0,0,1,1.42,2.13l.77,3.66a4.2,4.2,0,0,1-.21,3,3.67,3.67,0,0,1-2.6,1.49L89.08,33.39,88,30.58a7.86,7.86,0,0,0,1.1.09,5.84,5.84,0,0,0,1.25-.14l5.54-1.17a2.12,2.12,0,0,0,.84-.3c.13-.11.16-.3.1-.58l-.22-1q-.08-.4-.32-.48a2,2,0,0,0-.9.05l-4.67,1a3.51,3.51,0,0,1-2.61-.19,3.68,3.68,0,0,1-1.24-2.41L86.13,22a3.93,3.93,0,0,1,.26-2.83,3.06,3.06,0,0,1,2.16-1.41l10.64-2.24Z"/><path class="cls-1" d="M107.45,25.76l-.83,2.2a2.32,2.32,0,0,0,0,1.46,3.38,3.38,0,0,0,.34.54l-4.33.4q.61-.95.9-1.5a11.64,11.64,0,0,0,.59-1.43l4.5-12.17-.75-.8,6.91-.63,6.66,12.69a7.18,7.18,0,0,0,1.53,2l-7.67.7a3.84,3.84,0,0,0,.21-.61,1.4,1.4,0,0,0,0-.42,2.9,2.9,0,0,0-.32-1.13l-1-1.88Zm5.48-3.06-2.65-5-1.86,5.39Z"/><path class="cls-1" d="M123.08,15.93a8.35,8.35,0,0,0-.06-1.58,4.77,4.77,0,0,0-.34-1.08l12.57.35a4.71,4.71,0,0,1,3.11.87,3,3,0,0,1,.79,2.32l0,1.7a2,2,0,0,1-.87,1.84,4.84,4.84,0,0,1-2.53.44,7.72,7.72,0,0,1,2.67.79,1.8,1.8,0,0,1,.6,1.64l-.07,2.61a3.24,3.24,0,0,1-.92,2.4,4.52,4.52,0,0,1-3.15.74l-12.57-.35a4.31,4.31,0,0,0,.39-1.07A8.23,8.23,0,0,0,122.8,26Zm5.57,10.33,3.41.09a1.3,1.3,0,0,0,.77-.13c.13-.1.2-.33.21-.7l.07-2.4a.93.93,0,0,0-.17-.7,1.24,1.24,0,0,0-.76-.19l-3.41-.09Zm.19-6.67,3.41.09a1.3,1.3,0,0,0,.77-.13q.2-.15.21-.7l.05-1.87a.93.93,0,0,0-.17-.7,1.24,1.24,0,0,0-.76-.19L128.94,16Z"/><path class="cls-1" d="M146.65,23.45l-.59,4a8.35,8.35,0,0,0-.12,1.57,4.66,4.66,0,0,0,.21,1.11l-6.74-1a4.32,4.32,0,0,0,.51-1,8.23,8.23,0,0,0,.35-1.53l1.48-10a7.35,7.35,0,0,0,.11-1.61,2.79,2.79,0,0,0-.33-1.09L154,15.76A4.88,4.88,0,0,1,156.89,17a3.19,3.19,0,0,1,.55,2.74l-.42,2.8q-.23,1.52-.89,1.89a2.81,2.81,0,0,1-1.8.21l1.43,4.58q.21.71.43,1.41a4.8,4.8,0,0,0,.48,1.1l-6.48-1-1.78-7Zm.37-2.52,3.28.49a1.3,1.3,0,0,0,.78,0c.14-.08.24-.31.29-.67l.27-1.85a.93.93,0,0,0-.09-.72,1.24,1.24,0,0,0-.74-.28l-3.28-.49Z"/><path class="cls-1" d="M168.52,32.29a9,9,0,0,0,1.41.29,8.72,8.72,0,0,0,1.24,0l-1.26,2.72-13.09-3.45a4.28,4.28,0,0,0,.62-1,8.18,8.18,0,0,0,.51-1.48l2.57-9.75a8.28,8.28,0,0,0,.3-1.55,4.72,4.72,0,0,0-.09-1.13l12.86,3.39-.33,3.14a10.85,10.85,0,0,0-1-.69,5.58,5.58,0,0,0-1.4-.54l-4.62-1.22-.92,3.48,4,1.06a8.73,8.73,0,0,0,1.38.28,10.73,10.73,0,0,0,1.28,0l-.86,3.25q-.49-.3-1.05-.57a7.75,7.75,0,0,0-1.4-.49l-4-1.06-1.05,4Z"/><path class="cls-1" d="M177.35,35.2a8.34,8.34,0,0,0-.46,1.51,4.72,4.72,0,0,0,0,1.13l-6.37-2.44a4.29,4.29,0,0,0,.72-.88,8.23,8.23,0,0,0,.67-1.41l3.6-9.41a7.4,7.4,0,0,0,.45-1.55,2.81,2.81,0,0,0-.09-1.14l11.75,4.49A4.61,4.61,0,0,1,190,27.26a3.63,3.63,0,0,1-.14,3.12L189,32.62a3.65,3.65,0,0,1-2,2.42,4.6,4.6,0,0,1-3-.31l-5.69-2.18Zm1.92-5,2.87,1.1a1.08,1.08,0,0,0,.89.07,1.87,1.87,0,0,0,.57-.92l.77-2a1.87,1.87,0,0,0,.19-1.07q-.1-.31-.71-.54L181,25.69Z"/><path class="cls-1" d="M186.51,41.8a4.35,4.35,0,0,0,.8-.81,8.29,8.29,0,0,0,.79-1.35l4.42-9.06a8.32,8.32,0,0,0,.59-1.46,4.73,4.73,0,0,0,.13-1.12l6.13,3a4.27,4.27,0,0,0-.8.81,8.15,8.15,0,0,0-.79,1.35l-4.42,9.06a8.37,8.37,0,0,0-.59,1.46,4.73,4.73,0,0,0-.13,1.12Z"/><path class="cls-1" d="M209.16,50.77q0,1.09.05,2a13.16,13.16,0,0,0,.23,1.79l-6.16-3.72.43-7.34-2,.61-1.19,2a8.4,8.4,0,0,0-.72,1.4,4.7,4.7,0,0,0-.23,1.11l-5.83-3.53a4.28,4.28,0,0,0,.87-.74,8.29,8.29,0,0,0,.91-1.27l5.21-8.63a8.42,8.42,0,0,0,.72-1.4,4.74,4.74,0,0,0,.23-1.11l5.83,3.53a4.26,4.26,0,0,0-.87.74,8.18,8.18,0,0,0-.91,1.27l-2.2,3.64,5.84-1.91a4.28,4.28,0,0,0,1-.45,1.73,1.73,0,0,0,.53-.55l.3-.49,4.54,2.74a12,12,0,0,0-1.24,0,7,7,0,0,0-1.27.24l-4,1.13Z"/><path class="cls-1" d="M219.39,59.28a9,9,0,0,0,1.19.81,8.55,8.55,0,0,0,1.15.47l-2.21,2-10.75-8.22a4.28,4.28,0,0,0,.94-.64,8.22,8.22,0,0,0,1-1.17l6.12-8a8.46,8.46,0,0,0,.87-1.31,4.77,4.77,0,0,0,.35-1.07l10.56,8.07L227.15,53a10.9,10.9,0,0,0-.69-1,5.56,5.56,0,0,0-1.08-1L221.59,48l-2.19,2.86,3.32,2.54a8.65,8.65,0,0,0,1.17.79,10.62,10.62,0,0,0,1.18.49l-2,2.67a11.93,11.93,0,0,0-.75-.94,7.85,7.85,0,0,0-1.1-1l-3.32-2.54-2.51,3.28Z"/><path class="cls-1" d="M86.93,58.63a8.67,8.67,0,0,0-1.38-.55,5.92,5.92,0,0,0-1.66-.2H78.47Q77,57.89,77,59.16V69.88q0,1.27,1.49,1.27h4.28A18.85,18.85,0,0,0,85.66,71a6.6,6.6,0,0,0,1.64-.6l-.65,4H74.44a4.9,4.9,0,0,1-3.77-1.35q-1.26-1.35-1.25-4.48V60.43q0-3.1,1.25-4.46a4.87,4.87,0,0,1,3.77-1.36h11.9Z"/><path class="cls-1" d="M93.81,69.11l-1.33,2.73A2.59,2.59,0,0,0,92.2,73a2.7,2.7,0,0,0,.06.7,4.34,4.34,0,0,0,.37.73H87q.9-1.15,1.33-1.83a14.77,14.77,0,0,0,.93-1.77l7.22-15.13-.87-1.12h9l7.07,17.11a9.31,9.31,0,0,0,1.74,2.73h-10a4.7,4.7,0,0,0,.34-.76,1.79,1.79,0,0,0,.09-.54,3.75,3.75,0,0,0-.28-1.49l-1.08-2.54Zm7.41-3.29-2.83-6.71-3,6.71Z"/><path class="cls-1" d="M114,64.55H124.9v5.21H114Z"/><path class="cls-1" d="M150.42,64.77V70H147v1.74a6,6,0,0,0,.17,1.63,3.75,3.75,0,0,0,.54,1.1h-8.84a3.31,3.31,0,0,0,.51-1.07,6.39,6.39,0,0,0,.17-1.66V70H126.39V65.11L138.26,54.6H147V64.77ZM139.6,58.18l-7.77,6.59h7.77Z"/><path class="cls-1" d="M162.13,71.71a6,6,0,0,0,.17,1.63,3.75,3.75,0,0,0,.54,1.1h-9a3.28,3.28,0,0,0,.51-1.07,6.41,6.41,0,0,0,.17-1.66V60.61h-2.82v-3.5l8.37-2.51h2Z"/><path class="cls-1" d="M169.32,58a8.56,8.56,0,0,0-1.69.11,11.52,11.52,0,0,0-1.54.57l.62-4.06h19.47l.19,3.35a42.8,42.8,0,0,0-6,8.08,27.16,27.16,0,0,0-3.25,8.42h-8.56a25,25,0,0,1,2.74-6.29,60.89,60.89,0,0,1,4.19-6.26Q177.66,59,178.69,58Z"/></svg>