<svg id="Layer_1" data-name="Layer 1" xmlns="http://www.w3.org/2000/svg" viewBox="0 0 250.93 88.19"><defs><style>.cls-1{fill:#ffc418;}</style></defs><title>CA-412</title><path d="M5.4,55.53a171.41,171.41,0,0,1,121-50.13A167.4,167.4,0,0,1,245.53,54.93L221,82.78H29.31Z"/><path class="cls-1" d="M5.4,55.53a171.41,171.41,0,0,1,121-50.13A167.4,167.4,0,0,1,245.53,54.92L221,82.78H29.31ZM92.56,3.29a177,177,0,0,0-91,48.41,5.4,5.4,0,0,0-.25,7.39L25.25,86.35a5.4,5.4,0,0,0,4.06,1.84H221a5.39,5.39,0,0,0,4.05-1.83l24.52-27.86a5.39,5.39,0,0,0-.24-7.38A172.77,172.77,0,0,0,126.45,0,176.66,176.66,0,0,0,92.56,3.29"/><path class="cls-1" d="M28.28,54l-2.23-2.7A8.37,8.37,0,0,0,25,50.18a4.76,4.76,0,0,0-1-.59l5.26-4.34a4.3,4.3,0,0,0,.41,1.06,8.21,8.21,0,0,0,.9,1.28L37,55.38a8.29,8.29,0,0,0,1.08,1.14,4.73,4.73,0,0,0,1,.59l-5.26,4.34a4.28,4.28,0,0,0-.41-1.06,8.18,8.18,0,0,0-.9-1.28L29.9,56l-3.37,2.78,2.57,3.11A8.38,8.38,0,0,0,30.18,63a4.72,4.72,0,0,0,1,.59L25.89,68a4.29,4.29,0,0,0-.41-1.06,8.26,8.26,0,0,0-.9-1.28l-6.42-7.77a8.35,8.35,0,0,0-1.08-1.14,4.73,4.73,0,0,0-1-.59l5.26-4.34a4.28,4.28,0,0,0,.41,1.06,8.22,8.22,0,0,0,.9,1.28l2.23,2.7Z"/><path class="cls-1" d="M44.34,35.53,51,31.44a4.7,4.7,0,0,0,.23,1.1A7.5,7.5,0,0,0,52,34l5.25,8.6a8.33,8.33,0,0,0,.92,1.3,4.2,4.2,0,0,0,.89.7L53.2,48.11A4.29,4.29,0,0,0,52.95,47a8.25,8.25,0,0,0-.71-1.39l-4.93-8.07L49.95,50.1l-3.46,2.11-9.9-8.3L41.47,52a10.48,10.48,0,0,0,1,1.46,2.89,2.89,0,0,0,.94.62L40.26,56a2.85,2.85,0,0,0-.12-1.11,10.26,10.26,0,0,0-.83-1.54L34.18,45a10.28,10.28,0,0,0-1-1.45,2.87,2.87,0,0,0-.94-.61l6.88-4.2,7,5.91Z"/><path class="cls-1" d="M69.39,26.84a7.17,7.17,0,0,0-1.18,0,4.68,4.68,0,0,0-1.23.37l-5,2.17a2.21,2.21,0,0,0-.79.47c-.1.13-.09.33,0,.59l.34.79c.11.26.25.4.42.42a2.22,2.22,0,0,0,.88-.25l3.81-1.65a4.77,4.77,0,0,1,2.94-.49,2.79,2.79,0,0,1,1.82,1.8l1.49,3.43a4.2,4.2,0,0,1,.38,2.93,3.67,3.67,0,0,1-2.25,2l-9.69,4.21-1.65-2.53A7.81,7.81,0,0,0,60.81,41,5.87,5.87,0,0,0,62,40.62l5.2-2.26A2.14,2.14,0,0,0,68,37.9c.1-.13.09-.33,0-.59l-.42-1q-.16-.37-.41-.41a2,2,0,0,0-.87.23l-4.38,1.9a3.51,3.51,0,0,1-2.6.34,3.69,3.69,0,0,1-1.7-2.11l-1.37-3.15a3.93,3.93,0,0,1-.31-2.82,3.06,3.06,0,0,1,1.83-1.81l10-4.33Z"/><path class="cls-1" d="M93.9,22.94l-.77-3.42A8.36,8.36,0,0,0,92.68,18a4.8,4.8,0,0,0-.6-1l6.65-1.5a4.28,4.28,0,0,0-.11,1.13,8.22,8.22,0,0,0,.23,1.55l2.21,9.83a8.31,8.31,0,0,0,.45,1.51,4.73,4.73,0,0,0,.6,1L95.45,32a4.28,4.28,0,0,0,.11-1.13,8.22,8.22,0,0,0-.23-1.55l-.88-3.93-4.26,1,.88,3.93a8.41,8.41,0,0,0,.45,1.51,4.72,4.72,0,0,0,.6,1l-6.65,1.5a4.28,4.28,0,0,0,.11-1.13,8.23,8.23,0,0,0-.23-1.55l-2.21-9.83a8.37,8.37,0,0,0-.45-1.51,4.75,4.75,0,0,0-.6-1l6.65-1.5a4.28,4.28,0,0,0-.11,1.13,8.22,8.22,0,0,0,.23,1.55l.77,3.42Z"/><path class="cls-1" d="M115,26.61a9.12,9.12,0,0,0,1.42-.24,8.68,8.68,0,0,0,1.16-.45l-.21,3L103.9,30.35a4.33,4.33,0,0,0,.24-1.11,8.26,8.26,0,0,0,0-1.56l-1.07-10a8.32,8.32,0,0,0-.27-1.55,4.77,4.77,0,0,0-.48-1l13.22-1.41.81,3.05a10.91,10.91,0,0,0-1.21-.28,5.55,5.55,0,0,0-1.5,0l-4.75.5.38,3.58,4.15-.44a8.65,8.65,0,0,0,1.39-.23,10.67,10.67,0,0,0,1.2-.45l.35,3.34a11.77,11.77,0,0,0-1.19-.16,7.76,7.76,0,0,0-1.48,0l-4.15.44.44,4.11Z"/><path class="cls-1" d="M128.8,17.92l2.42-2.42a5.71,5.71,0,0,0,.88-1.05,2.6,2.6,0,0,0,.33-1l4.77,0a11.31,11.31,0,0,0-1.35,1q-.6.52-1.38,1.31L130.37,20l4.92,6.76q.62.85,1,1.28a6,6,0,0,0,.93.85l-8.4-.07a3.82,3.82,0,0,0-.12-1.21,6.12,6.12,0,0,0-.75-1.19l-1.66-2.27-2.64,2.67a4,4,0,0,0-1.26,2l-4.54,0q.89-.66,1.22-1t1.34-1.31l4.35-4.41-4.89-6.57q-.64-.87-1-1.21a7.17,7.17,0,0,0-1.17-.92l8.64.07a3.43,3.43,0,0,0,.12,1,2.66,2.66,0,0,0,.41.81Z"/><path class="cls-1" d="M141.94,25.39l-1.31,2a2,2,0,0,0-.34.87,2.07,2.07,0,0,0,0,.54,3.31,3.31,0,0,0,.21.6l-4.3-.59q.81-.79,1.21-1.26a11.41,11.41,0,0,0,.9-1.26l7.13-10.84-.55-.95,6.87.94,3.62,13.87a7.23,7.23,0,0,0,1,2.28l-7.63-1a3.73,3.73,0,0,0,.34-.55,1.43,1.43,0,0,0,.13-.41,2.91,2.91,0,0,0-.06-1.17l-.56-2.06Zm6-1.74-1.46-5.45-3,4.83Z"/><path class="cls-1" d="M163.67,30.9a8.37,8.37,0,0,0-.31,1.54,4.8,4.8,0,0,0,.08,1.13l-6.57-1.8a4.28,4.28,0,0,0,.63-.95,8.23,8.23,0,0,0,.53-1.47l2.66-9.72A7.29,7.29,0,0,0,161,18a2.77,2.77,0,0,0-.2-1.12l12.13,3.32a4.6,4.6,0,0,1,2.59,1.52,3.63,3.63,0,0,1,.17,3.12L175,27.19a3.65,3.65,0,0,1-1.72,2.6,4.59,4.59,0,0,1-3,0l-5.88-1.61Zm1.42-5.19,3,.81a1.08,1.08,0,0,0,.89,0,1.88,1.88,0,0,0,.48-1l.57-2.08a1.86,1.86,0,0,0,.08-1.08q-.13-.3-.75-.47l-3-.81Z"/><path class="cls-1" d="M186.49,39a2.71,2.71,0,0,0,1.47.35q.34-.12.74-1.09L192,30.38a10.29,10.29,0,0,0,.59-1.65,2.86,2.86,0,0,0-.06-1.12L195.92,29a2.85,2.85,0,0,0-.83.75,10.13,10.13,0,0,0-.76,1.58l-3,7.24A5.77,5.77,0,0,1,189,41.69q-1.23.61-3.53-.35l-7.18-3A4.1,4.1,0,0,1,175.79,36a5.38,5.38,0,0,1,.46-3.71L179.31,25a8.34,8.34,0,0,0,.5-1.49,4.72,4.72,0,0,0,.07-1.13L186.17,25a4.23,4.23,0,0,0-.75.86,8.13,8.13,0,0,0-.71,1.39l-3.36,8.06a1.28,1.28,0,0,0,.8,1.89Z"/><path class="cls-1" d="M211.41,37.85l6.72,4a4.68,4.68,0,0,0-.86.71,7.41,7.41,0,0,0-.93,1.29l-5.2,8.64a8.26,8.26,0,0,0-.72,1.41,4.18,4.18,0,0,0-.21,1.11l-5.86-3.53a4.32,4.32,0,0,0,.87-.74,8.26,8.26,0,0,0,.91-1.28l4.88-8.1-9.92,8.15-3.47-2.09,2.78-12.62-4.91,8.07a10.48,10.48,0,0,0-.83,1.57,2.89,2.89,0,0,0-.12,1.12l-3.17-1.91a2.87,2.87,0,0,0,.93-.62,10.31,10.31,0,0,0,1-1.45l5.07-8.43a10.18,10.18,0,0,0,.82-1.55,2.86,2.86,0,0,0,.11-1.11l6.91,4.16-2,9Z"/><path class="cls-1" d="M217.17,55.49l-2.14,1a2,2,0,0,0-.75.57,2,2,0,0,0-.31.45,3.32,3.32,0,0,0-.14.62l-3.35-2.76q1.1-.24,1.7-.44a11.47,11.47,0,0,0,1.43-.6l11.76-5.48,0-1.09,5.35,4.41-4.2,13.7a7.18,7.18,0,0,0-.31,2.48l-5.94-4.9a3.67,3.67,0,0,0,.58-.29,1.43,1.43,0,0,0,.32-.28,2.91,2.91,0,0,0,.57-1l.6-2.05Zm6,1.69,1.62-5.4-5.12,2.52Z"/><path class="cls-1" d="M86.06,58.63a8.67,8.67,0,0,0-1.38-.55,5.92,5.92,0,0,0-1.66-.2H77.6q-1.49,0-1.49,1.27V69.88q0,1.27,1.49,1.27h4.28A18.85,18.85,0,0,0,84.79,71a6.6,6.6,0,0,0,1.64-.6l-.65,4H73.57a4.9,4.9,0,0,1-3.77-1.35q-1.26-1.35-1.25-4.48V60.43q0-3.1,1.25-4.46a4.87,4.87,0,0,1,3.77-1.36h11.9Z"/><path class="cls-1" d="M92.94,69.11l-1.33,2.73A2.59,2.59,0,0,0,91.33,73a2.7,2.7,0,0,0,.06.7,4.34,4.34,0,0,0,.37.73H86.15q.9-1.15,1.33-1.83a14.77,14.77,0,0,0,.93-1.77l7.22-15.13-.87-1.12h9l7.07,17.11a9.31,9.31,0,0,0,1.74,2.73h-10a4.7,4.7,0,0,0,.34-.76,1.79,1.79,0,0,0,.09-.54,3.75,3.75,0,0,0-.28-1.49l-1.08-2.54Zm7.41-3.29-2.83-6.71-3,6.71Z"/><path class="cls-1" d="M113.12,64.55H124v5.21H113.12Z"/><path class="cls-1" d="M149.55,64.77V70h-3.38v1.74a6,6,0,0,0,.17,1.63,3.75,3.75,0,0,0,.54,1.1H138a3.31,3.31,0,0,0,.51-1.07,6.39,6.39,0,0,0,.17-1.66V70H125.52V65.11L137.4,54.6h8.77V64.77Zm-10.82-6.59L131,64.77h7.77Z"/><path class="cls-1" d="M161.27,71.71a6,6,0,0,0,.17,1.63,3.75,3.75,0,0,0,.54,1.1h-9a3.28,3.28,0,0,0,.51-1.07,6.41,6.41,0,0,0,.17-1.66V60.61h-2.82v-3.5l8.37-2.51h2Z"/><path class="cls-1" d="M182.53,71.15a9.44,9.44,0,0,0,2-.16,19.19,19.19,0,0,0,2.11-.71l-.71,4.15H166V65.61a4.69,4.69,0,0,1,.88-3.3,4.09,4.09,0,0,1,3-.88l8.06-.43a1.32,1.32,0,0,0,.93-.25,1.15,1.15,0,0,0,.25-.84V58.82a.8.8,0,0,0-.33-.7,2,2,0,0,0-1.13-.23H169a6.47,6.47,0,0,0-3.1.71l.65-4h14.63q3.13,0,4.2,1.1a4.76,4.76,0,0,1,1.07,3.42v4a4,4,0,0,1-1,3.08A5.32,5.32,0,0,1,182,67l-7.5.37c-.41,0-.67.15-.76.45a2.92,2.92,0,0,0-.14.85v2.45Z"/></svg>