<svg id="Layer_1" data-name="Layer 1" xmlns="http://www.w3.org/2000/svg" viewBox="0 0 250.93 88.19"><defs><style>.cls-1{fill:#ffc418;}</style></defs><title>CA-413</title><path d="M5.4,55.53a171.41,171.41,0,0,1,121-50.13A167.4,167.4,0,0,1,245.53,54.93L221,82.78H29.31Z"/><path class="cls-1" d="M5.4,55.53a171.41,171.41,0,0,1,121-50.13A167.4,167.4,0,0,1,245.53,54.92L221,82.78H29.31ZM92.56,3.29a177,177,0,0,0-91,48.41,5.4,5.4,0,0,0-.25,7.39L25.25,86.35a5.4,5.4,0,0,0,4.06,1.84H221a5.39,5.39,0,0,0,4.05-1.83l24.52-27.86a5.39,5.39,0,0,0-.24-7.38A172.77,172.77,0,0,0,126.45,0,176.66,176.66,0,0,0,92.56,3.29"/><path class="cls-1" d="M26.57,56.42,24.48,54a7.67,7.67,0,0,0-1-1,4.34,4.34,0,0,0-.9-.52l4.75-4.06a3.93,3.93,0,0,0,.39,1,7.46,7.46,0,0,0,.84,1.16l6,7a7.66,7.66,0,0,0,1,1,4.34,4.34,0,0,0,.9.52l-4.75,4.06a4,4,0,0,0-.39-1A7.56,7.56,0,0,0,30.48,61l-2.4-2.81-3,2.6,2.4,2.81a7.66,7.66,0,0,0,1,1,4.34,4.34,0,0,0,.9.52l-4.75,4.06a4,4,0,0,0-.39-1,7.59,7.59,0,0,0-.84-1.16l-6-7a7.7,7.7,0,0,0-1-1,4.34,4.34,0,0,0-.9-.52l4.75-4.06a3.91,3.91,0,0,0,.39,1,7.46,7.46,0,0,0,.84,1.16L23.52,59Z"/><path class="cls-1" d="M40.84,39.15l6-3.92a4.29,4.29,0,0,0,.24,1,6.8,6.8,0,0,0,.69,1.28l5,7.75a7.66,7.66,0,0,0,.87,1.16,3.82,3.82,0,0,0,.83.61l-5.26,3.42a4,4,0,0,0-.26-1,7.56,7.56,0,0,0-.69-1.26l-4.72-7.27,2.74,11.44-3.12,2L34,47l4.68,7.29a9.65,9.65,0,0,0,1,1.31,2.64,2.64,0,0,0,.88.54L37.63,58a2.62,2.62,0,0,0-.13-1,9.44,9.44,0,0,0-.8-1.39l-4.92-7.56a9.43,9.43,0,0,0-.95-1.3,2.62,2.62,0,0,0-.87-.53l6.2-4,6.6,5.23Z"/><path class="cls-1" d="M63.39,30.4a6.5,6.5,0,0,0-1.08.09,4.26,4.26,0,0,0-1.11.38L56.7,33a2,2,0,0,0-.71.46q-.13.19,0,.54l.34.71q.17.36.4.37a2,2,0,0,0,.8-.26L61,33.22a4.37,4.37,0,0,1,2.67-.56,2.56,2.56,0,0,1,1.73,1.58l1.49,3.09A3.85,3.85,0,0,1,67.36,40a3.36,3.36,0,0,1-2,1.9l-8.72,4.21-1.6-2.26a7.14,7.14,0,0,0,1-.16,5.3,5.3,0,0,0,1.08-.4L61.8,41a2,2,0,0,0,.69-.45c.09-.12.07-.3,0-.54L62,39.17q-.16-.34-.39-.36a1.8,1.8,0,0,0-.79.25L56.91,41a3.22,3.22,0,0,1-2.37.41A3.38,3.38,0,0,1,52.9,39.5l-1.37-2.83a3.61,3.61,0,0,1-.39-2.57,2.8,2.8,0,0,1,1.61-1.73l9-4.33Z"/><path class="cls-1" d="M91.88,29.73q.72.69,1.41,1.25a12.26,12.26,0,0,0,1.35,1l-6.35,1.8-4.65-4.88-.84,1.72.58,2A7.64,7.64,0,0,0,83.86,34a4.35,4.35,0,0,0,.6.85l-6,1.71a4,4,0,0,0,0-1,7.52,7.52,0,0,0-.28-1.41L75.68,25.2a7.63,7.63,0,0,0-.49-1.36,4.3,4.3,0,0,0-.6-.85l6-1.71a4,4,0,0,0,0,1,7.51,7.51,0,0,0,.28,1.41l1.06,3.75,2.37-5.11a3.93,3.93,0,0,0,.34-1,1.62,1.62,0,0,0,0-.7l-.14-.51,4.68-1.33a10.84,10.84,0,0,0-.77.84,6.38,6.38,0,0,0-.63,1L86,24.09Z"/><path class="cls-1" d="M93.71,22.06a4.61,4.61,0,0,1,.38-3.27,3.46,3.46,0,0,1,2.49-1.38l8-1.28a3.48,3.48,0,0,1,2.79.52,4.6,4.6,0,0,1,1.38,3l.92,5.73a4.61,4.61,0,0,1-.38,3.27A3.46,3.46,0,0,1,106.75,30l-8,1.28A3.49,3.49,0,0,1,96,30.8a4.6,4.6,0,0,1-1.38-3Zm6.36,5.77q.14.89,1.19.72l2.3-.37q1-.17.9-1.06l-1.21-7.52q-.14-.89-1.19-.72l-2.3.37q-1,.17-.9,1.06Z"/><path class="cls-1" d="M112.08,17.62a7.71,7.71,0,0,0-.16-1.44,4.33,4.33,0,0,0-.38-1l10.92-.49a4.35,4.35,0,0,1,3.17.77,4.28,4.28,0,0,1,1,3l.27,6.07a4.28,4.28,0,0,1-.77,3.13,4.35,4.35,0,0,1-3.09,1.05l-10.92.49a3.94,3.94,0,0,0,.29-1,7.55,7.55,0,0,0,0-1.43Zm5.78,9.08,2.79-.12q.66,0,.83-.24a1.61,1.61,0,0,0,.13-1l-.32-7.12a1.62,1.62,0,0,0-.22-.93q-.19-.2-.84-.17l-2.79.13Z"/><path class="cls-1" d="M129.46,28.8a3.93,3.93,0,0,0,.37-1A7.51,7.51,0,0,0,130,26.4l.39-9.23a7.62,7.62,0,0,0,0-1.44,4.32,4.32,0,0,0-.3-1l6.24.26a3.89,3.89,0,0,0-.37,1,7.51,7.51,0,0,0-.17,1.42l-.39,9.23a7.7,7.7,0,0,0,0,1.44,4.31,4.31,0,0,0,.3,1Z"/><path class="cls-1" d="M142,25.76l-1.2,1.79a1.86,1.86,0,0,0-.31.8,1.9,1.9,0,0,0,0,.5,3.06,3.06,0,0,0,.19.55l-3.95-.53q.74-.72,1.11-1.16a10.49,10.49,0,0,0,.82-1.15l6.52-10-.5-.87,6.3.85,3.34,12.71a6.62,6.62,0,0,0,1,2.08l-7-.95a3.44,3.44,0,0,0,.31-.5,1.35,1.35,0,0,0,.12-.37,2.68,2.68,0,0,0-.05-1.07l-.52-1.89Zm5.52-1.61-1.35-5-2.77,4.43Z"/><path class="cls-1" d="M170.77,32.53q.27,1,.58,1.79a12.19,12.19,0,0,0,.67,1.52l-6.38-1.68-1.53-6.57-1.6,1.06-.54,2a7.59,7.59,0,0,0-.27,1.42,4.32,4.32,0,0,0,.08,1l-6-1.59a3.94,3.94,0,0,0,.57-.87,7.55,7.55,0,0,0,.47-1.35l2.35-8.94A7.67,7.67,0,0,0,159.4,19a4.32,4.32,0,0,0-.08-1l6,1.59a3.93,3.93,0,0,0-.57.87,7.56,7.56,0,0,0-.47,1.35l-1,3.77L168,22.33a3.93,3.93,0,0,0,.79-.66,1.59,1.59,0,0,0,.32-.62l.13-.51,4.7,1.24a11,11,0,0,0-1.09.33,6.45,6.45,0,0,0-1.05.54l-3.21,2Z"/><path class="cls-1" d="M198.54,32,205,35.16a4.27,4.27,0,0,0-.73.72,6.76,6.76,0,0,0-.75,1.25l-4.06,8.3a7.66,7.66,0,0,0-.55,1.35,3.85,3.85,0,0,0-.1,1l-5.63-2.75a3.92,3.92,0,0,0,.73-.74,7.55,7.55,0,0,0,.73-1.24l3.81-7.79L190,43.52l-3.34-1.63,1.53-11.74-3.84,7.76a9.72,9.72,0,0,0-.63,1.5,2.66,2.66,0,0,0,0,1l-3-1.49a2.62,2.62,0,0,0,.8-.64,9.46,9.46,0,0,0,.78-1.4l4-8.1a9.52,9.52,0,0,0,.63-1.48,2.63,2.63,0,0,0,0-1l6.64,3.25-1.09,8.35Z"/><path class="cls-1" d="M205.26,47.61l-1.87,1.08a1.84,1.84,0,0,0-.63.58,1.94,1.94,0,0,0-.24.44,3.13,3.13,0,0,0-.07.58l-3.3-2.22q1-.32,1.51-.55a10.46,10.46,0,0,0,1.25-.67l10.24-6-.07-1,5.28,3.55-2.61,12.88a6.58,6.58,0,0,0-.06,2.29l-5.86-3.94a3.34,3.34,0,0,0,.5-.31,1.27,1.27,0,0,0,.27-.28,2.63,2.63,0,0,0,.42-1l.37-1.93Zm5.66,1,1-5.07-4.45,2.75Z"/><path class="cls-1" d="M228.2,57.07l3.13-.26a5.21,5.21,0,0,0,1.24-.21,2.38,2.38,0,0,0,.8-.48L236.69,59a10.32,10.32,0,0,0-1.54-.1q-.73,0-1.74.1l-5.35.48-.57,7.64q-.07,1-.06,1.49a5.55,5.55,0,0,0,.15,1.14l-5.84-5a3.52,3.52,0,0,0,.63-.92,5.73,5.73,0,0,0,.18-1.28l.18-2.57-3.42.3a3.67,3.67,0,0,0-2,.62l-3.15-2.71q1,.06,1.42.06t1.72-.12l5.66-.5.47-7.49q.07-1,.05-1.41a6.64,6.64,0,0,0-.27-1.34l6,5.17a3.15,3.15,0,0,0-.52.79,2.45,2.45,0,0,0-.19.81Z"/><path class="cls-1" d="M86.93,58.63a8.67,8.67,0,0,0-1.38-.55,5.92,5.92,0,0,0-1.66-.2H78.47Q77,57.89,77,59.16V69.88q0,1.27,1.49,1.27h4.28A18.85,18.85,0,0,0,85.66,71a6.6,6.6,0,0,0,1.64-.6l-.65,4H74.44a4.9,4.9,0,0,1-3.77-1.35q-1.26-1.35-1.25-4.48V60.43q0-3.1,1.25-4.46a4.87,4.87,0,0,1,3.77-1.36h11.9Z"/><path class="cls-1" d="M93.81,69.11l-1.33,2.73A2.59,2.59,0,0,0,92.2,73a2.7,2.7,0,0,0,.06.7,4.34,4.34,0,0,0,.37.73H87q.9-1.15,1.33-1.83a14.77,14.77,0,0,0,.93-1.77l7.22-15.13-.87-1.12h9l7.07,17.11a9.31,9.31,0,0,0,1.74,2.73h-10a4.7,4.7,0,0,0,.34-.76,1.79,1.79,0,0,0,.09-.54,3.75,3.75,0,0,0-.28-1.49l-1.08-2.54Zm7.41-3.29-2.83-6.71-3,6.71Z"/><path class="cls-1" d="M114,64.55H124.9v5.21H114Z"/><path class="cls-1" d="M150.42,64.77V70H147v1.74a6,6,0,0,0,.17,1.63,3.75,3.75,0,0,0,.54,1.1h-8.84a3.31,3.31,0,0,0,.51-1.07,6.39,6.39,0,0,0,.17-1.66V70H126.39V65.11L138.26,54.6H147V64.77ZM139.6,58.18l-7.77,6.59h7.77Z"/><path class="cls-1" d="M162.13,71.71a6,6,0,0,0,.17,1.63,3.75,3.75,0,0,0,.54,1.1h-9a3.28,3.28,0,0,0,.51-1.07,6.41,6.41,0,0,0,.17-1.66V60.61h-2.82v-3.5l8.37-2.51h2Z"/><path class="cls-1" d="M180.21,54.6a7.21,7.21,0,0,1,4.15.91,3.6,3.6,0,0,1,1.24,3.11v3.32a2.14,2.14,0,0,1-1.07,2,7.29,7.29,0,0,1-3.55.64q2.88,0,3.75.74a3.14,3.14,0,0,1,.87,2.55V71a3.32,3.32,0,0,1-.93,2.52,4.36,4.36,0,0,1-3.07.89H166.54l-.71-4.25a10.5,10.5,0,0,0,1.64.73,5.87,5.87,0,0,0,1.8.23h7.41a1.78,1.78,0,0,0,1.1-.23,1.31,1.31,0,0,0,.26-1V67.22a1.36,1.36,0,0,0-.25-1,1.88,1.88,0,0,0-1.12-.22h-3.6a11.15,11.15,0,0,0-1.81.11,13.93,13.93,0,0,0-1.6.42V62.2a15.35,15.35,0,0,0,1.5.37,10.07,10.07,0,0,0,1.91.16h3.6a1.79,1.79,0,0,0,1.1-.23,1.31,1.31,0,0,0,.26-1V59.1a1.36,1.36,0,0,0-.25-1,1.88,1.88,0,0,0-1.12-.22h-8.06a5.25,5.25,0,0,0-1.44.15,8.54,8.54,0,0,0-1.35.59l.68-4Z"/></svg>