<svg id="Layer_1" data-name="Layer 1" xmlns="http://www.w3.org/2000/svg" viewBox="0 0 250.93 88.19"><defs><style>.cls-1{fill:#231f20;}.cls-2{fill:#ffc418;}.cls-3{fill:none;stroke:#231f20;}</style></defs><title>CA-428</title><path class="cls-1" d="M5.4,55.53a171.41,171.41,0,0,1,121-50.13A167.4,167.4,0,0,1,245.53,54.93L221,82.78H29.31Z"/><path class="cls-2" d="M5.4,55.53a171.41,171.41,0,0,1,121-50.13A167.4,167.4,0,0,1,245.53,54.92L221,82.78H29.31ZM92.56,3.29a177,177,0,0,0-91,48.41,5.4,5.4,0,0,0-.25,7.39L25.25,86.35a5.4,5.4,0,0,0,4.06,1.84H221a5.39,5.39,0,0,0,4.05-1.83l24.52-27.86a5.39,5.39,0,0,0-.24-7.38A172.77,172.77,0,0,0,126.45,0,176.66,176.66,0,0,0,92.56,3.29"/><path class="cls-3" d="M5.4,55.53a171.42,171.42,0,0,1,121-50.13A167.4,167.4,0,0,1,245.53,54.93"/><path class="cls-2" d="M60.07,34.23l-1.53-3.15a8.32,8.32,0,0,0-.78-1.37,4.75,4.75,0,0,0-.8-.8l6.13-3a4.3,4.3,0,0,0,.15,1.13,8.13,8.13,0,0,0,.57,1.46l4.39,9.07A8.32,8.32,0,0,0,69,39a4.69,4.69,0,0,0,.8.8l-6.13,3a4.26,4.26,0,0,0-.15-1.13,8.23,8.23,0,0,0-.57-1.46l-1.76-3.63-3.93,1.9L59,42.05a8.35,8.35,0,0,0,.78,1.37,4.71,4.71,0,0,0,.8.8l-6.13,3a4.28,4.28,0,0,0-.15-1.13,8.2,8.2,0,0,0-.57-1.46l-4.39-9.07a8.41,8.41,0,0,0-.78-1.37,4.76,4.76,0,0,0-.8-.8l6.13-3A4.28,4.28,0,0,0,54,31.52,8.23,8.23,0,0,0,54.61,33l1.53,3.15Z"/><path class="cls-2" d="M80.13,20.06l7.48-2.37a4.75,4.75,0,0,0,0,1.12,7.43,7.43,0,0,0,.35,1.55L91,30a8.31,8.31,0,0,0,.58,1.48,4.2,4.2,0,0,0,.7.89L85.73,34.4a4.31,4.31,0,0,0,0-1.14,8.18,8.18,0,0,0-.36-1.52l-2.85-9-.45,12.83-3.87,1.22L70.59,26.35l2.8,9A10.58,10.58,0,0,0,74,37a2.91,2.91,0,0,0,.77.83L71.27,39a2.86,2.86,0,0,0,.15-1.11,10.42,10.42,0,0,0-.44-1.7l-3-9.38a10.31,10.31,0,0,0-.62-1.64,2.84,2.84,0,0,0-.76-.82l7.69-2.43,5.42,7.42Z"/><path class="cls-2" d="M106.51,17.62a7.21,7.21,0,0,0-1.16-.23,4.65,4.65,0,0,0-1.28.06l-5.37.91a2.21,2.21,0,0,0-.88.27q-.19.16-.12.58l.14.85c0,.28.15.45.31.51a2.21,2.21,0,0,0,.92,0l4.09-.7a4.76,4.76,0,0,1,3,.23,2.8,2.8,0,0,1,1.33,2.18l.63,3.69a4.2,4.2,0,0,1-.33,2.94,3.67,3.67,0,0,1-2.66,1.39L94.69,32l-1-2.85a7.76,7.76,0,0,0,1.09.13A5.88,5.88,0,0,0,96,29.24l5.58-.95a2.14,2.14,0,0,0,.86-.27q.19-.16.12-.58l-.18-1c0-.27-.15-.43-.3-.5a2,2,0,0,0-.9,0l-4.71.8a3.51,3.51,0,0,1-2.61-.29A3.68,3.68,0,0,1,92.76,24l-.58-3.38a3.93,3.93,0,0,1,.37-2.81,3.05,3.05,0,0,1,2.21-1.32l10.72-1.82Z"/><path class="cls-2" d="M131.21,19.64l.06-3.5a8.5,8.5,0,0,0-.08-1.57,4.73,4.73,0,0,0-.35-1.07l6.81.11a4.31,4.31,0,0,0-.38,1.07,8.3,8.3,0,0,0-.15,1.56L137,26.31a8.34,8.34,0,0,0,.08,1.57,4.72,4.72,0,0,0,.35,1.07l-6.82-.11a4.29,4.29,0,0,0,.38-1.07,8.14,8.14,0,0,0,.15-1.56l.07-4-4.37-.07-.07,4a8.33,8.33,0,0,0,.08,1.57,4.73,4.73,0,0,0,.35,1.07l-6.81-.11a4.31,4.31,0,0,0,.38-1.07,8.14,8.14,0,0,0,.15-1.56L121,16A8.51,8.51,0,0,0,121,14.4a4.75,4.75,0,0,0-.35-1.07l6.81.11a4.27,4.27,0,0,0-.38,1.07,8.21,8.21,0,0,0-.15,1.56l-.06,3.5Z"/><path class="cls-2" d="M143.7,25.58l-1.33,1.94a2,2,0,0,0-.35.87,2.06,2.06,0,0,0,0,.54,3.26,3.26,0,0,0,.2.6l-4.3-.64q.82-.77,1.23-1.25a11.43,11.43,0,0,0,.92-1.25l7.26-10.76-.54-1,6.86,1,3.45,13.91a7.21,7.21,0,0,0,1,2.29l-7.62-1.14a3.8,3.8,0,0,0,.35-.54,1.37,1.37,0,0,0,.13-.4,2.89,2.89,0,0,0,0-1.17l-.54-2.07Zm6-1.67-1.4-5.46-3.09,4.79Z"/><path class="cls-2" d="M172.21,25.51l-5.42,9-5.34-1.65L162.13,19a4.78,4.78,0,0,0-.07-1.18,8.88,8.88,0,0,0-.28-1l6.65,2.06a3.27,3.27,0,0,0-.29.42,2.8,2.8,0,0,0-.19.48c-.1.34-.17.57-.19.71a7.69,7.69,0,0,0-.07.79l-.49,7.59,5.28-8.74,5.59,1.73-.53,10.21,3.91-6.52c.11-.19.22-.41.35-.69a5.93,5.93,0,0,0,.28-.71,3.31,3.31,0,0,0,.14-.58,1.42,1.42,0,0,0-.05-.44l3.55,1.1a4.64,4.64,0,0,0-1,.8,6.49,6.49,0,0,0-.79,1.1l-6.86,11.52L171.7,36Z"/><path class="cls-2" d="M197.26,43.5q.09,1.08.24,2a13.17,13.17,0,0,0,.4,1.76l-6.49-3.13-.27-7.35-1.93.8-1,2.08a8.3,8.3,0,0,0-.58,1.46,4.69,4.69,0,0,0-.13,1.12l-6.14-3a4.33,4.33,0,0,0,.79-.82,8.24,8.24,0,0,0,.79-1.35l4.38-9.08a8.4,8.4,0,0,0,.59-1.46A4.75,4.75,0,0,0,188,25.5l6.14,3a4.27,4.27,0,0,0-.79.82,8.21,8.21,0,0,0-.79,1.35l-1.84,3.83L196.38,32a4.27,4.27,0,0,0,1-.54,1.74,1.74,0,0,0,.47-.6l.25-.52,4.78,2.3a11.82,11.82,0,0,0-1.23.13,6.93,6.93,0,0,0-1.24.36l-3.86,1.5Z"/><path class="cls-2" d="M81.75,58.63a8.67,8.67,0,0,0-1.38-.55,5.92,5.92,0,0,0-1.66-.2H73.29q-1.49,0-1.49,1.27V69.88q0,1.27,1.49,1.27h4.28A18.85,18.85,0,0,0,80.48,71a6.6,6.6,0,0,0,1.64-.6l-.65,4H69.26a4.9,4.9,0,0,1-3.77-1.35q-1.26-1.35-1.26-4.48V60.43q0-3.1,1.26-4.46a4.87,4.87,0,0,1,3.77-1.36h11.9Z"/><path class="cls-2" d="M88.63,69.11,87.3,71.84A2.59,2.59,0,0,0,87,73a2.7,2.7,0,0,0,.06.7,4.34,4.34,0,0,0,.37.73H81.84q.9-1.15,1.33-1.83a14.77,14.77,0,0,0,.93-1.77l7.22-15.13-.87-1.12h9l7.07,17.11a9.31,9.31,0,0,0,1.74,2.73h-10a4.7,4.7,0,0,0,.34-.76,1.79,1.79,0,0,0,.09-.54,3.75,3.75,0,0,0-.28-1.49l-1.08-2.54ZM96,65.82l-2.83-6.71-3,6.71Z"/><path class="cls-2" d="M108.81,64.55h10.91v5.21H108.81Z"/><path class="cls-2" d="M145.24,64.77V70h-3.38v1.74a6,6,0,0,0,.17,1.63,3.75,3.75,0,0,0,.54,1.1h-8.83a3.35,3.35,0,0,0,.51-1.07,6.39,6.39,0,0,0,.17-1.66V70H121.21V65.11L133.09,54.6h8.77V64.77Zm-10.82-6.59-7.77,6.59h7.77Z"/><path class="cls-2" d="M163.31,71.15a9.41,9.41,0,0,0,2-.16,19,19,0,0,0,2.11-.71l-.71,4.15H146.79V65.61a4.68,4.68,0,0,1,.88-3.3,4.09,4.09,0,0,1,3-.88l8.06-.43a1.32,1.32,0,0,0,.93-.25,1.16,1.16,0,0,0,.25-.84V58.82a.8.8,0,0,0-.33-.7,2,2,0,0,0-1.13-.23h-8.68a6.47,6.47,0,0,0-3.1.71l.65-4h14.63q3.13,0,4.2,1.1a4.76,4.76,0,0,1,1.07,3.42v4a4,4,0,0,1-1,3.08,5.32,5.32,0,0,1-3.46.85l-7.5.37q-.62,0-.76.45a2.86,2.86,0,0,0-.14.85v2.45Z"/><path class="cls-2" d="M186.41,54.6a4.56,4.56,0,0,1,3.3,1.07,4,4,0,0,1,1.1,3v1.86q0,2.08-1.12,2.68a10.23,10.23,0,0,1-3.63.85,6.59,6.59,0,0,1,3.57.88,3.07,3.07,0,0,1,1.18,2.71v2.67q0,4.09-4.4,4.09H174.13a4.44,4.44,0,0,1-3.27-1.1,4.21,4.21,0,0,1-1.1-3.11V67.48a3.21,3.21,0,0,1,1.18-2.79,6.06,6.06,0,0,1,3.53-.85q-3.07-.36-3.89-1.14a3.08,3.08,0,0,1-.82-2.34v-1.8q0-4,4.4-4Zm-4.34,7.87a1,1,0,0,0,1.18-1.24v-2a1.45,1.45,0,0,0-.28-1,1.23,1.23,0,0,0-.9-.28H178.5a1.24,1.24,0,0,0-.9.28,1.45,1.45,0,0,0-.28,1v2a1.44,1.44,0,0,0,.28,1,1.23,1.23,0,0,0,.9.28Zm-3.56,3.29a1.24,1.24,0,0,0-.9.28,1.45,1.45,0,0,0-.28,1v2.79a1.44,1.44,0,0,0,.28,1,1.23,1.23,0,0,0,.9.28h3.56a1,1,0,0,0,1.18-1.24V67.06a1.49,1.49,0,0,0-.26-1,1.32,1.32,0,0,0-.95-.26Z"/></svg>