<?xml version="1.0" encoding="utf-8"?>
<!-- Generator: Adobe Illustrator 24.1.0, SVG Export Plug-In . SVG Version: 6.00 Build 0)  -->
<svg version="1.1" id="Layer_1" xmlns="http://www.w3.org/2000/svg" xmlns:xlink="http://www.w3.org/1999/xlink" x="0px" y="0px"
	 viewBox="0 0 259.2 90" style="enable-background:new 0 0 259.2 90;" xml:space="preserve">
<style type="text/css">
	.st0{fill:#FFC51B;}
	.st1{fill:none;stroke:#231F20;}
</style>
<path d="M9.9,56.7c33.1-33,77-50.1,121.1-50.1c42.8,0,85.7,16.1,119.1,49.5l-24.5,27.9H33.8L9.9,56.7z"/>
<g>
	<text transform="matrix(1 0 0 1 40.2886 -636.8516)" style="fill:#231F20; font-family:'Serpentine-Bold'; font-size:16px;">RM</text>
	<text transform="matrix(1 0 0 1 63.3586 -636.8516)" style="fill:#231F20; font-family:'Serpentine-Bold'; font-size:16px;">N</text>
	<text transform="matrix(1 0 0 1 74.6686 -636.8516)" style="fill:#231F20; font-family:'Serpentine-Bold'; font-size:16px;"> OFF</text>
	<text transform="matrix(1 0 0 1 107.8686 -636.8516)" style="fill:#231F20; font-family:'Serpentine-Bold'; font-size:16px;">I</text>
	<text transform="matrix(1 0 0 1 112.4786 -636.8516)" style="fill:#231F20; font-family:'Serpentine-Bold'; font-size:16px;">CER</text>
	<text transform="matrix(1 0 0 1 140.6386 -636.8516)" style="fill:#231F20; font-family:'Serpentine-Bold'; font-size:16px;"> </text>
	<text transform="matrix(1 0 0 1 144.8186 -636.8516)" style="fill:#231F20; font-family:'Serpentine-Bold'; font-size:16px;">UN</text>
	<text transform="matrix(1 0 0 1 167.2986 -636.8516)" style="fill:#231F20; font-family:'Serpentine-Bold'; font-size:16px;">I</text>
	<text transform="matrix(1 0 0 1 171.8986 -636.8516)" style="fill:#231F20; font-family:'Serpentine-Bold'; font-size:16px;">F</text>
	<text transform="matrix(1 0 0 1 206.5444 -636.8516)" style="fill:#231F20; font-family:'Serpentine-Bold'; font-size:16px;">O</text>
	<text transform="matrix(1 0 0 1 218.896 -636.8516)" style="fill:#231F20; font-family:'Serpentine-Bold'; font-size:16px;">RM</text>
	<text transform="matrix(1 0 0 1 241.966 -636.8516)" style="fill:#231F20; font-family:'Serpentine-Bold'; font-size:16px;">S</text>
</g>
<g>
	<text transform="matrix(1 0 0 1 -85.4648 -592.2217)" style="fill:#FFFFFF; font-family:'Serpentine-Bold'; font-size:18px;">SERVICE D</text>
	<text transform="matrix(1 0 0 1 33.8352 -592.2217)" style="fill:#FFFFFF; font-family:'Serpentine-Bold'; font-size:18px;">R</text>
	<text transform="matrix(1 0 0 1 49.8652 -592.2217)" style="fill:#FFFFFF; font-family:'Serpentine-Bold'; font-size:18px;">E</text>
	<text transform="matrix(1 0 0 1 63.5152 -592.2217)" style="fill:#FFFFFF; font-family:'Serpentine-Bold'; font-size:18px;">S</text>
	<text transform="matrix(1 0 0 1 78.1052 -592.2217)" style="fill:#FFFFFF; font-family:'Serpentine-Bold'; font-size:18px;">S UN</text>
	<text transform="matrix(1 0 0 1 134.8852 -592.2217)" style="fill:#FFFFFF; font-family:'Serpentine-Bold'; font-size:18px;">I</text>
	<text transform="matrix(1 0 0 1 132.5337 -592.2217)" style="fill:#FFFFFF; font-family:'Serpentine-Bold'; font-size:18px;">F</text>
	<text transform="matrix(1 0 0 1 144.8813 -592.2217)" style="fill:#FFFFFF; font-family:'Serpentine-Bold'; font-size:18px;">O</text>
	<text transform="matrix(1 0 0 1 160.7813 -592.2217)" style="fill:#FFFFFF; font-family:'Serpentine-Bold'; font-size:18px;">R</text>
	<text transform="matrix(1 0 0 1 175.5894 -592.2217)" style="fill:#FFFFFF; font-family:'Serpentine-Bold'; font-size:18px;">M</text>
</g>
<g>
	<g>
		<path id="SVGID_3_" class="st0" d="M9.9,56.7c33.1-33,77-50.1,121.1-50.1c42.8,0,85.7,16.1,119.1,49.5l-24.5,27.9H33.8L9.9,56.7z
			 M97,4.4c-11.2,2.2-22.2,5.5-32.8,9.8c-10.7,4.4-21,9.8-30.7,16.2C23.7,36.9,14.4,44.5,6,52.9c-2,2-2.1,5.2-0.2,7.4l23.9,27.3
			c1,1.2,2.5,1.8,4.1,1.8h191.7c1.6,0,3-0.7,4.1-1.8L254,59.7c1.9-2.1,1.8-5.4-0.2-7.4c-33-33-76.6-51.1-122.9-51.1
			C119.6,1.2,108.2,2.3,97,4.4"/>
	</g>
</g>
<path class="st1" d="M9.9,56.7c33.1-33,77-50.1,121.1-50.1c42.8,0,85.7,16.1,119.1,49.5"/>
<g>
	<path class="st0" d="M32.6,58.7l2.7,3.3c0.6,0.7,1.2,1.2,1.9,1.4l-5.5,4.5c0-0.8-0.4-1.5-0.9-2.2L24,57.3c-0.6-0.7-1.2-1.2-1.9-1.4
		l5.5-4.5c0.1,0.7,0.4,1.5,0.9,2.2l2.5,3.1l3.4-2.8L32,50.9c-0.6-0.7-1.2-1.2-1.9-1.4l5.5-4.5c0,0.8,0.4,1.5,0.9,2.2l6.8,8.4
		c0.6,0.7,1.2,1.2,1.9,1.4l-5.5,4.5c-0.1-0.7-0.4-1.5-0.9-2.2L36,55.9L32.6,58.7z"/>
	<path class="st0" d="M49.3,36.4l6.7-4.1c0,0.8,0.2,1.5,0.6,2.3l5.6,9.2c0.5,0.8,1,1.3,1.7,1.6l-6.1,3.7c0-0.7-0.2-1.5-0.6-2.3
		l-4.9-8.1L55,50.9L51.5,53l-9.4-8l4.9,8c0.5,0.8,1,1.3,1.7,1.6l-3.3,2c0-0.8-0.2-1.5-0.6-2.3l-5.6-9.2c-0.5-0.8-1-1.3-1.7-1.6
		l6.7-4.1l7,6L49.3,36.4z"/>
	<path class="st0" d="M72.8,28.4c-0.2,0-0.4-0.1-0.6-0.1c-0.2,0-0.3,0-0.5,0c-0.2,0-0.4,0.1-0.6,0.2s-0.5,0.2-0.8,0.4L65.4,31
		c-0.4,0.2-0.6,0.3-0.7,0.5s-0.1,0.4,0.1,0.7l0.2,0.5c0.1,0.2,0.2,0.3,0.2,0.4s0.2,0.2,0.3,0.2s0.2,0,0.4,0c0.2,0,0.3-0.1,0.6-0.2
		l3.4-1.5c0.4-0.2,0.8-0.4,1.2-0.5c0.3-0.1,0.6-0.2,0.8-0.2s0.4-0.1,0.6-0.1c0.2,0,0.4,0.1,0.6,0.1c0.4,0.1,0.7,0.4,1,0.7
		s0.6,0.7,0.8,1.2l1.7,3.8c0.4,0.9,0.4,1.8,0.1,2.6c-0.1,0.2-0.2,0.4-0.3,0.6s-0.3,0.3-0.4,0.5c-0.2,0.1-0.4,0.3-0.7,0.4
		c-0.3,0.2-0.6,0.3-1,0.5l-9.3,4.1l-1.7-2.6c0.2,0,0.5,0,0.7,0c0.2,0,0.4,0,0.6-0.1c0.2-0.1,0.5-0.2,0.8-0.3
		c0.3-0.1,0.7-0.3,1.2-0.5l4.1-1.8c0.2-0.1,0.3-0.1,0.4-0.2c0.1,0,0.2-0.1,0.2-0.1s0.1-0.1,0.1-0.1s0.1,0,0.1-0.1
		c0.1-0.1,0.1-0.2,0.1-0.3s-0.1-0.3-0.2-0.5l-0.2-0.4c-0.2-0.3-0.3-0.6-0.4-0.6s-0.3,0-0.6,0.1l-4,1.8c-0.4,0.2-0.8,0.3-1.1,0.5
		c-0.3,0.1-0.6,0.2-0.8,0.3c-0.2,0.1-0.5,0.1-0.7,0.1s-0.4,0-0.5-0.1c-0.8-0.2-1.4-0.9-1.8-2l-1.7-3.9c-0.4-0.9-0.4-1.8-0.1-2.6
		c0.1-0.2,0.2-0.4,0.3-0.6s0.3-0.3,0.5-0.5c0.2-0.1,0.4-0.3,0.7-0.4c0.3-0.1,0.6-0.3,1-0.5l9.1-4L72.8,28.4z"/>
	<path class="st0" d="M83.1,37.6c0.2-0.7,0.2-1.5,0-2.4l-2.9-10.4c-0.2-0.9-0.7-1.5-1.2-2l12.2-3.4c0.6-0.2,1.1-0.2,1.7-0.1
		c0.6,0.1,1.1,0.2,1.6,0.5c0.4,0.2,0.7,0.6,1,1s0.5,1,0.7,1.8l1.8,6.3c0.2,0.7,0.3,1.4,0.3,1.9c0,0.5-0.1,1-0.3,1.4
		c-0.2,0.5-0.6,0.9-1.1,1.2s-1,0.6-1.6,0.8L83.1,37.6z M91.3,32.7c0.3-0.1,0.6-0.2,0.8-0.3c0.2-0.1,0.3-0.3,0.3-0.5
		c0-0.1,0.1-0.1,0.1-0.2s0-0.2,0-0.2c0-0.1,0-0.2-0.1-0.4c0-0.1-0.1-0.3-0.1-0.5l-1.8-6.4c-0.1-0.4-0.2-0.7-0.3-0.9
		c-0.1-0.2-0.2-0.3-0.3-0.4c-0.2-0.1-0.3-0.2-0.5-0.2c-0.2,0-0.5,0-0.8,0.1L86,23.5l2.7,9.9L91.3,32.7z"/>
	<path class="st0" d="M104.8,23l4.6-0.8c0.3,0,0.5-0.1,0.7-0.1c0.2,0,0.4-0.1,0.5-0.1c0.2-0.1,0.3-0.1,0.4-0.2s0.3-0.1,0.4-0.2
		l0.5,3.3c-0.4-0.2-1-0.2-1.8-0.1l-5.1,0.8l0.7,4l5.6-0.9c0.3,0,0.6-0.1,0.9-0.2c0.3-0.1,0.7-0.3,1.2-0.6v3.1l-13.7,2.2
		c0.3-0.7,0.4-1.5,0.3-2.4L98.4,20c-0.2-0.9-0.5-1.6-1-2.1l13.3-2.2l0.9,2.8c-0.2,0-0.4-0.1-0.6-0.1s-0.3,0-0.5,0s-0.4,0-0.6,0.1
		c-0.2,0-0.6,0.1-1,0.1l-4.7,0.8L104.8,23z"/>
	<path class="st0" d="M125,14.7l6.1,13.2c0.1,0.3,0.3,0.6,0.6,0.9s0.5,0.6,0.7,0.8l-7.7,0.4c0.2-0.3,0.4-0.7,0.3-1
		c0-0.4-0.2-0.9-0.5-1.5l-0.8-1.6l-6.3,0.3l-0.8,2.1c-0.2,0.5-0.2,0.8-0.2,1.1c0,0.1,0,0.3,0.1,0.4s0.1,0.3,0.3,0.5l-4.3,0.2
		c0.2-0.2,0.3-0.5,0.5-0.7s0.3-0.4,0.4-0.7s0.2-0.5,0.4-0.7c0.1-0.3,0.3-0.6,0.4-0.9l4.8-11.8c-0.1-0.2-0.2-0.4-0.3-0.5
		c-0.1-0.1-0.2-0.2-0.4-0.4L125,14.7z M120.4,18.9l-1.9,4.9l4.1-0.2L120.4,18.9z"/>
	<path class="st0" d="M134.3,30c0.5-0.6,0.7-1.3,0.8-2.2l0.5-10.5l-2.7-0.1c-0.3,0-0.5,0-0.7,0s-0.4,0-0.5,0s-0.3,0.1-0.4,0.1
		c-0.1,0.1-0.3,0.1-0.4,0.2l0.6-3l14.4,0.7l0.3,3c-0.3-0.2-0.5-0.3-0.8-0.4c-0.3-0.1-0.7-0.1-1.2-0.1l-2.7-0.1L140.9,28
		c0,0.9,0.1,1.7,0.5,2.3L134.3,30z"/>
	<path class="st0" d="M152.8,24.9l-0.7,4.2c-0.1,0.9-0.1,1.7,0.2,2.4l-7-1.1c0.5-0.5,0.9-1.3,1-2.1l1.7-10.7
		c0.1-0.9,0.1-1.7-0.3-2.4l7,1.1c-0.5,0.5-0.8,1.3-1,2.1l-0.6,3.9l4.4,0.7l0.6-3.9c0.1-0.9,0.1-1.7-0.2-2.4l7,1.1
		c-0.5,0.5-0.9,1.2-1,2.1l-1.7,10.7c-0.1,0.9-0.1,1.7,0.3,2.4l-7-1.1c0.5-0.5,0.8-1.3,1-2.1l0.7-4.2L152.8,24.9z"/>
	<path class="st0" d="M184.8,27.1c-0.1-0.2-0.3-0.4-0.4-0.5c-0.1-0.1-0.3-0.2-0.5-0.3c-0.2-0.1-0.4-0.2-0.6-0.3
		c-0.3-0.1-0.6-0.2-1-0.3l-3.1-1c-0.4-0.1-0.8-0.2-0.9-0.2s-0.4,0-0.5,0.1c-0.1,0-0.1,0.1-0.2,0.2c-0.1,0-0.1,0.1-0.2,0.2
		s-0.1,0.2-0.2,0.4s-0.1,0.4-0.2,0.6l-2,6.2c-0.1,0.4-0.2,0.7-0.2,1c0,0.2,0.1,0.5,0.2,0.7c0.1,0.2,0.2,0.3,0.4,0.4s0.5,0.2,0.9,0.3
		l2.9,0.9c0.3,0.1,0.6,0.2,0.9,0.3c0.2,0.1,0.5,0.1,0.7,0.2s0.4,0,0.6,0s0.5,0,0.7,0l-1.4,2.8l-9-2.8c-1.2-0.4-2-1.1-2.5-2.1
		c-0.2-0.5-0.3-1-0.3-1.5s0.1-1.1,0.4-1.8l2-6.3c0.2-0.8,0.5-1.3,0.8-1.7c0.3-0.4,0.6-0.7,1.1-1c1-0.6,2-0.7,3.2-0.3l8.7,2.8
		L184.8,27.1z"/>
	<path class="st0" d="M194,44.2L181.6,39c0.6-0.4,1.1-1,1.5-1.9l4.2-9.9c0.4-0.8,0.5-1.6,0.3-2.4l6.6,2.8c-0.6,0.4-1.1,1-1.5,1.8
		l-4.1,9.7l5,2.2c0.4,0.2,0.7,0.2,1,0.3c0.3,0,0.6,0,1,0L194,44.2z"/>
	<path class="st0" d="M213.2,37.4l-2.1,14.4c0,0.3,0,0.7,0,1.1s0.1,0.8,0.2,1.1l-6.7-3.8c0.4-0.1,0.7-0.4,0.8-0.7
		c0.2-0.4,0.4-0.9,0.4-1.5l0.2-1.8l-5.4-3.1l-1.9,1.3c-0.4,0.3-0.6,0.5-0.8,0.8c-0.1,0.1-0.1,0.2-0.2,0.4c0,0.2-0.1,0.3-0.1,0.6
		l-3.7-2.2c0.3-0.1,0.5-0.2,0.8-0.3c0.2-0.1,0.5-0.2,0.7-0.3c0.2-0.1,0.5-0.2,0.7-0.4s0.5-0.3,0.9-0.5l10.4-7.3c0-0.2,0-0.4,0-0.6
		s-0.1-0.3-0.1-0.5L213.2,37.4z M207,38.4l-4.2,3.1l3.6,2L207,38.4z"/>
	<path class="st0" d="M217.2,58.6l-4.5-3.5l5.2-12.4c0.1-0.3,0.2-0.6,0.3-0.8s0.1-0.4,0.2-0.6c0-0.2,0.1-0.3,0.1-0.5s0-0.3,0.1-0.6
		l5.6,4.3c-0.2,0.1-0.4,0.2-0.5,0.3c-0.1,0.1-0.2,0.2-0.4,0.4c-0.2,0.3-0.4,0.7-0.7,1.2l-3.1,7.1l8.1-6.3l4.8,3.7l-4,9.5l6-4.7
		c0.4-0.3,0.8-0.7,1.1-1.1c0.1-0.2,0.2-0.3,0.3-0.4s0.1-0.3,0.2-0.5L239,56c-0.2,0-0.4,0.1-0.5,0.1c-0.1,0-0.3,0.1-0.4,0.2
		c-0.2,0.1-0.3,0.2-0.6,0.4c-0.2,0.2-0.5,0.3-0.8,0.6l-10.6,8.1l-4.6-3.6l4.1-9.7L217.2,58.6z"/>
</g>
<g>
	<path class="st0" d="M85.6,59.2c-0.3-0.2-0.5-0.3-0.7-0.4s-0.5-0.2-0.7-0.2c-0.3-0.1-0.6-0.1-1-0.1s-0.8,0-1.4,0h-4.3
		c-0.6,0-1.1,0-1.3,0.1s-0.4,0.2-0.6,0.4c-0.1,0.1-0.2,0.2-0.2,0.3c-0.1,0.1-0.1,0.2-0.1,0.4c0,0.2-0.1,0.3-0.1,0.6
		c0,0.2,0,0.5,0,0.9v8.8c0,0.6,0.1,1,0.2,1.3c0.1,0.3,0.3,0.6,0.5,0.8c0.2,0.2,0.4,0.3,0.7,0.3c0.3,0.1,0.7,0.1,1.3,0.1h4.1
		c0.5,0,0.9,0,1.2,0s0.7-0.1,1-0.1c0.3,0,0.6-0.1,0.8-0.2s0.6-0.2,0.9-0.3l-0.7,4.1H72.5c-1.7,0-3-0.6-4-1.7c-0.5-0.5-0.8-1.1-1-1.7
		s-0.3-1.5-0.3-2.5v-8.8c0-1.1,0.1-1.9,0.3-2.5s0.5-1.2,1-1.7c1-1.1,2.3-1.7,4-1.7h12.3L85.6,59.2z"/>
	<path class="st0" d="M104.7,54.9l7.2,18.3c0.2,0.4,0.4,0.8,0.7,1.3c0.3,0.4,0.6,0.8,0.9,1.2h-10.4c0.3-0.4,0.5-0.9,0.5-1.4
		c0-0.6-0.2-1.2-0.5-2l-1-2.2h-8.5l-1.3,2.8c-0.2,0.6-0.4,1.1-0.4,1.4c0,0.2,0,0.4,0.1,0.6c0.1,0.2,0.2,0.4,0.3,0.8h-5.8
		c0.3-0.3,0.5-0.6,0.7-0.8c0.2-0.3,0.4-0.6,0.6-0.8c0.2-0.3,0.4-0.6,0.6-1c0.2-0.3,0.4-0.8,0.6-1.2l7.3-15.6
		c-0.1-0.3-0.2-0.5-0.4-0.7c-0.1-0.2-0.3-0.3-0.5-0.6L104.7,54.9L104.7,54.9z M98.2,60.3l-2.9,6.4h5.5L98.2,60.3z"/>
	<path class="st0" d="M125,69.6h-10.9v-3.9H125V69.6z"/>
	<path class="st0" d="M152.4,65.7v5.4h-3.6V73c0,1.1,0.4,1.9,1.1,2.6h-9.9c0.7-0.7,1-1.6,1-2.6v-1.9h-13.2v-4.9l11.9-11.2h9.1v10.8
		L152.4,65.7L152.4,65.7z M141,58.7l-7.6,7h7.6V58.7z"/>
	<path class="st0" d="M158.2,63.3c0.2,0,0.4,0.1,0.5,0.1s0.3,0.1,0.5,0.1c0.2,0,0.4,0,0.6,0c0.2,0,0.5,0,0.8,0h4.5
		c0.4,0,0.7,0,0.9,0c0.2,0,0.4-0.1,0.5-0.2c0.1-0.1,0.2-0.3,0.2-0.5c0-0.2,0-0.5,0-0.8V60c0-0.7-0.1-1.1-0.3-1.3s-0.7-0.3-1.3-0.3
		h-7c-0.5,0-1,0-1.4,0s-0.7,0.1-1.1,0.1c-0.3,0.1-0.6,0.1-0.8,0.2s-0.5,0.2-0.7,0.4l0.7-4.2h14.6c0.6,0,1,0,1.4,0
		c0.4,0,0.8,0.1,1.1,0.2c0.3,0.1,0.6,0.2,0.8,0.3s0.4,0.3,0.6,0.5c0.4,0.4,0.7,0.8,0.9,1.4s0.3,1.2,0.3,1.8v2.7
		c0,0.6-0.1,1.1-0.2,1.4s-0.3,0.6-0.6,0.9c-0.2,0.2-0.3,0.3-0.5,0.4c-0.2,0.1-0.3,0.2-0.6,0.2c-0.2,0.1-0.5,0.1-0.8,0.2
		c-0.3,0-0.7,0.1-1.2,0.1l-0.8,0.1l0.8,0c0.8,0,1.4,0.1,1.8,0.2s0.8,0.3,1.1,0.6c0.7,0.6,1,1.4,1,2.5v2.9c0,0.8-0.1,1.4-0.2,1.9
		c-0.1,0.5-0.4,0.9-0.7,1.3c-0.2,0.2-0.5,0.4-0.7,0.6s-0.5,0.3-0.8,0.4c-0.3,0.1-0.7,0.2-1.1,0.2c-0.4,0-0.9,0.1-1.6,0.1h-14.6
		l-0.7-4.3c0.4,0.2,0.7,0.3,1,0.4s0.6,0.2,1,0.3s0.8,0.1,1.2,0.1c0.4,0,1,0,1.6,0h5.6c0.3,0,0.6,0,0.8,0c0.2,0,0.4,0,0.5,0
		s0.2,0,0.2-0.1s0.1-0.1,0.2-0.1c0.2-0.1,0.4-0.3,0.4-0.5c0.1-0.2,0.1-0.6,0.1-1.1v-2c0-0.4,0-0.7,0-0.8c0-0.2-0.1-0.3-0.2-0.4
		s-0.2-0.2-0.4-0.2c-0.1,0-0.4-0.1-0.9-0.1h-4.6c-0.4,0-0.7,0-0.9,0c-0.2,0-0.5,0-0.6,0c-0.2,0-0.3,0-0.5,0.1s-0.3,0.1-0.5,0.2
		L158.2,63.3L158.2,63.3z"/>
	<path class="st0" d="M197.4,54.9l0.3,3.4c-1.3,1.3-2.4,2.8-3.6,4.3c-1.1,1.5-2.1,3-3,4.6s-1.6,3-2.1,4.5s-0.9,2.8-1,3.9h-8.9
		c0.3-1,0.7-2.2,1.4-3.6c0.7-1.4,1.5-2.9,2.5-4.4s2-3.1,3.2-4.7c1.2-1.6,2.4-3.1,3.6-4.5h-9c-0.6,0-1,0-1.4,0
		c-0.4,0-0.8,0.1-1.1,0.1c-0.3,0.1-0.6,0.2-0.9,0.2c-0.3,0.1-0.5,0.2-0.8,0.4l0.6-4.2C177.3,54.9,197.4,54.9,197.4,54.9z"/>
</g>
</svg>
