<svg id="Layer_1" data-name="Layer 1" xmlns="http://www.w3.org/2000/svg" viewBox="0 0 250.93 88.19"><defs><style>.cls-1{fill:#231f20;}.cls-2{fill:#ffc418;}.cls-3{fill:none;stroke:#231f20;}</style></defs><title>CA-548</title><path class="cls-1" d="M5.4,55.53a171.41,171.41,0,0,1,121-50.13A167.4,167.4,0,0,1,245.53,54.93L221,82.78H29.31Z"/><path class="cls-2" d="M5.4,55.53a171.41,171.41,0,0,1,121-50.13A167.4,167.4,0,0,1,245.53,54.92L221,82.78H29.31ZM92.56,3.29a177,177,0,0,0-91,48.41,5.4,5.4,0,0,0-.25,7.39L25.25,86.35a5.4,5.4,0,0,0,4.06,1.84H221a5.39,5.39,0,0,0,4.05-1.83l24.52-27.86a5.39,5.39,0,0,0-.24-7.38A172.77,172.77,0,0,0,126.45,0,176.66,176.66,0,0,0,92.56,3.29"/><path class="cls-3" d="M5.4,55.53a171.42,171.42,0,0,1,121-50.13A167.4,167.4,0,0,1,245.53,54.93"/><path class="cls-2" d="M26.58,57.92l-1.81-2.1a6.63,6.63,0,0,0-.88-.89,3.77,3.77,0,0,0-.77-.45L27.21,51a3.41,3.41,0,0,0,.34.83,6.52,6.52,0,0,0,.73,1l5.21,6a6.63,6.63,0,0,0,.88.89,3.72,3.72,0,0,0,.77.45L31.05,63.7a3.41,3.41,0,0,0-.34-.83,6.51,6.51,0,0,0-.73-1L27.9,59.45,25.28,61.7l2.08,2.42a6.63,6.63,0,0,0,.88.89,3.67,3.67,0,0,0,.77.45L24.92,69a3.41,3.41,0,0,0-.34-.83,6.56,6.56,0,0,0-.73-1l-5.21-6a6.57,6.57,0,0,0-.88-.89,3.79,3.79,0,0,0-.77-.45l4.09-3.52a3.37,3.37,0,0,0,.34.83,6.5,6.5,0,0,0,.73,1L24,60.18Z"/><path class="cls-2" d="M38.59,42.87l5.13-3.5a3.7,3.7,0,0,0,.23.86,5.86,5.86,0,0,0,.62,1.1l4.5,6.59a6.57,6.57,0,0,0,.78,1,3.34,3.34,0,0,0,.73.51l-4.47,3a3.41,3.41,0,0,0-.25-.87,6.51,6.51,0,0,0-.62-1.07L41,44.35l2.58,9.83L41,56l-8.16-6.17L37,56a8.28,8.28,0,0,0,.85,1.12,2.31,2.31,0,0,0,.77.45l-2.42,1.65a2.26,2.26,0,0,0-.14-.87,8.08,8.08,0,0,0-.72-1.19l-4.39-6.44a8.14,8.14,0,0,0-.84-1.1,2.27,2.27,0,0,0-.76-.45l5.27-3.6L40.4,50Z"/><path class="cls-2" d="M57.66,34.76a5.73,5.73,0,0,0-.93.11,3.73,3.73,0,0,0-.94.37l-3.81,2a1.74,1.74,0,0,0-.59.42q-.11.16.05.47l.32.6c.11.2.23.3.36.31a1.75,1.75,0,0,0,.68-.25l2.9-1.54A3.78,3.78,0,0,1,58,36.69,2.21,2.21,0,0,1,59.54,38l1.39,2.62a3.33,3.33,0,0,1,.49,2.29,2.92,2.92,0,0,1-1.65,1.71l-7.38,3.93-1.46-1.89a6.32,6.32,0,0,0,.86-.17,4.65,4.65,0,0,0,.92-.38l4-2.11a1.66,1.66,0,0,0,.58-.41q.11-.16-.05-.47l-.39-.74c-.1-.19-.22-.29-.35-.3a1.54,1.54,0,0,0-.67.24l-3.34,1.78a2.78,2.78,0,0,1-2,.43A2.91,2.91,0,0,1,48.92,43l-1.28-2.4a3.11,3.11,0,0,1-.42-2.21,2.42,2.42,0,0,1,1.33-1.55l7.6-4Z"/><path class="cls-2" d="M76.43,29.72l-.92-2.62A6.72,6.72,0,0,0,75,26a3.77,3.77,0,0,0-.56-.7l5.09-1.79a3.38,3.38,0,0,0,0,.9,6.49,6.49,0,0,0,.32,1.2l2.65,7.53a6.6,6.6,0,0,0,.5,1.15,3.69,3.69,0,0,0,.56.7L78.5,36.73a3.38,3.38,0,0,0,0-.9,6.53,6.53,0,0,0-.32-1.2l-1.06-3-3.26,1.15,1.06,3a6.69,6.69,0,0,0,.49,1.15,3.74,3.74,0,0,0,.56.7l-5.09,1.79a3.42,3.42,0,0,0,0-.9,6.53,6.53,0,0,0-.32-1.2L67.87,29.8a6.63,6.63,0,0,0-.5-1.15,3.72,3.72,0,0,0-.56-.7l5.09-1.79a3.38,3.38,0,0,0,0,.9,6.43,6.43,0,0,0,.32,1.2l.92,2.62Z"/><path class="cls-2" d="M93.33,30.4a7.29,7.29,0,0,0,1.09-.34,6.85,6.85,0,0,0,.86-.48l.17,2.37L85,34.56a3.42,3.42,0,0,0,.07-.9,6.47,6.47,0,0,0-.21-1.22L83,24.7a6.56,6.56,0,0,0-.39-1.19,3.71,3.71,0,0,0-.49-.75L92.29,20.2l1,2.3a8.46,8.46,0,0,0-1-.08,4.38,4.38,0,0,0-1.17.16l-3.67.92.69,2.76,3.21-.81a6.76,6.76,0,0,0,1.06-.33,8.59,8.59,0,0,0,.89-.49l.65,2.58a9.37,9.37,0,0,0-1,0,6.27,6.27,0,0,0-1.16.19l-3.21.81.8,3.17Z"/><path class="cls-2" d="M105.51,28.18a5.85,5.85,0,0,0,1.18-.3,2.5,2.5,0,0,0,.72-.42v2.45L97.07,31.63a3.37,3.37,0,0,0,.14-.89,6.43,6.43,0,0,0-.11-1.23l-1.31-7.87a6.59,6.59,0,0,0-.29-1.21,3.78,3.78,0,0,0-.43-.79l5.32-.88a3.39,3.39,0,0,0-.14.89,6.5,6.5,0,0,0,.11,1.23l1.32,7.95Z"/><path class="cls-2" d="M117.39,27a7.24,7.24,0,0,0,1.13-.16,6.89,6.89,0,0,0,.92-.33l-.22,2.36-10.68.9a3.41,3.41,0,0,0,.21-.88,6.6,6.6,0,0,0,0-1.24l-.67-8a6.59,6.59,0,0,0-.19-1.23,3.72,3.72,0,0,0-.36-.82L118,16.77l.59,2.43a8.44,8.44,0,0,0-1-.24,4.42,4.42,0,0,0-1.19,0l-3.77.32.24,2.84,3.29-.28a6.86,6.86,0,0,0,1.1-.16,8.47,8.47,0,0,0,1-.34l.22,2.65q-.45-.1-.94-.15a6.17,6.17,0,0,0-1.17,0l-3.29.28.27,3.26Z"/><path class="cls-2" d="M123.17,18.7l-.1,7.88a8.17,8.17,0,0,0,.07,1.39,2.26,2.26,0,0,0,.37.8l-2.93,0A2.27,2.27,0,0,0,121,28a8,8,0,0,0,.09-1.39l.06-7.79a8.17,8.17,0,0,0-.07-1.39,2.27,2.27,0,0,0-.37-.8l6.52.05,4.86,10,.12-7.73a8.16,8.16,0,0,0-.07-1.39,2.26,2.26,0,0,0-.37-.8l2.93,0a2.24,2.24,0,0,0-.39.79,8.05,8.05,0,0,0-.09,1.39l-.08,10-6,0Z"/><path class="cls-2" d="M143.09,29.61l7.77-9L147.24,20a5.19,5.19,0,0,0-.88-.07,3,3,0,0,0-.9.17l.72-2.31,11.5,1.84-7.79,9,3.64.58a9.82,9.82,0,0,0,1.12.14,3.53,3.53,0,0,0,.7-.1l-.64,2.19Z"/><path class="cls-2" d="M157,32a3.4,3.4,0,0,0,.47-.77,6.45,6.45,0,0,0,.38-1.18l1.83-7.77a6.64,6.64,0,0,0,.2-1.23,3.72,3.72,0,0,0-.09-.89l5.25,1.24a3.39,3.39,0,0,0-.47.77,6.49,6.49,0,0,0-.37,1.18l-1.83,7.77a6.6,6.6,0,0,0-.2,1.23,3.77,3.77,0,0,0,.09.89Z"/><path class="cls-2" d="M173.42,34.42a5.79,5.79,0,0,0,1.19.26,2.45,2.45,0,0,0,.83-.05l-1.09,2.19-10-3.09a3.42,3.42,0,0,0,.52-.73,6.56,6.56,0,0,0,.46-1.15l2.35-7.63a6.58,6.58,0,0,0,.29-1.21,3.79,3.79,0,0,0,0-.89l5.16,1.59a3.42,3.42,0,0,0-.52.73,6.42,6.42,0,0,0-.45,1.15l-2.37,7.7Z"/><path class="cls-2" d="M186.73,33.13l-5,6.61L177.65,38l1.7-10.79a3.75,3.75,0,0,0,0-.93,6.88,6.88,0,0,0-.13-.82l5.06,2.18a2.44,2.44,0,0,0-.27.31,2.19,2.19,0,0,0-.19.36q-.17.38-.21.54a6.13,6.13,0,0,0-.12.62l-1,5.93,4.89-6.44,4.25,1.83-1.28,8L194,34q.15-.21.33-.51a4.76,4.76,0,0,0,.28-.53,2.61,2.61,0,0,0,.16-.45,1.09,1.09,0,0,0,0-.35l2.7,1.17a3.68,3.68,0,0,0-.82.55,5.13,5.13,0,0,0-.72.8l-6.37,8.49-4.12-1.78Z"/><path class="cls-2" d="M193.2,45.09a3.41,3.41,0,0,0,.66-.61,6.54,6.54,0,0,0,.68-1l3.83-7a6.64,6.64,0,0,0,.52-1.13,3.78,3.78,0,0,0,.15-.88L203.76,37a3.36,3.36,0,0,0-.66.61,6.41,6.41,0,0,0-.68,1l-3.83,7a6.57,6.57,0,0,0-.52,1.13,3.73,3.73,0,0,0-.15.88Z"/><path class="cls-2" d="M214,46.29a5.37,5.37,0,0,0-.53-.74,3.64,3.64,0,0,0-.79-.65l-2.8-1.79q-.77-.49-1.19.17l-3.54,5.54q-.42.66.35,1.15l2.21,1.41a11.54,11.54,0,0,0,1.55.89,4,4,0,0,0,1,.23l-1.67,1.87-6.31-4a3,3,0,0,1-1.5-1.94,4,4,0,0,1,.83-2.73l2.7-4.23a4,4,0,0,1,2.12-1.89,3,3,0,0,1,2.4.54L215.06,44Z"/><path class="cls-2" d="M221.45,61q-.11.85-.15,1.62a10.51,10.51,0,0,0,0,1.43l-4.5-3.5,1-5.73-1.63.3-1.12,1.44a6.6,6.6,0,0,0-.7,1,3.68,3.68,0,0,0-.29.85l-4.26-3.32a3.42,3.42,0,0,0,.75-.5,6.57,6.57,0,0,0,.83-.92l4.9-6.3a6.55,6.55,0,0,0,.7-1,3.77,3.77,0,0,0,.29-.85l4.26,3.32a3.37,3.37,0,0,0-.75.5,6.51,6.51,0,0,0-.83.92l-2.07,2.65,4.77-1a3.42,3.42,0,0,0,.85-.25,1.39,1.39,0,0,0,.47-.38l.28-.36,3.31,2.58a9.41,9.41,0,0,0-1-.11,5.54,5.54,0,0,0-1,.07l-3.24.52Z"/><path class="cls-2" d="M221.82,64.73a3.42,3.42,0,0,0,.79-.44,6.49,6.49,0,0,0,.9-.85l5.37-5.9a6.59,6.59,0,0,0,.77-1,3.77,3.77,0,0,0,.35-.82l4,3.63a3.4,3.4,0,0,0-.79.44,6.43,6.43,0,0,0-.9.85l-5.37,5.9a6.49,6.49,0,0,0-.77,1,3.69,3.69,0,0,0-.35.82Z"/><path class="cls-2" d="M81.75,58.63a8.67,8.67,0,0,0-1.38-.55,5.92,5.92,0,0,0-1.66-.2H73.29q-1.49,0-1.49,1.27V69.88q0,1.27,1.49,1.27h4.28A18.85,18.85,0,0,0,80.48,71a6.6,6.6,0,0,0,1.64-.6l-.65,4H69.26a4.9,4.9,0,0,1-3.77-1.35q-1.26-1.35-1.26-4.48V60.43q0-3.1,1.26-4.46a4.87,4.87,0,0,1,3.77-1.36h11.9Z"/><path class="cls-2" d="M88.63,69.11,87.3,71.84A2.59,2.59,0,0,0,87,73a2.7,2.7,0,0,0,.06.7,4.34,4.34,0,0,0,.37.73H81.84q.9-1.15,1.33-1.83a14.77,14.77,0,0,0,.93-1.77l7.22-15.13-.87-1.12h9l7.07,17.11a9.31,9.31,0,0,0,1.74,2.73h-10a4.7,4.7,0,0,0,.34-.76,1.79,1.79,0,0,0,.09-.54,3.75,3.75,0,0,0-.28-1.49l-1.08-2.54ZM96,65.82l-2.83-6.71-3,6.71Z"/><path class="cls-2" d="M108.81,64.55h10.91v5.21H108.81Z"/><path class="cls-2" d="M129.49,61.79h8.09a5.28,5.28,0,0,1,3.8,1.1,4.67,4.67,0,0,1,1.1,3.43v3.6a4.67,4.67,0,0,1-1.1,3.43,5.28,5.28,0,0,1-3.8,1.1h-15l-.68-4.28a4.67,4.67,0,0,0,1.36.71,7.71,7.71,0,0,0,2.39.28h7.9a1.77,1.77,0,0,0,1.13-.23,1.64,1.64,0,0,0,.23-1.07V66.38a1.57,1.57,0,0,0-.25-1.05,1.69,1.69,0,0,0-1.12-.25h-8a9.39,9.39,0,0,0-1.94.17,3.45,3.45,0,0,0-1.47.73l.25-11.38h19.84l.59,4a6.64,6.64,0,0,0-1.61-.57,13.12,13.12,0,0,0-2.51-.18h-9Z"/><path class="cls-2" d="M168.21,64.77V70h-3.38v1.74a6,6,0,0,0,.17,1.63,3.75,3.75,0,0,0,.54,1.1h-8.83a3.35,3.35,0,0,0,.51-1.07,6.39,6.39,0,0,0,.17-1.66V70H144.18V65.11L156.06,54.6h8.77V64.77Zm-10.82-6.59-7.77,6.59h7.77Z"/><path class="cls-2" d="M186.41,54.6a4.56,4.56,0,0,1,3.3,1.07,4,4,0,0,1,1.1,3v1.86q0,2.08-1.12,2.68a10.23,10.23,0,0,1-3.63.85,6.59,6.59,0,0,1,3.57.88,3.07,3.07,0,0,1,1.18,2.71v2.67q0,4.09-4.4,4.09H174.13a4.44,4.44,0,0,1-3.27-1.1,4.21,4.21,0,0,1-1.1-3.11V67.48a3.21,3.21,0,0,1,1.18-2.79,6.06,6.06,0,0,1,3.53-.85q-3.07-.36-3.89-1.14a3.08,3.08,0,0,1-.82-2.34v-1.8q0-4,4.4-4Zm-4.34,7.87a1,1,0,0,0,1.18-1.24v-2a1.45,1.45,0,0,0-.28-1,1.23,1.23,0,0,0-.9-.28H178.5a1.24,1.24,0,0,0-.9.28,1.45,1.45,0,0,0-.28,1v2a1.44,1.44,0,0,0,.28,1,1.23,1.23,0,0,0,.9.28Zm-3.56,3.29a1.24,1.24,0,0,0-.9.28,1.45,1.45,0,0,0-.28,1v2.79a1.44,1.44,0,0,0,.28,1,1.23,1.23,0,0,0,.9.28h3.56a1,1,0,0,0,1.18-1.24V67.06a1.49,1.49,0,0,0-.26-1,1.32,1.32,0,0,0-.95-.26Z"/></svg>