<?xml version="1.0" encoding="utf-8"?>
<!-- Generator: Adobe Illustrator 24.1.0, SVG Export Plug-In . SVG Version: 6.00 Build 0)  -->
<svg version="1.1" id="Layer_1" xmlns="http://www.w3.org/2000/svg" xmlns:xlink="http://www.w3.org/1999/xlink" x="0px" y="0px"
	 viewBox="0 0 259.2 90" style="enable-background:new 0 0 259.2 90;" xml:space="preserve">
<style type="text/css">
	.st0{fill:#FFC51B;}
	.st1{fill:none;stroke:#231F20;}
</style>
<path d="M9.9,56.7c33.1-33,77-50.1,121.1-50.1c42.8,0,85.7,16.1,119.1,49.5l-24.5,27.9H33.8L9.9,56.7z"/>
<g>
	<text transform="matrix(1 0 0 1 40.2886 -636.8516)" style="fill:#231F20; font-family:'Serpentine-Bold'; font-size:16px;">RM</text>
	<text transform="matrix(1 0 0 1 63.3586 -636.8516)" style="fill:#231F20; font-family:'Serpentine-Bold'; font-size:16px;">N</text>
	<text transform="matrix(1 0 0 1 74.6686 -636.8516)" style="fill:#231F20; font-family:'Serpentine-Bold'; font-size:16px;"> OFF</text>
	<text transform="matrix(1 0 0 1 107.8686 -636.8516)" style="fill:#231F20; font-family:'Serpentine-Bold'; font-size:16px;">I</text>
	<text transform="matrix(1 0 0 1 112.4786 -636.8516)" style="fill:#231F20; font-family:'Serpentine-Bold'; font-size:16px;">CER</text>
	<text transform="matrix(1 0 0 1 140.6386 -636.8516)" style="fill:#231F20; font-family:'Serpentine-Bold'; font-size:16px;"> </text>
	<text transform="matrix(1 0 0 1 144.8186 -636.8516)" style="fill:#231F20; font-family:'Serpentine-Bold'; font-size:16px;">UN</text>
	<text transform="matrix(1 0 0 1 167.2986 -636.8516)" style="fill:#231F20; font-family:'Serpentine-Bold'; font-size:16px;">I</text>
	<text transform="matrix(1 0 0 1 171.8986 -636.8516)" style="fill:#231F20; font-family:'Serpentine-Bold'; font-size:16px;">F</text>
	<text transform="matrix(1 0 0 1 206.5444 -636.8516)" style="fill:#231F20; font-family:'Serpentine-Bold'; font-size:16px;">O</text>
	<text transform="matrix(1 0 0 1 218.896 -636.8516)" style="fill:#231F20; font-family:'Serpentine-Bold'; font-size:16px;">RM</text>
	<text transform="matrix(1 0 0 1 241.966 -636.8516)" style="fill:#231F20; font-family:'Serpentine-Bold'; font-size:16px;">S</text>
</g>
<g>
	<text transform="matrix(1 0 0 1 -85.4648 -592.2217)" style="fill:#FFFFFF; font-family:'Serpentine-Bold'; font-size:18px;">SERVICE D</text>
	<text transform="matrix(1 0 0 1 33.8352 -592.2217)" style="fill:#FFFFFF; font-family:'Serpentine-Bold'; font-size:18px;">R</text>
	<text transform="matrix(1 0 0 1 49.8652 -592.2217)" style="fill:#FFFFFF; font-family:'Serpentine-Bold'; font-size:18px;">E</text>
	<text transform="matrix(1 0 0 1 63.5152 -592.2217)" style="fill:#FFFFFF; font-family:'Serpentine-Bold'; font-size:18px;">S</text>
	<text transform="matrix(1 0 0 1 78.1052 -592.2217)" style="fill:#FFFFFF; font-family:'Serpentine-Bold'; font-size:18px;">S UN</text>
	<text transform="matrix(1 0 0 1 134.8852 -592.2217)" style="fill:#FFFFFF; font-family:'Serpentine-Bold'; font-size:18px;">I</text>
	<text transform="matrix(1 0 0 1 132.5337 -592.2217)" style="fill:#FFFFFF; font-family:'Serpentine-Bold'; font-size:18px;">F</text>
	<text transform="matrix(1 0 0 1 144.8813 -592.2217)" style="fill:#FFFFFF; font-family:'Serpentine-Bold'; font-size:18px;">O</text>
	<text transform="matrix(1 0 0 1 160.7813 -592.2217)" style="fill:#FFFFFF; font-family:'Serpentine-Bold'; font-size:18px;">R</text>
	<text transform="matrix(1 0 0 1 175.5894 -592.2217)" style="fill:#FFFFFF; font-family:'Serpentine-Bold'; font-size:18px;">M</text>
</g>
<g>
	<g>
		<path id="SVGID_3_" class="st0" d="M9.9,56.7c33.1-33,77-50.1,121.1-50.1c42.8,0,85.7,16.1,119.1,49.5l-24.5,27.9H33.8L9.9,56.7z
			 M97,4.4c-11.2,2.2-22.2,5.5-32.8,9.8c-10.7,4.4-21,9.8-30.7,16.2C23.7,36.9,14.4,44.5,6,52.9c-2,2-2.1,5.2-0.2,7.4l23.9,27.3
			c1,1.2,2.5,1.8,4.1,1.8h191.7c1.6,0,3-0.7,4.1-1.8L254,59.7c1.9-2.1,1.8-5.4-0.2-7.4c-33-33-76.6-51.1-122.9-51.1
			C119.6,1.2,108.2,2.3,97,4.4"/>
	</g>
</g>
<path class="st1" d="M9.9,56.7c33.1-33,77-50.1,121.1-50.1c42.8,0,85.7,16.1,119.1,49.5"/>
<g>
	<path class="st0" d="M48.3,45.6l2.7,4.5c0.6,0.9,1.3,1.6,2.1,2l-7.4,4.5c0.1-0.9-0.2-1.8-0.8-2.8l-6.8-11.3c-0.6-0.9-1.3-1.6-2.1-2
		l7.4-4.5c0,0.9,0.2,1.8,0.8,2.8l2.5,4.1l4.6-2.8L48.8,36c-0.6-0.9-1.3-1.6-2.1-2l7.4-4.5c-0.1,0.9,0.2,1.8,0.8,2.8l6.8,11.3
		c0.6,1,1.3,1.6,2.1,2l-7.4,4.5c0-0.9-0.2-1.8-0.8-2.8l-2.7-4.5L48.3,45.6z"/>
	<path class="st0" d="M72.7,21.7l8.9-3.5C81.4,19,81.5,20,81.9,21l4.8,12.2c0.4,1,1,1.8,1.8,2.3l-8.1,3.2c0.2-0.9,0.1-1.8-0.3-2.9
		l-4.2-10.6l0.8,15L72,42.1l-9.7-11.5l4.2,10.6c0.4,1,1,1.8,1.8,2.3L64,45.3c0.2-0.9,0.1-1.8-0.3-2.9l-4.8-12.2
		c-0.4-1-1-1.8-1.8-2.3l8.9-3.5l7.3,8.6L72.7,21.7z"/>
	<path class="st0" d="M102.8,17.3c-0.3-0.1-0.5-0.2-0.7-0.2c-0.2,0-0.4-0.1-0.6-0.1s-0.5,0-0.7,0.1c-0.3,0-0.6,0.1-1.1,0.2l-6.3,1.4
		c-0.5,0.1-0.8,0.2-0.9,0.4s-0.2,0.5-0.1,0.8l0.1,0.6c0.1,0.2,0.1,0.5,0.2,0.6s0.2,0.2,0.3,0.3c0.1,0,0.3,0.1,0.5,0s0.4-0.1,0.8-0.1
		l4.5-1c0.6-0.1,1.1-0.2,1.5-0.3s0.8-0.1,1.1-0.1s0.6,0,0.8,0.1s0.4,0.2,0.6,0.3c0.4,0.2,0.8,0.6,1.1,1.1s0.5,1,0.7,1.6l1.1,5
		c0.3,1.2,0.1,2.2-0.5,3.1c-0.2,0.2-0.3,0.4-0.5,0.6s-0.4,0.3-0.7,0.4c-0.3,0.1-0.6,0.2-0.9,0.4c-0.4,0.1-0.8,0.2-1.3,0.3l-12.1,2.8
		L88.1,32c0.3,0.1,0.6,0.2,0.8,0.2s0.5,0,0.8,0s0.6-0.1,1-0.1s0.9-0.2,1.5-0.3l5.3-1.2c0.2,0,0.4-0.1,0.6-0.1c0.2,0,0.2-0.1,0.3-0.1
		c0.1,0,0.1,0,0.2-0.1s0.1,0,0.1-0.1c0.1-0.1,0.2-0.2,0.2-0.3c0-0.1,0-0.3-0.1-0.6l-0.1-0.6c-0.1-0.5-0.2-0.7-0.4-0.9
		s-0.4-0.1-0.7-0.1l-5.1,1.2c-0.6,0.1-1,0.2-1.4,0.3s-0.8,0.1-1.1,0.1s-0.6,0-0.8,0c-0.2,0-0.4-0.1-0.6-0.2
		c-0.8-0.4-1.4-1.4-1.8-2.8l-1.2-5c-0.3-1.2-0.1-2.3,0.5-3.2c0.2-0.2,0.3-0.4,0.5-0.6c0.2-0.2,0.4-0.3,0.7-0.4
		c0.3-0.1,0.6-0.2,0.9-0.4s0.8-0.2,1.3-0.4l11.8-2.7L102.8,17.3z"/>
	<path class="st0" d="M131.5,14.7c-0.2-0.1-0.5-0.2-0.6-0.3s-0.4-0.1-0.6-0.1c-0.2,0-0.4,0-0.7,0s-0.7,0-1.1,0l-7.1,0.4
		c-0.5,0-0.8,0.1-1,0.2s-0.4,0.2-0.6,0.5c-0.1,0.1-0.1,0.3-0.2,0.5c0,0.2,0,0.6,0,1.1l0.4,8.1c0,0.3,0,0.5,0.1,0.6
		c0,0.2,0,0.3,0.1,0.4s0,0.2,0.1,0.3c0,0.1,0.1,0.2,0.1,0.2c0.2,0.2,0.4,0.3,0.6,0.4c0.2,0.1,0.6,0.1,1.1,0.1l2-0.1
		c0.6,0,1-0.2,1.2-0.5c0.1-0.1,0.1-0.3,0.2-0.4c0-0.1,0-0.5,0-1l-0.2-3.2l-1.8,0.1c-0.5,0-0.9,0.1-1.2,0.2s-0.7,0.2-1,0.4l-0.2-3.4
		l11.8-0.6c-0.5,0.8-0.7,1.7-0.6,2.8l0.3,5.6c0.1,1.1,0.4,2,0.9,2.7l-6.2,0.3c-0.1-0.2-0.1-0.3-0.2-0.4c0-0.1-0.1-0.3-0.1-0.4
		s-0.1-0.3-0.1-0.5s-0.1-0.4-0.1-0.7c0,0.4-0.1,0.7-0.2,1s-0.3,0.5-0.5,0.6c-0.2,0.2-0.6,0.3-1,0.4c-0.4,0.1-0.9,0.1-1.6,0.2
		l-5.4,0.3c-0.5,0-1,0-1.4,0c-0.4,0-0.7,0-1-0.1s-0.6-0.1-0.8-0.2c-0.2-0.1-0.4-0.2-0.6-0.4c-0.4-0.3-0.7-0.7-0.9-1.2
		s-0.4-1-0.4-1.6l-0.6-10.9c0-0.6,0-1.2,0.2-1.7c0.2-0.5,0.4-1,0.8-1.3c0.4-0.4,0.8-0.6,1.3-0.8s1.3-0.3,2.4-0.3l13.4-0.7
		L131.5,14.7z"/>
	<path class="st0" d="M149.9,31l-16.3-1.2c0.6-0.7,0.9-1.6,1-2.7l1-13.1c0.1-1.1-0.1-2-0.6-2.8l8.7,0.6c-0.6,0.7-0.9,1.6-1,2.7
		l-0.9,12.8l6.6,0.5c0.5,0,0.9,0,1.3-0.1s0.8-0.2,1.1-0.5L149.9,31z"/>
	<path class="st0" d="M169.6,15.9l2.9,17.5c0.1,0.4,0.2,0.8,0.4,1.2c0.2,0.5,0.4,0.8,0.6,1.2l-9.2-2c0.4-0.3,0.6-0.7,0.7-1.1
		c0.1-0.5,0.1-1.1-0.1-1.9l-0.4-2.1l-7.5-1.6l-1.7,2.2c-0.3,0.5-0.5,0.9-0.6,1.2c0,0.2-0.1,0.3,0,0.5c0,0.2,0.1,0.4,0.1,0.7
		l-5.1-1.1c0.3-0.2,0.6-0.4,0.8-0.6c0.2-0.2,0.5-0.4,0.7-0.6c0.2-0.2,0.4-0.5,0.7-0.7s0.5-0.6,0.8-1l9.4-12.3
		c-0.1-0.3-0.1-0.5-0.2-0.7s-0.2-0.4-0.3-0.6L169.6,15.9z M162.7,19.3l-3.8,5.1l4.9,1.1L162.7,19.3z"/>
	<path class="st0" d="M172.6,36c0.7-0.5,1.3-1.3,1.6-2.4l4.2-12.5c0.4-1,0.4-2,0.1-2.9l8.2,2.8c-0.7,0.5-1.3,1.3-1.6,2.4L181,35.9
		c-0.4,1-0.4,2-0.1,2.9L172.6,36z"/>
	<path class="st0" d="M203.1,31.2c0.5-0.5,0.9-1.1,1.2-1.6c0.1-0.1,0.1-0.3,0.2-0.4c0-0.1,0.1-0.3,0.1-0.5l4.3,2
		c-0.3,0.1-0.5,0.1-0.7,0.2c-0.2,0.1-0.4,0.2-0.7,0.4c-0.2,0.2-0.5,0.4-0.8,0.6c-0.3,0.3-0.6,0.6-0.9,0.9l-11.8,11.6l-7.1-3.2
		l1.4-16.8c0-0.4,0.1-0.7,0.1-0.9c0-0.3,0-0.5,0-0.8c0-0.2,0-0.5,0-0.7s-0.1-0.5-0.1-0.8l7.9,3.6c-0.2,0.2-0.3,0.3-0.4,0.4
		c-0.1,0.1-0.2,0.2-0.2,0.4c-0.2,0.5-0.4,1.2-0.4,2l-1.1,12.5L203.1,31.2z"/>
	<path class="st0" d="M212.6,42l4.9,3c0.3,0.2,0.5,0.3,0.7,0.5s0.4,0.2,0.6,0.3s0.4,0.1,0.5,0.2s0.4,0.1,0.6,0.1l-2.1,3.4
		c-0.2-0.5-0.8-1.1-1.5-1.5l-5.3-3.3l-2.6,4.1l5.9,3.7c0.3,0.2,0.6,0.3,1,0.5s0.9,0.2,1.6,0.4l-2.5,2.9L200,47.3
		c0.8-0.4,1.6-1,2.1-1.9l7-11.2c0.6-0.9,0.9-1.9,0.8-2.8l14,8.7l-1.4,3.3c-0.2-0.2-0.4-0.4-0.5-0.6s-0.3-0.3-0.5-0.4
		c-0.2-0.1-0.4-0.3-0.6-0.5c-0.2-0.2-0.6-0.4-1-0.6l-4.9-3.1L212.6,42z"/>
</g>
<g>
	<path class="st0" d="M95.5,59.2c-0.3-0.2-0.5-0.3-0.7-0.4s-0.5-0.2-0.7-0.2c-0.3-0.1-0.6-0.1-1-0.1s-0.8,0-1.4,0h-4.3
		c-0.6,0-1.1,0-1.3,0.1s-0.4,0.2-0.6,0.4c-0.1,0.1-0.2,0.2-0.2,0.3s-0.1,0.2-0.1,0.4c0,0.2-0.1,0.3-0.1,0.6c0,0.2,0,0.5,0,0.9v8.8
		c0,0.6,0.1,1,0.2,1.3c0.1,0.3,0.3,0.6,0.5,0.8c0.2,0.2,0.4,0.3,0.7,0.3c0.3,0.1,0.7,0.1,1.3,0.1h4.1c0.5,0,0.9,0,1.2,0
		s0.7-0.1,1-0.1c0.3,0,0.6-0.1,0.8-0.2s0.6-0.2,0.9-0.3l-0.7,4.1H82.5c-1.7,0-3-0.6-4-1.7c-0.5-0.5-0.8-1.1-1-1.7
		c-0.2-0.6-0.3-1.5-0.3-2.5v-8.8c0-1.1,0.1-1.9,0.3-2.5s0.5-1.2,1-1.7c1-1.1,2.3-1.7,4-1.7h12.3L95.5,59.2z"/>
	<path class="st0" d="M114.7,54.9l7.2,18.3c0.2,0.4,0.4,0.8,0.7,1.3c0.3,0.4,0.6,0.8,0.9,1.2h-10.4c0.3-0.4,0.5-0.9,0.5-1.4
		c0-0.6-0.2-1.2-0.5-2l-1-2.2h-8.5l-1.3,2.8c-0.2,0.6-0.4,1.1-0.4,1.4c0,0.2,0,0.4,0.1,0.6c0.1,0.2,0.2,0.4,0.3,0.8h-5.8
		c0.3-0.3,0.5-0.6,0.7-0.8c0.2-0.3,0.4-0.6,0.6-0.8c0.2-0.3,0.4-0.6,0.6-1c0.2-0.3,0.4-0.8,0.6-1.2l7.3-15.6
		c-0.1-0.3-0.2-0.5-0.4-0.7c-0.1-0.2-0.3-0.3-0.5-0.6L114.7,54.9L114.7,54.9z M108.1,60.3l-2.9,6.4h5.5L108.1,60.3z"/>
	<path class="st0" d="M136.5,69.6h-10.9v-3.9h10.9V69.6z"/>
	<path class="st0" d="M161,54.9l0.6,4.3c-0.2-0.2-0.4-0.3-0.6-0.5c-0.2-0.1-0.4-0.2-0.6-0.2c-0.2,0-0.5-0.1-0.9-0.1s-0.8,0-1.3,0
		H148v4.1h8.1c0.6,0,1,0,1.4,0c0.4,0,0.8,0.1,1,0.1c0.3,0.1,0.5,0.2,0.8,0.3s0.4,0.3,0.6,0.5c0.5,0.4,0.8,0.9,1,1.4
		c0.2,0.5,0.3,1.2,0.3,2.1V71c0,3.1-1.6,4.6-4.7,4.6h-15.9l-0.6-4.7c0.4,0.3,0.7,0.5,0.9,0.7s0.5,0.3,0.8,0.4s0.6,0.1,1.1,0.1
		s1,0,1.6,0h6.9c0.5,0,0.9,0,1.2-0.1c0.3,0,0.5-0.1,0.6-0.2c0.1-0.1,0.2-0.3,0.3-0.5s0.1-0.5,0.1-0.9v-2.9c0-0.4,0-0.7-0.1-0.9
		c0-0.2-0.1-0.4-0.3-0.5s-0.4-0.2-0.6-0.2s-0.6-0.1-1-0.1h-7.6c-0.5,0-0.9,0-1.2,0.1s-0.7,0.1-0.9,0.2s-0.5,0.2-0.8,0.3
		c-0.2,0.1-0.5,0.3-0.7,0.5l0.4-12C140.6,54.9,161,54.9,161,54.9z"/>
	<path class="st0" d="M181.5,54.9c1.5,0,2.8,0.5,3.7,1.3c0.3,0.3,0.5,0.6,0.7,0.8c0.2,0.3,0.3,0.6,0.4,0.9c0.1,0.3,0.2,0.7,0.2,1.2
		c0.1,0.4,0.1,0.9,0.1,1.5v9.1c0,0.6,0,1.1-0.1,1.5s-0.1,0.8-0.2,1.2c-0.1,0.3-0.3,0.7-0.4,0.9s-0.4,0.6-0.7,0.8
		c-0.9,0.9-2.1,1.3-3.7,1.3h-12.1c-1.5,0-2.8-0.4-3.7-1.3c-0.3-0.3-0.5-0.6-0.7-0.8c-0.2-0.3-0.3-0.6-0.4-0.9
		c-0.1-0.3-0.2-0.7-0.2-1.2s-0.1-0.9-0.1-1.5v-9.1c0-0.6,0-1.1,0.1-1.5s0.1-0.8,0.2-1.2c0.1-0.3,0.3-0.7,0.4-0.9s0.4-0.6,0.7-0.8
		c0.9-0.9,2.1-1.3,3.7-1.3H181.5z M172.1,69.9c0,0.4,0,0.8,0.1,1.1s0.2,0.5,0.3,0.7s0.4,0.3,0.6,0.3s0.6,0.1,1.1,0.1h2.5
		c0.4,0,0.8,0,1.1-0.1c0.3-0.1,0.5-0.2,0.6-0.3c0.2-0.2,0.3-0.4,0.3-0.7s0.1-0.7,0.1-1.1v-9.4c0-0.5,0-0.8-0.1-1.1s-0.2-0.5-0.3-0.7
		c-0.1-0.2-0.4-0.3-0.6-0.3s-0.6-0.1-1.1-0.1h-2.5c-0.4,0-0.8,0-1.1,0.1c-0.3,0.1-0.5,0.2-0.6,0.3s-0.3,0.4-0.3,0.7
		s-0.1,0.7-0.1,1.1V69.9z"/>
</g>
</svg>
