<svg id="Layer_1" data-name="Layer 1" xmlns="http://www.w3.org/2000/svg" viewBox="0 0 250.93 88.19"><defs><style>.cls-1{fill:#231f20;}.cls-2{fill:#ffc418;}.cls-3{fill:none;stroke:#231f20;}</style></defs><title>CL-398</title><path class="cls-1" d="M5.4,55.53a171.41,171.41,0,0,1,121-50.13A167.4,167.4,0,0,1,245.53,54.93L221,82.78H29.31Z"/><path class="cls-2" d="M5.4,55.53a171.41,171.41,0,0,1,121-50.13A167.4,167.4,0,0,1,245.53,54.92L221,82.78H29.31ZM92.56,3.29a177,177,0,0,0-91,48.41,5.4,5.4,0,0,0-.25,7.39L25.25,86.35a5.4,5.4,0,0,0,4.06,1.84H221a5.39,5.39,0,0,0,4.05-1.83l24.52-27.86a5.39,5.39,0,0,0-.24-7.38A172.77,172.77,0,0,0,126.45,0,176.66,176.66,0,0,0,92.56,3.29"/><path class="cls-3" d="M5.4,55.53a171.42,171.42,0,0,1,121-50.13A167.4,167.4,0,0,1,245.53,54.93"/><path class="cls-2" d="M59,34.75l-1.55-3.14a8.34,8.34,0,0,0-.79-1.36,4.73,4.73,0,0,0-.81-.79l6.11-3a4.27,4.27,0,0,0,.16,1.13A8.22,8.22,0,0,0,62.66,29l4.46,9a8.36,8.36,0,0,0,.79,1.36,4.68,4.68,0,0,0,.81.79l-6.11,3a4.28,4.28,0,0,0-.16-1.13,8.18,8.18,0,0,0-.58-1.45L60.09,37,56.18,39,58,42.58a8.34,8.34,0,0,0,.79,1.36,4.71,4.71,0,0,0,.81.79l-6.11,3a4.3,4.3,0,0,0-.16-1.13,8.24,8.24,0,0,0-.58-1.45l-4.47-9a8.36,8.36,0,0,0-.79-1.36,4.73,4.73,0,0,0-.81-.79l6.11-3a4.28,4.28,0,0,0,.16,1.13,8.17,8.17,0,0,0,.58,1.45l1.55,3.14Z"/><path class="cls-2" d="M77.66,20.81l7.44-2.49a4.68,4.68,0,0,0,0,1.12A7.42,7.42,0,0,0,85.47,21l3.19,9.56a8.35,8.35,0,0,0,.6,1.47,4.19,4.19,0,0,0,.71.88l-6.49,2.17a4.31,4.31,0,0,0,0-1.14,8.2,8.2,0,0,0-.38-1.52l-3-9-.24,12.83L76,37.56l-7.79-10.3,2.95,9a10.56,10.56,0,0,0,.65,1.65,2.9,2.9,0,0,0,.78.82L69.1,39.87a2.86,2.86,0,0,0,.14-1.11,10.34,10.34,0,0,0-.46-1.69l-3.12-9.33A10.34,10.34,0,0,0,65,26.1a2.86,2.86,0,0,0-.78-.8l7.65-2.55,5.54,7.33Z"/><path class="cls-2" d="M102.74,18.14a7.18,7.18,0,0,0-1.16-.21,4.68,4.68,0,0,0-1.28.09l-5.35,1a2.22,2.22,0,0,0-.87.29q-.19.16-.11.58l.17.85c.05.28.16.45.32.5a2.2,2.2,0,0,0,.92-.06l4.08-.79a4.76,4.76,0,0,1,3,.15,2.8,2.8,0,0,1,1.38,2.15l.71,3.67a4.21,4.21,0,0,1-.26,2.95,3.67,3.67,0,0,1-2.63,1.45l-10.37,2L90.21,30a7.86,7.86,0,0,0,1.1.11A5.79,5.79,0,0,0,92.55,30l5.56-1.08a2.14,2.14,0,0,0,.85-.29c.13-.11.16-.3.11-.58l-.2-1q-.08-.4-.32-.49a2,2,0,0,0-.9,0L93,27.47a3.51,3.51,0,0,1-2.61-.22,3.68,3.68,0,0,1-1.21-2.43l-.66-3.37a3.93,3.93,0,0,1,.31-2.82A3.06,3.06,0,0,1,91,17.25l10.67-2.08Z"/><path class="cls-2" d="M118.44,24.8l-1,2.13a2,2,0,0,0-.2.92,2.07,2.07,0,0,0,.06.54,3.36,3.36,0,0,0,.3.56l-4.34.09q.68-.9,1-1.44a11.48,11.48,0,0,0,.69-1.38l5.36-11.82-.69-.85,6.93-.14,5.73,13.14a7.2,7.2,0,0,0,1.39,2.08l-7.7.15a3.64,3.64,0,0,0,.25-.59,1.4,1.4,0,0,0,.06-.42,2.89,2.89,0,0,0-.24-1.15l-.88-2Zm5.68-2.66L121.84,17l-2.25,5.24Z"/><path class="cls-2" d="M137.39,16.35l-1.09,9.9a10.18,10.18,0,0,0-.09,1.75,2.87,2.87,0,0,0,.37,1.05l-3.68-.39a2.86,2.86,0,0,0,.58-1,10.41,10.41,0,0,0,.28-1.73l1-9.79a10.24,10.24,0,0,0,.09-1.75,2.87,2.87,0,0,0-.37-1.05l8.19.86,4.9,13.11,1.09-9.71a10.24,10.24,0,0,0,.09-1.75,2.87,2.87,0,0,0-.37-1.05l3.68.39a2.85,2.85,0,0,0-.58,1,10.2,10.2,0,0,0-.28,1.73l-1.31,12.53-7.54-.79Z"/><path class="cls-2" d="M167.05,21.71a6.72,6.72,0,0,0-1-.64,4.63,4.63,0,0,0-1.22-.42l-4.1-.9q-1.12-.25-1.34.71l-1.78,8.11q-.21,1,.91,1.21l3.24.71a14.73,14.73,0,0,0,2.23.38,5.11,5.11,0,0,0,1.34-.18l-1.16,2.94-9.24-2a3.8,3.8,0,0,1-2.62-1.64,5,5,0,0,1-.21-3.6l1.36-6.19A5,5,0,0,1,155.2,17a3.77,3.77,0,0,1,3.08-.41l9,2Z"/><path class="cls-2" d="M165.22,34a4.26,4.26,0,0,0,.66-.93,8.26,8.26,0,0,0,.57-1.46L169.38,22a8.34,8.34,0,0,0,.35-1.54,4.77,4.77,0,0,0,0-1.13l6.52,2a4.27,4.27,0,0,0-.66.93,8.15,8.15,0,0,0-.57,1.46L172,33.34a8.42,8.42,0,0,0-.35,1.54,4.72,4.72,0,0,0,0,1.13Z"/><path class="cls-2" d="M184.5,38.08a7.36,7.36,0,0,0,1.48.44,3.13,3.13,0,0,0,1.05,0l-1.58,2.66-12.34-4.82a4.28,4.28,0,0,0,.73-.87,8.24,8.24,0,0,0,.68-1.41l3.67-9.39a8.35,8.35,0,0,0,.47-1.5,4.74,4.74,0,0,0,0-1.13L185,24.53a4.29,4.29,0,0,0-.73.88,8.15,8.15,0,0,0-.68,1.41l-3.7,9.48Z"/><path class="cls-2" d="M197,44.17a9,9,0,0,0,1.32.58,8.64,8.64,0,0,0,1.22.25l-1.81,2.39-12.07-6.12a4.26,4.26,0,0,0,.81-.8,8.19,8.19,0,0,0,.81-1.34l4.56-9a8.26,8.26,0,0,0,.61-1.45,4.73,4.73,0,0,0,.15-1.12l11.86,6-1,3a11,11,0,0,0-.86-.89,5.57,5.57,0,0,0-1.25-.82l-4.26-2.16-1.63,3.21,3.72,1.89a8.7,8.7,0,0,0,1.29.56,10.82,10.82,0,0,0,1.25.27l-1.52,3a11.79,11.79,0,0,0-.91-.78,7.83,7.83,0,0,0-1.26-.78l-3.72-1.89-1.87,3.68Z"/><path class="cls-2" d="M86.36,58.63A8.67,8.67,0,0,0,85,58.08a5.92,5.92,0,0,0-1.66-.2H77.89q-1.49,0-1.49,1.27V69.88q0,1.27,1.49,1.27h4.28A18.85,18.85,0,0,0,85.08,71a6.6,6.6,0,0,0,1.64-.6l-.65,4H73.86a4.9,4.9,0,0,1-3.77-1.35q-1.26-1.35-1.25-4.48V60.43q0-3.1,1.25-4.46a4.87,4.87,0,0,1,3.77-1.36h11.9Z"/><path class="cls-2" d="M102.88,71.15a9.54,9.54,0,0,0,2-.17,4.07,4.07,0,0,0,1.27-.48l-.65,3.94H88.37A5.56,5.56,0,0,0,88.83,73,10.61,10.61,0,0,0,89,71V58a10.82,10.82,0,0,0-.14-2,6.15,6.15,0,0,0-.48-1.38h8.8A5.53,5.53,0,0,0,96.71,56a10.63,10.63,0,0,0-.16,2V71.15Z"/><path class="cls-2" d="M107.09,64.55H118v5.21H107.09Z"/><path class="cls-2" d="M133.72,54.6a7.21,7.21,0,0,1,4.15.91,3.6,3.6,0,0,1,1.24,3.11v3.32a2.14,2.14,0,0,1-1.07,2,7.29,7.29,0,0,1-3.55.64q2.88,0,3.75.74a3.14,3.14,0,0,1,.87,2.55V71a3.32,3.32,0,0,1-.93,2.52,4.36,4.36,0,0,1-3.07.89H120.05l-.71-4.25a10.49,10.49,0,0,0,1.64.73,5.88,5.88,0,0,0,1.8.23h7.41a1.78,1.78,0,0,0,1.1-.23,1.31,1.31,0,0,0,.26-1V67.22a1.36,1.36,0,0,0-.25-1,1.88,1.88,0,0,0-1.12-.22h-3.6a11.14,11.14,0,0,0-1.81.11,13.93,13.93,0,0,0-1.6.42V62.2a15.3,15.3,0,0,0,1.5.37,10.06,10.06,0,0,0,1.91.16h3.6a1.79,1.79,0,0,0,1.1-.23,1.31,1.31,0,0,0,.26-1V59.1a1.36,1.36,0,0,0-.25-1,1.88,1.88,0,0,0-1.12-.22h-8.06a5.25,5.25,0,0,0-1.44.15,8.58,8.58,0,0,0-1.35.59l.68-4Z"/><path class="cls-2" d="M153.19,71.15a2.42,2.42,0,0,0,1.44-.29,1.37,1.37,0,0,0,.36-1.1V66a3.84,3.84,0,0,1-.93,1.18,2,2,0,0,1-1.15.28h-6.29a5.33,5.33,0,0,1-3.5-1.15,3.77,3.77,0,0,1-1.39-3.07v-4.4a3.76,3.76,0,0,1,1.41-3.05,5.3,5.3,0,0,1,3.49-1.16h11a5.34,5.34,0,0,1,3.5,1.15,3.77,3.77,0,0,1,1.4,3.07V70.23a3.77,3.77,0,0,1-1.41,3.05,5.31,5.31,0,0,1-3.49,1.16H142.74l-.68-3.84a7.16,7.16,0,0,0,1.5.41,16.7,16.7,0,0,0,2.59.15Zm.56-7a1.51,1.51,0,0,0,1-.23A1.16,1.16,0,0,0,155,63V59a1.2,1.2,0,0,0-.25-.87,1.44,1.44,0,0,0-1-.25h-3.22a1.51,1.51,0,0,0-1,.23,1.15,1.15,0,0,0-.26.88v4a1.22,1.22,0,0,0,.25.87,1.43,1.43,0,0,0,1,.25Z"/><path class="cls-2" d="M181.8,54.6a4.56,4.56,0,0,1,3.3,1.07,4,4,0,0,1,1.1,3v1.86q0,2.08-1.12,2.68a10.23,10.23,0,0,1-3.63.85A6.59,6.59,0,0,1,185,65a3.07,3.07,0,0,1,1.18,2.71v2.67q0,4.09-4.4,4.09H169.53a4.44,4.44,0,0,1-3.27-1.1,4.21,4.21,0,0,1-1.1-3.11V67.48a3.21,3.21,0,0,1,1.18-2.79,6.06,6.06,0,0,1,3.53-.85q-3.07-.36-3.89-1.14a3.08,3.08,0,0,1-.82-2.34v-1.8q0-4,4.4-4Zm-4.34,7.87a1,1,0,0,0,1.18-1.24v-2a1.45,1.45,0,0,0-.28-1,1.23,1.23,0,0,0-.9-.28H173.9a1.24,1.24,0,0,0-.9.28,1.45,1.45,0,0,0-.28,1v2a1.44,1.44,0,0,0,.28,1,1.23,1.23,0,0,0,.9.28Zm-3.56,3.29a1.24,1.24,0,0,0-.9.28,1.45,1.45,0,0,0-.28,1v2.79a1.44,1.44,0,0,0,.28,1,1.23,1.23,0,0,0,.9.28h3.56a1,1,0,0,0,1.18-1.24V67.06a1.49,1.49,0,0,0-.26-1,1.32,1.32,0,0,0-.95-.26Z"/></svg>