<svg id="Layer_1" data-name="Layer 1" xmlns="http://www.w3.org/2000/svg" viewBox="0 0 250.93 88.19"><defs><style>.cls-1{fill:#ffc418;}</style></defs><title>CL-315</title><path d="M5.4,55.53a171.41,171.41,0,0,1,121-50.13A167.4,167.4,0,0,1,245.53,54.93L221,82.78H29.31Z"/><path class="cls-1" d="M5.4,55.53a171.41,171.41,0,0,1,121-50.13A167.4,167.4,0,0,1,245.53,54.92L221,82.78H29.31ZM92.56,3.29a177,177,0,0,0-91,48.41,5.4,5.4,0,0,0-.25,7.39L25.25,86.35a5.4,5.4,0,0,0,4.06,1.84H221a5.39,5.39,0,0,0,4.05-1.83l24.52-27.86a5.39,5.39,0,0,0-.24-7.38A172.77,172.77,0,0,0,126.45,0,176.66,176.66,0,0,0,92.56,3.29"/><path class="cls-1" d="M46.28,41.54l-1.83-3a8.35,8.35,0,0,0-.92-1.28,4.73,4.73,0,0,0-.88-.72L48.46,33a4.27,4.27,0,0,0,.26,1.11,8.2,8.2,0,0,0,.71,1.39l5.28,8.59a8.35,8.35,0,0,0,.92,1.28,4.73,4.73,0,0,0,.88.72l-5.81,3.57a4.3,4.3,0,0,0-.26-1.11,8.24,8.24,0,0,0-.71-1.39L47.61,43.7,43.89,46,46,49.43a8.31,8.31,0,0,0,.92,1.28,4.73,4.73,0,0,0,.88.72L42,55a4.32,4.32,0,0,0-.26-1.11A8.25,8.25,0,0,0,41,52.49l-5.28-8.59a8.36,8.36,0,0,0-.92-1.28,4.72,4.72,0,0,0-.88-.71l5.81-3.57A4.29,4.29,0,0,0,40,39.45a8.21,8.21,0,0,0,.71,1.39l1.83,3Z"/><path class="cls-1" d="M63.58,25.94l7.18-3.17a4.69,4.69,0,0,0,.08,1.12,7.43,7.43,0,0,0,.52,1.5l4.06,9.22A8.39,8.39,0,0,0,76.17,36a4.23,4.23,0,0,0,.79.81L70.7,39.59a4.28,4.28,0,0,0-.11-1.13A8.4,8.4,0,0,0,70.08,37l-3.81-8.65.95,12.8L63.5,42.76l-8.71-9.54,3.77,8.66a10.43,10.43,0,0,0,.8,1.58,2.88,2.88,0,0,0,.85.74l-3.38,1.49a2.85,2.85,0,0,0,0-1.12,10.22,10.22,0,0,0-.62-1.64l-4-9a10.29,10.29,0,0,0-.79-1.56,2.86,2.86,0,0,0-.85-.73L58,28.4l6.19,6.79Z"/><path class="cls-1" d="M88.32,21a7.21,7.21,0,0,0-1.18-.1,4.68,4.68,0,0,0-1.26.21L80.65,22.6a2.23,2.23,0,0,0-.84.37c-.12.12-.13.31-.05.59l.24.83q.12.41.36.47a2.18,2.18,0,0,0,.91-.14l4-1.17a4.76,4.76,0,0,1,3-.12,2.8,2.8,0,0,1,1.58,2L90.86,29a4.2,4.2,0,0,1,0,3,3.67,3.67,0,0,1-2.48,1.69l-10.14,3-1.32-2.71a8,8,0,0,0,1.1,0,5.87,5.87,0,0,0,1.23-.24l5.44-1.59a2.12,2.12,0,0,0,.82-.36q.17-.18.05-.59l-.3-1q-.11-.39-.36-.46a2,2,0,0,0-.89.12l-4.58,1.34a3.51,3.51,0,0,1-2.62,0,3.68,3.68,0,0,1-1.42-2.31l-1-3.29a3.93,3.93,0,0,1,0-2.84,3.05,3.05,0,0,1,2-1.57L87,18.1Z"/><path class="cls-1" d="M116.84,19.64a5.34,5.34,0,0,0-.46,1.24,4.61,4.61,0,0,0,0,1.23l.43,3.77a11.48,11.48,0,0,0,.31,1.88,3.66,3.66,0,0,0,.65,1l-5.13.59L112.32,28a2.52,2.52,0,0,1-.54,1.17,2.56,2.56,0,0,1-1.47.48l-5.15.59a3.79,3.79,0,0,1-3-.7,5,5,0,0,1-1.36-3.33l-.73-6.29a5,5,0,0,1,.57-3.54A3.77,3.77,0,0,1,103.41,15l11.16-1.28.81,3a6.86,6.86,0,0,0-1.11-.3,4.61,4.61,0,0,0-1.29,0l-6.17.71q-1.14.13-1,1.11l1,8.25q.11,1,1.26.85l2-.22q1.15-.13,1-1.11l-.36-3.12-2.17.25a1.5,1.5,0,0,0-.57.17l-.37.22-.32-2.81Z"/><path class="cls-1" d="M122.17,24.64l-1,2.1a2,2,0,0,0-.22.91,2.1,2.1,0,0,0,0,.54,3.31,3.31,0,0,0,.28.57l-4.34,0q.7-.88,1-1.41a11.52,11.52,0,0,0,.73-1.36l5.68-11.67-.67-.87,6.94.05L136,26.76a7.2,7.2,0,0,0,1.33,2.12l-7.7-.06a3.78,3.78,0,0,0,.27-.59,1.41,1.41,0,0,0,.08-.42,2.92,2.92,0,0,0-.21-1.15l-.83-2Zm5.76-2.5-2.15-5.21-2.39,5.18Z"/><path class="cls-1" d="M148.35,27.79a7.33,7.33,0,0,0,1.54,0,3.11,3.11,0,0,0,1-.26l-.85,3L136.9,29a4.32,4.32,0,0,0,.48-1,8.17,8.17,0,0,0,.3-1.54l1.15-10a8.38,8.38,0,0,0,.07-1.57,4.78,4.78,0,0,0-.25-1.1l6.77.78a4.32,4.32,0,0,0-.48,1,8.18,8.18,0,0,0-.3,1.54l-1.16,10.11Z"/><path class="cls-1" d="M162,30.5a7.27,7.27,0,0,0,1.53.19,3.1,3.1,0,0,0,1-.16l-1.13,2.88-13-2.75a4.31,4.31,0,0,0,.58-1,8.24,8.24,0,0,0,.44-1.5l2.09-9.86a8.33,8.33,0,0,0,.22-1.56,4.75,4.75,0,0,0-.14-1.12L160.34,17a4.28,4.28,0,0,0-.58,1,8.24,8.24,0,0,0-.44,1.5l-2.11,10Z"/><path class="cls-1" d="M168.72,30.69l-1.65,1.68a2,2,0,0,0-.49.8,2.14,2.14,0,0,0-.12.53,3.37,3.37,0,0,0,.1.63l-4.12-1.37q.94-.62,1.43-1A11.56,11.56,0,0,0,165,30.85l9-9.34-.36-1,6.58,2.19,1,14.3a7.2,7.2,0,0,0,.61,2.43L174.5,37a3.74,3.74,0,0,0,.44-.47,1.4,1.4,0,0,0,.2-.38,2.92,2.92,0,0,0,.16-1.16l-.18-2.13Zm6.25-.6-.43-5.62-3.87,4.19Z"/><path class="cls-1" d="M189.4,29.09,185,38a10.25,10.25,0,0,0-.67,1.62,2.85,2.85,0,0,0,0,1.12L181,39.18a2.85,2.85,0,0,0,.87-.7,10.3,10.3,0,0,0,.85-1.54L187,28.08a10.25,10.25,0,0,0,.67-1.62,2.86,2.86,0,0,0,0-1.12l7.42,3.57.19,14,4.3-8.77a10.25,10.25,0,0,0,.67-1.62,2.84,2.84,0,0,0,0-1.12l3.33,1.6a2.85,2.85,0,0,0-.87.7,10.18,10.18,0,0,0-.85,1.54l-5.47,11.35-6.83-3.29Z"/><path class="cls-1" d="M217.59,41.78l-1.26,2.9a4.8,4.8,0,0,0-.59-.88,4.26,4.26,0,0,0-.95-.77l-2.25-1.42-5.42,8.61a8.33,8.33,0,0,0-.75,1.39,4.69,4.69,0,0,0-.25,1.1l-5.77-3.63a4.31,4.31,0,0,0,.88-.72,8.28,8.28,0,0,0,.93-1.26l5.42-8.61-2.25-1.42a4,4,0,0,0-1.08-.52,5.31,5.31,0,0,0-1.11-.11L205.24,34Z"/><path class="cls-1" d="M90.94,58.63a8.67,8.67,0,0,0-1.38-.55,5.92,5.92,0,0,0-1.66-.2H82.48Q81,57.89,81,59.16V69.88q0,1.27,1.49,1.27h4.28A18.85,18.85,0,0,0,89.67,71a6.6,6.6,0,0,0,1.64-.6l-.65,4H78.45a4.9,4.9,0,0,1-3.77-1.35q-1.26-1.35-1.25-4.48V60.43q0-3.1,1.25-4.46a4.87,4.87,0,0,1,3.77-1.36h11.9Z"/><path class="cls-1" d="M107.47,71.15a9.54,9.54,0,0,0,2-.17,4.07,4.07,0,0,0,1.27-.48l-.65,3.94H93A5.56,5.56,0,0,0,93.42,73a10.61,10.61,0,0,0,.16-2V58a10.82,10.82,0,0,0-.14-2A6.15,6.15,0,0,0,93,54.6h8.8A5.53,5.53,0,0,0,101.3,56a10.63,10.63,0,0,0-.16,2V71.15Z"/><path class="cls-1" d="M111.68,64.55h10.91v5.21H111.68Z"/><path class="cls-1" d="M138.31,54.6a7.21,7.21,0,0,1,4.15.91,3.6,3.6,0,0,1,1.24,3.11v3.32a2.14,2.14,0,0,1-1.07,2,7.29,7.29,0,0,1-3.55.64q2.88,0,3.75.74a3.14,3.14,0,0,1,.87,2.55V71a3.32,3.32,0,0,1-.93,2.52,4.36,4.36,0,0,1-3.07.89H124.64l-.71-4.25a10.49,10.49,0,0,0,1.64.73,5.88,5.88,0,0,0,1.8.23h7.41a1.78,1.78,0,0,0,1.1-.23,1.31,1.31,0,0,0,.26-1V67.22a1.36,1.36,0,0,0-.25-1,1.88,1.88,0,0,0-1.12-.22h-3.6a11.15,11.15,0,0,0-1.81.11,13.93,13.93,0,0,0-1.6.42V62.2a15.35,15.35,0,0,0,1.5.37,10.07,10.07,0,0,0,1.91.16h3.6a1.79,1.79,0,0,0,1.1-.23,1.31,1.31,0,0,0,.26-1V59.1a1.36,1.36,0,0,0-.25-1,1.88,1.88,0,0,0-1.12-.22h-8.06a5.25,5.25,0,0,0-1.44.15,8.58,8.58,0,0,0-1.35.59l.68-4Z"/><path class="cls-1" d="M156.38,71.71a6,6,0,0,0,.17,1.63,3.75,3.75,0,0,0,.54,1.1h-9a3.28,3.28,0,0,0,.51-1.07,6.41,6.41,0,0,0,.17-1.66V60.61H146v-3.5l8.37-2.51h2Z"/><path class="cls-1" d="M168.5,61.79h8.09a5.28,5.28,0,0,1,3.8,1.1,4.67,4.67,0,0,1,1.1,3.43v3.6a4.67,4.67,0,0,1-1.1,3.43,5.28,5.28,0,0,1-3.8,1.1h-15l-.68-4.28a4.67,4.67,0,0,0,1.36.71,7.71,7.71,0,0,0,2.39.28h7.9a1.77,1.77,0,0,0,1.13-.23,1.64,1.64,0,0,0,.23-1.07V66.38a1.57,1.57,0,0,0-.25-1.05,1.69,1.69,0,0,0-1.12-.25h-8a9.39,9.39,0,0,0-1.94.17,3.45,3.45,0,0,0-1.47.73l.25-11.38h19.84l.59,4a6.64,6.64,0,0,0-1.61-.57,13.12,13.12,0,0,0-2.51-.18h-9Z"/></svg>