<svg id="Layer_1" data-name="Layer 1" xmlns="http://www.w3.org/2000/svg" viewBox="0 0 250.93 88.19"><defs><style>.cls-1{fill:#231f20;}.cls-2{fill:#ffc418;}</style></defs><title>CL-493</title><path class="cls-1" d="M5.4,55.53a171.41,171.41,0,0,1,121-50.13A167.4,167.4,0,0,1,245.53,54.93L221,82.78H29.31Z"/><path class="cls-2" d="M5.4,55.53a171.41,171.41,0,0,1,121-50.13A167.4,167.4,0,0,1,245.53,54.92L221,82.78H29.31ZM92.56,3.29a177,177,0,0,0-91,48.41,5.4,5.4,0,0,0-.25,7.39L25.25,86.35a5.4,5.4,0,0,0,4.06,1.84H221a5.39,5.39,0,0,0,4.05-1.83l24.52-27.86a5.39,5.39,0,0,0-.24-7.38A172.77,172.77,0,0,0,126.45,0,176.66,176.66,0,0,0,92.56,3.29"/><path class="cls-2" d="M46.25,41.55l-1.84-3a8.38,8.38,0,0,0-.92-1.28,4.75,4.75,0,0,0-.88-.71L48.43,33a4.28,4.28,0,0,0,.26,1.11,8.21,8.21,0,0,0,.71,1.39l5.28,8.59a8.37,8.37,0,0,0,.92,1.28,4.69,4.69,0,0,0,.88.71l-5.81,3.57a4.28,4.28,0,0,0-.26-1.11,8.21,8.21,0,0,0-.71-1.39l-2.11-3.43L43.86,46,46,49.44a8.34,8.34,0,0,0,.92,1.28,4.69,4.69,0,0,0,.88.71L42,55a4.32,4.32,0,0,0-.26-1.11A8.21,8.21,0,0,0,41,52.51L35.7,43.92a8.36,8.36,0,0,0-.92-1.28,4.77,4.77,0,0,0-.88-.71l5.81-3.57A4.28,4.28,0,0,0,40,39.46a8.22,8.22,0,0,0,.72,1.39l1.84,3Z"/><path class="cls-2" d="M63.58,25.94l7.18-3.17a4.69,4.69,0,0,0,.08,1.12,7.43,7.43,0,0,0,.52,1.5l4.06,9.22A8.39,8.39,0,0,0,76.17,36a4.23,4.23,0,0,0,.79.81L70.7,39.59a4.28,4.28,0,0,0-.11-1.13A8.4,8.4,0,0,0,70.08,37l-3.81-8.65.95,12.8L63.5,42.76l-8.71-9.54,3.77,8.66a10.43,10.43,0,0,0,.8,1.58,2.88,2.88,0,0,0,.85.74l-3.38,1.49a2.85,2.85,0,0,0,0-1.12,10.22,10.22,0,0,0-.62-1.64l-4-9a10.29,10.29,0,0,0-.79-1.56,2.86,2.86,0,0,0-.85-.73L58,28.4l6.19,6.79Z"/><path class="cls-2" d="M88.32,21a7.21,7.21,0,0,0-1.18-.1,4.68,4.68,0,0,0-1.26.21L80.65,22.6a2.23,2.23,0,0,0-.84.37c-.12.12-.13.31-.05.59l.24.83q.12.41.36.47a2.18,2.18,0,0,0,.91-.14l4-1.17a4.76,4.76,0,0,1,3-.12,2.8,2.8,0,0,1,1.58,2L90.86,29a4.2,4.2,0,0,1,0,3,3.67,3.67,0,0,1-2.48,1.69l-10.14,3-1.32-2.71a8,8,0,0,0,1.1,0,5.87,5.87,0,0,0,1.23-.24l5.44-1.59a2.12,2.12,0,0,0,.82-.36q.17-.18.05-.59l-.3-1q-.11-.39-.36-.46a2,2,0,0,0-.89.12l-4.58,1.34a3.51,3.51,0,0,1-2.62,0,3.68,3.68,0,0,1-1.42-2.31l-1-3.29a3.93,3.93,0,0,1,0-2.84,3.05,3.05,0,0,1,2-1.57L87,18.1Z"/><path class="cls-2" d="M104.57,26.15l-.79,2.21a2,2,0,0,0-.11.93,2.06,2.06,0,0,0,.11.53,3.32,3.32,0,0,0,.35.53l-4.32.48q.59-1,.87-1.52a11.3,11.3,0,0,0,.57-1.44l4.27-12.26-.76-.78,6.89-.76,6.9,12.57a7.22,7.22,0,0,0,1.57,2l-7.66.85a3.67,3.67,0,0,0,.2-.61,1.41,1.41,0,0,0,0-.43,2.9,2.9,0,0,0-.34-1.12l-1.05-1.86ZM110,23l-2.75-4.92-1.76,5.42Z"/><path class="cls-2" d="M125.86,22.11l0,4a8.38,8.38,0,0,0,.09,1.57,4.69,4.69,0,0,0,.36,1.07l-6.82-.07a4.34,4.34,0,0,0,.37-1.08,8.27,8.27,0,0,0,.14-1.56l.1-10.08a7.42,7.42,0,0,0-.12-1.61,2.8,2.8,0,0,0-.48-1l12.62.13a4.88,4.88,0,0,1,3,.79,3.18,3.18,0,0,1,.92,2.64l0,2.83a2.5,2.5,0,0,1-.62,2,2.81,2.81,0,0,1-1.76.45l2,4.34q.3.68.62,1.34a4.78,4.78,0,0,0,.63,1l-6.55-.07-2.71-6.7Zm0-2.54,3.31,0a1.31,1.31,0,0,0,.77-.15c.13-.1.2-.34.2-.71l0-1.87a.93.93,0,0,0-.18-.7,1.24,1.24,0,0,0-.77-.18l-3.31,0Z"/><path class="cls-2" d="M153.08,15.48l.1,3.16a4.85,4.85,0,0,0-.91-.55,4.21,4.21,0,0,0-1.19-.29l-2.64-.32-1.22,10.1a8.38,8.38,0,0,0-.08,1.57,4.75,4.75,0,0,0,.24,1.1l-6.77-.82a4.31,4.31,0,0,0,.49-1,8.21,8.21,0,0,0,.31-1.53l1.22-10.1L140,16.46a4,4,0,0,0-1.19,0,5.31,5.31,0,0,0-1,.37l.86-3.09Z"/><path class="cls-2" d="M163.23,30.82a9,9,0,0,0,1.42.23,8.58,8.58,0,0,0,1.24-.05l-1.16,2.77-13.21-3a4.29,4.29,0,0,0,.59-1,8.22,8.22,0,0,0,.46-1.5l2.2-9.84a8.37,8.37,0,0,0,.24-1.56,4.7,4.7,0,0,0-.13-1.12l13,2.9-.21,3.15a11.1,11.1,0,0,0-1.06-.65,5.59,5.59,0,0,0-1.42-.49l-4.66-1-.79,3.51,4.08.91a8.72,8.72,0,0,0,1.39.22,10.6,10.6,0,0,0,1.28,0l-.73,3.28a11.82,11.82,0,0,0-1.07-.54,7.82,7.82,0,0,0-1.41-.44l-4.08-.91-.9,4Z"/><path class="cls-2" d="M184.33,30.6a5.35,5.35,0,0,0-.95.92,4.62,4.62,0,0,0-.51,1.12l-1.23,3.59a11.56,11.56,0,0,0-.53,1.84,3.66,3.66,0,0,0,.14,1.23l-4.88-1.67.28-1.4a2.52,2.52,0,0,1-1,.83,2.56,2.56,0,0,1-1.53-.19l-4.91-1.68a3.79,3.79,0,0,1-2.42-1.93,5,5,0,0,1,.2-3.6l2-6a5,5,0,0,1,2-3,3.77,3.77,0,0,1,3.1-.06l10.63,3.63-.58,3.1a6.85,6.85,0,0,0-.87-.75,4.63,4.63,0,0,0-1.17-.56l-5.88-2q-1.09-.37-1.41.56l-2.68,7.86q-.32.93.77,1.3l1.86.64q1.09.37,1.41-.56l1-3-2.07-.71a1.47,1.47,0,0,0-.59-.09l-.43,0,.92-2.68Z"/><path class="cls-2" d="M186.94,37.42l-1.85,1.45a2,2,0,0,0-.59.73,2.05,2.05,0,0,0-.19.51,3.39,3.39,0,0,0,0,.63l-3.91-1.9q1-.49,1.55-.82a11.48,11.48,0,0,0,1.25-.92L193.36,29l-.23-1.07,6.24,3-.88,14.31a7.19,7.19,0,0,0,.28,2.49l-6.93-3.37a3.6,3.6,0,0,0,.49-.41,1.37,1.37,0,0,0,.25-.35,2.89,2.89,0,0,0,.31-1.13l.11-2.14Zm6.27.22.31-5.63-4.39,3.64Z"/><path class="cls-2" d="M209.16,51.63a7.35,7.35,0,0,0,1.37.71,3.1,3.1,0,0,0,1,.21l-2.06,2.3-11.19-7.09a4.3,4.3,0,0,0,.88-.72,8.25,8.25,0,0,0,.94-1.25l5.39-8.51a8.42,8.42,0,0,0,.75-1.39,4.72,4.72,0,0,0,.26-1.1l5.76,3.65a4.27,4.27,0,0,0-.88.72,8.15,8.15,0,0,0-.94,1.25L205,49Z"/><path class="cls-2" d="M85.78,58.63a8.67,8.67,0,0,0-1.38-.55,5.92,5.92,0,0,0-1.66-.2H77.32q-1.49,0-1.49,1.27V69.88q0,1.27,1.49,1.27H81.6A18.85,18.85,0,0,0,84.51,71a6.6,6.6,0,0,0,1.64-.6l-.65,4H73.29a4.9,4.9,0,0,1-3.77-1.35q-1.26-1.35-1.25-4.48V60.43q0-3.1,1.25-4.46a4.87,4.87,0,0,1,3.77-1.36h11.9Z"/><path class="cls-2" d="M102.3,71.15a9.54,9.54,0,0,0,2-.17,4.07,4.07,0,0,0,1.27-.48l-.65,3.94H87.8A5.56,5.56,0,0,0,88.26,73a10.61,10.61,0,0,0,.16-2V58a10.82,10.82,0,0,0-.14-2,6.15,6.15,0,0,0-.48-1.38h8.8A5.53,5.53,0,0,0,96.14,56,10.63,10.63,0,0,0,96,58V71.15Z"/><path class="cls-2" d="M106.52,64.55h10.91v5.21H106.52Z"/><path class="cls-2" d="M142.95,64.77V70h-3.38v1.74a6,6,0,0,0,.17,1.63,3.75,3.75,0,0,0,.54,1.1h-8.83a3.35,3.35,0,0,0,.51-1.07,6.39,6.39,0,0,0,.17-1.66V70H118.92V65.11L130.79,54.6h8.77V64.77Zm-10.82-6.59-7.77,6.59h7.77Z"/><path class="cls-2" d="M156.06,71.15a2.42,2.42,0,0,0,1.44-.29,1.37,1.37,0,0,0,.36-1.1V66a3.84,3.84,0,0,1-.93,1.18,2,2,0,0,1-1.15.28h-6.29a5.33,5.33,0,0,1-3.5-1.15,3.77,3.77,0,0,1-1.39-3.07v-4.4A3.76,3.76,0,0,1,146,55.76a5.3,5.3,0,0,1,3.49-1.16h11a5.34,5.34,0,0,1,3.5,1.15,3.77,3.77,0,0,1,1.4,3.07V70.23A3.77,3.77,0,0,1,164,73.28a5.31,5.31,0,0,1-3.49,1.16H145.61l-.68-3.84a7.16,7.16,0,0,0,1.5.41,16.7,16.7,0,0,0,2.59.15Zm.56-7a1.51,1.51,0,0,0,1-.23,1.16,1.16,0,0,0,.26-.88V59a1.2,1.2,0,0,0-.25-.87,1.44,1.44,0,0,0-1-.25h-3.22a1.51,1.51,0,0,0-1,.23,1.15,1.15,0,0,0-.26.88v4a1.22,1.22,0,0,0,.25.87,1.43,1.43,0,0,0,1,.25Z"/><path class="cls-2" d="M181.35,54.6a7.21,7.21,0,0,1,4.15.91,3.6,3.6,0,0,1,1.24,3.11v3.32a2.14,2.14,0,0,1-1.07,2,7.29,7.29,0,0,1-3.55.64q2.88,0,3.75.74a3.14,3.14,0,0,1,.87,2.55V71a3.32,3.32,0,0,1-.93,2.52,4.36,4.36,0,0,1-3.07.89H167.68L167,70.19a10.5,10.5,0,0,0,1.64.73,5.87,5.87,0,0,0,1.8.23h7.41a1.78,1.78,0,0,0,1.1-.23,1.31,1.31,0,0,0,.26-1V67.22a1.36,1.36,0,0,0-.25-1,1.88,1.88,0,0,0-1.12-.22h-3.6a11.15,11.15,0,0,0-1.81.11,13.93,13.93,0,0,0-1.6.42V62.2a15.35,15.35,0,0,0,1.5.37,10.07,10.07,0,0,0,1.91.16h3.6a1.79,1.79,0,0,0,1.1-.23,1.31,1.31,0,0,0,.26-1V59.1a1.36,1.36,0,0,0-.25-1,1.88,1.88,0,0,0-1.12-.22h-8.06a5.25,5.25,0,0,0-1.44.15,8.54,8.54,0,0,0-1.35.59l.68-4Z"/></svg>