<svg id="Layer_1" data-name="Layer 1" xmlns="http://www.w3.org/2000/svg" viewBox="0 0 250.93 88.19"><defs><style>.cls-1{fill:#231f20;}.cls-2{fill:#ffc418;}.cls-3{fill:none;stroke:#231f20;}</style></defs><title>CLAC-31</title><path class="cls-1" d="M5.4,55.53a171.41,171.41,0,0,1,121-50.13A167.4,167.4,0,0,1,245.53,54.93L221,82.78H29.31Z"/><path class="cls-2" d="M5.4,55.53a171.41,171.41,0,0,1,121-50.13A167.4,167.4,0,0,1,245.53,54.92L221,82.78H29.31ZM92.56,3.29a177,177,0,0,0-91,48.41,5.4,5.4,0,0,0-.25,7.39L25.25,86.35a5.4,5.4,0,0,0,4.06,1.84H221a5.39,5.39,0,0,0,4.05-1.83l24.52-27.86a5.39,5.39,0,0,0-.24-7.38A172.77,172.77,0,0,0,126.45,0,176.66,176.66,0,0,0,92.56,3.29"/><path class="cls-3" d="M5.4,55.53a171.42,171.42,0,0,1,121-50.13A167.4,167.4,0,0,1,245.53,54.93"/><path class="cls-2" d="M28.21,55.08l-2.05-2.47a7.63,7.63,0,0,0-1-1,4.34,4.34,0,0,0-.89-.54l4.81-4a3.94,3.94,0,0,0,.38,1,7.52,7.52,0,0,0,.83,1.17l5.91,7.11a7.6,7.6,0,0,0,1,1,4.29,4.29,0,0,0,.89.54l-4.81,4a3.94,3.94,0,0,0-.38-1,7.6,7.6,0,0,0-.83-1.17L29.7,56.87l-3.08,2.56L29,62.27a7.69,7.69,0,0,0,1,1,4.34,4.34,0,0,0,.89.54l-4.81,4a4,4,0,0,0-.38-1,7.51,7.51,0,0,0-.83-1.17L18.95,58.6a7.72,7.72,0,0,0-1-1,4.38,4.38,0,0,0-.89-.54l4.81-4a3.91,3.91,0,0,0,.38,1,7.54,7.54,0,0,0,.83,1.17l2.05,2.47Z"/><path class="cls-2" d="M41.71,38.61l6.06-3.88a4.27,4.27,0,0,0,.24,1A6.78,6.78,0,0,0,48.68,37l5,7.78A7.62,7.62,0,0,0,54.54,46a3.84,3.84,0,0,0,.83.62L50.09,50a3.92,3.92,0,0,0-.26-1,7.56,7.56,0,0,0-.68-1.26l-4.68-7.3,2.67,11.46-3.13,2-9.24-7.4,4.64,7.31a9.66,9.66,0,0,0,1,1.32,2.67,2.67,0,0,0,.88.55l-2.85,1.83a2.62,2.62,0,0,0-.13-1,9.47,9.47,0,0,0-.79-1.4l-4.87-7.59a9.45,9.45,0,0,0-.94-1.3,2.63,2.63,0,0,0-.87-.54l6.22-4,6.57,5.27Z"/><path class="cls-2" d="M63.25,30.47a6.61,6.61,0,0,0-1.08.09,4.28,4.28,0,0,0-1.11.38l-4.5,2.18a2,2,0,0,0-.7.46q-.13.18,0,.54l.35.71q.17.36.4.37a2,2,0,0,0,.8-.27l3.43-1.66a4.37,4.37,0,0,1,2.67-.56,2.56,2.56,0,0,1,1.73,1.58l1.49,3.09a3.86,3.86,0,0,1,.46,2.67,3.37,3.37,0,0,1-2,1.9l-8.71,4.22-1.6-2.25a7,7,0,0,0,1-.16,5.29,5.29,0,0,0,1.08-.4l4.67-2.26a1.94,1.94,0,0,0,.69-.45q.13-.18,0-.54l-.42-.87c-.11-.22-.24-.34-.39-.36a1.79,1.79,0,0,0-.79.25L56.78,41a3.22,3.22,0,0,1-2.37.41,3.37,3.37,0,0,1-1.64-1.87L51.4,36.74A3.6,3.6,0,0,1,51,34.16a2.8,2.8,0,0,1,1.61-1.73l9-4.34Z"/><path class="cls-2" d="M86.06,22.6A6.55,6.55,0,0,0,85,22.52a4.27,4.27,0,0,0-1.16.21L79,24.2a2,2,0,0,0-.77.35c-.1.11-.12.29,0,.54l.23.76q.12.38.34.43a2,2,0,0,0,.83-.14L83.28,25A4.37,4.37,0,0,1,86,24.87a2.56,2.56,0,0,1,1.47,1.83l1,3.28a3.85,3.85,0,0,1,0,2.71,3.37,3.37,0,0,1-2.25,1.58L77,37.11l-1.24-2.47a7.11,7.11,0,0,0,1,0,5.37,5.37,0,0,0,1.13-.23l5-1.52a2,2,0,0,0,.75-.34q.16-.16,0-.54l-.28-.93q-.11-.36-.33-.42a1.78,1.78,0,0,0-.81.12L78,32.05a3.22,3.22,0,0,1-2.4,0A3.37,3.37,0,0,1,74.31,30l-.92-3a3.61,3.61,0,0,1,0-2.6,2.8,2.8,0,0,1,1.85-1.46L84.78,20Z"/><path class="cls-2" d="M93.14,28.61l-.56,2.08a1.85,1.85,0,0,0,0,.86,1.88,1.88,0,0,0,.14.48,3,3,0,0,0,.36.46l-3.91.75q.47-.92.68-1.45a10.41,10.41,0,0,0,.41-1.36l3-11.51-.75-.66,6.24-1.2,7.22,11a6.57,6.57,0,0,0,1.58,1.67L100.58,31a3.39,3.39,0,0,0,.14-.58,1.25,1.25,0,0,0,0-.39,2.65,2.65,0,0,0-.39-1l-1.1-1.63Zm4.72-3.28L95,21l-1.21,5.08Z"/><path class="cls-2" d="M117.24,26.68a6.75,6.75,0,0,0,1.39-.25,2.87,2.87,0,0,0,.87-.42l-.21,2.82L107.2,29.93a3.91,3.91,0,0,0,.24-1,7.54,7.54,0,0,0,0-1.43l-.83-9.2a7.66,7.66,0,0,0-.23-1.43,4.33,4.33,0,0,0-.43-.94l6.22-.56a3.92,3.92,0,0,0-.24,1,7.54,7.54,0,0,0,0,1.43l.84,9.29Z"/><path class="cls-2" d="M123.18,25l-1,1.93a1.86,1.86,0,0,0-.21.83,1.91,1.91,0,0,0,0,.5,3,3,0,0,0,.26.52l-4,0q.64-.81,1-1.29a10.34,10.34,0,0,0,.67-1.25l5.22-10.69-.61-.8,6.36.05,4.91,12.19a6.59,6.59,0,0,0,1.22,1.95L130,28.83a3.32,3.32,0,0,0,.25-.54,1.26,1.26,0,0,0,.07-.38,2.65,2.65,0,0,0-.19-1.06L129.36,25Zm5.28-2.29-2-4.78-2.19,4.75Z"/><path class="cls-2" d="M151.16,16.61l7.13,1a4.32,4.32,0,0,0-.47.91,6.86,6.86,0,0,0-.32,1.42l-1.26,9.15a7.56,7.56,0,0,0-.1,1.45,3.83,3.83,0,0,0,.23,1l-6.21-.86a3.93,3.93,0,0,0,.46-.94,7.6,7.6,0,0,0,.3-1.4l1.18-8.59-5.42,10.45L143,29.7l-2.21-11.63-1.23,8.57a9.57,9.57,0,0,0-.14,1.62,2.67,2.67,0,0,0,.31,1l-3.36-.46a2.64,2.64,0,0,0,.56-.86,9.5,9.5,0,0,0,.31-1.58l1.23-8.94a9.42,9.42,0,0,0,.13-1.6,2.6,2.6,0,0,0-.31-1l7.32,1,1.57,8.27Z"/><path class="cls-2" d="M161.35,29.08l-1.42,1.62a1.85,1.85,0,0,0-.41.75,1.89,1.89,0,0,0-.09.49,3.06,3.06,0,0,0,.12.57l-3.84-1.05q.83-.62,1.26-1a10.55,10.55,0,0,0,1-1l7.78-9-.38-.93,6.13,1.68,1.63,13a6.58,6.58,0,0,0,.68,2.19l-6.81-1.87a3.42,3.42,0,0,0,.38-.46,1.29,1.29,0,0,0,.17-.35,2.66,2.66,0,0,0,.09-1.07l-.27-1.94Zm5.69-.86-.68-5.12-3.34,4Z"/><path class="cls-2" d="M180.13,26.53,176.66,35a9.36,9.36,0,0,0-.52,1.52,2.6,2.6,0,0,0,.06,1l-3.14-1.27a2.61,2.61,0,0,0,.75-.69,9.37,9.37,0,0,0,.68-1.46l3.38-8.36a9.42,9.42,0,0,0,.52-1.52,2.62,2.62,0,0,0-.06-1l7,2.83,1,12.79,3.42-8.28a9.49,9.49,0,0,0,.52-1.52,2.62,2.62,0,0,0-.06-1l3.14,1.27a2.64,2.64,0,0,0-.75.69,9.37,9.37,0,0,0-.68,1.46l-4.33,10.71-6.44-2.61Z"/><path class="cls-2" d="M194.45,32.52a7.71,7.71,0,0,0,.6-1.31,4.39,4.39,0,0,0,.17-1l9.61,5.21a4.35,4.35,0,0,1,2.32,2.3,4.27,4.27,0,0,1-.67,3.15l-2.9,5.34a4.28,4.28,0,0,1-2.28,2.28,4.35,4.35,0,0,1-3.19-.69l-9.61-5.22a3.93,3.93,0,0,0,.76-.71,7.5,7.5,0,0,0,.78-1.2Zm.27,10.76,2.46,1.33a1.18,1.18,0,0,0,.83.22q.25-.09.61-.75l3.4-6.26a1.62,1.62,0,0,0,.29-.91q-.06-.27-.63-.58L199.21,35Z"/><path class="cls-2" d="M212.31,54.12a8.27,8.27,0,0,0,1.14.68,8,8,0,0,0,1.08.37l-1.92,2-10.27-7a4,4,0,0,0,.83-.63,7.55,7.55,0,0,0,.89-1.12l5.19-7.65a7.61,7.61,0,0,0,.73-1.25,4.29,4.29,0,0,0,.27-1l10.08,6.85L219.08,48a10.21,10.21,0,0,0-.68-.91,5.07,5.07,0,0,0-1-.89l-3.62-2.46-1.85,2.73,3.17,2.15a7.89,7.89,0,0,0,1.11.66,9.54,9.54,0,0,0,1.1.39l-1.73,2.55a10.74,10.74,0,0,0-.73-.82,7.1,7.1,0,0,0-1.06-.85l-3.17-2.15-2.12,3.13Z"/><path class="cls-2" d="M221.46,56.44l-2.37,2.84a7.66,7.66,0,0,0-.85,1.17,4.36,4.36,0,0,0-.37,1l-4.8-4a3.94,3.94,0,0,0,.89-.55,7.5,7.5,0,0,0,1-1l5.92-7.09a6.78,6.78,0,0,0,.85-1.21,2.54,2.54,0,0,0,.26-1l8.88,7.42a4.47,4.47,0,0,1,1.69,2.32,2.92,2.92,0,0,1-.88,2.41l-1.66,2q-.9,1.08-1.6,1.06a2.57,2.57,0,0,1-1.51-.7l-1.07,4.27q-.18.66-.33,1.31a4.4,4.4,0,0,0-.15,1.09l-4.61-3.85,2-6.33Zm1.5-1.79,2.33,1.95a1.2,1.2,0,0,0,.63.34c.15,0,.33-.13.55-.39l1.1-1.32a.85.85,0,0,0,.27-.6,1.13,1.13,0,0,0-.44-.57l-2.33-1.95Z"/><path class="cls-2" d="M80,58.63a8.68,8.68,0,0,0-1.38-.55,5.91,5.91,0,0,0-1.66-.2H71.57q-1.49,0-1.49,1.27V69.88q0,1.27,1.49,1.27h4.28A18.84,18.84,0,0,0,78.76,71a6.59,6.59,0,0,0,1.64-.6l-.65,4H67.54a4.9,4.9,0,0,1-3.77-1.35q-1.26-1.35-1.26-4.48V60.43q0-3.1,1.26-4.46a4.87,4.87,0,0,1,3.77-1.36h11.9Z"/><path class="cls-2" d="M96.55,71.15a9.54,9.54,0,0,0,2-.17,4.07,4.07,0,0,0,1.27-.48l-.65,3.94H82A5.56,5.56,0,0,0,82.51,73a10.61,10.61,0,0,0,.16-2V58a10.82,10.82,0,0,0-.14-2A6.15,6.15,0,0,0,82,54.6h8.8A5.53,5.53,0,0,0,90.39,56a10.63,10.63,0,0,0-.16,2V71.15Z"/><path class="cls-2" d="M105.85,69.11l-1.33,2.73a2.59,2.59,0,0,0-.28,1.18,2.7,2.7,0,0,0,.06.7,4.34,4.34,0,0,0,.37.73H99.07q.9-1.15,1.33-1.83a14.77,14.77,0,0,0,.93-1.77l7.22-15.13-.87-1.12h9l7.07,17.11a9.31,9.31,0,0,0,1.74,2.73h-10a4.7,4.7,0,0,0,.34-.76,1.79,1.79,0,0,0,.09-.54,3.75,3.75,0,0,0-.28-1.49l-1.08-2.54Zm7.41-3.29-2.83-6.71-3,6.71Z"/><path class="cls-2" d="M143.77,58.63a8.67,8.67,0,0,0-1.38-.55,5.93,5.93,0,0,0-1.66-.2H135.3q-1.49,0-1.49,1.27V69.88q0,1.27,1.49,1.27h4.28A18.86,18.86,0,0,0,142.5,71a6.61,6.61,0,0,0,1.64-.6l-.65,4H131.27a4.91,4.91,0,0,1-3.77-1.35q-1.25-1.35-1.25-4.48V60.43q0-3.1,1.25-4.46a4.88,4.88,0,0,1,3.77-1.36h11.9Z"/><path class="cls-2" d="M145.56,64.55h10.91v5.21H145.56Z"/><path class="cls-2" d="M172.19,54.6a7.21,7.21,0,0,1,4.15.91,3.6,3.6,0,0,1,1.24,3.11v3.32a2.14,2.14,0,0,1-1.07,2,7.29,7.29,0,0,1-3.55.64q2.88,0,3.75.74a3.15,3.15,0,0,1,.87,2.55V71a3.31,3.31,0,0,1-.93,2.52,4.35,4.35,0,0,1-3.07.89H158.52l-.71-4.25a10.49,10.49,0,0,0,1.64.73,5.88,5.88,0,0,0,1.8.23h7.41a1.78,1.78,0,0,0,1.1-.23,1.32,1.32,0,0,0,.26-1V67.22a1.37,1.37,0,0,0-.25-1,1.88,1.88,0,0,0-1.12-.22h-3.6a11.12,11.12,0,0,0-1.81.11,13.94,13.94,0,0,0-1.6.42V62.2a15.25,15.25,0,0,0,1.5.37,10.05,10.05,0,0,0,1.91.16h3.6a1.79,1.79,0,0,0,1.1-.23,1.32,1.32,0,0,0,.26-1V59.1a1.37,1.37,0,0,0-.25-1,1.88,1.88,0,0,0-1.12-.22H160.6a5.25,5.25,0,0,0-1.44.15,8.61,8.61,0,0,0-1.35.59l.68-4Z"/><path class="cls-2" d="M190.27,71.71a6,6,0,0,0,.17,1.63,3.75,3.75,0,0,0,.54,1.1h-9a3.28,3.28,0,0,0,.51-1.07,6.41,6.41,0,0,0,.17-1.66V60.61h-2.82v-3.5l8.37-2.51h2Z"/></svg>