<svg id="Layer_1" data-name="Layer 1" xmlns="http://www.w3.org/2000/svg" viewBox="0 0 250.93 88.19"><defs><style>.cls-1{fill:#231f20;}.cls-2{fill:#ffc418;}.cls-3{fill:none;stroke:#231f20;}</style></defs><title>CLAC-28</title><path class="cls-1" d="M5.4,55.53a171.41,171.41,0,0,1,121-50.13A167.4,167.4,0,0,1,245.53,54.93L221,82.78H29.31Z"/><path class="cls-2" d="M5.4,55.53a171.41,171.41,0,0,1,121-50.13A167.4,167.4,0,0,1,245.53,54.92L221,82.78H29.31ZM92.56,3.29a177,177,0,0,0-91,48.41,5.4,5.4,0,0,0-.25,7.39L25.25,86.35a5.4,5.4,0,0,0,4.06,1.84H221a5.39,5.39,0,0,0,4.05-1.83l24.52-27.86a5.39,5.39,0,0,0-.24-7.38A172.77,172.77,0,0,0,126.45,0,176.66,176.66,0,0,0,92.56,3.29"/><path class="cls-3" d="M5.4,55.53a171.42,171.42,0,0,1,121-50.13A167.4,167.4,0,0,1,245.53,54.93"/><path class="cls-2" d="M30.81,52,28.63,49.3a8.39,8.39,0,0,0-1.06-1.17,4.76,4.76,0,0,0-1-.61L32,43.29a4.27,4.27,0,0,0,.39,1.07,8.18,8.18,0,0,0,.87,1.3l6.26,7.9a8.35,8.35,0,0,0,1.06,1.17,4.79,4.79,0,0,0,1,.61l-5.34,4.23a4.29,4.29,0,0,0-.39-1.07,8.22,8.22,0,0,0-.87-1.3L32.39,54,29,56.75l2.5,3.16a8.38,8.38,0,0,0,1.06,1.17,4.77,4.77,0,0,0,1,.61l-5.34,4.23a4.31,4.31,0,0,0-.39-1.07,8.29,8.29,0,0,0-.87-1.3l-6.26-7.9a8.39,8.39,0,0,0-1.06-1.17,4.77,4.77,0,0,0-1-.61l5.34-4.23a4.27,4.27,0,0,0,.39,1.07,8.22,8.22,0,0,0,.87,1.3l2.17,2.75Z"/><path class="cls-2" d="M47.24,33.88l6.78-4a4.65,4.65,0,0,0,.21,1.1,7.44,7.44,0,0,0,.68,1.44L60,41.17a8.31,8.31,0,0,0,.89,1.31,4.18,4.18,0,0,0,.87.71l-5.91,3.44a4.29,4.29,0,0,0-.23-1.11,8.18,8.18,0,0,0-.68-1.41l-4.76-8.17,2.38,12.61-3.5,2-9.73-8.5L44,50.29a10.47,10.47,0,0,0,1,1.48,2.88,2.88,0,0,0,.93.64l-3.19,1.86a2.85,2.85,0,0,0-.09-1.11,10.35,10.35,0,0,0-.8-1.56l-5-8.5a10.4,10.4,0,0,0-1-1.47A2.87,2.87,0,0,0,35,41l7-4.06,6.91,6Z"/><path class="cls-2" d="M72.45,25.71a7.1,7.1,0,0,0-1.18,0,4.65,4.65,0,0,0-1.23.34l-5,2.07a2.21,2.21,0,0,0-.8.46q-.15.19,0,.59l.33.8c.11.27.25.41.41.43a2.19,2.19,0,0,0,.89-.23l3.84-1.58a4.77,4.77,0,0,1,2.95-.43A2.8,2.8,0,0,1,74.4,30l1.42,3.46a4.2,4.2,0,0,1,.32,2.94,3.68,3.68,0,0,1-2.29,1.94l-9.77,4-1.6-2.56a7.86,7.86,0,0,0,1.1-.11,5.87,5.87,0,0,0,1.2-.37L70,37.19a2.11,2.11,0,0,0,.78-.45c.1-.13.1-.33,0-.59l-.4-1c-.1-.25-.24-.39-.4-.42a2,2,0,0,0-.87.21l-4.42,1.81a3.52,3.52,0,0,1-2.6.29,3.68,3.68,0,0,1-1.66-2.15l-1.3-3.18a3.93,3.93,0,0,1-.25-2.83,3.06,3.06,0,0,1,1.87-1.78L70.8,23Z"/><path class="cls-2" d="M97.44,21.28l-.62,10.46-5.5,1L85.51,20.24a4.78,4.78,0,0,0-.61-1,8.71,8.71,0,0,0-.72-.77L91,17.19a3.12,3.12,0,0,0-.06.51,2.77,2.77,0,0,0,.06.51c.06.35.12.58.16.72a8,8,0,0,0,.31.74l3.09,6.95.61-10.19,5.75-1.06,4.28,9.29.43-7.59c0-.21,0-.47,0-.77a5.78,5.78,0,0,0-.08-.76,3.26,3.26,0,0,0-.15-.58,1.43,1.43,0,0,0-.25-.37l3.66-.68a4.68,4.68,0,0,0-.47,1.15,6.52,6.52,0,0,0-.19,1.34l-.72,13.39-5.57,1Z"/><path class="cls-2" d="M123.32,26.22a9,9,0,0,0,1.43-.16,8.63,8.63,0,0,0,1.18-.38l-.38,3L112,29.34a4.27,4.27,0,0,0,.3-1.1,8.24,8.24,0,0,0,0-1.56l-.51-10.07a8.43,8.43,0,0,0-.19-1.56,4.78,4.78,0,0,0-.43-1l13.28-.68.64,3.09a10.85,10.85,0,0,0-1.2-.35,5.63,5.63,0,0,0-1.5-.09l-4.77.24.18,3.6,4.17-.21a8.52,8.52,0,0,0,1.4-.16,10.56,10.56,0,0,0,1.22-.39l.17,3.36q-.56-.14-1.18-.23a7.76,7.76,0,0,0-1.48,0l-4.17.21.21,4.12Z"/><path class="cls-2" d="M134.06,22.3l-.26,4a8.36,8.36,0,0,0,0,1.58,4.71,4.71,0,0,0,.3,1.09l-6.8-.44a4.29,4.29,0,0,0,.43-1.05A8.22,8.22,0,0,0,128,26l.64-10.06a7.39,7.39,0,0,0,0-1.61,2.79,2.79,0,0,0-.43-1.06l12.6.81a4.88,4.88,0,0,1,3,.95,3.18,3.18,0,0,1,.78,2.68l-.18,2.83a2.5,2.5,0,0,1-.73,2,2.8,2.8,0,0,1-1.78.35l1.81,4.45q.27.69.55,1.37a4.82,4.82,0,0,0,.57,1.06l-6.54-.42-2.35-6.84Zm.16-2.54,3.3.21a1.3,1.3,0,0,0,.78-.11q.2-.14.24-.69l.12-1.87a.92.92,0,0,0-.15-.71,1.23,1.23,0,0,0-.75-.22l-3.31-.21Z"/><path class="cls-2" d="M157.77,29.52a9.13,9.13,0,0,0,1.43.18,8.57,8.57,0,0,0,1.24-.1l-1.05,2.81L146.07,30a4.32,4.32,0,0,0,.55-1,8.18,8.18,0,0,0,.4-1.51l1.82-9.91A8.28,8.28,0,0,0,149,16a4.75,4.75,0,0,0-.17-1.12l13.08,2.4-.09,3.16a11,11,0,0,0-1.08-.61,5.54,5.54,0,0,0-1.43-.44l-4.7-.86L154,22l4.11.75a8.64,8.64,0,0,0,1.4.17,10.7,10.7,0,0,0,1.27-.1l-.61,3.3a11.77,11.77,0,0,0-1.09-.49,7.75,7.75,0,0,0-1.43-.38l-4.11-.75-.75,4.06Z"/><path class="cls-2" d="M174.88,26.36l-5.58,8.88L164,33.49l.93-13.77a4.74,4.74,0,0,0-.05-1.18,8.76,8.76,0,0,0-.26-1l6.61,2.18a3.26,3.26,0,0,0-.3.42,2.88,2.88,0,0,0-.2.48,7.09,7.09,0,0,0-.21.7,7.47,7.47,0,0,0-.08.79l-.63,7.58L175.24,21l5.55,1.83-.71,10.2,4-6.45q.17-.27.36-.68a5.77,5.77,0,0,0,.29-.7,3.42,3.42,0,0,0,.15-.58,1.44,1.44,0,0,0,0-.44l3.53,1.16a4.7,4.7,0,0,0-1,.78,6.51,6.51,0,0,0-.81,1.08l-7.07,11.39-5.38-1.77Z"/><path class="cls-2" d="M188.89,30.78a5,5,0,0,1,2.42-2.65,3.77,3.77,0,0,1,3.08.37l7.84,4a3.8,3.8,0,0,1,2.13,2.25,5,5,0,0,1-.7,3.53l-2.85,5.66a5,5,0,0,1-2.43,2.65,3.77,3.77,0,0,1-3.08-.37l-7.84-4A3.79,3.79,0,0,1,185.34,40a5,5,0,0,1,.69-3.53ZM190.81,40q-.44.88.59,1.4l2.27,1.15q1,.52,1.47-.36l3.74-7.41q.44-.88-.58-1.4L196,32.18q-1-.52-1.47.36Z"/><path class="cls-2" d="M211.44,53.22a7.25,7.25,0,0,0,1.35.74,3.11,3.11,0,0,0,1,.23l-2.1,2.27-11.06-7.3a4.27,4.27,0,0,0,.9-.7,8.18,8.18,0,0,0,1-1.24l5.55-8.41a8.27,8.27,0,0,0,.78-1.37,4.7,4.7,0,0,0,.28-1.1l5.69,3.76a4.26,4.26,0,0,0-.9.7A8.22,8.22,0,0,0,213,42l-5.61,8.49Z"/><path class="cls-2" d="M219.4,59.26a8.34,8.34,0,0,0-.91,1.29,4.73,4.73,0,0,0-.39,1.06l-5.28-4.31a4.31,4.31,0,0,0,1-.61,8.17,8.17,0,0,0,1.08-1.13l6.38-7.81a8.32,8.32,0,0,0,.91-1.29,4.72,4.72,0,0,0,.39-1.06l10.3,8.41-1.62,2.71a6.84,6.84,0,0,0-.62-1,5.87,5.87,0,0,0-1.05-1.08l-3.7-3-2.28,2.79,3.23,2.64a8.66,8.66,0,0,0,1.14.82,10.65,10.65,0,0,0,1.16.53L227,60.76a12,12,0,0,0-.72-1,7.82,7.82,0,0,0-1.07-1l-3.23-2.64Z"/><path class="cls-2" d="M74.85,58.63a8.67,8.67,0,0,0-1.38-.55,5.93,5.93,0,0,0-1.66-.2H66.39q-1.49,0-1.49,1.27V69.88q0,1.27,1.49,1.27h4.28A18.86,18.86,0,0,0,73.58,71a6.61,6.61,0,0,0,1.64-.6l-.65,4H62.36a4.9,4.9,0,0,1-3.77-1.35q-1.26-1.35-1.26-4.48V60.43q0-3.1,1.26-4.46a4.87,4.87,0,0,1,3.77-1.36h11.9Z"/><path class="cls-2" d="M91.38,71.15a9.54,9.54,0,0,0,2-.17,4.07,4.07,0,0,0,1.27-.48L94,74.44H76.87A5.56,5.56,0,0,0,77.33,73a10.61,10.61,0,0,0,.16-2V58a10.82,10.82,0,0,0-.14-2,6.15,6.15,0,0,0-.48-1.38h8.8A5.53,5.53,0,0,0,85.21,56a10.63,10.63,0,0,0-.16,2V71.15Z"/><path class="cls-2" d="M100.68,69.11l-1.33,2.73A2.59,2.59,0,0,0,99.07,73a2.7,2.7,0,0,0,.06.7,4.34,4.34,0,0,0,.37.73H93.89q.9-1.15,1.33-1.83a14.77,14.77,0,0,0,.93-1.77l7.22-15.13-.87-1.12h9l7.07,17.11a9.31,9.31,0,0,0,1.74,2.73h-10a4.7,4.7,0,0,0,.34-.76,1.79,1.79,0,0,0,.09-.54,3.75,3.75,0,0,0-.28-1.49l-1.08-2.54Zm7.41-3.29-2.83-6.71-3,6.71Z"/><path class="cls-2" d="M138.59,58.63a8.68,8.68,0,0,0-1.38-.55,5.91,5.91,0,0,0-1.66-.2h-5.42q-1.49,0-1.49,1.27V69.88q0,1.27,1.49,1.27h4.28a18.84,18.84,0,0,0,2.91-.14,6.59,6.59,0,0,0,1.64-.6l-.65,4H126.1a4.9,4.9,0,0,1-3.77-1.35q-1.26-1.35-1.25-4.48V60.43q0-3.1,1.25-4.46a4.87,4.87,0,0,1,3.77-1.36H138Z"/><path class="cls-2" d="M140.39,64.55H151.3v5.21H140.39Z"/><path class="cls-2" d="M170.21,71.15a9.44,9.44,0,0,0,2-.16,19.19,19.19,0,0,0,2.11-.71l-.71,4.15H153.69V65.61a4.69,4.69,0,0,1,.88-3.3,4.09,4.09,0,0,1,3-.88l8.06-.43a1.32,1.32,0,0,0,.93-.25,1.15,1.15,0,0,0,.25-.84V58.82a.8.8,0,0,0-.33-.7,2,2,0,0,0-1.13-.23h-8.68a6.47,6.47,0,0,0-3.1.71l.65-4h14.63q3.13,0,4.2,1.1a4.76,4.76,0,0,1,1.07,3.42v4a4,4,0,0,1-1,3.08,5.32,5.32,0,0,1-3.46.85l-7.5.37c-.41,0-.67.15-.76.45a2.92,2.92,0,0,0-.14.85v2.45Z"/><path class="cls-2" d="M193.3,54.6a4.56,4.56,0,0,1,3.3,1.07,4,4,0,0,1,1.1,3v1.86q0,2.08-1.12,2.68a10.23,10.23,0,0,1-3.63.85,6.59,6.59,0,0,1,3.57.88,3.07,3.07,0,0,1,1.18,2.71v2.67q0,4.09-4.4,4.09H181a4.44,4.44,0,0,1-3.27-1.1,4.21,4.21,0,0,1-1.1-3.11V67.48a3.21,3.21,0,0,1,1.18-2.79,6.06,6.06,0,0,1,3.53-.85q-3.07-.36-3.89-1.14a3.08,3.08,0,0,1-.82-2.34v-1.8q0-4,4.4-4ZM189,62.48a1,1,0,0,0,1.18-1.24v-2a1.45,1.45,0,0,0-.28-1,1.23,1.23,0,0,0-.9-.28H185.4a1.24,1.24,0,0,0-.9.28,1.45,1.45,0,0,0-.28,1v2a1.44,1.44,0,0,0,.28,1,1.23,1.23,0,0,0,.9.28Zm-3.56,3.29a1.24,1.24,0,0,0-.9.28,1.45,1.45,0,0,0-.28,1v2.79a1.44,1.44,0,0,0,.28,1,1.23,1.23,0,0,0,.9.28H189a1,1,0,0,0,1.18-1.24V67.06a1.49,1.49,0,0,0-.26-1,1.32,1.32,0,0,0-.95-.26Z"/></svg>