<svg id="Layer_1" data-name="Layer 1" xmlns="http://www.w3.org/2000/svg" viewBox="0 0 250.93 88.19"><defs><style>.cls-1{fill:#231f20;}.cls-2{fill:#ffc418;}.cls-3{fill:none;stroke:#231f20;}</style></defs><title>CLAC-89</title><path class="cls-1" d="M5.4,55.53a171.41,171.41,0,0,1,121-50.13A167.4,167.4,0,0,1,245.53,54.93L221,82.78H29.31Z"/><path class="cls-2" d="M5.4,55.53a171.41,171.41,0,0,1,121-50.13A167.4,167.4,0,0,1,245.53,54.92L221,82.78H29.31ZM92.56,3.29a177,177,0,0,0-91,48.41,5.4,5.4,0,0,0-.25,7.39L25.25,86.35a5.4,5.4,0,0,0,4.06,1.84H221a5.39,5.39,0,0,0,4.05-1.83l24.52-27.86a5.39,5.39,0,0,0-.24-7.38A172.77,172.77,0,0,0,126.45,0,176.66,176.66,0,0,0,92.56,3.29"/><path class="cls-3" d="M5.4,55.53a171.42,171.42,0,0,1,121-50.13A167.4,167.4,0,0,1,245.53,54.93"/><path class="cls-2" d="M36,48.19,34,45.35a8.34,8.34,0,0,0-1-1.21A4.72,4.72,0,0,0,32,43.5l5.51-4a4.3,4.3,0,0,0,.34,1.08,8.22,8.22,0,0,0,.82,1.33l5.93,8.15a8.31,8.31,0,0,0,1,1.21,4.66,4.66,0,0,0,.93.64l-5.51,4a4.29,4.29,0,0,0-.34-1.08,8.23,8.23,0,0,0-.82-1.33l-2.37-3.26L34,52.81l2.37,3.26a8.26,8.26,0,0,0,1,1.21,4.72,4.72,0,0,0,.93.65l-5.51,4a4.31,4.31,0,0,0-.34-1.09,8.23,8.23,0,0,0-.82-1.33l-5.93-8.15a8.37,8.37,0,0,0-1-1.21,4.75,4.75,0,0,0-.93-.64l5.51-4a4.28,4.28,0,0,0,.34,1.08,8.22,8.22,0,0,0,.82,1.33l2.06,2.83Z"/><path class="cls-2" d="M53.26,30.69,60.2,27a4.69,4.69,0,0,0,.16,1.11A7.4,7.4,0,0,0,61,29.6l4.7,8.92a8.3,8.3,0,0,0,.83,1.35,4.25,4.25,0,0,0,.84.75L61.32,43.8a4.32,4.32,0,0,0-.19-1.12,8.15,8.15,0,0,0-.62-1.44L56.1,32.88l1.84,12.7-3.59,1.89L45,38.57,49.36,47a10.52,10.52,0,0,0,.91,1.52,2.9,2.9,0,0,0,.9.68L47.9,50.88a2.86,2.86,0,0,0,0-1.12,10.29,10.29,0,0,0-.73-1.59l-4.59-8.7a10.24,10.24,0,0,0-.9-1.5,2.86,2.86,0,0,0-.89-.67l7.13-3.76,6.65,6.33Z"/><path class="cls-2" d="M78.77,23.6a7.17,7.17,0,0,0-1.18,0,4.67,4.67,0,0,0-1.25.29l-5.12,1.85a2.21,2.21,0,0,0-.82.42q-.16.19,0,.59l.29.81q.15.41.39.45a2.2,2.2,0,0,0,.9-.2l3.91-1.41a4.77,4.77,0,0,1,3-.31A2.8,2.8,0,0,1,80.54,28l1.27,3.52a4.21,4.21,0,0,1,.2,3,3.68,3.68,0,0,1-2.37,1.84l-9.93,3.59-1.49-2.63a7.82,7.82,0,0,0,1.1-.06,5.75,5.75,0,0,0,1.21-.31L75.86,35a2.12,2.12,0,0,0,.79-.42c.11-.12.11-.32,0-.59l-.36-1q-.14-.38-.39-.43a2,2,0,0,0-.88.18l-4.49,1.62a3.51,3.51,0,0,1-2.61.18,3.68,3.68,0,0,1-1.57-2.21l-1.17-3.23a3.93,3.93,0,0,1-.13-2.84A3.06,3.06,0,0,1,67,24.53l10.22-3.7Z"/><path class="cls-2" d="M100.24,28.42A8.37,8.37,0,0,0,100.6,30a4.69,4.69,0,0,0,.54,1L94.42,32a4.32,4.32,0,0,0,.18-1.12,8.18,8.18,0,0,0-.13-1.56l-1.62-9.95a7.35,7.35,0,0,0-.39-1.57,2.79,2.79,0,0,0-.65-.94l12.41-2a4.61,4.61,0,0,1,3,.3A3.63,3.63,0,0,1,108.65,18l.39,2.37a3.66,3.66,0,0,1-.48,3.08,4.6,4.6,0,0,1-2.75,1.24l-6,1Zm-.87-5.31,3-.5a1.08,1.08,0,0,0,.8-.39,1.88,1.88,0,0,0,0-1.09L102.89,19a1.87,1.87,0,0,0-.37-1,1.08,1.08,0,0,0-.88-.11l-3,.5Z"/><path class="cls-2" d="M122.43,19.62l-.14-3.5a8.32,8.32,0,0,0-.17-1.57,4.79,4.79,0,0,0-.41-1.05l6.81-.26a4.26,4.26,0,0,0-.32,1.09,8.09,8.09,0,0,0-.06,1.56L128.54,26a8.37,8.37,0,0,0,.17,1.57,4.67,4.67,0,0,0,.41,1.05l-6.81.26a4.27,4.27,0,0,0,.32-1.09,8.25,8.25,0,0,0,.06-1.56l-.16-4-4.36.17.16,4a8.3,8.3,0,0,0,.17,1.57A4.75,4.75,0,0,0,118.9,29l-6.81.26a4.33,4.33,0,0,0,.32-1.09,8.27,8.27,0,0,0,.06-1.56l-.39-10.07a8.38,8.38,0,0,0-.17-1.57,4.71,4.71,0,0,0-.41-1.05l6.81-.26a4.25,4.25,0,0,0-.32,1.09,8.26,8.26,0,0,0-.06,1.56l.14,3.5Z"/><path class="cls-2" d="M135.22,24.85l-1.22,2a2,2,0,0,0-.3.89,2.08,2.08,0,0,0,0,.54,3.33,3.33,0,0,0,.24.59l-4.33-.4q.77-.82,1.16-1.32a11.44,11.44,0,0,0,.84-1.3l6.64-11.15-.59-.92,6.91.63,4.24,13.69a7.19,7.19,0,0,0,1.15,2.23l-7.67-.7a3.75,3.75,0,0,0,.32-.56,1.4,1.4,0,0,0,.11-.41,2.88,2.88,0,0,0-.11-1.17l-.66-2Zm5.94-2-1.71-5.37-2.81,5Z"/><path class="cls-2" d="M156.24,18.8,154,28.49a10.31,10.31,0,0,0-.3,1.73,2.85,2.85,0,0,0,.24,1.09l-3.6-.83a2.87,2.87,0,0,0,.69-.87,10.32,10.32,0,0,0,.49-1.69l2.2-9.59a10.29,10.29,0,0,0,.3-1.73,2.87,2.87,0,0,0-.24-1.09l8,1.84L165,31l2.26-9.5a10.18,10.18,0,0,0,.3-1.73,2.85,2.85,0,0,0-.24-1.09l3.6.83a2.83,2.83,0,0,0-.69.88,10.17,10.17,0,0,0-.49,1.69L167,34.31l-7.39-1.7Z"/><path class="cls-2" d="M187.72,25.43l-.61,3.1a4.81,4.81,0,0,0-.77-.74,4.22,4.22,0,0,0-1.09-.55l-2.5-.91-3.47,9.57a8.43,8.43,0,0,0-.43,1.51,4.67,4.67,0,0,0,0,1.13l-6.41-2.32a4.29,4.29,0,0,0,.71-.89,8.25,8.25,0,0,0,.64-1.43l3.47-9.57-2.5-.91a4,4,0,0,0-1.16-.28,5.26,5.26,0,0,0-1.1.12L174,20.46Z"/><path class="cls-2" d="M188.94,30.8a5,5,0,0,1,2.43-2.65,3.77,3.77,0,0,1,3.08.37l7.84,4a3.8,3.8,0,0,1,2.13,2.25,5,5,0,0,1-.7,3.53l-2.86,5.66a5,5,0,0,1-2.43,2.65,3.77,3.77,0,0,1-3.08-.37l-7.84-4A3.8,3.8,0,0,1,185.39,40a5,5,0,0,1,.7-3.53ZM190.87,40q-.44.88.58,1.4l2.27,1.15q1,.52,1.47-.36l3.74-7.41q.44-.88-.58-1.4l-2.27-1.15q-1-.52-1.47.36Z"/><path class="cls-2" d="M221,44.35l6.42,4.52a4.68,4.68,0,0,0-.91.65,7.42,7.42,0,0,0-1,1.22L219.64,59a8.31,8.31,0,0,0-.82,1.36,4.19,4.19,0,0,0-.28,1.09l-5.59-3.94a4.32,4.32,0,0,0,.92-.68,8.25,8.25,0,0,0,1-1.21l5.45-7.73-10.48,7.41L206.5,53l3.68-12.38-5.48,7.7a10.41,10.41,0,0,0-.94,1.5,2.89,2.89,0,0,0-.2,1.11l-3-2.13a2.85,2.85,0,0,0,1-.55,10.25,10.25,0,0,0,1.09-1.38l5.67-8a10.25,10.25,0,0,0,.93-1.49,2.85,2.85,0,0,0,.19-1.1L216,40.84l-2.62,8.8Z"/><path class="cls-2" d="M74.58,58.63a8.67,8.67,0,0,0-1.38-.55,5.92,5.92,0,0,0-1.66-.2H66.11q-1.49,0-1.49,1.27V69.88q0,1.27,1.49,1.27h4.28A18.85,18.85,0,0,0,73.31,71a6.6,6.6,0,0,0,1.64-.6l-.65,4H62.08a4.9,4.9,0,0,1-3.77-1.35q-1.26-1.35-1.26-4.48V60.43q0-3.1,1.26-4.46a4.87,4.87,0,0,1,3.77-1.36H74Z"/><path class="cls-2" d="M91.1,71.15a9.54,9.54,0,0,0,2-.17,4.07,4.07,0,0,0,1.27-.48l-.65,3.94H76.59A5.56,5.56,0,0,0,77.06,73a10.61,10.61,0,0,0,.16-2V58a10.82,10.82,0,0,0-.14-2,6.15,6.15,0,0,0-.48-1.38h8.8A5.53,5.53,0,0,0,84.93,56a10.63,10.63,0,0,0-.16,2V71.15Z"/><path class="cls-2" d="M100.4,69.11l-1.33,2.73A2.59,2.59,0,0,0,98.79,73a2.7,2.7,0,0,0,.06.7,4.34,4.34,0,0,0,.37.73H93.61q.9-1.15,1.33-1.83a14.77,14.77,0,0,0,.93-1.77l7.22-15.13-.87-1.12h9l7.07,17.11A9.31,9.31,0,0,0,120,74.44H110a4.7,4.7,0,0,0,.34-.76,1.79,1.79,0,0,0,.09-.54,3.75,3.75,0,0,0-.28-1.49l-1.08-2.54Zm7.41-3.29L105,59.11l-3,6.71Z"/><path class="cls-2" d="M138.31,58.63a8.67,8.67,0,0,0-1.38-.55,5.93,5.93,0,0,0-1.66-.2h-5.43q-1.49,0-1.49,1.27V69.88q0,1.27,1.49,1.27h4.28A18.86,18.86,0,0,0,137,71a6.61,6.61,0,0,0,1.64-.6l-.65,4H125.82a4.9,4.9,0,0,1-3.77-1.35q-1.26-1.35-1.25-4.48V60.43q0-3.1,1.25-4.46a4.87,4.87,0,0,1,3.77-1.36h11.9Z"/><path class="cls-2" d="M140.11,64.55H151v5.21H140.11Z"/><path class="cls-2" d="M170.05,54.6a4.56,4.56,0,0,1,3.3,1.07,4,4,0,0,1,1.1,3v1.86q0,2.08-1.12,2.68a10.23,10.23,0,0,1-3.63.85,6.59,6.59,0,0,1,3.57.88,3.07,3.07,0,0,1,1.18,2.71v2.67q0,4.09-4.4,4.09H157.78a4.44,4.44,0,0,1-3.27-1.1,4.21,4.21,0,0,1-1.1-3.11V67.48a3.21,3.21,0,0,1,1.18-2.79,6.06,6.06,0,0,1,3.53-.85q-3.07-.36-3.89-1.14a3.08,3.08,0,0,1-.82-2.34v-1.8q0-4,4.4-4Zm-4.34,7.87a1,1,0,0,0,1.18-1.24v-2a1.45,1.45,0,0,0-.28-1,1.23,1.23,0,0,0-.9-.28h-3.56a1.24,1.24,0,0,0-.9.28,1.45,1.45,0,0,0-.28,1v2a1.44,1.44,0,0,0,.28,1,1.23,1.23,0,0,0,.9.28Zm-3.56,3.29a1.24,1.24,0,0,0-.9.28,1.45,1.45,0,0,0-.28,1v2.79a1.44,1.44,0,0,0,.28,1,1.23,1.23,0,0,0,.9.28h3.56a1,1,0,0,0,1.18-1.24V67.06a1.49,1.49,0,0,0-.26-1,1.32,1.32,0,0,0-.95-.26Z"/><path class="cls-2" d="M188.5,71.15a2.42,2.42,0,0,0,1.44-.29,1.37,1.37,0,0,0,.36-1.1V66a3.84,3.84,0,0,1-.93,1.18,2,2,0,0,1-1.15.28h-6.29a5.33,5.33,0,0,1-3.5-1.15A3.77,3.77,0,0,1,177,63.22v-4.4a3.76,3.76,0,0,1,1.41-3.05,5.3,5.3,0,0,1,3.49-1.16h11a5.34,5.34,0,0,1,3.5,1.15,3.77,3.77,0,0,1,1.4,3.07V70.23a3.77,3.77,0,0,1-1.41,3.05A5.31,5.31,0,0,1,193,74.44H178.05l-.68-3.84a7.16,7.16,0,0,0,1.5.41,16.7,16.7,0,0,0,2.59.15Zm.56-7a1.51,1.51,0,0,0,1-.23,1.16,1.16,0,0,0,.26-.88V59a1.2,1.2,0,0,0-.25-.87,1.44,1.44,0,0,0-1-.25h-3.22a1.51,1.51,0,0,0-1,.23,1.15,1.15,0,0,0-.26.88v4a1.22,1.22,0,0,0,.25.87,1.43,1.43,0,0,0,1,.25Z"/></svg>