<svg id="Layer_1" data-name="Layer 1" xmlns="http://www.w3.org/2000/svg" viewBox="0 0 250.93 88.19"><defs><style>.cls-1{fill:#ffc418;}</style></defs><title>DD-02</title><path d="M5.4,55.53a171.41,171.41,0,0,1,121-50.13A167.4,167.4,0,0,1,245.53,54.93L221,82.78H29.31Z"/><path class="cls-1" d="M5.4,55.53a171.41,171.41,0,0,1,121-50.13A167.4,167.4,0,0,1,245.53,54.92L221,82.78H29.31ZM92.56,3.29a177,177,0,0,0-91,48.41,5.4,5.4,0,0,0-.25,7.39L25.25,86.35a5.4,5.4,0,0,0,4.06,1.84H221a5.39,5.39,0,0,0,4.05-1.83l24.52-27.86a5.39,5.39,0,0,0-.24-7.38A172.77,172.77,0,0,0,126.45,0,176.66,176.66,0,0,0,92.56,3.29"/><path class="cls-1" d="M39.44,45.85l-2-2.89a8.37,8.37,0,0,0-1-1.23,4.76,4.76,0,0,0-.91-.67l5.62-3.86a4.28,4.28,0,0,0,.32,1.09,8.2,8.2,0,0,0,.79,1.35L48,47.95a8.3,8.3,0,0,0,1,1.23,4.7,4.7,0,0,0,.91.67l-5.62,3.86A4.3,4.3,0,0,0,44,52.62a8.21,8.21,0,0,0-.79-1.35l-2.29-3.32-3.6,2.48,2.29,3.32a8.41,8.41,0,0,0,1,1.23,4.73,4.73,0,0,0,.91.67l-5.62,3.86a4.31,4.31,0,0,0-.32-1.09,8.25,8.25,0,0,0-.79-1.35L29,48.76a8.41,8.41,0,0,0-1-1.23,4.74,4.74,0,0,0-.91-.67L32.76,43a4.25,4.25,0,0,0,.32,1.09,8.21,8.21,0,0,0,.79,1.35l2,2.89Z"/><path class="cls-1" d="M57.11,28.81l7-3.48a4.7,4.7,0,0,0,.13,1.11,7.44,7.44,0,0,0,.58,1.48l4.46,9a8.34,8.34,0,0,0,.8,1.37,4.19,4.19,0,0,0,.82.77l-6.13,3A4.36,4.36,0,0,0,64.67,41a8.25,8.25,0,0,0-.58-1.45L59.9,31.08,61.4,43.83l-3.64,1.8-9.12-9.14L52.79,45a10.43,10.43,0,0,0,.87,1.55,2.89,2.89,0,0,0,.88.7l-3.31,1.64a2.86,2.86,0,0,0,0-1.12,10.33,10.33,0,0,0-.69-1.61L46.16,37.3a10.26,10.26,0,0,0-.86-1.53,2.88,2.88,0,0,0-.88-.69l7.23-3.57L58.13,38Z"/><path class="cls-1" d="M82.8,22.4a7.11,7.11,0,0,0-1.18-.06,4.68,4.68,0,0,0-1.25.26L75.2,24.32a2.21,2.21,0,0,0-.83.4q-.17.18,0,.59l.27.82c.09.27.22.42.38.46a2.19,2.19,0,0,0,.9-.17l3.94-1.31a4.76,4.76,0,0,1,3-.23,2.79,2.79,0,0,1,1.65,2l1.18,3.55a4.2,4.2,0,0,1,.12,3,3.68,3.68,0,0,1-2.42,1.78l-10,3.33L71.9,35.78a7.91,7.91,0,0,0,1.1,0,5.85,5.85,0,0,0,1.22-.28l5.38-1.78a2.1,2.1,0,0,0,.8-.39c.11-.12.12-.32,0-.59l-.33-1q-.13-.39-.37-.44a1.94,1.94,0,0,0-.88.15l-4.53,1.5a3.51,3.51,0,0,1-2.62.11,3.68,3.68,0,0,1-1.51-2.26L69.1,27.51A3.94,3.94,0,0,1,69,24.67,3.06,3.06,0,0,1,71,23L81.34,19.6Z"/><path class="cls-1" d="M107.6,20.69l-.46-3.47a8.36,8.36,0,0,0-.32-1.54,4.76,4.76,0,0,0-.51-1l6.76-.9a4.28,4.28,0,0,0-.21,1.12,8.2,8.2,0,0,0,.09,1.56l1.33,10a8.31,8.31,0,0,0,.32,1.54,4.67,4.67,0,0,0,.51,1l-6.76.9a4.35,4.35,0,0,0,.21-1.12,8.21,8.21,0,0,0-.09-1.56l-.53-4-4.33.58.53,4a8.41,8.41,0,0,0,.31,1.54,4.76,4.76,0,0,0,.51,1l-6.76.9a4.28,4.28,0,0,0,.21-1.12,8.2,8.2,0,0,0-.09-1.56L97,18.57A8.37,8.37,0,0,0,96.68,17a4.76,4.76,0,0,0-.51-1l6.76-.9a4.28,4.28,0,0,0-.21,1.12,8.19,8.19,0,0,0,.09,1.56l.46,3.47Z"/><path class="cls-1" d="M117,18a5,5,0,0,1,.94-3.46,3.78,3.78,0,0,1,2.91-1.08l8.78-.07a3.8,3.8,0,0,1,2.92,1,5,5,0,0,1,1,3.46l0,6.34a5,5,0,0,1-.94,3.46,3.77,3.77,0,0,1-2.91,1.08l-8.78.07a3.8,3.8,0,0,1-2.92-1,5,5,0,0,1-1-3.46Zm5.91,7.27q0,1,1.16,1l2.54,0q1.15,0,1.14-1l-.07-8.3q0-1-1.16-1L124,16q-1.15,0-1.14,1Z"/><path class="cls-1" d="M151.5,15.23l.13,3.15a4.87,4.87,0,0,0-.92-.54,4.22,4.22,0,0,0-1.19-.28l-2.65-.29-1.12,10.11a8.33,8.33,0,0,0-.07,1.57,4.7,4.7,0,0,0,.25,1.1l-6.77-.75a4.32,4.32,0,0,0,.48-1,8.25,8.25,0,0,0,.29-1.54l1.12-10.11-2.65-.29a4,4,0,0,0-1.2,0,5.29,5.29,0,0,0-1,.38l.83-3.1Z"/><path class="cls-1" d="M168.46,22.09a7.18,7.18,0,0,0-1-.66,4.69,4.69,0,0,0-1.21-.43L161,19.78a2.22,2.22,0,0,0-.92-.08q-.24.07-.33.49l-.19.84q-.1.42.09.59a2.2,2.2,0,0,0,.86.32l4,.92a4.77,4.77,0,0,1,2.66,1.34,2.8,2.8,0,0,1,.4,2.53l-.83,3.65A4.21,4.21,0,0,1,165.32,33a3.67,3.67,0,0,1-3,.27L152,30.89l.17-3a7.76,7.76,0,0,0,1,.54,5.81,5.81,0,0,0,1.19.39l5.52,1.26a2.13,2.13,0,0,0,.89.08c.16,0,.27-.21.33-.49l.23-1a.59.59,0,0,0-.09-.58,2,2,0,0,0-.84-.33l-4.66-1.06a3.51,3.51,0,0,1-2.3-1.26,3.68,3.68,0,0,1-.12-2.71l.76-3.35a3.93,3.93,0,0,1,1.42-2.46,3.06,3.06,0,0,1,2.55-.38l10.6,2.42Z"/><path class="cls-1" d="M174.68,34.24a8.36,8.36,0,0,0-.43,1.51,4.67,4.67,0,0,0,0,1.13l-6.41-2.31a4.26,4.26,0,0,0,.71-.89,8.17,8.17,0,0,0,.64-1.43l3.42-9.48a7.4,7.4,0,0,0,.42-1.56,2.79,2.79,0,0,0-.11-1.14l11.83,4.26a4.61,4.61,0,0,1,2.47,1.72,3.63,3.63,0,0,1-.08,3.12l-.81,2.26a3.66,3.66,0,0,1-1.92,2.46,4.6,4.6,0,0,1-3-.25l-5.73-2.07Zm1.82-5.06,2.89,1a1.08,1.08,0,0,0,.89.05,1.87,1.87,0,0,0,.55-.94l.73-2a1.88,1.88,0,0,0,.17-1.07q-.11-.31-.72-.53l-2.89-1Z"/><path class="cls-1" d="M196.8,44.11a2.7,2.7,0,0,0,1.43.46q.34-.09.83-1L202.95,36a10.24,10.24,0,0,0,.71-1.6,2.85,2.85,0,0,0,0-1.12L207,34.92a2.85,2.85,0,0,0-.89.68,10.35,10.35,0,0,0-.88,1.52l-3.58,7a5.77,5.77,0,0,1-2.5,2.9q-1.27.51-3.49-.63l-6.92-3.55a4.1,4.1,0,0,1-2.36-2.5,5.38,5.38,0,0,1,.75-3.66l3.63-7.09a8.35,8.35,0,0,0,.62-1.45,4.7,4.7,0,0,0,.16-1.12l6.07,3.11a4.28,4.28,0,0,0-.81.8,8.15,8.15,0,0,0-.82,1.33L192,40a1.28,1.28,0,0,0,.65,1.95Z"/><path class="cls-1" d="M210.29,47.5,208,50.81a8.39,8.39,0,0,0-.8,1.36,4.72,4.72,0,0,0-.3,1.09l-5.61-3.87a4.28,4.28,0,0,0,.91-.68,8.22,8.22,0,0,0,1-1.22l5.72-8.3a7.4,7.4,0,0,0,.8-1.4,2.78,2.78,0,0,0,.18-1.13l10.39,7.16a4.88,4.88,0,0,1,2.07,2.34,3.19,3.19,0,0,1-.71,2.7L220,51.21q-.87,1.26-1.63,1.31a2.81,2.81,0,0,1-1.71-.61L216,56.65q-.13.73-.23,1.46a4.8,4.8,0,0,0-.06,1.2l-5.39-3.72,1.49-7.07Zm1.44-2.09,2.73,1.88a1.31,1.31,0,0,0,.72.31c.16,0,.35-.17.56-.47l1.06-1.54a.92.92,0,0,0,.24-.68,1.23,1.23,0,0,0-.54-.57l-2.73-1.88Z"/><path class="cls-1" d="M75.46,58a10.74,10.74,0,0,0-.14-2,6.11,6.11,0,0,0-.48-1.38H90.25q3.13,0,4.42,1.29t1.29,4.36V68.8q0,3.07-1.29,4.36t-4.42,1.29H74.84A5.52,5.52,0,0,0,75.3,73a10.61,10.61,0,0,0,.16-2ZM83,71.15H87a1.66,1.66,0,0,0,1.18-.28,2.27,2.27,0,0,0,.25-1.33v-10a2.28,2.28,0,0,0-.25-1.32q-.25-.29-1.18-.29H83Z"/><path class="cls-1" d="M99,58a10.74,10.74,0,0,0-.14-2,6.11,6.11,0,0,0-.48-1.38h15.41q3.13,0,4.42,1.29t1.29,4.36V68.8q0,3.07-1.29,4.36t-4.42,1.29H98.37A5.52,5.52,0,0,0,98.83,73,10.61,10.61,0,0,0,99,71Zm7.56,13.14h3.94a1.66,1.66,0,0,0,1.18-.28,2.27,2.27,0,0,0,.25-1.33v-10a2.28,2.28,0,0,0-.25-1.32q-.25-.29-1.18-.29h-3.94Z"/><path class="cls-1" d="M122,64.55H132.9v5.21H122Z"/><path class="cls-1" d="M151.78,54.6a4.9,4.9,0,0,1,3.77,1.35q1.26,1.35,1.26,4.48v8.18q0,3.1-1.26,4.46a4.87,4.87,0,0,1-3.77,1.36H140.43a4.91,4.91,0,0,1-3.77-1.35q-1.25-1.35-1.25-4.48V60.43q0-3.1,1.25-4.46a4.88,4.88,0,0,1,3.77-1.36Zm-7.32,3.29q-1.49,0-1.49,1.27V69.88q0,1.27,1.49,1.27h3.29q1.49,0,1.49-1.27V59.16q0-1.27-1.49-1.27Z"/><path class="cls-1" d="M175.93,71.15a9.41,9.41,0,0,0,2-.16,19,19,0,0,0,2.11-.71l-.71,4.15H159.41V65.61a4.68,4.68,0,0,1,.88-3.3,4.09,4.09,0,0,1,3-.88l8.06-.43a1.32,1.32,0,0,0,.93-.25,1.16,1.16,0,0,0,.25-.84V58.82a.8.8,0,0,0-.33-.7,2,2,0,0,0-1.13-.23h-8.68a6.47,6.47,0,0,0-3.1.71l.65-4h14.63q3.13,0,4.2,1.1a4.76,4.76,0,0,1,1.07,3.42v4a4,4,0,0,1-1,3.08,5.32,5.32,0,0,1-3.46.85l-7.5.37q-.62,0-.76.45a2.86,2.86,0,0,0-.14.85v2.45Z"/></svg>