<svg id="Layer_1" data-name="Layer 1" xmlns="http://www.w3.org/2000/svg" viewBox="0 0 250.93 88.19"><defs><style>.cls-1{fill:#231f20;}.cls-2{fill:#ffc418;}.cls-3{fill:none;stroke:#231f20;}</style></defs><title>DD-11</title><path class="cls-1" d="M5.4,55.53a171.41,171.41,0,0,1,121-50.13A167.4,167.4,0,0,1,245.53,54.93L221,82.78H29.31Z"/><path class="cls-2" d="M5.4,55.53a171.41,171.41,0,0,1,121-50.13A167.4,167.4,0,0,1,245.53,54.92L221,82.78H29.31ZM92.56,3.29a177,177,0,0,0-91,48.41,5.4,5.4,0,0,0-.25,7.39L25.25,86.35a5.4,5.4,0,0,0,4.06,1.84H221a5.39,5.39,0,0,0,4.05-1.83l24.52-27.86a5.39,5.39,0,0,0-.24-7.38A172.77,172.77,0,0,0,126.45,0,176.66,176.66,0,0,0,92.56,3.29"/><path class="cls-3" d="M5.4,55.53a171.42,171.42,0,0,1,121-50.13A167.4,167.4,0,0,1,245.53,54.93"/><path class="cls-2" d="M26.61,55.39l-2.27-2.67a8.36,8.36,0,0,0-1.1-1.13,4.74,4.74,0,0,0-1-.57l5.2-4.41a4.27,4.27,0,0,0,.42,1.06,8.28,8.28,0,0,0,.92,1.27l6.52,7.69a8.36,8.36,0,0,0,1.1,1.13,4.68,4.68,0,0,0,1,.57l-5.2,4.41a4.31,4.31,0,0,0-.42-1.06,8.25,8.25,0,0,0-.92-1.27l-2.61-3.08-3.33,2.83,2.61,3.08a8.3,8.3,0,0,0,1.1,1.13,4.64,4.64,0,0,0,1,.57l-5.2,4.41A4.3,4.3,0,0,0,24,68.29,8.25,8.25,0,0,0,23.06,67l-6.52-7.69a8.36,8.36,0,0,0-1.1-1.13,4.74,4.74,0,0,0-1-.57l5.2-4.41a4.27,4.27,0,0,0,.42,1.06A8.19,8.19,0,0,0,21,55.54l2.27,2.67Z"/><path class="cls-2" d="M42.44,36.66l6.64-4.18a4.7,4.7,0,0,0,.25,1.09A7.44,7.44,0,0,0,50.06,35l5.37,8.53a8.33,8.33,0,0,0,.93,1.28,4.24,4.24,0,0,0,.9.68l-5.79,3.64A4.31,4.31,0,0,0,51.2,48a8.22,8.22,0,0,0-.73-1.38l-5-8,2.8,12.53-3.43,2.16-10-8.16,5,8a10.54,10.54,0,0,0,1,1.45,2.89,2.89,0,0,0,.95.61l-3.13,2a2.84,2.84,0,0,0-.13-1.11,10.22,10.22,0,0,0-.85-1.53l-5.24-8.33a10.31,10.31,0,0,0-1-1.43,2.87,2.87,0,0,0-.94-.6l6.82-4.29,7.11,5.81Z"/><path class="cls-2" d="M67.35,27.63a7.18,7.18,0,0,0-1.18.07,4.68,4.68,0,0,0-1.22.38l-5,2.24a2.22,2.22,0,0,0-.78.48c-.1.13-.09.33,0,.59l.35.79q.18.39.42.41a2.19,2.19,0,0,0,.88-.26l3.79-1.71a4.77,4.77,0,0,1,2.93-.53,2.8,2.8,0,0,1,1.84,1.78L71,35.29a4.2,4.2,0,0,1,.43,2.93,3.68,3.68,0,0,1-2.22,2l-9.63,4.34-1.68-2.51A7.9,7.9,0,0,0,59,41.92a5.83,5.83,0,0,0,1.19-.41l5.16-2.33a2.1,2.1,0,0,0,.76-.47q.15-.2,0-.59l-.43-1c-.11-.25-.25-.38-.42-.4a2,2,0,0,0-.86.25L60,39a3.51,3.51,0,0,1-2.59.38,3.68,3.68,0,0,1-1.73-2.09l-1.41-3.13a3.93,3.93,0,0,1-.35-2.82,3.06,3.06,0,0,1,1.8-1.84L65.61,25Z"/><path class="cls-2" d="M88.25,33.73,80.06,21.36a3.42,3.42,0,0,0-.57-.67,3.55,3.55,0,0,0-.67-.49l7.09-1.71a3.89,3.89,0,0,0,0,.63l0,.21a4.07,4.07,0,0,0,.24.71,8.1,8.1,0,0,0,.69,1.12l5.43,8.21,1.33-9.84a11,11,0,0,0,.09-1.13,3.55,3.55,0,0,0-.08-.92,2.34,2.34,0,0,0-.16-.44l-.16-.34,3.85-.93a5.65,5.65,0,0,0-.48,1.2,12.92,12.92,0,0,0-.37,1.87L94.62,32.19Z"/><path class="cls-2" d="M112.48,26.82a9,9,0,0,0,1.42-.26A8.68,8.68,0,0,0,115,26.1l-.16,3-13.43,1.65a4.25,4.25,0,0,0,.23-1.12,8.25,8.25,0,0,0-.07-1.56l-1.23-10a8.38,8.38,0,0,0-.3-1.55,4.78,4.78,0,0,0-.5-1l13.2-1.62.86,3a11,11,0,0,0-1.22-.26,5.55,5.55,0,0,0-1.5,0l-4.74.58.44,3.57,4.15-.51a8.61,8.61,0,0,0,1.38-.25,10.74,10.74,0,0,0,1.19-.47l.41,3.33a11.64,11.64,0,0,0-1.19-.14,7.73,7.73,0,0,0-1.48.06l-4.14.51.5,4.1Z"/><path class="cls-2" d="M119.59,16.13l0,10a10.27,10.27,0,0,0,.11,1.75,2.86,2.86,0,0,0,.49,1l-3.7,0a2.86,2.86,0,0,0,.47-1,10.26,10.26,0,0,0,.08-1.75L117,16.27a10.26,10.26,0,0,0-.11-1.75,2.86,2.86,0,0,0-.49-1l8.23-.06L131,25.93V16.16a10.27,10.27,0,0,0-.11-1.75,2.85,2.85,0,0,0-.49-1l3.7,0a2.84,2.84,0,0,0-.47,1,10.14,10.14,0,0,0-.08,1.75l.1,12.6L126,28.8Z"/><path class="cls-2" d="M153.75,21.76a5.42,5.42,0,0,0-.74,1.1,4.65,4.65,0,0,0-.27,1.2l-.46,3.76a11.55,11.55,0,0,0-.13,1.91,3.62,3.62,0,0,0,.39,1.17l-5.12-.62,0-1.43a2.51,2.51,0,0,1-.8,1,2.55,2.55,0,0,1-1.54.13l-5.15-.62A3.8,3.8,0,0,1,137.15,28a5,5,0,0,1-.55-3.56l.76-6.29a5,5,0,0,1,1.38-3.31,3.77,3.77,0,0,1,3-.7l11.15,1.35.08,3.15a6.85,6.85,0,0,0-1-.55,4.59,4.59,0,0,0-1.26-.31L144.56,17q-1.14-.14-1.26.84l-1,8.24q-.12,1,1,1.12l2,.24q1.14.14,1.26-.84l.38-3.12-2.17-.26a1.49,1.49,0,0,0-.6,0l-.41.13.34-2.81Z"/><path class="cls-2" d="M165.73,31.49a9.16,9.16,0,0,0,1.42.26,8.81,8.81,0,0,0,1.24,0l-1.21,2.74L154,31.27a4.33,4.33,0,0,0,.6-1,8.22,8.22,0,0,0,.48-1.49l2.37-9.8a8.3,8.3,0,0,0,.27-1.55,4.72,4.72,0,0,0-.11-1.13l12.92,3.13-.27,3.15a10.89,10.89,0,0,0-1-.67,5.57,5.57,0,0,0-1.41-.52l-4.64-1.12-.85,3.5,4.06,1a8.51,8.51,0,0,0,1.38.25,10.78,10.78,0,0,0,1.28,0l-.79,3.27q-.5-.29-1.06-.55a7.77,7.77,0,0,0-1.41-.46l-4.06-1-1,4Z"/><path class="cls-2" d="M174.07,32.38,172.36,34a2,2,0,0,0-.52.78,2,2,0,0,0-.14.52,3.28,3.28,0,0,0,.07.63L167.7,34.4q1-.59,1.46-1a11.42,11.42,0,0,0,1.16-1l9.36-9-.33-1,6.49,2.44.46,14.33a7.18,7.18,0,0,0,.51,2.45l-7.21-2.71a3.76,3.76,0,0,0,.45-.46,1.43,1.43,0,0,0,.21-.37,2.89,2.89,0,0,0,.2-1.15l-.09-2.14Zm6.26-.36-.22-5.63-4,4Z"/><path class="cls-2" d="M195.92,32.12l-4.77,8.74a10.3,10.3,0,0,0-.75,1.59,2.85,2.85,0,0,0-.06,1.12l-3.25-1.75a2.86,2.86,0,0,0,.9-.66,10.34,10.34,0,0,0,.92-1.5L193.58,31a10.36,10.36,0,0,0,.75-1.59,2.87,2.87,0,0,0,.06-1.12l7.25,3.91-.46,14,4.7-8.56a10.26,10.26,0,0,0,.75-1.59,2.87,2.87,0,0,0,.06-1.12l3.25,1.75a2.84,2.84,0,0,0-.9.66,10.23,10.23,0,0,0-.92,1.5l-6,11.09-6.67-3.6Z"/><path class="cls-2" d="M222.35,49.15a6.76,6.76,0,0,0-.63-1,4.61,4.61,0,0,0-1-.86l-3.43-2.42q-.94-.66-1.51.14L211,51.83q-.57.81.38,1.47l2.71,1.91A14.65,14.65,0,0,0,216,56.42a5.14,5.14,0,0,0,1.31.35L215.12,59l-7.73-5.45A3.8,3.8,0,0,1,205.61,51a5,5,0,0,1,1.2-3.39l3.65-5.18a5,5,0,0,1,2.79-2.27,3.77,3.77,0,0,1,3,.82l7.53,5.31Z"/><path class="cls-2" d="M226.76,65.7a9.06,9.06,0,0,0,1.14.88,8.71,8.71,0,0,0,1.12.54L226.68,69l-10.2-8.9a4.3,4.3,0,0,0,1-.58,8.3,8.3,0,0,0,1.12-1.1l6.63-7.59a8.42,8.42,0,0,0,1-1.25,4.73,4.73,0,0,0,.42-1l10,8.74-1.69,2.67a10.94,10.94,0,0,0-.62-1.08,5.59,5.59,0,0,0-1-1.11l-3.6-3.14-2.37,2.71,3.15,2.75a8.48,8.48,0,0,0,1.11.86,10.74,10.74,0,0,0,1.14.57L230.51,64q-.31-.49-.69-1a7.8,7.8,0,0,0-1-1.06l-3.15-2.75-2.71,3.11Z"/><path class="cls-2" d="M84.09,58A10.74,10.74,0,0,0,84,56a6.11,6.11,0,0,0-.48-1.38H98.88q3.13,0,4.42,1.29t1.29,4.36V68.8q0,3.07-1.29,4.36t-4.42,1.29H83.47A5.52,5.52,0,0,0,83.94,73a10.61,10.61,0,0,0,.16-2Zm7.56,13.14h3.94a1.66,1.66,0,0,0,1.18-.28A2.27,2.27,0,0,0,97,69.54v-10a2.28,2.28,0,0,0-.25-1.32q-.25-.29-1.18-.29H91.66Z"/><path class="cls-2" d="M107.62,58a10.74,10.74,0,0,0-.14-2A6.11,6.11,0,0,0,107,54.6h15.41q3.13,0,4.42,1.29t1.29,4.36V68.8q0,3.07-1.29,4.36t-4.42,1.29H107a5.52,5.52,0,0,0,.46-1.39,10.61,10.61,0,0,0,.16-2Zm7.56,13.14h3.94a1.66,1.66,0,0,0,1.18-.28,2.27,2.27,0,0,0,.25-1.33v-10a2.28,2.28,0,0,0-.25-1.32q-.25-.29-1.18-.29h-3.94Z"/><path class="cls-2" d="M130.62,64.55h10.91v5.21H130.62Z"/><path class="cls-2" d="M154.09,71.71a6,6,0,0,0,.17,1.63,3.75,3.75,0,0,0,.54,1.1h-9a3.37,3.37,0,0,0,.51-1.07,6.41,6.41,0,0,0,.17-1.66V60.61h-2.82v-3.5l8.37-2.51h2Z"/><path class="cls-2" d="M169,71.71a6,6,0,0,0,.17,1.63,3.75,3.75,0,0,0,.54,1.1h-9a3.28,3.28,0,0,0,.51-1.07,6.41,6.41,0,0,0,.17-1.66V60.61h-2.82v-3.5L167,54.6h2Z"/></svg>