<svg id="Layer_1" data-name="Layer 1" xmlns="http://www.w3.org/2000/svg" viewBox="0 0 250.93 88.19"><defs><style>.cls-1{fill:#ffc418;}</style></defs><title>DD-323</title><path d="M5.4,55.53a171.41,171.41,0,0,1,121-50.13A167.4,167.4,0,0,1,245.53,54.93L221,82.78H29.31Z"/><path class="cls-1" d="M5.4,55.53a171.41,171.41,0,0,1,121-50.13A167.4,167.4,0,0,1,245.53,54.92L221,82.78H29.31ZM92.56,3.29a177,177,0,0,0-91,48.41,5.4,5.4,0,0,0-.25,7.39L25.25,86.35a5.4,5.4,0,0,0,4.06,1.84H221a5.39,5.39,0,0,0,4.05-1.83l24.52-27.86a5.39,5.39,0,0,0-.24-7.38A172.77,172.77,0,0,0,126.45,0,176.66,176.66,0,0,0,92.56,3.29"/><path class="cls-1" d="M27.76,55.44,25.7,53a7.69,7.69,0,0,0-1-1,4.35,4.35,0,0,0-.89-.53l4.79-4a3.93,3.93,0,0,0,.38,1,7.49,7.49,0,0,0,.83,1.17l5.93,7.09a7.7,7.7,0,0,0,1,1,4.36,4.36,0,0,0,.89.53l-4.79,4a4,4,0,0,0-.38-1,7.51,7.51,0,0,0-.83-1.17l-2.37-2.83L26.19,59.8l2.37,2.83a7.64,7.64,0,0,0,1,1,4.36,4.36,0,0,0,.89.53l-4.79,4a4,4,0,0,0-.38-1,7.51,7.51,0,0,0-.83-1.17L18.51,59a7.69,7.69,0,0,0-1-1,4.36,4.36,0,0,0-.89-.53l4.79-4a3.93,3.93,0,0,0,.38,1,7.45,7.45,0,0,0,.83,1.17L24.69,58Z"/><path class="cls-1" d="M42.18,38.31l6.07-3.86a4.28,4.28,0,0,0,.23,1,6.78,6.78,0,0,0,.68,1.29l5,7.8A7.55,7.55,0,0,0,55,45.71a3.81,3.81,0,0,0,.83.62L50.52,49.7a3.93,3.93,0,0,0-.25-1,7.57,7.57,0,0,0-.67-1.27L44.94,40.1l2.63,11.47-3.14,2-9.22-7.44,4.61,7.33a9.55,9.55,0,0,0,.95,1.32,2.66,2.66,0,0,0,.87.55l-2.86,1.82a2.61,2.61,0,0,0-.12-1,9.42,9.42,0,0,0-.79-1.4L33,47.13a9.38,9.38,0,0,0-.94-1.31,2.63,2.63,0,0,0-.87-.54l6.24-4L44,46.61Z"/><path class="cls-1" d="M64.84,29.79a6.56,6.56,0,0,0-1.08.08,4.24,4.24,0,0,0-1.11.37l-4.52,2.13a2,2,0,0,0-.71.46c-.09.12-.08.3,0,.54l.34.72q.17.36.39.37a2,2,0,0,0,.8-.26l3.44-1.62A4.37,4.37,0,0,1,65.11,32a2.56,2.56,0,0,1,1.71,1.6l1.46,3.11a3.86,3.86,0,0,1,.43,2.68,3.37,3.37,0,0,1-2,1.88l-8.76,4.12-1.58-2.27a7.17,7.17,0,0,0,1-.15,5.37,5.37,0,0,0,1.08-.39l4.7-2.21a1.94,1.94,0,0,0,.69-.45c.09-.12.08-.3,0-.54l-.41-.88c-.11-.23-.24-.35-.39-.36a1.78,1.78,0,0,0-.79.24l-4,1.86a3.22,3.22,0,0,1-2.37.39,3.37,3.37,0,0,1-1.62-1.89l-1.34-2.85a3.6,3.6,0,0,1-.36-2.58,2.8,2.8,0,0,1,1.63-1.71l9-4.24Z"/><path class="cls-1" d="M82.37,31.44,82,33.55a1.85,1.85,0,0,0,0,.86,1.89,1.89,0,0,0,.17.47,3,3,0,0,0,.39.43l-3.84,1q.4-1,.57-1.5a10.56,10.56,0,0,0,.31-1.38l2.15-11.7-.8-.6,6.14-1.66,8,10.42a6.59,6.59,0,0,0,1.69,1.55L90,33.31a3.47,3.47,0,0,0,.09-.58,1.31,1.31,0,0,0,0-.39,2.65,2.65,0,0,0-.47-1l-1.21-1.54Zm4.47-3.62-3.18-4.08-.84,5.16Z"/><path class="cls-1" d="M102.16,24.57l.53,3.66a7.68,7.68,0,0,0,.3,1.41,4.32,4.32,0,0,0,.48.92l-6.18.9a4,4,0,0,0,.18-1,7.5,7.5,0,0,0-.1-1.43l-1.32-9.14a6.8,6.8,0,0,0-.33-1.44,2.57,2.57,0,0,0-.58-.87l11.45-1.66a4.47,4.47,0,0,1,2.85.29,2.92,2.92,0,0,1,1.21,2.26L111,21a2.3,2.3,0,0,1-.28,1.9,2.57,2.57,0,0,1-1.53.66l2.46,3.64.75,1.13a4.4,4.4,0,0,0,.71.84L107.2,30l-3.4-5.69Zm-.33-2.31,3-.43a1.2,1.2,0,0,0,.68-.24.85.85,0,0,0,.08-.67l-.25-1.7a.85.85,0,0,0-.27-.61,1.13,1.13,0,0,0-.72-.05l-3,.43Z"/><path class="cls-1" d="M120,22.8l.1,3.69a7.58,7.58,0,0,0,.14,1.44,4.3,4.3,0,0,0,.37,1l-6.25.18a4,4,0,0,0,.3-1,7.57,7.57,0,0,0,.07-1.43l-.26-9.24a6.82,6.82,0,0,0-.16-1.47,2.58,2.58,0,0,0-.48-.93l11.57-.33a4.47,4.47,0,0,1,2.8.61,2.92,2.92,0,0,1,.94,2.38l.07,2.59a2.29,2.29,0,0,1-.5,1.85,2.57,2.57,0,0,1-1.59.47l2,3.9q.3.61.62,1.2a4.43,4.43,0,0,0,.61.92l-6,.17-2.72-6Zm-.07-2.33,3-.09a1.2,1.2,0,0,0,.7-.16.85.85,0,0,0,.16-.65l0-1.71a.85.85,0,0,0-.19-.63,1.12,1.12,0,0,0-.71-.13l-3,.08Z"/><path class="cls-1" d="M132.74,18.8a4.61,4.61,0,0,1,1.17-3.08,3.46,3.46,0,0,1,2.75-.73l8,.71a3.48,3.48,0,0,1,2.58,1.19,4.61,4.61,0,0,1,.61,3.25l-.51,5.79A4.61,4.61,0,0,1,146.18,29a3.46,3.46,0,0,1-2.75.73l-8-.71a3.48,3.48,0,0,1-2.58-1.19,4.6,4.6,0,0,1-.61-3.25ZM137.49,26q-.08.9,1,1l2.32.21q1.05.09,1.13-.8l.67-7.58q.08-.9-1-1l-2.32-.21q-1.05-.09-1.13.8Z"/><path class="cls-1" d="M160.86,23.34l-4.33,8.58-5-1.14-.34-12.65a4.3,4.3,0,0,0-.15-1.07,8,8,0,0,0-.32-.91l6.22,1.42a3,3,0,0,0-.24.41,2.61,2.61,0,0,0-.14.45q-.11.47-.13.66a6.9,6.9,0,0,0,0,.73l.08,7,4.22-8.36,5.22,1.2.22,9.37,3.12-6.23q.13-.26.27-.65a5.48,5.48,0,0,0,.21-.67,3.14,3.14,0,0,0,.09-.54,1.32,1.32,0,0,0-.08-.4l3.32.76a4.28,4.28,0,0,0-.81.8,6,6,0,0,0-.65,1.06l-5.47,11L161.12,33Z"/><path class="cls-1" d="M182.41,30.9l1.14-3a7.63,7.63,0,0,0,.42-1.38,4.35,4.35,0,0,0,0-1l5.84,2.21a3.93,3.93,0,0,0-.66.81,7.52,7.52,0,0,0-.61,1.3l-3.27,8.64a7.63,7.63,0,0,0-.42,1.38,4.3,4.3,0,0,0,0,1L179,38.65a3.94,3.94,0,0,0,.66-.81,7.49,7.49,0,0,0,.61-1.3l1.31-3.46-3.74-1.42-1.31,3.46a7.65,7.65,0,0,0-.42,1.38,4.35,4.35,0,0,0,0,1l-5.84-2.21a3.93,3.93,0,0,0,.66-.81,7.59,7.59,0,0,0,.61-1.3l3.27-8.64a7.65,7.65,0,0,0,.42-1.38,4.35,4.35,0,0,0,0-1l5.84,2.21a3.93,3.93,0,0,0-.66.81,7.59,7.59,0,0,0-.61,1.3l-1.14,3Z"/><path class="cls-1" d="M196.71,44.28a8.18,8.18,0,0,0,1.21.53A7.79,7.79,0,0,0,199,45l-1.66,2.19-11.06-5.63a4,4,0,0,0,.74-.73,7.48,7.48,0,0,0,.75-1.22L192,31.42a7.57,7.57,0,0,0,.57-1.33,4.36,4.36,0,0,0,.14-1l10.86,5.53-.91,2.75a10,10,0,0,0-.79-.82,5.1,5.1,0,0,0-1.14-.76l-3.9-2-1.5,2.94,3.41,1.74a8,8,0,0,0,1.18.51,10,10,0,0,0,1.14.25L199.67,42q-.38-.37-.83-.72a7.09,7.09,0,0,0-1.16-.71l-3.41-1.74-1.72,3.37Z"/><path class="cls-1" d="M204,46.83l-1.85,1.1a2.12,2.12,0,0,0-.86,1,3,3,0,0,0-.06.58l-3.33-2.19q1-.33,1.5-.56a10.55,10.55,0,0,0,1.24-.68l10.18-6.15-.08-1,5.31,3.5-2.49,12.9a6.58,6.58,0,0,0,0,2.29l-5.9-3.88a3.57,3.57,0,0,0,.5-.32,1.28,1.28,0,0,0,.27-.29,2.67,2.67,0,0,0,.42-1l.35-1.93Zm5.67.94.94-5.08-4.42,2.8Z"/><path class="cls-1" d="M221.71,49.38a7.66,7.66,0,0,0,.85-1.17,4.34,4.34,0,0,0,.37-1l8.36,7A4.36,4.36,0,0,1,233.1,57a4.28,4.28,0,0,1-1.29,3l-3.92,4.64a4.28,4.28,0,0,1-2.69,1.77,4.36,4.36,0,0,1-3-1.32l-8.36-7a3.93,3.93,0,0,0,.89-.54,7.53,7.53,0,0,0,1-1ZM219.8,60l2.14,1.8q.5.43.77.39t.74-.61L228,56.1a1.62,1.62,0,0,0,.47-.83c0-.18-.17-.42-.5-.7l-2.14-1.8Z"/><path class="cls-1" d="M66.28,58a10.76,10.76,0,0,0-.14-2,6.2,6.2,0,0,0-.48-1.38H81.07q3.13,0,4.42,1.29t1.29,4.36V68.8q0,3.07-1.29,4.36t-4.42,1.29H65.66A5.52,5.52,0,0,0,66.13,73a10.62,10.62,0,0,0,.15-2Zm7.56,13.14h3.94A1.66,1.66,0,0,0,79,70.88a2.27,2.27,0,0,0,.25-1.33v-10A2.28,2.28,0,0,0,79,58.18q-.25-.29-1.18-.29H73.85Z"/><path class="cls-1" d="M89.81,58a10.74,10.74,0,0,0-.14-2,6.11,6.11,0,0,0-.48-1.38H104.6q3.13,0,4.42,1.29t1.29,4.36V68.8q0,3.07-1.29,4.36t-4.42,1.29H89.19A5.52,5.52,0,0,0,89.66,73a10.61,10.61,0,0,0,.16-2Zm7.56,13.14h3.94a1.66,1.66,0,0,0,1.18-.28,2.27,2.27,0,0,0,.25-1.33v-10a2.28,2.28,0,0,0-.25-1.32q-.25-.29-1.18-.29H97.38Z"/><path class="cls-1" d="M112.81,64.55h10.91v5.21H112.81Z"/><path class="cls-1" d="M139.44,54.6a7.21,7.21,0,0,1,4.15.91,3.6,3.6,0,0,1,1.24,3.11v3.32a2.14,2.14,0,0,1-1.07,2,7.29,7.29,0,0,1-3.55.64q2.88,0,3.75.74a3.14,3.14,0,0,1,.87,2.55V71a3.32,3.32,0,0,1-.93,2.52,4.36,4.36,0,0,1-3.07.89H125.77l-.71-4.25a10.47,10.47,0,0,0,1.64.73,5.87,5.87,0,0,0,1.8.23h7.41a1.78,1.78,0,0,0,1.1-.23,1.31,1.31,0,0,0,.26-1V67.22a1.36,1.36,0,0,0-.25-1,1.88,1.88,0,0,0-1.12-.22h-3.6a11.15,11.15,0,0,0-1.81.11,13.93,13.93,0,0,0-1.6.42V62.2a15.35,15.35,0,0,0,1.5.37,10.07,10.07,0,0,0,1.91.16h3.6a1.79,1.79,0,0,0,1.1-.23,1.31,1.31,0,0,0,.26-1V59.1a1.36,1.36,0,0,0-.25-1,1.88,1.88,0,0,0-1.12-.22h-8.06a5.26,5.26,0,0,0-1.44.15,8.58,8.58,0,0,0-1.35.59l.68-4Z"/><path class="cls-1" d="M163.87,71.15a9.44,9.44,0,0,0,2-.16,19.19,19.19,0,0,0,2.11-.71l-.71,4.15H147.35V65.61a4.69,4.69,0,0,1,.88-3.3,4.09,4.09,0,0,1,3-.88l8.06-.43a1.32,1.32,0,0,0,.93-.25,1.15,1.15,0,0,0,.25-.84V58.82a.8.8,0,0,0-.33-.7,2,2,0,0,0-1.13-.23h-8.68a6.47,6.47,0,0,0-3.1.71l.65-4h14.63q3.13,0,4.2,1.1a4.76,4.76,0,0,1,1.07,3.42v4a4,4,0,0,1-1,3.08,5.32,5.32,0,0,1-3.46.85l-7.5.37c-.41,0-.67.15-.76.45a2.92,2.92,0,0,0-.14.85v2.45Z"/><path class="cls-1" d="M183.65,54.6a7.21,7.21,0,0,1,4.15.91A3.6,3.6,0,0,1,189,58.62v3.32a2.14,2.14,0,0,1-1.07,2,7.29,7.29,0,0,1-3.55.64q2.88,0,3.75.74a3.15,3.15,0,0,1,.87,2.55V71a3.31,3.31,0,0,1-.93,2.52,4.35,4.35,0,0,1-3.07.89H170l-.71-4.25a10.49,10.49,0,0,0,1.64.73,5.88,5.88,0,0,0,1.8.23h7.41a1.78,1.78,0,0,0,1.1-.23,1.32,1.32,0,0,0,.26-1V67.22a1.37,1.37,0,0,0-.25-1,1.88,1.88,0,0,0-1.12-.22h-3.6a11.12,11.12,0,0,0-1.81.11,13.94,13.94,0,0,0-1.6.42V62.2a15.25,15.25,0,0,0,1.5.37,10.05,10.05,0,0,0,1.91.16h3.6a1.79,1.79,0,0,0,1.1-.23,1.32,1.32,0,0,0,.26-1V59.1a1.37,1.37,0,0,0-.25-1,1.88,1.88,0,0,0-1.12-.22h-8.06a5.25,5.25,0,0,0-1.44.15,8.61,8.61,0,0,0-1.35.59l.68-4Z"/></svg>