<svg id="Layer_1" data-name="Layer 1" xmlns="http://www.w3.org/2000/svg" viewBox="0 0 250.93 88.19"><defs><style>.cls-1{fill:#231f20;}.cls-2{fill:#ffc418;}.cls-3{fill:none;stroke:#231f20;}</style></defs><title>DD-482</title><path class="cls-1" d="M5.4,55.53a171.41,171.41,0,0,1,121-50.13A167.4,167.4,0,0,1,245.53,54.93L221,82.78H29.31Z"/><path class="cls-2" d="M5.4,55.53a171.41,171.41,0,0,1,121-50.13A167.4,167.4,0,0,1,245.53,54.92L221,82.78H29.31ZM92.56,3.29a177,177,0,0,0-91,48.41,5.4,5.4,0,0,0-.25,7.39L25.25,86.35a5.4,5.4,0,0,0,4.06,1.84H221a5.39,5.39,0,0,0,4.05-1.83l24.52-27.86a5.39,5.39,0,0,0-.24-7.38A172.77,172.77,0,0,0,126.45,0,176.66,176.66,0,0,0,92.56,3.29"/><path class="cls-3" d="M5.4,55.53a171.42,171.42,0,0,1,121-50.13A167.4,167.4,0,0,1,245.53,54.93"/><path class="cls-2" d="M43.13,43.46l-1.9-2.94a8.38,8.38,0,0,0-.95-1.26,4.73,4.73,0,0,0-.89-.69l5.72-3.71a4.26,4.26,0,0,0,.28,1.1,8.22,8.22,0,0,0,.75,1.37l5.48,8.46a8.34,8.34,0,0,0,.95,1.26,4.74,4.74,0,0,0,.89.69l-5.72,3.71a4.29,4.29,0,0,0-.28-1.1A8.22,8.22,0,0,0,46.7,49L44.51,45.6,40.84,48,43,51.36A8.36,8.36,0,0,0,44,52.62a4.7,4.7,0,0,0,.89.69L39.15,57a4.31,4.31,0,0,0-.29-1.1,8.18,8.18,0,0,0-.75-1.37l-5.48-8.46a8.37,8.37,0,0,0-.94-1.26,4.75,4.75,0,0,0-.89-.69l5.72-3.71a4.27,4.27,0,0,0,.29,1.1,8.19,8.19,0,0,0,.75,1.38l1.9,2.94Z"/><path class="cls-2" d="M61.24,26.94l7.13-3.28a4.71,4.71,0,0,0,.1,1.12A7.39,7.39,0,0,0,69,26.27l4.21,9.16A8.39,8.39,0,0,0,74,36.82a4.24,4.24,0,0,0,.8.79l-6.21,2.86a4.4,4.4,0,0,0-.12-1.13,8.19,8.19,0,0,0-.54-1.47L64,29.28l1.15,12.79-3.68,1.69-8.86-9.4,3.9,8.6a10.51,10.51,0,0,0,.83,1.57,2.89,2.89,0,0,0,.86.73L54.8,46.81a2.86,2.86,0,0,0,0-1.12,10.28,10.28,0,0,0-.64-1.63l-4.11-8.94a10.34,10.34,0,0,0-.82-1.55,2.86,2.86,0,0,0-.86-.71l7.33-3.37L62,36.18Z"/><path class="cls-2" d="M87.13,21.25A7.16,7.16,0,0,0,86,21.16a4.64,4.64,0,0,0-1.26.22l-5.22,1.57a2.23,2.23,0,0,0-.84.38c-.11.12-.13.32,0,.59l.25.83q.12.41.37.47a2.2,2.2,0,0,0,.91-.15l4-1.2a4.77,4.77,0,0,1,3-.14,2.8,2.8,0,0,1,1.59,2l1.08,3.58a4.21,4.21,0,0,1,0,3A3.68,3.68,0,0,1,87.31,34L77.19,37l-1.34-2.71a7.67,7.67,0,0,0,1.1,0,5.77,5.77,0,0,0,1.23-.25l5.42-1.63a2.12,2.12,0,0,0,.82-.37c.11-.12.13-.32,0-.59l-.3-1c-.08-.26-.2-.41-.36-.46a2,2,0,0,0-.89.13l-4.57,1.38a3.51,3.51,0,0,1-2.62,0,3.68,3.68,0,0,1-1.44-2.3l-1-3.29a3.93,3.93,0,0,1,0-2.84,3.06,3.06,0,0,1,2-1.59L85.75,18.4Z"/><path class="cls-2" d="M118.11,19.56a5.34,5.34,0,0,0-.47,1.23,4.65,4.65,0,0,0,0,1.23l.4,3.77a11.53,11.53,0,0,0,.3,1.89,3.62,3.62,0,0,0,.64,1.05l-5.13.55-.34-1.39a2.53,2.53,0,0,1-.55,1.17,2.55,2.55,0,0,1-1.47.47l-5.15.55a3.8,3.8,0,0,1-3-.73A5,5,0,0,1,102,26l-.67-6.3a5,5,0,0,1,.6-3.54,3.77,3.77,0,0,1,2.79-1.36l11.17-1.2.79,3.05a6.83,6.83,0,0,0-1.11-.31,4.6,4.6,0,0,0-1.29,0l-6.18.66q-1.15.12-1,1.1l.88,8.26q.11,1,1.25.86l2-.21q1.15-.12,1-1.1l-.33-3.13-2.17.23a1.46,1.46,0,0,0-.57.17l-.37.22-.3-2.82Z"/><path class="cls-2" d="M124.57,24.6l-1.08,2.09a2,2,0,0,0-.23.91,2.08,2.08,0,0,0,0,.54,3.32,3.32,0,0,0,.28.57l-4.34-.09q.71-.87,1.06-1.39a11.46,11.46,0,0,0,.75-1.35l5.83-11.6-.65-.88,6.93.14,5.2,13.36a7.18,7.18,0,0,0,1.3,2.14l-7.7-.16a3.7,3.7,0,0,0,.28-.58,1.4,1.4,0,0,0,.08-.42,2.89,2.89,0,0,0-.19-1.16l-.8-2Zm5.79-2.43-2.08-5.24-2.45,5.15Z"/><path class="cls-2" d="M152.1,21.7l.53-3.46a8.42,8.42,0,0,0,.13-1.57,4.77,4.77,0,0,0-.21-1.11l6.74,1a4.27,4.27,0,0,0-.52,1,8.14,8.14,0,0,0-.36,1.52l-1.53,10a8.43,8.43,0,0,0-.13,1.57,4.76,4.76,0,0,0,.21,1.11l-6.74-1a4.27,4.27,0,0,0,.52-1,8.22,8.22,0,0,0,.36-1.52l.61-4-4.32-.66-.61,4a8.43,8.43,0,0,0-.13,1.57,4.72,4.72,0,0,0,.21,1.11l-6.74-1a4.31,4.31,0,0,0,.52-1,8.3,8.3,0,0,0,.36-1.52l1.53-10a8.32,8.32,0,0,0,.13-1.57,4.71,4.71,0,0,0-.21-1.11l6.74,1a4.24,4.24,0,0,0-.52,1,8.14,8.14,0,0,0-.36,1.52L147.78,21Z"/><path class="cls-2" d="M170.37,32.85a9,9,0,0,0,1.41.3,8.78,8.78,0,0,0,1.24,0l-1.3,2.7-13-3.62a4.34,4.34,0,0,0,.64-.94,8.16,8.16,0,0,0,.53-1.47l2.7-9.71a8.44,8.44,0,0,0,.32-1.54,4.74,4.74,0,0,0-.07-1.13L175.6,21l-.37,3.13a11.16,11.16,0,0,0-1-.71,5.57,5.57,0,0,0-1.39-.56l-4.6-1.28-1,3.47,4,1.12a8.61,8.61,0,0,0,1.38.29,10.69,10.69,0,0,0,1.28,0l-.9,3.24a12,12,0,0,0-1-.59,7.77,7.77,0,0,0-1.39-.51l-4-1.12-1.1,4Z"/><path class="cls-2" d="M181.8,32.57l-1.53,3.73a8.33,8.33,0,0,0-.5,1.49,4.75,4.75,0,0,0-.06,1.13l-6.3-2.59a4.3,4.3,0,0,0,.74-.86,8.27,8.27,0,0,0,.7-1.4l3.83-9.32a7.45,7.45,0,0,0,.49-1.54,2.8,2.8,0,0,0-.06-1.14l11.68,4.8a4.87,4.87,0,0,1,2.52,1.85,3.18,3.18,0,0,1-.12,2.79l-1.08,2.62q-.58,1.42-1.32,1.63a2.81,2.81,0,0,1-1.8-.23l.29,4.79q0,.74.08,1.47a4.8,4.8,0,0,0,.2,1.19l-6.06-2.49,0-7.23Zm1-2.35,3.06,1.26a1.31,1.31,0,0,0,.77.15c.16,0,.31-.24.45-.58l.71-1.73a.93.93,0,0,0,.09-.72,1.22,1.22,0,0,0-.65-.45l-3.06-1.26Z"/><path class="cls-2" d="M191.12,44a4.3,4.3,0,0,0,.83-.78,8.2,8.2,0,0,0,.84-1.32l4.73-8.9a8.33,8.33,0,0,0,.64-1.44,4.71,4.71,0,0,0,.17-1.12l6,3.2a4.24,4.24,0,0,0-.83.78,8.23,8.23,0,0,0-.84,1.32L198,44.66a8.42,8.42,0,0,0-.64,1.44,4.76,4.76,0,0,0-.17,1.12Z"/><path class="cls-2" d="M218.35,46.15a7.16,7.16,0,0,0-.69-1,4.68,4.68,0,0,0-1-.83l-4.55-3a2.22,2.22,0,0,0-.83-.4q-.25,0-.48.34l-.47.72q-.24.36-.12.58a2.21,2.21,0,0,0,.7.6l3.47,2.28a4.77,4.77,0,0,1,2,2.19,2.79,2.79,0,0,1-.51,2.51l-2.05,3.13a4.21,4.21,0,0,1-2.24,1.93,3.67,3.67,0,0,1-2.89-.79l-8.83-5.8,1.21-2.76a7.79,7.79,0,0,0,.71.84,5.84,5.84,0,0,0,1,.78l4.73,3.11a2.13,2.13,0,0,0,.81.39q.25,0,.48-.34l.58-.88a.59.59,0,0,0,.12-.57,2,2,0,0,0-.67-.6l-4-2.62a3.51,3.51,0,0,1-1.71-2,3.68,3.68,0,0,1,.83-2.58l1.88-2.87A3.94,3.94,0,0,1,208,36.76a3.06,3.06,0,0,1,2.52.54l9.09,6Z"/><path class="cls-2" d="M63.42,58a10.83,10.83,0,0,0-.14-2,6.15,6.15,0,0,0-.48-1.38H78.2q3.13,0,4.42,1.29t1.29,4.36V68.8q0,3.07-1.29,4.36T78.2,74.44H62.8A5.56,5.56,0,0,0,63.26,73a10.66,10.66,0,0,0,.15-2ZM71,71.15h3.94a1.66,1.66,0,0,0,1.18-.28,2.27,2.27,0,0,0,.25-1.33v-10a2.28,2.28,0,0,0-.25-1.32q-.25-.29-1.18-.29H71Z"/><path class="cls-2" d="M86.94,58a10.74,10.74,0,0,0-.14-2,6.11,6.11,0,0,0-.48-1.38h15.41q3.13,0,4.42,1.29t1.29,4.36V68.8q0,3.07-1.29,4.36t-4.42,1.29H86.32A5.52,5.52,0,0,0,86.79,73a10.61,10.61,0,0,0,.16-2Zm7.56,13.14h3.94a1.66,1.66,0,0,0,1.18-.28,2.27,2.27,0,0,0,.25-1.33v-10a2.28,2.28,0,0,0-.25-1.32q-.25-.29-1.18-.29H94.51Z"/><path class="cls-2" d="M109.95,64.55h10.91v5.21H109.95Z"/><path class="cls-2" d="M146.37,64.77V70H143v1.74a6,6,0,0,0,.17,1.63,3.75,3.75,0,0,0,.54,1.1h-8.84a3.31,3.31,0,0,0,.51-1.07,6.39,6.39,0,0,0,.17-1.66V70H122.35V65.11L134.22,54.6H143V64.77Zm-10.82-6.59-7.77,6.59h7.77Z"/><path class="cls-2" d="M164.57,54.6a4.57,4.57,0,0,1,3.3,1.07,4,4,0,0,1,1.1,3v1.86q0,2.08-1.12,2.68a10.23,10.23,0,0,1-3.63.85,6.58,6.58,0,0,1,3.56.88A3.07,3.07,0,0,1,169,67.68v2.67q0,4.09-4.4,4.09H152.29a4.43,4.43,0,0,1-3.27-1.1,4.21,4.21,0,0,1-1.1-3.11V67.48a3.21,3.21,0,0,1,1.18-2.79,6.06,6.06,0,0,1,3.54-.85q-3.07-.36-3.89-1.14a3.07,3.07,0,0,1-.82-2.34v-1.8q0-4,4.4-4Zm-4.34,7.87a1,1,0,0,0,1.18-1.24v-2a1.45,1.45,0,0,0-.28-1,1.24,1.24,0,0,0-.9-.28h-3.56a1.23,1.23,0,0,0-.9.28,1.45,1.45,0,0,0-.28,1v2a1.44,1.44,0,0,0,.28,1,1.23,1.23,0,0,0,.9.28Zm-3.56,3.29a1.23,1.23,0,0,0-.9.28,1.45,1.45,0,0,0-.28,1v2.79a1.44,1.44,0,0,0,.28,1,1.23,1.23,0,0,0,.9.28h3.56a1,1,0,0,0,1.18-1.24V67.06a1.51,1.51,0,0,0-.26-1,1.33,1.33,0,0,0-.95-.26Z"/><path class="cls-2" d="M188,71.15a9.41,9.41,0,0,0,2-.16,19,19,0,0,0,2.11-.71l-.71,4.15H171.45V65.61a4.68,4.68,0,0,1,.88-3.3,4.09,4.09,0,0,1,3-.88l8.06-.43a1.32,1.32,0,0,0,.93-.25,1.16,1.16,0,0,0,.25-.84V58.82a.8.8,0,0,0-.33-.7,2,2,0,0,0-1.13-.23h-8.68a6.47,6.47,0,0,0-3.1.71l.65-4h14.63q3.13,0,4.2,1.1a4.76,4.76,0,0,1,1.07,3.42v4a4,4,0,0,1-1,3.08,5.32,5.32,0,0,1-3.46.85l-7.5.37q-.62,0-.76.45a2.86,2.86,0,0,0-.14.85v2.45Z"/></svg>