<svg id="Layer_1" data-name="Layer 1" xmlns="http://www.w3.org/2000/svg" viewBox="0 0 250.93 88.19"><defs><style>.cls-1{fill:#ffc418;}</style></defs><title>DD-481</title><path d="M5.4,55.53a171.41,171.41,0,0,1,121-50.13A167.4,167.4,0,0,1,245.53,54.93L221,82.78H29.31Z"/><path class="cls-1" d="M5.4,55.53a171.41,171.41,0,0,1,121-50.13A167.4,167.4,0,0,1,245.53,54.92L221,82.78H29.31ZM92.56,3.29a177,177,0,0,0-91,48.41,5.4,5.4,0,0,0-.25,7.39L25.25,86.35a5.4,5.4,0,0,0,4.06,1.84H221a5.39,5.39,0,0,0,4.05-1.83l24.52-27.86a5.39,5.39,0,0,0-.24-7.38A172.77,172.77,0,0,0,126.45,0,176.66,176.66,0,0,0,92.56,3.29"/><path class="cls-1" d="M46.33,41.51l-1.83-3a8.28,8.28,0,0,0-.91-1.28,4.71,4.71,0,0,0-.88-.72L48.51,33a4.27,4.27,0,0,0,.26,1.11,8.23,8.23,0,0,0,.71,1.39L54.76,44a8.32,8.32,0,0,0,.91,1.28,4.73,4.73,0,0,0,.88.72l-5.81,3.57a4.29,4.29,0,0,0-.26-1.11,8.24,8.24,0,0,0-.71-1.39l-2.11-3.44L43.94,46,46,49.4A8.38,8.38,0,0,0,47,50.68a4.67,4.67,0,0,0,.88.71L42,55a4.3,4.3,0,0,0-.26-1.11,8.24,8.24,0,0,0-.71-1.39l-5.27-8.59a8.35,8.35,0,0,0-.91-1.28,4.75,4.75,0,0,0-.88-.71L39.8,38.3a4.28,4.28,0,0,0,.26,1.11,8.23,8.23,0,0,0,.71,1.39l1.83,3Z"/><path class="cls-1" d="M64.85,25.42l7.21-3.11a4.58,4.58,0,0,0,.08,1.12,7.37,7.37,0,0,0,.5,1.51l4,9.26a8.34,8.34,0,0,0,.73,1.41,4.21,4.21,0,0,0,.78.81l-6.28,2.71a4.27,4.27,0,0,0-.1-1.13,8.3,8.3,0,0,0-.51-1.48l-3.74-8.68.84,12.81-3.72,1.6L56,32.63l3.69,8.7a10.48,10.48,0,0,0,.79,1.59,2.91,2.91,0,0,0,.84.75l-3.39,1.46A2.86,2.86,0,0,0,58,44a10.28,10.28,0,0,0-.6-1.65l-3.89-9a10.28,10.28,0,0,0-.78-1.57,2.87,2.87,0,0,0-.84-.74l7.4-3.19,6.13,6.84Z"/><path class="cls-1" d="M90.87,20.35a7.2,7.2,0,0,0-1.18-.12,4.65,4.65,0,0,0-1.27.19l-5.25,1.44a2.22,2.22,0,0,0-.85.36q-.18.17-.06.59l.23.83q.11.42.35.48a2.21,2.21,0,0,0,.91-.13l4-1.1a4.77,4.77,0,0,1,3-.07,2.8,2.8,0,0,1,1.54,2l1,3.61a4.2,4.2,0,0,1,0,3,3.67,3.67,0,0,1-2.51,1.65l-10.18,2.8-1.27-2.74a7.88,7.88,0,0,0,1.1,0A5.88,5.88,0,0,0,81.61,33l5.46-1.5a2.13,2.13,0,0,0,.83-.35c.12-.12.14-.31.06-.59l-.28-1q-.11-.39-.35-.46a2,2,0,0,0-.89.11L81.83,30.4a3.51,3.51,0,0,1-2.62,0A3.68,3.68,0,0,1,77.83,28l-.91-3.31A3.93,3.93,0,0,1,77,21.9a3.06,3.06,0,0,1,2.07-1.54l10.48-2.88Z"/><path class="cls-1" d="M121.9,19.41a5.34,5.34,0,0,0-.5,1.22,4.63,4.63,0,0,0,0,1.23l.31,3.78a11.44,11.44,0,0,0,.25,1.89,3.63,3.63,0,0,0,.62,1.07l-5.14.43-.31-1.39a2.51,2.51,0,0,1-.58,1.16,2.55,2.55,0,0,1-1.48.44l-5.17.43a3.8,3.8,0,0,1-3-.8,5,5,0,0,1-1.25-3.38l-.52-6.31a5,5,0,0,1,.68-3.52,3.77,3.77,0,0,1,2.82-1.29l11.19-.93.71,3.07a6.77,6.77,0,0,0-1.1-.33,4.56,4.56,0,0,0-1.29,0l-6.2.51q-1.15.1-1.07,1.08l.69,8.28q.08,1,1.23.89l2-.16q1.15-.1,1.07-1.08l-.26-3.13-2.18.18a1.48,1.48,0,0,0-.58.16l-.38.21-.23-2.82Z"/><path class="cls-1" d="M128.22,24.6l-1.12,2.06a2,2,0,0,0-.26.9,2.07,2.07,0,0,0,0,.54,3.35,3.35,0,0,0,.26.58l-4.34-.19q.74-.86,1.09-1.37a11.43,11.43,0,0,0,.78-1.33l6.11-11.45-.63-.89,6.93.31,4.88,13.48a7.18,7.18,0,0,0,1.25,2.17l-7.7-.34a3.71,3.71,0,0,0,.29-.58,1.42,1.42,0,0,0,.09-.42,2.89,2.89,0,0,0-.16-1.16l-.75-2Zm5.84-2.29-2-5.29-2.58,5.09Z"/><path class="cls-1" d="M156.58,21.56l-4.44,9.5L146.65,30l-.78-13.78a4.74,4.74,0,0,0-.2-1.16,8.54,8.54,0,0,0-.38-1l6.83,1.35a3.25,3.25,0,0,0-.25.45,2.77,2.77,0,0,0-.14.5q-.1.52-.12.72a7.73,7.73,0,0,0,0,.8l.31,7.6,4.33-9.25L162,17.35l.55,10.21,3.2-6.9q.13-.29.28-.72a5.72,5.72,0,0,0,.21-.73,3.26,3.26,0,0,0,.08-.6,1.42,1.42,0,0,0-.1-.44l3.65.72a4.61,4.61,0,0,0-.86.89,6.45,6.45,0,0,0-.67,1.18l-5.61,12.18-5.56-1.1Z"/><path class="cls-1" d="M172.3,31.79l-1.69,1.63a2,2,0,0,0-.51.78,2.08,2.08,0,0,0-.14.52,3.41,3.41,0,0,0,.08.63l-4.08-1.48q1-.6,1.45-1a11.49,11.49,0,0,0,1.14-1l9.24-9.11-.34-1L184,24.07l.64,14.32a7.19,7.19,0,0,0,.55,2.44l-7.25-2.62a3.61,3.61,0,0,0,.45-.46,1.43,1.43,0,0,0,.21-.37,2.92,2.92,0,0,0,.19-1.16l-.12-2.14Zm6.26-.44-.29-5.63-4,4.09Z"/><path class="cls-1" d="M186,41.55a4.27,4.27,0,0,0,.79-.82,8.19,8.19,0,0,0,.79-1.35l4.38-9.08a8.35,8.35,0,0,0,.58-1.46,4.74,4.74,0,0,0,.13-1.12l6.14,3a4.27,4.27,0,0,0-.79.82,8.27,8.27,0,0,0-.79,1.35l-4.38,9.08a8.35,8.35,0,0,0-.59,1.46,4.75,4.75,0,0,0-.13,1.12Z"/><path class="cls-1" d="M203.51,36.14l-5.24,8.47a10.26,10.26,0,0,0-.83,1.54,2.84,2.84,0,0,0-.12,1.11l-3.15-1.93a2.86,2.86,0,0,0,.94-.61,10.19,10.19,0,0,0,1-1.44l5.14-8.39a10.3,10.3,0,0,0,.83-1.54,2.86,2.86,0,0,0,.12-1.11l7,4.3L208,50.47l5.16-8.29a10.3,10.3,0,0,0,.83-1.54,2.86,2.86,0,0,0,.12-1.11l3.15,1.93a2.85,2.85,0,0,0-.94.61,10.17,10.17,0,0,0-1,1.44l-6.58,10.75-6.47-4Z"/><path class="cls-1" d="M67.45,58a10.74,10.74,0,0,0-.14-2,6.11,6.11,0,0,0-.48-1.38H82.23q3.13,0,4.42,1.29t1.29,4.36V68.8q0,3.07-1.29,4.36t-4.42,1.29H66.82A5.52,5.52,0,0,0,67.29,73a10.61,10.61,0,0,0,.16-2ZM75,71.15h3.94a1.66,1.66,0,0,0,1.18-.28,2.27,2.27,0,0,0,.25-1.33v-10a2.28,2.28,0,0,0-.25-1.32q-.25-.29-1.18-.29H75Z"/><path class="cls-1" d="M91,58a10.74,10.74,0,0,0-.14-2,6.11,6.11,0,0,0-.48-1.38h15.41q3.13,0,4.42,1.29t1.29,4.36V68.8q0,3.07-1.29,4.36t-4.42,1.29H90.35A5.52,5.52,0,0,0,90.82,73,10.61,10.61,0,0,0,91,71Zm7.56,13.14h3.94a1.66,1.66,0,0,0,1.18-.28,2.27,2.27,0,0,0,.25-1.33v-10a2.28,2.28,0,0,0-.25-1.32q-.25-.29-1.18-.29H98.54Z"/><path class="cls-1" d="M114,64.55h10.91v5.21H114Z"/><path class="cls-1" d="M150.4,64.77V70H147v1.74a6,6,0,0,0,.17,1.63,3.75,3.75,0,0,0,.54,1.1H138.9a3.31,3.31,0,0,0,.51-1.07,6.39,6.39,0,0,0,.17-1.66V70H126.37V65.11L138.25,54.6H147V64.77Zm-10.82-6.59-7.77,6.59h7.77Z"/><path class="cls-1" d="M168.6,54.6a4.57,4.57,0,0,1,3.3,1.07,4,4,0,0,1,1.1,3v1.86q0,2.08-1.12,2.68a10.23,10.23,0,0,1-3.63.85,6.58,6.58,0,0,1,3.56.88A3.07,3.07,0,0,1,173,67.68v2.67q0,4.09-4.4,4.09H156.32a4.43,4.43,0,0,1-3.27-1.1,4.21,4.21,0,0,1-1.1-3.11V67.48a3.21,3.21,0,0,1,1.18-2.79,6.06,6.06,0,0,1,3.54-.85q-3.07-.36-3.89-1.14a3.07,3.07,0,0,1-.82-2.34v-1.8q0-4,4.4-4Zm-4.34,7.87a1,1,0,0,0,1.18-1.24v-2a1.45,1.45,0,0,0-.28-1,1.24,1.24,0,0,0-.9-.28h-3.56a1.23,1.23,0,0,0-.9.28,1.45,1.45,0,0,0-.28,1v2a1.44,1.44,0,0,0,.28,1,1.23,1.23,0,0,0,.9.28Zm-3.56,3.29a1.23,1.23,0,0,0-.9.28,1.45,1.45,0,0,0-.28,1v2.79a1.44,1.44,0,0,0,.28,1,1.23,1.23,0,0,0,.9.28h3.56a1,1,0,0,0,1.18-1.24V67.06a1.51,1.51,0,0,0-.26-1,1.33,1.33,0,0,0-.95-.26Z"/><path class="cls-1" d="M185.65,71.71a6,6,0,0,0,.17,1.63,3.75,3.75,0,0,0,.54,1.1h-9a3.28,3.28,0,0,0,.51-1.07,6.41,6.41,0,0,0,.17-1.66V60.61h-2.82v-3.5l8.37-2.51h2Z"/></svg>