<svg id="Layer_1" data-name="Layer 1" xmlns="http://www.w3.org/2000/svg" viewBox="0 0 250.93 88.19"><defs><style>.cls-1{fill:#ffc418;}</style></defs><title>DD-478</title><path d="M5.4,55.53a171.41,171.41,0,0,1,121-50.13A167.4,167.4,0,0,1,245.53,54.93L221,82.78H29.31Z"/><path class="cls-1" d="M5.4,55.53a171.41,171.41,0,0,1,121-50.13A167.4,167.4,0,0,1,245.53,54.92L221,82.78H29.31ZM92.56,3.29a177,177,0,0,0-91,48.41,5.4,5.4,0,0,0-.25,7.39L25.25,86.35a5.4,5.4,0,0,0,4.06,1.84H221a5.39,5.39,0,0,0,4.05-1.83l24.52-27.86a5.39,5.39,0,0,0-.24-7.38A172.77,172.77,0,0,0,126.45,0,176.66,176.66,0,0,0,92.56,3.29"/><path class="cls-1" d="M37.94,46.86l-2-2.86a8.38,8.38,0,0,0-1-1.22,4.73,4.73,0,0,0-.92-.66l5.57-3.93a4.29,4.29,0,0,0,.33,1.09,8.2,8.2,0,0,0,.8,1.34l5.81,8.24a8.42,8.42,0,0,0,1,1.22,4.75,4.75,0,0,0,.92.66l-5.57,3.93a4.29,4.29,0,0,0-.33-1.09,8.2,8.2,0,0,0-.8-1.34l-2.32-3.3-3.57,2.52,2.32,3.3a8.42,8.42,0,0,0,1,1.22,4.75,4.75,0,0,0,.92.66L34.5,60.56a4.3,4.3,0,0,0-.33-1.09,8.25,8.25,0,0,0-.8-1.34l-5.81-8.24a8.38,8.38,0,0,0-1-1.22,4.73,4.73,0,0,0-.92-.66l5.57-3.93a4.29,4.29,0,0,0,.33,1.09,8.2,8.2,0,0,0,.8,1.34l2,2.86Z"/><path class="cls-1" d="M55.4,29.63l7-3.56a4.77,4.77,0,0,0,.15,1.11,7.4,7.4,0,0,0,.6,1.47l4.57,9A8.58,8.58,0,0,0,68.53,39a4.23,4.23,0,0,0,.83.76l-6.1,3.1a4.29,4.29,0,0,0-.17-1.13,8.32,8.32,0,0,0-.6-1.45l-4.29-8.43,1.66,12.73-3.61,1.84-9.23-9,4.24,8.44a10.46,10.46,0,0,0,.89,1.54,2.9,2.9,0,0,0,.89.69l-3.29,1.68a2.86,2.86,0,0,0,0-1.12A10.28,10.28,0,0,0,49,47l-4.46-8.77a10.29,10.29,0,0,0-.88-1.52,2.85,2.85,0,0,0-.88-.68L50,32.39l6.56,6.43Z"/><path class="cls-1" d="M81,22.92a7.26,7.26,0,0,0-1.18,0,4.7,4.7,0,0,0-1.25.27l-5.15,1.78a2.19,2.19,0,0,0-.82.41q-.17.18,0,.59l.28.82c.09.27.22.42.38.45a2.2,2.2,0,0,0,.9-.18l3.92-1.35a4.77,4.77,0,0,1,3-.26,2.8,2.8,0,0,1,1.67,1.94l1.22,3.54a4.2,4.2,0,0,1,.16,3,3.67,3.67,0,0,1-2.4,1.8l-10,3.44-1.45-2.65a7.87,7.87,0,0,0,1.1,0,5.8,5.8,0,0,0,1.22-.3l5.35-1.85a2.13,2.13,0,0,0,.8-.4q.17-.18,0-.59l-.34-1q-.13-.39-.38-.44a2,2,0,0,0-.88.17l-4.51,1.56a3.52,3.52,0,0,1-2.62.14,3.68,3.68,0,0,1-1.53-2.24l-1.12-3.24a3.93,3.93,0,0,1-.09-2.84,3.06,3.06,0,0,1,2-1.67l10.28-3.55Z"/><path class="cls-1" d="M111.93,20a5.31,5.31,0,0,0-.42,1.25,4.63,4.63,0,0,0,.06,1.23l.55,3.75a11.58,11.58,0,0,0,.37,1.87,3.62,3.62,0,0,0,.68,1l-5.11.75-.4-1.37a2.52,2.52,0,0,1-.5,1.19,2.55,2.55,0,0,1-1.45.53l-5.13.75a3.8,3.8,0,0,1-3-.61,5,5,0,0,1-1.47-3.29l-.92-6.27a5,5,0,0,1,.46-3.56,3.77,3.77,0,0,1,2.73-1.47l11.11-1.63.91,3a6.88,6.88,0,0,0-1.12-.26A4.57,4.57,0,0,0,108,17l-6.15.9q-1.14.17-1,1.14L102,27.21q.14,1,1.28.81l1.95-.29q1.14-.17,1-1.14l-.46-3.11-2.16.32a1.49,1.49,0,0,0-.57.19l-.37.24-.41-2.8Z"/><path class="cls-1" d="M118.59,24.79l-1,2.13a2,2,0,0,0-.2.92,2.07,2.07,0,0,0,.06.54,3.25,3.25,0,0,0,.3.56l-4.34.08q.68-.9,1-1.43a11.53,11.53,0,0,0,.7-1.38l5.37-11.81-.69-.85,6.93-.13,5.72,13.14a7.18,7.18,0,0,0,1.38,2.09l-7.7.14a3.69,3.69,0,0,0,.25-.59,1.39,1.39,0,0,0,.06-.42,2.89,2.89,0,0,0-.24-1.15l-.88-2Zm5.69-2.65L122,17l-2.25,5.24Z"/><path class="cls-1" d="M146,27.46a7.44,7.44,0,0,0,1.54,0,3.12,3.12,0,0,0,1-.27l-.8,3-13.18-1.3a4.28,4.28,0,0,0,.46-1,8.25,8.25,0,0,0,.27-1.54l1-10a8.32,8.32,0,0,0,0-1.58,4.76,4.76,0,0,0-.26-1.1l6.78.67a4.27,4.27,0,0,0-.46,1,8.26,8.26,0,0,0-.27,1.54l-1,10.13Z"/><path class="cls-1" d="M153.89,27.12,152.43,29a2,2,0,0,0-.41.84,2.07,2.07,0,0,0-.07.54,3.32,3.32,0,0,0,.16.61L147.87,30q.87-.72,1.31-1.16a11.26,11.26,0,0,0,1-1.18l8-10.23-.47-1,6.77,1.5L167,32.08a7.22,7.22,0,0,0,.86,2.35l-7.52-1.67a3.63,3.63,0,0,0,.38-.52,1.37,1.37,0,0,0,.16-.39,2.88,2.88,0,0,0,0-1.17l-.39-2.1ZM160,25.87l-1-5.55-3.42,4.57Z"/><path class="cls-1" d="M181.45,29.71l1.21-3.29a8.36,8.36,0,0,0,.44-1.51,4.76,4.76,0,0,0,0-1.13l6.4,2.35a4.3,4.3,0,0,0-.71.89,8.21,8.21,0,0,0-.65,1.42l-3.48,9.46a8.38,8.38,0,0,0-.44,1.51,4.71,4.71,0,0,0,0,1.13l-6.4-2.35a4.28,4.28,0,0,0,.71-.89,8.2,8.2,0,0,0,.65-1.42l1.39-3.78-4.1-1.51-1.39,3.78a8.4,8.4,0,0,0-.44,1.51,4.71,4.71,0,0,0,0,1.13l-6.4-2.35a4.31,4.31,0,0,0,.71-.89,8.24,8.24,0,0,0,.65-1.42l3.47-9.46a8.3,8.3,0,0,0,.44-1.51,4.7,4.7,0,0,0,0-1.13l6.4,2.35a4.28,4.28,0,0,0-.71.89,8.24,8.24,0,0,0-.65,1.42l-1.21,3.29Z"/><path class="cls-1" d="M191.29,39.45l-1.9,1.39a2,2,0,0,0-.62.71,2.08,2.08,0,0,0-.21.5,3.32,3.32,0,0,0,0,.63l-3.84-2q1-.46,1.57-.77a11.5,11.5,0,0,0,1.28-.87L198,31.25l-.19-1.08,6.13,3.24-1.35,14.27a7.18,7.18,0,0,0,.2,2.5L196,46.58a3.69,3.69,0,0,0,.51-.4,1.41,1.41,0,0,0,.26-.34,2.89,2.89,0,0,0,.35-1.12l.18-2.13Zm6.26.43.49-5.62-4.5,3.5Z"/><path class="cls-1" d="M210.88,40.45a8.34,8.34,0,0,0,.82-1.34A4.75,4.75,0,0,0,212,38l9.73,6.9A4.75,4.75,0,0,1,224,47.71,4.67,4.67,0,0,1,222.82,51L219,56.44a4.67,4.67,0,0,1-2.76,2.17,4.75,4.75,0,0,1-3.37-1.17l-9.73-6.9a4.27,4.27,0,0,0,.92-.67,8.15,8.15,0,0,0,1-1.2Zm-1.11,11.69,2.49,1.76q.59.42.87.35t.75-.73l4.5-6.34a1.76,1.76,0,0,0,.43-.94q0-.3-.61-.71l-2.49-1.76Z"/><path class="cls-1" d="M64.28,58a10.83,10.83,0,0,0-.14-2,6.15,6.15,0,0,0-.48-1.38H79.07q3.13,0,4.42,1.29t1.29,4.36V68.8q0,3.07-1.29,4.36t-4.42,1.29H63.66A5.56,5.56,0,0,0,64.13,73a10.66,10.66,0,0,0,.15-2Zm7.56,13.14h3.94q.93,0,1.18-.28a2.27,2.27,0,0,0,.25-1.33v-10A2.28,2.28,0,0,0,77,58.18q-.25-.29-1.18-.29H71.85Z"/><path class="cls-1" d="M87.81,58a10.74,10.74,0,0,0-.14-2,6.11,6.11,0,0,0-.48-1.38H102.6q3.13,0,4.42,1.29t1.29,4.36V68.8q0,3.07-1.29,4.36t-4.42,1.29H87.19A5.52,5.52,0,0,0,87.66,73a10.61,10.61,0,0,0,.16-2Zm7.56,13.14h3.94a1.66,1.66,0,0,0,1.18-.28,2.27,2.27,0,0,0,.25-1.33v-10a2.28,2.28,0,0,0-.25-1.32q-.25-.29-1.18-.29H95.38Z"/><path class="cls-1" d="M110.81,64.55h10.91v5.21H110.81Z"/><path class="cls-1" d="M147.24,64.77V70h-3.38v1.74a6,6,0,0,0,.17,1.63,3.75,3.75,0,0,0,.54,1.1h-8.83a3.35,3.35,0,0,0,.51-1.07,6.39,6.39,0,0,0,.17-1.66V70H123.21V65.11L135.09,54.6h8.77V64.77Zm-10.82-6.59-7.77,6.59h7.77Z"/><path class="cls-1" d="M151.24,58a8.59,8.59,0,0,0-1.69.11,11.52,11.52,0,0,0-1.53.57l.62-4.06H168.1l.19,3.35a42.79,42.79,0,0,0-6,8.08A27.16,27.16,0,0,0,159,74.44h-8.55a25.08,25.08,0,0,1,2.74-6.29,61.21,61.21,0,0,1,4.19-6.26A50.46,50.46,0,0,1,160.6,58Z"/><path class="cls-1" d="M186.67,54.6a4.56,4.56,0,0,1,3.3,1.07,4,4,0,0,1,1.1,3v1.86q0,2.08-1.12,2.68a10.23,10.23,0,0,1-3.63.85,6.59,6.59,0,0,1,3.57.88,3.07,3.07,0,0,1,1.18,2.71v2.67q0,4.09-4.4,4.09H174.39a4.44,4.44,0,0,1-3.27-1.1,4.21,4.21,0,0,1-1.1-3.11V67.48a3.21,3.21,0,0,1,1.18-2.79,6.06,6.06,0,0,1,3.53-.85q-3.07-.36-3.89-1.14a3.08,3.08,0,0,1-.82-2.34v-1.8q0-4,4.4-4Zm-4.34,7.87a1,1,0,0,0,1.18-1.24v-2a1.45,1.45,0,0,0-.28-1,1.23,1.23,0,0,0-.9-.28h-3.56a1.24,1.24,0,0,0-.9.28,1.45,1.45,0,0,0-.28,1v2a1.44,1.44,0,0,0,.28,1,1.23,1.23,0,0,0,.9.28Zm-3.56,3.29a1.24,1.24,0,0,0-.9.28,1.45,1.45,0,0,0-.28,1v2.79a1.44,1.44,0,0,0,.28,1,1.23,1.23,0,0,0,.9.28h3.56a1,1,0,0,0,1.18-1.24V67.06a1.49,1.49,0,0,0-.26-1,1.32,1.32,0,0,0-.95-.26Z"/></svg>