<svg id="Layer_1" data-name="Layer 1" xmlns="http://www.w3.org/2000/svg" viewBox="0 0 250.93 88.19"><defs><style>.cls-1{fill:#231f20;}.cls-2{fill:#ffc418;}.cls-3{fill:none;stroke:#231f20;}</style></defs><title>DD-44</title><path class="cls-1" d="M5.4,55.53a171.41,171.41,0,0,1,121-50.13A167.4,167.4,0,0,1,245.53,54.93L221,82.78H29.31Z"/><path class="cls-2" d="M5.4,55.53a171.41,171.41,0,0,1,121-50.13A167.4,167.4,0,0,1,245.53,54.92L221,82.78H29.31ZM92.56,3.29a177,177,0,0,0-91,48.41,5.4,5.4,0,0,0-.25,7.39L25.25,86.35a5.4,5.4,0,0,0,4.06,1.84H221a5.39,5.39,0,0,0,4.05-1.83l24.52-27.86a5.39,5.39,0,0,0-.24-7.38A172.77,172.77,0,0,0,126.45,0,176.66,176.66,0,0,0,92.56,3.29"/><path class="cls-3" d="M5.4,55.53a171.42,171.42,0,0,1,121-50.13A167.4,167.4,0,0,1,245.53,54.93"/><path class="cls-2" d="M26.1,57.32,24.1,55a7.24,7.24,0,0,0-1-1,4.16,4.16,0,0,0-.86-.5l4.52-3.9a3.77,3.77,0,0,0,.38.92,7.22,7.22,0,0,0,.81,1.1l5.76,6.68a7.36,7.36,0,0,0,1,1,4.17,4.17,0,0,0,.86.5l-4.52,3.9a3.79,3.79,0,0,0-.38-.92,7.19,7.19,0,0,0-.81-1.1L27.56,59l-2.89,2.5L27,64.17a7.36,7.36,0,0,0,1,1,4.12,4.12,0,0,0,.86.49l-4.52,3.9a3.76,3.76,0,0,0-.38-.92,7.21,7.21,0,0,0-.81-1.1l-5.76-6.68a7.24,7.24,0,0,0-1-1,4.16,4.16,0,0,0-.86-.5L20,55.47a3.72,3.72,0,0,0,.38.92,7.13,7.13,0,0,0,.81,1.1l2,2.32Z"/><path class="cls-2" d="M39.54,40.73l5.72-3.81a4.1,4.1,0,0,0,.24,1,6.49,6.49,0,0,0,.67,1.22l4.89,7.34a7.25,7.25,0,0,0,.85,1.1,3.67,3.67,0,0,0,.8.58l-5,3.32a3.76,3.76,0,0,0-.26-1,7.18,7.18,0,0,0-.67-1.19l-4.59-6.89,2.74,10.89-3,2L33,48.33l4.55,6.9a9.17,9.17,0,0,0,.93,1.24,2.54,2.54,0,0,0,.84.51l-2.69,1.79a2.51,2.51,0,0,0-.14-1,9,9,0,0,0-.78-1.32L31,49.33a9,9,0,0,0-.92-1.23,2.49,2.49,0,0,0-.84-.5l5.87-3.91,6.36,4.92Z"/><path class="cls-2" d="M60.88,32.09a6.36,6.36,0,0,0-1,.1,4.11,4.11,0,0,0-1.05.38l-4.26,2.15a1.93,1.93,0,0,0-.67.45q-.12.18,0,.52l.34.68q.17.34.39.35a1.93,1.93,0,0,0,.76-.26l3.24-1.64a4.18,4.18,0,0,1,2.54-.58,2.44,2.44,0,0,1,1.68,1.48l1.47,2.93a3.69,3.69,0,0,1,.48,2.54A3.21,3.21,0,0,1,63,43l-8.25,4.16-1.57-2.13a7.05,7.05,0,0,0,.95-.17,5.12,5.12,0,0,0,1-.4l4.43-2.23a1.83,1.83,0,0,0,.65-.44q.12-.18,0-.52l-.42-.82q-.16-.32-.38-.34a1.69,1.69,0,0,0-.75.25l-3.73,1.88a3.08,3.08,0,0,1-2.25.43A3.22,3.22,0,0,1,51,40.94l-1.35-2.68a3.44,3.44,0,0,1-.41-2.45,2.67,2.67,0,0,1,1.51-1.68l8.5-4.28Z"/><path class="cls-2" d="M72.48,26.9a7.32,7.32,0,0,0-.5-1.29,4.17,4.17,0,0,0-.59-.79l10-3.11a4.15,4.15,0,0,1,3.12-.06,4.08,4.08,0,0,1,1.71,2.56l1.73,5.53a4.08,4.08,0,0,1,0,3.08,4.15,4.15,0,0,1-2.6,1.72l-10,3.11a3.78,3.78,0,0,0,0-1,7.26,7.26,0,0,0-.31-1.33Zm7.54,7,2.55-.79c.4-.12.64-.26.71-.42a1.54,1.54,0,0,0-.11-.91l-2-6.5a1.54,1.54,0,0,0-.43-.8,1.08,1.08,0,0,0-.82,0l-2.55.79Z"/><path class="cls-2" d="M100.17,28.81a7.94,7.94,0,0,0,1.22-.32,7.61,7.61,0,0,0,1-.49l.07,2.62L90.82,33a3.73,3.73,0,0,0,.12-1,7.14,7.14,0,0,0-.17-1.36L89,22a7.26,7.26,0,0,0-.37-1.33,4.18,4.18,0,0,0-.51-.85l11.4-2.33,1,2.59a9.34,9.34,0,0,0-1.08-.14,4.88,4.88,0,0,0-1.3.12L94,20.89,94.64,24l3.58-.73a7.46,7.46,0,0,0,1.19-.32,9.43,9.43,0,0,0,1-.49l.59,2.88a10.4,10.4,0,0,0-1,0,6.85,6.85,0,0,0-1.29.16l-3.58.73.72,3.54Z"/><path class="cls-2" d="M108.18,29.88,102.53,18.2a3,3,0,0,0-.41-.64,3.14,3.14,0,0,0-.53-.5l6.35-.65a3.65,3.65,0,0,0,0,.55l0,.19a3.55,3.55,0,0,0,.13.64,7,7,0,0,0,.47,1l3.74,7.76,2.3-8.38a9.68,9.68,0,0,0,.21-1,3.08,3.08,0,0,0,0-.8,2,2,0,0,0-.08-.4l-.1-.32,3.45-.35a4.91,4.91,0,0,0-.55,1,11.38,11.38,0,0,0-.54,1.57l-3.1,11.38Z"/><path class="cls-2" d="M123.56,25.15,122.64,27a1.76,1.76,0,0,0-.2.8,1.81,1.81,0,0,0,0,.47,2.88,2.88,0,0,0,.25.5l-3.8,0q.62-.77.92-1.23a9.94,9.94,0,0,0,.64-1.19l5-10.2-.58-.76,6.07.06L135.64,27a6.29,6.29,0,0,0,1.16,1.86l-6.74-.07a3.25,3.25,0,0,0,.24-.51,1.24,1.24,0,0,0,.07-.37,2.53,2.53,0,0,0-.18-1l-.72-1.73Zm5-2.18-1.87-4.57-2.1,4.53Z"/><path class="cls-2" d="M151.47,20a6.33,6.33,0,0,0-.91-.49,4.1,4.1,0,0,0-1.09-.26l-4.73-.57a1.92,1.92,0,0,0-.8,0c-.13.05-.21.21-.25.46l-.09.75c0,.25,0,.42.13.5a1.93,1.93,0,0,0,.78.2l3.61.43a4.17,4.17,0,0,1,2.44.93,2.45,2.45,0,0,1,.58,2.16l-.39,3.25a3.69,3.69,0,0,1-1,2.39,3.22,3.22,0,0,1-2.58.5L138,29.13l-.13-2.64a6.85,6.85,0,0,0,.88.38,5,5,0,0,0,1.07.23l4.92.59a1.86,1.86,0,0,0,.78,0q.2-.08.25-.46l.11-.92a.51.51,0,0,0-.13-.49,1.72,1.72,0,0,0-.76-.21l-4.15-.5a3.08,3.08,0,0,1-2.11-.89,3.22,3.22,0,0,1-.35-2.35l.36-3a3.44,3.44,0,0,1,1-2.27,2.67,2.67,0,0,1,2.18-.56l9.45,1.14Z"/><path class="cls-2" d="M167.24,20.55l-.19,2.76a4.18,4.18,0,0,0-.75-.55,3.73,3.73,0,0,0-1-.35L163,21.89l-1.94,8.69a7.26,7.26,0,0,0-.21,1.36,4.15,4.15,0,0,0,.11,1l-5.82-1.3a3.75,3.75,0,0,0,.51-.85,7.19,7.19,0,0,0,.4-1.31L158,20.77l-2.27-.51a3.49,3.49,0,0,0-1-.11,4.64,4.64,0,0,0-.94.23l1-2.61Z"/><path class="cls-2" d="M170.06,31.65l-1.45,1.46a2,2,0,0,0-.55,1.16,2.92,2.92,0,0,0,.08.55l-3.6-1.23q.83-.54,1.25-.88a10,10,0,0,0,1-.93l7.93-8.12-.31-.91,5.75,2,.8,12.52a6.31,6.31,0,0,0,.52,2.13l-6.38-2.17a3.13,3.13,0,0,0,.38-.41,1.21,1.21,0,0,0,.18-.33,2.54,2.54,0,0,0,.15-1l-.14-1.87Zm5.47-.49-.35-4.92-3.41,3.64Z"/><path class="cls-2" d="M198.86,32.77l-.77,2.65a4.28,4.28,0,0,0-.61-.7,3.7,3.7,0,0,0-.91-.56l-2.11-1-3.76,8.07a7.33,7.33,0,0,0-.5,1.29,4.16,4.16,0,0,0-.1,1L184.69,41a3.81,3.81,0,0,0,.68-.72,7.27,7.27,0,0,0,.67-1.19L189.81,31l-2.11-1a3.52,3.52,0,0,0-1-.33,4.66,4.66,0,0,0-1,0l1.55-2.33Z"/><path class="cls-2" d="M194.71,45.89a3.77,3.77,0,0,0,.74-.67,7.2,7.2,0,0,0,.76-1.14l4.34-7.68a7.38,7.38,0,0,0,.59-1.24,4.16,4.16,0,0,0,.18-1l5.19,2.93a3.72,3.72,0,0,0-.74.67,7.2,7.2,0,0,0-.76,1.14l-4.34,7.68a7.28,7.28,0,0,0-.59,1.24,4.06,4.06,0,0,0-.18,1Z"/><path class="cls-2" d="M207.29,42a4.4,4.4,0,0,1,2.41-2,3.3,3.3,0,0,1,2.63.68L218.67,45a3.32,3.32,0,0,1,1.59,2.2,4.39,4.39,0,0,1-1,3l-3.13,4.58a4.4,4.4,0,0,1-2.41,2,3.3,3.3,0,0,1-2.63-.68l-6.34-4.34a3.32,3.32,0,0,1-1.59-2.2,4.39,4.39,0,0,1,1-3Zm.61,8.18q-.49.71.35,1.28l1.84,1.26q.83.57,1.32-.14l4.1-6q.49-.71-.35-1.28l-1.84-1.26q-.83-.57-1.32.14Z"/><path class="cls-2" d="M224.63,52.48,218.9,59a8.87,8.87,0,0,0-.94,1.21,2.47,2.47,0,0,0-.26.94l-2.45-2.12a2.5,2.5,0,0,0,.89-.39,9,9,0,0,0,1.07-1.1l5.64-6.51a9,9,0,0,0,.94-1.21,2.5,2.5,0,0,0,.26-.94l5.45,4.71-3,11.86,5.64-6.42a9,9,0,0,0,.94-1.21,2.52,2.52,0,0,0,.26-.94L235.74,59a2.5,2.5,0,0,0-.9.39,9,9,0,0,0-1.07,1.1l-7.22,8.34-5-4.34Z"/><path class="cls-2" d="M74.33,58a10.74,10.74,0,0,0-.14-2,6.11,6.11,0,0,0-.48-1.38H89.11q3.13,0,4.42,1.29t1.29,4.36V68.8q0,3.07-1.29,4.36t-4.42,1.29H73.71A5.52,5.52,0,0,0,74.17,73a10.61,10.61,0,0,0,.16-2Zm7.56,13.14h3.94A1.66,1.66,0,0,0,87,70.88a2.27,2.27,0,0,0,.25-1.33v-10A2.28,2.28,0,0,0,87,58.18q-.25-.29-1.18-.29H81.89Z"/><path class="cls-2" d="M97.86,58a10.74,10.74,0,0,0-.14-2,6.11,6.11,0,0,0-.48-1.38h15.41q3.13,0,4.42,1.29t1.29,4.36V68.8q0,3.07-1.29,4.36t-4.42,1.29H97.24A5.52,5.52,0,0,0,97.7,73a10.61,10.61,0,0,0,.16-2Zm7.56,13.14h3.94a1.66,1.66,0,0,0,1.18-.28,2.27,2.27,0,0,0,.25-1.33v-10a2.28,2.28,0,0,0-.25-1.32q-.25-.29-1.18-.29h-3.94Z"/><path class="cls-2" d="M120.86,64.55h10.91v5.21H120.86Z"/><path class="cls-2" d="M157.28,64.77V70H153.9v1.74a6,6,0,0,0,.17,1.63,3.75,3.75,0,0,0,.54,1.1h-8.83a3.35,3.35,0,0,0,.51-1.07,6.39,6.39,0,0,0,.17-1.66V70H133.26V65.11L145.13,54.6h8.77V64.77Zm-10.82-6.59-7.77,6.59h7.77Z"/><path class="cls-2" d="M182,64.77V70h-3.38v1.74a6,6,0,0,0,.17,1.63,3.75,3.75,0,0,0,.54,1.1h-8.83a3.35,3.35,0,0,0,.51-1.07,6.39,6.39,0,0,0,.17-1.66V70H157.93V65.11L169.8,54.6h8.77V64.77Zm-10.82-6.59-7.77,6.59h7.77Z"/></svg>