<svg id="Layer_1" data-name="Layer 1" xmlns="http://www.w3.org/2000/svg" viewBox="0 0 250.93 88.19"><defs><style>.cls-1{fill:#231f20;}.cls-2{fill:#ffc418;}.cls-3{fill:none;stroke:#231f20;}</style></defs><title>DD-480</title><path class="cls-1" d="M5.4,55.53a171.41,171.41,0,0,1,121-50.13A167.4,167.4,0,0,1,245.53,54.93L221,82.78H29.31Z"/><path class="cls-2" d="M5.4,55.53a171.41,171.41,0,0,1,121-50.13A167.4,167.4,0,0,1,245.53,54.92L221,82.78H29.31ZM92.56,3.29a177,177,0,0,0-91,48.41,5.4,5.4,0,0,0-.25,7.39L25.25,86.35a5.4,5.4,0,0,0,4.06,1.84H221a5.39,5.39,0,0,0,4.05-1.83l24.52-27.86a5.39,5.39,0,0,0-.24-7.38A172.77,172.77,0,0,0,126.45,0,176.66,176.66,0,0,0,92.56,3.29"/><path class="cls-3" d="M5.4,55.53a171.42,171.42,0,0,1,121-50.13A167.4,167.4,0,0,1,245.53,54.93"/><path class="cls-2" d="M45.37,42.53l-1.78-2.85a8,8,0,0,0-.89-1.22,4.54,4.54,0,0,0-.84-.68l5.54-3.46a4.08,4.08,0,0,0,.26,1.06,7.88,7.88,0,0,0,.7,1.33l5.12,8.19a8,8,0,0,0,.89,1.22,4.54,4.54,0,0,0,.84.68l-5.54,3.46a4.1,4.1,0,0,0-.26-1.06,7.88,7.88,0,0,0-.7-1.33l-2-3.28-3.55,2.22,2,3.28a7.94,7.94,0,0,0,.89,1.22,4.54,4.54,0,0,0,.84.68l-5.54,3.46a4.11,4.11,0,0,0-.26-1.06,7.87,7.87,0,0,0-.69-1.33l-5.12-8.19a8,8,0,0,0-.89-1.22,4.54,4.54,0,0,0-.85-.68l5.54-3.46a4.12,4.12,0,0,0,.26,1.06A7.91,7.91,0,0,0,40,41.9l1.78,2.85Z"/><path class="cls-2" d="M62.9,26.93l6.87-3.07a4.51,4.51,0,0,0,.09,1.07,7.27,7.27,0,0,0,.5,1.44l3.95,8.82A8.14,8.14,0,0,0,75,36.52a4,4,0,0,0,.76.77l-6,2.68a4.1,4.1,0,0,0-.11-1.09,7.85,7.85,0,0,0-.5-1.41l-3.7-8.27,1,12.26-3.55,1.59L54.5,34l3.66,8.28a10.07,10.07,0,0,0,.78,1.51,2.78,2.78,0,0,0,.82.7l-3.23,1.45a2.74,2.74,0,0,0,0-1.07,9.82,9.82,0,0,0-.6-1.57L52.1,34.66a9.89,9.89,0,0,0-.77-1.5,2.76,2.76,0,0,0-.81-.69l7.05-3.16,6,6.47Z"/><path class="cls-2" d="M87.7,21.64a6.79,6.79,0,0,0-1.13-.09,4.47,4.47,0,0,0-1.21.21l-5,1.48a2.12,2.12,0,0,0-.8.36c-.11.11-.13.3,0,.57l.24.79q.12.4.35.45a2.13,2.13,0,0,0,.87-.14l3.82-1.13A4.56,4.56,0,0,1,87.62,24a2.68,2.68,0,0,1,1.52,1.92l1,3.44a4,4,0,0,1,0,2.83,3.52,3.52,0,0,1-2.37,1.63l-9.7,2.87-1.27-2.6a7.64,7.64,0,0,0,1.06,0,5.6,5.6,0,0,0,1.18-.23l5.21-1.54a2,2,0,0,0,.78-.35q.17-.17,0-.57l-.29-1q-.11-.37-.35-.44a1.87,1.87,0,0,0-.85.12l-4.39,1.3a3.37,3.37,0,0,1-2.51,0,3.53,3.53,0,0,1-1.37-2.21l-.93-3.15a3.77,3.77,0,0,1,0-2.72,2.93,2.93,0,0,1,2-1.51l10-3Z"/><path class="cls-2" d="M102.73,30.65a4.08,4.08,0,0,0,.2-1.07,7.88,7.88,0,0,0-.09-1.5l-1.32-9.57a7.91,7.91,0,0,0-.31-1.48,4.52,4.52,0,0,0-.49-1l6.47-.89a4.08,4.08,0,0,0-.2,1.07,7.88,7.88,0,0,0,.09,1.5l1.32,9.57a8,8,0,0,0,.31,1.48,4.49,4.49,0,0,0,.49,1Z"/><path class="cls-2" d="M116,29.12,110.55,16a3.28,3.28,0,0,0-.41-.73,3.44,3.44,0,0,0-.55-.58l7-.33a3.8,3.8,0,0,0-.09.6v.21a3.83,3.83,0,0,0,.1.71,7.74,7.74,0,0,0,.45,1.17l3.63,8.71,3-9a10.21,10.21,0,0,0,.29-1,3.41,3.41,0,0,0,.09-.88,2.23,2.23,0,0,0-.07-.45c0-.14-.07-.26-.09-.35l3.79-.18a5.47,5.47,0,0,0-.67,1,12.39,12.39,0,0,0-.68,1.69L122.3,28.83Z"/><path class="cls-2" d="M133.08,24.92l-1.14,1.94a1.93,1.93,0,0,0-.27.86,2,2,0,0,0,0,.52,3.12,3.12,0,0,0,.23.56l-4.15-.31q.73-.8,1.09-1.28a11.08,11.08,0,0,0,.79-1.25l6.19-10.79-.58-.87,6.63.5,4.27,13.06A6.91,6.91,0,0,0,147.28,30l-7.36-.56a3.51,3.51,0,0,0,.29-.54,1.36,1.36,0,0,0,.1-.4,2.78,2.78,0,0,0-.12-1.12l-.66-1.94Zm5.67-2L137,17.78l-2.62,4.8Z"/><path class="cls-2" d="M153.1,18.77l-2,9.34a9.86,9.86,0,0,0-.25,1.66,2.72,2.72,0,0,0,.25,1l-3.47-.72a2.74,2.74,0,0,0,.65-.85,9.87,9.87,0,0,0,.43-1.63l1.92-9.23a10,10,0,0,0,.25-1.66,2.73,2.73,0,0,0-.25-1l7.72,1.6,3.42,13,2-9.15a9.84,9.84,0,0,0,.25-1.66,2.75,2.75,0,0,0-.25-1l3.47.72a2.74,2.74,0,0,0-.65.85,9.82,9.82,0,0,0-.43,1.63l-2.45,11.82-7.12-1.48Z"/><path class="cls-2" d="M178.33,29l1.09-3.18a8,8,0,0,0,.39-1.46,4.48,4.48,0,0,0,0-1.08L186,25.37a4.09,4.09,0,0,0-.66.87,7.9,7.9,0,0,0-.6,1.38l-3.14,9.13a8,8,0,0,0-.39,1.46,4.53,4.53,0,0,0,0,1.08L175,37.16a4.15,4.15,0,0,0,.66-.87,7.94,7.94,0,0,0,.6-1.38l1.26-3.65-4-1.36-1.26,3.65a8,8,0,0,0-.39,1.46,4.48,4.48,0,0,0,0,1.08L165.75,34a4.11,4.11,0,0,0,.66-.87,7.94,7.94,0,0,0,.6-1.38l3.14-9.13a8,8,0,0,0,.39-1.46,4.58,4.58,0,0,0,0-1.08l6.18,2.13a4.09,4.09,0,0,0-.66.87,7.83,7.83,0,0,0-.59,1.38l-1.09,3.17Z"/><path class="cls-2" d="M187.55,30.71a4.81,4.81,0,0,1,2.3-2.56,3.61,3.61,0,0,1,3,.33l7.55,3.72a3.64,3.64,0,0,1,2.07,2.13,4.81,4.81,0,0,1-.63,3.39l-2.68,5.45a4.82,4.82,0,0,1-2.3,2.56,3.61,3.61,0,0,1-3-.33l-7.55-3.72a3.64,3.64,0,0,1-2.07-2.13,4.8,4.8,0,0,1,.63-3.39Zm1.94,8.77q-.42.85.57,1.33l2.19,1.08q1,.49,1.41-.36l3.51-7.14q.42-.85-.57-1.33L194.41,32q-1-.49-1.41.36Z"/><path class="cls-2" d="M209.38,51.93a8.64,8.64,0,0,0,1.21.68,8.35,8.35,0,0,0,1.14.36l-2,2.11-10.92-7a4.13,4.13,0,0,0,.85-.68,7.93,7.93,0,0,0,.9-1.2l5.22-8.13a8,8,0,0,0,.73-1.32,4.53,4.53,0,0,0,.25-1.05l10.72,6.88-1.23,2.77a10.16,10.16,0,0,0-.74-.94,5.33,5.33,0,0,0-1.11-.91L210.59,41l-1.86,2.9,3.37,2.16a8.23,8.23,0,0,0,1.18.66,10.32,10.32,0,0,0,1.17.38l-1.74,2.71a11.32,11.32,0,0,0-.79-.83,7.49,7.49,0,0,0-1.13-.86L207.42,46l-2.14,3.33Z"/><path class="cls-2" d="M62.84,58a10.83,10.83,0,0,0-.14-2,6.15,6.15,0,0,0-.48-1.38H77.63q3.13,0,4.42,1.29t1.29,4.36V68.8q0,3.07-1.29,4.36t-4.42,1.29H62.22A5.56,5.56,0,0,0,62.69,73a10.66,10.66,0,0,0,.15-2Zm7.56,13.14h3.94q.93,0,1.18-.28a2.27,2.27,0,0,0,.25-1.33v-10a2.28,2.28,0,0,0-.25-1.32q-.25-.29-1.18-.29H70.41Z"/><path class="cls-2" d="M86.37,58a10.74,10.74,0,0,0-.14-2,6.11,6.11,0,0,0-.48-1.38h15.41q3.13,0,4.42,1.29t1.29,4.36V68.8q0,3.07-1.29,4.36t-4.42,1.29H85.75A5.52,5.52,0,0,0,86.22,73a10.61,10.61,0,0,0,.16-2Zm7.56,13.14h3.94A1.66,1.66,0,0,0,99,70.88a2.27,2.27,0,0,0,.25-1.33v-10A2.28,2.28,0,0,0,99,58.18q-.25-.29-1.18-.29H93.94Z"/><path class="cls-2" d="M109.37,64.55h10.91v5.21H109.37Z"/><path class="cls-2" d="M145.8,64.77V70h-3.38v1.74a6,6,0,0,0,.17,1.63,3.75,3.75,0,0,0,.54,1.1H134.3a3.35,3.35,0,0,0,.51-1.07,6.39,6.39,0,0,0,.17-1.66V70H121.77V65.11L133.64,54.6h8.77V64.77ZM135,58.18l-7.77,6.59H135Z"/><path class="cls-2" d="M164,54.6a4.56,4.56,0,0,1,3.3,1.07,4,4,0,0,1,1.1,3v1.86q0,2.08-1.12,2.68a10.23,10.23,0,0,1-3.63.85,6.59,6.59,0,0,1,3.57.88,3.07,3.07,0,0,1,1.18,2.71v2.67q0,4.09-4.4,4.09H151.72a4.44,4.44,0,0,1-3.27-1.1,4.21,4.21,0,0,1-1.1-3.11V67.48a3.21,3.21,0,0,1,1.18-2.79,6.06,6.06,0,0,1,3.53-.85q-3.07-.36-3.89-1.14a3.08,3.08,0,0,1-.82-2.34v-1.8q0-4,4.4-4Zm-4.34,7.87a1,1,0,0,0,1.18-1.24v-2a1.45,1.45,0,0,0-.28-1,1.23,1.23,0,0,0-.9-.28h-3.56a1.24,1.24,0,0,0-.9.28,1.45,1.45,0,0,0-.28,1v2a1.44,1.44,0,0,0,.28,1,1.23,1.23,0,0,0,.9.28Zm-3.56,3.29a1.24,1.24,0,0,0-.9.28,1.45,1.45,0,0,0-.28,1v2.79a1.44,1.44,0,0,0,.28,1,1.23,1.23,0,0,0,.9.28h3.56a1,1,0,0,0,1.18-1.24V67.06a1.49,1.49,0,0,0-.26-1,1.32,1.32,0,0,0-.95-.26Z"/><path class="cls-2" d="M187.37,54.6a4.9,4.9,0,0,1,3.77,1.35q1.26,1.35,1.26,4.48v8.18q0,3.1-1.26,4.46a4.87,4.87,0,0,1-3.77,1.36H176a4.91,4.91,0,0,1-3.77-1.35Q171,71.74,171,68.61V60.43q0-3.1,1.25-4.46A4.88,4.88,0,0,1,176,54.6Zm-7.32,3.29q-1.49,0-1.49,1.27V69.88q0,1.27,1.49,1.27h3.29q1.49,0,1.49-1.27V59.16q0-1.27-1.49-1.27Z"/></svg>