<svg id="Layer_1" data-name="Layer 1" xmlns="http://www.w3.org/2000/svg" viewBox="0 0 250.93 88.19"><defs><style>.cls-1{fill:#ffc418;}.cls-2{fill:none;stroke:#231f20;}</style></defs><title>DD-488</title><path d="M5.4,55.53a171.41,171.41,0,0,1,121-50.13A167.4,167.4,0,0,1,245.53,54.93L221,82.78H29.31Z"/><path class="cls-1" d="M5.4,55.53a171.41,171.41,0,0,1,121-50.13A167.4,167.4,0,0,1,245.53,54.92L221,82.78H29.31ZM92.56,3.29a177,177,0,0,0-91,48.41,5.4,5.4,0,0,0-.25,7.39L25.25,86.35a5.4,5.4,0,0,0,4.06,1.84H221a5.39,5.39,0,0,0,4.05-1.83l24.52-27.86a5.39,5.39,0,0,0-.24-7.38A172.77,172.77,0,0,0,126.45,0,176.66,176.66,0,0,0,92.56,3.29"/><path class="cls-2" d="M5.4,55.53a171.42,171.42,0,0,1,121-50.13A167.4,167.4,0,0,1,245.53,54.93"/><path class="cls-1" d="M43.13,43.46l-1.9-2.94a8.38,8.38,0,0,0-.95-1.26,4.73,4.73,0,0,0-.89-.69l5.72-3.71a4.26,4.26,0,0,0,.28,1.1,8.22,8.22,0,0,0,.75,1.37l5.48,8.46a8.34,8.34,0,0,0,.95,1.26,4.74,4.74,0,0,0,.89.69l-5.72,3.71a4.29,4.29,0,0,0-.28-1.1A8.22,8.22,0,0,0,46.7,49L44.51,45.6,40.84,48,43,51.36A8.36,8.36,0,0,0,44,52.62a4.7,4.7,0,0,0,.89.69L39.15,57a4.31,4.31,0,0,0-.29-1.1,8.18,8.18,0,0,0-.75-1.37l-5.48-8.46a8.37,8.37,0,0,0-.94-1.26,4.75,4.75,0,0,0-.89-.69l5.72-3.71a4.27,4.27,0,0,0,.29,1.1,8.19,8.19,0,0,0,.75,1.38l1.9,2.94Z"/><path class="cls-1" d="M60.08,27.46l7.11-3.33a4.63,4.63,0,0,0,.11,1.11,7.46,7.46,0,0,0,.55,1.49l4.28,9.13a8.3,8.3,0,0,0,.77,1.39,4.19,4.19,0,0,0,.81.79l-6.19,2.91a4.33,4.33,0,0,0-.13-1.13,8.13,8.13,0,0,0-.55-1.46l-4-8.56,1.25,12.78-3.67,1.72-8.94-9.33,4,8.57a10.45,10.45,0,0,0,.84,1.56,2.89,2.89,0,0,0,.87.72l-3.35,1.57a2.86,2.86,0,0,0,0-1.12,10.26,10.26,0,0,0-.66-1.63L49,35.72a10.26,10.26,0,0,0-.83-1.54,2.85,2.85,0,0,0-.86-.71L54.56,30l6.35,6.64Z"/><path class="cls-1" d="M84.69,21.88a7.08,7.08,0,0,0-1.18-.07,4.67,4.67,0,0,0-1.26.24l-5.19,1.65a2.19,2.19,0,0,0-.83.39c-.11.12-.13.32,0,.59l.26.82c.09.27.21.43.37.46a2.22,2.22,0,0,0,.91-.16l4-1.26a4.77,4.77,0,0,1,3-.19,2.8,2.8,0,0,1,1.62,2l1.14,3.57a4.21,4.21,0,0,1,.08,3,3.67,3.67,0,0,1-2.44,1.75L75,37.81l-1.38-2.68a7.79,7.79,0,0,0,1.1,0,5.82,5.82,0,0,0,1.22-.27l5.4-1.72a2.11,2.11,0,0,0,.81-.38q.17-.18,0-.59l-.32-1q-.12-.39-.37-.45a2,2,0,0,0-.89.14l-4.55,1.45a3.52,3.52,0,0,1-2.62.08A3.68,3.68,0,0,1,72,30.09l-1-3.27a3.93,3.93,0,0,1,0-2.84,3.06,3.06,0,0,1,2-1.62l10.36-3.3Z"/><path class="cls-1" d="M109.57,14.14l.93,3a4.87,4.87,0,0,0-1-.29,4.21,4.21,0,0,0-1.22,0l-2.64.39,1.49,10.07a8.27,8.27,0,0,0,.34,1.54,4.71,4.71,0,0,0,.52,1l-6.74,1a4.32,4.32,0,0,0,.2-1.12,8.23,8.23,0,0,0-.11-1.56L99.83,18.15l-2.64.39a4,4,0,0,0-1.16.3,5.37,5.37,0,0,0-.91.63v-3.2Z"/><path class="cls-1" d="M111.88,18.4a5,5,0,0,1,.84-3.49,3.77,3.77,0,0,1,2.87-1.17l8.78-.34a3.8,3.8,0,0,1,3,.93,5,5,0,0,1,1.11,3.43l.25,6.33a5,5,0,0,1-.84,3.49A3.77,3.77,0,0,1,125,28.74l-8.78.34a3.79,3.79,0,0,1-3-.93,5,5,0,0,1-1.11-3.43ZM118,25.48q0,1,1.19.94l2.54-.1q1.15,0,1.11-1l-.32-8.3q0-1-1.19-.94l-2.54.1q-1.15,0-1.11,1Z"/><path class="cls-1" d="M136.52,22.44l-.32,4a8.43,8.43,0,0,0,0,1.58,4.69,4.69,0,0,0,.29,1.09l-6.79-.54a4.33,4.33,0,0,0,.45-1,8.23,8.23,0,0,0,.24-1.55l.81-10a7.47,7.47,0,0,0,0-1.61,2.79,2.79,0,0,0-.41-1.07l12.58,1a4.88,4.88,0,0,1,3,1A3.19,3.19,0,0,1,147,18l-.23,2.82a2.5,2.5,0,0,1-.76,1.95,2.8,2.8,0,0,1-1.78.33L146,27.54q.26.7.53,1.38a4.83,4.83,0,0,0,.55,1.07l-6.53-.52-2.24-6.87Zm.2-2.54,3.3.26a1.3,1.3,0,0,0,.78-.09c.14-.09.22-.32.25-.69l.15-1.87a.93.93,0,0,0-.14-.71,1.23,1.23,0,0,0-.75-.23l-3.3-.27Z"/><path class="cls-1" d="M152.8,18.18l-2.06,9.75a10.17,10.17,0,0,0-.26,1.74,2.84,2.84,0,0,0,.27,1.08L147.13,30a2.84,2.84,0,0,0,.67-.89,10.25,10.25,0,0,0,.45-1.7l2-9.64A10.25,10.25,0,0,0,150.5,16a2.85,2.85,0,0,0-.27-1.08l8.06,1.66,3.58,13.53,2-9.55a10.27,10.27,0,0,0,.26-1.74,2.88,2.88,0,0,0-.27-1.08l3.62.75a2.86,2.86,0,0,0-.67.89,10.31,10.31,0,0,0-.45,1.7l-2.54,12.34-7.43-1.53Z"/><path class="cls-1" d="M170,31.07l-1.66,1.66a2,2,0,0,0-.5.79,2.11,2.11,0,0,0-.13.53,3.36,3.36,0,0,0,.09.63l-4.11-1.41q.95-.61,1.44-1a11.38,11.38,0,0,0,1.13-1.06l9.09-9.26-.36-1,6.56,2.25.88,14.31A7.2,7.2,0,0,0,183,39.9l-7.29-2.5a3.77,3.77,0,0,0,.44-.47,1.41,1.41,0,0,0,.2-.37,2.89,2.89,0,0,0,.17-1.16l-.16-2.13Zm6.25-.54-.38-5.63L172,29.05Z"/><path class="cls-1" d="M188.33,28.52a8.34,8.34,0,0,0,.59-1.46,4.78,4.78,0,0,0,.13-1.12l10.72,5.24a4.75,4.75,0,0,1,2.63,2.4,4.67,4.67,0,0,1-.59,3.47l-2.91,6a4.67,4.67,0,0,1-2.38,2.59A4.75,4.75,0,0,1,193,45l-10.72-5.24a4.32,4.32,0,0,0,.8-.81,8.22,8.22,0,0,0,.79-1.35Zm.79,11.71,2.74,1.34a1.29,1.29,0,0,0,.91.21q.27-.11.63-.84l3.42-7a1.77,1.77,0,0,0,.28-1q-.07-.29-.72-.61L193.63,31Z"/><path class="cls-1" d="M203.83,38.33a5,5,0,0,1,2.7-2.37,3.77,3.77,0,0,1,3,.7l7.37,4.78a3.8,3.8,0,0,1,1.88,2.46,5,5,0,0,1-1.07,3.44l-3.45,5.32a5,5,0,0,1-2.7,2.37,3.77,3.77,0,0,1-3-.7l-7.37-4.78a3.79,3.79,0,0,1-1.88-2.46,5,5,0,0,1,1.07-3.44Zm.93,9.33q-.53.83.43,1.45l2.13,1.38q1,.63,1.5-.2l4.52-7q.53-.82-.43-1.45l-2.13-1.38q-1-.63-1.5.2Z"/><path class="cls-1" d="M63.14,58A10.83,10.83,0,0,0,63,56a6.15,6.15,0,0,0-.48-1.38H77.92q3.13,0,4.42,1.29t1.29,4.36V68.8q0,3.07-1.29,4.36t-4.42,1.29H62.52A5.56,5.56,0,0,0,63,73a10.66,10.66,0,0,0,.15-2ZM70.7,71.15h3.94a1.66,1.66,0,0,0,1.18-.28,2.27,2.27,0,0,0,.25-1.33v-10a2.28,2.28,0,0,0-.25-1.32q-.25-.29-1.18-.29H70.7Z"/><path class="cls-1" d="M86.66,58a10.74,10.74,0,0,0-.14-2A6.11,6.11,0,0,0,86,54.6h15.41q3.13,0,4.42,1.29t1.29,4.36V68.8q0,3.07-1.29,4.36t-4.42,1.29H86A5.52,5.52,0,0,0,86.51,73a10.61,10.61,0,0,0,.16-2Zm7.56,13.14h3.94a1.66,1.66,0,0,0,1.18-.28,2.27,2.27,0,0,0,.25-1.33v-10a2.28,2.28,0,0,0-.25-1.32q-.25-.29-1.18-.29H94.23Z"/><path class="cls-1" d="M109.67,64.55h10.91v5.21H109.67Z"/><path class="cls-1" d="M146.09,64.77V70h-3.38v1.74a6,6,0,0,0,.17,1.63,3.75,3.75,0,0,0,.54,1.1h-8.84a3.31,3.31,0,0,0,.51-1.07,6.39,6.39,0,0,0,.17-1.66V70H122.07V65.11L133.94,54.6h8.77V64.77Zm-10.82-6.59-7.77,6.59h7.77Z"/><path class="cls-1" d="M164.29,54.6a4.57,4.57,0,0,1,3.3,1.07,4,4,0,0,1,1.1,3v1.86q0,2.08-1.12,2.68a10.23,10.23,0,0,1-3.63.85,6.58,6.58,0,0,1,3.56.88,3.07,3.07,0,0,1,1.18,2.71v2.67q0,4.09-4.4,4.09H152a4.43,4.43,0,0,1-3.27-1.1,4.21,4.21,0,0,1-1.1-3.11V67.48a3.21,3.21,0,0,1,1.18-2.79,6.06,6.06,0,0,1,3.54-.85q-3.07-.36-3.89-1.14a3.07,3.07,0,0,1-.82-2.34v-1.8q0-4,4.4-4Zm-4.34,7.87a1,1,0,0,0,1.18-1.24v-2a1.45,1.45,0,0,0-.28-1,1.24,1.24,0,0,0-.9-.28h-3.56a1.23,1.23,0,0,0-.9.28,1.45,1.45,0,0,0-.28,1v2a1.44,1.44,0,0,0,.28,1,1.23,1.23,0,0,0,.9.28Zm-3.56,3.29a1.23,1.23,0,0,0-.9.28,1.45,1.45,0,0,0-.28,1v2.79a1.44,1.44,0,0,0,.28,1,1.23,1.23,0,0,0,.9.28h3.56a1,1,0,0,0,1.18-1.24V67.06a1.51,1.51,0,0,0-.26-1,1.33,1.33,0,0,0-.95-.26Z"/><path class="cls-1" d="M187.82,54.6a4.57,4.57,0,0,1,3.3,1.07,4,4,0,0,1,1.1,3v1.86q0,2.08-1.12,2.68a10.23,10.23,0,0,1-3.63.85A6.58,6.58,0,0,1,191,65a3.07,3.07,0,0,1,1.18,2.71v2.67q0,4.09-4.4,4.09H175.54a4.43,4.43,0,0,1-3.27-1.1,4.21,4.21,0,0,1-1.1-3.11V67.48a3.21,3.21,0,0,1,1.18-2.79,6.06,6.06,0,0,1,3.54-.85q-3.07-.36-3.89-1.14a3.07,3.07,0,0,1-.82-2.34v-1.8q0-4,4.4-4Zm-4.34,7.87a1,1,0,0,0,1.18-1.24v-2a1.45,1.45,0,0,0-.28-1,1.24,1.24,0,0,0-.9-.28h-3.56a1.23,1.23,0,0,0-.9.28,1.45,1.45,0,0,0-.28,1v2a1.44,1.44,0,0,0,.28,1,1.23,1.23,0,0,0,.9.28Zm-3.56,3.29a1.23,1.23,0,0,0-.9.28,1.45,1.45,0,0,0-.28,1v2.79a1.44,1.44,0,0,0,.28,1,1.23,1.23,0,0,0,.9.28h3.56a1,1,0,0,0,1.18-1.24V67.06a1.51,1.51,0,0,0-.26-1,1.33,1.33,0,0,0-.95-.26Z"/></svg>