<svg id="Layer_1" data-name="Layer 1" xmlns="http://www.w3.org/2000/svg" viewBox="0 0 250.93 88.19"><defs><style>.cls-1{fill:#231f20;}.cls-2{fill:#ffc418;}.cls-3{fill:none;stroke:#231f20;}</style></defs><title>DD-515</title><path class="cls-1" d="M5.4,55.53a171.41,171.41,0,0,1,121-50.13A167.4,167.4,0,0,1,245.53,54.93L221,82.78H29.31Z"/><path class="cls-2" d="M5.4,55.53a171.41,171.41,0,0,1,121-50.13A167.4,167.4,0,0,1,245.53,54.92L221,82.78H29.31ZM92.56,3.29a177,177,0,0,0-91,48.41,5.4,5.4,0,0,0-.25,7.39L25.25,86.35a5.4,5.4,0,0,0,4.06,1.84H221a5.39,5.39,0,0,0,4.05-1.83l24.52-27.86a5.39,5.39,0,0,0-.24-7.38A172.77,172.77,0,0,0,126.45,0,176.66,176.66,0,0,0,92.56,3.29"/><path class="cls-3" d="M5.4,55.53a171.42,171.42,0,0,1,121-50.13A167.4,167.4,0,0,1,245.53,54.93"/><path class="cls-2" d="M42.74,43.7l-1.91-2.94a8.35,8.35,0,0,0-.95-1.26,4.75,4.75,0,0,0-.9-.69L44.7,35.1A4.28,4.28,0,0,0,45,36.2a8.2,8.2,0,0,0,.75,1.37L51.24,46a8.33,8.33,0,0,0,.95,1.26,4.69,4.69,0,0,0,.89.69l-5.71,3.72a4.29,4.29,0,0,0-.29-1.1,8.24,8.24,0,0,0-.75-1.37l-2.2-3.38-3.66,2.38,2.2,3.38a8.39,8.39,0,0,0,.95,1.26,4.73,4.73,0,0,0,.89.69l-5.71,3.72a4.28,4.28,0,0,0-.29-1.1,8.2,8.2,0,0,0-.75-1.37l-5.5-8.45a8.37,8.37,0,0,0-.95-1.26,4.78,4.78,0,0,0-.9-.69l5.71-3.72a4.26,4.26,0,0,0,.29,1.1,8.17,8.17,0,0,0,.75,1.37l1.91,2.94Z"/><path class="cls-2" d="M60.82,27.13l7.12-3.3A4.72,4.72,0,0,0,68,24.94a7.48,7.48,0,0,0,.55,1.49l4.24,9.15A8.36,8.36,0,0,0,73.59,37a4.21,4.21,0,0,0,.8.79l-6.21,2.88a4.31,4.31,0,0,0-.13-1.13A8.26,8.26,0,0,0,67.52,38l-4-8.58,1.19,12.78L61,43.95l-8.89-9.37,3.93,8.59a10.54,10.54,0,0,0,.83,1.57,2.9,2.9,0,0,0,.86.72L54.43,47a2.85,2.85,0,0,0,0-1.12,10.34,10.34,0,0,0-.65-1.63l-4.14-8.93a10.24,10.24,0,0,0-.82-1.55,2.85,2.85,0,0,0-.86-.71l7.32-3.39,6.32,6.67Z"/><path class="cls-2" d="M86.69,21.36a7.16,7.16,0,0,0-1.18-.09,4.65,4.65,0,0,0-1.26.23L79,23.08a2.2,2.2,0,0,0-.84.38q-.17.18,0,.59l.25.83q.13.41.37.47a2.22,2.22,0,0,0,.91-.15l4-1.21a4.77,4.77,0,0,1,3-.15,2.8,2.8,0,0,1,1.6,2l1.09,3.58a4.2,4.2,0,0,1,0,3,3.67,3.67,0,0,1-2.46,1.71l-10.1,3.07-1.35-2.7a8,8,0,0,0,1.1,0,5.86,5.86,0,0,0,1.23-.25l5.42-1.65a2.14,2.14,0,0,0,.82-.37c.11-.12.13-.32,0-.59l-.31-1q-.12-.39-.36-.45a2,2,0,0,0-.89.13l-4.57,1.39a3.52,3.52,0,0,1-2.62,0,3.68,3.68,0,0,1-1.45-2.29l-1-3.28a3.93,3.93,0,0,1,0-2.84,3.06,3.06,0,0,1,2-1.59l10.4-3.16Z"/><path class="cls-2" d="M115.23,16.78a7.27,7.27,0,0,0-1.14-.3,4.72,4.72,0,0,0-1.28,0l-5.41.62a2.22,2.22,0,0,0-.89.22c-.13.1-.18.29-.15.57l.1.86c0,.29.13.46.28.52a2.2,2.2,0,0,0,.92,0l4.13-.47a4.77,4.77,0,0,1,3,.39,2.8,2.8,0,0,1,1.21,2.25l.42,3.72a4.21,4.21,0,0,1-.49,2.92,3.67,3.67,0,0,1-2.73,1.24l-10.49,1.2-.84-2.9a8,8,0,0,0,1.08.19,5.85,5.85,0,0,0,1.25,0l5.63-.64a2.11,2.11,0,0,0,.87-.22q.2-.14.15-.57l-.12-1a.59.59,0,0,0-.28-.51,2,2,0,0,0-.9,0l-4.75.54a3.51,3.51,0,0,1-2.58-.43,3.68,3.68,0,0,1-1-2.52L100.77,19a3.93,3.93,0,0,1,.53-2.79,3.06,3.06,0,0,1,2.28-1.2l10.8-1.23Z"/><path class="cls-2" d="M122.83,24.64l-1.05,2.1a2,2,0,0,0-.22.91,2,2,0,0,0,0,.54,3.31,3.31,0,0,0,.28.57l-4.34,0q.7-.88,1-1.41a11.32,11.32,0,0,0,.73-1.36L125,14.29l-.66-.87,6.94.06,5.36,13.3A7.2,7.2,0,0,0,138,28.9l-7.7-.07a3.57,3.57,0,0,0,.27-.59,1.41,1.41,0,0,0,.08-.42,2.93,2.93,0,0,0-.21-1.15l-.82-2Zm5.76-2.49-2.14-5.22L124,22.1Z"/><path class="cls-2" d="M150.18,28.08a7.39,7.39,0,0,0,1.54.06,3.12,3.12,0,0,0,1-.25l-.89,3-13.14-1.68a4.31,4.31,0,0,0,.49-1,8.23,8.23,0,0,0,.32-1.53l1.28-10a8.42,8.42,0,0,0,.09-1.57,4.82,4.82,0,0,0-.23-1.11l6.76.86a4.27,4.27,0,0,0-.49,1,8.24,8.24,0,0,0-.32,1.53l-1.29,10.09Z"/><path class="cls-2" d="M158,28l-1.52,1.8a2,2,0,0,0-.43.83,2.07,2.07,0,0,0-.08.54,3.26,3.26,0,0,0,.14.62l-4.21-1.06q.89-.69,1.35-1.12a11.37,11.37,0,0,0,1-1.15l8.28-10-.44-1,6.73,1.69L171,33.29a7.18,7.18,0,0,0,.79,2.38l-7.47-1.88a3.7,3.7,0,0,0,.4-.5,1.43,1.43,0,0,0,.17-.39,2.9,2.9,0,0,0,.07-1.17l-.33-2.11Zm6.18-1.07-.85-5.57-3.55,4.47Z"/><path class="cls-2" d="M177.33,24.3a8.34,8.34,0,0,0,.48-1.5,4.72,4.72,0,0,0,0-1.13l11.08,4.42a4.75,4.75,0,0,1,2.81,2.19,4.66,4.66,0,0,1-.32,3.5L189,37.93a4.67,4.67,0,0,1-2.17,2.76,4.75,4.75,0,0,1-3.55-.34l-11.08-4.42a4.29,4.29,0,0,0,.73-.87,8.23,8.23,0,0,0,.69-1.41ZM179,35.92,181.84,37a1.29,1.29,0,0,0,.93.14,1.76,1.76,0,0,0,.56-.89l2.88-7.22a1.77,1.77,0,0,0,.2-1q-.09-.28-.76-.55l-2.83-1.13Z"/><path class="cls-2" d="M189.56,43.24a4.31,4.31,0,0,0,.82-.79,8.25,8.25,0,0,0,.82-1.33l4.63-9a8.32,8.32,0,0,0,.63-1.45,4.75,4.75,0,0,0,.16-1.12l6.06,3.13a4.27,4.27,0,0,0-.82.79,8.27,8.27,0,0,0-.82,1.33l-4.63,9a8.29,8.29,0,0,0-.62,1.45,4.75,4.75,0,0,0-.16,1.12Z"/><path class="cls-2" d="M207.25,38.31l-5.47,8.32a10.33,10.33,0,0,0-.87,1.52,2.84,2.84,0,0,0-.15,1.11l-3.1-2a2.86,2.86,0,0,0,1-.58,10.28,10.28,0,0,0,1-1.42L205,37a10.23,10.23,0,0,0,.88-1.52,2.85,2.85,0,0,0,.15-1.11l6.9,4.49-1.6,13.9,5.39-8.15a10.29,10.29,0,0,0,.87-1.52,2.85,2.85,0,0,0,.15-1.11l3.1,2a2.84,2.84,0,0,0-1,.58,10.23,10.23,0,0,0-1,1.42L212,56.56l-6.36-4.14Z"/><path class="cls-2" d="M68.58,58a10.74,10.74,0,0,0-.14-2A6.11,6.11,0,0,0,68,54.6H83.36q3.13,0,4.42,1.29t1.29,4.36V68.8q0,3.07-1.29,4.36t-4.42,1.29H68A5.52,5.52,0,0,0,68.42,73a10.61,10.61,0,0,0,.16-2Zm7.56,13.14h3.94a1.66,1.66,0,0,0,1.18-.28,2.27,2.27,0,0,0,.25-1.33v-10a2.28,2.28,0,0,0-.25-1.32q-.25-.29-1.18-.29H76.14Z"/><path class="cls-2" d="M92.11,58A10.74,10.74,0,0,0,92,56a6.11,6.11,0,0,0-.48-1.38h15.41q3.13,0,4.42,1.29t1.29,4.36V68.8q0,3.07-1.29,4.36t-4.42,1.29H91.49A5.52,5.52,0,0,0,91.95,73a10.61,10.61,0,0,0,.16-2Zm7.56,13.14h3.94a1.66,1.66,0,0,0,1.18-.28,2.27,2.27,0,0,0,.25-1.33v-10a2.28,2.28,0,0,0-.25-1.32q-.25-.29-1.18-.29H99.67Z"/><path class="cls-2" d="M115.11,64.55H126v5.21H115.11Z"/><path class="cls-2" d="M135.78,61.79h8.09a5.28,5.28,0,0,1,3.8,1.1,4.67,4.67,0,0,1,1.1,3.43v3.6a4.67,4.67,0,0,1-1.1,3.43,5.28,5.28,0,0,1-3.8,1.1h-15l-.68-4.28a4.67,4.67,0,0,0,1.36.71,7.71,7.71,0,0,0,2.39.28h7.9a1.77,1.77,0,0,0,1.13-.23,1.64,1.64,0,0,0,.23-1.07V66.38a1.57,1.57,0,0,0-.25-1.05,1.69,1.69,0,0,0-1.12-.25h-8a9.39,9.39,0,0,0-1.94.17,3.45,3.45,0,0,0-1.47.73l.25-11.38h19.84l.59,4a6.64,6.64,0,0,0-1.61-.57,13.12,13.12,0,0,0-2.51-.18h-9Z"/><path class="cls-2" d="M161.55,71.71a6,6,0,0,0,.17,1.63,3.75,3.75,0,0,0,.54,1.1h-9a3.28,3.28,0,0,0,.51-1.07,6.41,6.41,0,0,0,.17-1.66V60.61h-2.82v-3.5l8.37-2.51h2Z"/><path class="cls-2" d="M173.67,61.79h8.09a5.28,5.28,0,0,1,3.8,1.1,4.68,4.68,0,0,1,1.1,3.43v3.6a4.68,4.68,0,0,1-1.1,3.43,5.28,5.28,0,0,1-3.8,1.1h-15l-.68-4.28a4.67,4.67,0,0,0,1.36.71,7.72,7.72,0,0,0,2.39.28h7.9a1.76,1.76,0,0,0,1.13-.23,1.62,1.62,0,0,0,.23-1.07V66.38a1.56,1.56,0,0,0-.25-1.05,1.69,1.69,0,0,0-1.12-.25h-8a9.38,9.38,0,0,0-1.94.17,3.46,3.46,0,0,0-1.47.73l.25-11.38h19.84l.59,4a6.65,6.65,0,0,0-1.61-.57,13.1,13.1,0,0,0-2.51-.18h-9Z"/></svg>