<svg id="Layer_1" data-name="Layer 1" xmlns="http://www.w3.org/2000/svg" viewBox="0 0 250.93 88.19"><defs><style>.cls-1{fill:#231f20;}.cls-2{fill:#ffc418;}.cls-3{fill:none;stroke:#231f20;}</style></defs><title>DD-57</title><path class="cls-1" d="M5.4,55.53a171.41,171.41,0,0,1,121-50.13A167.4,167.4,0,0,1,245.53,54.93L221,82.78H29.31Z"/><path class="cls-2" d="M5.4,55.53a171.41,171.41,0,0,1,121-50.13A167.4,167.4,0,0,1,245.53,54.92L221,82.78H29.31ZM92.56,3.29a177,177,0,0,0-91,48.41,5.4,5.4,0,0,0-.25,7.39L25.25,86.35a5.4,5.4,0,0,0,4.06,1.84H221a5.39,5.39,0,0,0,4.05-1.83l24.52-27.86a5.39,5.39,0,0,0-.24-7.38A172.77,172.77,0,0,0,126.45,0,176.66,176.66,0,0,0,92.56,3.29"/><path class="cls-3" d="M5.4,55.53a171.42,171.42,0,0,1,121-50.13A167.4,167.4,0,0,1,245.53,54.93"/><path class="cls-2" d="M56.07,36.17l-1.62-3.11a8.29,8.29,0,0,0-.82-1.34,4.76,4.76,0,0,0-.82-.78l6-3.15A4.28,4.28,0,0,0,59,28.92a8.26,8.26,0,0,0,.61,1.44L64.3,39.3a8.35,8.35,0,0,0,.82,1.34,4.73,4.73,0,0,0,.82.78l-6,3.15a4.3,4.3,0,0,0-.18-1.12A8.22,8.22,0,0,0,59.1,42l-1.86-3.58-3.87,2L55.23,44A8.33,8.33,0,0,0,56,45.36a4.71,4.71,0,0,0,.82.78l-6,3.14a4.31,4.31,0,0,0-.18-1.12A8.26,8.26,0,0,0,50,46.72l-4.65-8.94a8.38,8.38,0,0,0-.82-1.34,4.75,4.75,0,0,0-.82-.78l6-3.15A4.3,4.3,0,0,0,50,33.64a8.23,8.23,0,0,0,.61,1.44l1.62,3.11Z"/><path class="cls-2" d="M75.68,21.45l7.41-2.58a4.65,4.65,0,0,0,0,1.12,7.39,7.39,0,0,0,.4,1.54L86.8,31a8.25,8.25,0,0,0,.62,1.46,4.18,4.18,0,0,0,.72.87l-6.46,2.25a4.29,4.29,0,0,0,0-1.14,8.23,8.23,0,0,0-.4-1.51L78.16,24l-.08,12.84-3.83,1.33L66.33,28l3.06,8.94a10.35,10.35,0,0,0,.67,1.64,2.9,2.9,0,0,0,.79.81l-3.49,1.22a2.85,2.85,0,0,0,.12-1.11A10.23,10.23,0,0,0,67,37.81l-3.24-9.29a10.34,10.34,0,0,0-.67-1.62,2.88,2.88,0,0,0-.79-.79l7.61-2.65,5.63,7.26Z"/><path class="cls-2" d="M102,18.25a7.2,7.2,0,0,0-1.17-.2,4.71,4.71,0,0,0-1.28.1L94.2,19.22a2.22,2.22,0,0,0-.87.3c-.12.11-.16.3-.1.58l.17.85c.06.28.16.45.32.5a2.2,2.2,0,0,0,.92-.06l4.07-.81a4.76,4.76,0,0,1,3,.14,2.8,2.8,0,0,1,1.39,2.14l.73,3.67a4.21,4.21,0,0,1-.24,2.95,3.67,3.67,0,0,1-2.62,1.46L90.59,33l-1.08-2.82a7.87,7.87,0,0,0,1.1.1,5.77,5.77,0,0,0,1.25-.13l5.55-1.11a2.11,2.11,0,0,0,.85-.29q.19-.16.1-.58l-.21-1q-.08-.4-.32-.49a2,2,0,0,0-.9,0l-4.68.93a3.51,3.51,0,0,1-2.61-.21A3.68,3.68,0,0,1,88.42,25l-.67-3.37A3.93,3.93,0,0,1,88,18.8a3.06,3.06,0,0,1,2.17-1.39l10.66-2.13Z"/><path class="cls-2" d="M129.73,16.44a6.77,6.77,0,0,0-1.08-.4,4.61,4.61,0,0,0-1.29-.12l-4.2.1Q122,16,122,17l.19,8.3q0,1,1.17,1l3.31-.08A14.6,14.6,0,0,0,129,26a5.12,5.12,0,0,0,1.26-.5l-.43,3.13-9.45.22a3.79,3.79,0,0,1-2.94-1,5,5,0,0,1-1.05-3.44l-.15-6.33a5,5,0,0,1,.89-3.48A3.77,3.77,0,0,1,120,13.55l9.21-.21Z"/><path class="cls-2" d="M143,20.45l.32-3.49a8.31,8.31,0,0,0,0-1.58,4.76,4.76,0,0,0-.27-1.1l6.79.63a4.28,4.28,0,0,0-.46,1,8.14,8.14,0,0,0-.26,1.54l-.93,10a8.31,8.31,0,0,0,0,1.58,4.71,4.71,0,0,0,.27,1.1l-6.79-.63a4.32,4.32,0,0,0,.46-1,8.3,8.3,0,0,0,.26-1.54l.37-4-4.35-.4-.37,4a8.38,8.38,0,0,0,0,1.58,4.65,4.65,0,0,0,.27,1.1l-6.79-.63a4.27,4.27,0,0,0,.46-1,8.12,8.12,0,0,0,.26-1.54l.93-10a8.38,8.38,0,0,0,0-1.58,4.78,4.78,0,0,0-.27-1.1l6.79.63a4.3,4.3,0,0,0-.46,1,8.31,8.31,0,0,0-.26,1.54L138.65,20Z"/><path class="cls-2" d="M155,27.33l-1.48,1.83a2,2,0,0,0-.42.84,2.07,2.07,0,0,0-.07.54,3.36,3.36,0,0,0,.15.61l-4.23-1q.88-.71,1.32-1.15a11.26,11.26,0,0,0,1-1.17l8.07-10.16-.46-1,6.76,1.55L168,32.39a7.19,7.19,0,0,0,.84,2.36L161.36,33a3.74,3.74,0,0,0,.39-.51,1.39,1.39,0,0,0,.16-.39,2.91,2.91,0,0,0,0-1.17l-.38-2.11Zm6.16-1.2-1-5.55-3.45,4.54Z"/><path class="cls-2" d="M173.33,24.92A5,5,0,0,1,175.45,22a3.77,3.77,0,0,1,3.1,0l8.22,3.09a3.8,3.8,0,0,1,2.36,2,5,5,0,0,1-.31,3.59l-2.23,5.93a5,5,0,0,1-2.13,2.89,3.77,3.77,0,0,1-3.1,0l-8.22-3.09a3.79,3.79,0,0,1-2.36-2,5,5,0,0,1,.31-3.59Zm2.91,8.91q-.35.92.73,1.33l2.38.9q1.08.41,1.42-.52l2.92-7.77q.35-.92-.73-1.33l-2.38-.9q-1.08-.41-1.42.52Z"/><path class="cls-2" d="M205.64,37.84a7.22,7.22,0,0,0-.78-.89,4.66,4.66,0,0,0-1.05-.73L199,33.69a2.21,2.21,0,0,0-.86-.32q-.25,0-.45.39l-.4.76c-.13.25-.16.45-.07.59a2.2,2.2,0,0,0,.75.53l3.67,1.93a4.76,4.76,0,0,1,2.22,2,2.79,2.79,0,0,1-.27,2.54l-1.74,3.31a4.21,4.21,0,0,1-2,2.14,3.67,3.67,0,0,1-3-.51l-9.35-4.92.94-2.87a7.7,7.7,0,0,0,.79.77,5.82,5.82,0,0,0,1,.69l5,2.64a2.12,2.12,0,0,0,.84.31q.25,0,.45-.39l.49-.93a.59.59,0,0,0,.06-.58,2,2,0,0,0-.72-.53L192.18,39a3.51,3.51,0,0,1-1.89-1.81,3.68,3.68,0,0,1,.58-2.65l1.6-3a3.93,3.93,0,0,1,2-2,3.05,3.05,0,0,1,2.56.29l9.62,5.06Z"/><path class="cls-2" d="M76.9,58a10.74,10.74,0,0,0-.14-2,6.11,6.11,0,0,0-.48-1.38H91.69q3.13,0,4.42,1.29t1.29,4.36V68.8q0,3.07-1.29,4.36t-4.42,1.29H76.28A5.52,5.52,0,0,0,76.74,73a10.61,10.61,0,0,0,.16-2Zm7.56,13.14H88.4a1.66,1.66,0,0,0,1.18-.28,2.27,2.27,0,0,0,.25-1.33v-10a2.28,2.28,0,0,0-.25-1.32q-.25-.29-1.18-.29H84.46Z"/><path class="cls-2" d="M100.43,58a10.74,10.74,0,0,0-.14-2,6.11,6.11,0,0,0-.48-1.38h15.41q3.13,0,4.42,1.29t1.29,4.36V68.8q0,3.07-1.29,4.36t-4.42,1.29H99.81a5.52,5.52,0,0,0,.46-1.39,10.61,10.61,0,0,0,.16-2ZM108,71.15h3.94a1.66,1.66,0,0,0,1.18-.28,2.27,2.27,0,0,0,.25-1.33v-10a2.28,2.28,0,0,0-.25-1.32q-.25-.29-1.18-.29H108Z"/><path class="cls-2" d="M123.43,64.55h10.91v5.21H123.43Z"/><path class="cls-2" d="M144.11,61.79h8.09a5.28,5.28,0,0,1,3.8,1.1,4.68,4.68,0,0,1,1.1,3.43v3.6a4.68,4.68,0,0,1-1.1,3.43,5.28,5.28,0,0,1-3.8,1.1h-15l-.68-4.28a4.67,4.67,0,0,0,1.36.71,7.72,7.72,0,0,0,2.39.28h7.9a1.76,1.76,0,0,0,1.13-.23,1.62,1.62,0,0,0,.23-1.07V66.38a1.56,1.56,0,0,0-.25-1.05,1.69,1.69,0,0,0-1.12-.25h-8a9.38,9.38,0,0,0-1.94.17,3.46,3.46,0,0,0-1.47.73L137,54.6h19.84l.59,4a6.65,6.65,0,0,0-1.61-.57,13.1,13.1,0,0,0-2.51-.18h-9Z"/><path class="cls-2" d="M162.15,58a8.59,8.59,0,0,0-1.69.11,11.52,11.52,0,0,0-1.53.57l.62-4.06H179l.19,3.35a42.79,42.79,0,0,0-6,8.08,27.16,27.16,0,0,0-3.26,8.42h-8.55a25.08,25.08,0,0,1,2.74-6.29,61.21,61.21,0,0,1,4.19-6.26A50.46,50.46,0,0,1,171.51,58Z"/></svg>