<svg id="Layer_1" data-name="Layer 1" xmlns="http://www.w3.org/2000/svg" viewBox="0 0 250.93 88.19"><defs><style>.cls-1{fill:#ffc51b;}.cls-2{fill:none;stroke:#231f20;}</style></defs><title>HMSValhalla</title><path d="M5.4,55.53a171.41,171.41,0,0,1,121-50.13A167.4,167.4,0,0,1,245.53,54.93L221,82.78H29.31Z"/><path class="cls-1" d="M5.4,55.53a171.41,171.41,0,0,1,121-50.13A167.4,167.4,0,0,1,245.53,54.92L221,82.78H29.31ZM92.56,3.29a177,177,0,0,0-91,48.41,5.4,5.4,0,0,0-.25,7.39L25.25,86.35a5.4,5.4,0,0,0,4.06,1.84H221a5.39,5.39,0,0,0,4.05-1.83l24.52-27.86a5.39,5.39,0,0,0-.24-7.38A172.77,172.77,0,0,0,126.45,0,176.66,176.66,0,0,0,92.56,3.29"/><path class="cls-2" d="M5.4,55.53a171.42,171.42,0,0,1,121-50.13A167.4,167.4,0,0,1,245.53,54.93"/><path class="cls-1" d="M38.57,46.44l-2-2.87a8.38,8.38,0,0,0-1-1.23,4.72,4.72,0,0,0-.92-.66l5.59-3.9a4.3,4.3,0,0,0,.32,1.09,8.22,8.22,0,0,0,.79,1.35l5.77,8.27a8.41,8.41,0,0,0,1,1.23,4.72,4.72,0,0,0,.92.66l-5.59,3.9a4.31,4.31,0,0,0-.32-1.09,8.19,8.19,0,0,0-.79-1.35L40,48.52,36.44,51l2.31,3.31a8.38,8.38,0,0,0,1,1.23,4.72,4.72,0,0,0,.92.66l-5.59,3.9A4.27,4.27,0,0,0,34.74,59a8.18,8.18,0,0,0-.79-1.35l-5.77-8.27a8.39,8.39,0,0,0-1-1.23,4.72,4.72,0,0,0-.92-.66l5.59-3.9a4.28,4.28,0,0,0,.32,1.09A8.19,8.19,0,0,0,33,46.06l2,2.87Z"/><path class="cls-1" d="M55,29.85l7-3.58a4.67,4.67,0,0,0,.15,1.11,7.4,7.4,0,0,0,.6,1.47l4.6,9a8.28,8.28,0,0,0,.82,1.36,4.22,4.22,0,0,0,.83.76l-6.09,3.12a4.3,4.3,0,0,0-.17-1.12,8.21,8.21,0,0,0-.6-1.44l-4.31-8.42,1.7,12.72-3.61,1.85-9.26-9,4.27,8.43a10.45,10.45,0,0,0,.89,1.53,2.89,2.89,0,0,0,.89.69L49.36,50a2.87,2.87,0,0,0,0-1.12,10.33,10.33,0,0,0-.71-1.6L44.13,38.5A10.27,10.27,0,0,0,43.24,37a2.86,2.86,0,0,0-.89-.68l7.17-3.68L56.11,39Z"/><path class="cls-1" d="M79.36,23.42a7.19,7.19,0,0,0-1.18,0,4.69,4.69,0,0,0-1.25.29l-5.13,1.83a2.22,2.22,0,0,0-.82.42q-.16.19,0,.59l.29.81q.15.41.39.45a2.2,2.2,0,0,0,.9-.19l3.91-1.4a4.77,4.77,0,0,1,3-.29,2.79,2.79,0,0,1,1.69,1.92l1.26,3.53a4.2,4.2,0,0,1,.19,3,3.67,3.67,0,0,1-2.38,1.83l-9.94,3.55L68.75,37a7.84,7.84,0,0,0,1.1-.06,5.86,5.86,0,0,0,1.21-.31l5.33-1.91a2.13,2.13,0,0,0,.8-.41q.16-.19,0-.59l-.36-1c-.09-.26-.22-.4-.38-.44a2,2,0,0,0-.88.17l-4.5,1.61a3.51,3.51,0,0,1-2.62.17,3.68,3.68,0,0,1-1.56-2.22l-1.16-3.23A3.93,3.93,0,0,1,65.65,26a3.06,3.06,0,0,1,1.95-1.69l10.24-3.66Z"/><path class="cls-1" d="M97.41,31.6,90,18.73a3.41,3.41,0,0,0-.52-.7,3.56,3.56,0,0,0-.64-.53L96,16.25a4,4,0,0,0,0,.64l0,.21a4,4,0,0,0,.2.72A8,8,0,0,0,96.89,19l4.9,8.54,2-9.74a11,11,0,0,0,.17-1.12,3.53,3.53,0,0,0,0-.92,2.26,2.26,0,0,0-.13-.45l-.13-.35,3.9-.68a5.69,5.69,0,0,0-.55,1.17,13.09,13.09,0,0,0-.48,1.84l-2.62,13.22Z"/><path class="cls-1" d="M113.35,25.15l-.92,2.16a2,2,0,0,0-.17.92,2.11,2.11,0,0,0,.08.54,3.39,3.39,0,0,0,.32.55l-4.34.23q.65-.92,1-1.47a11.41,11.41,0,0,0,.65-1.4l5-12-.72-.83,6.93-.37,6.16,12.94a7.21,7.21,0,0,0,1.45,2l-7.69.41a3.7,3.7,0,0,0,.23-.6,1.39,1.39,0,0,0,0-.42,2.92,2.92,0,0,0-.28-1.14l-.94-1.92Zm5.59-2.84-2.46-5.07-2.07,5.31Z"/><path class="cls-1" d="M139.67,26.76a7.4,7.4,0,0,0,1.54,0,3.12,3.12,0,0,0,1-.32l-.67,3-13.23-.73a4.32,4.32,0,0,0,.42-1.06,8.23,8.23,0,0,0,.21-1.55L129.5,16a8.35,8.35,0,0,0,0-1.58,4.72,4.72,0,0,0-.31-1.09l6.81.38a4.29,4.29,0,0,0-.42,1.06,8.25,8.25,0,0,0-.21,1.55l-.56,10.16Z"/><path class="cls-1" d="M153.76,22l.57-3.46a8.33,8.33,0,0,0,.15-1.57,4.78,4.78,0,0,0-.19-1.11L161,17a4.29,4.29,0,0,0-.53,1,8.22,8.22,0,0,0-.37,1.52l-1.64,9.95a8.42,8.42,0,0,0-.15,1.57,4.8,4.8,0,0,0,.19,1.11L151.79,31a4.32,4.32,0,0,0,.53-1,8.31,8.31,0,0,0,.37-1.52l.66-4L149,23.79l-.66,4a8.33,8.33,0,0,0-.15,1.57,4.73,4.73,0,0,0,.19,1.11l-6.73-1.11a4.31,4.31,0,0,0,.53-1,8.27,8.27,0,0,0,.37-1.52l1.64-9.95a8.42,8.42,0,0,0,.15-1.57,4.8,4.8,0,0,0-.19-1.11l6.72,1.11a4.25,4.25,0,0,0-.53,1,8.23,8.23,0,0,0-.37,1.52l-.57,3.46Z"/><path class="cls-1" d="M164.07,29.39l-1.59,1.73a2.31,2.31,0,0,0-.57,1.34,3.31,3.31,0,0,0,.12.62l-4.16-1.24q.92-.65,1.39-1.06a11.39,11.39,0,0,0,1.08-1.11L169,20l-.4-1,6.65,2,1.47,14.26a7.18,7.18,0,0,0,.69,2.41l-7.38-2.19a3.63,3.63,0,0,0,.42-.49,1.4,1.4,0,0,0,.19-.38,2.91,2.91,0,0,0,.12-1.17l-.25-2.13Zm6.22-.81L169.68,23l-3.73,4.31Z"/><path class="cls-1" d="M188.32,39.78a7.35,7.35,0,0,0,1.47.48,3.14,3.14,0,0,0,1.05,0l-1.65,2.61L177,37.74a4.34,4.34,0,0,0,.75-.85,8.17,8.17,0,0,0,.72-1.39l3.94-9.28a8.3,8.3,0,0,0,.51-1.49A4.7,4.7,0,0,0,183,23.6l6.28,2.66a4.27,4.27,0,0,0-.75.85,8.2,8.2,0,0,0-.72,1.39l-4,9.37Z"/><path class="cls-1" d="M200.66,46.25a7.32,7.32,0,0,0,1.41.62,3.1,3.1,0,0,0,1,.14l-1.9,2.44-11.65-6.31a4.31,4.31,0,0,0,.83-.78,8.3,8.3,0,0,0,.85-1.31l4.8-8.86a8.32,8.32,0,0,0,.65-1.43,4.73,4.73,0,0,0,.18-1.12l6,3.25a4.29,4.29,0,0,0-.83.78A8.23,8.23,0,0,0,201.2,35l-4.85,8.95Z"/><path class="cls-1" d="M207,48.33,205,49.47a2,2,0,0,0-.7.63,2.1,2.1,0,0,0-.27.47,3.33,3.33,0,0,0-.08.63l-3.57-2.48q1.08-.33,1.66-.57a11.46,11.46,0,0,0,1.37-.71L214.67,41l-.06-1.09,5.7,4-3.07,14a7.2,7.2,0,0,0-.1,2.5L210.82,56a3.66,3.66,0,0,0,.55-.33,1.41,1.41,0,0,0,.3-.3,2.91,2.91,0,0,0,.48-1.07l.43-2.1Zm6.16,1.18L214.37,44l-4.89,2.93Z"/></svg>