<svg id="Layer_1" data-name="Layer 1" xmlns="http://www.w3.org/2000/svg" viewBox="0 0 250.93 88.19"><defs><style>.cls-1{fill:#231f20;}.cls-2{fill:#ffc418;}.cls-3{fill:none;stroke:#231f20;}</style></defs><title>SD-163</title><path class="cls-1" d="M5.4,55.53a171.41,171.41,0,0,1,121-50.13A167.4,167.4,0,0,1,245.53,54.93L221,82.78H29.31Z"/><path class="cls-2" d="M5.4,55.53a171.41,171.41,0,0,1,121-50.13A167.4,167.4,0,0,1,245.53,54.92L221,82.78H29.31ZM92.56,3.29a177,177,0,0,0-91,48.41,5.4,5.4,0,0,0-.25,7.39L25.25,86.35a5.4,5.4,0,0,0,4.06,1.84H221a5.39,5.39,0,0,0,4.05-1.83l24.52-27.86a5.39,5.39,0,0,0-.24-7.38A172.77,172.77,0,0,0,126.45,0,176.66,176.66,0,0,0,92.56,3.29"/><path class="cls-3" d="M5.4,55.53a171.42,171.42,0,0,1,121-50.13A167.4,167.4,0,0,1,245.53,54.93"/><path class="cls-2" d="M51.17,38.74l-1.73-3a8.34,8.34,0,0,0-.87-1.32,4.77,4.77,0,0,0-.85-.75l5.93-3.36a4.29,4.29,0,0,0,.22,1.12,8.27,8.27,0,0,0,.66,1.42l5,8.77a8.31,8.31,0,0,0,.87,1.31,4.72,4.72,0,0,0,.85.75L55.29,47a4.29,4.29,0,0,0-.22-1.12,8.23,8.23,0,0,0-.66-1.42l-2-3.51-3.8,2.15,2,3.51a8.35,8.35,0,0,0,.87,1.31,4.72,4.72,0,0,0,.85.75L46.39,52a4.3,4.3,0,0,0-.22-1.12,8.23,8.23,0,0,0-.66-1.42l-5-8.77a8.35,8.35,0,0,0-.87-1.31,4.72,4.72,0,0,0-.85-.75l5.93-3.36A4.3,4.3,0,0,0,45,36.43a8.24,8.24,0,0,0,.66,1.42l1.73,3Z"/><path class="cls-2" d="M69.07,23.77l7.29-2.9a4.68,4.68,0,0,0,0,1.12,7.35,7.35,0,0,0,.46,1.52l3.73,9.37a8.25,8.25,0,0,0,.69,1.43,4.21,4.21,0,0,0,.76.83l-6.36,2.53a4.3,4.3,0,0,0-.06-1.14A8.22,8.22,0,0,0,75.15,35l-3.5-8.79.48,12.83-3.77,1.5L60,30.73l3.45,8.8a10.51,10.51,0,0,0,.74,1.61,2.91,2.91,0,0,0,.82.77l-3.43,1.37a2.86,2.86,0,0,0,.07-1.11,10.27,10.27,0,0,0-.56-1.66l-3.64-9.14a10.27,10.27,0,0,0-.74-1.59,2.85,2.85,0,0,0-.82-.76l7.49-3,5.94,7Z"/><path class="cls-2" d="M93.95,19.69a7.21,7.21,0,0,0-1.17-.14,4.64,4.64,0,0,0-1.27.17l-5.28,1.34a2.2,2.2,0,0,0-.85.34c-.12.11-.14.31-.07.59l.21.84q.11.42.35.48a2.19,2.19,0,0,0,.91-.11l4-1a4.77,4.77,0,0,1,3,0,2.8,2.8,0,0,1,1.5,2.07l.92,3.63a4.21,4.21,0,0,1-.09,3,3.68,3.68,0,0,1-2.54,1.6L83.32,35,82.1,32.25a7.77,7.77,0,0,0,1.1,0,5.82,5.82,0,0,0,1.24-.19l5.49-1.39a2.11,2.11,0,0,0,.83-.33q.18-.17.07-.59l-.26-1q-.1-.4-.34-.47a2,2,0,0,0-.89.09l-4.63,1.17a3.51,3.51,0,0,1-2.62-.08,3.68,3.68,0,0,1-1.34-2.36l-.84-3.33A3.93,3.93,0,0,1,80.06,21a3.05,3.05,0,0,1,2.1-1.5l10.54-2.67Z"/><path class="cls-2" d="M122.18,25.53q.62.89,1.23,1.64a13.28,13.28,0,0,0,1.23,1.32l-7.18.56-3.92-6.22-1.27,1.66.18,2.3a8.33,8.33,0,0,0,.23,1.56,4.66,4.66,0,0,0,.45,1l-6.8.53a4.28,4.28,0,0,0,.28-1.1,8.2,8.2,0,0,0,0-1.56l-.78-10a8.36,8.36,0,0,0-.23-1.56,4.73,4.73,0,0,0-.45-1l6.8-.53a4.24,4.24,0,0,0-.28,1.1,8.19,8.19,0,0,0,0,1.56L112,21l3.64-5a4.3,4.3,0,0,0,.58-1,1.75,1.75,0,0,0,.11-.75l0-.57,5.29-.41a12.3,12.3,0,0,0-1,.73,7.05,7.05,0,0,0-.89.94l-2.59,3.24Z"/><path class="cls-2" d="M130.51,22.17l-.16,4a8.29,8.29,0,0,0,0,1.57,4.69,4.69,0,0,0,.33,1.08l-6.81-.28a4.31,4.31,0,0,0,.4-1.06A8.21,8.21,0,0,0,124.5,26l.41-10.07a7.32,7.32,0,0,0-.07-1.61,2.79,2.79,0,0,0-.45-1.05l12.61.51a4.88,4.88,0,0,1,3,.88,3.18,3.18,0,0,1,.84,2.66l-.12,2.83a2.5,2.5,0,0,1-.68,2,2.8,2.8,0,0,1-1.77.4l1.91,4.4q.28.68.58,1.36a4.81,4.81,0,0,0,.59,1L134.82,29l-2.51-6.78Zm.1-2.54,3.31.13a1.31,1.31,0,0,0,.77-.12c.13-.1.21-.33.22-.7l.08-1.87a.93.93,0,0,0-.16-.7,1.23,1.23,0,0,0-.76-.2L130.76,16Z"/><path class="cls-2" d="M146.12,25.88l-1.36,1.91a2,2,0,0,0-.36.86,2.08,2.08,0,0,0,0,.54,3.35,3.35,0,0,0,.19.6l-4.29-.71q.83-.76,1.25-1.23a11.22,11.22,0,0,0,.93-1.23L149.88,16l-.52-1,6.84,1.14,3.22,14a7.21,7.21,0,0,0,1,2.3l-7.6-1.26a3.65,3.65,0,0,0,.36-.54,1.39,1.39,0,0,0,.14-.4,2.89,2.89,0,0,0,0-1.17L152.77,27Zm6.08-1.57-1.31-5.49-3.17,4.74Z"/><path class="cls-2" d="M176,34q.26,1.05.56,2a13.15,13.15,0,0,0,.67,1.68l-6.9-2.06L169,28.36l-1.78,1.1-.66,2.21a8.38,8.38,0,0,0-.35,1.54,4.73,4.73,0,0,0,.05,1.13l-6.53-2a4.31,4.31,0,0,0,.65-.93,8.15,8.15,0,0,0,.56-1.46l2.89-9.66a8.28,8.28,0,0,0,.35-1.54,4.73,4.73,0,0,0-.05-1.13l6.53,2a4.25,4.25,0,0,0-.65.93,8.18,8.18,0,0,0-.56,1.46l-1.22,4.07,5.17-3.31a4.26,4.26,0,0,0,.88-.69,1.74,1.74,0,0,0,.37-.67l.17-.55,5.08,1.52a12.18,12.18,0,0,0-1.2.32,7,7,0,0,0-1.17.55l-3.58,2.09Z"/><path class="cls-2" d="M188.09,39.69a9.08,9.08,0,0,0,1.36.48,8.53,8.53,0,0,0,1.23.17L189,42.85l-12.46-5.29a4.28,4.28,0,0,0,.75-.85,8.26,8.26,0,0,0,.72-1.39L182,26a8.35,8.35,0,0,0,.51-1.49,4.75,4.75,0,0,0,.08-1.13l12.24,5.19L194,31.68a11,11,0,0,0-.92-.83,5.52,5.52,0,0,0-1.3-.74l-4.4-1.87L186,31.56l3.84,1.63a8.57,8.57,0,0,0,1.33.47,10.7,10.7,0,0,0,1.26.18l-1.31,3.09a11.74,11.74,0,0,0-1-.72,7.78,7.78,0,0,0-1.31-.69L185,33.9l-1.61,3.8Z"/><path class="cls-2" d="M198.5,33.43l-4.93,8.65a10.35,10.35,0,0,0-.78,1.57,2.84,2.84,0,0,0-.08,1.11L189.5,43a2.86,2.86,0,0,0,.91-.64,10.29,10.29,0,0,0,.94-1.48l4.83-8.57a10.3,10.3,0,0,0,.78-1.57,2.87,2.87,0,0,0,.08-1.11l7.17,4-.71,14,4.86-8.47a10.3,10.3,0,0,0,.78-1.57,2.85,2.85,0,0,0,.08-1.11l3.22,1.81a2.85,2.85,0,0,0-.91.64,10.23,10.23,0,0,0-.94,1.48l-6.19,11-6.61-3.72Z"/><path class="cls-2" d="M88.59,58.63a9.24,9.24,0,0,0-1.43-.55,6,6,0,0,0-1.64-.2h-7A2.87,2.87,0,0,0,77.3,58c-.19.1-.28.34-.28.71v1.12c0,.37.09.61.28.71a2.83,2.83,0,0,0,1.18.16h5.36a6.16,6.16,0,0,1,3.74.93,3.61,3.61,0,0,1,1.22,3.07v4.84a5.44,5.44,0,0,1-1.05,3.67q-1.05,1.19-3.69,1.19H70.42l-.65-3.84a10.13,10.13,0,0,0,1.36.41,7.48,7.48,0,0,0,1.61.15h7.32A2.73,2.73,0,0,0,81.21,71c.19-.1.28-.34.28-.71V68.92a.76.76,0,0,0-.28-.7,2.53,2.53,0,0,0-1.15-.17H73.89a4.54,4.54,0,0,1-3.25-.93,4.75,4.75,0,0,1-.93-3.38V59.31a5.08,5.08,0,0,1,1.08-3.5,4,4,0,0,1,3.1-1.21h14Z"/><path class="cls-2" d="M91.84,58a10.74,10.74,0,0,0-.14-2,6.11,6.11,0,0,0-.48-1.38h15.41q3.13,0,4.42,1.29t1.29,4.36V68.8q0,3.07-1.29,4.36t-4.42,1.29H91.22A5.52,5.52,0,0,0,91.69,73a10.61,10.61,0,0,0,.16-2Zm7.56,13.14h3.94a1.66,1.66,0,0,0,1.18-.28,2.27,2.27,0,0,0,.25-1.33v-10a2.28,2.28,0,0,0-.25-1.32q-.25-.29-1.18-.29H99.41Z"/><path class="cls-2" d="M114.84,64.55h10.91v5.21H114.84Z"/><path class="cls-2" d="M138.31,71.71a6,6,0,0,0,.17,1.63,3.75,3.75,0,0,0,.54,1.1h-9a3.28,3.28,0,0,0,.51-1.07,6.41,6.41,0,0,0,.17-1.66V60.61h-2.82v-3.5l8.37-2.51h2Z"/><path class="cls-2" d="M152.54,57.89a2.42,2.42,0,0,0-1.44.29,1.38,1.38,0,0,0-.36,1.1v3.78a3.81,3.81,0,0,1,.93-1.18,2,2,0,0,1,1.15-.28h6.29a5.33,5.33,0,0,1,3.5,1.15,3.77,3.77,0,0,1,1.4,3.07v4.4a3.76,3.76,0,0,1-1.41,3.05,5.3,5.3,0,0,1-3.49,1.16h-11a5.33,5.33,0,0,1-3.5-1.15,3.77,3.77,0,0,1-1.39-3.07V58.82a3.76,3.76,0,0,1,1.41-3.05,5.3,5.3,0,0,1,3.49-1.16H163l.68,4a5.79,5.79,0,0,0-1.5-.55,12.61,12.61,0,0,0-2.59-.19Zm-.56,7a1.51,1.51,0,0,0-1,.23,1.16,1.16,0,0,0-.26.88v4a1.21,1.21,0,0,0,.25.87,1.43,1.43,0,0,0,1,.25h3.22a1.51,1.51,0,0,0,1-.23,1.16,1.16,0,0,0,.26-.88V66a1.22,1.22,0,0,0-.25-.87,1.44,1.44,0,0,0-1-.25Z"/><path class="cls-2" d="M179.91,54.6a7.21,7.21,0,0,1,4.15.91,3.6,3.6,0,0,1,1.24,3.11v3.32a2.14,2.14,0,0,1-1.07,2,7.29,7.29,0,0,1-3.55.64q2.88,0,3.75.74a3.15,3.15,0,0,1,.87,2.55V71a3.31,3.31,0,0,1-.93,2.52,4.35,4.35,0,0,1-3.07.89H166.24l-.71-4.25a10.49,10.49,0,0,0,1.64.73,5.88,5.88,0,0,0,1.8.23h7.41a1.78,1.78,0,0,0,1.1-.23,1.32,1.32,0,0,0,.26-1V67.22a1.37,1.37,0,0,0-.25-1,1.88,1.88,0,0,0-1.12-.22h-3.6a11.12,11.12,0,0,0-1.81.11,13.94,13.94,0,0,0-1.6.42V62.2a15.25,15.25,0,0,0,1.5.37,10.05,10.05,0,0,0,1.91.16h3.6a1.79,1.79,0,0,0,1.1-.23,1.32,1.32,0,0,0,.26-1V59.1a1.37,1.37,0,0,0-.25-1,1.88,1.88,0,0,0-1.12-.22h-8.06a5.25,5.25,0,0,0-1.44.15,8.61,8.61,0,0,0-1.35.59l.68-4Z"/></svg>