<svg id="Layer_1" data-name="Layer 1" xmlns="http://www.w3.org/2000/svg" viewBox="0 0 250.93 88.19"><defs><style>.cls-1{fill:#ffc418;}</style></defs><title>SD-153</title><path d="M5.4,55.53a171.41,171.41,0,0,1,121-50.13A167.4,167.4,0,0,1,245.53,54.93L221,82.78H29.31Z"/><path class="cls-1" d="M5.4,55.53a171.41,171.41,0,0,1,121-50.13A167.4,167.4,0,0,1,245.53,54.92L221,82.78H29.31ZM92.56,3.29a177,177,0,0,0-91,48.41,5.4,5.4,0,0,0-.25,7.39L25.25,86.35a5.4,5.4,0,0,0,4.06,1.84H221a5.39,5.39,0,0,0,4.05-1.83l24.52-27.86a5.39,5.39,0,0,0-.24-7.38A172.77,172.77,0,0,0,126.45,0,176.66,176.66,0,0,0,92.56,3.29"/><path class="cls-1" d="M37.74,47l-2-2.86a8.36,8.36,0,0,0-1-1.22,4.75,4.75,0,0,0-.92-.66l5.56-3.94a4.28,4.28,0,0,0,.33,1.09,8.23,8.23,0,0,0,.8,1.34L46.32,49a8.34,8.34,0,0,0,1,1.22,4.7,4.7,0,0,0,.92.66L42.67,54.8a4.29,4.29,0,0,0-.33-1.09,8.28,8.28,0,0,0-.8-1.34l-2.33-3.29L35.65,51.6,38,54.89a8.29,8.29,0,0,0,1,1.22,4.69,4.69,0,0,0,.92.66L34.33,60.7A4.3,4.3,0,0,0,34,59.61a8.2,8.2,0,0,0-.8-1.34L27.37,50a8.33,8.33,0,0,0-1-1.22,4.74,4.74,0,0,0-.92-.66L31,44.23a4.28,4.28,0,0,0,.33,1.09,8.2,8.2,0,0,0,.8,1.34l2,2.86Z"/><path class="cls-1" d="M55.18,29.74l7-3.57a4.66,4.66,0,0,0,.15,1.11,7.36,7.36,0,0,0,.6,1.47l4.58,9a8.41,8.41,0,0,0,.82,1.36,4.16,4.16,0,0,0,.83.76L63.07,43a4.29,4.29,0,0,0-.17-1.12,8.13,8.13,0,0,0-.6-1.44L58,32l1.68,12.73-3.61,1.84-9.24-9,4.25,8.44A10.43,10.43,0,0,0,52,47.48a2.89,2.89,0,0,0,.89.69l-3.29,1.68a2.84,2.84,0,0,0,0-1.12,10.27,10.27,0,0,0-.71-1.6l-4.48-8.76a10.29,10.29,0,0,0-.88-1.52,2.86,2.86,0,0,0-.89-.68l7.18-3.67,6.57,6.42Z"/><path class="cls-1" d="M80.78,23a7.14,7.14,0,0,0-1.18,0,4.69,4.69,0,0,0-1.25.27L73.2,25a2.21,2.21,0,0,0-.82.41q-.17.18,0,.59l.28.82c.09.27.22.42.38.45a2.2,2.2,0,0,0,.9-.19l3.92-1.36a4.77,4.77,0,0,1,3-.27,2.79,2.79,0,0,1,1.67,1.93l1.23,3.54a4.21,4.21,0,0,1,.16,3,3.67,3.67,0,0,1-2.4,1.81l-10,3.46-1.45-2.65a7.72,7.72,0,0,0,1.1,0,5.87,5.87,0,0,0,1.22-.3l5.35-1.86a2.12,2.12,0,0,0,.8-.4q.16-.18,0-.59l-.35-1q-.13-.39-.38-.44a2,2,0,0,0-.88.17l-4.51,1.57a3.51,3.51,0,0,1-2.62.14,3.68,3.68,0,0,1-1.54-2.24l-1.12-3.24a3.93,3.93,0,0,1-.09-2.84,3.05,3.05,0,0,1,2-1.67L79.28,20.2Z"/><path class="cls-1" d="M111.69,20a5.37,5.37,0,0,0-.42,1.25,4.59,4.59,0,0,0,.06,1.23l.56,3.75a11.38,11.38,0,0,0,.38,1.87,3.63,3.63,0,0,0,.69,1l-5.1.76-.4-1.37a2.51,2.51,0,0,1-.5,1.19,2.56,2.56,0,0,1-1.45.53l-5.13.76a3.79,3.79,0,0,1-3-.6,5,5,0,0,1-1.47-3.29l-.93-6.27a5,5,0,0,1,.45-3.56,3.77,3.77,0,0,1,2.73-1.47l11.11-1.65.91,3a6.76,6.76,0,0,0-1.12-.26,4.6,4.6,0,0,0-1.29,0l-6.15.91q-1.14.17-1,1.14l1.22,8.21q.15,1,1.28.8l1.95-.29q1.14-.17,1-1.14l-.46-3.11-2.16.32a1.49,1.49,0,0,0-.57.19l-.37.24-.42-2.8Z"/><path class="cls-1" d="M120.62,22.22l.09,4a8.36,8.36,0,0,0,.14,1.57,4.73,4.73,0,0,0,.4,1.06l-6.81.16a4.29,4.29,0,0,0,.33-1.09,8.12,8.12,0,0,0,.08-1.56l-.23-10.08a7.32,7.32,0,0,0-.17-1.6,2.78,2.78,0,0,0-.52-1l12.62-.29a4.88,4.88,0,0,1,3.05.69,3.18,3.18,0,0,1,1,2.61l.07,2.83a2.5,2.5,0,0,1-.55,2,2.8,2.8,0,0,1-1.74.51l2.19,4.27q.33.67.67,1.32a4.78,4.78,0,0,0,.66,1l-6.55.15-2.94-6.61Zm-.06-2.54,3.31-.08a1.3,1.3,0,0,0,.76-.17q.19-.16.18-.71l0-1.87a.93.93,0,0,0-.21-.69,1.23,1.23,0,0,0-.77-.15l-3.31.08Z"/><path class="cls-1" d="M138.8,23.27l-4.06-7.94q-.45-.84-.63-1.16a6.14,6.14,0,0,0-.64-.85l7.85.8a2.05,2.05,0,0,0-.14.47,1.38,1.38,0,0,0,.09.68q.12.3.52,1.14l2.23,4.4,3-4a3.62,3.62,0,0,0,.57-1,4.61,4.61,0,0,0,.23-1l4.34.44a9.06,9.06,0,0,0-1.27.91,11.32,11.32,0,0,0-1,1.13l-5.36,6.91-.31,3a8.32,8.32,0,0,0-.05,1.57,4.69,4.69,0,0,0,.26,1.1l-6.78-.69a4.29,4.29,0,0,0,.47-1,8.18,8.18,0,0,0,.28-1.54Z"/><path class="cls-1" d="M157.81,29.5a8.4,8.4,0,0,0-.25,1.56,4.69,4.69,0,0,0,.12,1.12L151,30.66a4.3,4.3,0,0,0,.59-1,8.14,8.14,0,0,0,.47-1.49l2.26-9.82a7.35,7.35,0,0,0,.23-1.6,2.79,2.79,0,0,0-.25-1.12l12.26,2.81a4.61,4.61,0,0,1,2.66,1.41,3.63,3.63,0,0,1,.29,3.11L169,25.33A3.65,3.65,0,0,1,167.4,28a4.6,4.6,0,0,1-3,.11l-5.94-1.36Zm1.2-5.24,3,.69a1.08,1.08,0,0,0,.89-.05,1.86,1.86,0,0,0,.44-1l.48-2.11a1.88,1.88,0,0,0,0-1.09q-.14-.29-.77-.44l-3-.69Z"/><path class="cls-1" d="M181.67,29.79l1.21-3.29a8.33,8.33,0,0,0,.44-1.51,4.7,4.7,0,0,0,0-1.13l6.39,2.36a4.31,4.31,0,0,0-.71.89,8.24,8.24,0,0,0-.65,1.42L184.89,38a8.33,8.33,0,0,0-.44,1.51,4.7,4.7,0,0,0,0,1.13L178,38.27a4.31,4.31,0,0,0,.71-.89A8.28,8.28,0,0,0,179.4,36l1.4-3.78-4.1-1.51-1.4,3.78a8.36,8.36,0,0,0-.44,1.51,4.7,4.7,0,0,0,0,1.13l-6.39-2.36a4.28,4.28,0,0,0,.71-.89,8.25,8.25,0,0,0,.65-1.42L173.29,23a8.36,8.36,0,0,0,.44-1.51,4.7,4.7,0,0,0,0-1.13l6.39,2.36a4.31,4.31,0,0,0-.71.89,8.17,8.17,0,0,0-.65,1.42l-1.21,3.29Z"/><path class="cls-1" d="M191.27,31.85a5,5,0,0,1,2.47-2.61,3.78,3.78,0,0,1,3.07.42l7.77,4.09A3.79,3.79,0,0,1,206.68,36a5,5,0,0,1-.75,3.52l-3,5.61a5,5,0,0,1-2.47,2.61,3.77,3.77,0,0,1-3.07-.42l-7.77-4.09A3.79,3.79,0,0,1,187.57,41a5,5,0,0,1,.75-3.52ZM193,41.06q-.46.87.56,1.41l2.25,1.18q1,.54,1.48-.33L201.21,36q.46-.87-.56-1.41l-2.25-1.18q-1-.54-1.48.33Z"/><path class="cls-1" d="M212.43,41.56l-5.79,8.11a10.28,10.28,0,0,0-.93,1.49,2.85,2.85,0,0,0-.19,1.1l-3-2.13a2.85,2.85,0,0,0,1-.55,10.3,10.3,0,0,0,1.09-1.37l5.68-8a10.42,10.42,0,0,0,.93-1.49,2.87,2.87,0,0,0,.19-1.1l6.72,4.75L216,56.16l5.7-7.94a10.24,10.24,0,0,0,.93-1.49,2.86,2.86,0,0,0,.19-1.1l3,2.13a2.86,2.86,0,0,0-1,.55,10.33,10.33,0,0,0-1.09,1.38L216.46,60l-6.19-4.38Z"/><path class="cls-1" d="M88.87,58.63a9.24,9.24,0,0,0-1.43-.55,6,6,0,0,0-1.64-.2h-7a2.87,2.87,0,0,0-1.18.15c-.19.1-.28.34-.28.71v1.12c0,.37.09.61.28.71a2.83,2.83,0,0,0,1.18.16h5.36a6.16,6.16,0,0,1,3.74.93,3.61,3.61,0,0,1,1.22,3.07v4.84A5.44,5.44,0,0,1,88,73.25Q87,74.44,84.34,74.44H70.7L70,70.6a10.13,10.13,0,0,0,1.36.41,7.48,7.48,0,0,0,1.61.15h7.32A2.73,2.73,0,0,0,81.49,71c.19-.1.28-.34.28-.71V68.92a.76.76,0,0,0-.28-.7,2.53,2.53,0,0,0-1.15-.17H74.17a4.54,4.54,0,0,1-3.25-.93A4.75,4.75,0,0,1,70,63.75V59.31a5.08,5.08,0,0,1,1.08-3.5,4,4,0,0,1,3.1-1.21h14Z"/><path class="cls-1" d="M92.12,58A10.74,10.74,0,0,0,92,56a6.11,6.11,0,0,0-.48-1.38h15.41q3.13,0,4.42,1.29t1.29,4.36V68.8q0,3.07-1.29,4.36t-4.42,1.29H91.5A5.52,5.52,0,0,0,92,73a10.61,10.61,0,0,0,.16-2Zm7.56,13.14h3.94a1.66,1.66,0,0,0,1.18-.28,2.27,2.27,0,0,0,.25-1.33v-10a2.28,2.28,0,0,0-.25-1.32q-.25-.29-1.18-.29H99.69Z"/><path class="cls-1" d="M115.12,64.55H126v5.21H115.12Z"/><path class="cls-1" d="M138.59,71.71a6,6,0,0,0,.17,1.63,3.75,3.75,0,0,0,.54,1.1h-9a3.28,3.28,0,0,0,.51-1.07,6.41,6.41,0,0,0,.17-1.66V60.61h-2.82v-3.5l8.37-2.51h2Z"/><path class="cls-1" d="M150.71,61.79h8.09a5.28,5.28,0,0,1,3.8,1.1,4.68,4.68,0,0,1,1.1,3.43v3.6a4.68,4.68,0,0,1-1.1,3.43,5.28,5.28,0,0,1-3.8,1.1h-15l-.68-4.28a4.67,4.67,0,0,0,1.36.71,7.72,7.72,0,0,0,2.39.28h7.9a1.76,1.76,0,0,0,1.13-.23,1.62,1.62,0,0,0,.23-1.07V66.38a1.56,1.56,0,0,0-.25-1.05,1.69,1.69,0,0,0-1.12-.25h-8a9.38,9.38,0,0,0-1.94.17,3.46,3.46,0,0,0-1.47.73l.25-11.38h19.84l.59,4a6.65,6.65,0,0,0-1.61-.57,13.1,13.1,0,0,0-2.51-.18h-9Z"/><path class="cls-1" d="M179.63,54.6a7.21,7.21,0,0,1,4.15.91A3.6,3.6,0,0,1,185,58.62v3.32a2.14,2.14,0,0,1-1.07,2,7.29,7.29,0,0,1-3.55.64q2.88,0,3.75.74a3.14,3.14,0,0,1,.87,2.55V71a3.32,3.32,0,0,1-.93,2.52,4.36,4.36,0,0,1-3.07.89H166l-.71-4.25a10.5,10.5,0,0,0,1.64.73,5.87,5.87,0,0,0,1.8.23h7.41a1.78,1.78,0,0,0,1.1-.23,1.31,1.31,0,0,0,.26-1V67.22a1.36,1.36,0,0,0-.25-1A1.88,1.88,0,0,0,176.1,66h-3.6a11.15,11.15,0,0,0-1.81.11,13.93,13.93,0,0,0-1.6.42V62.2a15.35,15.35,0,0,0,1.5.37,10.07,10.07,0,0,0,1.91.16h3.6a1.79,1.79,0,0,0,1.1-.23,1.31,1.31,0,0,0,.26-1V59.1a1.36,1.36,0,0,0-.25-1,1.88,1.88,0,0,0-1.12-.22H168a5.25,5.25,0,0,0-1.44.15,8.54,8.54,0,0,0-1.35.59l.68-4Z"/></svg>