<svg id="Layer_1" data-name="Layer 1" xmlns="http://www.w3.org/2000/svg" viewBox="0 0 250.93 88.19"><defs><style>.cls-1{fill:#ffc418;}.cls-2{fill:none;stroke:#231f20;}</style></defs><title>SD-355</title><path d="M5.4,55.53a171.41,171.41,0,0,1,121-50.13A167.4,167.4,0,0,1,245.53,54.93L221,82.78H29.31Z"/><path class="cls-1" d="M5.4,55.53a171.41,171.41,0,0,1,121-50.13A167.4,167.4,0,0,1,245.53,54.92L221,82.78H29.31ZM92.56,3.29a177,177,0,0,0-91,48.41,5.4,5.4,0,0,0-.25,7.39L25.25,86.35a5.4,5.4,0,0,0,4.06,1.84H221a5.39,5.39,0,0,0,4.05-1.83l24.52-27.86a5.39,5.39,0,0,0-.24-7.38A172.77,172.77,0,0,0,126.45,0,176.66,176.66,0,0,0,92.56,3.29"/><path class="cls-2" d="M5.4,55.53a171.42,171.42,0,0,1,121-50.13A167.4,167.4,0,0,1,245.53,54.93"/><path class="cls-1" d="M41.83,44.28,39.9,41.36a8.32,8.32,0,0,0-1-1.25,4.72,4.72,0,0,0-.9-.69l5.69-3.76a4.28,4.28,0,0,0,.3,1.1,8.23,8.23,0,0,0,.76,1.37l5.56,8.41a8.35,8.35,0,0,0,1,1.25,4.66,4.66,0,0,0,.9.69l-5.69,3.76a4.28,4.28,0,0,0-.3-1.1,8.23,8.23,0,0,0-.76-1.37l-2.22-3.36-3.64,2.41,2.22,3.36a8.39,8.39,0,0,0,1,1.25,4.67,4.67,0,0,0,.9.69L38,57.88a4.32,4.32,0,0,0-.3-1.1,8.26,8.26,0,0,0-.76-1.37L31.37,47a8.32,8.32,0,0,0-1-1.25,4.75,4.75,0,0,0-.9-.69l5.68-3.76a4.28,4.28,0,0,0,.3,1.1,8.19,8.19,0,0,0,.76,1.37l1.93,2.92Z"/><path class="cls-1" d="M58.61,28.12l7.07-3.41a4.7,4.7,0,0,0,.12,1.11,7.45,7.45,0,0,0,.57,1.48l4.37,9.08a8.28,8.28,0,0,0,.79,1.38,4.19,4.19,0,0,0,.81.78l-6.16,3A4.3,4.3,0,0,0,66,40.39a8.26,8.26,0,0,0-.57-1.46l-4.1-8.52,1.38,12.76-3.65,1.76-9-9.24,4.06,8.53A10.44,10.44,0,0,0,55,45.79a2.91,2.91,0,0,0,.88.71l-3.33,1.6a2.85,2.85,0,0,0,0-1.12,10.28,10.28,0,0,0-.67-1.62L47.57,36.5A10.3,10.3,0,0,0,46.72,35a2.87,2.87,0,0,0-.87-.7l7.26-3.5,6.42,6.57Z"/><path class="cls-1" d="M83.16,22.3A7.24,7.24,0,0,0,82,22.24a4.68,4.68,0,0,0-1.26.25l-5.17,1.7a2.21,2.21,0,0,0-.83.4q-.17.18,0,.59L75,26q.13.41.38.46a2.22,2.22,0,0,0,.9-.17L80.18,25a4.77,4.77,0,0,1,3-.22,2.8,2.8,0,0,1,1.64,2L86,30.3a4.21,4.21,0,0,1,.11,3A3.67,3.67,0,0,1,83.66,35l-10,3.3-1.41-2.67a7.76,7.76,0,0,0,1.1,0,5.82,5.82,0,0,0,1.22-.28l5.38-1.77a2.12,2.12,0,0,0,.81-.39c.11-.12.12-.32,0-.59l-.33-1q-.13-.39-.37-.45a2,2,0,0,0-.88.15l-4.54,1.49a3.51,3.51,0,0,1-2.62.1,3.68,3.68,0,0,1-1.5-2.26l-1.07-3.26a3.93,3.93,0,0,1,0-2.84,3.05,3.05,0,0,1,2-1.64L81.7,19.5Z"/><path class="cls-1" d="M101,30.94l-7.06-13a3.42,3.42,0,0,0-.51-.71,3.62,3.62,0,0,0-.63-.55L100,15.55a4,4,0,0,0,0,.63l0,.21a4,4,0,0,0,.18.72,8.11,8.11,0,0,0,.59,1.17L105.48,27l2.19-9.68a11.16,11.16,0,0,0,.19-1.12,3.57,3.57,0,0,0,0-.92,2.27,2.27,0,0,0-.12-.46l-.13-.36,3.92-.58A5.63,5.63,0,0,0,111,15a12.93,12.93,0,0,0-.53,1.83L107.48,30Z"/><path class="cls-1" d="M117.12,24.87l-1,2.14a2,2,0,0,0-.19.92,2.09,2.09,0,0,0,.06.54,3.4,3.4,0,0,0,.3.56l-4.34.12q.67-.91,1-1.44a11.32,11.32,0,0,0,.68-1.39l5.26-11.87-.7-.84,6.93-.2L131,26.5a7.19,7.19,0,0,0,1.4,2.07l-7.7.22a3.67,3.67,0,0,0,.25-.6,1.41,1.41,0,0,0,.06-.42,2.91,2.91,0,0,0-.25-1.15l-.89-1.94Zm5.66-2.71L120.44,17l-2.2,5.26Z"/><path class="cls-1" d="M143.39,27.14a7.31,7.31,0,0,0,1.54,0,3.12,3.12,0,0,0,1-.29l-.75,3L132,28.77a4.31,4.31,0,0,0,.45-1,8.18,8.18,0,0,0,.25-1.54l.81-10a8.38,8.38,0,0,0,0-1.58,4.78,4.78,0,0,0-.29-1.09L140,14a4.29,4.29,0,0,0-.45,1,8.21,8.21,0,0,0-.25,1.54l-.82,10.14Z"/><path class="cls-1" d="M161.78,29.71q.37,1,.76,1.9a13.25,13.25,0,0,0,.84,1.6l-7.07-1.35-2.15-7L152.5,26.1l-.43,2.26a8.34,8.34,0,0,0-.19,1.56,4.78,4.78,0,0,0,.17,1.12l-6.69-1.28a4.28,4.28,0,0,0,.56-1,8.27,8.27,0,0,0,.41-1.51l1.89-9.9a8.31,8.31,0,0,0,.19-1.56,4.74,4.74,0,0,0-.17-1.12l6.7,1.28a4.28,4.28,0,0,0-.56,1,8.25,8.25,0,0,0-.41,1.51l-.8,4.17L158,18.82a4.32,4.32,0,0,0,.81-.77,1.76,1.76,0,0,0,.3-.7l.11-.57,5.21,1a11.84,11.84,0,0,0-1.16.44,7,7,0,0,0-1.1.67l-3.35,2.44Z"/><path class="cls-1" d="M169.19,28.93l-2.35-8.61c-.18-.61-.3-1-.38-1.27a6.08,6.08,0,0,0-.45-1l7.52,2.4a2.07,2.07,0,0,0-.24.43,1.4,1.4,0,0,0-.06.69q.06.32.28,1.22l1.28,4.76,3.8-3.26a3.62,3.62,0,0,0,.77-.87,4.55,4.55,0,0,0,.44-1L184,23.81a9,9,0,0,0-1.43.63,11.21,11.21,0,0,0-1.19.9L174.68,31l-.92,2.9a8.39,8.39,0,0,0-.37,1.53,4.78,4.78,0,0,0,0,1.13l-6.49-2.07a4.35,4.35,0,0,0,.67-.92,8.23,8.23,0,0,0,.59-1.45Z"/><path class="cls-1" d="M187.1,34.78l-1.67,3.67a8.29,8.29,0,0,0-.55,1.47,4.72,4.72,0,0,0-.1,1.13l-6.2-2.83a4.29,4.29,0,0,0,.78-.83A8.24,8.24,0,0,0,180.1,36l4.19-9.17a7.44,7.44,0,0,0,.55-1.52,2.79,2.79,0,0,0,0-1.14l11.48,5.24a4.88,4.88,0,0,1,2.45,1.95,3.18,3.18,0,0,1-.23,2.78l-1.18,2.58q-.64,1.4-1.38,1.57a2.8,2.8,0,0,1-1.79-.3l.11,4.8q0,.74,0,1.48a4.8,4.8,0,0,0,.16,1.19l-6-2.72.24-7.23Zm1.06-2.31,3,1.38a1.31,1.31,0,0,0,.76.18c.16,0,.32-.23.47-.56l.78-1.7a.92.92,0,0,0,.11-.71,1.23,1.23,0,0,0-.63-.47l-3-1.38Z"/><path class="cls-1" d="M194.94,46a4.32,4.32,0,0,0,.85-.76,8.24,8.24,0,0,0,.88-1.29l5-8.75a8.43,8.43,0,0,0,.69-1.42,4.7,4.7,0,0,0,.21-1.11L208.48,36a4.29,4.29,0,0,0-.85.76,8.18,8.18,0,0,0-.88,1.29l-5,8.75a8.43,8.43,0,0,0-.69,1.42,4.7,4.7,0,0,0-.21,1.11Z"/><path class="cls-1" d="M212.82,54.22a9.15,9.15,0,0,0,1.24.74,8.52,8.52,0,0,0,1.17.41l-2.1,2.14-11.2-7.61a4.32,4.32,0,0,0,.91-.69,8.23,8.23,0,0,0,1-1.22l5.67-8.34a8.29,8.29,0,0,0,.79-1.36,4.75,4.75,0,0,0,.29-1.09l11,7.47-1.36,2.85a11.2,11.2,0,0,0-.74-1,5.59,5.59,0,0,0-1.14-1l-4-2.68-2,3,3.45,2.35a8.57,8.57,0,0,0,1.21.72,10.67,10.67,0,0,0,1.2.43l-1.89,2.78q-.36-.45-.8-.89a7.83,7.83,0,0,0-1.15-.93l-3.45-2.35-2.32,3.41Z"/><path class="cls-1" d="M84.84,58.63a9.27,9.27,0,0,0-1.43-.55,6.05,6.05,0,0,0-1.64-.2h-7a2.87,2.87,0,0,0-1.18.15c-.19.1-.28.34-.28.71v1.12c0,.37.09.61.28.71a2.83,2.83,0,0,0,1.18.16h5.36a6.17,6.17,0,0,1,3.74.93,3.61,3.61,0,0,1,1.22,3.07v4.84A5.43,5.43,0,0,1,84,73.25q-1.05,1.19-3.69,1.19H66.67L66,70.6a10.19,10.19,0,0,0,1.37.41,7.47,7.47,0,0,0,1.61.15h7.32A2.72,2.72,0,0,0,77.46,71c.19-.1.28-.34.28-.71V68.92a.76.76,0,0,0-.28-.7,2.52,2.52,0,0,0-1.15-.17H70.14a4.53,4.53,0,0,1-3.25-.93A4.75,4.75,0,0,1,66,63.75V59.31A5.08,5.08,0,0,1,67,55.81a4,4,0,0,1,3.1-1.21h14Z"/><path class="cls-1" d="M88.09,58A10.74,10.74,0,0,0,88,56a6.11,6.11,0,0,0-.48-1.38h15.41q3.13,0,4.42,1.29t1.29,4.36V68.8q0,3.07-1.29,4.36t-4.42,1.29H87.47A5.52,5.52,0,0,0,87.94,73a10.61,10.61,0,0,0,.16-2Zm7.56,13.14h3.94a1.66,1.66,0,0,0,1.18-.28,2.27,2.27,0,0,0,.25-1.33v-10a2.28,2.28,0,0,0-.25-1.32q-.25-.29-1.18-.29H95.66Z"/><path class="cls-1" d="M111.09,64.55H122v5.21H111.09Z"/><path class="cls-1" d="M137.72,54.6a7.21,7.21,0,0,1,4.15.91,3.6,3.6,0,0,1,1.24,3.11v3.32a2.14,2.14,0,0,1-1.07,2,7.29,7.29,0,0,1-3.55.64q2.88,0,3.75.74a3.14,3.14,0,0,1,.87,2.55V71a3.32,3.32,0,0,1-.93,2.52,4.36,4.36,0,0,1-3.07.89H124.05l-.71-4.25a10.49,10.49,0,0,0,1.64.73,5.87,5.87,0,0,0,1.8.23h7.41a1.78,1.78,0,0,0,1.1-.23,1.31,1.31,0,0,0,.26-1V67.22a1.36,1.36,0,0,0-.25-1,1.88,1.88,0,0,0-1.12-.22h-3.6a11.15,11.15,0,0,0-1.81.11,13.93,13.93,0,0,0-1.6.42V62.2a15.35,15.35,0,0,0,1.5.37,10.07,10.07,0,0,0,1.91.16h3.6a1.79,1.79,0,0,0,1.1-.23,1.31,1.31,0,0,0,.26-1V59.1a1.36,1.36,0,0,0-.25-1,1.88,1.88,0,0,0-1.12-.22h-8.06a5.25,5.25,0,0,0-1.44.15,8.58,8.58,0,0,0-1.35.59l.68-4Z"/><path class="cls-1" d="M153,61.79h8.09a5.28,5.28,0,0,1,3.8,1.1,4.67,4.67,0,0,1,1.1,3.43v3.6a4.67,4.67,0,0,1-1.1,3.43,5.28,5.28,0,0,1-3.8,1.1h-15l-.68-4.28a4.67,4.67,0,0,0,1.36.71,7.71,7.71,0,0,0,2.39.28h7.9a1.77,1.77,0,0,0,1.13-.23,1.64,1.64,0,0,0,.23-1.07V66.38a1.57,1.57,0,0,0-.25-1.05,1.69,1.69,0,0,0-1.12-.25h-8a9.39,9.39,0,0,0-1.94.17,3.45,3.45,0,0,0-1.47.73l.25-11.38h19.84l.59,4a6.64,6.64,0,0,0-1.61-.57,13.12,13.12,0,0,0-2.51-.18h-9Z"/><path class="cls-1" d="M176,61.79h8.09a5.28,5.28,0,0,1,3.8,1.1,4.67,4.67,0,0,1,1.1,3.43v3.6a4.67,4.67,0,0,1-1.1,3.43,5.28,5.28,0,0,1-3.8,1.1h-15l-.68-4.28a4.67,4.67,0,0,0,1.36.71,7.71,7.71,0,0,0,2.39.28H180a1.77,1.77,0,0,0,1.13-.23,1.64,1.64,0,0,0,.23-1.07V66.38a1.57,1.57,0,0,0-.25-1.05,1.69,1.69,0,0,0-1.12-.25h-8a9.39,9.39,0,0,0-1.94.17,3.45,3.45,0,0,0-1.47.73l.25-11.38h19.84l.59,4a6.64,6.64,0,0,0-1.61-.57,13.12,13.12,0,0,0-2.51-.18h-9Z"/></svg>