<svg id="Layer_1" data-name="Layer 1" xmlns="http://www.w3.org/2000/svg" viewBox="0 0 250.93 88.19"><defs><style>.cls-1{fill:#ffc418;}</style></defs><title>SD-457</title><path d="M5.4,55.53a171.41,171.41,0,0,1,121-50.13A167.4,167.4,0,0,1,245.53,54.93L221,82.78H29.31Z"/><path class="cls-1" d="M5.4,55.53a171.41,171.41,0,0,1,121-50.13A167.4,167.4,0,0,1,245.53,54.92L221,82.78H29.31ZM92.56,3.29a177,177,0,0,0-91,48.41,5.4,5.4,0,0,0-.25,7.39L25.25,86.35a5.4,5.4,0,0,0,4.06,1.84H221a5.39,5.39,0,0,0,4.05-1.83l24.52-27.86a5.39,5.39,0,0,0-.24-7.38A172.77,172.77,0,0,0,126.45,0,176.66,176.66,0,0,0,92.56,3.29"/><path class="cls-1" d="M25.72,56.64l-2.19-2.54A8,8,0,0,0,22.46,53a4.52,4.52,0,0,0-.94-.54l4.94-4.27a4.11,4.11,0,0,0,.42,1,7.9,7.9,0,0,0,.89,1.21l6.31,7.31a7.94,7.94,0,0,0,1.06,1.07,4.57,4.57,0,0,0,.94.54l-4.94,4.27a4.14,4.14,0,0,0-.42-1,7.88,7.88,0,0,0-.89-1.21l-2.52-2.92-3.17,2.74,2.52,2.92a8,8,0,0,0,1.06,1.07,4.49,4.49,0,0,0,.94.54L23.72,70a4.11,4.11,0,0,0-.42-1,7.82,7.82,0,0,0-.89-1.21L16.1,60.5A8,8,0,0,0,15,59.42a4.53,4.53,0,0,0-.94-.54L19,54.61a4.1,4.1,0,0,0,.42,1,7.79,7.79,0,0,0,.89,1.21l2.19,2.54Z"/><path class="cls-1" d="M40.63,38.52l6.31-4.1a4.5,4.5,0,0,0,.25,1,7.12,7.12,0,0,0,.72,1.34l5.26,8.1a8,8,0,0,0,.91,1.22,4,4,0,0,0,.87.64l-5.5,3.57a4.14,4.14,0,0,0-.27-1.06A8,8,0,0,0,48.47,48l-4.94-7.6,2.86,12-3.26,2.12-9.71-7.68,4.89,7.62a10.13,10.13,0,0,0,1,1.38,2.78,2.78,0,0,0,.92.57l-3,1.93a2.74,2.74,0,0,0-.14-1.06,9.9,9.9,0,0,0-.84-1.46l-5.14-7.91a9.85,9.85,0,0,0-1-1.36,2.74,2.74,0,0,0-.91-.56l6.48-4.21,6.9,5.47Z"/><path class="cls-1" d="M64.31,29.45a6.9,6.9,0,0,0-1.13.09,4.51,4.51,0,0,0-1.16.39L57.3,32.17a2.12,2.12,0,0,0-.74.48c-.09.13-.08.32,0,.57L57,34c.12.25.26.38.41.39a2.13,2.13,0,0,0,.84-.27l3.59-1.71a4.57,4.57,0,0,1,2.8-.57,2.68,2.68,0,0,1,1.8,1.67l1.54,3.24a4,4,0,0,1,.46,2.8,3.52,3.52,0,0,1-2.09,2l-9.14,4.34-1.66-2.37a7.49,7.49,0,0,0,1-.16,5.6,5.6,0,0,0,1.13-.41l4.9-2.33a2,2,0,0,0,.72-.47c.09-.13.08-.32,0-.57l-.43-.91c-.11-.24-.25-.36-.41-.38a1.87,1.87,0,0,0-.82.25l-4.13,2a3.37,3.37,0,0,1-2.48.41,3.53,3.53,0,0,1-1.7-2l-1.41-3a3.77,3.77,0,0,1-.39-2.69,2.93,2.93,0,0,1,1.69-1.8L62.58,27Z"/><path class="cls-1" d="M80.52,36a4.14,4.14,0,0,0,0-1.09,7.92,7.92,0,0,0-.32-1.46l-2.79-9.25a8.07,8.07,0,0,0-.53-1.41,4.51,4.51,0,0,0-.64-.88L82.53,20a4.1,4.1,0,0,0,0,1.09,7.9,7.9,0,0,0,.32,1.46l2.79,9.25a8,8,0,0,0,.53,1.41,4.51,4.51,0,0,0,.64.88Z"/><path class="cls-1" d="M99.4,16.29l7.4-1.38a4.5,4.5,0,0,0-.17,1.06,7.1,7.1,0,0,0,.15,1.51l1.77,9.5a8.09,8.09,0,0,0,.38,1.47,4,4,0,0,0,.56.93L103,30.58a4.16,4.16,0,0,0,.15-1.08A7.91,7.91,0,0,0,103,28l-1.66-8.91L99.45,31.25,95.63,32l-6-10.81,1.61,8.91a10.09,10.09,0,0,0,.4,1.65,2.77,2.77,0,0,0,.63.88l-3.48.65a2.75,2.75,0,0,0,.28-1,9.8,9.8,0,0,0-.22-1.67l-1.73-9.27a9.93,9.93,0,0,0-.4-1.63,2.74,2.74,0,0,0-.63-.87l7.6-1.42L97.95,25Z"/><path class="cls-1" d="M117.07,26.55a8,8,0,0,0,.18,1.5,4.49,4.49,0,0,0,.41,1l-6.52.33a4.12,4.12,0,0,0,.29-1.05,7.89,7.89,0,0,0,0-1.5L111,17.18a7.05,7.05,0,0,0-.2-1.53,2.69,2.69,0,0,0-.52-1l12-.61a4.42,4.42,0,0,1,2.82.61,3.48,3.48,0,0,1,1.08,2.79l.12,2.3a3.5,3.5,0,0,1-.79,2.88,4.41,4.41,0,0,1-2.75.89l-5.83.29Zm-.26-5.15,2.94-.15a1,1,0,0,0,.8-.28,1.78,1.78,0,0,0,.14-1l-.1-2.07a1.78,1.78,0,0,0-.25-1,1,1,0,0,0-.83-.2l-2.94.15Z"/><path class="cls-1" d="M139.4,26.86a8.53,8.53,0,0,0,1.38,0,8.29,8.29,0,0,0,1.17-.24l-.67,2.79-13-.74a4.08,4.08,0,0,0,.4-1,7.87,7.87,0,0,0,.2-1.49l.55-9.64a8,8,0,0,0,0-1.51,4.53,4.53,0,0,0-.3-1l12.72.72.29,3a10.41,10.41,0,0,0-1.1-.45,5.34,5.34,0,0,0-1.42-.24l-4.57-.26-.2,3.44,4,.23a8.41,8.41,0,0,0,1.35,0,10.47,10.47,0,0,0,1.2-.24l-.18,3.21a11.32,11.32,0,0,0-1.1-.34,7.48,7.48,0,0,0-1.41-.2l-4-.23-.22,3.95Z"/><path class="cls-1" d="M150,24.22,149.35,28a8,8,0,0,0-.15,1.5,4.56,4.56,0,0,0,.18,1.07l-6.44-1.1a4.1,4.1,0,0,0,.51-1,7.79,7.79,0,0,0,.37-1.45l1.63-9.52a7.07,7.07,0,0,0,.14-1.54,2.69,2.69,0,0,0-.3-1.05l11.92,2a4.67,4.67,0,0,1,2.75,1.2,3,3,0,0,1,.47,2.64L160,23.52q-.25,1.45-.89,1.8a2.69,2.69,0,0,1-1.73.16l1.27,4.42q.19.69.39,1.36a4.57,4.57,0,0,0,.44,1.07l-6.19-1.06-1.55-6.75Zm.41-2.4,3.13.54a1.24,1.24,0,0,0,.75,0q.21-.12.3-.64l.3-1.77a.89.89,0,0,0-.07-.69,1.18,1.18,0,0,0-.7-.28L151,18.42Z"/><path class="cls-1" d="M165.51,30,164,31.6a1.92,1.92,0,0,0-.45.77,2,2,0,0,0-.11.51,3.2,3.2,0,0,0,.11.6l-4-1.22q.89-.62,1.34-1a10.93,10.93,0,0,0,1-1.05L170.34,21l-.37-1,6.35,2,1.29,13.68a6.92,6.92,0,0,0,.64,2.31l-7.06-2.17a3.54,3.54,0,0,0,.41-.46,1.34,1.34,0,0,0,.18-.36,2.76,2.76,0,0,0,.13-1.12l-.22-2Zm6-.72-.54-5.38L167.32,28Z"/><path class="cls-1" d="M197.11,30.42l-.79,2.92a4.61,4.61,0,0,0-.68-.76,4,4,0,0,0-1-.6l-2.33-1-3.94,8.92a8,8,0,0,0-.51,1.42,4.53,4.53,0,0,0-.09,1.08l-6-2.64a4.09,4.09,0,0,0,.73-.81,7.9,7.9,0,0,0,.71-1.32l3.94-8.92-2.33-1a3.86,3.86,0,0,0-1.09-.34,5.14,5.14,0,0,0-1.06,0l1.65-2.59Z"/><path class="cls-1" d="M200.91,42l-2,3.33a8,8,0,0,0-.67,1.35,4.54,4.54,0,0,0-.21,1.06l-5.63-3.31a4.09,4.09,0,0,0,.82-.72,8,8,0,0,0,.86-1.23L199,34.19a7.06,7.06,0,0,0,.67-1.39,2.68,2.68,0,0,0,.09-1.09l10.43,6.13a4.67,4.67,0,0,1,2.14,2.1,3.05,3.05,0,0,1-.49,2.63l-1.37,2.34q-.75,1.27-1.47,1.36a2.69,2.69,0,0,1-1.67-.46L207,50.39q-.07.71-.12,1.41a4.62,4.62,0,0,0,0,1.15l-5.41-3.18.94-6.86Zm1.24-2.1,2.74,1.61a1.25,1.25,0,0,0,.71.24c.16,0,.32-.19.5-.49l.91-1.55a.89.89,0,0,0,.18-.67,1.18,1.18,0,0,0-.55-.51L203.89,37Z"/><path class="cls-1" d="M208.24,54.14a4.15,4.15,0,0,0,.89-.64,7.86,7.86,0,0,0,1-1.14l5.65-7.83a8,8,0,0,0,.8-1.28,4.57,4.57,0,0,0,.31-1l5.3,3.82a4.06,4.06,0,0,0-.89.64,7.88,7.88,0,0,0-1,1.15l-5.65,7.83a8,8,0,0,0-.8,1.28,4.49,4.49,0,0,0-.31,1Z"/><path class="cls-1" d="M229.2,57.34l3.28-.25a5.46,5.46,0,0,0,1.3-.22,2.49,2.49,0,0,0,.84-.49l3.45,3a10.78,10.78,0,0,0-1.61-.12q-.77,0-1.82.09l-5.59.47-.64,8q-.08,1-.07,1.55a5.79,5.79,0,0,0,.15,1.2l-6.07-5.29a3.68,3.68,0,0,0,.67-1,5.9,5.9,0,0,0,.2-1.33l.21-2.69-3.58.3a3.83,3.83,0,0,0-2.14.63l-3.28-2.86q1.06.07,1.48.07t1.79-.12l5.92-.49L224.2,50q.07-1,.06-1.47a6.91,6.91,0,0,0-.28-1.4l6.25,5.44a3.28,3.28,0,0,0-.55.82,2.53,2.53,0,0,0-.2.85Z"/><path class="cls-1" d="M84,58.63a9.24,9.24,0,0,0-1.43-.55,6,6,0,0,0-1.64-.2h-7A2.87,2.87,0,0,0,72.7,58c-.19.1-.28.34-.28.71v1.12c0,.37.09.61.28.71a2.83,2.83,0,0,0,1.18.16h5.36a6.16,6.16,0,0,1,3.74.93,3.61,3.61,0,0,1,1.22,3.07v4.84a5.44,5.44,0,0,1-1.05,3.67q-1.05,1.19-3.69,1.19H65.82l-.65-3.84a10.18,10.18,0,0,0,1.36.41,7.48,7.48,0,0,0,1.61.15h7.32A2.73,2.73,0,0,0,76.61,71c.19-.1.28-.34.28-.71V68.92a.76.76,0,0,0-.28-.7,2.53,2.53,0,0,0-1.15-.17H69.29A4.54,4.54,0,0,1,66,67.12a4.75,4.75,0,0,1-.93-3.38V59.31a5.08,5.08,0,0,1,1.09-3.5,4,4,0,0,1,3.1-1.21h14Z"/><path class="cls-1" d="M87.24,58a10.74,10.74,0,0,0-.14-2,6.11,6.11,0,0,0-.48-1.38H102q3.13,0,4.42,1.29t1.29,4.36V68.8q0,3.07-1.29,4.36T102,74.44H86.62A5.52,5.52,0,0,0,87.08,73a10.61,10.61,0,0,0,.16-2ZM94.8,71.15h3.94a1.66,1.66,0,0,0,1.18-.28,2.27,2.27,0,0,0,.25-1.33v-10a2.28,2.28,0,0,0-.25-1.32q-.25-.29-1.18-.29H94.8Z"/><path class="cls-1" d="M110.24,64.55h10.91v5.21H110.24Z"/><path class="cls-1" d="M146.67,64.77V70h-3.38v1.74a6,6,0,0,0,.17,1.63,3.75,3.75,0,0,0,.54,1.1h-8.84a3.31,3.31,0,0,0,.51-1.07,6.39,6.39,0,0,0,.17-1.66V70H122.64V65.11L134.51,54.6h8.77V64.77Zm-10.82-6.59-7.77,6.59h7.77Z"/><path class="cls-1" d="M155.59,61.79h8.09a5.28,5.28,0,0,1,3.8,1.1,4.68,4.68,0,0,1,1.1,3.43v3.6a4.68,4.68,0,0,1-1.1,3.43,5.28,5.28,0,0,1-3.8,1.1h-15L148,70.16a4.67,4.67,0,0,0,1.36.71,7.72,7.72,0,0,0,2.39.28h7.9a1.76,1.76,0,0,0,1.13-.23,1.62,1.62,0,0,0,.23-1.07V66.38a1.56,1.56,0,0,0-.25-1.05,1.69,1.69,0,0,0-1.12-.25h-8a9.38,9.38,0,0,0-1.94.17,3.46,3.46,0,0,0-1.47.73l.25-11.38h19.84l.59,4a6.65,6.65,0,0,0-1.61-.57,13.1,13.1,0,0,0-2.51-.18h-9Z"/><path class="cls-1" d="M173.63,58a8.56,8.56,0,0,0-1.69.11,11.52,11.52,0,0,0-1.54.57L171,54.6H190.5l.19,3.35a42.8,42.8,0,0,0-6,8.08,27.16,27.16,0,0,0-3.25,8.42h-8.56a25,25,0,0,1,2.74-6.29,60.89,60.89,0,0,1,4.19-6.26Q182,59,183,58Z"/></svg>