<svg id="Layer_1" data-name="Layer 1" xmlns="http://www.w3.org/2000/svg" viewBox="0 0 250.93 88.19"><defs><style>.cls-1{fill:#231f20;}.cls-2{fill:#ffc418;}.cls-3{fill:none;stroke:#231f20;}</style></defs><title>SD-460</title><path class="cls-1" d="M5.4,55.53a171.41,171.41,0,0,1,121-50.13A167.4,167.4,0,0,1,245.53,54.93L221,82.78H29.31Z"/><path class="cls-2" d="M5.4,55.53a171.41,171.41,0,0,1,121-50.13A167.4,167.4,0,0,1,245.53,54.92L221,82.78H29.31ZM92.56,3.29a177,177,0,0,0-91,48.41,5.4,5.4,0,0,0-.25,7.39L25.25,86.35a5.4,5.4,0,0,0,4.06,1.84H221a5.39,5.39,0,0,0,4.05-1.83l24.52-27.86a5.39,5.39,0,0,0-.24-7.38A172.77,172.77,0,0,0,126.45,0,176.66,176.66,0,0,0,92.56,3.29"/><path class="cls-3" d="M5.4,55.53a171.42,171.42,0,0,1,121-50.13A167.4,167.4,0,0,1,245.53,54.93"/><path class="cls-2" d="M26.9,55.65l-2.17-2.56A7.91,7.91,0,0,0,23.68,52a4.58,4.58,0,0,0-.93-.55l5-4.22a4.11,4.11,0,0,0,.41,1A7.84,7.84,0,0,0,29,49.46l6.24,7.37a8,8,0,0,0,1.05,1.08,4.53,4.53,0,0,0,.93.55l-5,4.22a4.14,4.14,0,0,0-.41-1A7.85,7.85,0,0,0,31,60.46l-2.5-2.95-3.19,2.7,2.5,2.95a8,8,0,0,0,1.05,1.08,4.53,4.53,0,0,0,.93.55l-5,4.22a4.13,4.13,0,0,0-.41-1,7.85,7.85,0,0,0-.88-1.21l-6.24-7.37a7.94,7.94,0,0,0-1.05-1.08,4.53,4.53,0,0,0-.93-.55l5-4.22a4.11,4.11,0,0,0,.41,1,7.88,7.88,0,0,0,.88,1.22l2.17,2.56Z"/><path class="cls-2" d="M42,37.69l6.35-4a4.49,4.49,0,0,0,.24,1A7.1,7.1,0,0,0,49.27,36l5.18,8.15a7.92,7.92,0,0,0,.9,1.23,4.05,4.05,0,0,0,.86.65l-5.53,3.52a4.11,4.11,0,0,0-.26-1.06,7.91,7.91,0,0,0-.71-1.32l-4.86-7.65,2.75,12-3.28,2.08-9.63-7.77,4.82,7.66a10,10,0,0,0,1,1.38,2.77,2.77,0,0,0,.91.58l-3,1.9a2.74,2.74,0,0,0-.13-1.06,9.82,9.82,0,0,0-.82-1.47l-5.06-8a9.89,9.89,0,0,0-1-1.37,2.77,2.77,0,0,0-.91-.57L37,40.82l6.84,5.53Z"/><path class="cls-2" d="M65.73,28.85a7,7,0,0,0-1.13.08,4.48,4.48,0,0,0-1.17.38L58.7,31.5A2.11,2.11,0,0,0,58,32c-.09.13-.08.32,0,.57l.35.75q.17.38.41.39a2.12,2.12,0,0,0,.84-.26l3.61-1.67a4.58,4.58,0,0,1,2.8-.54,2.68,2.68,0,0,1,1.78,1.68l1.51,3.26a4,4,0,0,1,.44,2.8,3.52,3.52,0,0,1-2.11,2l-9.18,4.25L56.8,42.77a7.52,7.52,0,0,0,1-.15,5.54,5.54,0,0,0,1.13-.4l4.92-2.28a2,2,0,0,0,.72-.46c.09-.13.08-.32,0-.57L64.17,38c-.11-.24-.24-.36-.41-.38a1.86,1.86,0,0,0-.82.24l-4.15,1.92a3.37,3.37,0,0,1-2.48.39,3.52,3.52,0,0,1-1.68-2l-1.38-3a3.77,3.77,0,0,1-.36-2.7,2.93,2.93,0,0,1,1.71-1.78L64,26.34Z"/><path class="cls-2" d="M81.92,35.57a4.11,4.11,0,0,0,0-1.09A7.9,7.9,0,0,0,81.65,33L79,23.74a8.06,8.06,0,0,0-.52-1.42,4.58,4.58,0,0,0-.63-.88l6.27-1.82a4.12,4.12,0,0,0,0,1.09,7.8,7.8,0,0,0,.31,1.47L87,31.45a8,8,0,0,0,.52,1.42,4.51,4.51,0,0,0,.63.88Z"/><path class="cls-2" d="M90.9,20.47l1.74,9.38A9.8,9.8,0,0,0,93,31.49a2.72,2.72,0,0,0,.63.86L90.2,33a2.74,2.74,0,0,0,.27-1,9.78,9.78,0,0,0-.22-1.67l-1.77-9.26a9.78,9.78,0,0,0-.41-1.63,2.72,2.72,0,0,0-.63-.86l7.75-1.48,8.12,10.67-1.69-9.21a9.91,9.91,0,0,0-.41-1.63,2.75,2.75,0,0,0-.63-.86l3.48-.66a2.72,2.72,0,0,0-.27,1,9.8,9.8,0,0,0,.22,1.67l2.26,11.86-7.14,1.36Z"/><path class="cls-2" d="M121,14l.68,2.95a4.66,4.66,0,0,0-1-.34,4,4,0,0,0-1.17,0l-2.55.19.74,9.72a8,8,0,0,0,.22,1.49,4.5,4.5,0,0,0,.43,1l-6.51.49a4.07,4.07,0,0,0,.27-1.06,7.81,7.81,0,0,0,0-1.5l-.74-9.72-2.55.19a3.86,3.86,0,0,0-1.13.21,5.15,5.15,0,0,0-.92.54l.23-3.06Z"/><path class="cls-2" d="M134.55,26.51a8.77,8.77,0,0,0,1.38,0,8.24,8.24,0,0,0,1.16-.28L136.51,29l-13-.31a4.12,4.12,0,0,0,.37-1,7.85,7.85,0,0,0,.15-1.49l.23-9.66a8,8,0,0,0-.07-1.51,4.53,4.53,0,0,0-.33-1l12.74.31.39,3a10.51,10.51,0,0,0-1.12-.42,5.34,5.34,0,0,0-1.42-.2l-4.58-.11L129.83,20l4,.1a8.19,8.19,0,0,0,1.35,0,10.38,10.38,0,0,0,1.19-.28L136.29,23a11.49,11.49,0,0,0-1.11-.3,7.45,7.45,0,0,0-1.41-.15l-4-.1-.1,4Z"/><path class="cls-2" d="M145.05,23.53l-.53,3.83a8.08,8.08,0,0,0-.1,1.51,4.54,4.54,0,0,0,.21,1.06L138.17,29a4.12,4.12,0,0,0,.48-1A7.87,7.87,0,0,0,139,26.6L140.28,17a7.09,7.09,0,0,0,.08-1.54,2.68,2.68,0,0,0-.33-1l12,1.64a4.68,4.68,0,0,1,2.78,1.11,3.05,3.05,0,0,1,.56,2.62L155,22.5q-.2,1.46-.83,1.82a2.69,2.69,0,0,1-1.72.22l1.42,4.37q.21.68.43,1.35a4.61,4.61,0,0,0,.47,1.05l-6.22-.85-1.77-6.7Zm.33-2.42,3.14.43a1.26,1.26,0,0,0,.75,0q.2-.12.27-.65l.24-1.78a.89.89,0,0,0-.09-.69,1.18,1.18,0,0,0-.71-.26l-3.14-.43Z"/><path class="cls-2" d="M167.29,32a7,7,0,0,0,1.46.24,3,3,0,0,0,1-.11l-1.19,2.71-12.31-3.12a4.09,4.09,0,0,0,.59-.92,7.91,7.91,0,0,0,.48-1.42L159.7,20a8,8,0,0,0,.27-1.49,4.5,4.5,0,0,0-.09-1.08l6.33,1.61a4.11,4.11,0,0,0-.59.92,7.89,7.89,0,0,0-.48,1.42l-2.4,9.45Z"/><path class="cls-2" d="M173.72,25.54a4.82,4.82,0,0,1,2-2.77,3.62,3.62,0,0,1,3,0l7.88,3a3.64,3.64,0,0,1,2.26,1.92,4.81,4.81,0,0,1-.3,3.44l-2.15,5.68a4.82,4.82,0,0,1-2,2.77,3.61,3.61,0,0,1-3,0l-7.87-3a3.64,3.64,0,0,1-2.26-1.92,4.81,4.81,0,0,1,.3-3.44Zm2.77,8.55q-.33.88.7,1.27l2.28.86q1,.39,1.37-.49l2.81-7.44q.33-.88-.7-1.27l-2.28-.86q-1-.39-1.37.49Z"/><path class="cls-2" d="M193.18,42.25a8,8,0,0,0-.61,1.38,4.5,4.5,0,0,0-.16,1.07l-5.78-3a4.14,4.14,0,0,0,.79-.76,7.9,7.9,0,0,0,.8-1.27l4.49-8.55a7.06,7.06,0,0,0,.61-1.42,2.69,2.69,0,0,0,0-1.09L204,34.18a4.42,4.42,0,0,1,2.12,2,3.48,3.48,0,0,1-.49,3l-1.07,2q-1,1.85-2.15,2.08a4.4,4.4,0,0,1-2.82-.64l-5.17-2.72Zm2.4-4.56,2.61,1.37a1,1,0,0,0,.83.17,1.79,1.79,0,0,0,.65-.81l1-1.83a1.78,1.78,0,0,0,.3-1q-.06-.3-.61-.59l-2.61-1.37Z"/><path class="cls-2" d="M212.21,53.92a8.6,8.6,0,0,0,1.19.71,8.3,8.3,0,0,0,1.13.39l-2,2.06-10.75-7.26a4.11,4.11,0,0,0,.86-.67,7.86,7.86,0,0,0,.93-1.17l5.4-8a8,8,0,0,0,.76-1.31,4.55,4.55,0,0,0,.28-1l10.56,7.13-1.29,2.74a10.47,10.47,0,0,0-.72-1,5.32,5.32,0,0,0-1.09-.93L213.67,43l-1.93,2.86,3.32,2.24a8.18,8.18,0,0,0,1.16.69,10.23,10.23,0,0,0,1.16.41l-1.8,2.67a11.32,11.32,0,0,0-.77-.85,7.44,7.44,0,0,0-1.11-.89l-3.32-2.24-2.21,3.28Z"/><path class="cls-2" d="M222.68,57.08,220.18,60a8.09,8.09,0,0,0-.9,1.21,4.56,4.56,0,0,0-.39,1l-5-4.23a4.15,4.15,0,0,0,.93-.56,7.92,7.92,0,0,0,1.06-1.06L222.17,49a7,7,0,0,0,.9-1.26,2.69,2.69,0,0,0,.28-1.06l9.21,7.84A4.67,4.67,0,0,1,234.31,57a3.05,3.05,0,0,1-.94,2.51l-1.76,2.07q-1,1.12-1.68,1.09a2.69,2.69,0,0,1-1.57-.75l-1.16,4.45c-.13.46-.25.91-.36,1.37a4.64,4.64,0,0,0-.17,1.14l-4.78-4.07L224,58.2Zm1.58-1.86,2.42,2.06a1.24,1.24,0,0,0,.66.36c.16,0,.35-.13.58-.4l1.16-1.37a.89.89,0,0,0,.29-.63,1.18,1.18,0,0,0-.46-.6L226.5,52.6Z"/><path class="cls-2" d="M82.26,58.63a9.24,9.24,0,0,0-1.43-.55,6,6,0,0,0-1.64-.2h-7A2.87,2.87,0,0,0,71,58c-.19.1-.28.34-.28.71v1.12c0,.37.09.61.28.71a2.83,2.83,0,0,0,1.18.16h5.36a6.16,6.16,0,0,1,3.74.93,3.61,3.61,0,0,1,1.22,3.07v4.84a5.44,5.44,0,0,1-1.05,3.67q-1.05,1.19-3.69,1.19H64.1l-.65-3.84a10.15,10.15,0,0,0,1.36.41,7.48,7.48,0,0,0,1.61.15h7.32A2.73,2.73,0,0,0,74.89,71c.19-.1.28-.34.28-.71V68.92a.76.76,0,0,0-.28-.7,2.53,2.53,0,0,0-1.15-.17H67.57a4.54,4.54,0,0,1-3.25-.93,4.75,4.75,0,0,1-.93-3.38V59.31a5.08,5.08,0,0,1,1.09-3.5,4,4,0,0,1,3.1-1.21h14Z"/><path class="cls-2" d="M85.52,58a10.74,10.74,0,0,0-.14-2,6.11,6.11,0,0,0-.48-1.38h15.41q3.13,0,4.42,1.29T106,60.24V68.8q0,3.07-1.29,4.36t-4.42,1.29H84.9A5.52,5.52,0,0,0,85.36,73a10.61,10.61,0,0,0,.16-2Zm7.56,13.14H97a1.66,1.66,0,0,0,1.18-.28,2.27,2.27,0,0,0,.25-1.33v-10a2.28,2.28,0,0,0-.25-1.32q-.25-.29-1.18-.29H93.08Z"/><path class="cls-2" d="M108.52,64.55h10.91v5.21H108.52Z"/><path class="cls-2" d="M144.95,64.77V70h-3.38v1.74a6,6,0,0,0,.17,1.63,3.75,3.75,0,0,0,.54,1.1h-8.84a3.31,3.31,0,0,0,.51-1.07,6.39,6.39,0,0,0,.17-1.66V70H120.92V65.11L132.79,54.6h8.77V64.77Zm-10.82-6.59-7.77,6.59h7.77Z"/><path class="cls-2" d="M156,57.89a2.42,2.42,0,0,0-1.44.29,1.38,1.38,0,0,0-.36,1.1v3.78a3.81,3.81,0,0,1,.93-1.18,2,2,0,0,1,1.15-.28h6.29a5.33,5.33,0,0,1,3.5,1.15,3.77,3.77,0,0,1,1.4,3.07v4.4A3.76,3.76,0,0,1,166,73.28a5.3,5.3,0,0,1-3.49,1.16h-11a5.33,5.33,0,0,1-3.5-1.15,3.77,3.77,0,0,1-1.39-3.07V58.82A3.76,3.76,0,0,1,148,55.76a5.3,5.3,0,0,1,3.49-1.16h14.91l.68,4a5.79,5.79,0,0,0-1.5-.55,12.61,12.61,0,0,0-2.59-.19Zm-.56,7a1.51,1.51,0,0,0-1,.23,1.16,1.16,0,0,0-.26.88v4a1.21,1.21,0,0,0,.25.87,1.43,1.43,0,0,0,1,.25h3.22a1.51,1.51,0,0,0,1-.23,1.16,1.16,0,0,0,.26-.88V66a1.22,1.22,0,0,0-.25-.87,1.44,1.44,0,0,0-1-.25Z"/><path class="cls-2" d="M186.52,54.6a4.9,4.9,0,0,1,3.77,1.35q1.26,1.35,1.26,4.48v8.18q0,3.1-1.26,4.46a4.87,4.87,0,0,1-3.77,1.36H175.17a4.9,4.9,0,0,1-3.77-1.35q-1.26-1.35-1.26-4.48V60.43q0-3.1,1.26-4.46a4.87,4.87,0,0,1,3.77-1.36Zm-7.32,3.29q-1.49,0-1.49,1.27V69.88q0,1.27,1.49,1.27h3.29q1.49,0,1.49-1.27V59.16q0-1.27-1.49-1.27Z"/></svg>