<svg id="Layer_1" data-name="Layer 1" xmlns="http://www.w3.org/2000/svg" viewBox="0 0 250.93 88.19"><defs><style>.cls-1{fill:#ffc418;}</style></defs><title>SD-463</title><path d="M5.4,55.53a171.41,171.41,0,0,1,121-50.13A167.4,167.4,0,0,1,245.53,54.93L221,82.78H29.31Z"/><path class="cls-1" d="M5.4,55.53a171.41,171.41,0,0,1,121-50.13A167.4,167.4,0,0,1,245.53,54.92L221,82.78H29.31ZM92.56,3.29a177,177,0,0,0-91,48.41,5.4,5.4,0,0,0-.25,7.39L25.25,86.35a5.4,5.4,0,0,0,4.06,1.84H221a5.39,5.39,0,0,0,4.05-1.83l24.52-27.86a5.39,5.39,0,0,0-.24-7.38A172.77,172.77,0,0,0,126.45,0,176.66,176.66,0,0,0,92.56,3.29"/><path class="cls-1" d="M40,45.5l-2-2.9a8.34,8.34,0,0,0-1-1.24,4.75,4.75,0,0,0-.91-.67l5.63-3.84a4.29,4.29,0,0,0,.31,1.1,8.24,8.24,0,0,0,.78,1.36l5.68,8.33a8.38,8.38,0,0,0,1,1.24,4.76,4.76,0,0,0,.91.67l-5.63,3.84a4.3,4.3,0,0,0-.31-1.09,8.21,8.21,0,0,0-.78-1.36L41.4,47.6l-3.61,2.46,2.27,3.33a8.41,8.41,0,0,0,1,1.24,4.76,4.76,0,0,0,.91.67l-5.63,3.84A4.3,4.3,0,0,0,36,58.05a8.21,8.21,0,0,0-.78-1.36l-5.68-8.33a8.41,8.41,0,0,0-1-1.24,4.71,4.71,0,0,0-.91-.67l5.63-3.84a4.28,4.28,0,0,0,.31,1.1,8.25,8.25,0,0,0,.78,1.36l2,2.89Z"/><path class="cls-1" d="M57.68,28.55l7.05-3.45a4.65,4.65,0,0,0,.13,1.11,7.47,7.47,0,0,0,.58,1.48l4.43,9.05a8.42,8.42,0,0,0,.79,1.38,4.24,4.24,0,0,0,.82.77l-6.14,3a4.35,4.35,0,0,0-.15-1.13,8.21,8.21,0,0,0-.58-1.45l-4.16-8.49,1.46,12.75-3.64,1.78-9.09-9.18,4.11,8.51a10.5,10.5,0,0,0,.87,1.55,2.89,2.89,0,0,0,.88.71l-3.32,1.62a2.86,2.86,0,0,0,0-1.12A10.27,10.27,0,0,0,51,45.84L46.69,37a10.29,10.29,0,0,0-.86-1.53,2.87,2.87,0,0,0-.87-.7l7.24-3.54,6.46,6.53Z"/><path class="cls-1" d="M83.42,22.23a7.14,7.14,0,0,0-1.18-.06,4.67,4.67,0,0,0-1.26.25l-5.18,1.7a2.21,2.21,0,0,0-.83.4c-.11.12-.12.32,0,.59l.27.82q.13.41.38.46a2.21,2.21,0,0,0,.9-.17l3.95-1.29a4.76,4.76,0,0,1,3-.22,2.8,2.8,0,0,1,1.64,2l1.17,3.56a4.2,4.2,0,0,1,.11,3A3.67,3.67,0,0,1,83.9,35l-10,3.29-1.41-2.67a7.91,7.91,0,0,0,1.1,0,5.82,5.82,0,0,0,1.22-.28l5.38-1.76a2.13,2.13,0,0,0,.81-.39c.11-.12.12-.32,0-.59l-.33-1c-.08-.26-.21-.41-.37-.45a2,2,0,0,0-.88.15L74.88,32.7a3.51,3.51,0,0,1-2.62.1,3.68,3.68,0,0,1-1.5-2.26L69.7,27.28a3.93,3.93,0,0,1,0-2.84,3.06,3.06,0,0,1,2-1.64L82,19.42Z"/><path class="cls-1" d="M99.35,31.23a4.32,4.32,0,0,0,.18-1.12,8.21,8.21,0,0,0-.13-1.56l-1.6-10a8.39,8.39,0,0,0-.36-1.54,4.75,4.75,0,0,0-.54-1L103.63,15a4.25,4.25,0,0,0-.18,1.12,8.2,8.2,0,0,0,.13,1.56l1.6,10a8.28,8.28,0,0,0,.36,1.54,4.72,4.72,0,0,0,.54,1Z"/><path class="cls-1" d="M110.61,16.75l.57,9.94a10.21,10.21,0,0,0,.21,1.74,2.86,2.86,0,0,0,.54,1l-3.69.23a2.85,2.85,0,0,0,.42-1,10.29,10.29,0,0,0,0-1.75L108,17a10.21,10.21,0,0,0-.21-1.74,2.86,2.86,0,0,0-.54-1l8.22-.51,7,12.11L122,16.16a10.33,10.33,0,0,0-.21-1.74,2.86,2.86,0,0,0-.54-1l3.69-.23a2.86,2.86,0,0,0-.42,1,10.29,10.29,0,0,0,0,1.75l.79,12.58-7.57.47Z"/><path class="cls-1" d="M142.63,14.08l.31,3.14a4.87,4.87,0,0,0-.95-.48,4.22,4.22,0,0,0-1.2-.21l-2.66-.15-.56,10.16a8.25,8.25,0,0,0,0,1.58,4.72,4.72,0,0,0,.31,1.09l-6.81-.37a4.32,4.32,0,0,0,.42-1.06,8.25,8.25,0,0,0,.21-1.55l.56-10.16-2.66-.15a4,4,0,0,0-1.19.07,5.3,5.3,0,0,0-1,.44l.65-3.14Z"/><path class="cls-1" d="M150.62,24l-.7,4a8.4,8.4,0,0,0-.17,1.57,4.76,4.76,0,0,0,.18,1.12l-6.71-1.18a4.29,4.29,0,0,0,.54-1,8.22,8.22,0,0,0,.39-1.52l1.74-9.93a7.41,7.41,0,0,0,.15-1.61,2.8,2.8,0,0,0-.31-1.1l12.43,2.18A4.88,4.88,0,0,1,161,17.81a3.18,3.18,0,0,1,.48,2.75L161,23.35q-.27,1.51-.94,1.87a2.81,2.81,0,0,1-1.81.16L159.58,30q.19.72.4,1.42a4.78,4.78,0,0,0,.45,1.11L154,31.4l-1.59-7.05Zm.44-2.51,3.26.57a1.3,1.3,0,0,0,.78,0c.14-.08.25-.3.31-.66l.32-1.84a.93.93,0,0,0-.07-.72,1.24,1.24,0,0,0-.73-.3L151.68,18Z"/><path class="cls-1" d="M173.39,33.83a9,9,0,0,0,1.4.33,8.63,8.63,0,0,0,1.24,0l-1.36,2.67-13-3.9a4.29,4.29,0,0,0,.66-.93,8.31,8.31,0,0,0,.57-1.46l2.91-9.65a8.32,8.32,0,0,0,.35-1.54,4.73,4.73,0,0,0,0-1.13l12.73,3.84-.44,3.13a11.21,11.21,0,0,0-1-.73,5.58,5.58,0,0,0-1.38-.59l-4.57-1.38-1,3.45,4,1.2a8.66,8.66,0,0,0,1.37.33,10.74,10.74,0,0,0,1.28,0l-1,3.22c-.32-.21-.66-.42-1-.61a7.86,7.86,0,0,0-1.38-.54l-4-1.2-1.19,4Z"/><path class="cls-1" d="M183.2,37.5a8.31,8.31,0,0,0-.53,1.49,4.68,4.68,0,0,0-.08,1.13l-6.25-2.71a4.32,4.32,0,0,0,.76-.85,8.21,8.21,0,0,0,.73-1.38l4-9.25a7.4,7.4,0,0,0,.52-1.53,2.79,2.79,0,0,0,0-1.14l11.54,5a4.61,4.61,0,0,1,2.35,1.87,3.63,3.63,0,0,1-.27,3.11l-1,2.2q-.87,2-2.07,2.33a4.59,4.59,0,0,1-3-.44l-5.59-2.42Zm2.14-4.93,2.82,1.22a1.08,1.08,0,0,0,.88.11,1.86,1.86,0,0,0,.61-.9l.86-2a1.87,1.87,0,0,0,.24-1.06q-.09-.31-.68-.57l-2.82-1.22Z"/><path class="cls-1" d="M193.11,45a4.32,4.32,0,0,0,.84-.77,8.28,8.28,0,0,0,.86-1.31l4.87-8.82a8.4,8.4,0,0,0,.67-1.43,4.69,4.69,0,0,0,.19-1.11l6,3.29a4.3,4.3,0,0,0-.84.77,8.25,8.25,0,0,0-.86,1.31l-4.87,8.82a8.43,8.43,0,0,0-.67,1.43,4.69,4.69,0,0,0-.19,1.11Z"/><path class="cls-1" d="M208.75,39.11a8.39,8.39,0,0,0,.8-1.36,4.77,4.77,0,0,0,.3-1.09l9.84,6.74a4.75,4.75,0,0,1,2.26,2.76,4.67,4.67,0,0,1-1.08,3.34L217.11,55a4.67,4.67,0,0,1-2.73,2.22A4.75,4.75,0,0,1,211,56.08l-9.84-6.75a4.31,4.31,0,0,0,.91-.69,8.32,8.32,0,0,0,1-1.22Zm-.92,11.7,2.51,1.72q.59.41.87.34t.74-.74l4.4-6.41a1.77,1.77,0,0,0,.42-1c0-.2-.23-.43-.62-.7l-2.51-1.72Z"/><path class="cls-1" d="M83.71,58.63a9.27,9.27,0,0,0-1.43-.55,6.05,6.05,0,0,0-1.64-.2h-7a2.87,2.87,0,0,0-1.18.15c-.19.1-.28.34-.28.71v1.12c0,.37.09.61.28.71a2.83,2.83,0,0,0,1.18.16H79a6.17,6.17,0,0,1,3.74.93,3.61,3.61,0,0,1,1.22,3.07v4.84a5.43,5.43,0,0,1-1.05,3.67q-1.05,1.19-3.69,1.19H65.54l-.65-3.84a10.16,10.16,0,0,0,1.36.41,7.47,7.47,0,0,0,1.61.15h7.32A2.72,2.72,0,0,0,76.33,71c.19-.1.28-.34.28-.71V68.92a.76.76,0,0,0-.28-.7,2.52,2.52,0,0,0-1.15-.17H69a4.53,4.53,0,0,1-3.25-.93,4.75,4.75,0,0,1-.93-3.38V59.31a5.08,5.08,0,0,1,1.08-3.5A4,4,0,0,1,69,54.6h14Z"/><path class="cls-1" d="M87,58a10.74,10.74,0,0,0-.14-2,6.11,6.11,0,0,0-.48-1.38h15.41q3.13,0,4.42,1.29t1.29,4.36V68.8q0,3.07-1.29,4.36t-4.42,1.29H86.34A5.52,5.52,0,0,0,86.8,73,10.61,10.61,0,0,0,87,71Zm7.56,13.14h3.94a1.66,1.66,0,0,0,1.18-.28,2.27,2.27,0,0,0,.25-1.33v-10a2.28,2.28,0,0,0-.25-1.32q-.25-.29-1.18-.29H94.52Z"/><path class="cls-1" d="M110,64.55h10.91v5.21H110Z"/><path class="cls-1" d="M146.39,64.77V70H143v1.74a6,6,0,0,0,.17,1.63,3.75,3.75,0,0,0,.54,1.1h-8.84a3.31,3.31,0,0,0,.51-1.07,6.39,6.39,0,0,0,.17-1.66V70H122.36V65.11L134.23,54.6H143V64.77Zm-10.82-6.59-7.77,6.59h7.77Z"/><path class="cls-1" d="M157.42,57.89a2.42,2.42,0,0,0-1.44.29,1.38,1.38,0,0,0-.36,1.1v3.78a3.81,3.81,0,0,1,.93-1.18,2,2,0,0,1,1.15-.28H164a5.33,5.33,0,0,1,3.5,1.15,3.77,3.77,0,0,1,1.4,3.07v4.4a3.76,3.76,0,0,1-1.41,3.05A5.3,5.3,0,0,1,164,74.44H153a5.33,5.33,0,0,1-3.5-1.15,3.77,3.77,0,0,1-1.39-3.07V58.82a3.76,3.76,0,0,1,1.41-3.05A5.3,5.3,0,0,1,153,54.6h14.91l.68,4a5.79,5.79,0,0,0-1.5-.55,12.61,12.61,0,0,0-2.59-.19Zm-.56,7a1.51,1.51,0,0,0-1,.23,1.16,1.16,0,0,0-.26.88v4a1.21,1.21,0,0,0,.25.87,1.43,1.43,0,0,0,1,.25h3.22a1.51,1.51,0,0,0,1-.23,1.16,1.16,0,0,0,.26-.88V66a1.22,1.22,0,0,0-.25-.87,1.44,1.44,0,0,0-1-.25Z"/><path class="cls-1" d="M184.8,54.6a7.21,7.21,0,0,1,4.15.91,3.6,3.6,0,0,1,1.24,3.11v3.32a2.14,2.14,0,0,1-1.07,2,7.29,7.29,0,0,1-3.55.64q2.88,0,3.75.74a3.15,3.15,0,0,1,.87,2.55V71a3.31,3.31,0,0,1-.93,2.52,4.35,4.35,0,0,1-3.07.89H171.12l-.71-4.25a10.49,10.49,0,0,0,1.64.73,5.88,5.88,0,0,0,1.8.23h7.41a1.78,1.78,0,0,0,1.1-.23,1.32,1.32,0,0,0,.26-1V67.22a1.37,1.37,0,0,0-.25-1,1.88,1.88,0,0,0-1.12-.22h-3.6a11.12,11.12,0,0,0-1.81.11,13.94,13.94,0,0,0-1.6.42V62.2a15.25,15.25,0,0,0,1.5.37,10.05,10.05,0,0,0,1.91.16h3.6a1.79,1.79,0,0,0,1.1-.23,1.32,1.32,0,0,0,.26-1V59.1a1.37,1.37,0,0,0-.25-1,1.88,1.88,0,0,0-1.12-.22H173.2a5.25,5.25,0,0,0-1.44.15,8.61,8.61,0,0,0-1.35.59l.68-4Z"/></svg>