<svg id="Layer_1" data-name="Layer 1" xmlns="http://www.w3.org/2000/svg" viewBox="0 0 250.93 88.19"><defs><style>.cls-1{fill:#231f20;}.cls-2{fill:#ffc418;}.cls-3{fill:none;stroke:#231f20;}</style></defs><title>SD-452</title><path class="cls-1" d="M5.4,55.53a171.41,171.41,0,0,1,121-50.13A167.4,167.4,0,0,1,245.53,54.93L221,82.78H29.31Z"/><path class="cls-2" d="M5.4,55.53a171.41,171.41,0,0,1,121-50.13A167.4,167.4,0,0,1,245.53,54.92L221,82.78H29.31ZM92.56,3.29a177,177,0,0,0-91,48.41,5.4,5.4,0,0,0-.25,7.39L25.25,86.35a5.4,5.4,0,0,0,4.06,1.84H221a5.39,5.39,0,0,0,4.05-1.83l24.52-27.86a5.39,5.39,0,0,0-.24-7.38A172.77,172.77,0,0,0,126.45,0,176.66,176.66,0,0,0,92.56,3.29"/><path class="cls-3" d="M5.4,55.53a171.42,171.42,0,0,1,121-50.13A167.4,167.4,0,0,1,245.53,54.93"/><path class="cls-2" d="M25.72,56.13l-2.29-2.66a8.33,8.33,0,0,0-1.11-1.12,4.72,4.72,0,0,0-1-.57l5.17-4.45a4.28,4.28,0,0,0,.43,1.05,8.23,8.23,0,0,0,.93,1.26l6.58,7.64a8.35,8.35,0,0,0,1.11,1.12,4.73,4.73,0,0,0,1,.57l-5.17,4.45a4.29,4.29,0,0,0-.43-1.05A8.23,8.23,0,0,0,30,61.11l-2.63-3.06-3.31,2.85L26.7,64a8.41,8.41,0,0,0,1.11,1.12,4.72,4.72,0,0,0,1,.57L23.62,70.1A4.31,4.31,0,0,0,23.19,69a8.28,8.28,0,0,0-.93-1.26l-6.58-7.64A8.38,8.38,0,0,0,14.58,59a4.77,4.77,0,0,0-1-.57L18.76,54a4.27,4.27,0,0,0,.43,1.05,8.18,8.18,0,0,0,.93,1.26L22.41,59Z"/><path class="cls-2" d="M41.4,37.29,48,33.06a4.67,4.67,0,0,0,.26,1.09A7.4,7.4,0,0,0,49,35.55L54.44,44a8.31,8.31,0,0,0,.94,1.28,4.23,4.23,0,0,0,.9.68l-5.76,3.68a4.29,4.29,0,0,0-.28-1.1,8.22,8.22,0,0,0-.74-1.38l-5.09-8,2.9,12.5-3.42,2.19L33.82,45.84l5,8a10.51,10.51,0,0,0,1,1.44,2.89,2.89,0,0,0,1,.6l-3.11,2a2.85,2.85,0,0,0-.14-1.11,10.28,10.28,0,0,0-.86-1.53l-5.3-8.29a10.34,10.34,0,0,0-1-1.42,2.87,2.87,0,0,0-.95-.59l6.79-4.34,7.16,5.76Z"/><path class="cls-2" d="M66.24,28.08a7.13,7.13,0,0,0-1.18.08,4.67,4.67,0,0,0-1.22.39l-5,2.28a2.22,2.22,0,0,0-.78.49q-.15.2,0,.59l.36.79q.18.39.43.41a2.21,2.21,0,0,0,.88-.27l3.77-1.73a4.76,4.76,0,0,1,2.93-.55,2.79,2.79,0,0,1,1.85,1.76l1.56,3.4a4.21,4.21,0,0,1,.45,2.92,3.67,3.67,0,0,1-2.21,2l-9.59,4.41-1.7-2.49A7.87,7.87,0,0,0,58,42.42,5.8,5.8,0,0,0,59.15,42l5.15-2.37a2.11,2.11,0,0,0,.76-.48q.15-.2,0-.59l-.44-1q-.17-.37-.42-.4a2,2,0,0,0-.86.25l-4.34,2a3.52,3.52,0,0,1-2.59.4,3.68,3.68,0,0,1-1.75-2.08l-1.43-3.12a3.93,3.93,0,0,1-.37-2.82A3.06,3.06,0,0,1,54.61,30l9.88-4.54Z"/><path class="cls-2" d="M83.1,35.2a4.28,4.28,0,0,0,.06-1.14,8.24,8.24,0,0,0-.31-1.54l-2.72-9.71a8.38,8.38,0,0,0-.53-1.48,4.77,4.77,0,0,0-.65-.93l6.56-1.84a4.28,4.28,0,0,0-.05,1.14,8.16,8.16,0,0,0,.31,1.54L88.48,31A8.28,8.28,0,0,0,89,32.44a4.67,4.67,0,0,0,.65.93Z"/><path class="cls-2" d="M103.21,15,111,13.79a4.65,4.65,0,0,0-.2,1.1,7.45,7.45,0,0,0,.12,1.58l1.61,10a8.32,8.32,0,0,0,.36,1.55,4.23,4.23,0,0,0,.56,1L106.67,30a4.28,4.28,0,0,0,.18-1.12,8.24,8.24,0,0,0-.13-1.56L105.2,18,102.9,30.66l-4,.65-6-11.42,1.46,9.33A10.56,10.56,0,0,0,94.7,31a2.9,2.9,0,0,0,.64.93l-3.65.59A2.84,2.84,0,0,0,92,31.4a10.2,10.2,0,0,0-.19-1.75l-1.57-9.71a10.26,10.26,0,0,0-.37-1.71,2.85,2.85,0,0,0-.63-.92l8-1.29,4.28,8.13Z"/><path class="cls-2" d="M121.37,26.23a8.31,8.31,0,0,0,.14,1.57,4.72,4.72,0,0,0,.39,1.06l-6.81.15a4.26,4.26,0,0,0,.34-1.09,8.25,8.25,0,0,0,.09-1.56l-.22-10.08a7.41,7.41,0,0,0-.17-1.6,2.8,2.8,0,0,0-.51-1l12.57-.27a4.61,4.61,0,0,1,2.92.72,3.63,3.63,0,0,1,1,2.94l.05,2.4a3.66,3.66,0,0,1-.91,3,4.6,4.6,0,0,1-2.9.84l-6.09.13Zm-.12-5.37,3.07-.07a1.08,1.08,0,0,0,.85-.27,1.87,1.87,0,0,0,.18-1.07l0-2.16a1.87,1.87,0,0,0-.23-1.06,1.08,1.08,0,0,0-.86-.23l-3.07.07Z"/><path class="cls-2" d="M144.64,27.3a9.07,9.07,0,0,0,1.44,0,8.74,8.74,0,0,0,1.22-.21L146.51,30,133,28.79a4.27,4.27,0,0,0,.46-1,8.24,8.24,0,0,0,.26-1.54l.92-10a8.42,8.42,0,0,0,0-1.58,4.73,4.73,0,0,0-.27-1.1l13.24,1.21.19,3.15a10.66,10.66,0,0,0-1.13-.51,5.53,5.53,0,0,0-1.47-.3l-4.76-.43-.33,3.58,4.16.38a8.55,8.55,0,0,0,1.41,0A10.63,10.63,0,0,0,147,20.4l-.31,3.35a11.48,11.48,0,0,0-1.13-.39,7.72,7.72,0,0,0-1.46-.25l-4.16-.38-.37,4.11Z"/><path class="cls-2" d="M155.84,25,155,28.91a8.42,8.42,0,0,0-.22,1.56,4.74,4.74,0,0,0,.14,1.12l-6.67-1.42a4.3,4.3,0,0,0,.58-1,8.23,8.23,0,0,0,.44-1.5l2.09-9.86a7.4,7.4,0,0,0,.2-1.6,2.8,2.8,0,0,0-.27-1.11l12.35,2.62a4.87,4.87,0,0,1,2.81,1.37,3.18,3.18,0,0,1,.38,2.77l-.59,2.77q-.32,1.5-1,1.84a2.8,2.8,0,0,1-1.81.09l1.15,4.66q.17.72.35,1.43a4.75,4.75,0,0,0,.41,1.13l-6.41-1.36-1.34-7.1Zm.53-2.49,3.24.69a1.3,1.3,0,0,0,.78,0c.15-.08.26-.29.33-.65l.39-1.83a.93.93,0,0,0,0-.72,1.24,1.24,0,0,0-.72-.32L157.12,19Z"/><path class="cls-2" d="M171.76,31.62l-1.68,1.64a2,2,0,0,0-.51.79,2,2,0,0,0-.14.53,3.39,3.39,0,0,0,.08.63l-4.09-1.46q1-.6,1.45-1a11.41,11.41,0,0,0,1.14-1l9.21-9.15-.34-1,6.53,2.33.7,14.32a7.21,7.21,0,0,0,.55,2.44L177.39,38a3.66,3.66,0,0,0,.45-.46,1.41,1.41,0,0,0,.21-.37,2.9,2.9,0,0,0,.18-1.16l-.13-2.14Zm6.26-.47-.31-5.63-4,4.1Z"/><path class="cls-2" d="M204.66,33.68l-1,3a4.89,4.89,0,0,0-.67-.82,4.22,4.22,0,0,0-1-.67L199.62,34,195,43.08a8.4,8.4,0,0,0-.61,1.45,4.73,4.73,0,0,0-.15,1.12l-6.09-3.06a4.29,4.29,0,0,0,.81-.8,8.25,8.25,0,0,0,.81-1.34l4.57-9.09L192,30.16a4,4,0,0,0-1.12-.42,5.35,5.35,0,0,0-1.11,0l1.85-2.61Z"/><path class="cls-2" d="M205.22,39.15a5,5,0,0,1,2.72-2.34,3.77,3.77,0,0,1,3,.73l7.32,4.85a3.8,3.8,0,0,1,1.85,2.48A5,5,0,0,1,219,48.3l-3.5,5.28a5,5,0,0,1-2.72,2.34,3.77,3.77,0,0,1-3-.73l-7.32-4.85a3.8,3.8,0,0,1-1.85-2.48,5,5,0,0,1,1.11-3.43Zm.83,9.34q-.54.82.42,1.46l2.12,1.41q1,.64,1.5-.18l4.59-6.92q.54-.82-.42-1.46l-2.12-1.41q-1-.64-1.5.18Z"/><path class="cls-2" d="M223.79,57.64l-2.64,3a8.38,8.38,0,0,0-.95,1.26,4.76,4.76,0,0,0-.42,1.05l-5.15-4.46a4.31,4.31,0,0,0,1-.58,8.15,8.15,0,0,0,1.11-1.1l6.6-7.62a7.4,7.4,0,0,0,1-1.3,2.8,2.8,0,0,0,.3-1.1l9.55,8.26a4.88,4.88,0,0,1,1.8,2.56,3.18,3.18,0,0,1-1,2.61l-1.85,2.14q-1,1.16-1.77,1.12a2.81,2.81,0,0,1-1.63-.79l-1.25,4.63q-.2.71-.39,1.42a4.81,4.81,0,0,0-.19,1.19l-5-4.29,2.26-6.87Zm1.66-1.92,2.5,2.17a1.3,1.3,0,0,0,.68.38c.17,0,.37-.13.61-.41l1.22-1.42a.93.93,0,0,0,.31-.65,1.23,1.23,0,0,0-.47-.63L227.81,53Z"/><path class="cls-2" d="M83.12,58.63a9.24,9.24,0,0,0-1.43-.55,6,6,0,0,0-1.64-.2H73a2.87,2.87,0,0,0-1.18.15c-.19.1-.28.34-.28.71v1.12c0,.37.09.61.28.71a2.83,2.83,0,0,0,1.18.16h5.36a6.16,6.16,0,0,1,3.74.93,3.61,3.61,0,0,1,1.22,3.07v4.84a5.44,5.44,0,0,1-1.05,3.67q-1.05,1.19-3.69,1.19H64.95L64.3,70.6a10.15,10.15,0,0,0,1.36.41,7.48,7.48,0,0,0,1.61.15h7.32A2.73,2.73,0,0,0,75.74,71c.19-.1.28-.34.28-.71V68.92a.76.76,0,0,0-.28-.7,2.53,2.53,0,0,0-1.15-.17H68.42a4.54,4.54,0,0,1-3.25-.93,4.75,4.75,0,0,1-.93-3.38V59.31a5.08,5.08,0,0,1,1.09-3.5,4,4,0,0,1,3.1-1.21h14Z"/><path class="cls-2" d="M86.37,58a10.74,10.74,0,0,0-.14-2,6.11,6.11,0,0,0-.48-1.38h15.41q3.13,0,4.42,1.29t1.29,4.36V68.8q0,3.07-1.29,4.36t-4.42,1.29H85.75A5.52,5.52,0,0,0,86.22,73a10.61,10.61,0,0,0,.16-2Zm7.56,13.14h3.94A1.66,1.66,0,0,0,99,70.88a2.27,2.27,0,0,0,.25-1.33v-10A2.28,2.28,0,0,0,99,58.18q-.25-.29-1.18-.29H93.94Z"/><path class="cls-2" d="M109.37,64.55h10.91v5.21H109.37Z"/><path class="cls-2" d="M145.8,64.77V70h-3.38v1.74a6,6,0,0,0,.17,1.63,3.75,3.75,0,0,0,.54,1.1H134.3a3.35,3.35,0,0,0,.51-1.07,6.39,6.39,0,0,0,.17-1.66V70H121.77V65.11L133.64,54.6h8.77V64.77ZM135,58.18l-7.77,6.59H135Z"/><path class="cls-2" d="M154.72,61.79h8.09a5.28,5.28,0,0,1,3.8,1.1,4.67,4.67,0,0,1,1.1,3.43v3.6a4.67,4.67,0,0,1-1.1,3.43,5.28,5.28,0,0,1-3.8,1.1h-15l-.68-4.28a4.67,4.67,0,0,0,1.36.71,7.71,7.71,0,0,0,2.39.28h7.9a1.77,1.77,0,0,0,1.13-.23,1.64,1.64,0,0,0,.23-1.07V66.38a1.57,1.57,0,0,0-.25-1.05,1.69,1.69,0,0,0-1.12-.25h-8a9.39,9.39,0,0,0-1.94.17,3.45,3.45,0,0,0-1.47.73l.25-11.38h19.84l.59,4a6.64,6.64,0,0,0-1.61-.57,13.12,13.12,0,0,0-2.51-.18h-9Z"/><path class="cls-2" d="M186.84,71.15a9.41,9.41,0,0,0,2-.16,19,19,0,0,0,2.11-.71l-.71,4.15H170.32V65.61a4.68,4.68,0,0,1,.88-3.3,4.09,4.09,0,0,1,3-.88l8.06-.43a1.32,1.32,0,0,0,.93-.25,1.16,1.16,0,0,0,.25-.84V58.82a.8.8,0,0,0-.33-.7,2,2,0,0,0-1.13-.23h-8.68a6.47,6.47,0,0,0-3.1.71l.65-4h14.63q3.13,0,4.2,1.1a4.76,4.76,0,0,1,1.07,3.42v4a4,4,0,0,1-1,3.08,5.32,5.32,0,0,1-3.46.85l-7.5.37q-.62,0-.76.45a2.86,2.86,0,0,0-.14.85v2.45Z"/></svg>