<svg id="Layer_1" data-name="Layer 1" xmlns="http://www.w3.org/2000/svg" viewBox="0 0 250.93 88.19"><defs><style>.cls-1{fill:#ffc418;}</style></defs><title>SD-455</title><path d="M5.4,55.53a171.41,171.41,0,0,1,121-50.13A167.4,167.4,0,0,1,245.53,54.93L221,82.78H29.31Z"/><path class="cls-1" d="M5.4,55.53a171.41,171.41,0,0,1,121-50.13A167.4,167.4,0,0,1,245.53,54.92L221,82.78H29.31ZM92.56,3.29a177,177,0,0,0-91,48.41,5.4,5.4,0,0,0-.25,7.39L25.25,86.35a5.4,5.4,0,0,0,4.06,1.84H221a5.39,5.39,0,0,0,4.05-1.83l24.52-27.86a5.39,5.39,0,0,0-.24-7.38A172.77,172.77,0,0,0,126.45,0,176.66,176.66,0,0,0,92.56,3.29"/><path class="cls-1" d="M29.23,53.28,27,50.56a8.36,8.36,0,0,0-1.08-1.15,4.72,4.72,0,0,0-1-.59l5.29-4.3a4.29,4.29,0,0,0,.4,1.07,8.27,8.27,0,0,0,.89,1.29l6.36,7.82A8.28,8.28,0,0,0,39,55.84a4.7,4.7,0,0,0,1,.59l-5.29,4.3a4.29,4.29,0,0,0-.4-1.07,8.27,8.27,0,0,0-.89-1.29l-2.54-3.13L27.44,58,30,61.13a8.39,8.39,0,0,0,1.07,1.15,4.74,4.74,0,0,0,1,.59l-5.29,4.3a4.29,4.29,0,0,0-.4-1.07,8.27,8.27,0,0,0-.89-1.29L19.09,57A8.38,8.38,0,0,0,18,55.85a4.76,4.76,0,0,0-1-.59L22.34,51a4.29,4.29,0,0,0,.4,1.06,8.23,8.23,0,0,0,.89,1.29L25.84,56Z"/><path class="cls-1" d="M45.45,34.89l6.73-4a4.67,4.67,0,0,0,.22,1.1,7.41,7.41,0,0,0,.7,1.43L58.29,42a8.3,8.3,0,0,0,.91,1.3,4.2,4.2,0,0,0,.88.7l-5.87,3.52A4.3,4.3,0,0,0,54,46.43a8.25,8.25,0,0,0-.7-1.4L48.4,36.92,50.94,49.5l-3.48,2.08-9.83-8.37,4.82,8.13a10.54,10.54,0,0,0,1,1.47,2.9,2.9,0,0,0,.94.63l-3.17,1.9a2.86,2.86,0,0,0-.11-1.11,10.3,10.3,0,0,0-.82-1.55l-5.06-8.44a10.22,10.22,0,0,0-1-1.45,2.87,2.87,0,0,0-.93-.62L40.22,38l7,6Z"/><path class="cls-1" d="M70.56,26.4a7.23,7.23,0,0,0-1.18,0,4.65,4.65,0,0,0-1.23.36l-5,2.13a2.21,2.21,0,0,0-.79.47q-.15.19,0,.59l.34.79c.11.27.25.41.42.42A2.2,2.2,0,0,0,64,31l3.82-1.62a4.77,4.77,0,0,1,2.94-.47,2.8,2.8,0,0,1,1.8,1.82L74,34.13a4.2,4.2,0,0,1,.36,2.94,3.67,3.67,0,0,1-2.27,2L62.4,43.16l-1.63-2.54a7.68,7.68,0,0,0,1.09-.12,5.81,5.81,0,0,0,1.19-.38l5.21-2.21a2.09,2.09,0,0,0,.77-.46q.15-.19,0-.59l-.41-1q-.16-.37-.41-.41a2,2,0,0,0-.87.23l-4.4,1.87a3.51,3.51,0,0,1-2.6.32,3.68,3.68,0,0,1-1.69-2.13L57.32,32.6A3.93,3.93,0,0,1,57,29.77,3.06,3.06,0,0,1,58.87,28l10-4.25Z"/><path class="cls-1" d="M87.18,34a4.34,4.34,0,0,0,.09-1.13A8.31,8.31,0,0,0,87,31.34l-2.44-9.78a8.32,8.32,0,0,0-.49-1.5,4.72,4.72,0,0,0-.62-.95l6.61-1.65A4.34,4.34,0,0,0,90,18.6a8.24,8.24,0,0,0,.26,1.54l2.44,9.78a8.36,8.36,0,0,0,.49,1.5,4.74,4.74,0,0,0,.62.95Z"/><path class="cls-1" d="M97.2,18.63l1.4,9.86A10.27,10.27,0,0,0,99,30.21a2.84,2.84,0,0,0,.62.93l-3.66.54a2.84,2.84,0,0,0,.33-1.07,10.31,10.31,0,0,0-.16-1.75l-1.43-9.73a10.31,10.31,0,0,0-.35-1.72,2.86,2.86,0,0,0-.62-.93l8.14-1.2,8,11.48-1.35-9.67a10.29,10.29,0,0,0-.35-1.72,2.85,2.85,0,0,0-.62-.93l3.66-.54a2.83,2.83,0,0,0-.33,1.07,10.3,10.3,0,0,0,.16,1.75l1.84,12.46-7.5,1.11Z"/><path class="cls-1" d="M119.87,28.9l-5.35-13.84a3.44,3.44,0,0,0-.41-.77,3.63,3.63,0,0,0-.55-.62l7.29-.15a4.13,4.13,0,0,0-.11.63c0,.08,0,.15,0,.22a4.07,4.07,0,0,0,.09.74,8.23,8.23,0,0,0,.43,1.24l3.55,9.18,3.4-9.33a11.12,11.12,0,0,0,.33-1.09,3.54,3.54,0,0,0,.12-.91,2.22,2.22,0,0,0-.06-.47c0-.15-.06-.27-.08-.37l4-.08a5.65,5.65,0,0,0-.72,1.07A12.94,12.94,0,0,0,131,16.1l-4.59,12.67Z"/><path class="cls-1" d="M133.88,28.95a4.27,4.27,0,0,0,.44-1.05,8.25,8.25,0,0,0,.24-1.55l.75-10.05a8.42,8.42,0,0,0,0-1.58,4.76,4.76,0,0,0-.29-1.09l6.8.5a4.31,4.31,0,0,0-.44,1.05,8.26,8.26,0,0,0-.24,1.55l-.75,10.05a8.34,8.34,0,0,0,0,1.58,4.69,4.69,0,0,0,.29,1.09Z"/><path class="cls-1" d="M148.23,17.48l-1.77,9.8a10.25,10.25,0,0,0-.21,1.74,2.85,2.85,0,0,0,.3,1.08l-3.64-.64a2.87,2.87,0,0,0,.65-.91,10.31,10.31,0,0,0,.4-1.71l1.7-9.69a10.36,10.36,0,0,0,.21-1.74,2.86,2.86,0,0,0-.3-1.08l8.11,1.42,4,13.42,1.76-9.61a10.21,10.21,0,0,0,.21-1.74,2.88,2.88,0,0,0-.3-1.08l3.64.64a2.84,2.84,0,0,0-.65.91,10.15,10.15,0,0,0-.4,1.71l-2.18,12.41-7.47-1.31Z"/><path class="cls-1" d="M178.66,25.3a6.7,6.7,0,0,0-.9-.71,4.59,4.59,0,0,0-1.18-.52l-4-1.22q-1.1-.33-1.39.61l-2.41,7.95q-.29.94.82,1.28l3.17,1a14.74,14.74,0,0,0,2.19.55,5.15,5.15,0,0,0,1.35-.08L174.91,37l-9.05-2.74a3.8,3.8,0,0,1-2.49-1.84,5,5,0,0,1,.08-3.6l1.84-6.06a5,5,0,0,1,1.93-3,3.77,3.77,0,0,1,3.1-.17l8.82,2.67Z"/><path class="cls-1" d="M177,37.84a4.32,4.32,0,0,0,.74-.87,8.22,8.22,0,0,0,.69-1.4l3.75-9.36a8.37,8.37,0,0,0,.48-1.5,4.77,4.77,0,0,0,.05-1.13L189,26.11a4.34,4.34,0,0,0-.74.87,8.27,8.27,0,0,0-.69,1.4l-3.75,9.36a8.4,8.4,0,0,0-.48,1.5,4.66,4.66,0,0,0-.05,1.13Z"/><path class="cls-1" d="M191.77,30a8.34,8.34,0,0,0,.63-1.44,4.8,4.8,0,0,0,.16-1.12l11.16,5.79a4.71,4.71,0,0,1,2.42,2.14,3,3,0,0,1-.3,2.43l-.78,1.51a2,2,0,0,1-1.58,1.28,4.85,4.85,0,0,1-2.47-.71,7.71,7.71,0,0,1,2.06,1.87,1.8,1.8,0,0,1-.17,1.74l-1.2,2.32a3.23,3.23,0,0,1-1.87,1.76,4.52,4.52,0,0,1-3.16-.71l-11.16-5.79a4.27,4.27,0,0,0,.82-.79,8.21,8.21,0,0,0,.83-1.33Zm.51,11.73,3,1.57a1.31,1.31,0,0,0,.75.22c.16,0,.33-.21.5-.54l1.11-2.13a.93.93,0,0,0,.15-.71,1.23,1.23,0,0,0-.6-.5l-3-1.57Zm3.07-5.92,3,1.57a1.31,1.31,0,0,0,.75.22q.24-.05.5-.54l.86-1.66a.93.93,0,0,0,.15-.71,1.23,1.23,0,0,0-.6-.5l-3-1.57Z"/><path class="cls-1" d="M212.63,54.08a7.35,7.35,0,0,0,1.35.75,3.12,3.12,0,0,0,1,.24l-2.12,2.25-11-7.41a4.31,4.31,0,0,0,.9-.69,8.29,8.29,0,0,0,1-1.23l5.64-8.36a8.39,8.39,0,0,0,.79-1.36,4.77,4.77,0,0,0,.29-1.09L216.14,41a4.31,4.31,0,0,0-.9.69,8.23,8.23,0,0,0-1,1.23l-5.69,8.44Z"/><path class="cls-1" d="M224.37,63.52a9,9,0,0,0,1.16.86,8.65,8.65,0,0,0,1.13.52l-2.3,1.93L214,58.15a4.34,4.34,0,0,0,1-.6A8.25,8.25,0,0,0,216,56.43l6.46-7.73a8.33,8.33,0,0,0,.93-1.28,4.78,4.78,0,0,0,.4-1.06L234,54.89l-1.63,2.7a10.81,10.81,0,0,0-.64-1.07,5.56,5.56,0,0,0-1-1.08l-3.66-3.06-2.31,2.76,3.21,2.68a8.59,8.59,0,0,0,1.13.84,10.76,10.76,0,0,0,1.16.54l-2.16,2.58a11.86,11.86,0,0,0-.71-1,7.86,7.86,0,0,0-1.06-1l-3.2-2.68-2.65,3.17Z"/><path class="cls-1" d="M83.12,58.63a9.24,9.24,0,0,0-1.43-.55,6,6,0,0,0-1.64-.2H73a2.87,2.87,0,0,0-1.18.15c-.19.1-.28.34-.28.71v1.12c0,.37.09.61.28.71a2.83,2.83,0,0,0,1.18.16h5.36a6.16,6.16,0,0,1,3.74.93,3.61,3.61,0,0,1,1.22,3.07v4.84a5.44,5.44,0,0,1-1.05,3.67q-1.05,1.19-3.69,1.19H64.95L64.3,70.6a10.15,10.15,0,0,0,1.36.41,7.48,7.48,0,0,0,1.61.15h7.32A2.73,2.73,0,0,0,75.74,71c.19-.1.28-.34.28-.71V68.92a.76.76,0,0,0-.28-.7,2.53,2.53,0,0,0-1.15-.17H68.42a4.54,4.54,0,0,1-3.25-.93,4.75,4.75,0,0,1-.93-3.38V59.31a5.08,5.08,0,0,1,1.09-3.5,4,4,0,0,1,3.1-1.21h14Z"/><path class="cls-1" d="M86.37,58a10.74,10.74,0,0,0-.14-2,6.11,6.11,0,0,0-.48-1.38h15.41q3.13,0,4.42,1.29t1.29,4.36V68.8q0,3.07-1.29,4.36t-4.42,1.29H85.75A5.52,5.52,0,0,0,86.22,73a10.61,10.61,0,0,0,.16-2Zm7.56,13.14h3.94A1.66,1.66,0,0,0,99,70.88a2.27,2.27,0,0,0,.25-1.33v-10A2.28,2.28,0,0,0,99,58.18q-.25-.29-1.18-.29H93.94Z"/><path class="cls-1" d="M109.37,64.55h10.91v5.21H109.37Z"/><path class="cls-1" d="M145.8,64.77V70h-3.38v1.74a6,6,0,0,0,.17,1.63,3.75,3.75,0,0,0,.54,1.1H134.3a3.35,3.35,0,0,0,.51-1.07,6.39,6.39,0,0,0,.17-1.66V70H121.77V65.11L133.64,54.6h8.77V64.77ZM135,58.18l-7.77,6.59H135Z"/><path class="cls-1" d="M154.72,61.79h8.09a5.28,5.28,0,0,1,3.8,1.1,4.67,4.67,0,0,1,1.1,3.43v3.6a4.67,4.67,0,0,1-1.1,3.43,5.28,5.28,0,0,1-3.8,1.1h-15l-.68-4.28a4.67,4.67,0,0,0,1.36.71,7.71,7.71,0,0,0,2.39.28h7.9a1.77,1.77,0,0,0,1.13-.23,1.64,1.64,0,0,0,.23-1.07V66.38a1.57,1.57,0,0,0-.25-1.05,1.69,1.69,0,0,0-1.12-.25h-8a9.39,9.39,0,0,0-1.94.17,3.45,3.45,0,0,0-1.47.73l.25-11.38h19.84l.59,4a6.64,6.64,0,0,0-1.61-.57,13.12,13.12,0,0,0-2.51-.18h-9Z"/><path class="cls-1" d="M177.7,61.79h8.09a5.28,5.28,0,0,1,3.8,1.1,4.67,4.67,0,0,1,1.1,3.43v3.6a4.67,4.67,0,0,1-1.1,3.43,5.28,5.28,0,0,1-3.8,1.1h-15l-.68-4.28a4.67,4.67,0,0,0,1.36.71,7.71,7.71,0,0,0,2.39.28h7.9a1.77,1.77,0,0,0,1.13-.23,1.64,1.64,0,0,0,.23-1.07V66.38a1.57,1.57,0,0,0-.25-1.05,1.69,1.69,0,0,0-1.12-.25h-8a9.39,9.39,0,0,0-1.94.17,3.45,3.45,0,0,0-1.47.73l.25-11.38h19.84l.59,4a6.64,6.64,0,0,0-1.61-.57,13.12,13.12,0,0,0-2.51-.18h-9Z"/></svg>